<svg xmlns="http://www.w3.org/2000/svg" viewBox="0 0 224.94 200.3"><title>OJ104440668</title><path d="M211.09,79h-20.5a1.09,1.09,0,0,0-1.09,1.1V96.88a1.09,1.09,0,0,0,1.09,1.1h5.28a3.29,3.29,0,0,0,3.21,2.27,3.38,3.38,0,0,0,0-6.75,3.29,3.29,0,0,0-3.21,2.27h-4.19v-12H210v12h-3.45a7.61,7.61,0,0,0-7.46-6.56,8.25,8.25,0,0,0-3.64.92l1,2a5.27,5.27,0,0,1,2.55-.67,5.46,5.46,0,0,1,0,10.91,5.27,5.27,0,0,1-2.55-.67l-1,2a7.51,7.51,0,0,0,3.64.92A7.61,7.61,0,0,0,206.54,98h4.55a1.09,1.09,0,0,0,1.09-1.1V80.13A1.14,1.14,0,0,0,211.09,79Z" fill="#008bfd" fill-rule="evenodd"/><path d="M73.65,106H59.44V77.6H73.65v7.67h.76V76.83H58.68v29.91H74.41v-2.32h-.76Z" fill="#0078d7" fill-rule="evenodd"/><path d="M72.88,78.39H60.24V83H72.88ZM63.3,80.31h6.53v.76H63.3Zm6.59,1.84H63.27v-.76h6.62Z" fill="#0078d7" fill-rule="evenodd"/><path d="M60.21,83.74V86.8h8.6V85.27h4.08V83.74Z" fill="#0078d7" fill-rule="evenodd"/><rect x="60.21" y="87.57" width="8.6" height="2.68" fill="#0078d7"/><path d="M60.21,105.21H72.86v-.8H68.78V91h-8.6v14.17Zm1.53-2.74H64v1.21H61.74Z" fill="#0078d7" fill-rule="evenodd"/><path d="M83.43,102.15H81v-1.87H78.46v1.87H76a1.32,1.32,0,0,0-1.31,1.15h10A1.29,1.29,0,0,0,83.43,102.15Z" fill="#0078d7" fill-rule="evenodd"/><path d="M88.27,88.17H71.17a.65.65,0,0,0-.67.61V98.91a.65.65,0,0,0,.67.6h17.1a.64.64,0,0,0,.67-.6V88.78A.63.63,0,0,0,88.27,88.17Zm-1,9.84H72.19V89.7H87.25Z" fill="#0078d7" fill-rule="evenodd"/><path d="M83.63,95.52V92.08l-3.51-1.84L76.62,92v3.54l3.5,1.81Zm-4.4-2.29.89-.45.86.45-.86.48Zm0-1.15.86-.44.86.44-.86.48Zm1.91,4.53-1,.51v-.93l1-.51Zm0-1.18-1,.51V95l1-.51Zm0-1.12-1,.51V93.9l1-.51Zm-.82-1.65.86-.45.89.45-.86.44Zm2,3.34-.95.51v-.92l.95-.51Zm0-1.18-.95.51v-.92l.95-.51Zm0-1.14-.95.51v-.9l.95-.51Zm1.05,1.75-.86.44V95l.86-.45Zm0-1.15-.86.45V93.8l.86-.44Zm0-1.14-.86.44v-.92l.86-.45Zm-.19-1.06-.89.45-.89-.45.86-.44Zm-1.11-.57-.89.45-.86-.45.86-.44Zm-2-1.05.86.45-.86.44-.89-.44ZM79,91.07l.86.44L79,92l-.86-.45Zm-1.08.57.89.44-.89.45-.9-.45Zm-.26,4.27-.86-.45v-.92l.86.44Zm0-1.18-.86-.45v-.92l.86.44Zm0-1.15-.86-.44v-.9l.86.45Zm1.18,2.93-1-.51v-.92l1,.51Zm0-1.18-1-.51V93.9l1,.51Zm0-1.14-1-.51v-.9l1,.51Zm-.7-1.53.89-.45.86.45-.89.48ZM80,97.12l-1-.51v-.89l1,.5ZM80,96l-1-.51v-.92l1,.51Zm0-1.15-1-.51v-.92l1,.51Z" fill="#0078d7" fill-rule="evenodd"/><path d="M84.06,154.79H63.56a1.09,1.09,0,0,0-1.09,1.1v16.75a1.09,1.09,0,0,0,1.09,1.1h5.28A3.29,3.29,0,0,0,72.05,176a3.38,3.38,0,0,0,0-6.75,3.29,3.29,0,0,0-3.21,2.27H64.65v-12H83v12H79.51A7.61,7.61,0,0,0,72.05,165a8.25,8.25,0,0,0-3.64.92l1,2a5.27,5.27,0,0,1,2.55-.67,5.46,5.46,0,0,1,0,10.91,5.27,5.27,0,0,1-2.55-.67l-1,2a7.51,7.51,0,0,0,3.64.92,7.61,7.61,0,0,0,7.46-6.56h4.55a1.09,1.09,0,0,0,1.09-1.1V155.89A1.14,1.14,0,0,0,84.06,154.79Z" fill="#008bfd" fill-rule="evenodd"/><g style="isolation:isolate"><path d="M44.85,193.3H44l-.75-2h-3l-.7,2h-.92l2.69-7h.85Zm-1.91-2.7-1.1-3a2.53,2.53,0,0,1-.11-.47h0a2.53,2.53,0,0,1-.11.47l-1.09,3Z" fill="#008bfd"/><path d="M46.46,190.65v2.65h-.83v-7h1.93a2.56,2.56,0,0,1,1.74.55,2,2,0,0,1,.62,1.54,2.14,2.14,0,0,1-.69,1.64,2.63,2.63,0,0,1-1.85.63Zm0-3.61v2.87h.85a1.92,1.92,0,0,0,1.3-.39,1.37,1.37,0,0,0,.45-1.1c0-.92-.55-1.38-1.64-1.38Z" fill="#008bfd"/><path d="M51.81,193.3H51v-7h.82Z" fill="#008bfd"/><path d="M64.19,186.29l-2,7h-1l-1.44-5.12a3.19,3.19,0,0,1-.12-.71h0a3.31,3.31,0,0,1-.12.7L58.1,193.3h-1l-2.06-7H56l1.49,5.38a3.2,3.2,0,0,1,.11.7h0a5,5,0,0,1,.15-.7l1.55-5.38h.78l1.49,5.42a4.48,4.48,0,0,1,.12.65h0a3.2,3.2,0,0,1,.13-.67l1.43-5.4Z" fill="#008bfd"/><path d="M68.5,191H65a1.87,1.87,0,0,0,.45,1.29,1.54,1.54,0,0,0,1.18.45,2.46,2.46,0,0,0,1.55-.56v.76a3,3,0,0,1-1.74.47,2.11,2.11,0,0,1-1.67-.68,2.79,2.79,0,0,1-.6-1.91,2.76,2.76,0,0,1,.66-1.91,2.12,2.12,0,0,1,1.64-.73,1.88,1.88,0,0,1,1.52.63,2.67,2.67,0,0,1,.54,1.77Zm-.82-.68a1.68,1.68,0,0,0-.34-1.08,1.12,1.12,0,0,0-.91-.39,1.32,1.32,0,0,0-1,.41,1.83,1.83,0,0,0-.48,1.06Z" fill="#008bfd"/><path d="M70.28,192.57h0v.73h-.8v-7.41h.8v3.29h0a1.88,1.88,0,0,1,1.73-1,1.81,1.81,0,0,1,1.5.67,2.74,2.74,0,0,1,.55,1.8,3.13,3.13,0,0,1-.61,2,2,2,0,0,1-1.67.75A1.65,1.65,0,0,1,70.28,192.57Zm0-2v.7a1.48,1.48,0,0,0,.4,1.05,1.43,1.43,0,0,0,2.16-.13,2.49,2.49,0,0,0,.42-1.54,2,2,0,0,0-.39-1.31,1.26,1.26,0,0,0-1-.48,1.45,1.45,0,0,0-1.13.49A1.79,1.79,0,0,0,70.26,190.56Z" fill="#008bfd"/><path d="M77.68,193.3v-7h1.94c2.46,0,3.7,1.14,3.7,3.42a3.4,3.4,0,0,1-1,2.6,3.79,3.79,0,0,1-2.75,1ZM78.5,187v5.51h1a3,3,0,0,0,2.14-.73,2.77,2.77,0,0,0,.77-2.09c0-1.8-.95-2.69-2.86-2.69Z" fill="#008bfd"/><path d="M87.92,193.3h-.8v-.78h0a1.69,1.69,0,0,1-1.54.89,1.65,1.65,0,0,1-1.17-.39A1.38,1.38,0,0,1,84,192c0-.94.55-1.48,1.65-1.63l1.5-.21c0-.85-.35-1.28-1-1.28a2.44,2.44,0,0,0-1.63.62v-.82a3.09,3.09,0,0,1,1.69-.47q1.77,0,1.77,1.86Zm-.8-2.53-1.21.16a2.11,2.11,0,0,0-.84.28.79.79,0,0,0-.28.7.76.76,0,0,0,.26.6,1,1,0,0,0,.69.23,1.29,1.29,0,0,0,1-.42,1.48,1.48,0,0,0,.39-1Z" fill="#008bfd"/><path d="M93.19,191H89.66a2,2,0,0,0,.45,1.29,1.56,1.56,0,0,0,1.18.45,2.47,2.47,0,0,0,1.56-.56v.76a3,3,0,0,1-1.75.47,2.09,2.09,0,0,1-1.66-.68,2.79,2.79,0,0,1-.61-1.91,2.72,2.72,0,0,1,.67-1.91,2.1,2.1,0,0,1,1.64-.73,1.9,1.9,0,0,1,1.52.63,2.67,2.67,0,0,1,.53,1.77Zm-.82-.68a1.62,1.62,0,0,0-.33-1.08,1.14,1.14,0,0,0-.92-.39,1.32,1.32,0,0,0-1,.41,1.91,1.91,0,0,0-.49,1.06Z" fill="#008bfd"/><path d="M101.25,193.3h-.8v-2.87a2.21,2.21,0,0,0-.25-1.21,1,1,0,0,0-.86-.37,1.08,1.08,0,0,0-.88.47,1.85,1.85,0,0,0-.35,1.13v2.85H97.3v-3c0-1-.37-1.48-1.13-1.48a1.07,1.07,0,0,0-.87.44,1.84,1.84,0,0,0-.34,1.16v2.85h-.8v-5H95v.79h0a1.68,1.68,0,0,1,1.55-.91,1.43,1.43,0,0,1,.89.28,1.45,1.45,0,0,1,.52.75,1.79,1.79,0,0,1,1.66-1q1.65,0,1.65,2Z" fill="#008bfd"/><path d="M104.61,193.41a2.31,2.31,0,0,1-1.77-.7,2.57,2.57,0,0,1-.66-1.85,2.7,2.7,0,0,1,.69-2,2.46,2.46,0,0,1,1.86-.71,2.24,2.24,0,0,1,1.74.69,2.72,2.72,0,0,1,.63,1.91,2.67,2.67,0,0,1-.68,1.91A2.36,2.36,0,0,1,104.61,193.41Zm.06-4.56a1.52,1.52,0,0,0-1.22.53,2.15,2.15,0,0,0-.45,1.45,2,2,0,0,0,.45,1.4,1.55,1.55,0,0,0,1.22.51,1.48,1.48,0,0,0,1.19-.5,2.2,2.2,0,0,0,.42-1.43,2.22,2.22,0,0,0-.42-1.45A1.46,1.46,0,0,0,104.67,188.85Z" fill="#008bfd"/><path d="M112.28,193.3h-.8v-2.85c0-1.07-.39-1.6-1.16-1.6a1.27,1.27,0,0,0-1,.45,1.72,1.72,0,0,0-.39,1.15v2.85h-.8v-5h.8v.83h0a1.81,1.81,0,0,1,1.64-.95,1.53,1.53,0,0,1,1.25.53,2.35,2.35,0,0,1,.44,1.53Z" fill="#008bfd"/></g><path d="M17.37,169.49H10.65a.59.59,0,0,1-.61-.57v-6.44H12v-1.77H24.4a.59.59,0,0,1,.62.57v.09a6.4,6.4,0,0,1,1,.33v-.42a1.53,1.53,0,0,0-1.58-1.46h-13L9.08,162v6.9a1.51,1.51,0,0,0,1.57,1.46h7.28A5.8,5.8,0,0,1,17.37,169.49Z" fill="gray" fill-rule="evenodd"/><path d="M26,171l2.34,3.26-2.17-.54-.61,1.64-2.34-2.88-1.75,2.88-.8-1.74-2.17.54,2.14-3.42s.58.92,2.69.92S26,171,26,171Z" fill="gray" fill-rule="evenodd"/><path d="M23.43,170.42a3.43,3.43,0,1,1,0-6.83,3.43,3.43,0,1,1,0,6.83Zm0-6.06a2.66,2.66,0,1,0,2.9,2.65A2.78,2.78,0,0,0,23.43,164.36Z" fill="gray" fill-rule="evenodd"/><path d="M23.43,172.23a5.24,5.24,0,1,1,0-10.45,5.24,5.24,0,1,1,0,10.45Zm0-9.69a4.48,4.48,0,1,0,0,8.93,4.48,4.48,0,1,0,0-8.93Z" fill="gray" fill-rule="evenodd"/><rect x="104.46" y="61.11" width="114.21" height="20" fill="none"/><g style="isolation:isolate"><path d="M116.71,67.85H114v2.42h2.53V71H114v3.1h-.82v-7h3.56Z" fill="#00b0f0"/><path d="M118.48,74.11h-.8v-7.4h.8Z" fill="#00b0f0"/><path d="M123.89,74.11h-.8v-.79h0a1.63,1.63,0,0,1-1.54.91c-1.19,0-1.79-.71-1.79-2.13v-3h.8V72c0,1.06.4,1.59,1.21,1.59a1.21,1.21,0,0,0,1-.44,1.61,1.61,0,0,0,.38-1.13V69.11h.8Z" fill="#00b0f0"/><path d="M125,73.93v-.86a2.36,2.36,0,0,0,1.44.49c.7,0,1-.24,1-.71a.64.64,0,0,0-.09-.34.91.91,0,0,0-.24-.24,2.56,2.56,0,0,0-.37-.2l-.44-.17c-.22-.09-.42-.18-.59-.27a2.25,2.25,0,0,1-.42-.3,1.24,1.24,0,0,1-.25-.39,1.28,1.28,0,0,1-.08-.5,1.17,1.17,0,0,1,.16-.62,1.44,1.44,0,0,1,.43-.46,2,2,0,0,1,.61-.27,2.82,2.82,0,0,1,.71-.09,2.86,2.86,0,0,1,1.16.22V70a2.27,2.27,0,0,0-1.27-.36,1.62,1.62,0,0,0-.4,0,.89.89,0,0,0-.31.14.62.62,0,0,0-.2.23.53.53,0,0,0-.07.28.67.67,0,0,0,.07.33.55.55,0,0,0,.2.23,2.17,2.17,0,0,0,.34.19l.44.18a5.68,5.68,0,0,1,.6.26,2.52,2.52,0,0,1,.45.3,1.48,1.48,0,0,1,.28.39,1.21,1.21,0,0,1,.1.52,1.23,1.23,0,0,1-.16.65,1.45,1.45,0,0,1-.44.45,2,2,0,0,1-.63.27,3.08,3.08,0,0,1-.75.09A2.78,2.78,0,0,1,125,73.93Z" fill="#00b0f0"/><path d="M129,73.93v-.86a2.39,2.39,0,0,0,1.44.49c.7,0,1.05-.24,1.05-.71a.64.64,0,0,0-.09-.34.91.91,0,0,0-.24-.24,2,2,0,0,0-.36-.2l-.45-.17c-.22-.09-.41-.18-.58-.27a1.74,1.74,0,0,1-.42-.3,1.27,1.27,0,0,1-.26-.39,1.5,1.5,0,0,1-.08-.5,1.17,1.17,0,0,1,.16-.62,1.57,1.57,0,0,1,.43-.46,2,2,0,0,1,.61-.27,2.82,2.82,0,0,1,.71-.09,2.91,2.91,0,0,1,1.17.22V70a2.3,2.3,0,0,0-1.27-.36,1.7,1.7,0,0,0-.41,0,1,1,0,0,0-.31.14.72.72,0,0,0-.2.23.53.53,0,0,0-.07.28.67.67,0,0,0,.07.33.66.66,0,0,0,.21.23,1.69,1.69,0,0,0,.33.19l.44.18a5.68,5.68,0,0,1,.6.26,2.2,2.2,0,0,1,.45.3,1.28,1.28,0,0,1,.28.39,1.21,1.21,0,0,1,.1.52,1.23,1.23,0,0,1-.16.65,1.35,1.35,0,0,1-.44.45,2,2,0,0,1-.63.27,2.94,2.94,0,0,1-.74.09A2.82,2.82,0,0,1,129,73.93Z" fill="#00b0f0"/><path d="M135.33,74.23a2.34,2.34,0,0,1-1.77-.7,2.61,2.61,0,0,1-.66-1.86,2.7,2.7,0,0,1,.69-2,2.48,2.48,0,0,1,1.86-.7,2.24,2.24,0,0,1,1.75.68,2.73,2.73,0,0,1,.63,1.91,2.7,2.7,0,0,1-.68,1.92A2.38,2.38,0,0,1,135.33,74.23Zm.06-4.56a1.52,1.52,0,0,0-1.22.52,2.17,2.17,0,0,0-.45,1.45,2.05,2.05,0,0,0,.46,1.4,1.55,1.55,0,0,0,1.21.52,1.47,1.47,0,0,0,1.2-.51,2.16,2.16,0,0,0,.41-1.43,2.21,2.21,0,0,0-.41-1.44A1.47,1.47,0,0,0,135.39,69.67Z" fill="#00b0f0"/><path d="M145.61,74.11h-.8v-.85h0a2,2,0,0,1-3.22.3,2.75,2.75,0,0,1-.57-1.83,3,3,0,0,1,.63-2,2,2,0,0,1,1.66-.74,1.6,1.6,0,0,1,1.5.81h0v-3.1h.8Zm-.8-2.26v-.74a1.41,1.41,0,0,0-.4-1,1.36,1.36,0,0,0-1-.42,1.39,1.39,0,0,0-1.15.54,2.33,2.33,0,0,0-.42,1.48,2.14,2.14,0,0,0,.4,1.36,1.32,1.32,0,0,0,1.09.51,1.38,1.38,0,0,0,1.08-.49A1.79,1.79,0,0,0,144.81,71.85Z" fill="#00b0f0"/><path d="M147.39,67.84a.52.52,0,0,1-.36-.14.48.48,0,0,1-.15-.37A.48.48,0,0,1,147,67a.49.49,0,0,1,.36-.15.54.54,0,0,1,.38.15.52.52,0,0,1,.15.38.49.49,0,0,1-.15.36A.54.54,0,0,1,147.39,67.84Zm.39,6.27H147v-5h.8Z" fill="#00b0f0"/><path d="M155.05,73.88a2.61,2.61,0,0,1-1.37.35,2.24,2.24,0,0,1-1.72-.7,2.5,2.5,0,0,1-.66-1.8,2.8,2.8,0,0,1,.71-2A2.5,2.5,0,0,1,153.9,69a2.64,2.64,0,0,1,1.16.24v.82a2,2,0,0,0-1.19-.39,1.61,1.61,0,0,0-1.26.55,2.11,2.11,0,0,0-.49,1.44,2,2,0,0,0,.46,1.39,1.59,1.59,0,0,0,1.24.51,2,2,0,0,0,1.23-.44Z" fill="#00b0f0"/><path d="M158.62,69.92a1,1,0,0,0-.61-.16,1,1,0,0,0-.85.49,2.21,2.21,0,0,0-.35,1.31v2.55H156v-5h.8v1h0a1.77,1.77,0,0,1,.53-.82,1.16,1.16,0,0,1,.78-.3,1.43,1.43,0,0,1,.48.07Z" fill="#00b0f0"/><path d="M163.26,71.81h-3.53a1.83,1.83,0,0,0,.45,1.29,1.55,1.55,0,0,0,1.18.46,2.46,2.46,0,0,0,1.55-.56v.75a2.89,2.89,0,0,1-1.74.48,2.14,2.14,0,0,1-1.67-.68,2.81,2.81,0,0,1-.6-1.92,2.73,2.73,0,0,1,.66-1.9A2.12,2.12,0,0,1,161.2,69a1.88,1.88,0,0,1,1.52.63,2.63,2.63,0,0,1,.54,1.76Zm-.82-.68a1.68,1.68,0,0,0-.34-1.08,1.15,1.15,0,0,0-.91-.38,1.28,1.28,0,0,0-1,.4,1.81,1.81,0,0,0-.49,1.06Z" fill="#00b0f0"/><path d="M168.49,74.11h-.8v-.85h0a2,2,0,0,1-3.23.3,2.74,2.74,0,0,1-.56-1.83,3,3,0,0,1,.62-2,2.06,2.06,0,0,1,1.67-.74,1.62,1.62,0,0,1,1.5.81h0v-3.1h.8Zm-.8-2.26v-.74a1.45,1.45,0,0,0-.4-1,1.36,1.36,0,0,0-1-.42,1.37,1.37,0,0,0-1.15.54,2.33,2.33,0,0,0-.42,1.48,2.08,2.08,0,0,0,.4,1.36,1.31,1.31,0,0,0,1.08.51,1.38,1.38,0,0,0,1.09-.49A1.79,1.79,0,0,0,167.69,71.85Z" fill="#00b0f0"/><path d="M173.88,71.81h-3.53a1.87,1.87,0,0,0,.44,1.29,1.57,1.57,0,0,0,1.19.46,2.46,2.46,0,0,0,1.55-.56v.75a2.89,2.89,0,0,1-1.74.48,2.13,2.13,0,0,1-1.67-.68,2.81,2.81,0,0,1-.6-1.92,2.73,2.73,0,0,1,.66-1.9,2.12,2.12,0,0,1,1.64-.73,1.9,1.9,0,0,1,1.52.63,2.63,2.63,0,0,1,.54,1.76Zm-.82-.68a1.68,1.68,0,0,0-.34-1.08,1.15,1.15,0,0,0-.91-.38,1.31,1.31,0,0,0-1,.4,1.86,1.86,0,0,0-.48,1.06Z" fill="#00b0f0"/><path d="M179,74.11h-.8V71.26q0-1.59-1.17-1.59a1.25,1.25,0,0,0-1,.45,1.68,1.68,0,0,0-.39,1.14v2.85h-.8v-5h.8v.83h0A1.79,1.79,0,0,1,177.3,69a1.53,1.53,0,0,1,1.25.52,2.39,2.39,0,0,1,.44,1.54Z" fill="#00b0f0"/><path d="M183.73,69.34l-3,4.09h2.93v.68h-4.1v-.25l3-4.06h-2.68v-.69h3.85Z" fill="#00b0f0"/><path d="M184.93,67.84a.53.53,0,0,1-.37-.14.51.51,0,0,1-.15-.37.52.52,0,0,1,.15-.38.5.5,0,0,1,.37-.15.51.51,0,0,1,.37.15.53.53,0,0,1,.16.38.5.5,0,0,1-.16.36A.51.51,0,0,1,184.93,67.84Zm.39,6.27h-.8v-5h.8Z" fill="#00b0f0"/><path d="M190.27,74.11h-.8v-.78h0a1.68,1.68,0,0,1-1.54.9,1.61,1.61,0,0,1-1.17-.4,1.36,1.36,0,0,1-.42-1c0-.93.55-1.47,1.65-1.63l1.5-.21c0-.85-.35-1.27-1-1.27a2.43,2.43,0,0,0-1.63.61v-.82a3.09,3.09,0,0,1,1.7-.46c1.17,0,1.76.62,1.76,1.86Zm-.8-2.53-1.21.17a2,2,0,0,0-.84.27.81.81,0,0,0-.28.71.76.76,0,0,0,.26.59,1,1,0,0,0,.7.24,1.29,1.29,0,0,0,1-.42,1.49,1.49,0,0,0,.39-1.06Z" fill="#00b0f0"/><path d="M192.33,74.11h-.8v-7.4h.8Z" fill="#00b0f0"/><path d="M194.11,67.84a.55.55,0,0,1-.37-.14.51.51,0,0,1-.15-.37.52.52,0,0,1,.15-.38.51.51,0,0,1,.37-.15.5.5,0,0,1,.37.15.53.53,0,0,1,.16.38.53.53,0,0,1-.53.51Zm.39,6.27h-.8v-5h.8Z" fill="#00b0f0"/><path d="M201.77,73.88a2.63,2.63,0,0,1-1.37.35,2.26,2.26,0,0,1-1.73-.7,2.53,2.53,0,0,1-.65-1.8,2.76,2.76,0,0,1,.71-2,2.5,2.5,0,0,1,1.89-.74,2.67,2.67,0,0,1,1.16.24v.82a2,2,0,0,0-1.19-.39,1.61,1.61,0,0,0-1.26.55,2.06,2.06,0,0,0-.49,1.44,2,2,0,0,0,.46,1.39,1.59,1.59,0,0,0,1.24.51,2,2,0,0,0,1.23-.44Z" fill="#00b0f0"/><path d="M203.53,74.11h-.8v-7.4h.8Z" fill="#00b0f0"/><path d="M205.31,67.84a.52.52,0,0,1-.36-.14.49.49,0,0,1-.16-.37.53.53,0,0,1,.52-.53.5.5,0,0,1,.37.15.49.49,0,0,1,.16.38.46.46,0,0,1-.16.36A.5.5,0,0,1,205.31,67.84Zm.39,6.27h-.8v-5h.8Z" fill="#00b0f0"/><path d="M211.09,71.81h-3.53A1.83,1.83,0,0,0,208,73.1a1.57,1.57,0,0,0,1.18.46,2.51,2.51,0,0,0,1.56-.56v.75a2.92,2.92,0,0,1-1.75.48,2.1,2.1,0,0,1-1.66-.68,2.77,2.77,0,0,1-.61-1.92,2.73,2.73,0,0,1,.66-1.9A2.12,2.12,0,0,1,209,69a1.86,1.86,0,0,1,1.51.63,2.63,2.63,0,0,1,.54,1.76Zm-.82-.68a1.62,1.62,0,0,0-.33-1.08,1.17,1.17,0,0,0-.92-.38,1.28,1.28,0,0,0-1,.4,1.87,1.87,0,0,0-.49,1.06Z" fill="#00b0f0"/><path d="M216.2,74.11h-.8V71.26c0-1.06-.39-1.59-1.16-1.59a1.25,1.25,0,0,0-1,.45,1.64,1.64,0,0,0-.4,1.14v2.85h-.8v-5h.8v.83h0a1.81,1.81,0,0,1,1.64-.94,1.54,1.54,0,0,1,1.26.52,2.39,2.39,0,0,1,.43,1.54Z" fill="#00b0f0"/><path d="M219.78,74.06a1.49,1.49,0,0,1-.75.16c-.87,0-1.31-.49-1.31-1.47v-3h-.86v-.69h.86V67.89l.8-.26v1.48h1.26v.69h-1.26v2.81a1.19,1.19,0,0,0,.17.72.72.72,0,0,0,.57.22.85.85,0,0,0,.52-.17Z" fill="#00b0f0"/></g><path d="M58.54,42.31h-.9l-.75-2h-3l-.69,2h-.92l2.69-7h.85Zm-1.91-2.7-1.1-3a1.92,1.92,0,0,1-.11-.46h0a2.6,2.6,0,0,1-.11.46l-1.09,3Z" fill="#008bfd"/><path d="M60.46,41.58h0v3h-.8v-7.3h.8v.88h0a1.88,1.88,0,0,1,1.73-1,1.81,1.81,0,0,1,1.5.67,2.74,2.74,0,0,1,.55,1.8,3.13,3.13,0,0,1-.61,2,2,2,0,0,1-1.67.75A1.65,1.65,0,0,1,60.46,41.58Zm0-2v.7a1.48,1.48,0,0,0,.4,1,1.33,1.33,0,0,0,1,.43A1.31,1.31,0,0,0,63,41.19a2.49,2.49,0,0,0,.42-1.54A2,2,0,0,0,63,38.34a1.28,1.28,0,0,0-1-.48,1.45,1.45,0,0,0-1.13.49A1.79,1.79,0,0,0,60.44,39.57Z" fill="#008bfd"/><path d="M66.51,41.58h0v3h-.8v-7.3h.8v.88h0a1.88,1.88,0,0,1,1.72-1,1.82,1.82,0,0,1,1.51.67,2.8,2.8,0,0,1,.55,1.8,3.07,3.07,0,0,1-.62,2,2,2,0,0,1-1.67.75A1.65,1.65,0,0,1,66.51,41.58Zm0-2v.7a1.48,1.48,0,0,0,.4,1,1.33,1.33,0,0,0,1,.43,1.31,1.31,0,0,0,1.14-.56,2.49,2.49,0,0,0,.41-1.54,2,2,0,0,0-.38-1.31,1.28,1.28,0,0,0-1-.48,1.43,1.43,0,0,0-1.12.49A1.79,1.79,0,0,0,66.49,39.57Z" fill="#008bfd"/><path d="M83.05,35.31l-2,7h-1l-1.44-5.12a3.19,3.19,0,0,1-.11-.71h0a3.32,3.32,0,0,1-.13.7L77,42.31H76l-2.05-7h.9l1.49,5.37a3.94,3.94,0,0,1,.12.7h0a4.07,4.07,0,0,1,.16-.7l1.54-5.37H79l1.48,5.41a3.44,3.44,0,0,1,.12.65h0a4,4,0,0,1,.13-.67l1.43-5.39Z" fill="#008bfd"/><path d="M88.17,40H84.64a2,2,0,0,0,.45,1.29,1.56,1.56,0,0,0,1.18.45,2.43,2.43,0,0,0,1.56-.56V42a2.9,2.9,0,0,1-1.75.47,2.09,2.09,0,0,1-1.66-.68,3.18,3.18,0,0,1,0-3.81,2.14,2.14,0,0,1,1.65-.74,1.87,1.87,0,0,1,1.52.64,2.68,2.68,0,0,1,.53,1.76Zm-.82-.68A1.62,1.62,0,0,0,87,38.25a1.14,1.14,0,0,0-.92-.39,1.28,1.28,0,0,0-1,.41,1.84,1.84,0,0,0-.49,1.06Z" fill="#008bfd"/><path d="M90.37,41.58h0v.73h-.8v-7.4h.8v3.28h0a1.89,1.89,0,0,1,1.73-1,1.83,1.83,0,0,1,1.51.67,2.8,2.8,0,0,1,.54,1.8,3.07,3.07,0,0,1-.61,2,2,2,0,0,1-1.67.75A1.63,1.63,0,0,1,90.37,41.58Zm0-2v.7a1.49,1.49,0,0,0,.41,1,1.33,1.33,0,0,0,1,.43,1.31,1.31,0,0,0,1.14-.56,2.49,2.49,0,0,0,.41-1.54A2,2,0,0,0,93,38.34a1.28,1.28,0,0,0-1-.48,1.43,1.43,0,0,0-1.12.49A1.8,1.8,0,0,0,90.35,39.57Z" fill="#008bfd"/><path d="M55.18,54.31v-7h1.93c2.47,0,3.7,1.13,3.7,3.41a3.4,3.4,0,0,1-1,2.6,3.79,3.79,0,0,1-2.75,1ZM56,48.05v5.52h1a3,3,0,0,0,2.15-.74A2.77,2.77,0,0,0,60,50.74c0-1.8-1-2.69-2.86-2.69Z" fill="#008bfd"/><path d="M65.83,54.31H65v-.78h0a1.84,1.84,0,0,1-2.71.5A1.36,1.36,0,0,1,61.88,53c0-.93.55-1.48,1.65-1.63l1.5-.21c0-.85-.34-1.28-1-1.28a2.46,2.46,0,0,0-1.63.62v-.82a3.12,3.12,0,0,1,1.7-.47c1.17,0,1.76.62,1.76,1.87ZM65,51.78l-1.21.16a2.11,2.11,0,0,0-.84.28.79.79,0,0,0-.28.7.78.78,0,0,0,.26.6,1.05,1.05,0,0,0,.7.23,1.29,1.29,0,0,0,1-.42,1.47,1.47,0,0,0,.39-1Z" fill="#008bfd"/><path d="M71.53,52H68a1.87,1.87,0,0,0,.45,1.29,1.54,1.54,0,0,0,1.18.45,2.41,2.41,0,0,0,1.55-.56V54a2.89,2.89,0,0,1-1.74.47,2.11,2.11,0,0,1-1.67-.68,2.79,2.79,0,0,1-.6-1.91,2.73,2.73,0,0,1,.66-1.9,2.12,2.12,0,0,1,1.64-.74,1.86,1.86,0,0,1,1.52.64,2.63,2.63,0,0,1,.54,1.76Zm-.82-.68a1.68,1.68,0,0,0-.34-1.08,1.12,1.12,0,0,0-.91-.39,1.28,1.28,0,0,0-1,.41A1.78,1.78,0,0,0,68,51.33Z" fill="#008bfd"/><path d="M80,54.31h-.8V51.44a2.13,2.13,0,0,0-.26-1.2,1,1,0,0,0-.86-.38,1.08,1.08,0,0,0-.87.47,1.82,1.82,0,0,0-.36,1.13v2.85h-.8v-3c0-1-.38-1.48-1.14-1.48a1.05,1.05,0,0,0-.87.45,1.79,1.79,0,0,0-.34,1.15v2.85h-.8v-5h.8v.79h0a1.68,1.68,0,0,1,1.55-.91,1.47,1.47,0,0,1,1.42,1,1.78,1.78,0,0,1,1.66-1q1.65,0,1.65,2Z" fill="#008bfd"/><path d="M83.78,54.42a2.31,2.31,0,0,1-1.77-.7,2.57,2.57,0,0,1-.66-1.85,2.7,2.7,0,0,1,.69-2,2.49,2.49,0,0,1,1.86-.71,2.22,2.22,0,0,1,1.74.69,2.72,2.72,0,0,1,.63,1.91,2.67,2.67,0,0,1-.67,1.91A2.39,2.39,0,0,1,83.78,54.42Zm.06-4.56a1.53,1.53,0,0,0-1.22.53,2.15,2.15,0,0,0-.45,1.45,2,2,0,0,0,.45,1.4,1.56,1.56,0,0,0,1.22.51,1.46,1.46,0,0,0,1.19-.5,2.18,2.18,0,0,0,.42-1.43A2.22,2.22,0,0,0,85,50.37,1.43,1.43,0,0,0,83.84,49.86Z" fill="#008bfd"/><path d="M91.87,54.31h-.8V51.46c0-1.06-.39-1.6-1.16-1.6a1.27,1.27,0,0,0-1,.46,1.68,1.68,0,0,0-.39,1.14v2.85h-.8v-5h.8v.83h0a1.82,1.82,0,0,1,1.64-1,1.55,1.55,0,0,1,1.26.53,2.34,2.34,0,0,1,.43,1.53Z" fill="#008bfd"/><path d="M188.84,117.39h-.91l-.74-2h-3l-.7,2h-.91l2.69-7h.85Zm-1.92-2.7-1.1-3a3,3,0,0,1-.1-.47h0a2.42,2.42,0,0,1-.12.47l-1.08,3Z" fill="#008bfd"/><path d="M190.75,116.67h0v3h-.8v-7.3h.8v.88h0a1.9,1.9,0,0,1,1.73-1A1.82,1.82,0,0,1,194,113a2.8,2.8,0,0,1,.54,1.8,3.11,3.11,0,0,1-.61,2,2,2,0,0,1-1.67.75A1.69,1.69,0,0,1,190.75,116.67Zm0-2v.7a1.46,1.46,0,0,0,.41,1.05,1.42,1.42,0,0,0,2.16-.12,2.53,2.53,0,0,0,.41-1.55,2.08,2.08,0,0,0-.38-1.31,1.3,1.3,0,0,0-1.05-.47,1.4,1.4,0,0,0-1.12.49A1.79,1.79,0,0,0,190.73,114.65Z" fill="#008bfd"/><path d="M196.8,116.67h0v3H196v-7.3h.8v.88h0a1.9,1.9,0,0,1,1.73-1A1.82,1.82,0,0,1,200,113a2.8,2.8,0,0,1,.54,1.8,3.11,3.11,0,0,1-.61,2,2,2,0,0,1-1.67.75A1.67,1.67,0,0,1,196.8,116.67Zm0-2v.7a1.46,1.46,0,0,0,.41,1.05,1.34,1.34,0,0,0,1,.44,1.36,1.36,0,0,0,1.14-.56,2.6,2.6,0,0,0,.41-1.55,2.08,2.08,0,0,0-.38-1.31,1.3,1.3,0,0,0-1-.47,1.4,1.4,0,0,0-1.12.49A1.74,1.74,0,0,0,196.78,114.65Z" fill="#008bfd"/><path d="M210.47,117.39h-.91l-.74-2h-3l-.7,2h-.91l2.68-7h.85Zm-1.92-2.7-1.1-3a2.75,2.75,0,0,1-.11-.47h0a2.53,2.53,0,0,1-.11.47l-1.09,3Z" fill="#008bfd"/><path d="M212.49,114.75v2.64h-.82v-7h1.92a2.51,2.51,0,0,1,1.74.55,2,2,0,0,1,.62,1.54,2.1,2.1,0,0,1-.69,1.63,2.57,2.57,0,0,1-1.85.64Zm0-3.62V114h.86a1.89,1.89,0,0,0,1.29-.38,1.38,1.38,0,0,0,.45-1.1c0-.92-.55-1.39-1.64-1.39Z" fill="#008bfd"/><path d="M218.26,117.39h-.82v-7h.82Z" fill="#008bfd"/><path d="M182.61,129.39v-7h1.93q3.71,0,3.7,3.41a3.44,3.44,0,0,1-1,2.61,3.78,3.78,0,0,1-2.75,1Zm.82-6.26v5.52h1a2.92,2.92,0,0,0,2.14-.74,2.72,2.72,0,0,0,.77-2.09c0-1.79-.95-2.69-2.86-2.69Z" fill="#008bfd"/><path d="M193.26,129.39h-.8v-.78h0a1.68,1.68,0,0,1-1.54.9,1.65,1.65,0,0,1-1.17-.39,1.39,1.39,0,0,1-.42-1.05c0-.94.55-1.48,1.65-1.64l1.5-.21c0-.84-.35-1.27-1-1.27a2.46,2.46,0,0,0-1.63.62v-.82a3,3,0,0,1,1.7-.47c1.17,0,1.76.62,1.76,1.86Zm-.8-2.53-1.21.17a1.84,1.84,0,0,0-.84.28.78.78,0,0,0-.28.7.76.76,0,0,0,.26.59,1,1,0,0,0,.7.24,1.29,1.29,0,0,0,1-.42,1.49,1.49,0,0,0,.39-1.06Z" fill="#008bfd"/><path d="M199,127.09h-3.53a1.83,1.83,0,0,0,.45,1.29,1.52,1.52,0,0,0,1.18.46,2.46,2.46,0,0,0,1.55-.56V129a2.89,2.89,0,0,1-1.74.48,2.13,2.13,0,0,1-1.67-.68,2.8,2.8,0,0,1-.6-1.92,2.73,2.73,0,0,1,.66-1.9,2.12,2.12,0,0,1,1.64-.73,1.9,1.9,0,0,1,1.52.63,2.63,2.63,0,0,1,.54,1.76Zm-.82-.67a1.64,1.64,0,0,0-.34-1.08,1.12,1.12,0,0,0-.91-.39,1.29,1.29,0,0,0-1,.41,1.83,1.83,0,0,0-.48,1.06Z" fill="#008bfd"/><path d="M207.44,129.39h-.8v-2.87a2.18,2.18,0,0,0-.26-1.2,1,1,0,0,0-.86-.37,1.08,1.08,0,0,0-.87.47,1.79,1.79,0,0,0-.36,1.12v2.85h-.8v-3q0-1.47-1.14-1.47a1.07,1.07,0,0,0-.87.44,1.83,1.83,0,0,0-.34,1.15v2.85h-.8v-5h.8v.79h0a1.69,1.69,0,0,1,1.55-.9,1.45,1.45,0,0,1,1.42,1,1.77,1.77,0,0,1,1.66-1c1.1,0,1.65.68,1.65,2Z" fill="#008bfd"/><path d="M211.21,129.51a2.31,2.31,0,0,1-1.77-.7,2.61,2.61,0,0,1-.66-1.86,2.72,2.72,0,0,1,.69-2,2.48,2.48,0,0,1,1.86-.7,2.27,2.27,0,0,1,1.74.68,2.73,2.73,0,0,1,.63,1.91,2.7,2.7,0,0,1-.68,1.92A2.36,2.36,0,0,1,211.21,129.51Zm.06-4.56a1.54,1.54,0,0,0-1.22.52,2.19,2.19,0,0,0-.45,1.45,2,2,0,0,0,.45,1.4,1.54,1.54,0,0,0,1.22.52,1.45,1.45,0,0,0,1.19-.51,2.16,2.16,0,0,0,.42-1.43,2.21,2.21,0,0,0-.42-1.44A1.45,1.45,0,0,0,211.27,125Z" fill="#008bfd"/><path d="M219.3,129.39h-.8v-2.85c0-1.06-.39-1.59-1.16-1.59a1.29,1.29,0,0,0-1,.45,1.68,1.68,0,0,0-.39,1.14v2.85h-.8v-5h.8v.83h0a1.8,1.8,0,0,1,1.64-.94,1.52,1.52,0,0,1,1.26.53,2.34,2.34,0,0,1,.43,1.53Z" fill="#008bfd"/><path d="M50.86,117.39H50l-.74-2h-3l-.7,2h-.91l2.69-7h.85Zm-1.92-2.7-1.1-3a3,3,0,0,1-.1-.47h0a2.42,2.42,0,0,1-.12.47l-1.08,3Z" fill="#0078d7"/><path d="M52.77,116.67h0v3H52v-7.3h.8v.88h0a1.9,1.9,0,0,1,1.73-1A1.82,1.82,0,0,1,56,113a2.8,2.8,0,0,1,.54,1.8,3.11,3.11,0,0,1-.61,2,2,2,0,0,1-1.67.75A1.69,1.69,0,0,1,52.77,116.67Zm0-2v.7a1.5,1.5,0,0,0,.41,1.06,1.37,1.37,0,0,0,1,.43,1.33,1.33,0,0,0,1.14-.56,2.53,2.53,0,0,0,.41-1.55,2.08,2.08,0,0,0-.38-1.31A1.3,1.3,0,0,0,54.3,113a1.4,1.4,0,0,0-1.12.49A1.79,1.79,0,0,0,52.75,114.65Z" fill="#0078d7"/><path d="M58.82,116.67h0v3H58v-7.3h.8v.88h0a1.9,1.9,0,0,1,1.73-1,1.82,1.82,0,0,1,1.51.67,2.8,2.8,0,0,1,.54,1.8,3.11,3.11,0,0,1-.61,2,2,2,0,0,1-1.67.75A1.67,1.67,0,0,1,58.82,116.67Zm0-2v.7a1.5,1.5,0,0,0,.41,1.06,1.43,1.43,0,0,0,2.16-.13,2.6,2.6,0,0,0,.41-1.55,2.08,2.08,0,0,0-.38-1.31,1.3,1.3,0,0,0-1-.47,1.4,1.4,0,0,0-1.12.49A1.79,1.79,0,0,0,58.8,114.65Z" fill="#0078d7"/><path d="M71.23,117.39h-.8v-.85h0a1.85,1.85,0,0,1-1.72,1,1.87,1.87,0,0,1-1.51-.67,2.8,2.8,0,0,1-.56-1.83,3,3,0,0,1,.62-2,2.1,2.1,0,0,1,1.67-.74,1.6,1.6,0,0,1,1.5.81h0V110h.8Zm-.8-2.26v-.73a1.46,1.46,0,0,0-.4-1,1.36,1.36,0,0,0-1-.42,1.37,1.37,0,0,0-1.15.54,2.35,2.35,0,0,0-.42,1.48,2.13,2.13,0,0,0,.4,1.37,1.33,1.33,0,0,0,1.08.5,1.35,1.35,0,0,0,1.09-.49A1.77,1.77,0,0,0,70.43,115.13Z" fill="#0078d7"/><path d="M77,115.09H73.51a1.83,1.83,0,0,0,.45,1.29,1.52,1.52,0,0,0,1.18.46,2.46,2.46,0,0,0,1.55-.56V117a2.89,2.89,0,0,1-1.74.48,2.14,2.14,0,0,1-1.67-.68,2.8,2.8,0,0,1-.6-1.92,2.75,2.75,0,0,1,.66-1.9,2.12,2.12,0,0,1,1.64-.73,1.88,1.88,0,0,1,1.52.63,2.63,2.63,0,0,1,.54,1.76Zm-.82-.67a1.64,1.64,0,0,0-.34-1.08A1.12,1.12,0,0,0,75,113a1.28,1.28,0,0,0-1,.41,1.78,1.78,0,0,0-.49,1.06Z" fill="#0078d7"/><path d="M78.12,117.21v-.86a2.3,2.3,0,0,0,1.44.49c.7,0,1-.24,1-.71a.64.64,0,0,0-.09-.34.91.91,0,0,0-.24-.24,2,2,0,0,0-.36-.19l-.45-.18a5.37,5.37,0,0,1-.58-.27,1.74,1.74,0,0,1-.42-.3,1,1,0,0,1-.26-.39,1.28,1.28,0,0,1-.08-.5,1.17,1.17,0,0,1,.16-.62,1.32,1.32,0,0,1,.43-.45,1.79,1.79,0,0,1,.61-.28,2.82,2.82,0,0,1,.71-.09,2.86,2.86,0,0,1,1.16.22v.81a2.27,2.27,0,0,0-1.27-.36,1.62,1.62,0,0,0-.4,0,.9.9,0,0,0-.31.15.6.6,0,0,0-.27.5A.67.67,0,0,0,79,114a.55.55,0,0,0,.2.23,1.58,1.58,0,0,0,.34.19l.44.18c.22.09.42.17.6.26a2.11,2.11,0,0,1,.45.31,1.29,1.29,0,0,1,.28.38,1.4,1.4,0,0,1-.06,1.17,1.45,1.45,0,0,1-.44.45,1.79,1.79,0,0,1-.63.27,3.08,3.08,0,0,1-.75.09A2.78,2.78,0,0,1,78.12,117.21Z" fill="#0078d7"/><path d="M87,117.39H85.86L83.65,115h0v2.4h-.8V110h.8v4.69h0l2.1-2.29h1l-2.32,2.42Z" fill="#0078d7"/><path d="M90.29,117.34a1.45,1.45,0,0,1-.74.16c-.88,0-1.32-.49-1.32-1.46v-3h-.86v-.69h.86v-1.22l.8-.26v1.48h1.26v.69H89v2.81a1.19,1.19,0,0,0,.17.72.68.68,0,0,0,.57.22.83.83,0,0,0,.52-.17Z" fill="#0078d7"/><path d="M93.62,117.51a2.31,2.31,0,0,1-1.77-.7,2.61,2.61,0,0,1-.66-1.86,2.72,2.72,0,0,1,.69-2,2.48,2.48,0,0,1,1.86-.7,2.29,2.29,0,0,1,1.75.68,2.78,2.78,0,0,1,.62,1.91,2.69,2.69,0,0,1-.67,1.92A2.38,2.38,0,0,1,93.62,117.51Zm.06-4.56a1.53,1.53,0,0,0-1.22.53,2.14,2.14,0,0,0-.45,1.44,2,2,0,0,0,.45,1.4,1.54,1.54,0,0,0,1.22.52,1.43,1.43,0,0,0,1.19-.51,2.16,2.16,0,0,0,.42-1.43,2.21,2.21,0,0,0-.42-1.44A1.43,1.43,0,0,0,93.68,113Z" fill="#0078d7"/><path d="M98.38,116.67h0v3h-.8v-7.3h.8v.88h0a1.9,1.9,0,0,1,1.73-1,1.83,1.83,0,0,1,1.51.67,2.8,2.8,0,0,1,.54,1.8,3.11,3.11,0,0,1-.61,2,2,2,0,0,1-1.67.75A1.67,1.67,0,0,1,98.38,116.67Zm0-2v.7a1.53,1.53,0,0,0,.4,1.06,1.39,1.39,0,0,0,1,.43,1.36,1.36,0,0,0,1.14-.56,2.6,2.6,0,0,0,.41-1.55,2.08,2.08,0,0,0-.38-1.31,1.3,1.3,0,0,0-1-.47,1.39,1.39,0,0,0-1.12.49A1.74,1.74,0,0,0,98.36,114.65Z" fill="#0078d7"/><path d="M55.34,129.39v-7h1.93q3.7,0,3.7,3.41a3.46,3.46,0,0,1-1,2.61,3.82,3.82,0,0,1-2.76,1Zm.82-6.26v5.52h1a2.94,2.94,0,0,0,2.15-.74,2.75,2.75,0,0,0,.76-2.09c0-1.79-1-2.69-2.86-2.69Z" fill="#0078d7"/><path d="M66,129.39h-.8v-.78h0a1.83,1.83,0,0,1-2.71.51,1.39,1.39,0,0,1-.42-1.05c0-.94.55-1.48,1.65-1.64l1.5-.21c0-.84-.34-1.27-1-1.27a2.48,2.48,0,0,0-1.63.62v-.82a3,3,0,0,1,1.7-.47c1.17,0,1.76.62,1.76,1.86Zm-.8-2.53L64,127a1.75,1.75,0,0,0-.84.28.9.9,0,0,0,0,1.3,1.05,1.05,0,0,0,.7.23,1.27,1.27,0,0,0,1-.42,1.49,1.49,0,0,0,.39-1.06Z" fill="#0078d7"/><path d="M71.69,127.09H68.16a1.83,1.83,0,0,0,.45,1.29,1.52,1.52,0,0,0,1.18.46,2.46,2.46,0,0,0,1.55-.56V129a2.89,2.89,0,0,1-1.74.48,2.14,2.14,0,0,1-1.67-.68,2.8,2.8,0,0,1-.6-1.92A2.75,2.75,0,0,1,68,125a2.12,2.12,0,0,1,1.64-.73,1.88,1.88,0,0,1,1.52.63,2.63,2.63,0,0,1,.54,1.76Zm-.82-.67a1.59,1.59,0,0,0-.34-1.08,1.11,1.11,0,0,0-.91-.39,1.28,1.28,0,0,0-1,.41,1.78,1.78,0,0,0-.49,1.06Z" fill="#0078d7"/><path d="M80.17,129.39h-.8v-2.87a2.18,2.18,0,0,0-.26-1.2,1,1,0,0,0-.86-.37,1.08,1.08,0,0,0-.87.47,1.79,1.79,0,0,0-.36,1.12v2.85h-.8v-3q0-1.47-1.14-1.47a1.07,1.07,0,0,0-.87.44,1.89,1.89,0,0,0-.34,1.15v2.85h-.8v-5h.8v.79h0a1.7,1.7,0,0,1,1.55-.9,1.46,1.46,0,0,1,.9.28,1.48,1.48,0,0,1,.52.75,1.77,1.77,0,0,1,1.66-1c1.1,0,1.65.68,1.65,2Z" fill="#0078d7"/><path d="M83.94,129.51a2.31,2.31,0,0,1-1.77-.7,2.61,2.61,0,0,1-.66-1.86,2.72,2.72,0,0,1,.69-2,2.48,2.48,0,0,1,1.86-.7,2.27,2.27,0,0,1,1.75.68,2.78,2.78,0,0,1,.62,1.91,2.69,2.69,0,0,1-.67,1.92A2.38,2.38,0,0,1,83.94,129.51ZM84,125a1.53,1.53,0,0,0-1.22.53,2.14,2.14,0,0,0-.45,1.44,2,2,0,0,0,.46,1.4,1.5,1.5,0,0,0,1.21.52,1.47,1.47,0,0,0,1.2-.51,2.21,2.21,0,0,0,.41-1.43,2.26,2.26,0,0,0-.41-1.44A1.47,1.47,0,0,0,84,125Z" fill="#0078d7"/><path d="M92,129.39h-.8v-2.85c0-1.06-.39-1.59-1.16-1.59a1.25,1.25,0,0,0-1,.45,1.64,1.64,0,0,0-.4,1.14v2.85h-.8v-5h.8v.83h0a1.81,1.81,0,0,1,1.64-.94,1.52,1.52,0,0,1,1.26.53,2.34,2.34,0,0,1,.43,1.53Z" fill="#0078d7"/><path d="M4.42,115.33v-1a1.75,1.75,0,0,0,.4.27,3.43,3.43,0,0,0,.48.19,3.59,3.59,0,0,0,.52.13,2.74,2.74,0,0,0,.48,0,1.86,1.86,0,0,0,1.13-.28,1.07,1.07,0,0,0,.25-1.3,1.39,1.39,0,0,0-.35-.38,3.12,3.12,0,0,0-.52-.34l-.64-.33a7.37,7.37,0,0,1-.69-.38,2.58,2.58,0,0,1-.55-.42,1.71,1.71,0,0,1-.29-2,1.7,1.7,0,0,1,.55-.58A2.51,2.51,0,0,1,6,108.6a3.8,3.8,0,0,1,.89-.11,3.52,3.52,0,0,1,1.51.25v.92a2.81,2.81,0,0,0-1.59-.43,2.48,2.48,0,0,0-.54.06,1.71,1.71,0,0,0-.48.18,1.19,1.19,0,0,0-.34.33.85.85,0,0,0-.13.49,1,1,0,0,0,.1.46,1.07,1.07,0,0,0,.29.36,2.66,2.66,0,0,0,.48.31l.65.33.71.39a3.44,3.44,0,0,1,.59.46,1.94,1.94,0,0,1,.4.55,1.52,1.52,0,0,1,.15.69,1.82,1.82,0,0,1-.2.88,1.7,1.7,0,0,1-.55.58,2.44,2.44,0,0,1-.79.33,4.19,4.19,0,0,1-1,.1l-.41,0a4.71,4.71,0,0,1-.5-.08,3.37,3.37,0,0,1-.48-.12A1.52,1.52,0,0,1,4.42,115.33Z" fill="#008bfd"/><path d="M13.72,113.31H10.19a1.83,1.83,0,0,0,.45,1.29,1.54,1.54,0,0,0,1.18.45,2.45,2.45,0,0,0,1.55-.55v.75a2.89,2.89,0,0,1-1.74.48,2.14,2.14,0,0,1-1.67-.68,2.83,2.83,0,0,1-.6-1.92,2.73,2.73,0,0,1,.66-1.9,2.12,2.12,0,0,1,1.64-.74,1.89,1.89,0,0,1,1.52.64,2.63,2.63,0,0,1,.54,1.76Zm-.82-.68a1.62,1.62,0,0,0-.34-1.08,1.15,1.15,0,0,0-.91-.38,1.28,1.28,0,0,0-1,.4,1.81,1.81,0,0,0-.49,1.06Z" fill="#008bfd"/><path d="M19,115.21c0,1.84-.88,2.75-2.64,2.75a3.45,3.45,0,0,1-1.62-.35v-.8a3.24,3.24,0,0,0,1.61.47c1.23,0,1.85-.65,1.85-2v-.55h0a2,2,0,0,1-3.22.29,2.65,2.65,0,0,1-.57-1.79,3.08,3.08,0,0,1,.61-2,2.06,2.06,0,0,1,1.68-.76,1.64,1.64,0,0,1,1.5.81h0v-.69H19Zm-.8-1.86v-.74a1.45,1.45,0,0,0-.41-1,1.31,1.31,0,0,0-1-.42,1.39,1.39,0,0,0-1.16.54,2.4,2.4,0,0,0-.42,1.51,2,2,0,0,0,.4,1.33,1.29,1.29,0,0,0,1.07.5,1.37,1.37,0,0,0,1.09-.47A1.76,1.76,0,0,0,18.15,113.35Z" fill="#008bfd"/><path d="M22.93,111.42a1,1,0,0,0-.61-.16,1,1,0,0,0-.86.48,2.27,2.27,0,0,0-.34,1.32v2.55h-.8v-5h.8v1h0a1.76,1.76,0,0,1,.52-.82,1.2,1.2,0,0,1,.79-.3,1.48,1.48,0,0,1,.48.07Z" fill="#008bfd"/><path d="M27.56,113.31H24a1.93,1.93,0,0,0,.45,1.29,1.56,1.56,0,0,0,1.18.45,2.48,2.48,0,0,0,1.56-.55v.75a2.9,2.9,0,0,1-1.75.48,2.12,2.12,0,0,1-1.66-.68,2.78,2.78,0,0,1-.61-1.92,2.73,2.73,0,0,1,.66-1.9,2.14,2.14,0,0,1,1.65-.74,1.9,1.9,0,0,1,1.52.64,2.68,2.68,0,0,1,.53,1.76Zm-.82-.68a1.62,1.62,0,0,0-.33-1.08,1.17,1.17,0,0,0-.92-.38,1.29,1.29,0,0,0-1,.4,1.87,1.87,0,0,0-.49,1.06Z" fill="#008bfd"/><path d="M30.84,115.56a1.45,1.45,0,0,1-.74.16q-1.32,0-1.32-1.47v-3h-.86v-.68h.86v-1.22l.8-.26v1.48h1.26v.68H29.58v2.82a1.19,1.19,0,0,0,.17.72.71.71,0,0,0,.57.21.83.83,0,0,0,.52-.16Z" fill="#008bfd"/><path d="M33.75,115.73A2.31,2.31,0,0,1,32,115a2.61,2.61,0,0,1-.66-1.86,2.7,2.7,0,0,1,.69-2,2.49,2.49,0,0,1,1.86-.71,2.25,2.25,0,0,1,1.75.69,2.78,2.78,0,0,1,.62,1.91,2.69,2.69,0,0,1-.67,1.92A2.38,2.38,0,0,1,33.75,115.73Zm.06-4.56a1.52,1.52,0,0,0-1.22.52,2.17,2.17,0,0,0-.45,1.45,2,2,0,0,0,.46,1.4,1.53,1.53,0,0,0,1.21.51,1.46,1.46,0,0,0,1.2-.5,2.21,2.21,0,0,0,.41-1.43,2.25,2.25,0,0,0-.41-1.44A1.47,1.47,0,0,0,33.81,111.17Z" fill="#008bfd"/><path d="M4.42,186.45v-1a2.13,2.13,0,0,0,.4.26,3.45,3.45,0,0,0,.48.2l.52.12a2.8,2.8,0,0,0,.48.05,1.86,1.86,0,0,0,1.13-.29.92.92,0,0,0,.37-.8,1,1,0,0,0-.12-.5,1.55,1.55,0,0,0-.35-.38,2.58,2.58,0,0,0-.52-.33l-.64-.34c-.25-.12-.48-.25-.69-.37a3.46,3.46,0,0,1-.55-.42,1.84,1.84,0,0,1-.37-.52,1.62,1.62,0,0,1-.13-.68,1.64,1.64,0,0,1,.21-.84,1.79,1.79,0,0,1,.55-.58,2.5,2.5,0,0,1,.78-.34,3.34,3.34,0,0,1,.89-.11,3.37,3.37,0,0,1,1.51.25v.92a2.73,2.73,0,0,0-1.59-.43,2.48,2.48,0,0,0-.54.06,1.26,1.26,0,0,0-.48.18,1,1,0,0,0-.34.32.88.88,0,0,0-.13.49,1,1,0,0,0,.1.47,1,1,0,0,0,.29.35,2.67,2.67,0,0,0,.48.32l.65.33a8.06,8.06,0,0,1,.71.39,4,4,0,0,1,.59.45,2.09,2.09,0,0,1,.4.55,1.6,1.6,0,0,1,.15.7,1.8,1.8,0,0,1-.2.87,1.73,1.73,0,0,1-.55.59,2.23,2.23,0,0,1-.79.32,4.19,4.19,0,0,1-1,.1l-.41,0-.5-.08-.48-.13A1.52,1.52,0,0,1,4.42,186.45Z" fill="#008bfd"/><path d="M13.72,184.44H10.19a1.82,1.82,0,0,0,.45,1.28,1.52,1.52,0,0,0,1.18.46,2.46,2.46,0,0,0,1.55-.56v.75a2.89,2.89,0,0,1-1.74.48,2.11,2.11,0,0,1-1.67-.68,2.8,2.8,0,0,1-.6-1.92,2.75,2.75,0,0,1,.66-1.9,2.12,2.12,0,0,1,1.64-.73,1.88,1.88,0,0,1,1.52.63,2.66,2.66,0,0,1,.54,1.77Zm-.82-.68a1.59,1.59,0,0,0-.34-1.08,1.12,1.12,0,0,0-.91-.39,1.28,1.28,0,0,0-1,.41,1.78,1.78,0,0,0-.49,1.06Z" fill="#008bfd"/><path d="M19,186.33q0,2.76-2.64,2.76a3.58,3.58,0,0,1-1.62-.35v-.8a3.35,3.35,0,0,0,1.61.47c1.23,0,1.85-.66,1.85-2v-.54h0a2,2,0,0,1-3.22.29,2.67,2.67,0,0,1-.57-1.79,3.11,3.11,0,0,1,.61-2,2.06,2.06,0,0,1,1.68-.75,1.64,1.64,0,0,1,1.5.81h0v-.69H19Zm-.8-1.86v-.73a1.42,1.42,0,0,0-.41-1,1.29,1.29,0,0,0-1-.43,1.39,1.39,0,0,0-1.16.54,2.42,2.42,0,0,0-.42,1.51,2.08,2.08,0,0,0,.4,1.34,1.32,1.32,0,0,0,1.07.5,1.38,1.38,0,0,0,1.09-.48A1.76,1.76,0,0,0,18.15,184.47Z" fill="#008bfd"/><path d="M22.93,182.55a1,1,0,0,0-.61-.17,1,1,0,0,0-.86.49,2.23,2.23,0,0,0-.34,1.32v2.55h-.8v-5h.8v1h0a1.74,1.74,0,0,1,.52-.83,1.35,1.35,0,0,1,1.27-.22Z" fill="#008bfd"/><path d="M27.56,184.44H24a1.92,1.92,0,0,0,.45,1.28,1.53,1.53,0,0,0,1.18.46,2.49,2.49,0,0,0,1.56-.56v.75a2.9,2.9,0,0,1-1.75.48,2.09,2.09,0,0,1-1.66-.68,3.19,3.19,0,0,1,.05-3.82,2.14,2.14,0,0,1,1.65-.73,1.9,1.9,0,0,1,1.52.63,2.71,2.71,0,0,1,.53,1.77Zm-.82-.68a1.59,1.59,0,0,0-.33-1.08,1.14,1.14,0,0,0-.92-.39,1.3,1.3,0,0,0-1,.41,1.84,1.84,0,0,0-.49,1.06Z" fill="#008bfd"/><path d="M30.84,186.69a1.57,1.57,0,0,1-.74.15c-.88,0-1.32-.49-1.32-1.46v-3h-.86v-.68h.86v-1.23l.8-.25v1.48h1.26v.68H29.58v2.82a1.17,1.17,0,0,0,.17.71.68.68,0,0,0,.57.22.83.83,0,0,0,.52-.17Z" fill="#008bfd"/><path d="M33.75,186.85a2.31,2.31,0,0,1-1.77-.7,2.6,2.6,0,0,1-.66-1.86,2.68,2.68,0,0,1,.69-2,2.45,2.45,0,0,1,1.86-.71,2.25,2.25,0,0,1,1.75.69,2.76,2.76,0,0,1,.62,1.91,2.68,2.68,0,0,1-.67,1.91A2.38,2.38,0,0,1,33.75,186.85Zm.06-4.56a1.53,1.53,0,0,0-1.22.53,2.14,2.14,0,0,0-.45,1.44,2,2,0,0,0,.46,1.41,1.53,1.53,0,0,0,1.21.51,1.49,1.49,0,0,0,1.2-.5,2.73,2.73,0,0,0,0-2.88A1.47,1.47,0,0,0,33.81,182.29Z" fill="#008bfd"/><path d="M4.42,38.14v-1a1.73,1.73,0,0,0,.4.26,2.55,2.55,0,0,0,.48.2,3.52,3.52,0,0,0,.52.12,2.8,2.8,0,0,0,.48,0,1.94,1.94,0,0,0,1.13-.28,1.07,1.07,0,0,0,.25-1.3,1.59,1.59,0,0,0-.35-.39,3.92,3.92,0,0,0-.52-.33l-.64-.33c-.25-.13-.48-.25-.69-.38a3.46,3.46,0,0,1-.55-.42,1.71,1.71,0,0,1-.37-.52,1.79,1.79,0,0,1,.08-1.51,1.82,1.82,0,0,1,.55-.59A2.75,2.75,0,0,1,6,31.41a3.8,3.8,0,0,1,.89-.11,3.37,3.37,0,0,1,1.51.25v.92A2.81,2.81,0,0,0,6.78,32a2.48,2.48,0,0,0-.54.06,1.71,1.71,0,0,0-.48.18,1.07,1.07,0,0,0-.34.33.83.83,0,0,0-.13.49,1,1,0,0,0,.1.46,1.07,1.07,0,0,0,.29.36,3.33,3.33,0,0,0,.48.31l.65.33c.25.13.48.25.71.39a3.44,3.44,0,0,1,.59.46,1.94,1.94,0,0,1,.4.55,1.52,1.52,0,0,1,.15.69,1.82,1.82,0,0,1-.2.88,1.7,1.7,0,0,1-.55.58,2.44,2.44,0,0,1-.79.33,4.85,4.85,0,0,1-1,.1l-.41,0a4.71,4.71,0,0,1-.5-.08,3.36,3.36,0,0,1-.48-.13A1.54,1.54,0,0,1,4.42,38.14Z" fill="#008bfd"/><path d="M13.72,36.12H10.19a1.85,1.85,0,0,0,.45,1.29,1.54,1.54,0,0,0,1.18.45,2.45,2.45,0,0,0,1.55-.55v.75a2.89,2.89,0,0,1-1.74.48A2.11,2.11,0,0,1,10,37.85a2.79,2.79,0,0,1-.6-1.91A2.73,2.73,0,0,1,10,34a2.12,2.12,0,0,1,1.64-.74,1.86,1.86,0,0,1,1.52.64,2.63,2.63,0,0,1,.54,1.76Zm-.82-.68a1.62,1.62,0,0,0-.34-1.08,1.12,1.12,0,0,0-.91-.38,1.28,1.28,0,0,0-1,.4,1.78,1.78,0,0,0-.49,1.06Z" fill="#008bfd"/><path d="M19,38c0,1.83-.88,2.75-2.64,2.75a3.58,3.58,0,0,1-1.62-.35v-.8a3.35,3.35,0,0,0,1.61.47c1.23,0,1.85-.66,1.85-2v-.55h0a2,2,0,0,1-3.22.29,2.67,2.67,0,0,1-.57-1.79,3.11,3.11,0,0,1,.61-2,2.06,2.06,0,0,1,1.68-.75,1.64,1.64,0,0,1,1.5.81h0v-.69H19Zm-.8-1.86v-.74a1.42,1.42,0,0,0-.41-1,1.31,1.31,0,0,0-1-.42,1.38,1.38,0,0,0-1.16.53A2.43,2.43,0,0,0,15.16,36a2,2,0,0,0,.4,1.33,1.32,1.32,0,0,0,1.07.5,1.38,1.38,0,0,0,1.09-.48A1.73,1.73,0,0,0,18.15,36.16Z" fill="#008bfd"/><path d="M22.93,34.23a1,1,0,0,0-.61-.16,1,1,0,0,0-.86.48,2.23,2.23,0,0,0-.34,1.32v2.55h-.8v-5h.8v1h0a1.71,1.71,0,0,1,.52-.82,1.2,1.2,0,0,1,.79-.3,1.25,1.25,0,0,1,.48.07Z" fill="#008bfd"/><path d="M27.56,36.12H24a2,2,0,0,0,.45,1.29,1.56,1.56,0,0,0,1.18.45,2.48,2.48,0,0,0,1.56-.55v.75a2.9,2.9,0,0,1-1.75.48,2.09,2.09,0,0,1-1.66-.69A3.18,3.18,0,0,1,23.86,34a2.14,2.14,0,0,1,1.65-.74,1.87,1.87,0,0,1,1.52.64,2.68,2.68,0,0,1,.53,1.76Zm-.82-.68a1.62,1.62,0,0,0-.33-1.08,1.14,1.14,0,0,0-.92-.38,1.29,1.29,0,0,0-1,.4A1.84,1.84,0,0,0,24,35.44Z" fill="#008bfd"/><path d="M30.84,38.37a1.56,1.56,0,0,1-.74.16q-1.32,0-1.32-1.47v-3h-.86v-.68h.86V32.2l.8-.26v1.48h1.26v.68H29.58v2.82a1.23,1.23,0,0,0,.17.72.71.71,0,0,0,.57.21.83.83,0,0,0,.52-.16Z" fill="#008bfd"/><path d="M33.75,38.54A2.31,2.31,0,0,1,32,37.83,2.57,2.57,0,0,1,31.32,36,2.7,2.7,0,0,1,32,34a2.49,2.49,0,0,1,1.86-.71,2.25,2.25,0,0,1,1.75.69,2.78,2.78,0,0,1,.62,1.91,2.65,2.65,0,0,1-.67,1.91A2.35,2.35,0,0,1,33.75,38.54ZM33.81,34a1.52,1.52,0,0,0-1.22.52A2.15,2.15,0,0,0,32.14,36a2,2,0,0,0,.46,1.4,1.53,1.53,0,0,0,1.21.51,1.49,1.49,0,0,0,1.2-.5,2.23,2.23,0,0,0,.41-1.43A2.28,2.28,0,0,0,35,34.48,1.46,1.46,0,0,0,33.81,34Z" fill="#008bfd"/><path d="M17.37,98.69H10.65a.59.59,0,0,1-.61-.57V91.68H12V89.91H24.4a.59.59,0,0,1,.62.57v.09a6.4,6.4,0,0,1,1,.33v-.42A1.53,1.53,0,0,0,24.4,89h-13l-2.34,2.2v6.9a1.51,1.51,0,0,0,1.57,1.46h7.28A5.8,5.8,0,0,1,17.37,98.69Z" fill="gray" fill-rule="evenodd"/><path d="M26,100.22l2.34,3.26-2.17-.54-.61,1.64-2.34-2.88-1.75,2.88-.8-1.74-2.17.54L20.65,100s.58.92,2.69.92S26,100.22,26,100.22Z" fill="gray" fill-rule="evenodd"/><path d="M23.43,99.63a3.43,3.43,0,1,1,0-6.83,3.43,3.43,0,1,1,0,6.83Zm0-6.06a2.66,2.66,0,1,0,2.9,2.65A2.78,2.78,0,0,0,23.43,93.57Z" fill="gray" fill-rule="evenodd"/><path d="M23.43,101.44a5.24,5.24,0,1,1,0-10.45,5.24,5.24,0,1,1,0,10.45Zm0-9.69a4.48,4.48,0,1,0,0,8.93,4.48,4.48,0,1,0,0-8.93Z" fill="gray" fill-rule="evenodd"/><path d="M17.37,21.52H10.65A.59.59,0,0,1,10,21V14.51H12V12.74H24.4a.59.59,0,0,1,.62.57v.09a6.4,6.4,0,0,1,1,.33v-.42a1.53,1.53,0,0,0-1.58-1.46h-13l-2.34,2.2V21a1.51,1.51,0,0,0,1.57,1.46h7.28A5.8,5.8,0,0,1,17.37,21.52Z" fill="gray" fill-rule="evenodd"/><path d="M26,23.05l2.34,3.26-2.17-.54-.61,1.64-2.34-2.88-1.75,2.88-.8-1.74-2.17.54,2.14-3.42s.58.92,2.69.92S26,23.05,26,23.05Z" fill="gray" fill-rule="evenodd"/><path d="M23.43,22.45A3.58,3.58,0,0,1,19.72,19a3.58,3.58,0,0,1,3.71-3.42A3.58,3.58,0,0,1,27.15,19,3.58,3.58,0,0,1,23.43,22.45Zm0-6.06A2.78,2.78,0,0,0,20.54,19a2.91,2.91,0,0,0,5.79,0A2.79,2.79,0,0,0,23.43,16.39Z" fill="gray" fill-rule="evenodd"/><path d="M23.43,24.27a5.48,5.48,0,0,1-5.7-5.22,5.48,5.48,0,0,1,5.7-5.23,5.48,5.48,0,0,1,5.69,5.23A5.47,5.47,0,0,1,23.43,24.27Zm0-9.69a4.7,4.7,0,0,0-4.88,4.47,4.69,4.69,0,0,0,4.88,4.46,4.68,4.68,0,0,0,4.87-4.46A4.69,4.69,0,0,0,23.43,14.58Z" fill="gray" fill-rule="evenodd"/><path d="M80.65,24.41a11.81,11.81,0,0,1-16.84-2.29A12.56,12.56,0,0,1,66.05,4.83a11.82,11.82,0,0,1,16.84,2.3A12.54,12.54,0,0,1,80.65,24.41ZM84.31,6A13.57,13.57,0,0,0,65,3.37,14.43,14.43,0,0,0,62.4,23.24a13.62,13.62,0,0,0,11,5.55,13.45,13.45,0,0,0,8.39-2.92A14.44,14.44,0,0,0,84.31,6Z" fill="#008bfd"/><path d="M66.68,17.19a17,17,0,0,1-2-2.35,18.28,18.28,0,0,0-1.66,6.88c.11.16.11.29.23.44a12.55,12.55,0,0,0,2,2.05A14.13,14.13,0,0,1,66.68,17.19Z" fill="#008bfd"/><path d="M71.29,7.75a21,21,0,0,0-3.33,3,15.71,15.71,0,0,0-1.61,2,15.42,15.42,0,0,0,1.9,2.46,16.32,16.32,0,0,1,2.2-2.56,26.47,26.47,0,0,1,3.13-2.61C72.78,9.31,72,8.54,71.29,7.75Z" fill="#008bfd"/><path d="M82.76,7A12,12,0,0,0,81,5.13a12.53,12.53,0,0,0-8,1.53c.76.84,1.51,1.63,2.24,2.36C79.63,6.59,82.76,7,82.76,7Z" fill="#008bfd"/><path d="M65,15a19.82,19.82,0,0,1,1.19-2.06,9.84,9.84,0,0,1-1.6-6.79,13.09,13.09,0,0,0-1.29,1.6C62.87,9.34,62.85,11.9,65,15Z" fill="#008bfd"/><path d="M70.52,17.37a21.6,21.6,0,0,1-2.27-2.14,14.25,14.25,0,0,0-1.14,1.95,23.54,23.54,0,0,0,2.09,1.91,19.12,19.12,0,0,0,12.56,4.38,9,9,0,0,0,1.54-1.94C82.07,21.79,76.81,22.48,70.52,17.37Z" fill="#008bfd"/><path d="M65.16,14.83a15.72,15.72,0,0,0,2,2.35,15.36,15.36,0,0,1,1.14-1.95,15.42,15.42,0,0,1-1.9-2.46A15.58,15.58,0,0,0,65.16,14.83Z" fill="#008bfd"/><path d="M73.58,10.07a97,97,0,0,0,11.15,8.82,9.82,9.82,0,0,0,.33-1.05A95.51,95.51,0,0,1,75.23,9Q74.44,9.47,73.58,10.07Z" fill="#008bfd"/><path d="M73,6.66q-1.65-1.77-3.36-3.8A10.05,10.05,0,0,0,68,3.52a26.3,26.3,0,0,0,3.24,4.22A17.22,17.22,0,0,1,73,6.66Z" fill="#008bfd"/><path d="M73.06,6.62a18.74,18.74,0,0,0-1.87,1.19c.72.78,1.45,1.59,2.25,2.35.57-.4,1.34-.88,1.87-1.18C74.57,8.25,73.82,7.46,73.06,6.62Z" fill="#008bfd"/><path d="M72.86,6.52a16.24,16.24,0,0,0-1.67,1.12c.72.79,1.74,1.81,2.54,2.57.57-.4,1-.8,1.58-1.11C74.57,8.38,73.61,7.35,72.86,6.52Z" fill="#008bfd"/><path d="M78.92,13.07a2.7,2.7,0,0,0-.48,3.7,2.56,2.56,0,0,0,3.63.51,2.72,2.72,0,0,0,.48-3.72A2.55,2.55,0,0,0,78.92,13.07Z" fill="#008bfd"/><path d="M73.75,19.2a2.52,2.52,0,0,0-.45,3.44,2.37,2.37,0,0,0,3.36.45,2.49,2.49,0,0,0,.44-3.43A2.36,2.36,0,0,0,73.75,19.2Z" fill="#008bfd"/><path d="M64.6,11.87a3.79,3.79,0,0,0-.68,5.21,3.58,3.58,0,0,0,5.1.7,3.8,3.8,0,0,0,.67-5.23A3.59,3.59,0,0,0,64.6,11.87Z" fill="#008bfd"/><path d="M107,154V131.82C107,113.88,106,92,144,92" fill="none" stroke="#505050" stroke-miterlimit="10"/><path d="M87.59,165.63h8.24c6.36,0,11.15-3.46,11.15-9.41v-16.7" fill="none" stroke="#505050" stroke-miterlimit="10"/><path d="M106.19,29.55V51.92c0,18.06-1,40.08,37,40.08" fill="none" stroke="#505050" stroke-miterlimit="10"/><path d="M89.12,16.36h7.26c5.59,0,9.81,3.67,9.81,10V44.08" fill="none" stroke="#505050" stroke-miterlimit="10"/><path d="M181,87.78l8,4-8,4a9,9,0,0,0,0-8" fill="#505050" fill-rule="evenodd"/><path d="M181,87.79l8,4-8,4a9,9,0,0,0,0-8" fill="#505050" fill-rule="evenodd"/><path d="M181,87.79l8,4-8,4a9.06,9.06,0,0,0,0-8" fill="#505050" fill-rule="evenodd"/><rect x="91.55" y="91.49" width="91.09" height="1" rx="0.42" fill="#505050"/></svg>