<svg xmlns="http://www.w3.org/2000/svg" width="224.94" height="200.3" viewBox="0 0 224.94 200.3"><title>OJ104440668</title><path d="M80.65,24.41a11.81,11.81,0,0,1-16.84-2.29A12.55,12.55,0,0,1,66.05,4.83a11.72,11.72,0,0,1,7.29-2.54,11.89,11.89,0,0,1,9.55,4.84A12.54,12.54,0,0,1,80.65,24.41ZM84.31,6A13.57,13.57,0,0,0,65,3.36,14.45,14.45,0,0,0,62.4,23.24a13.65,13.65,0,0,0,11,5.55,13.45,13.45,0,0,0,8.39-2.92A14.44,14.44,0,0,0,84.31,6Z" fill="#008bfd" fill-rule="evenodd"/><path d="M66.68,17.18a16.47,16.47,0,0,1-2-2.35,18.32,18.32,0,0,0-1.66,6.89c.11.16.11.28.23.44a13.4,13.4,0,0,0,2,2.05A14.18,14.18,0,0,1,66.68,17.18Z" fill="#008bfd" fill-rule="evenodd"/><path d="M71.29,7.75a21,21,0,0,0-3.33,3,16.41,16.41,0,0,0-1.61,2,15,15,0,0,0,1.9,2.47,16.84,16.84,0,0,1,2.2-2.57,27.32,27.32,0,0,1,3.13-2.6C72.78,9.31,72,8.54,71.29,7.75Z" fill="#008bfd" fill-rule="evenodd"/><path d="M82.76,7A12.55,12.55,0,0,0,81,5.12a12.55,12.55,0,0,0-8,1.54c.76.84,1.51,1.62,2.24,2.36C79.63,6.59,82.76,7,82.76,7Z" fill="#008bfd" fill-rule="evenodd"/><path d="M65.16,24.21a18.83,18.83,0,0,1,1.19-2.06,9.86,9.86,0,0,1-1.6-6.8A13.19,13.19,0,0,0,63.46,17C63.08,18.57,63.06,21.12,65.16,24.21Z" fill="#008bfd" fill-rule="evenodd"/><path d="M70.52,17.36a21.57,21.57,0,0,1-2.27-2.13,13.68,13.68,0,0,0-1.14,1.95,23.54,23.54,0,0,0,2.09,1.91,19.18,19.18,0,0,0,12.56,4.38,9,9,0,0,0,1.54-1.94C82.07,21.79,76.81,22.47,70.52,17.36Z" fill="#008bfd" fill-rule="evenodd"/><path d="M65.16,14.83a16.24,16.24,0,0,0,2,2.35,14.7,14.7,0,0,1,1.14-1.95,15,15,0,0,1-1.9-2.47A16.34,16.34,0,0,0,65.16,14.83Z" fill="#008bfd" fill-rule="evenodd"/><path d="M73.58,10.07a98.21,98.21,0,0,0,11.15,8.82,9.82,9.82,0,0,0,.33-1.05A96.8,96.8,0,0,1,75.23,9,16,16,0,0,0,73.58,10.07Z" fill="#008bfd" fill-rule="evenodd"/><path d="M73,6.65q-1.65-1.77-3.36-3.79A10.05,10.05,0,0,0,68,3.52a26.74,26.74,0,0,0,3.24,4.22A15.69,15.69,0,0,1,73,6.65Z" fill="#008bfd" fill-rule="evenodd"/><path d="M66.9,13.55Q65,11.24,63,8.59a11.77,11.77,0,0,0-1.83.87A34.39,34.39,0,0,0,64.93,15,17,17,0,0,1,66.9,13.55Z" fill="#008bfd" fill-rule="evenodd"/><path d="M73.06,6.62a18.74,18.74,0,0,0-1.87,1.19c.72.78,1.45,1.59,2.25,2.35.57-.4,1.34-.89,1.87-1.19C74.57,8.24,73.82,7.46,73.06,6.62Z" fill="#008bfd" fill-rule="evenodd"/><path d="M72.86,6.51a14.89,14.89,0,0,0-1.67,1.13c.72.79,1.74,1.81,2.54,2.57.57-.4,1-.81,1.58-1.11C74.57,8.37,73.61,7.35,72.86,6.51Z" fill="#008bfd" fill-rule="evenodd"/><path d="M78.92,13.07a2.7,2.7,0,0,0-.48,3.7,2.55,2.55,0,0,0,3.63.5,2.71,2.71,0,0,0,.48-3.71A2.54,2.54,0,0,0,78.92,13.07Z" fill="#008bfd" fill-rule="evenodd"/><path d="M64.61,11.87a3.79,3.79,0,0,0-.68,5.21,3.58,3.58,0,0,0,5.1.7,3.8,3.8,0,0,0,.67-5.23A3.58,3.58,0,0,0,64.61,11.87Z" fill="#008bfd" fill-rule="evenodd"/><path d="M211.09,79h-20.5a1.09,1.09,0,0,0-1.09,1.1V96.88a1.09,1.09,0,0,0,1.09,1.1h5.28a3.29,3.29,0,0,0,3.21,2.27,3.38,3.38,0,0,0,0-6.75,3.29,3.29,0,0,0-3.21,2.27h-4.19v-12H210v12h-3.45a7.61,7.61,0,0,0-7.46-6.56,8.25,8.25,0,0,0-3.64.92l1,2a5.27,5.27,0,0,1,2.55-.67,5.46,5.46,0,0,1,0,10.91,5.27,5.27,0,0,1-2.55-.67l-1,2a7.51,7.51,0,0,0,3.64.92A7.61,7.61,0,0,0,206.54,98h4.55a1.09,1.09,0,0,0,1.09-1.1V80.13A1.14,1.14,0,0,0,211.09,79Z" fill="#008bfd" fill-rule="evenodd"/><path d="M73.65,106H59.44V77.6H73.65v7.67h.76V76.83H58.68v29.91H74.41v-2.32h-.76Z" fill="#0078d7" fill-rule="evenodd"/><path d="M72.88,78.39H60.24V83H72.88ZM63.3,80.31h6.53v.76H63.3Zm6.59,1.84H63.27v-.76h6.62Z" fill="#0078d7" fill-rule="evenodd"/><path d="M60.21,83.74V86.8h8.6V85.27h4.08V83.74Z" fill="#0078d7" fill-rule="evenodd"/><rect x="60.21" y="87.57" width="8.6" height="2.68" fill="#0078d7"/><path d="M60.21,105.21H72.86v-.8H68.78V91h-8.6v14.17Zm1.53-2.74H64v1.21H61.74Z" fill="#0078d7" fill-rule="evenodd"/><path d="M83.43,102.15H81v-1.87H78.46v1.87H76a1.32,1.32,0,0,0-1.31,1.15h10A1.29,1.29,0,0,0,83.43,102.15Z" fill="#0078d7" fill-rule="evenodd"/><path d="M88.27,88.17H71.17a.65.65,0,0,0-.67.61V98.91a.65.65,0,0,0,.67.6h17.1a.64.64,0,0,0,.67-.6V88.78A.63.63,0,0,0,88.27,88.17Zm-1,9.84H72.19V89.7H87.25Z" fill="#0078d7" fill-rule="evenodd"/><path d="M83.63,95.52V92.08l-3.51-1.84L76.62,92v3.54l3.5,1.81Zm-4.4-2.29.89-.45.86.45-.86.48Zm0-1.15.86-.44.86.44-.86.48Zm1.91,4.53-1,.51v-.93l1-.51Zm0-1.18-1,.51V95l1-.51Zm0-1.12-1,.51V93.9l1-.51Zm-.82-1.65.86-.45.89.45-.86.44Zm2,3.34-.95.51v-.92l.95-.51Zm0-1.18-.95.51v-.92l.95-.51Zm0-1.14-.95.51v-.9l.95-.51Zm1.05,1.75-.86.44V95l.86-.45Zm0-1.15-.86.45V93.8l.86-.44Zm0-1.14-.86.44v-.92l.86-.45Zm-.19-1.06-.89.45-.89-.45.86-.44Zm-1.11-.57-.89.45-.86-.45.86-.44Zm-2-1.05.86.45-.86.44-.89-.44ZM79,91.07l.86.44L79,92l-.86-.45Zm-1.08.57.89.44-.89.45-.9-.45Zm-.26,4.27-.86-.45v-.92l.86.44Zm0-1.18-.86-.45v-.92l.86.44Zm0-1.15-.86-.44v-.9l.86.45Zm1.18,2.93-1-.51v-.92l1,.51Zm0-1.18-1-.51V93.9l1,.51Zm0-1.14-1-.51v-.9l1,.51Zm-.7-1.53.89-.45.86.45-.89.48ZM80,97.12l-1-.51v-.89l1,.5ZM80,96l-1-.51v-.92l1,.51Zm0-1.15-1-.51v-.92l1,.51Z" fill="#0078d7" fill-rule="evenodd"/><path d="M84.06,154.79H63.56a1.09,1.09,0,0,0-1.09,1.1v16.75a1.09,1.09,0,0,0,1.09,1.1h5.28A3.29,3.29,0,0,0,72.05,176a3.38,3.38,0,0,0,0-6.75,3.29,3.29,0,0,0-3.21,2.27H64.65v-12H83v12H79.51A7.61,7.61,0,0,0,72.05,165a8.25,8.25,0,0,0-3.64.92l1,2a5.27,5.27,0,0,1,2.55-.67,5.46,5.46,0,0,1,0,10.91,5.27,5.27,0,0,1-2.55-.67l-1,2a7.51,7.51,0,0,0,3.64.92,7.61,7.61,0,0,0,7.46-6.56h4.55a1.09,1.09,0,0,0,1.09-1.1V155.89A1.14,1.14,0,0,0,84.06,154.79Z" fill="#008bfd" fill-rule="evenodd"/><path d="M21.48,21.09H14.76a.59.59,0,0,1-.61-.57V14.08h1.94V12.31H28.51a.59.59,0,0,1,.62.57V13a6.4,6.4,0,0,1,1,.33v-.42a1.53,1.53,0,0,0-1.58-1.46h-13l-2.34,2.2v6.9A1.51,1.51,0,0,0,14.76,22H22A5.8,5.8,0,0,1,21.48,21.09Z" fill="gray" fill-rule="evenodd"/><path d="M29.14,23.19l2.34,3.26-2.17-.54-.61,1.64-2.34-2.88-1.75,2.88-.8-1.74-2.17.54,2.14-3.42s.58.92,2.69.92S29.14,23.19,29.14,23.19Z" fill="gray" fill-rule="evenodd"/><path d="M27.33,22.59a3.58,3.58,0,0,1-3.71-3.41,3.58,3.58,0,0,1,3.71-3.42,3.58,3.58,0,0,1,3.72,3.42A3.58,3.58,0,0,1,27.33,22.59Zm0-6.06a2.78,2.78,0,0,0-2.89,2.65,2.91,2.91,0,0,0,5.79,0A2.79,2.79,0,0,0,27.33,16.53Z" fill="gray" fill-rule="evenodd"/><path d="M27.34,24.4a5.48,5.48,0,0,1-5.7-5.22A5.48,5.48,0,0,1,27.34,14,5.48,5.48,0,0,1,33,19.18,5.47,5.47,0,0,1,27.34,24.4Zm0-9.69a4.7,4.7,0,0,0-4.88,4.47,4.69,4.69,0,0,0,4.88,4.46,4.68,4.68,0,0,0,4.87-4.46A4.69,4.69,0,0,0,27.34,14.71Z" fill="gray" fill-rule="evenodd"/><path d="M21.6,97.68H14.88a.59.59,0,0,1-.61-.57V90.67h1.94V88.9H28.63a.59.59,0,0,1,.62.57v.09a6.4,6.4,0,0,1,1,.33v-.42A1.53,1.53,0,0,0,28.63,88h-13l-2.34,2.2v6.9a1.51,1.51,0,0,0,1.57,1.46h7.28A5.8,5.8,0,0,1,21.6,97.68Z" fill="gray" fill-rule="evenodd"/><path d="M29.27,99.78,31.61,103l-2.17-.54-.61,1.64-2.34-2.88-1.75,2.88-.8-1.74-2.17.54,2.14-3.42s.58.92,2.69.92S29.27,99.78,29.27,99.78Z" fill="gray" fill-rule="evenodd"/><path d="M27.46,99.18a3.43,3.43,0,1,1,0-6.83,3.43,3.43,0,1,1,0,6.83Zm0-6.06a2.66,2.66,0,1,0,2.9,2.65A2.78,2.78,0,0,0,27.46,93.12Z" fill="gray" fill-rule="evenodd"/><path d="M27.47,101a5.24,5.24,0,1,1,0-10.45,5.24,5.24,0,1,1,0,10.45Zm0-9.69a4.48,4.48,0,1,0,0,8.93,4.48,4.48,0,1,0,0-8.93Z" fill="gray" fill-rule="evenodd"/><path d="M21.45,168.84H14.73a.59.59,0,0,1-.61-.57v-6.44h1.94v-1.77H28.48a.59.59,0,0,1,.62.57v.09a6.4,6.4,0,0,1,1,.33v-.42a1.53,1.53,0,0,0-1.58-1.46h-13l-2.34,2.2v6.9a1.51,1.51,0,0,0,1.57,1.46H22A5.8,5.8,0,0,1,21.45,168.84Z" fill="gray" fill-rule="evenodd"/><path d="M29.12,170.94l2.34,3.26-2.17-.54-.61,1.64-2.34-2.88-1.75,2.88-.8-1.74-2.17.54,2.14-3.42s.58.92,2.69.92S29.12,170.94,29.12,170.94Z" fill="gray" fill-rule="evenodd"/><path d="M27.31,170.34a3.43,3.43,0,1,1,0-6.83,3.43,3.43,0,1,1,0,6.83Zm0-6.06a2.66,2.66,0,1,0,2.9,2.65A2.78,2.78,0,0,0,27.31,164.28Z" fill="gray" fill-rule="evenodd"/><path d="M27.32,172.16a5.24,5.24,0,1,1,0-10.45,5.24,5.24,0,1,1,0,10.45Zm0-9.69a4.48,4.48,0,1,0,0,8.93,4.48,4.48,0,1,0,0-8.93Z" fill="gray" fill-rule="evenodd"/><path d="M92,92.24h94.17a.6.6,0,0,0,0-1.2H92a.6.6,0,0,0,0,1.2Z" fill="#505050"/><path d="M127.78,90.94C117.51,87.65,109.85,80,107.34,69.46c-.8-3.34-.61-6.6-.61-10v-25c0-4.7,1.06-10.74-.37-15.32C104.1,11.89,95.78,13.35,90,13.35a.6.6,0,0,0,0,1.2c5.89,0,14.87-1.6,15.52,6.92.52,6.65,0,13.55,0,20.23V63.59A27.46,27.46,0,0,0,107,72.72c3.3,9.66,10.8,16.3,20.43,19.38.73.23,1.05-.92.31-1.16Z" fill="#505050"/><path d="M87.25,168.14c4.88,0,10.59,1,15.13-1.31,5.74-2.91,5.72-8.56,5.72-14.14v-25.2c0-4.28-.46-8.79.2-13C110.07,103,118.87,94.7,130,92.36c.76-.15.44-1.31-.31-1.15-12.49,2.61-22.58,13-22.82,26.08-.24,13.3.6,26.68,0,40-.51,11.34-11.74,9.69-19.65,9.69a.6.6,0,0,0,0,1.2Z" fill="#505050"/><path d="M182.15,87.35l8,4-8,4a9,9,0,0,0,0-8" fill="#505050" fill-rule="evenodd"/><path d="M6,35.12v-1a2.13,2.13,0,0,0,.4.26,3.13,3.13,0,0,0,.49.2,4.7,4.7,0,0,0,.51.12,2.8,2.8,0,0,0,.48,0A1.94,1.94,0,0,0,9,34.51a1.07,1.07,0,0,0,.25-1.3,1.28,1.28,0,0,0-.35-.39,3.92,3.92,0,0,0-.52-.33l-.64-.33c-.25-.13-.48-.25-.69-.38a3.46,3.46,0,0,1-.55-.42,1.9,1.9,0,0,1-.37-.52,1.79,1.79,0,0,1,.08-1.51,1.82,1.82,0,0,1,.55-.59,2.75,2.75,0,0,1,.78-.34,3.8,3.8,0,0,1,.89-.11,3.37,3.37,0,0,1,1.51.25v.92A2.69,2.69,0,0,0,8.32,29a2.48,2.48,0,0,0-.54.06,1.45,1.45,0,0,0-.48.18A1,1,0,0,0,7,29.6a.82.82,0,0,0-.13.48,1,1,0,0,0,.1.47,1.21,1.21,0,0,0,.29.36,3.33,3.33,0,0,0,.48.31l.65.33a8.06,8.06,0,0,1,.71.39,4,4,0,0,1,.59.45,2,2,0,0,1,.4.56,1.52,1.52,0,0,1,.15.69,1.84,1.84,0,0,1-.2.88,1.7,1.7,0,0,1-.55.58,2.23,2.23,0,0,1-.79.32,4.19,4.19,0,0,1-1,.1,3.18,3.18,0,0,1-.41,0l-.5-.08a3.36,3.36,0,0,1-.48-.13A1.21,1.21,0,0,1,6,35.12Z"/><path d="M15.51,33.11H12a1.87,1.87,0,0,0,.45,1.29,1.56,1.56,0,0,0,1.18.45,2.41,2.41,0,0,0,1.55-.56v.76a3,3,0,0,1-1.74.47,2.11,2.11,0,0,1-1.67-.68,2.79,2.79,0,0,1-.6-1.91A2.76,2.76,0,0,1,11.81,31a2.15,2.15,0,0,1,1.64-.73,1.88,1.88,0,0,1,1.52.63,2.67,2.67,0,0,1,.54,1.77Zm-.82-.68a1.62,1.62,0,0,0-.34-1.08,1.11,1.11,0,0,0-.91-.39,1.28,1.28,0,0,0-1,.41A1.78,1.78,0,0,0,12,32.43Z"/><path d="M21,35c0,1.83-.88,2.75-2.64,2.75a3.58,3.58,0,0,1-1.62-.35v-.8a3.35,3.35,0,0,0,1.61.47c1.23,0,1.85-.66,1.85-2v-.54h0a2,2,0,0,1-3.22.29,2.67,2.67,0,0,1-.57-1.79A3.11,3.11,0,0,1,17,31a2.06,2.06,0,0,1,1.68-.75,1.64,1.64,0,0,1,1.5.81h0v-.69H21Zm-.8-1.86v-.74a1.42,1.42,0,0,0-.41-1,1.32,1.32,0,0,0-1-.43,1.39,1.39,0,0,0-1.16.54A2.42,2.42,0,0,0,17.2,33a2.06,2.06,0,0,0,.4,1.34,1.32,1.32,0,0,0,1.07.5,1.41,1.41,0,0,0,1.1-.48A1.79,1.79,0,0,0,20.19,33.15Z"/><path d="M25.22,31.22a1,1,0,0,0-.61-.16,1,1,0,0,0-.86.48,2.23,2.23,0,0,0-.34,1.32v2.55h-.8v-5h.8v1h0a1.79,1.79,0,0,1,.52-.83,1.24,1.24,0,0,1,.79-.29,1.22,1.22,0,0,1,.48.07Z"/><path d="M30.1,33.11H26.57A2,2,0,0,0,27,34.4a1.57,1.57,0,0,0,1.19.45,2.41,2.41,0,0,0,1.55-.56v.76a3,3,0,0,1-1.75.47,2.09,2.09,0,0,1-1.66-.68,2.79,2.79,0,0,1-.61-1.91A2.72,2.72,0,0,1,26.41,31a2.13,2.13,0,0,1,1.64-.73,1.9,1.9,0,0,1,1.52.63,2.67,2.67,0,0,1,.53,1.77Zm-.82-.68A1.62,1.62,0,0,0,29,31.35,1.14,1.14,0,0,0,28,31a1.32,1.32,0,0,0-1,.41,1.91,1.91,0,0,0-.49,1.06Z"/><path d="M33.63,35.36a1.54,1.54,0,0,1-.74.15c-.88,0-1.32-.48-1.32-1.46v-3h-.86v-.68h.86V29.19l.81-.26v1.48h1.25v.68H32.38v2.82a1.16,1.16,0,0,0,.17.72.68.68,0,0,0,.56.21.78.78,0,0,0,.52-.17Z"/><path d="M36.79,35.52a2.32,2.32,0,0,1-1.77-.7A2.57,2.57,0,0,1,34.36,33a2.7,2.7,0,0,1,.69-2,2.49,2.49,0,0,1,1.86-.71,2.25,2.25,0,0,1,1.75.69,2.71,2.71,0,0,1,.62,1.91,2.67,2.67,0,0,1-.67,1.91A2.38,2.38,0,0,1,36.79,35.52ZM36.85,31a1.53,1.53,0,0,0-1.22.53,2.15,2.15,0,0,0-.45,1.45,2,2,0,0,0,.46,1.4,1.53,1.53,0,0,0,1.21.51,1.49,1.49,0,0,0,1.2-.5,2.23,2.23,0,0,0,.41-1.43,2.28,2.28,0,0,0-.41-1.45A1.47,1.47,0,0,0,36.85,31Z"/><path d="M6,112.3v-1a1.46,1.46,0,0,0,.4.26,2.39,2.39,0,0,0,.49.2,4.77,4.77,0,0,0,.51.13,2.74,2.74,0,0,0,.48,0A1.86,1.86,0,0,0,9,111.68a1.07,1.07,0,0,0,.25-1.3,1.41,1.41,0,0,0-.35-.39,3.92,3.92,0,0,0-.52-.33l-.64-.33c-.25-.13-.48-.25-.69-.38a3,3,0,0,1-.55-.42A1.76,1.76,0,0,1,6.1,108a1.79,1.79,0,0,1,.08-1.51,1.7,1.7,0,0,1,.55-.58,2.51,2.51,0,0,1,.78-.35,3.8,3.8,0,0,1,.89-.11,3.37,3.37,0,0,1,1.51.25v.92a2.77,2.77,0,0,0-1.59-.43,2.48,2.48,0,0,0-.54.06,1.71,1.71,0,0,0-.48.18,1.19,1.19,0,0,0-.34.33.85.85,0,0,0-.13.49,1,1,0,0,0,.1.46,1.21,1.21,0,0,0,.29.36,2.66,2.66,0,0,0,.48.31l.65.33.71.39a3.44,3.44,0,0,1,.59.46,1.94,1.94,0,0,1,.4.55,1.52,1.52,0,0,1,.15.69,1.82,1.82,0,0,1-.2.88,1.7,1.7,0,0,1-.55.58,2.44,2.44,0,0,1-.79.33,4.85,4.85,0,0,1-1,.1l-.41,0a4.71,4.71,0,0,1-.5-.08,2.42,2.42,0,0,1-.48-.13A1.21,1.21,0,0,1,6,112.3Z"/><path d="M15.51,110.28H12a1.83,1.83,0,0,0,.45,1.29,1.56,1.56,0,0,0,1.18.45,2.45,2.45,0,0,0,1.55-.55v.75a2.89,2.89,0,0,1-1.74.48,2.14,2.14,0,0,1-1.67-.68,2.83,2.83,0,0,1-.6-1.92,2.73,2.73,0,0,1,.66-1.9,2.12,2.12,0,0,1,1.64-.74,1.86,1.86,0,0,1,1.52.64,2.63,2.63,0,0,1,.54,1.76Zm-.82-.68a1.62,1.62,0,0,0-.34-1.08,1.1,1.1,0,0,0-.91-.38,1.28,1.28,0,0,0-1,.4A1.81,1.81,0,0,0,12,109.6Z"/><path d="M21,112.18c0,1.84-.88,2.75-2.64,2.75a3.45,3.45,0,0,1-1.62-.35v-.8a3.35,3.35,0,0,0,1.61.47c1.23,0,1.85-.65,1.85-2v-.55h0A2,2,0,0,1,17,112a2.65,2.65,0,0,1-.57-1.79,3.13,3.13,0,0,1,.61-2,2.06,2.06,0,0,1,1.68-.75,1.64,1.64,0,0,1,1.5.81h0v-.69H21Zm-.8-1.86v-.74a1.42,1.42,0,0,0-.41-1,1.31,1.31,0,0,0-1-.42,1.39,1.39,0,0,0-1.16.54,2.4,2.4,0,0,0-.42,1.51,2,2,0,0,0,.4,1.33,1.29,1.29,0,0,0,1.07.5,1.41,1.41,0,0,0,1.1-.48A1.76,1.76,0,0,0,20.19,110.32Z"/><path d="M25.22,108.39a1,1,0,0,0-.61-.16,1,1,0,0,0-.86.48,2.25,2.25,0,0,0-.34,1.32v2.55h-.8v-5h.8v1h0a1.71,1.71,0,0,1,.52-.82,1.2,1.2,0,0,1,.79-.3,1.22,1.22,0,0,1,.48.07Z"/><path d="M30.1,110.28H26.57a1.93,1.93,0,0,0,.45,1.29,1.57,1.57,0,0,0,1.19.45,2.45,2.45,0,0,0,1.55-.55v.75a2.9,2.9,0,0,1-1.75.48,2.12,2.12,0,0,1-1.66-.68,2.83,2.83,0,0,1-.61-1.92,2.69,2.69,0,0,1,.67-1.9,2.11,2.11,0,0,1,1.64-.74,1.87,1.87,0,0,1,1.52.64,2.62,2.62,0,0,1,.53,1.76Zm-.82-.68a1.62,1.62,0,0,0-.33-1.08,1.14,1.14,0,0,0-.92-.38,1.31,1.31,0,0,0-1,.4,1.94,1.94,0,0,0-.49,1.06Z"/><path d="M33.63,112.53a1.53,1.53,0,0,1-.74.16q-1.32,0-1.32-1.47v-3h-.86v-.68h.86v-1.22l.81-.26v1.48h1.25v.68H32.38v2.82a1.12,1.12,0,0,0,.17.72.68.68,0,0,0,.56.21.83.83,0,0,0,.52-.16Z"/><path d="M36.79,112.7A2.36,2.36,0,0,1,35,112a2.61,2.61,0,0,1-.66-1.86,2.7,2.7,0,0,1,.69-2,2.49,2.49,0,0,1,1.86-.71,2.25,2.25,0,0,1,1.75.69,2.73,2.73,0,0,1,.62,1.91,2.69,2.69,0,0,1-.67,1.92A2.38,2.38,0,0,1,36.79,112.7Zm.06-4.56a1.52,1.52,0,0,0-1.22.52,2.15,2.15,0,0,0-.45,1.45,2,2,0,0,0,.46,1.4,1.53,1.53,0,0,0,1.21.51,1.46,1.46,0,0,0,1.2-.5,2.23,2.23,0,0,0,.41-1.43,2.28,2.28,0,0,0-.41-1.45A1.49,1.49,0,0,0,36.85,108.14Z"/><path d="M6,183.09v-1a2.13,2.13,0,0,0,.4.26,3.13,3.13,0,0,0,.49.2l.51.12a2.74,2.74,0,0,0,.48,0A1.86,1.86,0,0,0,9,182.47a.92.92,0,0,0,.37-.8,1,1,0,0,0-.12-.5,1.38,1.38,0,0,0-.35-.38,2.58,2.58,0,0,0-.52-.33l-.64-.34c-.25-.12-.48-.25-.69-.37a3.46,3.46,0,0,1-.55-.42,2.06,2.06,0,0,1-.37-.52,1.62,1.62,0,0,1-.13-.68,1.64,1.64,0,0,1,.21-.84,1.79,1.79,0,0,1,.55-.58,2.5,2.5,0,0,1,.78-.34,3.34,3.34,0,0,1,.89-.11,3.55,3.55,0,0,1,1.51.24v.93A2.69,2.69,0,0,0,8.32,177a3.29,3.29,0,0,0-.54.05,1.46,1.46,0,0,0-.48.19,1,1,0,0,0-.34.32.88.88,0,0,0-.13.49,1,1,0,0,0,.1.47,1.07,1.07,0,0,0,.29.35,3.33,3.33,0,0,0,.48.32l.65.33a8.06,8.06,0,0,1,.71.39,3.4,3.4,0,0,1,.59.45,2.09,2.09,0,0,1,.4.55,1.6,1.6,0,0,1,.15.7,1.78,1.78,0,0,1-.2.87,1.73,1.73,0,0,1-.55.59,2.23,2.23,0,0,1-.79.32,4.19,4.19,0,0,1-1,.1l-.41,0-.5-.08-.48-.13A1.52,1.52,0,0,1,6,183.09Z"/><path d="M15.51,181.08H12a1.82,1.82,0,0,0,.45,1.28,1.53,1.53,0,0,0,1.18.46,2.46,2.46,0,0,0,1.55-.56V183a2.89,2.89,0,0,1-1.74.48,2.11,2.11,0,0,1-1.67-.68,2.8,2.8,0,0,1-.6-1.92,2.75,2.75,0,0,1,.66-1.9,2.12,2.12,0,0,1,1.64-.73,1.88,1.88,0,0,1,1.52.63,2.66,2.66,0,0,1,.54,1.77Zm-.82-.68a1.61,1.61,0,0,0-.34-1.08,1.11,1.11,0,0,0-.91-.39,1.28,1.28,0,0,0-1,.41A1.78,1.78,0,0,0,12,180.4Z"/><path d="M21,183q0,2.76-2.64,2.76a3.58,3.58,0,0,1-1.62-.35v-.8a3.33,3.33,0,0,0,1.61.46c1.23,0,1.85-.65,1.85-2v-.54h0a2,2,0,0,1-3.22.29,2.67,2.67,0,0,1-.57-1.79,3.11,3.11,0,0,1,.61-2,2.06,2.06,0,0,1,1.68-.75,1.64,1.64,0,0,1,1.5.81h0v-.69H21Zm-.8-1.86v-.73a1.42,1.42,0,0,0-.41-1,1.29,1.29,0,0,0-1-.43,1.39,1.39,0,0,0-1.16.54A2.4,2.4,0,0,0,17.2,181a2.08,2.08,0,0,0,.4,1.34,1.32,1.32,0,0,0,1.07.5,1.41,1.41,0,0,0,1.1-.48A1.8,1.8,0,0,0,20.19,181.11Z"/><path d="M25.22,179.19a1,1,0,0,0-.61-.17,1,1,0,0,0-.86.49,2.23,2.23,0,0,0-.34,1.32v2.55h-.8v-5h.8v1h0a1.74,1.74,0,0,1,.52-.83,1.24,1.24,0,0,1,.79-.29,1.22,1.22,0,0,1,.48.07Z"/><path d="M30.1,181.08H26.57a1.92,1.92,0,0,0,.45,1.28,1.54,1.54,0,0,0,1.19.46,2.46,2.46,0,0,0,1.55-.56V183a2.9,2.9,0,0,1-1.75.48,2.09,2.09,0,0,1-1.66-.68,2.8,2.8,0,0,1-.61-1.92,2.71,2.71,0,0,1,.67-1.9,2.1,2.1,0,0,1,1.64-.73,1.9,1.9,0,0,1,1.52.63,2.65,2.65,0,0,1,.53,1.77Zm-.82-.68a1.6,1.6,0,0,0-.33-1.08,1.14,1.14,0,0,0-.92-.39,1.32,1.32,0,0,0-1,.41,1.91,1.91,0,0,0-.49,1.06Z"/><path d="M33.63,183.33a1.54,1.54,0,0,1-.74.15c-.88,0-1.32-.49-1.32-1.46v-3h-.86v-.68h.86v-1.23l.81-.25v1.48h1.25v.68H32.38v2.82a1.11,1.11,0,0,0,.17.71.65.65,0,0,0,.56.22.83.83,0,0,0,.52-.17Z"/><path d="M36.79,183.49a2.32,2.32,0,0,1-1.77-.7,2.6,2.6,0,0,1-.66-1.86,2.68,2.68,0,0,1,.69-2,2.45,2.45,0,0,1,1.86-.71,2.25,2.25,0,0,1,1.75.69,2.71,2.71,0,0,1,.62,1.91,2.68,2.68,0,0,1-.67,1.91A2.38,2.38,0,0,1,36.79,183.49Zm.06-4.56a1.53,1.53,0,0,0-1.22.53,2.14,2.14,0,0,0-.45,1.44,2,2,0,0,0,.46,1.41,1.53,1.53,0,0,0,1.21.51,1.49,1.49,0,0,0,1.2-.5,2.73,2.73,0,0,0,0-2.88A1.47,1.47,0,0,0,36.85,178.93Z"/><path d="M42.92,193.3H42l-.74-2h-3l-.7,2h-.91l2.69-7h.85ZM41,190.6l-1.1-3a2.74,2.74,0,0,1-.1-.47h0a2.53,2.53,0,0,1-.11.47l-1.09,3Z"/><path d="M44.52,190.65v2.65H43.7v-7h1.93a2.56,2.56,0,0,1,1.74.55,2,2,0,0,1,.61,1.54A2.13,2.13,0,0,1,47.3,190a2.64,2.64,0,0,1-1.85.63Zm0-3.61v2.87h.86a1.92,1.92,0,0,0,1.3-.39,1.37,1.37,0,0,0,.45-1.1q0-1.38-1.65-1.38Z"/><path d="M49.87,193.3h-.82v-7h.82Z"/><path d="M62.25,186.29l-2,7h-1l-1.44-5.12a3.91,3.91,0,0,1-.11-.71h0a4.1,4.1,0,0,1-.12.7l-1.45,5.13h-1l-2.05-7h.91l1.49,5.38a3.2,3.2,0,0,1,.11.7h0a3.17,3.17,0,0,1,.15-.7l1.55-5.38h.78l1.49,5.42a3.5,3.5,0,0,1,.11.65h0a4,4,0,0,1,.14-.67l1.43-5.4Z"/><path d="M66.56,191H63a2,2,0,0,0,.45,1.29,1.57,1.57,0,0,0,1.19.45,2.46,2.46,0,0,0,1.55-.56v.76a3,3,0,0,1-1.74.47,2.09,2.09,0,0,1-1.67-.68,3.17,3.17,0,0,1,.06-3.82,2.1,2.1,0,0,1,1.64-.73,1.9,1.9,0,0,1,1.52.63,2.67,2.67,0,0,1,.53,1.77Zm-.82-.68a1.62,1.62,0,0,0-.33-1.08,1.13,1.13,0,0,0-.92-.39,1.32,1.32,0,0,0-1,.41,1.91,1.91,0,0,0-.49,1.06Z"/><path d="M68.35,192.57h0v.73h-.8v-7.41h.8v3.29h0a1.88,1.88,0,0,1,1.72-1,1.82,1.82,0,0,1,1.51.67,2.8,2.8,0,0,1,.55,1.8,3.13,3.13,0,0,1-.61,2,2,2,0,0,1-1.67.75A1.63,1.63,0,0,1,68.35,192.57Zm0-2v.7a1.48,1.48,0,0,0,.4,1.05,1.43,1.43,0,0,0,2.16-.13,2.49,2.49,0,0,0,.42-1.54,2,2,0,0,0-.39-1.31,1.28,1.28,0,0,0-1-.48,1.43,1.43,0,0,0-1.12.49A1.79,1.79,0,0,0,68.33,190.56Z"/><path d="M75.75,193.3v-7h1.94c2.46,0,3.7,1.14,3.7,3.42a3.44,3.44,0,0,1-1,2.6,3.8,3.8,0,0,1-2.75,1Zm.82-6.26v5.51h1.05a3,3,0,0,0,2.14-.73,2.77,2.77,0,0,0,.77-2.09c0-1.8-1-2.69-2.86-2.69Z"/><path d="M86,193.3h-.8v-.78h0a1.67,1.67,0,0,1-1.53.89,1.65,1.65,0,0,1-1.17-.39A1.4,1.4,0,0,1,82,192c0-.94.55-1.48,1.66-1.63l1.49-.21c0-.85-.34-1.28-1-1.28a2.48,2.48,0,0,0-1.63.62v-.82a3.12,3.12,0,0,1,1.7-.47c1.18,0,1.76.62,1.76,1.86Zm-.8-2.53-1.2.16a2.11,2.11,0,0,0-.84.28.79.79,0,0,0-.29.7.77.77,0,0,0,.27.6,1,1,0,0,0,.69.23,1.29,1.29,0,0,0,1-.42,1.52,1.52,0,0,0,.38-1Z"/><path d="M91.26,191H87.73a1.92,1.92,0,0,0,.45,1.29,1.56,1.56,0,0,0,1.18.45,2.49,2.49,0,0,0,1.56-.56v.76a3,3,0,0,1-1.75.47,2.09,2.09,0,0,1-1.66-.68,3.19,3.19,0,0,1,0-3.82,2.12,2.12,0,0,1,1.65-.73,1.9,1.9,0,0,1,1.52.63,2.73,2.73,0,0,1,.53,1.77Zm-.82-.68a1.62,1.62,0,0,0-.33-1.08,1.14,1.14,0,0,0-.92-.39,1.28,1.28,0,0,0-1,.41,1.84,1.84,0,0,0-.49,1.06Z"/><path d="M99.32,193.3h-.8v-2.87a2.21,2.21,0,0,0-.25-1.21,1,1,0,0,0-.87-.37,1.08,1.08,0,0,0-.87.47,1.8,1.8,0,0,0-.36,1.13v2.85h-.8v-3c0-1-.38-1.48-1.14-1.48a1,1,0,0,0-.86.44,1.84,1.84,0,0,0-.35,1.16v2.85h-.8v-5H93v.79h0a1.71,1.71,0,0,1,1.56-.91,1.43,1.43,0,0,1,.89.28,1.51,1.51,0,0,1,.52.75,1.78,1.78,0,0,1,1.66-1q1.65,0,1.65,2Z"/><path d="M102.68,193.41a2.31,2.31,0,0,1-1.77-.7,2.58,2.58,0,0,1-.67-1.85,2.7,2.7,0,0,1,.69-2,2.49,2.49,0,0,1,1.86-.71,2.25,2.25,0,0,1,1.75.69,2.72,2.72,0,0,1,.63,1.91,2.69,2.69,0,0,1-.68,1.91A2.37,2.37,0,0,1,102.68,193.41Zm0-4.56a1.53,1.53,0,0,0-1.22.53,2.15,2.15,0,0,0-.45,1.45,2.05,2.05,0,0,0,.46,1.4,1.54,1.54,0,0,0,1.21.51,1.49,1.49,0,0,0,1.2-.5,2.2,2.2,0,0,0,.42-1.43,2.22,2.22,0,0,0-.42-1.45A1.47,1.47,0,0,0,102.73,188.85Z"/><path d="M110.35,193.3h-.8v-2.85c0-1.07-.39-1.6-1.17-1.6a1.25,1.25,0,0,0-1,.45,1.72,1.72,0,0,0-.39,1.15v2.85h-.8v-5h.8v.83h0a1.8,1.8,0,0,1,1.64-.95,1.54,1.54,0,0,1,1.25.53,2.35,2.35,0,0,1,.44,1.53Z"/><path d="M189.35,117.52h-.91l-.74-2h-3l-.7,2h-.91l2.69-7h.85Zm-1.92-2.7-1.1-3a3.27,3.27,0,0,1-.1-.47h0a2.63,2.63,0,0,1-.12.47l-1.08,3Z"/><path d="M191.09,116.8h0v3h-.81v-7.3h.81v.88h0a1.91,1.91,0,0,1,1.73-1,1.82,1.82,0,0,1,1.51.67,2.76,2.76,0,0,1,.54,1.8,3.06,3.06,0,0,1-.61,2,2,2,0,0,1-1.67.76A1.69,1.69,0,0,1,191.09,116.8Zm0-2v.7a1.47,1.47,0,0,0,.4,1,1.42,1.42,0,0,0,2.16-.12,2.53,2.53,0,0,0,.41-1.55,2,2,0,0,0-.38-1.31,1.3,1.3,0,0,0-1-.47,1.42,1.42,0,0,0-1.12.48A1.81,1.81,0,0,0,191.08,114.78Z"/><path d="M197,116.8h0v3h-.8v-7.3h.8v.88h0a1.9,1.9,0,0,1,1.73-1,1.82,1.82,0,0,1,1.51.67,2.76,2.76,0,0,1,.54,1.8,3.06,3.06,0,0,1-.61,2,2,2,0,0,1-1.67.76A1.69,1.69,0,0,1,197,116.8Zm0-2v.7a1.47,1.47,0,0,0,.41,1,1.42,1.42,0,0,0,2.16-.12,2.6,2.6,0,0,0,.41-1.55,2.06,2.06,0,0,0-.38-1.31,1.3,1.3,0,0,0-1.05-.47,1.42,1.42,0,0,0-1.12.48A1.82,1.82,0,0,0,197,114.78Z"/><path d="M210.3,117.52h-.91l-.74-2h-3l-.7,2h-.91l2.68-7h.85Zm-1.92-2.7-1.1-3c0-.1-.07-.26-.11-.47h0a2.74,2.74,0,0,1-.11.47l-1.09,3Z"/><path d="M212.15,114.88v2.64h-.82v-7h1.92a2.51,2.51,0,0,1,1.74.55,1.92,1.92,0,0,1,.62,1.54,2.14,2.14,0,0,1-.68,1.63,2.66,2.66,0,0,1-1.86.64Zm0-3.62v2.87H213a2,2,0,0,0,1.3-.38,1.41,1.41,0,0,0,.44-1.1c0-.93-.54-1.39-1.64-1.39Z"/><path d="M217.75,117.52h-.82v-7h.82Z"/><path d="M183,129.52v-7H185q3.71,0,3.71,3.41a3.48,3.48,0,0,1-1,2.61,3.84,3.84,0,0,1-2.75,1Zm.82-6.26v5.52h1.05A3,3,0,0,0,187,128a2.77,2.77,0,0,0,.77-2.09c0-1.79-1-2.69-2.86-2.69Z"/><path d="M193.51,129.52h-.8v-.78h0a1.66,1.66,0,0,1-1.53.9,1.61,1.61,0,0,1-1.17-.4,1.37,1.37,0,0,1-.43-1.05c0-.93.55-1.47,1.65-1.63l1.5-.21c0-.85-.34-1.27-1-1.27a2.47,2.47,0,0,0-1.63.61v-.82a3.12,3.12,0,0,1,1.7-.46c1.18,0,1.76.62,1.76,1.86Zm-.8-2.53-1.2.17a2,2,0,0,0-.84.27.82.82,0,0,0-.29.71.74.74,0,0,0,.27.59,1,1,0,0,0,.69.24,1.29,1.29,0,0,0,1-.42,1.53,1.53,0,0,0,.38-1.06Z"/><path d="M199,127.22h-3.53a1.83,1.83,0,0,0,.45,1.29,1.57,1.57,0,0,0,1.18.46,2.49,2.49,0,0,0,1.56-.56v.75a2.92,2.92,0,0,1-1.75.48,2.12,2.12,0,0,1-1.66-.68,2.77,2.77,0,0,1-.61-1.92,2.73,2.73,0,0,1,.66-1.9,2.12,2.12,0,0,1,1.65-.73,1.86,1.86,0,0,1,1.51.63,2.63,2.63,0,0,1,.54,1.76Zm-.82-.68a1.62,1.62,0,0,0-.33-1.08,1.17,1.17,0,0,0-.92-.38,1.28,1.28,0,0,0-1,.4,1.87,1.87,0,0,0-.49,1.06Z"/><path d="M207.35,129.52h-.8v-2.87a2.09,2.09,0,0,0-.26-1.2,1,1,0,0,0-.86-.37,1.08,1.08,0,0,0-.87.47,1.77,1.77,0,0,0-.36,1.12v2.85h-.8v-3q0-1.47-1.14-1.47a1,1,0,0,0-.86.44,1.83,1.83,0,0,0-.35,1.15v2.85h-.8v-5h.8v.79h0a1.72,1.72,0,0,1,1.56-.9,1.42,1.42,0,0,1,1.41,1,1.78,1.78,0,0,1,1.66-1c1.1,0,1.65.67,1.65,2Z"/><path d="M211,129.64a2.31,2.31,0,0,1-1.77-.7,2.62,2.62,0,0,1-.67-1.86,2.7,2.7,0,0,1,.69-2,2.48,2.48,0,0,1,1.86-.7,2.24,2.24,0,0,1,1.75.68,2.73,2.73,0,0,1,.63,1.91,2.7,2.7,0,0,1-.68,1.92A2.37,2.37,0,0,1,211,129.64Zm0-4.56a1.52,1.52,0,0,0-1.22.52,2.17,2.17,0,0,0-.45,1.45,2.05,2.05,0,0,0,.46,1.4A1.55,1.55,0,0,0,211,129a1.47,1.47,0,0,0,1.2-.51,2.16,2.16,0,0,0,.42-1.43,2.19,2.19,0,0,0-.42-1.44A1.47,1.47,0,0,0,211,125.08Z"/><path d="M218.88,129.52h-.8v-2.85q0-1.59-1.17-1.59a1.25,1.25,0,0,0-1,.45,1.68,1.68,0,0,0-.39,1.14v2.85h-.8v-5h.8v.83h0a1.79,1.79,0,0,1,1.64-.94,1.53,1.53,0,0,1,1.25.52,2.39,2.39,0,0,1,.44,1.54Z"/><path d="M52,117H51l-.74-2h-3l-.7,2h-.91l2.68-7h.85ZM50,114.26l-1.1-3a3.75,3.75,0,0,1-.11-.47h0a2.53,2.53,0,0,1-.11.47l-1.09,3Z"/><path d="M53.69,116.23h0v3h-.8V112h.8v.88h0a1.89,1.89,0,0,1,1.73-1,1.83,1.83,0,0,1,1.51.67,2.8,2.8,0,0,1,.54,1.8,3.07,3.07,0,0,1-.61,2,2,2,0,0,1-1.67.75A1.67,1.67,0,0,1,53.69,116.23Zm0-2v.7a1.49,1.49,0,0,0,.41,1,1.3,1.3,0,0,0,1,.43,1.36,1.36,0,0,0,1.14-.56,2.56,2.56,0,0,0,.41-1.54,2,2,0,0,0-.38-1.31,1.28,1.28,0,0,0-1.05-.48,1.42,1.42,0,0,0-1.12.49A1.75,1.75,0,0,0,53.67,114.22Z"/><path d="M59.57,116.23h0v3h-.8V112h.8v.88h0a1.88,1.88,0,0,1,1.73-1,1.83,1.83,0,0,1,1.51.67,2.8,2.8,0,0,1,.54,1.8,3.07,3.07,0,0,1-.61,2,2,2,0,0,1-1.67.75A1.67,1.67,0,0,1,59.57,116.23Zm0-2v.7a1.53,1.53,0,0,0,.4,1,1.34,1.34,0,0,0,1,.43,1.36,1.36,0,0,0,1.14-.56,2.56,2.56,0,0,0,.41-1.54,2,2,0,0,0-.39-1.31,1.25,1.25,0,0,0-1-.48A1.42,1.42,0,0,0,60,113,1.75,1.75,0,0,0,59.55,114.22Z"/><path d="M71.64,117h-.8v-.85h0a2,2,0,0,1-3.23.29,2.71,2.71,0,0,1-.56-1.83,3,3,0,0,1,.62-2,2.06,2.06,0,0,1,1.67-.75,1.62,1.62,0,0,1,1.5.81h0v-3.1h.8Zm-.8-2.26V114a1.46,1.46,0,0,0-.4-1,1.36,1.36,0,0,0-1-.42,1.37,1.37,0,0,0-1.15.54,2.36,2.36,0,0,0-.42,1.49,2.1,2.1,0,0,0,.4,1.36,1.33,1.33,0,0,0,1.08.5,1.38,1.38,0,0,0,1.09-.48A1.81,1.81,0,0,0,70.84,114.7Z"/><path d="M77.28,114.66H73.75a1.91,1.91,0,0,0,.44,1.29,1.58,1.58,0,0,0,1.19.45,2.46,2.46,0,0,0,1.55-.56v.76a3,3,0,0,1-1.74.47,2.09,2.09,0,0,1-1.67-.68,2.79,2.79,0,0,1-.6-1.91,2.76,2.76,0,0,1,.66-1.91,2.12,2.12,0,0,1,1.64-.73,1.9,1.9,0,0,1,1.52.63,2.67,2.67,0,0,1,.54,1.77Zm-.82-.68a1.68,1.68,0,0,0-.34-1.08,1.12,1.12,0,0,0-.91-.39,1.32,1.32,0,0,0-1,.41,1.83,1.83,0,0,0-.48,1.06Z"/><path d="M78.18,116.78v-.86a2.4,2.4,0,0,0,1.44.48c.71,0,1.06-.23,1.06-.7a.59.59,0,0,0-.09-.34.75.75,0,0,0-.25-.25,2,2,0,0,0-.36-.19l-.44-.18c-.22-.09-.42-.18-.59-.27a2.25,2.25,0,0,1-.42-.3,1.19,1.19,0,0,1-.25-.38,1.31,1.31,0,0,1-.09-.5,1.28,1.28,0,0,1,.16-.63,1.54,1.54,0,0,1,.43-.45,2.06,2.06,0,0,1,.62-.28,2.76,2.76,0,0,1,.71-.09,2.86,2.86,0,0,1,1.16.22v.82a2.2,2.2,0,0,0-1.27-.37,1.62,1.62,0,0,0-.4,0,1,1,0,0,0-.31.15.63.63,0,0,0-.21.22.69.69,0,0,0-.07.29.72.72,0,0,0,.07.32.79.79,0,0,0,.21.24,1.29,1.29,0,0,0,.33.18l.45.18c.22.09.42.18.59.27a2,2,0,0,1,.45.3,1.11,1.11,0,0,1,.29.39,1.18,1.18,0,0,1,.1.52,1.29,1.29,0,0,1-.16.64,1.38,1.38,0,0,1-.44.46,2,2,0,0,1-.63.27,3.67,3.67,0,0,1-.75.08A3,3,0,0,1,78.18,116.78Z"/><path d="M86.88,117H85.76l-2.21-2.41h0V117h-.8v-7.41h.8v4.7h0l2.1-2.29h1l-2.32,2.41Z"/><path d="M90,116.91a1.61,1.61,0,0,1-.75.15c-.87,0-1.31-.48-1.31-1.46v-3H87.1V112H88v-1.22l.8-.26V112H90v.68H88.76v2.82a1.23,1.23,0,0,0,.17.72.68.68,0,0,0,.57.21.85.85,0,0,0,.52-.17Z"/><path d="M93.18,117.07a2.31,2.31,0,0,1-1.77-.7,2.57,2.57,0,0,1-.66-1.85,2.7,2.7,0,0,1,.69-2,2.49,2.49,0,0,1,1.86-.71,2.24,2.24,0,0,1,1.74.69,2.72,2.72,0,0,1,.63,1.91,2.69,2.69,0,0,1-.68,1.91A2.36,2.36,0,0,1,93.18,117.07Zm.06-4.56A1.52,1.52,0,0,0,92,113a2.15,2.15,0,0,0-.45,1.45,2,2,0,0,0,.45,1.4,1.55,1.55,0,0,0,1.22.51,1.47,1.47,0,0,0,1.19-.5,2.2,2.2,0,0,0,.42-1.43,2.22,2.22,0,0,0-.42-1.45A1.45,1.45,0,0,0,93.24,112.51Z"/><path d="M97.77,116.23h0v3H97V112h.8v.88h0a1.88,1.88,0,0,1,1.73-1,1.83,1.83,0,0,1,1.51.67,2.8,2.8,0,0,1,.54,1.8,3.13,3.13,0,0,1-.61,2,2,2,0,0,1-1.67.75A1.67,1.67,0,0,1,97.77,116.23Zm0-2v.7a1.48,1.48,0,0,0,.4,1,1.34,1.34,0,0,0,1,.43,1.36,1.36,0,0,0,1.14-.56,2.56,2.56,0,0,0,.41-1.54,2,2,0,0,0-.39-1.31,1.26,1.26,0,0,0-1-.48,1.45,1.45,0,0,0-1.13.49A1.79,1.79,0,0,0,97.75,114.22Z"/><path d="M56,129v-7h1.94c2.46,0,3.7,1.13,3.7,3.41a3.44,3.44,0,0,1-1,2.6,3.8,3.8,0,0,1-2.75,1Zm.82-6.26v5.51h1a3,3,0,0,0,2.14-.73,2.77,2.77,0,0,0,.77-2.09c0-1.8-1-2.69-2.86-2.69Z"/><path d="M66.48,129h-.8v-.78h0a1.67,1.67,0,0,1-1.53.89,1.65,1.65,0,0,1-1.17-.39,1.39,1.39,0,0,1-.43-1.05c0-.94.55-1.48,1.66-1.63l1.49-.21c0-.85-.34-1.28-1-1.28a2.48,2.48,0,0,0-1.63.62v-.82a3.12,3.12,0,0,1,1.7-.47c1.18,0,1.76.62,1.76,1.87Zm-.8-2.53-1.2.16a2.11,2.11,0,0,0-.84.28.79.79,0,0,0-.29.7.77.77,0,0,0,.27.6,1,1,0,0,0,.69.23,1.29,1.29,0,0,0,1-.42,1.52,1.52,0,0,0,.38-1Z"/><path d="M72,126.66H68.48a1.92,1.92,0,0,0,.45,1.29,1.56,1.56,0,0,0,1.18.45,2.49,2.49,0,0,0,1.56-.56v.76a3,3,0,0,1-1.75.47,2.09,2.09,0,0,1-1.66-.68,3.19,3.19,0,0,1,0-3.82,2.12,2.12,0,0,1,1.65-.73,1.9,1.9,0,0,1,1.52.63,2.73,2.73,0,0,1,.53,1.77Zm-.82-.68a1.62,1.62,0,0,0-.33-1.08,1.14,1.14,0,0,0-.92-.39,1.28,1.28,0,0,0-1,.41,1.84,1.84,0,0,0-.49,1.06Z"/><path d="M80.32,129h-.8v-2.87a2.21,2.21,0,0,0-.25-1.21,1,1,0,0,0-.87-.37,1.08,1.08,0,0,0-.87.47,1.8,1.8,0,0,0-.36,1.13V129h-.8v-3c0-1-.38-1.48-1.14-1.48a1,1,0,0,0-.86.45,1.79,1.79,0,0,0-.35,1.15V129h-.8v-5H74v.79h0a1.71,1.71,0,0,1,1.56-.91,1.38,1.38,0,0,1,.89.29,1.43,1.43,0,0,1,.52.75,1.78,1.78,0,0,1,1.66-1q1.65,0,1.65,2Z"/><path d="M83.93,129.07a2.31,2.31,0,0,1-1.77-.7,2.58,2.58,0,0,1-.67-1.85,2.7,2.7,0,0,1,.69-2,2.49,2.49,0,0,1,1.86-.71,2.25,2.25,0,0,1,1.75.69,2.72,2.72,0,0,1,.63,1.91,2.69,2.69,0,0,1-.68,1.91A2.37,2.37,0,0,1,83.93,129.07Zm0-4.56a1.53,1.53,0,0,0-1.22.53,2.15,2.15,0,0,0-.45,1.45,2.05,2.05,0,0,0,.46,1.4,1.54,1.54,0,0,0,1.21.51,1.49,1.49,0,0,0,1.2-.5,2.2,2.2,0,0,0,.42-1.43,2.22,2.22,0,0,0-.42-1.45A1.47,1.47,0,0,0,84,124.51Z"/><path d="M91.85,129h-.8v-2.85c0-1.07-.39-1.6-1.17-1.6a1.25,1.25,0,0,0-1,.45,1.72,1.72,0,0,0-.39,1.15V129h-.8v-5h.8v.83h0a1.8,1.8,0,0,1,1.64-1,1.54,1.54,0,0,1,1.25.53,2.35,2.35,0,0,1,.44,1.53Z"/><path d="M59.19,41.77h-.91l-.74-2h-3l-.7,2H53l2.68-7h.85Zm-1.92-2.71-1.1-3a2.75,2.75,0,0,1-.11-.47h0a2.53,2.53,0,0,1-.11.47l-1.09,3Z"/><path d="M60.93,41h0v3h-.8V36.77h.8v.87h0a1.89,1.89,0,0,1,1.73-1,1.84,1.84,0,0,1,1.51.67,2.8,2.8,0,0,1,.54,1.8,3.13,3.13,0,0,1-.61,2,2,2,0,0,1-1.67.75A1.67,1.67,0,0,1,60.93,41Zm0-2v.69a1.49,1.49,0,0,0,.4,1.06,1.44,1.44,0,0,0,2.17-.13,2.6,2.6,0,0,0,.41-1.55,2,2,0,0,0-.39-1.3,1.26,1.26,0,0,0-1-.48,1.42,1.42,0,0,0-1.13.49A1.79,1.79,0,0,0,60.91,39Z"/><path d="M66.81,41h0v3H66V36.77h.8v.87h0a1.89,1.89,0,0,1,1.73-1,1.81,1.81,0,0,1,1.5.67,2.74,2.74,0,0,1,.55,1.8,3.13,3.13,0,0,1-.61,2,2,2,0,0,1-1.67.75A1.67,1.67,0,0,1,66.81,41Zm0-2v.69a1.49,1.49,0,0,0,.4,1.06,1.37,1.37,0,0,0,1,.43,1.33,1.33,0,0,0,1.14-.56,2.53,2.53,0,0,0,.42-1.55,2,2,0,0,0-.39-1.3,1.26,1.26,0,0,0-1-.48,1.42,1.42,0,0,0-1.13.49A1.79,1.79,0,0,0,66.79,39Z"/><path d="M83,34.76l-2,7h-1l-1.44-5.12a3.19,3.19,0,0,1-.11-.71h0a4.1,4.1,0,0,1-.12.7l-1.46,5.13H76l-2-7h.91l1.48,5.37a2.78,2.78,0,0,1,.12.71h0a3.35,3.35,0,0,1,.15-.71l1.55-5.37h.78l1.49,5.41a3.78,3.78,0,0,1,.11.66h0a5.53,5.53,0,0,1,.13-.68l1.44-5.39Z"/><path d="M87.57,39.47H84a1.92,1.92,0,0,0,.45,1.28,1.53,1.53,0,0,0,1.18.46,2.47,2.47,0,0,0,1.56-.56v.75a2.9,2.9,0,0,1-1.75.48,2.09,2.09,0,0,1-1.66-.68,2.8,2.8,0,0,1-.61-1.92,2.71,2.71,0,0,1,.67-1.9,2.1,2.1,0,0,1,1.64-.73,1.9,1.9,0,0,1,1.52.63,2.65,2.65,0,0,1,.53,1.77Zm-.82-.68a1.59,1.59,0,0,0-.33-1.08,1.14,1.14,0,0,0-.92-.39,1.32,1.32,0,0,0-1,.41,1.91,1.91,0,0,0-.49,1.06Z"/><path d="M89.61,41h0v.73h-.8V34.36h.8v3.28h0a1.89,1.89,0,0,1,1.72-1,1.82,1.82,0,0,1,1.51.67,2.8,2.8,0,0,1,.54,1.8,3.07,3.07,0,0,1-.61,2,2,2,0,0,1-1.67.75A1.62,1.62,0,0,1,89.61,41Zm0-2v.69a1.49,1.49,0,0,0,.4,1.06,1.37,1.37,0,0,0,1,.43,1.33,1.33,0,0,0,1.14-.56,2.53,2.53,0,0,0,.41-1.55,2,2,0,0,0-.38-1.3,1.28,1.28,0,0,0-1.05-.48,1.4,1.4,0,0,0-1.12.49A1.79,1.79,0,0,0,89.59,39Z"/><path d="M55.54,53.77v-7h1.93q3.7,0,3.7,3.42a3.43,3.43,0,0,1-1,2.6,3.83,3.83,0,0,1-2.76,1Zm.82-6.26V53h1a3,3,0,0,0,2.15-.73,2.78,2.78,0,0,0,.76-2.09c0-1.8-1-2.69-2.86-2.69Z"/><path d="M66,53.77h-.8V53h0a1.83,1.83,0,0,1-2.71.51,1.39,1.39,0,0,1-.42-1.05c0-.94.55-1.48,1.65-1.63l1.5-.21c0-.85-.34-1.28-1-1.28a2.46,2.46,0,0,0-1.63.62v-.82a3,3,0,0,1,1.7-.47c1.17,0,1.76.62,1.76,1.86Zm-.8-2.53L64,51.4a2,2,0,0,0-.84.28.81.81,0,0,0-.28.7.79.79,0,0,0,.26.6,1.05,1.05,0,0,0,.7.23,1.27,1.27,0,0,0,1-.42,1.49,1.49,0,0,0,.39-1.06Z"/><path d="M71.55,51.47H68a1.82,1.82,0,0,0,.45,1.28,1.52,1.52,0,0,0,1.18.46,2.46,2.46,0,0,0,1.55-.56v.75a2.89,2.89,0,0,1-1.74.48,2.11,2.11,0,0,1-1.67-.68,2.8,2.8,0,0,1-.6-1.92,2.75,2.75,0,0,1,.66-1.9,2.12,2.12,0,0,1,1.64-.73,1.88,1.88,0,0,1,1.52.63,2.66,2.66,0,0,1,.54,1.77Zm-.82-.68a1.59,1.59,0,0,0-.34-1.08,1.12,1.12,0,0,0-.91-.39,1.28,1.28,0,0,0-1,.41A1.78,1.78,0,0,0,68,50.79Z"/><path d="M79.86,53.77h-.8V50.89a2.18,2.18,0,0,0-.26-1.2,1,1,0,0,0-.86-.37,1.08,1.08,0,0,0-.87.47,1.79,1.79,0,0,0-.36,1.12v2.86h-.8v-3c0-1-.38-1.48-1.14-1.48a1.07,1.07,0,0,0-.87.44,1.83,1.83,0,0,0-.34,1.15v2.86h-.8v-5h.8v.79h0a1.69,1.69,0,0,1,1.55-.91,1.43,1.43,0,0,1,1.42,1,1.77,1.77,0,0,1,1.66-1c1.1,0,1.65.68,1.65,2Z"/><path d="M83.46,53.88a2.31,2.31,0,0,1-1.77-.7A2.6,2.6,0,0,1,81,51.32a2.68,2.68,0,0,1,.69-2,2.45,2.45,0,0,1,1.86-.71,2.25,2.25,0,0,1,1.75.69A2.76,2.76,0,0,1,86,51.25a2.68,2.68,0,0,1-.67,1.91A2.38,2.38,0,0,1,83.46,53.88Zm.06-4.56a1.53,1.53,0,0,0-1.22.53,2.14,2.14,0,0,0-.45,1.44,2,2,0,0,0,.46,1.41,1.53,1.53,0,0,0,1.21.51,1.49,1.49,0,0,0,1.2-.5,2.73,2.73,0,0,0,0-2.88A1.47,1.47,0,0,0,83.52,49.32Z"/><path d="M91.38,53.77h-.8V50.91c0-1.06-.39-1.59-1.16-1.59a1.25,1.25,0,0,0-1,.45,1.64,1.64,0,0,0-.4,1.14v2.86h-.8v-5H88v.83h0a1.8,1.8,0,0,1,1.64-1,1.52,1.52,0,0,1,1.26.53,2.34,2.34,0,0,1,.43,1.53Z"/><path d="M116.71,67.85H114v2.42h2.53V71H114v3.1h-.82v-7h3.56Z" fill="#00b0f0"/><path d="M118.48,74.11h-.8v-7.4h.8Z" fill="#00b0f0"/><path d="M123.89,74.11h-.8v-.79h0a1.64,1.64,0,0,1-1.54.91c-1.19,0-1.79-.71-1.79-2.13v-3h.8V72c0,1.06.4,1.59,1.21,1.59a1.21,1.21,0,0,0,1-.44,1.64,1.64,0,0,0,.38-1.13V69.11h.8Z" fill="#00b0f0"/><path d="M125,73.93v-.86a2.36,2.36,0,0,0,1.44.49c.7,0,1-.24,1-.71a.64.64,0,0,0-.09-.34.91.91,0,0,0-.24-.24,2.08,2.08,0,0,0-.36-.2l-.45-.17a5.37,5.37,0,0,1-.58-.27,1.74,1.74,0,0,1-.42-.3,1.11,1.11,0,0,1-.26-.39,1.28,1.28,0,0,1-.08-.5,1.17,1.17,0,0,1,.16-.62,1.44,1.44,0,0,1,.43-.46,2,2,0,0,1,.61-.27,2.82,2.82,0,0,1,.71-.09,2.86,2.86,0,0,1,1.16.22V70a2.27,2.27,0,0,0-1.27-.36,1.62,1.62,0,0,0-.4,0,.89.89,0,0,0-.31.14.62.62,0,0,0-.2.23.53.53,0,0,0-.07.28.67.67,0,0,0,.07.33.55.55,0,0,0,.2.23,2.17,2.17,0,0,0,.34.19l.44.18a5.68,5.68,0,0,1,.6.26,2.52,2.52,0,0,1,.45.3,1.48,1.48,0,0,1,.28.39,1.21,1.21,0,0,1,.1.52,1.23,1.23,0,0,1-.16.65,1.45,1.45,0,0,1-.44.45,2,2,0,0,1-.63.27,3.08,3.08,0,0,1-.75.09A2.78,2.78,0,0,1,125,73.93Z" fill="#00b0f0"/><path d="M129,73.93v-.86a2.41,2.41,0,0,0,1.44.49c.7,0,1.05-.24,1.05-.71a.64.64,0,0,0-.09-.34.91.91,0,0,0-.24-.24,1.54,1.54,0,0,0-.36-.2l-.45-.17c-.22-.09-.41-.18-.58-.27a1.74,1.74,0,0,1-.42-.3,1.27,1.27,0,0,1-.26-.39,1.5,1.5,0,0,1-.08-.5,1.17,1.17,0,0,1,.16-.62,1.57,1.57,0,0,1,.43-.46,2,2,0,0,1,.61-.27,2.82,2.82,0,0,1,.71-.09,2.91,2.91,0,0,1,1.17.22V70a2.3,2.3,0,0,0-1.27-.36,1.7,1.7,0,0,0-.41,0,1,1,0,0,0-.31.14.72.72,0,0,0-.2.23.53.53,0,0,0-.07.28.67.67,0,0,0,.07.33.66.66,0,0,0,.21.23,1.69,1.69,0,0,0,.33.19l.44.18a4.9,4.9,0,0,1,.6.26,2.2,2.2,0,0,1,.45.3,1.52,1.52,0,0,1,.29.39,1.38,1.38,0,0,1,.09.52,1.23,1.23,0,0,1-.16.65,1.35,1.35,0,0,1-.44.45,2,2,0,0,1-.63.27,2.94,2.94,0,0,1-.74.09A2.82,2.82,0,0,1,129,73.93Z" fill="#00b0f0"/><path d="M135.33,74.23a2.3,2.3,0,0,1-1.76-.7,2.57,2.57,0,0,1-.67-1.86,2.72,2.72,0,0,1,.69-2,2.48,2.48,0,0,1,1.86-.7,2.24,2.24,0,0,1,1.75.68,2.73,2.73,0,0,1,.63,1.91,2.7,2.7,0,0,1-.68,1.92A2.38,2.38,0,0,1,135.33,74.23Zm.06-4.56a1.52,1.52,0,0,0-1.22.52,2.17,2.17,0,0,0-.45,1.45,2.05,2.05,0,0,0,.46,1.4,1.55,1.55,0,0,0,1.21.52,1.47,1.47,0,0,0,1.2-.51,2.16,2.16,0,0,0,.41-1.43,2.21,2.21,0,0,0-.41-1.44A1.47,1.47,0,0,0,135.39,69.67Z" fill="#00b0f0"/><path d="M145.61,74.11h-.8v-.85h0a2,2,0,0,1-3.22.3,2.75,2.75,0,0,1-.57-1.83,3,3,0,0,1,.63-2,2,2,0,0,1,1.66-.74,1.6,1.6,0,0,1,1.5.81h0v-3.1h.8Zm-.8-2.26v-.74a1.41,1.41,0,0,0-.4-1,1.36,1.36,0,0,0-1-.42,1.39,1.39,0,0,0-1.15.54,2.33,2.33,0,0,0-.42,1.48,2.13,2.13,0,0,0,.41,1.37,1.3,1.3,0,0,0,1.08.5,1.36,1.36,0,0,0,1.08-.49A1.79,1.79,0,0,0,144.81,71.85Z" fill="#00b0f0"/><path d="M147.39,67.84a.52.52,0,0,1-.36-.14.5.5,0,0,1-.15-.37A.52.52,0,0,1,147,67a.49.49,0,0,1,.36-.15.54.54,0,0,1,.38.15.52.52,0,0,1,.15.38.49.49,0,0,1-.15.36A.54.54,0,0,1,147.39,67.84Zm.39,6.27H147v-5h.8Z" fill="#00b0f0"/><path d="M155.05,73.88a2.61,2.61,0,0,1-1.37.35,2.24,2.24,0,0,1-1.72-.7,2.5,2.5,0,0,1-.66-1.8,2.8,2.8,0,0,1,.71-2A2.5,2.5,0,0,1,153.9,69a2.64,2.64,0,0,1,1.16.24v.82a2,2,0,0,0-1.19-.39,1.61,1.61,0,0,0-1.26.55,2.11,2.11,0,0,0-.49,1.44,2,2,0,0,0,.46,1.39,1.59,1.59,0,0,0,1.24.51,2,2,0,0,0,1.23-.44Z" fill="#00b0f0"/><path d="M158.62,69.92a1,1,0,0,0-.61-.16,1,1,0,0,0-.85.49,2.21,2.21,0,0,0-.35,1.31v2.55H156v-5h.8v1h0a1.77,1.77,0,0,1,.53-.82,1.16,1.16,0,0,1,.78-.3,1.43,1.43,0,0,1,.48.07Z" fill="#00b0f0"/><path d="M163.26,71.81h-3.53a1.83,1.83,0,0,0,.45,1.29,1.55,1.55,0,0,0,1.18.46,2.46,2.46,0,0,0,1.55-.56v.75a2.89,2.89,0,0,1-1.74.48,2.14,2.14,0,0,1-1.67-.68,2.81,2.81,0,0,1-.6-1.92,2.73,2.73,0,0,1,.66-1.9A2.12,2.12,0,0,1,161.2,69a1.88,1.88,0,0,1,1.52.63,2.63,2.63,0,0,1,.54,1.76Zm-.82-.68a1.68,1.68,0,0,0-.34-1.08,1.15,1.15,0,0,0-.91-.38,1.28,1.28,0,0,0-1,.4,1.81,1.81,0,0,0-.49,1.06Z" fill="#00b0f0"/><path d="M168.49,74.11h-.8v-.85h0a2,2,0,0,1-3.23.3,2.8,2.8,0,0,1-.56-1.83,3,3,0,0,1,.62-2,2.06,2.06,0,0,1,1.67-.74,1.62,1.62,0,0,1,1.5.81h0v-3.1h.8Zm-.8-2.26v-.74a1.45,1.45,0,0,0-.4-1,1.36,1.36,0,0,0-1-.42,1.37,1.37,0,0,0-1.15.54,2.33,2.33,0,0,0-.42,1.48,2.13,2.13,0,0,0,.4,1.37,1.33,1.33,0,0,0,1.08.5,1.38,1.38,0,0,0,1.09-.49A1.79,1.79,0,0,0,167.69,71.85Z" fill="#00b0f0"/><path d="M173.88,71.81h-3.53a1.87,1.87,0,0,0,.44,1.29,1.59,1.59,0,0,0,1.19.46,2.46,2.46,0,0,0,1.55-.56v.75a2.89,2.89,0,0,1-1.74.48,2.13,2.13,0,0,1-1.67-.68,2.81,2.81,0,0,1-.6-1.92,2.73,2.73,0,0,1,.66-1.9,2.12,2.12,0,0,1,1.64-.73,1.9,1.9,0,0,1,1.52.63,2.63,2.63,0,0,1,.54,1.76Zm-.82-.68a1.68,1.68,0,0,0-.34-1.08,1.15,1.15,0,0,0-.91-.38,1.31,1.31,0,0,0-1,.4,1.86,1.86,0,0,0-.48,1.06Z" fill="#00b0f0"/><path d="M179,74.11h-.8V71.26q0-1.59-1.17-1.59a1.25,1.25,0,0,0-1,.45,1.68,1.68,0,0,0-.39,1.14v2.85h-.8v-5h.8v.83h0A1.8,1.8,0,0,1,177.3,69a1.53,1.53,0,0,1,1.25.52,2.39,2.39,0,0,1,.44,1.54Z" fill="#00b0f0"/><path d="M183.73,69.34l-3,4.09h2.93v.68h-4.1v-.25l3-4.06h-2.68v-.69h3.85Z" fill="#00b0f0"/><path d="M184.93,67.84a.53.53,0,0,1-.37-.14.5.5,0,0,1-.15-.37.52.52,0,0,1,.15-.38.5.5,0,0,1,.37-.15.51.51,0,0,1,.37.15.53.53,0,0,1,.16.38.5.5,0,0,1-.16.36A.51.51,0,0,1,184.93,67.84Zm.39,6.27h-.8v-5h.8Z" fill="#00b0f0"/><path d="M190.27,74.11h-.8v-.78h0a1.68,1.68,0,0,1-1.54.9,1.61,1.61,0,0,1-1.17-.4,1.36,1.36,0,0,1-.42-1c0-.93.55-1.47,1.65-1.63l1.5-.21c0-.85-.35-1.27-1-1.27a2.43,2.43,0,0,0-1.63.61v-.82a3.09,3.09,0,0,1,1.7-.46c1.17,0,1.76.62,1.76,1.86Zm-.8-2.53-1.21.17a2,2,0,0,0-.84.27.81.81,0,0,0-.28.71.76.76,0,0,0,.26.59,1,1,0,0,0,.7.24,1.29,1.29,0,0,0,1-.42,1.49,1.49,0,0,0,.39-1.06Z" fill="#00b0f0"/><path d="M192.33,74.11h-.8v-7.4h.8Z" fill="#00b0f0"/><path d="M194.11,67.84a.55.55,0,0,1-.37-.14.5.5,0,0,1-.15-.37.52.52,0,0,1,.15-.38.51.51,0,0,1,.37-.15.5.5,0,0,1,.37.15.49.49,0,0,1,.16.38.46.46,0,0,1-.16.36A.5.5,0,0,1,194.11,67.84Zm.39,6.27h-.8v-5h.8Z" fill="#00b0f0"/><path d="M201.77,73.88a2.63,2.63,0,0,1-1.37.35,2.22,2.22,0,0,1-1.72-.7,2.5,2.5,0,0,1-.66-1.8,2.76,2.76,0,0,1,.71-2,2.5,2.5,0,0,1,1.89-.74,2.67,2.67,0,0,1,1.16.24v.82a2,2,0,0,0-1.19-.39,1.61,1.61,0,0,0-1.26.55,2.06,2.06,0,0,0-.49,1.44,2,2,0,0,0,.46,1.39,1.59,1.59,0,0,0,1.24.51,2,2,0,0,0,1.23-.44Z" fill="#00b0f0"/><path d="M203.53,74.11h-.8v-7.4h.8Z" fill="#00b0f0"/><path d="M205.31,67.84a.52.52,0,0,1-.36-.14.47.47,0,0,1-.16-.37.53.53,0,0,1,.52-.53.54.54,0,0,1,.38.15.52.52,0,0,1,.15.38.49.49,0,0,1-.15.36A.54.54,0,0,1,205.31,67.84Zm.39,6.27h-.8v-5h.8Z" fill="#00b0f0"/><path d="M211.09,71.81h-3.53A1.83,1.83,0,0,0,208,73.1a1.57,1.57,0,0,0,1.18.46,2.49,2.49,0,0,0,1.56-.56v.75a2.92,2.92,0,0,1-1.75.48,2.12,2.12,0,0,1-1.66-.68,2.77,2.77,0,0,1-.61-1.92,2.73,2.73,0,0,1,.66-1.9A2.12,2.12,0,0,1,209,69a1.86,1.86,0,0,1,1.51.63,2.63,2.63,0,0,1,.54,1.76Zm-.82-.68a1.62,1.62,0,0,0-.33-1.08,1.17,1.17,0,0,0-.92-.38,1.28,1.28,0,0,0-1,.4,1.87,1.87,0,0,0-.49,1.06Z" fill="#00b0f0"/><path d="M216.2,74.11h-.8V71.26c0-1.06-.39-1.59-1.16-1.59a1.25,1.25,0,0,0-1,.45,1.64,1.64,0,0,0-.4,1.14v2.85h-.8v-5h.8v.83h0a1.81,1.81,0,0,1,1.64-.94,1.54,1.54,0,0,1,1.26.52,2.39,2.39,0,0,1,.43,1.54Z" fill="#00b0f0"/><path d="M219.78,74.06a1.49,1.49,0,0,1-.75.16c-.87,0-1.31-.49-1.31-1.47v-3h-.86v-.69h.86V67.89l.8-.26v1.48h1.26v.69h-1.26v2.81a1.19,1.19,0,0,0,.17.72.72.72,0,0,0,.57.22.85.85,0,0,0,.52-.17Z" fill="#00b0f0"/></svg>