<svg xmlns="http://www.w3.org/2000/svg" viewBox="0 0 224.4 98.83"><defs><style>.cls-1{fill:#0078d7;}.cls-2,.cls-3{fill:#008bfd;}.cls-3{stroke:gray;stroke-linecap:round;stroke-linejoin:round;stroke-width:0.75px;}.cls-4{fill:#fff;}.cls-5{fill:#505050;}.cls-6{fill:#00b0f0;}</style></defs><title>OJ104544462</title><g id="shapes"><g id="shape1172-2"><path class="cls-1" d="M60.23,66.79H46V38.41H60.23v7.68H61V37.65H45.26v29.9H61V65.23h-.76Z"/></g><g id="shape1173-4"><path class="cls-1" d="M59.47,39.21H46.83v4.58H59.47Zm-9.58,1.91h6.53v.76H49.89ZM56.48,43H49.86V42.2h6.62Z"/></g><g id="shape1174-6"><path class="cls-1" d="M46.79,44.57v3h8.6V46.1h4.08V44.57Z"/></g><g id="shape1175-8"><rect class="cls-1" x="46.79" y="48.38" width="8.6" height="2.68"/></g><g id="shape1176-10"><path class="cls-1" d="M46.79,66H59.44v-.79H55.36V51.85h-8.6V66Zm1.53-2.73h2.29V64.5H48.32Z"/></g><g id="shape1177-12"><path class="cls-1" d="M70,63H67.55V61.09H65V63H62.59a1.32,1.32,0,0,0-1.31,1.14h10C71.35,63.54,70.68,63,70,63Z"/></g><g id="shape1178-14"><path class="cls-1" d="M74.85,49H57.75a.64.64,0,0,0-.67.6V59.72a.64.64,0,0,0,.67.6h17.1a.64.64,0,0,0,.67-.6V49.59A.62.62,0,0,0,74.85,49Zm-1,9.84H58.77V50.52H73.83Z"/></g><g id="shape1179-16"><path class="cls-1" d="M70.21,56.35V52.91L66.7,51.06l-3.5,1.78v3.54l3.5,1.81Zm-4.4-2.3.89-.44.86.44-.86.48Zm0-1.14.86-.45.86.45-.86.48Zm1.91,4.52-1,.51V57l1-.51Zm0-1.18-1,.51v-.92l1-.51Zm0-1.11-1,.51v-.93l1-.51Zm-.82-1.66.86-.44.89.44-.86.45Zm2,3.35-1,.5v-.92l1-.51Zm0-1.18-1,.51v-.93l1-.51Zm0-1.15L68,55v-.89l1-.51Zm1,1.75-.86.45v-.93l.86-.44Zm0-1.14-.86.44v-.92l.86-.45ZM70,54l-.86.44v-.92L70,53Zm-.19-1.05-.89.44L68,52.91l.86-.45Zm-1.11-.58-.89.45-.86-.45.86-.44Zm-2-1,.86.45-.86.45-.89-.45Zm-1.11.61.86.44-.86.45-.86-.45Zm-1.08.57.89.45-.89.44-.9-.44Zm-.26,4.27-.86-.45v-.92l.86.45Zm0-1.18-.86-.44v-.93l.86.45Zm0-1.15L63.39,54v-.89l.86.44Zm1.18,2.93-1-.5V55.9l1,.51Zm0-1.17-1-.51v-.93l1,.51Zm0-1.15-1-.51v-.89l1,.51Zm-.7-1.53.89-.44.86.44-.89.48Zm1.88,4.46-1-.51v-.89l1,.51Zm0-1.15-1-.51v-.92l1,.51Zm0-1.14-1-.51v-.93l1,.51Z"/></g><g id="group1180-20"><g id="group1181-21"><g id="group1182-22"><g id="group1183-23"><g id="shape1184-24"><path class="cls-2" d="M7.85,44.76a4.5,4.5,0,0,0-3,5.67c.66,2.55,3,4.21,5.27,3.66a4.49,4.49,0,0,0,3-5.66C12.57,45.76,10.16,44.1,7.85,44.76Z"/></g></g><g id="group1185-26"><g id="shape1186-27"><path class="cls-2" d="M12.78,54.78c-.43,0-.88.77-1.54,1.11s-1.31.89-3.17,0S6,54.22,4.43,54.22s-4,2.78-4,6.88H16a12.15,12.15,0,0,0-1.11-4.21C13.77,54.78,13.23,54.78,12.78,54.78Z"/></g></g></g></g><g id="group1187-29"><g id="shape1188-30"><path class="cls-3" d="M14.19,49.84H10.07a.7.7,0,0,0-.65.65v2.85a.73.73,0,0,0,.76.66h.76v5.15a1,1,0,0,0,1,1.09,1,1,0,0,0,1-1h.21V58.6c0-.22.33-.33.33-.33v-.33c-.33-.11-.54-.32-.54-.43v-.33L13.1,57a3.53,3.53,0,0,0,.33-.55,2.4,2.4,0,0,1-.33-.55c-.1-.11-.1-.33-.21-.44V55.2a2.52,2.52,0,0,1,.76-1.09h.54a.71.71,0,0,0,.65-.66v-3A.62.62,0,0,0,14.19,49.84ZM11.8,59.37c0,.22,0,.33-.21.33s-.22-.22-.22-.33V54.55c0-.22.11-.33.22-.33s.21.22.21.33Zm.33-7.78a.66.66,0,0,1,0-1.32.71.71,0,0,1,.65.66A.63.63,0,0,1,12.13,51.59Z"/></g><g id="shape1189-32"><path class="cls-4" d="M11.57,59.67a.24.24,0,0,1-.22-.22v-5a.22.22,0,0,1,.44,0v5.1C11.79,59.67,11.68,59.67,11.57,59.67Z"/></g><g id="shape1190-34"><ellipse class="cls-4" cx="12.14" cy="50.92" rx="0.66" ry="0.67"/></g></g></g><path class="cls-2" d="M191.76,41.68h-20.5a1.1,1.1,0,0,0-1.09,1.11V59.53a1.09,1.09,0,0,0,1.09,1.1h5.28a3.29,3.29,0,0,0,3.21,2.27,3.37,3.37,0,0,0,0-6.74,3.29,3.29,0,0,0-3.21,2.27h-4.19v-12h18.31v12h-3.45a7.61,7.61,0,0,0-7.46-6.57,8.25,8.25,0,0,0-3.64.92l1,2a5.28,5.28,0,0,1,2.55-.68,5.46,5.46,0,0,1,0,10.92,5.28,5.28,0,0,1-2.55-.68l-1,2a7.4,7.4,0,0,0,3.64.92,7.61,7.61,0,0,0,7.46-6.56h4.55a1.09,1.09,0,0,0,1.09-1.1V42.79A1.14,1.14,0,0,0,191.76,41.68Z"/><g id="shape1192-39"><g id="lend5"><path class="cls-5" d="M161.69,50.43l8.05,4-8,4a9,9,0,0,0,0-8"/></g></g></g><g id="text"><path d="M158.7,80.2h-.82l-.67-1.77h-2.67l-.63,1.77h-.82l2.42-6.3h.76ZM157,77.77l-1-2.68a4.14,4.14,0,0,1-.1-.43h0a2.4,2.4,0,0,1-.11.43l-1,2.68Z"/><path d="M160.26,79.55h0v2.72h-.72V75.7h.72v.79h0a1.71,1.71,0,0,1,1.56-.89,1.66,1.66,0,0,1,1.36.6,2.52,2.52,0,0,1,.49,1.62,2.83,2.83,0,0,1-.55,1.81,1.85,1.85,0,0,1-1.51.68A1.53,1.53,0,0,1,160.26,79.55Zm0-1.81v.62a1.34,1.34,0,0,0,.36,1,1.2,1.2,0,0,0,.92.39,1.22,1.22,0,0,0,1-.5,2.34,2.34,0,0,0,.37-1.39,1.82,1.82,0,0,0-.35-1.18,1.13,1.13,0,0,0-.94-.43,1.27,1.27,0,0,0-1,.44A1.63,1.63,0,0,0,160.25,77.74Z"/><path d="M165.56,79.55h0v2.72h-.72V75.7h.72v.79h0a1.68,1.68,0,0,1,1.55-.89,1.66,1.66,0,0,1,1.36.6,2.52,2.52,0,0,1,.49,1.62,2.83,2.83,0,0,1-.55,1.81,1.84,1.84,0,0,1-1.5.68A1.5,1.5,0,0,1,165.56,79.55Zm0-1.81v.62a1.34,1.34,0,0,0,.36,1,1.2,1.2,0,0,0,.92.39,1.22,1.22,0,0,0,1-.5,2.34,2.34,0,0,0,.37-1.39,1.82,1.82,0,0,0-.35-1.18,1.13,1.13,0,0,0-.94-.43,1.29,1.29,0,0,0-1,.44A1.63,1.63,0,0,0,165.54,77.74Z"/><path d="M173.31,79.55h0v2.72h-.72V75.7h.72v.79h0a1.71,1.71,0,0,1,1.56-.89,1.66,1.66,0,0,1,1.36.6,2.52,2.52,0,0,1,.48,1.62,2.77,2.77,0,0,1-.55,1.81,1.82,1.82,0,0,1-1.5.68A1.53,1.53,0,0,1,173.31,79.55Zm0-1.81v.62a1.35,1.35,0,0,0,.37,1,1.29,1.29,0,0,0,1.94-.11,2.27,2.27,0,0,0,.38-1.39,1.82,1.82,0,0,0-.35-1.18,1.14,1.14,0,0,0-.94-.43,1.27,1.27,0,0,0-1,.44A1.59,1.59,0,0,0,173.29,77.74Z"/><path d="M181.48,78.13H178.3a1.71,1.71,0,0,0,.41,1.16,1.4,1.4,0,0,0,1.06.41,2.22,2.22,0,0,0,1.4-.5v.68a2.68,2.68,0,0,1-1.57.43,1.91,1.91,0,0,1-1.5-.62,2.89,2.89,0,0,1,.05-3.43,1.92,1.92,0,0,1,1.48-.66,1.7,1.7,0,0,1,1.37.57,2.39,2.39,0,0,1,.48,1.58Zm-.74-.61a1.43,1.43,0,0,0-.3-1,1,1,0,0,0-.82-.35,1.16,1.16,0,0,0-.87.37,1.72,1.72,0,0,0-.44,1Z"/><path d="M184.92,76.43a.88.88,0,0,0-.55-.14.93.93,0,0,0-.77.43,2.07,2.07,0,0,0-.31,1.19V80.2h-.72V75.7h.72v.93h0a1.55,1.55,0,0,1,.47-.74,1.07,1.07,0,0,1,.71-.27,1.23,1.23,0,0,1,.43.06Z"/><path d="M188.89,80.2h-.72V73.54h.72Z"/><path d="M194,78.13h-3.17a1.66,1.66,0,0,0,.4,1.16,1.4,1.4,0,0,0,1.06.41,2.22,2.22,0,0,0,1.4-.5v.68a2.68,2.68,0,0,1-1.57.43,1.92,1.92,0,0,1-1.5-.62,2.89,2.89,0,0,1,0-3.43,1.92,1.92,0,0,1,1.48-.66,1.7,1.7,0,0,1,1.37.57,2.39,2.39,0,0,1,.48,1.58Zm-.74-.61a1.43,1.43,0,0,0-.3-1,1,1,0,0,0-.82-.35,1.16,1.16,0,0,0-.87.37,1.72,1.72,0,0,0-.44,1Z"/><path d="M202.49,80.2h-.82L201,78.43h-2.68l-.62,1.77h-.83l2.42-6.3h.77Zm-1.73-2.43-1-2.68a1.82,1.82,0,0,1-.1-.43h0a2.51,2.51,0,0,1-.1.43l-1,2.68Z"/><path d="M204.16,77.82V80.2h-.74V73.9h1.73a2.29,2.29,0,0,1,1.57.49,1.76,1.76,0,0,1,.55,1.39,1.91,1.91,0,0,1-.61,1.47,2.38,2.38,0,0,1-1.67.57Zm0-3.25v2.58h.77a1.71,1.71,0,0,0,1.17-.35,1.22,1.22,0,0,0,.4-1c0-.84-.49-1.25-1.48-1.25Z"/><path d="M209.2,80.2h-.74V73.9h.74Z"/><path d="M23.15,77.89h-.81l-.67-1.76H19l-.63,1.76h-.82L20,71.59h.77Zm-1.72-2.43-1-2.68a2.53,2.53,0,0,1-.1-.43h0a2.51,2.51,0,0,1-.1.43l-1,2.68Z"/><path d="M24.74,77.24h0V80H24V73.39h.72v.79h0a1.71,1.71,0,0,1,1.56-.89,1.63,1.63,0,0,1,1.35.6,2.47,2.47,0,0,1,.49,1.62,2.77,2.77,0,0,1-.55,1.81,1.82,1.82,0,0,1-1.5.68A1.51,1.51,0,0,1,24.74,77.24Zm0-1.81v.62a1.34,1.34,0,0,0,.36,1,1.3,1.3,0,0,0,2-.11,2.27,2.27,0,0,0,.37-1.39,1.82,1.82,0,0,0-.34-1.18,1.18,1.18,0,0,0-.94-.43,1.31,1.31,0,0,0-1,.44A1.63,1.63,0,0,0,24.72,75.43Z"/><path d="M30.05,77.24h0V80h-.72V73.39H30v.79h0a1.7,1.7,0,0,1,1.55-.89,1.64,1.64,0,0,1,1.36.6,2.47,2.47,0,0,1,.49,1.62,2.77,2.77,0,0,1-.55,1.81,1.83,1.83,0,0,1-1.5.68A1.51,1.51,0,0,1,30.05,77.24Zm0-1.81v.62a1.34,1.34,0,0,0,.36,1,1.3,1.3,0,0,0,2-.11,2.27,2.27,0,0,0,.37-1.39,1.82,1.82,0,0,0-.34-1.18,1.19,1.19,0,0,0-.95-.43,1.3,1.3,0,0,0-1,.44A1.63,1.63,0,0,0,30,75.43Z"/><path d="M35.34,77.89h-.72V71.23h.72Z"/><path d="M37.19,72.25a.44.44,0,0,1-.33-.13.46.46,0,0,1-.14-.34.47.47,0,0,1,.8-.33.46.46,0,0,1,0,.66A.45.45,0,0,1,37.19,72.25Zm.35,5.64h-.72v-4.5h.72Z"/><path d="M42.08,77.69a2.39,2.39,0,0,1-1.23.31,2,2,0,0,1-1.55-.63,2.25,2.25,0,0,1-.59-1.62A2.52,2.52,0,0,1,39.34,74a2.25,2.25,0,0,1,1.71-.67,2.31,2.31,0,0,1,1,.22v.73A1.85,1.85,0,0,0,41,73.89a1.44,1.44,0,0,0-1.13.5,1.85,1.85,0,0,0-.44,1.3,1.75,1.75,0,0,0,.41,1.24,1.43,1.43,0,0,0,1.12.46,1.78,1.78,0,0,0,1.1-.39Z"/><path d="M46.41,77.89h-.72v-.7h0a1.5,1.5,0,0,1-1.38.81,1.45,1.45,0,0,1-1-.36,1.21,1.21,0,0,1-.38-.94c0-.84.49-1.33,1.48-1.47L45.69,75c0-.76-.31-1.15-.93-1.15a2.19,2.19,0,0,0-1.46.56v-.74a2.79,2.79,0,0,1,1.53-.42c1.05,0,1.58.56,1.58,1.68Zm-.72-2.27-1.08.14a1.78,1.78,0,0,0-.76.25.72.72,0,0,0-.26.63.68.68,0,0,0,.24.54.92.92,0,0,0,.63.21,1.12,1.12,0,0,0,.88-.38,1.34,1.34,0,0,0,.35-1Z"/><path d="M50.93,73.6l-2.67,3.68H50.9v.61H47.2v-.22L49.87,74H47.45v-.62h3.48Z"/><path d="M52.24,72.25a.48.48,0,0,1-.33-.13.45.45,0,0,1-.13-.34.44.44,0,0,1,.13-.33.49.49,0,0,1,.33-.14.46.46,0,0,1,.34.14.46.46,0,0,1,0,.66A.46.46,0,0,1,52.24,72.25Zm.36,5.64h-.72v-4.5h.72Z"/><path d="M56,78a2.09,2.09,0,0,1-1.59-.63,2.33,2.33,0,0,1-.59-1.68,2.46,2.46,0,0,1,.61-1.77,2.27,2.27,0,0,1,1.68-.63,2,2,0,0,1,1.57.62,2.42,2.42,0,0,1,.56,1.71,2.44,2.44,0,0,1-.6,1.73A2.15,2.15,0,0,1,56,78ZM56,73.89a1.35,1.35,0,0,0-1.1.48,1.91,1.91,0,0,0-.41,1.3,1.85,1.85,0,0,0,.41,1.26,1.38,1.38,0,0,0,1.1.46,1.32,1.32,0,0,0,1.07-.45,2,2,0,0,0,.38-1.29,2,2,0,0,0-.38-1.3A1.33,1.33,0,0,0,56,73.89Z"/><path d="M63.1,77.89h-.72V75.33q0-1.44-1.05-1.44a1.12,1.12,0,0,0-.89.41,1.49,1.49,0,0,0-.36,1v2.56h-.72v-4.5h.72v.75h0a1.62,1.62,0,0,1,1.48-.85,1.4,1.4,0,0,1,1.13.47,2.14,2.14,0,0,1,.39,1.38Z"/><path d="M68.09,75.82H64.92a1.66,1.66,0,0,0,.4,1.16,1.36,1.36,0,0,0,1.06.41,2.22,2.22,0,0,0,1.4-.5v.68a2.68,2.68,0,0,1-1.57.43,1.92,1.92,0,0,1-1.5-.62A2.89,2.89,0,0,1,64.76,74a1.92,1.92,0,0,1,1.48-.66,1.7,1.7,0,0,1,1.37.57,2.39,2.39,0,0,1,.48,1.58Zm-.74-.61a1.44,1.44,0,0,0-.3-1,1,1,0,0,0-.82-.35,1.16,1.16,0,0,0-.87.37,1.72,1.72,0,0,0-.44.95Z"/><path d="M75.52,77.89H74.8v-.76h0a1.82,1.82,0,0,1-2.91.26,2.45,2.45,0,0,1-.5-1.64A2.67,2.67,0,0,1,71.94,74a1.84,1.84,0,0,1,1.5-.67,1.45,1.45,0,0,1,1.35.73h0V71.23h.72Zm-.72-2v-.67a1.28,1.28,0,0,0-.36-.92,1.21,1.21,0,0,0-.91-.38,1.23,1.23,0,0,0-1,.49,2.1,2.1,0,0,0-.38,1.33,1.86,1.86,0,0,0,.37,1.23,1.17,1.17,0,0,0,1,.45,1.23,1.23,0,0,0,1-.43A1.63,1.63,0,0,0,74.8,75.86Z"/><path d="M80.62,75.82H77.44A1.66,1.66,0,0,0,77.85,77a1.35,1.35,0,0,0,1.06.41,2.24,2.24,0,0,0,1.4-.5v.68a2.68,2.68,0,0,1-1.57.43,1.89,1.89,0,0,1-1.5-.62,2.5,2.5,0,0,1-.55-1.72,2.44,2.44,0,0,1,.6-1.71,1.92,1.92,0,0,1,1.48-.66,1.71,1.71,0,0,1,1.37.57,2.39,2.39,0,0,1,.48,1.58Zm-.74-.61a1.44,1.44,0,0,0-.3-1,1,1,0,0,0-.83-.35,1.14,1.14,0,0,0-.86.37,1.65,1.65,0,0,0-.44.95Z"/><path d="M81.45,77.73V77a2.16,2.16,0,0,0,1.3.43c.63,0,1-.21,1-.63a.62.62,0,0,0-.08-.31,1.14,1.14,0,0,0-.22-.22,1.69,1.69,0,0,0-.33-.17l-.4-.16a5.2,5.2,0,0,1-.52-.24,1.25,1.25,0,0,1-.38-.28,1,1,0,0,1-.23-.34,1.25,1.25,0,0,1-.08-.45,1,1,0,0,1,.15-.56,1.15,1.15,0,0,1,.38-.41,2,2,0,0,1,.55-.25,2.29,2.29,0,0,1,.64-.08,2.52,2.52,0,0,1,1,.2v.73a2,2,0,0,0-1.14-.33,1.38,1.38,0,0,0-.37,0,.8.8,0,0,0-.28.13.7.7,0,0,0-.18.2.55.55,0,0,0-.06.26.65.65,0,0,0,.06.29.76.76,0,0,0,.19.21,1.39,1.39,0,0,0,.3.17l.4.16.54.24a2,2,0,0,1,.4.27,1.1,1.1,0,0,1,.26.35,1.13,1.13,0,0,1,.09.47,1.11,1.11,0,0,1-.15.58,1.38,1.38,0,0,1-.39.41,1.81,1.81,0,0,1-.57.24,3,3,0,0,1-.67.08A2.54,2.54,0,0,1,81.45,77.73Z"/><path d="M89.3,77.89h-1l-2-2.16h0v2.16h-.72V71.23h.72v4.22h0l1.89-2.06h1l-2.09,2.17Z"/><path d="M92.14,77.85a1.42,1.42,0,0,1-.67.14c-.79,0-1.18-.44-1.18-1.32V74h-.78v-.62h.78v-1.1l.72-.23v1.33h1.13V74H91v2.53a1.09,1.09,0,0,0,.15.65.6.6,0,0,0,.51.19.75.75,0,0,0,.47-.15Z"/><path d="M95,78a2.09,2.09,0,0,1-1.59-.63,2.33,2.33,0,0,1-.6-1.68,2.46,2.46,0,0,1,.62-1.77,2.25,2.25,0,0,1,1.68-.63,2,2,0,0,1,1.57.62,2.42,2.42,0,0,1,.56,1.71,2.44,2.44,0,0,1-.6,1.73A2.15,2.15,0,0,1,95,78Zm.06-4.11a1.35,1.35,0,0,0-1.1.48,1.91,1.91,0,0,0-.41,1.3A1.85,1.85,0,0,0,94,76.93a1.38,1.38,0,0,0,1.1.46,1.32,1.32,0,0,0,1.07-.45,2,2,0,0,0,.38-1.29,2,2,0,0,0-.38-1.3A1.33,1.33,0,0,0,95.06,73.89Z"/><path d="M99.15,77.24h0V80h-.72V73.39h.72v.79h0a1.72,1.72,0,0,1,1.56-.89,1.63,1.63,0,0,1,1.35.6,2.47,2.47,0,0,1,.49,1.62,2.77,2.77,0,0,1-.55,1.81,1.82,1.82,0,0,1-1.5.68A1.51,1.51,0,0,1,99.15,77.24Zm0-1.81v.62a1.35,1.35,0,0,0,.37,1,1.29,1.29,0,0,0,1.94-.11,2.27,2.27,0,0,0,.37-1.39,1.82,1.82,0,0,0-.34-1.18,1.17,1.17,0,0,0-.94-.43,1.27,1.27,0,0,0-1,.44A1.59,1.59,0,0,0,99.13,75.43Z"/><path class="cls-6" d="M44,6.77h-2.4V6.2H44Z"/><path class="cls-6" d="M50.49,3.36H48V5.54h2.28V6.2H48V9h-.74V2.69h3.2Z"/><path class="cls-6" d="M52,9h-.72V2.33H52Z"/><path class="cls-6" d="M56.87,9h-.72V8.28h0a1.47,1.47,0,0,1-1.39.82c-1.07,0-1.61-.64-1.61-1.92V4.5h.72V7.07c0,.95.36,1.42,1.09,1.42a1.14,1.14,0,0,0,.87-.38,1.48,1.48,0,0,0,.34-1V4.5h.72Z"/><path class="cls-6" d="M57.78,8.83V8.06a2.14,2.14,0,0,0,1.3.43c.63,0,1-.21,1-.63a.56.56,0,0,0-.08-.3,1,1,0,0,0-.22-.23,2,2,0,0,0-.33-.17L59,7a5.46,5.46,0,0,1-.53-.24,1.54,1.54,0,0,1-.37-.27.89.89,0,0,1-.23-.35,1.25,1.25,0,0,1-.08-.45,1,1,0,0,1,.15-.56,1.24,1.24,0,0,1,.38-.41,2,2,0,0,1,.55-.25,2.74,2.74,0,0,1,.64-.08,2.69,2.69,0,0,1,1.05.2v.73A2,2,0,0,0,59.42,5a1.4,1.4,0,0,0-.37,0,1,1,0,0,0-.28.13.57.57,0,0,0-.18.2.58.58,0,0,0-.06.26.55.55,0,0,0,.25.5,1.07,1.07,0,0,0,.3.17l.4.16A5.46,5.46,0,0,1,60,6.7a1.82,1.82,0,0,1,.41.27.94.94,0,0,1,.25.35,1,1,0,0,1,.1.47,1.09,1.09,0,0,1-.15.58,1.21,1.21,0,0,1-.4.41,1.67,1.67,0,0,1-.56.24A3,3,0,0,1,59,9.1,2.54,2.54,0,0,1,57.78,8.83Z"/><path class="cls-6" d="M61.33,8.83V8.06a2.12,2.12,0,0,0,1.3.43c.63,0,.95-.21.95-.63a.49.49,0,0,0-.09-.3.68.68,0,0,0-.22-.23A1.91,1.91,0,0,0,63,7.16L62.55,7A5.46,5.46,0,0,1,62,6.76a1.84,1.84,0,0,1-.38-.27,1,1,0,0,1-.22-.35,1.06,1.06,0,0,1-.08-.45,1.13,1.13,0,0,1,.14-.56,1.38,1.38,0,0,1,.39-.41,2,2,0,0,1,.55-.25,2.74,2.74,0,0,1,.64-.08,2.69,2.69,0,0,1,1,.2v.73A2,2,0,0,0,63,5a1.37,1.37,0,0,0-.36,0,1,1,0,0,0-.28.13.57.57,0,0,0-.18.2.58.58,0,0,0-.06.26.55.55,0,0,0,.25.5,1.07,1.07,0,0,0,.3.17l.4.16c.2.08.37.16.53.24A1.82,1.82,0,0,1,64,7a1.07,1.07,0,0,1,.25.35,1.13,1.13,0,0,1,.09.47,1.18,1.18,0,0,1-.14.58,1.21,1.21,0,0,1-.4.41,1.67,1.67,0,0,1-.56.24,3,3,0,0,1-.68.08A2.53,2.53,0,0,1,61.33,8.83Z"/><path class="cls-6" d="M67,9.1a2.09,2.09,0,0,1-1.59-.63,2.33,2.33,0,0,1-.6-1.67A2.43,2.43,0,0,1,65.46,5a2.22,2.22,0,0,1,1.68-.64A2,2,0,0,1,68.71,5a2.49,2.49,0,0,1,.56,1.72,2.42,2.42,0,0,1-.6,1.72A2.17,2.17,0,0,1,67,9.1Zm0-4.1A1.34,1.34,0,0,0,66,5.47a1.93,1.93,0,0,0-.41,1.3A1.84,1.84,0,0,0,66,8a1.38,1.38,0,0,0,1.09.46A1.33,1.33,0,0,0,68.16,8a2,2,0,0,0,.38-1.29,2,2,0,0,0-.38-1.3A1.33,1.33,0,0,0,67.08,5Z"/><path class="cls-6" d="M76.19,9h-.72V8.23h0a1.66,1.66,0,0,1-1.54.87,1.69,1.69,0,0,1-1.36-.6A2.49,2.49,0,0,1,72,6.85a2.74,2.74,0,0,1,.56-1.79,1.86,1.86,0,0,1,1.5-.67,1.43,1.43,0,0,1,1.35.73h0V2.33h.72Zm-.72-2V6.3a1.31,1.31,0,0,0-.36-.93A1.21,1.21,0,0,0,74.2,5a1.25,1.25,0,0,0-1,.48,2.14,2.14,0,0,0-.38,1.34A1.91,1.91,0,0,0,73.14,8a1.19,1.19,0,0,0,1,.45,1.21,1.21,0,0,0,1-.43A1.63,1.63,0,0,0,75.47,7Z"/><path class="cls-6" d="M81,6.93H77.82a1.73,1.73,0,0,0,.4,1.16,1.42,1.42,0,0,0,1.07.4A2.16,2.16,0,0,0,80.68,8v.68a2.55,2.55,0,0,1-1.56.43,1.89,1.89,0,0,1-1.5-.61,2.5,2.5,0,0,1-.55-1.73,2.44,2.44,0,0,1,.6-1.71,1.9,1.9,0,0,1,1.48-.66A1.68,1.68,0,0,1,80.51,5,2.4,2.4,0,0,1,81,6.55Zm-.74-.62a1.5,1.5,0,0,0-.3-1A1,1,0,0,0,79.13,5a1.15,1.15,0,0,0-.86.36,1.59,1.59,0,0,0-.44.95Z"/><path class="cls-6" d="M82.54,9h-.72V2.33h.72Z"/><path class="cls-6" d="M89,8.79a2.34,2.34,0,0,1-1.23.31,2.06,2.06,0,0,1-1.56-.63,2.26,2.26,0,0,1-.59-1.62,2.53,2.53,0,0,1,.64-1.79A2.21,2.21,0,0,1,88,4.39a2.32,2.32,0,0,1,1,.22v.74A1.81,1.81,0,0,0,87.92,5a1.45,1.45,0,0,0-1.13.49,1.89,1.89,0,0,0-.44,1.3A1.78,1.78,0,0,0,86.77,8a1.43,1.43,0,0,0,1.11.45A1.83,1.83,0,0,0,89,8.1Z"/><path class="cls-6" d="M91.69,9.1a2.06,2.06,0,0,1-1.59-.63,2.33,2.33,0,0,1-.6-1.67A2.43,2.43,0,0,1,90.12,5a2.2,2.2,0,0,1,1.67-.64A2,2,0,0,1,93.37,5a2.49,2.49,0,0,1,.56,1.72,2.38,2.38,0,0,1-.61,1.72A2.13,2.13,0,0,1,91.69,9.1Zm0-4.1a1.36,1.36,0,0,0-1.1.47,1.93,1.93,0,0,0-.4,1.3A1.84,1.84,0,0,0,90.65,8a1.38,1.38,0,0,0,1.09.46A1.33,1.33,0,0,0,92.82,8a2,2,0,0,0,.37-1.29,2,2,0,0,0-.37-1.3A1.33,1.33,0,0,0,91.74,5Z"/><path class="cls-6" d="M98.65,9h-.72V8.23h0a1.66,1.66,0,0,1-1.54.87A1.69,1.69,0,0,1,95,8.5a2.49,2.49,0,0,1-.51-1.65,2.69,2.69,0,0,1,.57-1.79,1.83,1.83,0,0,1,1.49-.67,1.43,1.43,0,0,1,1.35.73h0V2.33h.72Zm-.72-2V6.3a1.31,1.31,0,0,0-.36-.93A1.2,1.2,0,0,0,96.66,5a1.25,1.25,0,0,0-1,.48,2.14,2.14,0,0,0-.38,1.34A1.91,1.91,0,0,0,95.6,8a1.21,1.21,0,0,0,1,.45,1.23,1.23,0,0,0,1-.43A1.63,1.63,0,0,0,97.93,7Z"/><path class="cls-6" d="M100.21,3.35a.44.44,0,0,1-.46-.46.45.45,0,0,1,.13-.34.44.44,0,0,1,.33-.13.47.47,0,0,1,.34.13.46.46,0,0,1,.14.34.45.45,0,0,1-.14.33A.47.47,0,0,1,100.21,3.35ZM100.56,9h-.72V4.5h.72Z"/><path class="cls-6" d="M104.82,8.79a2.34,2.34,0,0,1-1.23.31A2.06,2.06,0,0,1,102,8.47a2.26,2.26,0,0,1-.59-1.62,2.53,2.53,0,0,1,.64-1.79,2.21,2.21,0,0,1,1.7-.67,2.32,2.32,0,0,1,1,.22v.74A1.81,1.81,0,0,0,103.75,5a1.45,1.45,0,0,0-1.13.49,1.89,1.89,0,0,0-.44,1.3A1.78,1.78,0,0,0,102.6,8a1.43,1.43,0,0,0,1.11.45,1.83,1.83,0,0,0,1.11-.39Z"/><path class="cls-6" d="M109.25,6.93h-3.17a1.68,1.68,0,0,0,.4,1.16,1.4,1.4,0,0,0,1.07.4,2.16,2.16,0,0,0,1.39-.5v.68a2.59,2.59,0,0,1-1.57.43,1.88,1.88,0,0,1-1.49-.61,2.5,2.5,0,0,1-.55-1.73,2.44,2.44,0,0,1,.6-1.71,1.9,1.9,0,0,1,1.48-.66,1.69,1.69,0,0,1,1.36.57,2.4,2.4,0,0,1,.48,1.59Zm-.73-.62a1.56,1.56,0,0,0-.3-1,1,1,0,0,0-.83-.34,1.15,1.15,0,0,0-.86.36,1.59,1.59,0,0,0-.44.95Z"/><path class="cls-6" d="M116.11,9h-.72V8.23h0a1.66,1.66,0,0,1-1.54.87,1.69,1.69,0,0,1-1.36-.6A2.49,2.49,0,0,1,112,6.85a2.69,2.69,0,0,1,.57-1.79A1.83,1.83,0,0,1,114,4.39a1.43,1.43,0,0,1,1.35.73h0V2.33h.72Zm-.72-2V6.3a1.31,1.31,0,0,0-.36-.93,1.2,1.2,0,0,0-.91-.37,1.25,1.25,0,0,0-1,.48,2.14,2.14,0,0,0-.38,1.34A1.91,1.91,0,0,0,113.06,8a1.3,1.3,0,0,0,2,0A1.59,1.59,0,0,0,115.39,7Z"/><path class="cls-6" d="M117.67,3.35a.44.44,0,0,1-.33-.13.45.45,0,0,1-.14-.33.46.46,0,0,1,.14-.34.48.48,0,0,1,.66,0,.42.42,0,0,1,.14.34.42.42,0,0,1-.14.33A.44.44,0,0,1,117.67,3.35ZM118,9h-.72V4.5H118Z"/><path class="cls-6" d="M124.63,9h-.72V8.29h0a1.52,1.52,0,0,1-1.39.81,1.49,1.49,0,0,1-1-.36,1.23,1.23,0,0,1-.38-.94c0-.84.5-1.33,1.49-1.47l1.35-.19Q123.91,5,123,5a2.22,2.22,0,0,0-1.47.55V4.81A2.79,2.79,0,0,1,123,4.39q1.59,0,1.59,1.68Zm-.72-2.28-1.09.15a1.83,1.83,0,0,0-.76.25.72.72,0,0,0-.25.63.71.71,0,0,0,.23.54.92.92,0,0,0,.63.2,1.17,1.17,0,0,0,.89-.37,1.36,1.36,0,0,0,.35-.95Z"/><path class="cls-6" d="M129.35,9h-.72V8.28h0a1.46,1.46,0,0,1-1.38.82c-1.08,0-1.61-.64-1.61-1.92V4.5h.71V7.07c0,.95.37,1.42,1.09,1.42a1.12,1.12,0,0,0,.87-.38,1.48,1.48,0,0,0,.34-1V4.5h.72Z"/><path class="cls-6" d="M132.62,9a1.31,1.31,0,0,1-.67.14c-.79,0-1.18-.44-1.18-1.32V5.11H130V4.5h.77V3.4l.72-.24V4.5h1.13v.61h-1.13V7.65a1.06,1.06,0,0,0,.15.64.63.63,0,0,0,.51.2.73.73,0,0,0,.47-.15Z"/><path class="cls-6" d="M135.2,9.1a2.06,2.06,0,0,1-1.59-.63A2.33,2.33,0,0,1,133,6.8,2.43,2.43,0,0,1,133.63,5a2.2,2.2,0,0,1,1.67-.64,2.06,2.06,0,0,1,1.58.62,2.49,2.49,0,0,1,.56,1.72,2.38,2.38,0,0,1-.61,1.72A2.15,2.15,0,0,1,135.2,9.1Zm.05-4.1a1.36,1.36,0,0,0-1.1.47,1.93,1.93,0,0,0-.4,1.3A1.79,1.79,0,0,0,134.16,8a1.36,1.36,0,0,0,1.09.46A1.33,1.33,0,0,0,136.33,8a2,2,0,0,0,.37-1.29,2,2,0,0,0-.37-1.3A1.33,1.33,0,0,0,135.25,5Z"/><path class="cls-6" d="M140.67,5.22a1,1,0,0,0-.55-.14.93.93,0,0,0-.77.43A2.07,2.07,0,0,0,139,6.7V9h-.72V4.5H139v.92h0a1.6,1.6,0,0,1,.47-.74,1.11,1.11,0,0,1,.71-.26,1.23,1.23,0,0,1,.43.06Z"/><path class="cls-6" d="M141.55,3.35a.44.44,0,0,1-.33-.13.45.45,0,0,1-.14-.33.46.46,0,0,1,.14-.34.48.48,0,0,1,.66,0,.42.42,0,0,1,.14.34.42.42,0,0,1-.14.33A.44.44,0,0,1,141.55,3.35ZM141.9,9h-.72V4.5h.72Z"/><path class="cls-6" d="M146.23,4.7l-2.67,3.68h2.64V9h-3.7V8.77l2.67-3.66h-2.41V4.5h3.47Z"/><path class="cls-6" d="M150,4.7l-2.67,3.68H150V9h-3.7V8.77L149,5.11h-2.42V4.5H150Z"/><path class="cls-6" d="M153.91,9h-.72V8.29h0a1.64,1.64,0,0,1-2.44.45,1.23,1.23,0,0,1-.38-.94c0-.84.5-1.33,1.49-1.47l1.35-.19q0-1.14-.93-1.14a2.22,2.22,0,0,0-1.47.55V4.81a2.84,2.84,0,0,1,1.53-.42q1.59,0,1.59,1.68Zm-.72-2.28-1.09.15a1.78,1.78,0,0,0-.75.25.72.72,0,0,0-.26.63.68.68,0,0,0,.24.54.87.87,0,0,0,.62.2,1.16,1.16,0,0,0,.89-.37,1.36,1.36,0,0,0,.35-.95Z"/><path class="cls-6" d="M158.13,4.7l-2.66,3.68h2.64V9h-3.7V8.77l2.67-3.66h-2.42V4.5h3.47Z"/><path class="cls-6" d="M159.17,3.35a.44.44,0,0,1-.33-.13.45.45,0,0,1-.14-.33.46.46,0,0,1,.14-.34.48.48,0,0,1,.66,0,.46.46,0,0,1,.14.34.45.45,0,0,1-.14.33A.44.44,0,0,1,159.17,3.35ZM159.52,9h-.72V4.5h.72Z"/><path class="cls-6" d="M162.59,9.1a2.1,2.1,0,0,1-1.6-.63,2.36,2.36,0,0,1-.59-1.67A2.43,2.43,0,0,1,161,5a2.2,2.2,0,0,1,1.67-.64,2,2,0,0,1,1.57.62,2.45,2.45,0,0,1,.57,1.72,2.38,2.38,0,0,1-.61,1.72A2.15,2.15,0,0,1,162.59,9.1Zm0-4.1a1.36,1.36,0,0,0-1.1.47,1.93,1.93,0,0,0-.4,1.3,1.83,1.83,0,0,0,.4,1.26,1.4,1.4,0,0,0,1.1.46A1.31,1.31,0,0,0,163.71,8a2,2,0,0,0,.38-1.29,2,2,0,0,0-.38-1.3A1.31,1.31,0,0,0,162.64,5Z"/><path class="cls-6" d="M169.45,9h-.73V6.43c0-1-.34-1.43-1-1.43a1.15,1.15,0,0,0-.9.4,1.55,1.55,0,0,0-.35,1V9h-.72V4.5h.72v.74h0a1.61,1.61,0,0,1,1.47-.85,1.36,1.36,0,0,1,1.13.48,2.09,2.09,0,0,1,.4,1.37Z"/><path class="cls-6" d="M174.15,6.93H171a1.68,1.68,0,0,0,.41,1.16,1.38,1.38,0,0,0,1.06.4,2.19,2.19,0,0,0,1.4-.5v.68a2.61,2.61,0,0,1-1.57.43,1.89,1.89,0,0,1-1.5-.61,2.54,2.54,0,0,1-.54-1.73,2.44,2.44,0,0,1,.59-1.71,1.92,1.92,0,0,1,1.48-.66,1.71,1.71,0,0,1,1.37.57,2.4,2.4,0,0,1,.48,1.59Zm-.74-.62a1.44,1.44,0,0,0-.3-1,1,1,0,0,0-.82-.34,1.19,1.19,0,0,0-.87.36,1.65,1.65,0,0,0-.44.95Z"/><path class="cls-6" d="M179.05,10.43h-.64a5.62,5.62,0,0,1-1.36-3.84,5.85,5.85,0,0,1,1.36-3.9h.65a5.94,5.94,0,0,0-1.38,3.89A5.86,5.86,0,0,0,179.05,10.43Z"/><path class="cls-6" d="M182.68,8.79a2.34,2.34,0,0,1-1.23.31,2.06,2.06,0,0,1-1.56-.63,2.26,2.26,0,0,1-.59-1.62,2.49,2.49,0,0,1,.64-1.79,2.21,2.21,0,0,1,1.7-.67,2.35,2.35,0,0,1,1.05.22v.74A1.81,1.81,0,0,0,181.61,5a1.45,1.45,0,0,0-1.13.49,1.89,1.89,0,0,0-.44,1.3A1.78,1.78,0,0,0,180.46,8a1.42,1.42,0,0,0,1.11.45,1.83,1.83,0,0,0,1.11-.39Z"/><path class="cls-6" d="M185.38,9.1a2.06,2.06,0,0,1-1.59-.63,2.33,2.33,0,0,1-.6-1.67A2.43,2.43,0,0,1,183.81,5a2.2,2.2,0,0,1,1.67-.64,2,2,0,0,1,1.58.62,2.49,2.49,0,0,1,.56,1.72A2.38,2.38,0,0,1,187,8.45,2.13,2.13,0,0,1,185.38,9.1Zm.05-4.1a1.36,1.36,0,0,0-1.1.47,1.93,1.93,0,0,0-.4,1.3A1.84,1.84,0,0,0,184.34,8a1.36,1.36,0,0,0,1.09.46A1.33,1.33,0,0,0,186.51,8a2,2,0,0,0,.37-1.29,2,2,0,0,0-.37-1.3A1.33,1.33,0,0,0,185.43,5Z"/><path class="cls-6" d="M192.24,9h-.72V6.43c0-1-.35-1.43-1.05-1.43a1.12,1.12,0,0,0-.89.4,1.5,1.5,0,0,0-.36,1V9h-.72V4.5h.72v.74h0a1.62,1.62,0,0,1,1.48-.85,1.39,1.39,0,0,1,1.13.48,2.09,2.09,0,0,1,.39,1.37Z"/><path class="cls-6" d="M196.35,6.61V9h-.73V2.69h1.73a2.27,2.27,0,0,1,1.56.5,1.71,1.71,0,0,1,.56,1.38A1.92,1.92,0,0,1,198.85,6a2.37,2.37,0,0,1-1.67.57Zm0-3.25V6h.78a1.71,1.71,0,0,0,1.16-.35,1.26,1.26,0,0,0,.41-1c0-.83-.5-1.25-1.48-1.25Z"/><path class="cls-6" d="M204.77,9h-1l-2.43-2.89a1.91,1.91,0,0,1-.17-.22h0V9h-.74V2.69h.74v3h0a1.46,1.46,0,0,1,.17-.22l2.36-2.75h.91l-2.7,3Z"/><path class="cls-6" d="M209.23,8.73a3.62,3.62,0,0,1-1.74.37,2.82,2.82,0,0,1-2.15-.86A3.21,3.21,0,0,1,204.53,6a3.34,3.34,0,0,1,.91-2.44,3.09,3.09,0,0,1,2.31-.93,3.57,3.57,0,0,1,1.48.26v.78a3,3,0,0,0-1.49-.37A2.29,2.29,0,0,0,206,4a2.73,2.73,0,0,0-.68,1.94,2.58,2.58,0,0,0,.63,1.83,2.15,2.15,0,0,0,1.66.69A3.1,3.1,0,0,0,209.23,8Z"/><path class="cls-6" d="M213.58,9h-3.34V2.69h3.2v.67H211v2.1h2.28v.66H211V8.33h2.6Z"/><path class="cls-6" d="M214.45,10.43h-.64a5.86,5.86,0,0,0,1.37-3.85,5.94,5.94,0,0,0-1.38-3.89h.65a5.86,5.86,0,0,1,1.37,3.9A5.63,5.63,0,0,1,214.45,10.43Z"/><path class="cls-6" d="M44,18.77h-2.4V18.2H44Z"/><path class="cls-6" d="M52.71,21h-.82l-.66-1.77H48.55L47.92,21H47.1l2.42-6.31h.76ZM51,18.57l-1-2.69a2.85,2.85,0,0,1-.09-.42h0a2.17,2.17,0,0,1-.1.42l-1,2.69Z"/><path class="cls-6" d="M57.18,21h-.72v-.72h0a1.47,1.47,0,0,1-1.39.82c-1.07,0-1.61-.64-1.61-1.92V16.5h.72v2.57c0,.95.36,1.42,1.09,1.42a1.14,1.14,0,0,0,.87-.38,1.48,1.48,0,0,0,.34-1V16.5h.72Z"/><path class="cls-6" d="M60.72,21a1.31,1.31,0,0,1-.67.14c-.79,0-1.18-.44-1.18-1.32V17.11h-.78V16.5h.78V15.4l.72-.24V16.5h1.13v.61H59.59v2.54a1.06,1.06,0,0,0,.15.64.61.61,0,0,0,.51.2.75.75,0,0,0,.47-.15Z"/><path class="cls-6" d="M65.3,18.93H62.12a1.68,1.68,0,0,0,.41,1.16,1.39,1.39,0,0,0,1.06.4A2.19,2.19,0,0,0,65,20v.68a2.61,2.61,0,0,1-1.57.43,1.89,1.89,0,0,1-1.5-.61,2.54,2.54,0,0,1-.54-1.73A2.44,2.44,0,0,1,62,17.05a1.92,1.92,0,0,1,1.48-.66,1.71,1.71,0,0,1,1.37.57,2.4,2.4,0,0,1,.48,1.59Zm-.74-.62a1.44,1.44,0,0,0-.3-1,1,1,0,0,0-.82-.34,1.19,1.19,0,0,0-.87.36,1.65,1.65,0,0,0-.44.95Z"/><path class="cls-6" d="M70.13,21h-.72V18.43c0-1-.35-1.43-1-1.43a1.15,1.15,0,0,0-.9.4,1.55,1.55,0,0,0-.35,1V21h-.72V16.5h.72v.74h0a1.62,1.62,0,0,1,1.48-.85,1.39,1.39,0,0,1,1.13.48,2.09,2.09,0,0,1,.39,1.37Z"/><path class="cls-6" d="M73.57,21a1.31,1.31,0,0,1-.67.14c-.79,0-1.18-.44-1.18-1.32V17.11h-.78V16.5h.78V15.4l.72-.24V16.5h1.13v.61H72.44v2.54a1.06,1.06,0,0,0,.15.64.61.61,0,0,0,.51.2.75.75,0,0,0,.47-.15Z"/><path class="cls-6" d="M74.9,15.35a.44.44,0,0,1-.46-.46.45.45,0,0,1,.13-.34.44.44,0,0,1,.33-.13.47.47,0,0,1,.34.13.46.46,0,0,1,.14.34.45.45,0,0,1-.14.33A.47.47,0,0,1,74.9,15.35ZM75.25,21h-.72V16.5h.72Z"/><path class="cls-6" d="M79.78,20.79a2.34,2.34,0,0,1-1.23.31A2,2,0,0,1,77,20.47a2.21,2.21,0,0,1-.59-1.62A2.52,2.52,0,0,1,77,17.06a2.23,2.23,0,0,1,1.7-.67,2.32,2.32,0,0,1,1.05.22v.74A1.78,1.78,0,0,0,78.72,17a1.47,1.47,0,0,0-1.14.49,1.89,1.89,0,0,0-.44,1.3A1.78,1.78,0,0,0,77.56,20a1.45,1.45,0,0,0,1.11.45,1.81,1.81,0,0,0,1.11-.39Z"/><path class="cls-6" d="M84.09,21h-.72v-.71h0A1.5,1.5,0,0,1,82,21.1a1.45,1.45,0,0,1-1-.36,1.19,1.19,0,0,1-.38-.94c0-.84.49-1.33,1.48-1.47l1.35-.19q0-1.14-.93-1.14a2.18,2.18,0,0,0-1.46.55v-.74a2.79,2.79,0,0,1,1.53-.42c1,0,1.58.56,1.58,1.68Zm-.72-2.28-1.08.15a1.78,1.78,0,0,0-.76.25.72.72,0,0,0-.25.63.68.68,0,0,0,.23.54.92.92,0,0,0,.63.2,1.15,1.15,0,0,0,.88-.37,1.36,1.36,0,0,0,.35-.95Z"/><path class="cls-6" d="M88.59,16.7l-2.67,3.68h2.64V21h-3.7v-.23l2.67-3.66H85.12V16.5h3.47Z"/><path class="cls-6" d="M89.89,15.35a.44.44,0,0,1-.33-.13.45.45,0,0,1-.14-.33.46.46,0,0,1,.14-.34.48.48,0,0,1,.66,0,.42.42,0,0,1,.14.34.42.42,0,0,1-.14.33A.44.44,0,0,1,89.89,15.35ZM90.24,21h-.72V16.5h.72Z"/><path class="cls-6" d="M93.58,21.1A2.08,2.08,0,0,1,92,20.47a2.33,2.33,0,0,1-.6-1.67A2.43,2.43,0,0,1,92,17a2.21,2.21,0,0,1,1.68-.64,2,2,0,0,1,1.57.62,2.49,2.49,0,0,1,.56,1.72,2.38,2.38,0,0,1-.61,1.72A2.13,2.13,0,0,1,93.58,21.1Zm0-4.1a1.36,1.36,0,0,0-1.1.47,1.93,1.93,0,0,0-.4,1.3A1.84,1.84,0,0,0,92.54,20a1.38,1.38,0,0,0,1.09.46A1.33,1.33,0,0,0,94.71,20a2,2,0,0,0,.37-1.29,2,2,0,0,0-.37-1.3A1.33,1.33,0,0,0,93.63,17Z"/><path class="cls-6" d="M100.71,21H100V18.43c0-1-.35-1.43-1-1.43a1.12,1.12,0,0,0-.89.4,1.5,1.5,0,0,0-.36,1V21H97V16.5h.72v.74h0a1.62,1.62,0,0,1,1.48-.85,1.38,1.38,0,0,1,1.13.48,2.09,2.09,0,0,1,.39,1.37Z"/><path class="cls-6" d="M105.68,18.93H102.5a1.73,1.73,0,0,0,.41,1.16,1.39,1.39,0,0,0,1.06.4,2.17,2.17,0,0,0,1.4-.5v.68a2.61,2.61,0,0,1-1.57.43,1.92,1.92,0,0,1-1.5-.61,2.54,2.54,0,0,1-.54-1.73,2.48,2.48,0,0,1,.59-1.71,1.92,1.92,0,0,1,1.48-.66,1.7,1.7,0,0,1,1.37.57,2.4,2.4,0,0,1,.48,1.59Zm-.74-.62a1.44,1.44,0,0,0-.3-1,1,1,0,0,0-.82-.34,1.19,1.19,0,0,0-.87.36,1.72,1.72,0,0,0-.44.95Z"/><path class="cls-6" d="M109.61,15.35a.44.44,0,0,1-.33-.13.45.45,0,0,1-.14-.33.46.46,0,0,1,.14-.34.48.48,0,0,1,.66,0,.42.42,0,0,1,.14.34.42.42,0,0,1-.14.33A.44.44,0,0,1,109.61,15.35ZM110,21h-.72V16.5H110Z"/><path class="cls-6" d="M115.15,21h-.72V18.43c0-1-.35-1.43-1-1.43a1.15,1.15,0,0,0-.9.4,1.55,1.55,0,0,0-.35,1V21h-.72V16.5h.72v.74h0a1.61,1.61,0,0,1,1.47-.85,1.38,1.38,0,0,1,1.13.48,2.09,2.09,0,0,1,.39,1.37Z"/><path class="cls-6" d="M118.6,21a1.35,1.35,0,0,1-.68.14c-.78,0-1.18-.44-1.18-1.32V17.11H116V16.5h.77V15.4l.72-.24V16.5h1.14v.61h-1.14v2.54a1,1,0,0,0,.16.64.61.61,0,0,0,.51.2.75.75,0,0,0,.47-.15Z"/><path class="cls-6" d="M123.18,18.93H120a1.73,1.73,0,0,0,.4,1.16,1.42,1.42,0,0,0,1.07.4,2.21,2.21,0,0,0,1.4-.5v.68a2.61,2.61,0,0,1-1.57.43,1.89,1.89,0,0,1-1.5-.61,2.5,2.5,0,0,1-.55-1.73,2.44,2.44,0,0,1,.6-1.71,1.92,1.92,0,0,1,1.48-.66,1.68,1.68,0,0,1,1.36.57,2.35,2.35,0,0,1,.49,1.59Zm-.74-.62a1.44,1.44,0,0,0-.3-1,1,1,0,0,0-.83-.34,1.16,1.16,0,0,0-.86.36,1.59,1.59,0,0,0-.44.95Z"/><path class="cls-6" d="M128.11,20.63c0,1.66-.79,2.48-2.38,2.48a3.16,3.16,0,0,1-1.45-.31v-.72a3,3,0,0,0,1.45.42c1.1,0,1.66-.59,1.66-1.77v-.49h0a1.82,1.82,0,0,1-2.9.26,2.41,2.41,0,0,1-.51-1.61,2.78,2.78,0,0,1,.55-1.82,1.85,1.85,0,0,1,1.51-.68,1.45,1.45,0,0,1,1.35.73h0V16.5h.72ZM127.39,19V18.3a1.25,1.25,0,0,0-.37-.92,1.17,1.17,0,0,0-.9-.38,1.25,1.25,0,0,0-1,.48,2.14,2.14,0,0,0-.38,1.36,1.87,1.87,0,0,0,.36,1.2,1.17,1.17,0,0,0,1,.45,1.27,1.27,0,0,0,1-.43A1.6,1.6,0,0,0,127.39,19Z"/><path class="cls-6" d="M131.91,17.22a1,1,0,0,0-1.31.29,2,2,0,0,0-.31,1.19V21h-.72V16.5h.72v.92h0a1.69,1.69,0,0,1,.47-.74,1.13,1.13,0,0,1,.71-.26,1.19,1.19,0,0,1,.43.06Z"/><path class="cls-6" d="M135.92,21h-.72v-.71h0a1.52,1.52,0,0,1-1.39.81,1.49,1.49,0,0,1-1-.36,1.23,1.23,0,0,1-.38-.94c0-.84.5-1.33,1.49-1.47l1.35-.19q0-1.14-.93-1.14a2.22,2.22,0,0,0-1.47.55v-.74a2.79,2.79,0,0,1,1.53-.42q1.59,0,1.59,1.68Zm-.72-2.28-1.09.15a1.83,1.83,0,0,0-.76.25.83.83,0,0,0,0,1.17.92.92,0,0,0,.63.2,1.17,1.17,0,0,0,.89-.37,1.36,1.36,0,0,0,.35-.95Z"/><path class="cls-6" d="M139.36,21a1.31,1.31,0,0,1-.67.14c-.79,0-1.18-.44-1.18-1.32V17.11h-.78V16.5h.78V15.4l.72-.24V16.5h1.13v.61h-1.13v2.54a1.06,1.06,0,0,0,.15.64.61.61,0,0,0,.51.2.75.75,0,0,0,.47-.15Z"/><path class="cls-6" d="M143.55,21h-.72v-.71h0a1.52,1.52,0,0,1-1.39.81,1.45,1.45,0,0,1-1-.36,1.23,1.23,0,0,1-.38-.94c0-.84.5-1.33,1.49-1.47l1.35-.19q0-1.14-.93-1.14a2.22,2.22,0,0,0-1.47.55v-.74a2.79,2.79,0,0,1,1.53-.42q1.59,0,1.59,1.68Zm-.72-2.28-1.09.15a1.83,1.83,0,0,0-.76.25.83.83,0,0,0,0,1.17.92.92,0,0,0,.63.2,1.17,1.17,0,0,0,.89-.37,1.36,1.36,0,0,0,.35-.95Z"/><path class="cls-6" d="M154.94,14.69,153.16,21h-.87L151,16.39a3.16,3.16,0,0,1-.11-.64h0a3.19,3.19,0,0,1-.12.63L149.46,21h-.86l-1.85-6.31h.82l1.34,4.84a3.19,3.19,0,0,1,.1.63h0a3.93,3.93,0,0,1,.14-.63l1.39-4.84h.71l1.34,4.87a4.24,4.24,0,0,1,.1.59h0a3.13,3.13,0,0,1,.12-.6l1.29-4.86Z"/><path class="cls-6" d="M156.14,15.35a.44.44,0,0,1-.32-.13.42.42,0,0,1-.14-.33.42.42,0,0,1,.14-.34.44.44,0,0,1,.32-.13.45.45,0,0,1,.34.13.46.46,0,0,1,.14.34.46.46,0,0,1-.48.46ZM156.5,21h-.72V16.5h.72Z"/><path class="cls-6" d="M161.69,21H161V18.43c0-1-.35-1.43-1.05-1.43a1.13,1.13,0,0,0-.89.4,1.5,1.5,0,0,0-.35,1V21H158V16.5h.72v.74h0a1.63,1.63,0,0,1,1.48-.85,1.38,1.38,0,0,1,1.13.48,2.09,2.09,0,0,1,.39,1.37Z"/><path class="cls-6" d="M166.89,21h-.72v-.77h0a1.66,1.66,0,0,1-1.55.87,1.68,1.68,0,0,1-1.35-.6,2.49,2.49,0,0,1-.51-1.65,2.74,2.74,0,0,1,.56-1.79,1.86,1.86,0,0,1,1.5-.67,1.43,1.43,0,0,1,1.35.73h0V14.33h.72Zm-.72-2V18.3a1.31,1.31,0,0,0-.36-.93,1.22,1.22,0,0,0-.92-.37,1.24,1.24,0,0,0-1,.48,2.14,2.14,0,0,0-.38,1.34,1.91,1.91,0,0,0,.36,1.22,1.19,1.19,0,0,0,1,.45,1.21,1.21,0,0,0,1-.43A1.63,1.63,0,0,0,166.17,19Z"/><path class="cls-6" d="M170.23,21.1a2.06,2.06,0,0,1-1.59-.63,2.33,2.33,0,0,1-.6-1.67,2.43,2.43,0,0,1,.62-1.77,2.2,2.2,0,0,1,1.67-.64,2.06,2.06,0,0,1,1.58.62,2.49,2.49,0,0,1,.56,1.72,2.38,2.38,0,0,1-.61,1.72A2.13,2.13,0,0,1,170.23,21.1Zm.05-4.1a1.36,1.36,0,0,0-1.1.47,1.93,1.93,0,0,0-.4,1.3,1.84,1.84,0,0,0,.41,1.26,1.36,1.36,0,0,0,1.09.46,1.33,1.33,0,0,0,1.08-.45,2,2,0,0,0,.37-1.29,2,2,0,0,0-.37-1.3A1.33,1.33,0,0,0,170.28,17Z"/><path class="cls-6" d="M179.29,16.5,177.94,21h-.75l-.92-3.23a1.67,1.67,0,0,1-.07-.41h0a2.4,2.4,0,0,1-.09.41l-1,3.23h-.72L173,16.5h.75l.93,3.38a2.7,2.7,0,0,1,.07.4h0a2.27,2.27,0,0,1,.08-.41l1-3.37h.66l.93,3.39a2,2,0,0,1,.06.4h0a1.68,1.68,0,0,1,.07-.4l.92-3.39Z"/><path class="cls-6" d="M179.85,20.83v-.77a2.16,2.16,0,0,0,1.3.43c.63,0,.95-.21.95-.63a.56.56,0,0,0-.08-.3,1,1,0,0,0-.22-.23,1.69,1.69,0,0,0-.33-.17l-.4-.16c-.2-.08-.37-.16-.53-.24a1.54,1.54,0,0,1-.37-.27,1,1,0,0,1-.23-.35,1.25,1.25,0,0,1-.08-.45,1,1,0,0,1,.15-.56,1.24,1.24,0,0,1,.38-.41,2,2,0,0,1,.55-.25,2.74,2.74,0,0,1,.64-.08,2.69,2.69,0,0,1,1,.2v.73a2,2,0,0,0-1.14-.32,1.4,1.4,0,0,0-.37,0,1,1,0,0,0-.28.13.86.86,0,0,0-.18.2.58.58,0,0,0-.06.26.62.62,0,0,0,.06.29.76.76,0,0,0,.19.21,1.07,1.07,0,0,0,.3.17c.12.05.25.11.4.16a5.46,5.46,0,0,1,.53.24,1.82,1.82,0,0,1,.41.27,1.1,1.1,0,0,1,.26.35,1.13,1.13,0,0,1,.09.47,1.09,1.09,0,0,1-.15.58,1.27,1.27,0,0,1-.39.41,1.81,1.81,0,0,1-.57.24,3,3,0,0,1-.67.08A2.54,2.54,0,0,1,179.85,20.83Z"/><path class="cls-6" d="M44,30.77h-2.4V30.2H44Z"/><path class="cls-6" d="M52.91,33H52l-3.25-5a2.05,2.05,0,0,1-.2-.39h0a7.44,7.44,0,0,1,0,.86V33h-.74V26.69h1L52,31.64a4.73,4.73,0,0,1,.25.42h0a6.31,6.31,0,0,1,0-.93V26.69h.74Z"/><path class="cls-6" d="M56.35,33.1a2.06,2.06,0,0,1-1.59-.63,2.33,2.33,0,0,1-.6-1.67A2.43,2.43,0,0,1,54.78,29a2.21,2.21,0,0,1,1.68-.64A2,2,0,0,1,58,29a2.49,2.49,0,0,1,.56,1.72A2.38,2.38,0,0,1,58,32.45,2.13,2.13,0,0,1,56.35,33.1Zm0-4.1a1.36,1.36,0,0,0-1.1.47,1.93,1.93,0,0,0-.4,1.3A1.84,1.84,0,0,0,55.31,32a1.38,1.38,0,0,0,1.09.46A1.33,1.33,0,0,0,57.48,32a2,2,0,0,0,.37-1.29,2,2,0,0,0-.37-1.3A1.33,1.33,0,0,0,56.4,29Z"/><path class="cls-6" d="M66.13,33h-.72V30.41a2,2,0,0,0-.23-1.08.87.87,0,0,0-.77-.33,1,1,0,0,0-.79.42,1.65,1.65,0,0,0-.32,1V33h-.72V30.32c0-.88-.34-1.32-1-1.32a1,1,0,0,0-.78.39,1.69,1.69,0,0,0-.31,1V33h-.72V28.5h.72v.71h0a1.53,1.53,0,0,1,1.4-.82,1.3,1.3,0,0,1,.8.26,1.24,1.24,0,0,1,.47.67,1.61,1.61,0,0,1,1.5-.93c1,0,1.48.61,1.48,1.83Z"/><path class="cls-6" d="M71.11,30.93H67.93a1.73,1.73,0,0,0,.41,1.16,1.39,1.39,0,0,0,1.06.4,2.19,2.19,0,0,0,1.4-.5v.68a2.61,2.61,0,0,1-1.57.43,1.89,1.89,0,0,1-1.5-.61,2.54,2.54,0,0,1-.54-1.73,2.44,2.44,0,0,1,.59-1.71,1.92,1.92,0,0,1,1.48-.66,1.71,1.71,0,0,1,1.37.57,2.4,2.4,0,0,1,.48,1.59Zm-.74-.62a1.44,1.44,0,0,0-.3-1,1,1,0,0,0-.82-.34,1.19,1.19,0,0,0-.87.36,1.65,1.65,0,0,0-.44.95Z"/><path class="cls-6" d="M78.3,33h-.72v-.72h0a1.48,1.48,0,0,1-1.39.82c-1.07,0-1.61-.64-1.61-1.92V28.5h.72v2.57c0,1,.36,1.42,1.09,1.42a1.1,1.1,0,0,0,.86-.38,1.48,1.48,0,0,0,.34-1V28.5h.72Z"/><path class="cls-6" d="M81.85,33a1.35,1.35,0,0,1-.68.14c-.78,0-1.18-.44-1.18-1.32V29.11h-.77V28.5H80V27.4l.72-.24V28.5h1.14v.61H80.71v2.54a1,1,0,0,0,.16.64.61.61,0,0,0,.51.2.78.78,0,0,0,.47-.15Z"/><path class="cls-6" d="M86.42,30.93H83.25a1.68,1.68,0,0,0,.4,1.16,1.4,1.4,0,0,0,1.07.4,2.16,2.16,0,0,0,1.39-.5v.68a2.59,2.59,0,0,1-1.57.43,1.88,1.88,0,0,1-1.49-.61,2.5,2.5,0,0,1-.55-1.73,2.44,2.44,0,0,1,.6-1.71,1.9,1.9,0,0,1,1.48-.66,1.69,1.69,0,0,1,1.36.57,2.4,2.4,0,0,1,.48,1.59Zm-.73-.62a1.56,1.56,0,0,0-.3-1,1,1,0,0,0-.83-.34,1.15,1.15,0,0,0-.86.36,1.59,1.59,0,0,0-.44.95Z"/><path class="cls-6" d="M91.25,33h-.72V30.43c0-1-.35-1.43-1-1.43a1.13,1.13,0,0,0-.89.4,1.5,1.5,0,0,0-.35,1V33h-.72V28.5h.72v.74h0a1.63,1.63,0,0,1,1.48-.85,1.38,1.38,0,0,1,1.13.48,2.09,2.09,0,0,1,.39,1.37Z"/><path class="cls-6" d="M94.7,33a1.35,1.35,0,0,1-.68.14c-.78,0-1.18-.44-1.18-1.32V29.11h-.77V28.5h.77V27.4l.72-.24V28.5H94.7v.61H93.56v2.54a1,1,0,0,0,.16.64.61.61,0,0,0,.51.2.78.78,0,0,0,.47-.15Z"/><path class="cls-6" d="M99.27,30.93H96.1a1.68,1.68,0,0,0,.4,1.16,1.4,1.4,0,0,0,1.07.4A2.16,2.16,0,0,0,99,32v.68a2.59,2.59,0,0,1-1.57.43,1.88,1.88,0,0,1-1.49-.61,2.5,2.5,0,0,1-.55-1.73,2.44,2.44,0,0,1,.6-1.71,1.9,1.9,0,0,1,1.47-.66,1.7,1.7,0,0,1,1.37.57,2.4,2.4,0,0,1,.48,1.59Zm-.73-.62a1.56,1.56,0,0,0-.3-1,1,1,0,0,0-.83-.34,1.15,1.15,0,0,0-.86.36,1.59,1.59,0,0,0-.44.95Z"/><path class="cls-6" d="M103.21,26.69l-3,7.35h-.67l3-7.35Z"/><path class="cls-6" d="M104.71,30.61V33H104V26.69h1.73a2.29,2.29,0,0,1,1.57.5,1.74,1.74,0,0,1,.55,1.38A1.88,1.88,0,0,1,107.2,30a2.34,2.34,0,0,1-1.66.57Zm0-3.25V30h.77a1.76,1.76,0,0,0,1.17-.35,1.29,1.29,0,0,0,.4-1c0-.83-.49-1.25-1.48-1.25Z"/><path class="cls-6" d="M111.83,33h-.72v-.71h0a1.52,1.52,0,0,1-1.39.81,1.45,1.45,0,0,1-1-.36,1.23,1.23,0,0,1-.38-.94c0-.84.5-1.33,1.49-1.47l1.35-.19q0-1.14-.93-1.14a2.22,2.22,0,0,0-1.47.55v-.74a2.79,2.79,0,0,1,1.53-.42q1.59,0,1.59,1.68Zm-.72-2.28-1.09.15a1.83,1.83,0,0,0-.76.25.83.83,0,0,0,0,1.17.92.92,0,0,0,.63.2,1.17,1.17,0,0,0,.89-.37,1.36,1.36,0,0,0,.35-.95Z"/><path class="cls-6" d="M112.91,32.83v-.77a2.14,2.14,0,0,0,1.3.43c.63,0,1-.21,1-.63a.56.56,0,0,0-.08-.3,1,1,0,0,0-.22-.23,2,2,0,0,0-.33-.17l-.4-.16a5.46,5.46,0,0,1-.53-.24,1.54,1.54,0,0,1-.37-.27.89.89,0,0,1-.23-.35,1.25,1.25,0,0,1-.08-.45,1,1,0,0,1,.15-.56,1.24,1.24,0,0,1,.38-.41,2,2,0,0,1,.55-.25,2.74,2.74,0,0,1,.64-.08,2.69,2.69,0,0,1,1,.2v.73a2,2,0,0,0-1.14-.32,1.4,1.4,0,0,0-.37,0,1,1,0,0,0-.28.13.57.57,0,0,0-.18.2.58.58,0,0,0-.06.26.55.55,0,0,0,.25.5,1.07,1.07,0,0,0,.3.17,4.15,4.15,0,0,0,.4.16,5.46,5.46,0,0,1,.53.24,1.82,1.82,0,0,1,.41.27.94.94,0,0,1,.25.35,1,1,0,0,1,.1.47,1.09,1.09,0,0,1-.15.58,1.21,1.21,0,0,1-.4.41,1.67,1.67,0,0,1-.56.24,3,3,0,0,1-.67.08A2.54,2.54,0,0,1,112.91,32.83Z"/><path class="cls-6" d="M116.73,32.83v-.77a2.12,2.12,0,0,0,1.3.43c.63,0,1-.21,1-.63a.49.49,0,0,0-.09-.3.68.68,0,0,0-.22-.23,1.91,1.91,0,0,0-.32-.17L118,31a5.46,5.46,0,0,1-.53-.24,1.61,1.61,0,0,1-.38-.27,1,1,0,0,1-.22-.35,1.06,1.06,0,0,1-.08-.45,1.13,1.13,0,0,1,.14-.56,1.38,1.38,0,0,1,.39-.41,2,2,0,0,1,.55-.25,2.74,2.74,0,0,1,.64-.08,2.69,2.69,0,0,1,1.05.2v.73a2,2,0,0,0-1.15-.32,1.37,1.37,0,0,0-.36,0,1,1,0,0,0-.28.13.57.57,0,0,0-.18.2.58.58,0,0,0-.06.26.62.62,0,0,0,.06.29.54.54,0,0,0,.19.21,1.07,1.07,0,0,0,.3.17,4.15,4.15,0,0,0,.4.16c.2.08.37.16.53.24a2.08,2.08,0,0,1,.41.27,1.07,1.07,0,0,1,.25.35,1.13,1.13,0,0,1,.09.47,1.18,1.18,0,0,1-.14.58,1.21,1.21,0,0,1-.4.41,1.67,1.67,0,0,1-.56.24,3,3,0,0,1-.68.08A2.53,2.53,0,0,1,116.73,32.83Z"/><path class="cls-6" d="M126.49,28.5,125.14,33h-.75l-.92-3.23a1.67,1.67,0,0,1-.07-.41h0a2.4,2.4,0,0,1-.09.41l-1,3.23h-.72l-1.36-4.5H121l.93,3.38a2.7,2.7,0,0,1,.07.4h0a2.27,2.27,0,0,1,.08-.41l1-3.37h.66l.93,3.39a2,2,0,0,1,.06.4h0a1.68,1.68,0,0,1,.07-.4l.92-3.39Z"/><path class="cls-6" d="M129.21,33.1a2.1,2.1,0,0,1-1.6-.63A2.36,2.36,0,0,1,127,30.8a2.39,2.39,0,0,1,.62-1.77,2.2,2.2,0,0,1,1.67-.64,2,2,0,0,1,1.57.62,2.8,2.8,0,0,1,0,3.44A2.15,2.15,0,0,1,129.21,33.1Zm0-4.1a1.36,1.36,0,0,0-1.1.47,1.93,1.93,0,0,0-.4,1.3,1.83,1.83,0,0,0,.4,1.26,1.4,1.4,0,0,0,1.1.46,1.32,1.32,0,0,0,1.07-.45,2,2,0,0,0,.38-1.29,2,2,0,0,0-.38-1.3A1.32,1.32,0,0,0,129.26,29Z"/><path class="cls-6" d="M135,29.22a1,1,0,0,0-.55-.14.91.91,0,0,0-.77.43,2,2,0,0,0-.31,1.19V33h-.72V28.5h.72v.92h0a1.6,1.6,0,0,1,.47-.74,1.08,1.08,0,0,1,.7-.26,1.25,1.25,0,0,1,.44.06Z"/><path class="cls-6" d="M139.57,33h-.72v-.77h0a1.66,1.66,0,0,1-1.55.87,1.68,1.68,0,0,1-1.35-.6,2.49,2.49,0,0,1-.51-1.65,2.74,2.74,0,0,1,.56-1.79,1.86,1.86,0,0,1,1.5-.67,1.43,1.43,0,0,1,1.35.73h0V26.33h.72Zm-.72-2V30.3a1.31,1.31,0,0,0-.36-.93,1.34,1.34,0,0,0-2,.11,2.08,2.08,0,0,0-.38,1.34,1.91,1.91,0,0,0,.36,1.22,1.19,1.19,0,0,0,1,.45,1.22,1.22,0,0,0,1-.43A1.63,1.63,0,0,0,138.85,31Z"/><rect class="cls-5" x="75.52" y="53.58" width="87.18" height="1.75"/></g></svg>