<svg xmlns="http://www.w3.org/2000/svg" viewBox="0 0 204.71 66.15"><title>OJ104546516</title><line x1="62.13" y1="20.99" x2="163.68" y2="20.99" fill="none" stroke="#505050" stroke-miterlimit="10"/><path d="M69.66,9.34H63.58c-.23,0-.38.15-.38.46V12a.35.35,0,0,0,.38.37H67v3.39c0,.23.15.38.45.38h2.18a.35.35,0,0,0,.37-.38v-6A.35.35,0,0,0,69.66,9.34Zm-17.19,21H49V27c0-.22-.15-.37-.45-.37H46.4A.35.35,0,0,0,46,27v6a.36.36,0,0,0,.38.39h6.07c.23,0,.38-.15.38-.46V30.72A.36.36,0,0,0,52.47,30.34Zm13.58-3.69a.9.9,0,0,0-.45.08l-2.32-4.07a2.77,2.77,0,0,0-1.88-4.81,3,3,0,0,0-1.12.22L57.8,14.61a2,2,0,0,0,.53-1.5A2.33,2.33,0,1,0,56,15.44a2.38,2.38,0,0,0,.75-.15l2.48,3.54a2.82,2.82,0,0,0-.68,1.43l-7.2.6a1.78,1.78,0,0,0-1.65-1,1.88,1.88,0,0,0,0,3.76,1.92,1.92,0,0,0,1.87-1.58l7.06-.6a3.74,3.74,0,0,0,.67,1.2L57.5,25.6h-.22a1.88,1.88,0,1,0,1.87,1.88,2.13,2.13,0,0,0-.52-1.35l1.72-2.86a4,4,0,0,0,1,.15,3.38,3.38,0,0,0,.82-.15l2.33,4.06a2.34,2.34,0,0,0-.68,1.58,2.18,2.18,0,1,0,2.25-2.26Z" fill="#007efd"/><g style="isolation:isolate"><path d="M44.05,45.87h-.82l-.67-1.77H39.89l-.63,1.77h-.82l2.41-6.3h.77Zm-1.73-2.43-1-2.69c0-.09-.06-.23-.1-.42h0a2.07,2.07,0,0,1-.11.42l-1,2.69Z" fill="#007efd"/><path d="M45.61,45.22h0v2.72h-.72V41.37h.72v.79h0a1.72,1.72,0,0,1,1.56-.9,1.64,1.64,0,0,1,1.36.61A2.51,2.51,0,0,1,49,43.48a2.81,2.81,0,0,1-.55,1.81A1.82,1.82,0,0,1,47,46,1.52,1.52,0,0,1,45.61,45.22Zm0-1.82V44A1.36,1.36,0,0,0,46,45a1.29,1.29,0,0,0,1.95-.12,2.32,2.32,0,0,0,.37-1.39,1.84,1.84,0,0,0-.35-1.18,1.15,1.15,0,0,0-.94-.42,1.24,1.24,0,0,0-1,.44A1.56,1.56,0,0,0,45.6,43.4Z" fill="#007efd"/><path d="M50.91,45.22h0v2.72h-.72V41.37h.72v.79h0a1.69,1.69,0,0,1,1.55-.9,1.64,1.64,0,0,1,1.36.61,2.51,2.51,0,0,1,.49,1.61,2.81,2.81,0,0,1-.55,1.81,1.82,1.82,0,0,1-1.51.68A1.49,1.49,0,0,1,50.91,45.22Zm0-1.82V44a1.36,1.36,0,0,0,.36.95,1.29,1.29,0,0,0,2-.12,2.32,2.32,0,0,0,.37-1.39,1.84,1.84,0,0,0-.35-1.18,1.15,1.15,0,0,0-.94-.42,1.24,1.24,0,0,0-1,.44A1.61,1.61,0,0,0,50.89,43.4Z" fill="#007efd"/><path d="M57.65,45.7v-.77a2.15,2.15,0,0,0,1.3.44c.63,0,.95-.22.95-.64a.49.49,0,0,0-.09-.3.63.63,0,0,0-.21-.22,1.74,1.74,0,0,0-.33-.18l-.4-.16a5.46,5.46,0,0,1-.53-.24,1.54,1.54,0,0,1-.37-.27.93.93,0,0,1-.23-.34,1.3,1.3,0,0,1-.08-.46A1.13,1.13,0,0,1,57.8,42a1.38,1.38,0,0,1,.39-.41,1.7,1.7,0,0,1,.55-.24,2.3,2.3,0,0,1,.64-.09,2.69,2.69,0,0,1,1,.2v.73a2.08,2.08,0,0,0-1.14-.32,1.4,1.4,0,0,0-.37,0,1,1,0,0,0-.28.13.67.67,0,0,0-.18.2.58.58,0,0,0-.06.26.6.6,0,0,0,.06.29.77.77,0,0,0,.19.22,1.39,1.39,0,0,0,.3.16l.4.17a3.82,3.82,0,0,1,.53.23,1.82,1.82,0,0,1,.41.27,1.07,1.07,0,0,1,.25.35,1.13,1.13,0,0,1,.09.47,1.06,1.06,0,0,1-.14.58,1.21,1.21,0,0,1-.4.41,1.67,1.67,0,0,1-.56.24,2.85,2.85,0,0,1-1.88-.19Z" fill="#007efd"/><path d="M65.36,43.8H62.18A1.66,1.66,0,0,0,62.59,45a1.39,1.39,0,0,0,1.06.41,2.2,2.2,0,0,0,1.4-.51v.68a2.61,2.61,0,0,1-1.57.43,1.89,1.89,0,0,1-1.5-.61,2.53,2.53,0,0,1-.55-1.73,2.44,2.44,0,0,1,.6-1.71,1.92,1.92,0,0,1,1.48-.66,1.71,1.71,0,0,1,1.37.57,2.4,2.4,0,0,1,.48,1.59Zm-.74-.61a1.47,1.47,0,0,0-.3-1,1,1,0,0,0-.82-.34,1.19,1.19,0,0,0-.87.36,1.68,1.68,0,0,0-.44,1Z" fill="#007efd"/><path d="M70.18,45.87h-.72V43.3c0-.95-.35-1.43-1-1.43a1.15,1.15,0,0,0-.9.4,1.57,1.57,0,0,0-.35,1v2.57h-.72v-4.5h.72v.74h0a1.63,1.63,0,0,1,1.47-.85,1.36,1.36,0,0,1,1.13.48,2.14,2.14,0,0,1,.39,1.38Z" fill="#007efd"/><path d="M74.68,41.57,72,45.25h2.63v.62H71v-.23L73.62,42H71.21v-.61h3.47Z" fill="#007efd"/><path d="M78.83,45.87h-.72v-.71h0a1.64,1.64,0,0,1-2.43.46,1.23,1.23,0,0,1-.38-.95c0-.84.49-1.33,1.48-1.47L78.11,43c0-.77-.31-1.15-.93-1.15a2.18,2.18,0,0,0-1.46.55v-.74a2.79,2.79,0,0,1,1.53-.42c1,0,1.58.56,1.58,1.68Zm-.72-2.28L77,43.74a1.78,1.78,0,0,0-.76.25.72.72,0,0,0-.25.63.68.68,0,0,0,.23.54.92.92,0,0,0,.63.21,1.16,1.16,0,0,0,.88-.38,1.31,1.31,0,0,0,.35-1Z" fill="#007efd"/><path d="M44.44,56h0v.65H43.7V50h.73v3h0a1.72,1.72,0,0,1,1.56-.9,1.61,1.61,0,0,1,1.35.61,2.46,2.46,0,0,1,.49,1.61,2.75,2.75,0,0,1-.55,1.81,1.79,1.79,0,0,1-1.5.68A1.49,1.49,0,0,1,44.44,56Zm0-1.82v.63a1.36,1.36,0,0,0,.36,1,1.2,1.2,0,0,0,.92.39,1.18,1.18,0,0,0,1-.51,2.25,2.25,0,0,0,.38-1.39,1.84,1.84,0,0,0-.35-1.18,1.16,1.16,0,0,0-.94-.42,1.24,1.24,0,0,0-1,.44A1.56,1.56,0,0,0,44.43,54.2Z" fill="#007efd"/><path d="M51.34,52.9a.85.85,0,0,0-.54-.15.91.91,0,0,0-.77.44,2,2,0,0,0-.31,1.18v2.3H49v-4.5h.72v.92h0a1.69,1.69,0,0,1,.47-.74,1.13,1.13,0,0,1,.71-.26,1.19,1.19,0,0,1,.43.06Z" fill="#007efd"/><path d="M54,56.77a2.1,2.1,0,0,1-1.6-.63,2.36,2.36,0,0,1-.59-1.67,2.39,2.39,0,0,1,.62-1.77,2.2,2.2,0,0,1,1.67-.64,2,2,0,0,1,1.57.62,2.8,2.8,0,0,1,0,3.44A2.11,2.11,0,0,1,54,56.77Zm.05-4.1a1.36,1.36,0,0,0-1.1.47,1.93,1.93,0,0,0-.4,1.3A1.82,1.82,0,0,0,53,55.7a1.41,1.41,0,0,0,1.1.47,1.3,1.3,0,0,0,1.07-.46,2,2,0,0,0,.38-1.28,2,2,0,0,0-.38-1.31A1.32,1.32,0,0,0,54.06,52.67Z" fill="#007efd"/><path d="M63.07,52.17l-1.35,4.5H61L60,53.45A2.63,2.63,0,0,1,60,53h0a1.82,1.82,0,0,1-.1.41l-1,3.23h-.72l-1.37-4.5h.76l.93,3.38a1.89,1.89,0,0,1,.06.4h0a1.73,1.73,0,0,1,.08-.41l1-3.37h.66l.94,3.39a3.13,3.13,0,0,1,.06.4h0a1.68,1.68,0,0,1,.07-.4l.91-3.39Z" fill="#007efd"/><path d="M63.63,56.5v-.77a2.13,2.13,0,0,0,1.3.44c.63,0,.95-.22.95-.64a.49.49,0,0,0-.09-.3.58.58,0,0,0-.22-.22,1.4,1.4,0,0,0-.32-.18l-.4-.16a5.46,5.46,0,0,1-.53-.24,1.61,1.61,0,0,1-.38-.27,1,1,0,0,1-.22-.34,1.11,1.11,0,0,1-.08-.46,1.13,1.13,0,0,1,.14-.56,1.38,1.38,0,0,1,.39-.41,1.7,1.7,0,0,1,.55-.24,2.3,2.3,0,0,1,.64-.09,2.69,2.69,0,0,1,1,.2V53a2.11,2.11,0,0,0-1.15-.32,1.37,1.37,0,0,0-.36,0,1,1,0,0,0-.28.13.67.67,0,0,0-.18.2.58.58,0,0,0-.06.26.6.6,0,0,0,.06.29.64.64,0,0,0,.19.22,1.39,1.39,0,0,0,.3.16l.4.17a5.27,5.27,0,0,1,.53.23,2.08,2.08,0,0,1,.41.27,1.07,1.07,0,0,1,.25.35,1.13,1.13,0,0,1,.09.47,1.16,1.16,0,0,1-.14.58,1.21,1.21,0,0,1-.4.41,1.67,1.67,0,0,1-.56.24,2.85,2.85,0,0,1-1.88-.19Z" fill="#007efd"/><path d="M71.34,54.6H68.16a1.73,1.73,0,0,0,.4,1.16,1.42,1.42,0,0,0,1.07.41,2.22,2.22,0,0,0,1.4-.51v.68a2.61,2.61,0,0,1-1.57.43,1.89,1.89,0,0,1-1.5-.61,2.48,2.48,0,0,1-.55-1.73,2.44,2.44,0,0,1,.6-1.71,1.92,1.92,0,0,1,1.48-.66,1.68,1.68,0,0,1,1.36.57,2.35,2.35,0,0,1,.49,1.59ZM70.6,54a1.47,1.47,0,0,0-.3-1,1,1,0,0,0-.83-.34,1.16,1.16,0,0,0-.86.36,1.62,1.62,0,0,0-.44,1Z" fill="#007efd"/><path d="M74.77,52.9a.83.83,0,0,0-.54-.15.91.91,0,0,0-.77.44,2,2,0,0,0-.31,1.18v2.3h-.72v-4.5h.72v.92h0a1.53,1.53,0,0,1,.47-.74,1.08,1.08,0,0,1,.7-.26,1.19,1.19,0,0,1,.43.06Z" fill="#007efd"/></g><path d="M7.85,13.61a4.49,4.49,0,0,0-3,5.66c.66,2.56,3,4.22,5.27,3.67a4.5,4.5,0,0,0,3-5.67C12.57,14.61,10.16,12.94,7.85,13.61Z" fill="#008bfd"/><path d="M12.79,23.63c-.44,0-.88.78-1.54,1.11s-1.32.89-3.18,0S6,23.08,4.44,23.08.38,25.85.38,30H16a12.14,12.14,0,0,0-1.1-4.22C13.77,23.63,13.23,23.63,12.79,23.63Z" fill="#008bfd"/><path d="M14.19,18.69H10.07a.71.71,0,0,0-.65.66V22.2a.73.73,0,0,0,.76.66h.76V28a1,1,0,0,0,1,1.1,1,1,0,0,0,1-1h.21v-.65c0-.22.33-.33.33-.33V26.8c-.33-.11-.54-.33-.54-.44V26l.21-.22a3.55,3.55,0,0,0,.33-.54,2.4,2.4,0,0,1-.33-.55c-.1-.11-.1-.33-.21-.44v-.22a2.51,2.51,0,0,1,.76-1.1h.54a.7.7,0,0,0,.65-.65v-3A.63.63,0,0,0,14.19,18.69ZM11.8,28.22c0,.22,0,.33-.21.33s-.22-.22-.22-.33V23.4c0-.22.11-.33.22-.33s.21.22.21.33Zm.33-7.78a.69.69,0,0,1-.65-.65.7.7,0,0,1,.65-.66.71.71,0,0,1,.65.66A.62.62,0,0,1,12.13,20.44Z" fill="#008bfd" stroke="gray" stroke-linecap="round" stroke-linejoin="round" stroke-width="0.75"/><path d="M11.57,28.53a.24.24,0,0,1-.22-.22v-5a.22.22,0,1,1,.44,0v5.11C11.79,28.53,11.68,28.53,11.57,28.53Z" fill="#fff"/><ellipse cx="12.14" cy="19.77" rx="0.66" ry="0.67" fill="#fff"/><path d="M191.76,8.21h-20.5a1.09,1.09,0,0,0-1.09,1.1V26.05a1.1,1.1,0,0,0,1.09,1.11h5.28a3.29,3.29,0,0,0,3.21,2.27,3.38,3.38,0,0,0,0-6.75A3.29,3.29,0,0,0,176.54,25h-4.19V13h18.31V25h-3.45a7.61,7.61,0,0,0-7.46-6.56,8.25,8.25,0,0,0-3.64.92l1,2a5.27,5.27,0,0,1,2.55-.67,5.46,5.46,0,0,1,0,10.91,5.27,5.27,0,0,1-2.55-.67l-1,2a7.51,7.51,0,0,0,3.64.92,7.61,7.61,0,0,0,7.46-6.56h4.55a1.1,1.1,0,0,0,1.09-1.11V9.31A1.14,1.14,0,0,0,191.76,8.21Z" fill="#008bfd"/><g style="isolation:isolate"><path d="M170,46.72h-.82L168.51,45h-2.68l-.62,1.77h-.83l2.42-6.31h.77Zm-1.73-2.43-1-2.69a1.84,1.84,0,0,1-.1-.42h0a2.17,2.17,0,0,1-.1.42l-1,2.69Z" fill="#008bfd"/><path d="M171.56,46.07h0v2.72h-.72V42.22h.72V43h0a1.71,1.71,0,0,1,1.56-.9,1.61,1.61,0,0,1,1.35.61,2.46,2.46,0,0,1,.49,1.61,2.75,2.75,0,0,1-.55,1.81,1.79,1.79,0,0,1-1.5.68A1.52,1.52,0,0,1,171.56,46.07Zm0-1.82v.63a1.32,1.32,0,0,0,.37.95,1.19,1.19,0,0,0,.92.39,1.2,1.2,0,0,0,1-.51,2.25,2.25,0,0,0,.37-1.39,1.84,1.84,0,0,0-.34-1.18,1.16,1.16,0,0,0-.94-.42,1.27,1.27,0,0,0-1,.43A1.61,1.61,0,0,0,171.54,44.25Z" fill="#008bfd"/><path d="M176.85,46.07h0v2.72h-.72V42.22h.72V43h0a1.71,1.71,0,0,1,1.56-.9,1.64,1.64,0,0,1,1.36.61,2.51,2.51,0,0,1,.48,1.61,2.75,2.75,0,0,1-.55,1.81,1.79,1.79,0,0,1-1.5.68A1.52,1.52,0,0,1,176.85,46.07Zm0-1.82v.63a1.36,1.36,0,0,0,.37.95,1.2,1.2,0,0,0,.92.39,1.19,1.19,0,0,0,1-.51,2.25,2.25,0,0,0,.37-1.39,1.84,1.84,0,0,0-.34-1.18,1.16,1.16,0,0,0-.94-.42,1.27,1.27,0,0,0-1,.43A1.61,1.61,0,0,0,176.83,44.25Z" fill="#008bfd"/><path d="M184.61,46.07h0v2.72h-.72V42.22h.72V43h0a1.69,1.69,0,0,1,1.55-.9,1.63,1.63,0,0,1,1.36.61,2.46,2.46,0,0,1,.49,1.61,2.75,2.75,0,0,1-.55,1.81,1.82,1.82,0,0,1-1.5.68A1.49,1.49,0,0,1,184.61,46.07Zm0-1.82v.63a1.36,1.36,0,0,0,.36.95,1.29,1.29,0,0,0,2-.12,2.25,2.25,0,0,0,.37-1.39,1.79,1.79,0,0,0-.35-1.18,1.15,1.15,0,0,0-.94-.42,1.28,1.28,0,0,0-1,.43A1.65,1.65,0,0,0,184.59,44.25Z" fill="#008bfd"/><path d="M192.78,44.65H189.6a1.73,1.73,0,0,0,.4,1.16,1.42,1.42,0,0,0,1.07.41,2.2,2.2,0,0,0,1.4-.51v.68a2.61,2.61,0,0,1-1.57.43,1.89,1.89,0,0,1-1.5-.61,2.53,2.53,0,0,1-.55-1.73,2.44,2.44,0,0,1,.6-1.71,1.92,1.92,0,0,1,1.48-.66,1.68,1.68,0,0,1,1.36.57,2.35,2.35,0,0,1,.49,1.59ZM192,44a1.47,1.47,0,0,0-.3-1,1,1,0,0,0-.83-.34,1.16,1.16,0,0,0-.86.36,1.68,1.68,0,0,0-.44,1Z" fill="#008bfd"/><path d="M196.21,43a.83.83,0,0,0-.54-.15.91.91,0,0,0-.77.44,2,2,0,0,0-.31,1.18v2.3h-.72v-4.5h.72v.92h0a1.6,1.6,0,0,1,.47-.74,1.08,1.08,0,0,1,.7-.26,1.19,1.19,0,0,1,.43.06Z" fill="#008bfd"/><path d="M171.66,57.52h-.72V50.85h.72Z" fill="#008bfd"/><path d="M176.74,55.45h-3.18a1.68,1.68,0,0,0,.41,1.16A1.39,1.39,0,0,0,175,57a2.2,2.2,0,0,0,1.4-.51v.68a2.61,2.61,0,0,1-1.57.43,1.89,1.89,0,0,1-1.5-.61,2.54,2.54,0,0,1-.54-1.73,2.44,2.44,0,0,1,.59-1.71,1.92,1.92,0,0,1,1.48-.66,1.71,1.71,0,0,1,1.37.57,2.4,2.4,0,0,1,.48,1.59Zm-.74-.61a1.47,1.47,0,0,0-.3-1,1,1,0,0,0-.82-.34,1.19,1.19,0,0,0-.87.36,1.68,1.68,0,0,0-.44,1Z" fill="#008bfd"/><path d="M185.27,57.52h-.82l-.67-1.77h-2.67l-.63,1.77h-.82l2.42-6.31h.76Zm-1.73-2.43-1-2.69a2.85,2.85,0,0,1-.09-.42h0a2.17,2.17,0,0,1-.1.42l-1,2.69Z" fill="#008bfd"/><path d="M186.94,55.13v2.39h-.74V51.21h1.73a2.31,2.31,0,0,1,1.57.5,1.74,1.74,0,0,1,.55,1.39,1.91,1.91,0,0,1-.62,1.46,2.34,2.34,0,0,1-1.66.57Zm0-3.25v2.59h.77a1.76,1.76,0,0,0,1.17-.35,1.27,1.27,0,0,0,.4-1c0-.83-.49-1.25-1.48-1.25Z" fill="#008bfd"/><path d="M192,57.52h-.74V51.21H192Z" fill="#008bfd"/></g><path d="M161.69,17l8.05,4-8,4a9,9,0,0,0,0-8" fill="#505050"/><rect x="73.89" y="0.37" width="90.38" height="20" fill="none"/><g style="isolation:isolate"><path d="M87.88,2.36H85.42V4.54H87.7v.67H85.42V8h-.74V1.7h3.2Z" fill="#00b0f0"/><path d="M89.92,8H89.2V1.34h.72Z" fill="#00b0f0"/><path d="M95.25,8h-.72V7.29h0a1.48,1.48,0,0,1-1.39.81c-1.07,0-1.61-.64-1.61-1.91V3.5h.72V6.07c0,.95.36,1.43,1.09,1.43a1.11,1.11,0,0,0,.87-.39,1.53,1.53,0,0,0,.34-1V3.5h.72Z" fill="#00b0f0"/><path d="M96.65,7.84V7.06A2.17,2.17,0,0,0,98,7.5c.63,0,1-.21,1-.64a.56.56,0,0,0-.08-.3.92.92,0,0,0-.22-.22,1.29,1.29,0,0,0-.33-.18L97.87,6a5.2,5.2,0,0,1-.52-.24A1.61,1.61,0,0,1,97,5.49a1,1,0,0,1-.23-.34,1.26,1.26,0,0,1-.08-.46,1.07,1.07,0,0,1,.15-.56,1.24,1.24,0,0,1,.38-.41,1.76,1.76,0,0,1,.56-.24,2.25,2.25,0,0,1,.64-.09,2.64,2.64,0,0,1,1,.2v.73A2.08,2.08,0,0,0,98.29,4a1.07,1.07,0,0,0-.37,0,1,1,0,0,0-.27.12.76.76,0,0,0-.19.21.51.51,0,0,0-.06.25.67.67,0,0,0,.06.3.76.76,0,0,0,.19.21,1.39,1.39,0,0,0,.3.16l.4.17a4.61,4.61,0,0,1,.54.23,2,2,0,0,1,.4.27,1.23,1.23,0,0,1,.26.35,1.16,1.16,0,0,1,.09.47,1.06,1.06,0,0,1-.15.58,1.27,1.27,0,0,1-.39.41,1.81,1.81,0,0,1-.57.24,2.46,2.46,0,0,1-.67.08A2.7,2.7,0,0,1,96.65,7.84Z" fill="#00b0f0"/><path d="M100.7,7.84V7.06A2.12,2.12,0,0,0,102,7.5c.64,0,1-.21,1-.64a.48.48,0,0,0-.08-.3.66.66,0,0,0-.22-.22,1.4,1.4,0,0,0-.32-.18l-.4-.16a5.46,5.46,0,0,1-.53-.24,1.61,1.61,0,0,1-.38-.27,1,1,0,0,1-.23-.34,1.27,1.27,0,0,1-.07-.46,1.16,1.16,0,0,1,.14-.56,1.38,1.38,0,0,1,.39-.41,1.61,1.61,0,0,1,.55-.24,2.3,2.3,0,0,1,.64-.09,2.69,2.69,0,0,1,1,.2v.73A2.14,2.14,0,0,0,102.33,4a1,1,0,0,0-.36,0,1,1,0,0,0-.28.12.6.6,0,0,0-.18.21.51.51,0,0,0-.06.25.67.67,0,0,0,.06.3.54.54,0,0,0,.19.21,1.57,1.57,0,0,0,.29.16l.4.17a4.61,4.61,0,0,1,.54.23,1.75,1.75,0,0,1,.4.27,1.06,1.06,0,0,1,.26.35,1.27,1.27,0,0,1,0,1,1.21,1.21,0,0,1-.4.41,1.63,1.63,0,0,1-.57.24,2.41,2.41,0,0,1-.67.08A2.65,2.65,0,0,1,100.7,7.84Z" fill="#00b0f0"/><path d="M106.9,8.1a2.1,2.1,0,0,1-1.6-.63,2.35,2.35,0,0,1-.59-1.67A2.42,2.42,0,0,1,105.33,4,2.24,2.24,0,0,1,107,3.39a2,2,0,0,1,1.57.62,2.46,2.46,0,0,1,.57,1.72,2.47,2.47,0,0,1-.61,1.73A2.14,2.14,0,0,1,106.9,8.1ZM107,4a1.39,1.39,0,0,0-1.1.47,1.94,1.94,0,0,0-.4,1.3,1.86,1.86,0,0,0,.4,1.27,1.43,1.43,0,0,0,1.1.46A1.32,1.32,0,0,0,108,7.05a2,2,0,0,0,.38-1.29,2,2,0,0,0-.38-1.3A1.3,1.3,0,0,0,107,4Z" fill="#00b0f0"/><path d="M117,8h-.72V7.23h0a1.67,1.67,0,0,1-1.55.87,1.69,1.69,0,0,1-1.36-.6,2.52,2.52,0,0,1-.5-1.65,2.68,2.68,0,0,1,.56-1.79,1.87,1.87,0,0,1,1.5-.67,1.45,1.45,0,0,1,1.35.73h0V1.34H117Zm-.72-2V5.3a1.28,1.28,0,0,0-.36-.92,1.21,1.21,0,0,0-.91-.38,1.25,1.25,0,0,0-1,.48,2.14,2.14,0,0,0-.38,1.34A1.92,1.92,0,0,0,114,7.05a1.17,1.17,0,0,0,1,.45,1.24,1.24,0,0,0,1-.44A1.61,1.61,0,0,0,116.32,6Z" fill="#00b0f0"/><path d="M119.1,2.36a.45.45,0,0,1-.33-.14.44.44,0,0,1-.14-.33.46.46,0,0,1,.14-.34.48.48,0,0,1,.66,0,.42.42,0,0,1,.14.34.42.42,0,0,1-.14.33A.45.45,0,0,1,119.1,2.36ZM119.45,8h-.72V3.5h.72Z" fill="#00b0f0"/><path d="M126.89,7.79a2.34,2.34,0,0,1-1.23.31,2,2,0,0,1-1.55-.62,2.25,2.25,0,0,1-.59-1.63,2.5,2.5,0,0,1,.63-1.78,2.24,2.24,0,0,1,1.7-.68,2.46,2.46,0,0,1,1.05.22v.74A1.85,1.85,0,0,0,125.83,4a1.43,1.43,0,0,0-1.13.49,1.87,1.87,0,0,0-.45,1.3A1.77,1.77,0,0,0,124.67,7a1.45,1.45,0,0,0,1.11.46,1.81,1.81,0,0,0,1.11-.39Z" fill="#00b0f0"/><path d="M130.09,8.1a2.1,2.1,0,0,1-1.6-.63,2.35,2.35,0,0,1-.59-1.67A2.42,2.42,0,0,1,128.52,4a2.24,2.24,0,0,1,1.67-.64,2,2,0,0,1,1.57.62,2.46,2.46,0,0,1,.57,1.72,2.42,2.42,0,0,1-.61,1.73A2.14,2.14,0,0,1,130.09,8.1Zm0-4.1a1.39,1.39,0,0,0-1.1.47,1.94,1.94,0,0,0-.4,1.3A1.86,1.86,0,0,0,129,7a1.43,1.43,0,0,0,1.1.46,1.31,1.31,0,0,0,1.07-.45,2,2,0,0,0,.38-1.29,2,2,0,0,0-.38-1.3A1.28,1.28,0,0,0,130.14,4Z" fill="#00b0f0"/><path d="M137.54,8h-.72V7.23h0a1.67,1.67,0,0,1-1.55.87,1.69,1.69,0,0,1-1.36-.6,2.52,2.52,0,0,1-.5-1.65A2.68,2.68,0,0,1,134,4.06a1.87,1.87,0,0,1,1.5-.67,1.45,1.45,0,0,1,1.35.73h0V1.34h.72Zm-.72-2V5.3a1.28,1.28,0,0,0-.36-.92,1.21,1.21,0,0,0-.91-.38,1.25,1.25,0,0,0-1,.48,2.14,2.14,0,0,0-.38,1.34,1.92,1.92,0,0,0,.37,1.23,1.17,1.17,0,0,0,1,.45,1.24,1.24,0,0,0,1-.44A1.61,1.61,0,0,0,136.82,6Z" fill="#00b0f0"/><path d="M139.6,2.36a.45.45,0,0,1-.33-.14.44.44,0,0,1-.14-.33.46.46,0,0,1,.14-.34.48.48,0,0,1,.66,0,.42.42,0,0,1,.14.34.42.42,0,0,1-.14.33A.45.45,0,0,1,139.6,2.36ZM140,8h-.72V3.5H140Z" fill="#00b0f0"/><path d="M144.7,7.79a2.29,2.29,0,0,1-1.23.31,2,2,0,0,1-1.55-.62,2.25,2.25,0,0,1-.59-1.63A2.5,2.5,0,0,1,142,4.07a2.25,2.25,0,0,1,1.7-.68,2.46,2.46,0,0,1,1.05.22v.74A1.85,1.85,0,0,0,143.64,4a1.43,1.43,0,0,0-1.13.49,1.87,1.87,0,0,0-.45,1.3A1.77,1.77,0,0,0,142.48,7a1.45,1.45,0,0,0,1.11.46,1.79,1.79,0,0,0,1.11-.39Z" fill="#00b0f0"/><path d="M149.63,5.93h-3.17a1.66,1.66,0,0,0,.4,1.16,1.4,1.4,0,0,0,1.06.41,2.22,2.22,0,0,0,1.4-.5v.67a2.61,2.61,0,0,1-1.57.43,1.92,1.92,0,0,1-1.5-.61,2.52,2.52,0,0,1-.54-1.72,2.53,2.53,0,0,1,.59-1.72,1.92,1.92,0,0,1,1.48-.66,1.7,1.7,0,0,1,1.37.57,2.4,2.4,0,0,1,.48,1.59Zm-.74-.61a1.43,1.43,0,0,0-.3-1,1,1,0,0,0-.82-.35,1.19,1.19,0,0,0-.87.36,1.75,1.75,0,0,0-.44,1Z" fill="#00b0f0"/><path d="M91.26,17h-.72v-.77h0a1.82,1.82,0,0,1-2.9.27,2.47,2.47,0,0,1-.51-1.65,2.68,2.68,0,0,1,.56-1.79,1.87,1.87,0,0,1,1.5-.67,1.45,1.45,0,0,1,1.35.73h0V10.34h.72Zm-.72-2V14.3a1.25,1.25,0,0,0-.37-.92,1.21,1.21,0,0,0-.91-.38,1.26,1.26,0,0,0-1,.48,2.13,2.13,0,0,0-.37,1.34,1.92,1.92,0,0,0,.36,1.23,1.17,1.17,0,0,0,1,.45,1.24,1.24,0,0,0,1-.44A1.62,1.62,0,0,0,90.54,15Z" fill="#00b0f0"/><path d="M96.56,14.93H93.38a1.71,1.71,0,0,0,.4,1.16,1.42,1.42,0,0,0,1.07.41,2.22,2.22,0,0,0,1.39-.5v.67a2.55,2.55,0,0,1-1.56.43,1.89,1.89,0,0,1-1.5-.61,2.47,2.47,0,0,1-.55-1.72,2.49,2.49,0,0,1,.6-1.72,1.9,1.9,0,0,1,1.48-.66,1.68,1.68,0,0,1,1.36.57,2.35,2.35,0,0,1,.49,1.59Zm-.74-.61a1.43,1.43,0,0,0-.3-1,1.05,1.05,0,0,0-.83-.35,1.15,1.15,0,0,0-.86.36,1.62,1.62,0,0,0-.44,1Z" fill="#00b0f0"/><path d="M98.59,17h-.72V10.34h.72Z" fill="#00b0f0"/><path d="M106.81,17h-.72v-.77h0a1.82,1.82,0,0,1-2.9.27,2.47,2.47,0,0,1-.51-1.65,2.74,2.74,0,0,1,.56-1.79,1.89,1.89,0,0,1,1.5-.67,1.45,1.45,0,0,1,1.35.73h0V10.34h.72Zm-.72-2V14.3a1.28,1.28,0,0,0-.36-.92,1.33,1.33,0,0,0-2,.1,2.08,2.08,0,0,0-.38,1.34,1.92,1.92,0,0,0,.36,1.23,1.19,1.19,0,0,0,1,.45,1.24,1.24,0,0,0,1-.44A1.62,1.62,0,0,0,106.09,15Z" fill="#00b0f0"/><path d="M108.86,11.36a.45.45,0,0,1-.33-.14.44.44,0,0,1-.14-.33.46.46,0,0,1,.14-.34.44.44,0,0,1,.33-.13.48.48,0,0,1,.34.13.45.45,0,0,1,.13.34.44.44,0,0,1-.13.33A.49.49,0,0,1,108.86,11.36Zm.35,5.64h-.72V12.5h.72Z" fill="#00b0f0"/><path d="M110.62,16.84v-.78a2.17,2.17,0,0,0,1.3.44c.63,0,1-.21,1-.64a.56.56,0,0,0-.08-.3.92.92,0,0,0-.22-.22,1.29,1.29,0,0,0-.33-.18l-.4-.16a5.2,5.2,0,0,1-.52-.24,1.61,1.61,0,0,1-.38-.27,1,1,0,0,1-.23-.34,1.26,1.26,0,0,1-.08-.46,1.07,1.07,0,0,1,.15-.56,1.24,1.24,0,0,1,.38-.41,1.76,1.76,0,0,1,.56-.24,2.25,2.25,0,0,1,.64-.09,2.64,2.64,0,0,1,1,.2v.73a2.08,2.08,0,0,0-1.14-.32,1.07,1.07,0,0,0-.37.05,1,1,0,0,0-.27.12.76.76,0,0,0-.19.21.51.51,0,0,0-.06.25.67.67,0,0,0,.06.3.76.76,0,0,0,.19.21,1.39,1.39,0,0,0,.3.16l.4.17a4.61,4.61,0,0,1,.54.23,2,2,0,0,1,.4.27,1.23,1.23,0,0,1,.26.35,1.16,1.16,0,0,1,.09.47,1.06,1.06,0,0,1-.15.58,1.27,1.27,0,0,1-.39.41,1.81,1.81,0,0,1-.57.24,2.46,2.46,0,0,1-.67.08A2.7,2.7,0,0,1,110.62,16.84Z" fill="#00b0f0"/><path d="M115.68,16.35h0v2.72h-.72V12.5h.72v.79h0a1.69,1.69,0,0,1,1.55-.9,1.63,1.63,0,0,1,1.36.61,2.47,2.47,0,0,1,.49,1.62,2.74,2.74,0,0,1-.55,1.8,1.82,1.82,0,0,1-1.5.68A1.51,1.51,0,0,1,115.68,16.35Zm0-1.82v.63a1.36,1.36,0,0,0,.36.95,1.3,1.3,0,0,0,2-.11,2.31,2.31,0,0,0,.37-1.4,1.74,1.74,0,0,0-.35-1.17,1.13,1.13,0,0,0-.94-.43,1.26,1.26,0,0,0-1,.44A1.61,1.61,0,0,0,115.66,14.53Z" fill="#00b0f0"/><path d="M122.34,17.1a2.1,2.1,0,0,1-1.6-.63,2.35,2.35,0,0,1-.59-1.67,2.42,2.42,0,0,1,.62-1.77,2.24,2.24,0,0,1,1.67-.64A2,2,0,0,1,124,13a2.46,2.46,0,0,1,.57,1.72,2.42,2.42,0,0,1-.61,1.73A2.14,2.14,0,0,1,122.34,17.1Zm0-4.1a1.39,1.39,0,0,0-1.1.47,1.94,1.94,0,0,0-.4,1.3,1.86,1.86,0,0,0,.4,1.27,1.43,1.43,0,0,0,1.1.46,1.31,1.31,0,0,0,1.07-.45,2,2,0,0,0,.38-1.29,2,2,0,0,0-.38-1.3A1.28,1.28,0,0,0,122.39,13Z" fill="#00b0f0"/><path d="M125.68,16.84v-.78a2.15,2.15,0,0,0,1.3.44c.63,0,1-.21,1-.64a.56.56,0,0,0-.08-.3.92.92,0,0,0-.22-.22,1.48,1.48,0,0,0-.33-.18l-.4-.16a5.46,5.46,0,0,1-.53-.24,1.54,1.54,0,0,1-.37-.27.86.86,0,0,1-.23-.34,1.26,1.26,0,0,1-.08-.46,1.07,1.07,0,0,1,.15-.56,1.24,1.24,0,0,1,.38-.41,1.7,1.7,0,0,1,.55-.24,2.3,2.3,0,0,1,.64-.09,2.69,2.69,0,0,1,1.05.2v.73a2.08,2.08,0,0,0-1.14-.32,1.07,1.07,0,0,0-.37.05,1,1,0,0,0-.28.12.72.72,0,0,0-.18.21.51.51,0,0,0-.06.25.67.67,0,0,0,.06.3.76.76,0,0,0,.19.21,1.39,1.39,0,0,0,.3.16l.4.17a3.82,3.82,0,0,1,.53.23,1.82,1.82,0,0,1,.41.27,1.23,1.23,0,0,1,.26.35,1.16,1.16,0,0,1,.09.47,1.06,1.06,0,0,1-.15.58,1.27,1.27,0,0,1-.39.41,1.81,1.81,0,0,1-.57.24,2.51,2.51,0,0,1-.67.08A2.67,2.67,0,0,1,125.68,16.84Z" fill="#00b0f0"/><path d="M130.37,11.36a.45.45,0,0,1-.33-.14.44.44,0,0,1-.14-.33.46.46,0,0,1,.14-.34.48.48,0,0,1,.66,0,.42.42,0,0,1,.14.34.42.42,0,0,1-.14.33A.45.45,0,0,1,130.37,11.36Zm.35,5.64H130V12.5h.72Z" fill="#00b0f0"/><path d="M134.49,17a1.31,1.31,0,0,1-.67.14c-.79,0-1.18-.43-1.18-1.31V13.11h-.78V12.5h.78V11.4l.72-.23V12.5h1.13v.61h-1.13v2.54a1.09,1.09,0,0,0,.15.65.63.63,0,0,0,.51.19.75.75,0,0,0,.47-.15Z" fill="#00b0f0"/><path d="M136.05,11.36a.45.45,0,0,1-.33-.14.44.44,0,0,1-.14-.33.46.46,0,0,1,.14-.34.48.48,0,0,1,.66,0,.42.42,0,0,1,.14.34.42.42,0,0,1-.14.33A.45.45,0,0,1,136.05,11.36ZM136.4,17h-.72V12.5h.72Z" fill="#00b0f0"/><path d="M141.62,12.5,139.83,17h-.71l-1.71-4.5h.8l1.14,3.27a3.23,3.23,0,0,1,.16.63h0a3.23,3.23,0,0,1,.14-.61l1.2-3.29Z" fill="#00b0f0"/><path d="M144.5,17.1a2.06,2.06,0,0,1-1.59-.63,2.31,2.31,0,0,1-.6-1.67,2.46,2.46,0,0,1,.62-1.77,2.24,2.24,0,0,1,1.67-.64,2,2,0,0,1,1.58.62,2.51,2.51,0,0,1,.56,1.72,2.42,2.42,0,0,1-.61,1.73A2.12,2.12,0,0,1,144.5,17.1Zm.05-4.1a1.39,1.39,0,0,0-1.1.47,1.94,1.94,0,0,0-.4,1.3,1.86,1.86,0,0,0,.41,1.27,1.4,1.4,0,0,0,1.09.46,1.33,1.33,0,0,0,1.08-.45,2,2,0,0,0,.37-1.29,2,2,0,0,0-.37-1.3A1.3,1.3,0,0,0,144.55,13Z" fill="#00b0f0"/></g></svg>