<svg xmlns="http://www.w3.org/2000/svg" viewBox="0 0 204.71 66.15"><defs><style>.cls-1{fill:#007efd;}.cls-2,.cls-3{fill:#008bfd;}.cls-3{stroke:gray;stroke-linecap:round;stroke-linejoin:round;stroke-width:0.75px;}.cls-4{fill:#fff;}.cls-5{fill:#505050;}.cls-6{fill:#00b0f0;}</style></defs><title>OJ104546516</title><g id="shapes"><g id="group1195-2"><g id="shape1200-7"><path class="cls-1" d="M69.66,9.34H63.58c-.23,0-.38.15-.38.46V12a.35.35,0,0,0,.38.37H67v3.39c0,.23.15.38.45.38h2.18a.35.35,0,0,0,.37-.38v-6A.35.35,0,0,0,69.66,9.34Zm-17.19,21H49V27c0-.22-.15-.37-.45-.37H46.4A.35.35,0,0,0,46,27v6a.36.36,0,0,0,.38.38h6.07c.23,0,.38-.15.38-.45V30.72A.36.36,0,0,0,52.47,30.34Zm13.58-3.69a.9.9,0,0,0-.45.08l-2.32-4.07a2.77,2.77,0,0,0-1.88-4.81,3,3,0,0,0-1.12.22L57.8,14.61a2,2,0,0,0,.53-1.5A2.33,2.33,0,1,0,56,15.44a2.38,2.38,0,0,0,.75-.15l2.48,3.54a2.82,2.82,0,0,0-.68,1.43l-7.2.6a1.78,1.78,0,0,0-1.65-1,1.88,1.88,0,0,0,0,3.76,1.92,1.92,0,0,0,1.87-1.58l7.06-.6a3.74,3.74,0,0,0,.67,1.2L57.5,25.6h-.22a1.88,1.88,0,1,0,1.87,1.88,2.13,2.13,0,0,0-.52-1.35l1.72-2.86a4,4,0,0,0,1,.15,3.38,3.38,0,0,0,.82-.15l2.33,4.06a2.34,2.34,0,0,0-.68,1.58,2.18,2.18,0,1,0,2.25-2.26Z"/></g></g><g id="group1201-12"><g id="group1202-13"><g id="group1203-14"><g id="group1204-15"><g id="shape1205-16"><path class="cls-2" d="M7.85,13.61a4.49,4.49,0,0,0-3,5.66c.66,2.56,3,4.22,5.27,3.67a4.5,4.5,0,0,0,3-5.67C12.57,14.61,10.16,12.94,7.85,13.61Z"/></g></g><g id="group1206-18"><g id="shape1207-19"><path class="cls-2" d="M12.79,23.63c-.44,0-.88.78-1.54,1.11s-1.32.89-3.18,0S6,23.08,4.44,23.08.38,25.85.38,30H16a12.14,12.14,0,0,0-1.1-4.22C13.77,23.63,13.23,23.63,12.79,23.63Z"/></g></g></g></g><g id="group1208-21"><g id="shape1209-22"><path class="cls-3" d="M14.19,18.69H10.07a.71.71,0,0,0-.65.66V22.2a.73.73,0,0,0,.76.66h.76V28a1,1,0,0,0,1,1.1,1,1,0,0,0,1-1h.21v-.65c0-.22.33-.33.33-.33V26.8c-.33-.11-.54-.33-.54-.44V26l.21-.22a3.55,3.55,0,0,0,.33-.54,2.4,2.4,0,0,1-.33-.55c-.1-.11-.1-.33-.21-.44v-.22a2.51,2.51,0,0,1,.76-1.1h.54a.7.7,0,0,0,.65-.65v-3A.63.63,0,0,0,14.19,18.69ZM11.8,28.22c0,.22,0,.33-.21.33s-.22-.22-.22-.33V23.4c0-.22.11-.33.22-.33s.21.22.21.33Zm.33-7.78a.69.69,0,0,1-.65-.65.7.7,0,0,1,.65-.66.71.71,0,0,1,.65.66A.62.62,0,0,1,12.13,20.44Z"/></g><g id="shape1210-24"><path class="cls-4" d="M11.57,28.53a.24.24,0,0,1-.22-.22v-5a.22.22,0,1,1,.44,0v5.11C11.79,28.53,11.68,28.53,11.57,28.53Z"/></g><g id="shape1211-26"><ellipse class="cls-4" cx="12.14" cy="19.77" rx="0.66" ry="0.67"/></g></g></g><path class="cls-2" d="M191.76,8.21h-20.5a1.09,1.09,0,0,0-1.09,1.1V26.05a1.1,1.1,0,0,0,1.09,1.11h5.28a3.29,3.29,0,0,0,3.21,2.27,3.38,3.38,0,0,0,0-6.75A3.29,3.29,0,0,0,176.54,25h-4.19V13h18.31V25h-3.45a7.61,7.61,0,0,0-7.46-6.56,8.25,8.25,0,0,0-3.64.92l1,2a5.27,5.27,0,0,1,2.55-.67,5.46,5.46,0,0,1,0,10.91,5.27,5.27,0,0,1-2.55-.67l-1,2a7.51,7.51,0,0,0,3.64.92,7.61,7.61,0,0,0,7.46-6.56h4.55a1.1,1.1,0,0,0,1.09-1.11V9.31A1.14,1.14,0,0,0,191.76,8.21Z"/><g id="shape1213-31"><g id="lend5"><path class="cls-5" d="M161.69,17l8.05,4-8,4a9,9,0,0,0,0-8"/></g></g></g><g id="text"><path class="cls-6" d="M77.73,9.08H75.82v1.7h1.77v.52H75.82v2.17h-.58V8.56h2.49Z"/><path class="cls-6" d="M78.94,13.47h-.56V8.28h.56Z"/><path class="cls-6" d="M82.69,13.47h-.56v-.56h0a1.16,1.16,0,0,1-1.08.64c-.84,0-1.25-.5-1.25-1.49V10h.55v2c0,.74.29,1.11.85,1.11a.86.86,0,0,0,.68-.31,1.17,1.17,0,0,0,.26-.79V10h.56Z"/><path class="cls-6" d="M83.4,13.34v-.6a1.71,1.71,0,0,0,1,.34c.49,0,.74-.17.74-.5a.35.35,0,0,0-.07-.23.58.58,0,0,0-.17-.18,1.17,1.17,0,0,0-.25-.13l-.31-.13a4.14,4.14,0,0,1-.41-.18,1.44,1.44,0,0,1-.3-.21.87.87,0,0,1-.23-.62.8.8,0,0,1,.11-.44,1.14,1.14,0,0,1,.3-.32,1.52,1.52,0,0,1,.43-.19,2,2,0,0,1,1.31.09v.57a1.57,1.57,0,0,0-.89-.25,1.2,1.2,0,0,0-.28,0,.9.9,0,0,0-.22.1.52.52,0,0,0-.14.16.46.46,0,0,0,0,.2.52.52,0,0,0,0,.23.45.45,0,0,0,.15.16,1,1,0,0,0,.23.13l.31.13.42.18a1.41,1.41,0,0,1,.31.21.86.86,0,0,1,.2.27.87.87,0,0,1,.07.37.94.94,0,0,1-.11.45,1,1,0,0,1-.31.32,1.46,1.46,0,0,1-.44.19,2.24,2.24,0,0,1-.52.06A2,2,0,0,1,83.4,13.34Z"/><path class="cls-6" d="M86.16,13.34v-.6a1.71,1.71,0,0,0,1,.34c.49,0,.74-.17.74-.5a.35.35,0,0,0-.07-.23.58.58,0,0,0-.17-.18,1.17,1.17,0,0,0-.25-.13l-.31-.13a4.14,4.14,0,0,1-.41-.18,1.44,1.44,0,0,1-.3-.21.87.87,0,0,1-.23-.62.9.9,0,0,1,.11-.44,1.14,1.14,0,0,1,.3-.32A1.52,1.52,0,0,1,87,10a2,2,0,0,1,1.31.09v.57a1.57,1.57,0,0,0-.89-.25,1.2,1.2,0,0,0-.28,0,.9.9,0,0,0-.22.1.52.52,0,0,0-.14.16.46.46,0,0,0-.05.2.52.52,0,0,0,.05.23.45.45,0,0,0,.15.16,1,1,0,0,0,.23.13l.31.13.42.18a1.2,1.2,0,0,1,.31.21.86.86,0,0,1,.2.27.87.87,0,0,1,.07.37.94.94,0,0,1-.11.45,1,1,0,0,1-.31.32,1.46,1.46,0,0,1-.44.19,2.24,2.24,0,0,1-.52.06A2,2,0,0,1,86.16,13.34Z"/><path class="cls-6" d="M90.6,13.55a1.65,1.65,0,0,1-1.24-.49,1.82,1.82,0,0,1-.47-1.3,1.86,1.86,0,0,1,.49-1.38,1.72,1.72,0,0,1,1.3-.5,1.54,1.54,0,0,1,1.22.49,1.9,1.9,0,0,1,.44,1.33A1.89,1.89,0,0,1,91.87,13,1.66,1.66,0,0,1,90.6,13.55Zm0-3.19a1.09,1.09,0,0,0-.86.36,1.53,1.53,0,0,0-.31,1,1.4,1.4,0,0,0,.32,1,1.07,1.07,0,0,0,.85.36,1,1,0,0,0,.83-.36,1.47,1.47,0,0,0,.29-1,1.54,1.54,0,0,0-.29-1A1,1,0,0,0,90.64,10.36Z"/><path class="cls-6" d="M97.72,13.47h-.56v-.6h0a1.4,1.4,0,0,1-2.25.21,1.91,1.91,0,0,1-.4-1.28,2.1,2.1,0,0,1,.44-1.39,1.44,1.44,0,0,1,1.17-.53,1.1,1.1,0,0,1,1,.57h0V8.28h.56Zm-.56-1.59v-.51a1,1,0,0,0-.28-.72.94.94,0,0,0-.71-.29,1,1,0,0,0-.81.37,1.63,1.63,0,0,0-.29,1,1.5,1.5,0,0,0,.28,1,.94.94,0,0,0,.76.35,1,1,0,0,0,.76-.34A1.3,1.3,0,0,0,97.16,11.88Z"/><path class="cls-6" d="M98.93,9.08A.38.38,0,0,1,98.67,9a.32.32,0,0,1-.1-.25.36.36,0,0,1,.1-.27.37.37,0,0,1,.26-.1.35.35,0,0,1,.26.1.37.37,0,0,1,.11.27.34.34,0,0,1-.11.25A.36.36,0,0,1,98.93,9.08Zm.27,4.39h-.56V10h.56Z"/><path class="cls-6" d="M104.22,13.31a1.85,1.85,0,0,1-1,.24,1.55,1.55,0,0,1-1.2-.49,1.73,1.73,0,0,1-.46-1.26,1.94,1.94,0,0,1,.49-1.39,1.74,1.74,0,0,1,1.33-.53,1.92,1.92,0,0,1,.81.17v.58a1.45,1.45,0,0,0-.84-.27,1.09,1.09,0,0,0-.87.38,1.46,1.46,0,0,0-.35,1,1.42,1.42,0,0,0,.32,1,1.12,1.12,0,0,0,.87.36,1.42,1.42,0,0,0,.86-.31Z"/><path class="cls-6" d="M106.32,13.55a1.66,1.66,0,0,1-1.24-.49,1.81,1.81,0,0,1-.46-1.3,1.9,1.9,0,0,1,.48-1.38,1.74,1.74,0,0,1,1.3-.5,1.56,1.56,0,0,1,1.23.49,1.9,1.9,0,0,1,.44,1.33,1.85,1.85,0,0,1-.48,1.34A1.64,1.64,0,0,1,106.32,13.55Zm0-3.19a1.07,1.07,0,0,0-.85.36,1.54,1.54,0,0,0-.32,1,1.44,1.44,0,0,0,.32,1,1.08,1.08,0,0,0,.85.36,1,1,0,0,0,.84-.36,1.53,1.53,0,0,0,.29-1,1.6,1.6,0,0,0-.29-1A1,1,0,0,0,106.36,10.36Z"/><path class="cls-6" d="M111.74,13.47h-.56v-.6h0a1.4,1.4,0,0,1-2.25.21,1.91,1.91,0,0,1-.4-1.28,2.1,2.1,0,0,1,.44-1.39,1.44,1.44,0,0,1,1.17-.53,1.1,1.1,0,0,1,1,.57h0V8.28h.56Zm-.56-1.59v-.51a1,1,0,0,0-.28-.72.94.94,0,0,0-.71-.29,1,1,0,0,0-.81.37,1.63,1.63,0,0,0-.29,1,1.5,1.5,0,0,0,.28,1,.94.94,0,0,0,.76.35,1,1,0,0,0,.76-.34A1.3,1.3,0,0,0,111.18,11.88Z"/><path class="cls-6" d="M113,9.08a.36.36,0,0,1-.26-.11.32.32,0,0,1-.1-.25.36.36,0,0,1,.1-.27.39.39,0,0,1,.52,0,.37.37,0,0,1,.11.27.34.34,0,0,1-.11.25A.36.36,0,0,1,113,9.08Zm.27,4.39h-.56V10h.56Z"/><path class="cls-6" d="M116.53,13.31a1.79,1.79,0,0,1-1,.24,1.58,1.58,0,0,1-1.21-.49,1.73,1.73,0,0,1-.46-1.26,1.9,1.9,0,0,1,.5-1.39,1.73,1.73,0,0,1,1.32-.53,1.86,1.86,0,0,1,.81.17v.58a1.44,1.44,0,0,0-.83-.27,1.11,1.11,0,0,0-.88.38,1.46,1.46,0,0,0-.35,1,1.37,1.37,0,0,0,.33,1,1.09,1.09,0,0,0,.86.36,1.4,1.4,0,0,0,.86-.31Z"/><path class="cls-6" d="M120,11.86h-2.48a1.31,1.31,0,0,0,.32.9,1.08,1.08,0,0,0,.83.32,1.71,1.71,0,0,0,1.08-.39v.52a2,2,0,0,1-1.22.34,1.47,1.47,0,0,1-1.16-.48,1.91,1.91,0,0,1-.43-1.34,1.91,1.91,0,0,1,.47-1.33,1.5,1.5,0,0,1,1.15-.52,1.31,1.31,0,0,1,1.06.45,1.85,1.85,0,0,1,.38,1.23Zm-.58-.48a1.14,1.14,0,0,0-.23-.75.81.81,0,0,0-.64-.27.91.91,0,0,0-.68.28,1.31,1.31,0,0,0-.34.74Z"/><path class="cls-6" d="M125.32,13.47h-.56v-.6h0a1.4,1.4,0,0,1-2.25.21,1.91,1.91,0,0,1-.4-1.28,2.1,2.1,0,0,1,.44-1.39,1.44,1.44,0,0,1,1.16-.53,1.12,1.12,0,0,1,1,.57h0V8.28h.56Zm-.56-1.59v-.51a1,1,0,0,0-.28-.72.94.94,0,0,0-.71-.29,1,1,0,0,0-.81.37,1.63,1.63,0,0,0-.29,1,1.5,1.5,0,0,0,.28,1,.92.92,0,0,0,.75.35,1,1,0,0,0,.76-.34A1.25,1.25,0,0,0,124.76,11.88Z"/><path class="cls-6" d="M129.06,11.86h-2.48a1.31,1.31,0,0,0,.32.9,1.1,1.1,0,0,0,.83.32,1.71,1.71,0,0,0,1.08-.39v.52a2,2,0,0,1-1.22.34,1.47,1.47,0,0,1-1.16-.48,1.91,1.91,0,0,1-.43-1.34,1.91,1.91,0,0,1,.47-1.33,1.5,1.5,0,0,1,1.15-.52,1.31,1.31,0,0,1,1.06.45,1.85,1.85,0,0,1,.38,1.23Zm-.58-.48a1.14,1.14,0,0,0-.23-.75.81.81,0,0,0-.64-.27.91.91,0,0,0-.68.28,1.31,1.31,0,0,0-.34.74Z"/><path class="cls-6" d="M130.25,13.47h-.56V8.28h.56Z"/><path class="cls-6" d="M135.87,13.47h-.56v-.6h0a1.3,1.3,0,0,1-1.2.68,1.32,1.32,0,0,1-1.06-.47,2,2,0,0,1-.39-1.28,2.1,2.1,0,0,1,.43-1.39,1.46,1.46,0,0,1,1.17-.53,1.12,1.12,0,0,1,1.05.57h0V8.28h.56Zm-.56-1.59v-.51a1,1,0,0,0-.28-.72.91.91,0,0,0-.71-.29,1,1,0,0,0-.81.37,1.69,1.69,0,0,0-.29,1,1.5,1.5,0,0,0,.28,1,.94.94,0,0,0,.76.35,1,1,0,0,0,.76-.34A1.3,1.3,0,0,0,135.31,11.88Z"/><path class="cls-6" d="M137.08,9.08a.34.34,0,0,1-.25-.11.33.33,0,0,1-.11-.25.37.37,0,0,1,.11-.27.33.33,0,0,1,.25-.1.38.38,0,0,1,.27.1.36.36,0,0,1,.1.27.33.33,0,0,1-.1.25A.39.39,0,0,1,137.08,9.08Zm.28,4.39h-.56V10h.56Z"/><path class="cls-6" d="M138.07,13.34v-.6a1.71,1.71,0,0,0,1,.34c.49,0,.74-.17.74-.5a.35.35,0,0,0-.07-.23.48.48,0,0,0-.17-.18,1.17,1.17,0,0,0-.25-.13l-.31-.13a4.14,4.14,0,0,1-.41-.18,1.14,1.14,0,0,1-.29-.21.8.8,0,0,1-.18-.27,1,1,0,0,1-.06-.35.9.9,0,0,1,.11-.44,1.14,1.14,0,0,1,.3-.32,1.52,1.52,0,0,1,.43-.19,2,2,0,0,1,1.31.09v.57a1.57,1.57,0,0,0-.89-.25,1.2,1.2,0,0,0-.28,0,.9.9,0,0,0-.22.1.7.7,0,0,0-.14.16.46.46,0,0,0,0,.2.52.52,0,0,0,0,.23.56.56,0,0,0,.15.16,1,1,0,0,0,.23.13l.31.13.42.18a1.2,1.2,0,0,1,.31.21.73.73,0,0,1,.2.27.87.87,0,0,1,.07.37.94.94,0,0,1-.11.45,1,1,0,0,1-.31.32,1.46,1.46,0,0,1-.44.19,2.24,2.24,0,0,1-.52.06A2,2,0,0,1,138.07,13.34Z"/><path class="cls-6" d="M141.62,13h0v2.12H141V10h.56v.61h0a1.33,1.33,0,0,1,1.21-.7,1.28,1.28,0,0,1,1,.47,1.93,1.93,0,0,1,.38,1.26,2.19,2.19,0,0,1-.42,1.41,1.44,1.44,0,0,1-1.17.53A1.16,1.16,0,0,1,141.62,13Zm0-1.41V12a1,1,0,0,0,.29.73.89.89,0,0,0,.71.31.94.94,0,0,0,.8-.39,1.81,1.81,0,0,0,.29-1.09,1.39,1.39,0,0,0-.27-.91.89.89,0,0,0-.73-.33,1,1,0,0,0-.79.34A1.23,1.23,0,0,0,141.6,11.55Z"/><path class="cls-6" d="M146.41,13.55a1.65,1.65,0,0,1-1.24-.49,1.81,1.81,0,0,1-.46-1.3,1.9,1.9,0,0,1,.48-1.38,1.74,1.74,0,0,1,1.3-.5,1.54,1.54,0,0,1,1.22.49,1.86,1.86,0,0,1,.44,1.33,1.84,1.84,0,0,1-.47,1.34A1.64,1.64,0,0,1,146.41,13.55Zm0-3.19a1.07,1.07,0,0,0-.85.36,1.54,1.54,0,0,0-.32,1,1.44,1.44,0,0,0,.32,1,1.08,1.08,0,0,0,.85.36,1,1,0,0,0,.84-.36,1.53,1.53,0,0,0,.29-1,1.6,1.6,0,0,0-.29-1A1,1,0,0,0,146.45,10.36Z"/><path class="cls-6" d="M148.63,13.34v-.6a1.68,1.68,0,0,0,1,.34c.49,0,.73-.17.73-.5a.41.41,0,0,0-.06-.23.58.58,0,0,0-.17-.18,1.46,1.46,0,0,0-.25-.13l-.31-.13a3.31,3.31,0,0,1-.41-.18,1.44,1.44,0,0,1-.3-.21.8.8,0,0,1-.18-.27,1,1,0,0,1-.06-.35.81.81,0,0,1,.12-.44.91.91,0,0,1,.3-.32,1.4,1.4,0,0,1,.43-.19,2,2,0,0,1,.49-.07,2.1,2.1,0,0,1,.82.16v.57a1.59,1.59,0,0,0-.89-.25,1.14,1.14,0,0,0-.28,0,.9.9,0,0,0-.22.1.52.52,0,0,0-.14.16.46.46,0,0,0,0,.2.45.45,0,0,0,.19.39,1.08,1.08,0,0,0,.24.13l.31.13.41.18a1.27,1.27,0,0,1,.32.21.86.86,0,0,1,.2.27.87.87,0,0,1,.07.37.84.84,0,0,1-.12.45.91.91,0,0,1-.3.32,1.58,1.58,0,0,1-.44.19,2.26,2.26,0,0,1-.53.06A1.94,1.94,0,0,1,148.63,13.34Z"/><path class="cls-6" d="M151.89,9.08a.36.36,0,0,1-.26-.11.32.32,0,0,1-.1-.25.36.36,0,0,1,.1-.27.39.39,0,0,1,.52,0,.37.37,0,0,1,.11.27.34.34,0,0,1-.11.25A.36.36,0,0,1,151.89,9.08Zm.27,4.39h-.56V10h.56Z"/><path class="cls-6" d="M154.71,13.43a1.11,1.11,0,0,1-.52.11c-.62,0-.92-.34-.92-1V10.44h-.6V10h.6V9.11l.56-.18v1h.88v.47h-.88v2a.82.82,0,0,0,.12.5.47.47,0,0,0,.39.15.57.57,0,0,0,.37-.12Z"/><path class="cls-6" d="M155.54,9.08a.35.35,0,0,1-.26-.11.33.33,0,0,1-.11-.25.37.37,0,0,1,.11-.27.34.34,0,0,1,.26-.1.37.37,0,0,1,.26.1.36.36,0,0,1,.1.27.33.33,0,0,1-.1.25A.38.38,0,0,1,155.54,9.08Zm.27,4.39h-.56V10h.56Z"/><path class="cls-6" d="M159.48,10l-1.39,3.5h-.55L156.21,10h.62l.89,2.54a2.3,2.3,0,0,1,.12.49h0a2.84,2.84,0,0,1,.11-.48l.93-2.55Z"/><path class="cls-6" d="M161.34,13.55a1.65,1.65,0,0,1-1.24-.49,1.81,1.81,0,0,1-.46-1.3,1.9,1.9,0,0,1,.48-1.38,1.72,1.72,0,0,1,1.3-.5,1.54,1.54,0,0,1,1.22.49,1.86,1.86,0,0,1,.44,1.33,1.89,1.89,0,0,1-.47,1.34A1.66,1.66,0,0,1,161.34,13.55Zm0-3.19a1.07,1.07,0,0,0-.85.36,1.54,1.54,0,0,0-.32,1,1.44,1.44,0,0,0,.32,1,1.07,1.07,0,0,0,.85.36,1,1,0,0,0,.84-.36,1.53,1.53,0,0,0,.29-1,1.6,1.6,0,0,0-.29-1A1,1,0,0,0,161.38,10.36Z"/><path d="M44.78,45.45h-.73l-.59-1.57H41.08l-.55,1.57H39.8l2.14-5.6h.68Zm-1.53-2.16-.88-2.39a2,2,0,0,1-.09-.37h0a1.33,1.33,0,0,1-.09.37l-.87,2.39Z"/><path d="M46.17,44.87h0v2.42h-.64V41.45h.64v.7h0a1.52,1.52,0,0,1,1.39-.79,1.46,1.46,0,0,1,1.2.53,2.23,2.23,0,0,1,.44,1.44,2.46,2.46,0,0,1-.49,1.61,1.64,1.64,0,0,1-1.34.61A1.36,1.36,0,0,1,46.17,44.87Zm0-1.61v.56a1.2,1.2,0,0,0,.32.84,1.09,1.09,0,0,0,.82.35,1.06,1.06,0,0,0,.91-.45,2.05,2.05,0,0,0,.33-1.24,1.57,1.57,0,0,0-.31-1,1,1,0,0,0-.83-.38,1.13,1.13,0,0,0-.9.39A1.38,1.38,0,0,0,46.16,43.26Z"/><path d="M50.88,44.87h0v2.42h-.64V41.45h.64v.7h0a1.62,1.62,0,0,1,2.59-.26,2.23,2.23,0,0,1,.43,1.44,2.46,2.46,0,0,1-.49,1.61,1.63,1.63,0,0,1-1.33.61A1.34,1.34,0,0,1,50.88,44.87Zm0-1.61v.56a1.2,1.2,0,0,0,.32.84,1.15,1.15,0,0,0,1.74-.1,2.05,2.05,0,0,0,.33-1.24,1.63,1.63,0,0,0-.31-1,1,1,0,0,0-.84-.38,1.14,1.14,0,0,0-.9.39A1.43,1.43,0,0,0,50.86,43.26Z"/><path d="M56.87,45.31v-.69A1.91,1.91,0,0,0,58,45q.84,0,.84-.57a.5.5,0,0,0-.07-.27,1,1,0,0,0-.2-.2l-.29-.15L58,43.68a4.32,4.32,0,0,1-.47-.21,1.58,1.58,0,0,1-.34-.25,1,1,0,0,1-.2-.3,1,1,0,0,1-.07-.41A.9.9,0,0,1,57,42a1.2,1.2,0,0,1,.34-.37,1.67,1.67,0,0,1,.49-.22,2.22,2.22,0,0,1,.57-.07,2.27,2.27,0,0,1,.93.18v.65a1.74,1.74,0,0,0-1-.29,1.15,1.15,0,0,0-.33,0,1,1,0,0,0-.25.11.69.69,0,0,0-.16.18.59.59,0,0,0-.05.23.67.67,0,0,0,.05.26.75.75,0,0,0,.17.19,1.63,1.63,0,0,0,.27.15l.35.14.48.21a1.61,1.61,0,0,1,.36.24,1.14,1.14,0,0,1,.23.31,1.12,1.12,0,0,1-.05.94,1.33,1.33,0,0,1-.35.36,1.45,1.45,0,0,1-.51.21,2.35,2.35,0,0,1-.6.08A2.28,2.28,0,0,1,56.87,45.31Z"/><path d="M63.73,43.61H60.9a1.47,1.47,0,0,0,.36,1,1.26,1.26,0,0,0,1,.37,2,2,0,0,0,1.24-.45v.6a2.3,2.3,0,0,1-1.4.39A1.7,1.7,0,0,1,60.72,45a2.23,2.23,0,0,1-.48-1.53A2.14,2.14,0,0,1,60.77,42a1.66,1.66,0,0,1,1.31-.59,1.52,1.52,0,0,1,1.22.51,2.12,2.12,0,0,1,.43,1.41Zm-.66-.54a1.25,1.25,0,0,0-.27-.86.89.89,0,0,0-.73-.31,1,1,0,0,0-.77.32,1.5,1.5,0,0,0-.39.85Z"/><path d="M68,45.45h-.64V43.17c0-.85-.31-1.27-.93-1.27a1,1,0,0,0-.79.36,1.33,1.33,0,0,0-.32.91v2.28h-.64v-4h.64v.67h0a1.43,1.43,0,0,1,1.31-.76,1.24,1.24,0,0,1,1,.42A1.9,1.9,0,0,1,68,43Z"/><path d="M72,41.63,69.64,44.9H72v.55H68.7v-.2L71.07,42H68.92v-.55H72Z"/><path d="M75.7,45.45h-.64v-.62h0a1.36,1.36,0,0,1-1.23.72,1.32,1.32,0,0,1-.94-.32,1.08,1.08,0,0,1-.34-.84c0-.75.44-1.18,1.32-1.31l1.2-.16c0-.68-.27-1-.82-1a2,2,0,0,0-1.31.49v-.66a2.5,2.5,0,0,1,1.36-.37c.94,0,1.41.49,1.41,1.49Zm-.64-2-1,.13a1.69,1.69,0,0,0-.68.22.64.64,0,0,0-.22.56.6.6,0,0,0,.21.48A.81.81,0,0,0,74,45a1,1,0,0,0,.79-.34,1.16,1.16,0,0,0,.31-.84Z"/><path d="M45.13,54.47h0v.58h-.64V49.13h.64v2.62h0A1.52,1.52,0,0,1,46.52,51a1.48,1.48,0,0,1,1.2.53,2.23,2.23,0,0,1,.44,1.44,2.51,2.51,0,0,1-.49,1.61,1.64,1.64,0,0,1-1.34.6A1.31,1.31,0,0,1,45.13,54.47Zm0-1.61v.56a1.2,1.2,0,0,0,.32.84,1.09,1.09,0,0,0,.82.35,1.06,1.06,0,0,0,.91-.45,2.05,2.05,0,0,0,.33-1.24,1.57,1.57,0,0,0-.31-1,1,1,0,0,0-.83-.38,1.14,1.14,0,0,0-.9.38A1.43,1.43,0,0,0,45.12,52.86Z"/><path d="M51.27,51.7a.79.79,0,0,0-.49-.13.81.81,0,0,0-.68.39,1.74,1.74,0,0,0-.28,1v2h-.64v-4h.64v.83h0a1.41,1.41,0,0,1,.41-.66,1,1,0,0,1,.63-.24,1,1,0,0,1,.39.06Z"/><path d="M53.63,55.14a1.82,1.82,0,0,1-1.41-.56,2,2,0,0,1-.53-1.48,2.17,2.17,0,0,1,.55-1.58A2,2,0,0,1,53.73,51a1.77,1.77,0,0,1,1.39.55A2.16,2.16,0,0,1,55.63,53a2.13,2.13,0,0,1-.55,1.53A1.9,1.9,0,0,1,53.63,55.14Zm0-3.64a1.23,1.23,0,0,0-1,.42,1.7,1.7,0,0,0-.36,1.15,1.67,1.67,0,0,0,.37,1.13,1.23,1.23,0,0,0,1,.41,1.2,1.2,0,0,0,1-.41A1.74,1.74,0,0,0,55,53.06a1.8,1.8,0,0,0-.33-1.16A1.19,1.19,0,0,0,53.68,51.5Z"/><path d="M61.69,51.05l-1.2,4h-.66L59,52.19a1.91,1.91,0,0,1-.06-.37h0a1.25,1.25,0,0,1-.08.36L58,55.05h-.64l-1.22-4h.68l.82,3a1.49,1.49,0,0,1,.06.36h0a1.72,1.72,0,0,1,.07-.37l.92-3h.59l.83,3q0,.13.06.36h0a1.29,1.29,0,0,1,.06-.36l.82-3Z"/><path d="M62.19,54.91v-.69a1.88,1.88,0,0,0,1.15.39q.84,0,.84-.57a.5.5,0,0,0-.07-.27.89.89,0,0,0-.19-.2l-.29-.15-.36-.14a3.45,3.45,0,0,1-.47-.22,1.4,1.4,0,0,1-.33-.24,1,1,0,0,1-.21-.3,1.27,1.27,0,0,1-.06-.41.9.9,0,0,1,.13-.49,1.09,1.09,0,0,1,.34-.37,1.56,1.56,0,0,1,.49-.22,2.12,2.12,0,0,1,.57-.07,2.34,2.34,0,0,1,.93.18v.65a1.79,1.79,0,0,0-1-.29,1,1,0,0,0-.32,0,.64.64,0,0,0-.25.11.55.55,0,0,0-.16.18.46.46,0,0,0-.06.23.53.53,0,0,0,.06.26.6.6,0,0,0,.17.19l.26.15.36.14.47.21a1.61,1.61,0,0,1,.36.24,1,1,0,0,1,.23.31,1.08,1.08,0,0,1,.08.42,1,1,0,0,1-.13.52,1.2,1.2,0,0,1-.35.36,1.4,1.4,0,0,1-.5.21,2.35,2.35,0,0,1-.6.07A2.25,2.25,0,0,1,62.19,54.91Z"/><path d="M69,53.21H66.22a1.47,1.47,0,0,0,.36,1,1.23,1.23,0,0,0,.94.37,1.93,1.93,0,0,0,1.24-.45v.6a2.27,2.27,0,0,1-1.39.38A1.68,1.68,0,0,1,66,54.6a2.54,2.54,0,0,1,0-3.05A1.67,1.67,0,0,1,67.4,51a1.5,1.5,0,0,1,1.21.51A2.07,2.07,0,0,1,69,52.88Zm-.66-.54a1.35,1.35,0,0,0-.26-.87.94.94,0,0,0-.74-.3,1,1,0,0,0-.77.32,1.5,1.5,0,0,0-.39.85Z"/><path d="M72.09,51.7a.74.74,0,0,0-.48-.13.84.84,0,0,0-.69.39,1.82,1.82,0,0,0-.27,1v2H70v-4h.64v.83h0a1.41,1.41,0,0,1,.41-.66,1,1,0,0,1,.63-.24.91.91,0,0,1,.38.06Z"/><path d="M172.37,45h-.73l-.59-1.57h-2.38L168.11,45h-.73l2.15-5.61h.68Zm-1.54-2.16L170,40.47a2.36,2.36,0,0,1-.08-.38h0a1.41,1.41,0,0,1-.09.38l-.87,2.39Z"/><path d="M173.76,44.44h0v2.42h-.64V41h.64v.7h0a1.53,1.53,0,0,1,1.39-.8,1.46,1.46,0,0,1,1.2.54,2.23,2.23,0,0,1,.44,1.44,2.53,2.53,0,0,1-.49,1.61,1.64,1.64,0,0,1-1.34.6A1.33,1.33,0,0,1,173.76,44.44Zm0-1.62v.56a1.16,1.16,0,0,0,.32.84,1,1,0,0,0,.82.35,1.08,1.08,0,0,0,.91-.44,2.05,2.05,0,0,0,.33-1.24,1.58,1.58,0,0,0-.31-1,1,1,0,0,0-.83-.38,1.12,1.12,0,0,0-.9.39A1.4,1.4,0,0,0,173.75,42.82Z"/><path d="M178.47,44.44h0v2.42h-.64V41h.64v.7h0a1.51,1.51,0,0,1,1.38-.8,1.48,1.48,0,0,1,1.21.54,2.29,2.29,0,0,1,.43,1.44,2.47,2.47,0,0,1-.49,1.61,1.63,1.63,0,0,1-1.33.6A1.33,1.33,0,0,1,178.47,44.44Zm0-1.62v.56a1.2,1.2,0,0,0,.32.84,1.05,1.05,0,0,0,.82.35,1.08,1.08,0,0,0,.91-.44,2.05,2.05,0,0,0,.33-1.24,1.58,1.58,0,0,0-.31-1,1,1,0,0,0-.83-.38,1.14,1.14,0,0,0-.9.39A1.4,1.4,0,0,0,178.45,42.82Z"/><path d="M185.36,44.44h0v2.42h-.64V41h.64v.7h0a1.52,1.52,0,0,1,1.38-.8,1.46,1.46,0,0,1,1.21.54,2.23,2.23,0,0,1,.43,1.44,2.53,2.53,0,0,1-.48,1.61,1.65,1.65,0,0,1-1.34.6A1.33,1.33,0,0,1,185.36,44.44Zm0-1.62v.56a1.17,1.17,0,0,0,.33.84,1,1,0,0,0,.82.35,1.09,1.09,0,0,0,.91-.44,2.05,2.05,0,0,0,.33-1.24,1.64,1.64,0,0,0-.31-1,1,1,0,0,0-.84-.38,1.14,1.14,0,0,0-.9.39A1.45,1.45,0,0,0,185.34,42.82Z"/><path d="M192.62,43.18H189.8a1.49,1.49,0,0,0,.36,1,1.24,1.24,0,0,0,.94.36,2,2,0,0,0,1.24-.44v.6a2.34,2.34,0,0,1-1.39.38,1.66,1.66,0,0,1-1.33-.55,2.54,2.54,0,0,1,0-3.05,1.72,1.72,0,0,1,1.32-.59,1.49,1.49,0,0,1,1.21.51,2.1,2.1,0,0,1,.43,1.41Zm-.65-.55a1.38,1.38,0,0,0-.27-.86.9.9,0,0,0-.73-.31,1,1,0,0,0-.77.33,1.38,1.38,0,0,0-.39.84Z"/><path d="M195.68,41.66a.87.87,0,0,0-.49-.12.8.8,0,0,0-.68.38,1.75,1.75,0,0,0-.28,1.06v2h-.64V41h.64v.82h0a1.4,1.4,0,0,1,.42-.66.9.9,0,0,1,.62-.23,1,1,0,0,1,.39,0Z"/><path d="M172.76,54.62h-.64V48.69h.64Z"/><path d="M177.27,52.78h-2.82a1.49,1.49,0,0,0,.36,1,1.22,1.22,0,0,0,.94.36,2,2,0,0,0,1.24-.44v.6a2.34,2.34,0,0,1-1.39.38,1.68,1.68,0,0,1-1.33-.54,2.23,2.23,0,0,1-.49-1.54,2.2,2.2,0,0,1,.53-1.52,1.7,1.7,0,0,1,1.32-.59,1.5,1.5,0,0,1,1.21.51,2.1,2.1,0,0,1,.43,1.41Zm-.66-.55a1.32,1.32,0,0,0-.26-.86.91.91,0,0,0-.74-.31,1,1,0,0,0-.77.33,1.44,1.44,0,0,0-.39.84Z"/><path d="M184.85,54.62h-.72l-.6-1.57h-2.37l-.56,1.57h-.73L182,49h.68Zm-1.53-2.16-.88-2.39a2.13,2.13,0,0,1-.09-.38h0a3.1,3.1,0,0,1-.09.38l-.87,2.39Z"/><path d="M186.33,52.5v2.12h-.65V49h1.54a2.05,2.05,0,0,1,1.39.44,1.57,1.57,0,0,1,.49,1.24,1.68,1.68,0,0,1-.55,1.3,2.08,2.08,0,0,1-1.48.51Zm0-2.89v2.3H187a1.54,1.54,0,0,0,1-.32,1.08,1.08,0,0,0,.36-.87q0-1.11-1.32-1.11Z"/><path d="M190.81,54.62h-.65V49h.65Z"/><rect class="cls-5" x="64.49" y="19.99" width="99.53" height="1.75" rx="0.76"/></g></svg>