<svg xmlns="http://www.w3.org/2000/svg" viewBox="0 0 424.04 484"><title>OJ104440672</title><path d="M70,24.4a11.81,11.81,0,0,1-16.84-2.29A12.56,12.56,0,0,1,55.43,4.82a11.82,11.82,0,0,1,16.84,2.3A12.54,12.54,0,0,1,70,24.4ZM73.69,6A13.57,13.57,0,0,0,54.33,3.36a14.43,14.43,0,0,0-2.55,19.87,13.62,13.62,0,0,0,11,5.55,13.45,13.45,0,0,0,8.39-2.92A14.44,14.44,0,0,0,73.69,6Z" fill="#008bfd"/><path d="M56.06,17.19a17,17,0,0,1-2-2.35,18.28,18.28,0,0,0-1.66,6.88c.11.16.11.29.23.44a12.55,12.55,0,0,0,2,2.05A14.13,14.13,0,0,1,56.06,17.19Z" fill="#008bfd"/><path d="M60.67,7.74a21,21,0,0,0-3.33,3,15.71,15.71,0,0,0-1.61,2,15.42,15.42,0,0,0,1.9,2.46,16.32,16.32,0,0,1,2.2-2.56A26.47,26.47,0,0,1,63,10.06C62.16,9.3,61.38,8.53,60.67,7.74Z" fill="#008bfd"/><path d="M72.15,7a12,12,0,0,0-1.73-1.82,12.53,12.53,0,0,0-8,1.53c.76.84,1.51,1.63,2.24,2.36C69,6.59,72.15,7,72.15,7Z" fill="#008bfd"/><path d="M54.34,15a19.82,19.82,0,0,1,1.19-2.06,9.84,9.84,0,0,1-1.6-6.79,13.09,13.09,0,0,0-1.29,1.6C52.26,9.34,52.24,11.9,54.34,15Z" fill="#008bfd"/><path d="M59.9,17.37a21.6,21.6,0,0,1-2.27-2.14,14.25,14.25,0,0,0-1.14,1.95,23.54,23.54,0,0,0,2.09,1.91,19.12,19.12,0,0,0,12.56,4.38,9,9,0,0,0,1.54-1.94C71.45,21.79,66.19,22.48,59.9,17.37Z" fill="#008bfd"/><path d="M54.55,14.83a15.72,15.72,0,0,0,2,2.35,15.36,15.36,0,0,1,1.14-1.95,15.42,15.42,0,0,1-1.9-2.46A15.58,15.58,0,0,0,54.55,14.83Z" fill="#008bfd"/><path d="M63,10.07a97,97,0,0,0,11.15,8.82,9.82,9.82,0,0,0,.33-1.05A95.51,95.51,0,0,1,64.61,9Q63.82,9.47,63,10.07Z" fill="#008bfd"/><path d="M62.38,6.66Q60.73,4.89,59,2.86a10.05,10.05,0,0,0-1.59.66,26.3,26.3,0,0,0,3.24,4.22A17.22,17.22,0,0,1,62.38,6.66Z" fill="#008bfd"/><path d="M62.45,6.62a18.74,18.74,0,0,0-1.87,1.19c.72.78,1.45,1.59,2.25,2.35.57-.4,1.34-.88,1.87-1.18C64,8.25,63.21,7.46,62.45,6.62Z" fill="#008bfd"/><path d="M62.25,6.52a16.24,16.24,0,0,0-1.67,1.12c.72.79,1.74,1.81,2.54,2.57.57-.4,1.05-.8,1.58-1.11C64,8.38,63,7.35,62.25,6.52Z" fill="#008bfd"/><path d="M68.3,13.07a2.7,2.7,0,0,0-.48,3.7,2.56,2.56,0,0,0,3.63.51,2.72,2.72,0,0,0,.48-3.72A2.55,2.55,0,0,0,68.3,13.07Z" fill="#008bfd"/><path d="M63.13,19.19a2.52,2.52,0,0,0-.45,3.44,2.37,2.37,0,0,0,3.36.45,2.49,2.49,0,0,0,.44-3.43A2.36,2.36,0,0,0,63.13,19.19Z" fill="#008bfd"/><path d="M54,11.86a3.79,3.79,0,0,0-.68,5.21,3.58,3.58,0,0,0,5.1.7,3.8,3.8,0,0,0,.67-5.23A3.59,3.59,0,0,0,54,11.86Z" fill="#008bfd"/><path d="M70,164a11.81,11.81,0,0,1-16.84-2.29,12.56,12.56,0,0,1,2.24-17.29,11.82,11.82,0,0,1,16.84,2.3A12.54,12.54,0,0,1,70,164Zm3.66-18.41A13.57,13.57,0,0,0,54.33,143a14.43,14.43,0,0,0-2.55,19.87,13.62,13.62,0,0,0,11,5.55,13.45,13.45,0,0,0,8.39-2.92A14.44,14.44,0,0,0,73.69,145.6Z" fill="#008bfd"/><path d="M56.06,156.8a17,17,0,0,1-2-2.35,18.28,18.28,0,0,0-1.66,6.88c.11.16.11.29.23.44a12.55,12.55,0,0,0,2,2A14.13,14.13,0,0,1,56.06,156.8Z" fill="#008bfd"/><path d="M60.67,147.35a21,21,0,0,0-3.33,3,15.71,15.71,0,0,0-1.61,2,15.42,15.42,0,0,0,1.9,2.46,16.32,16.32,0,0,1,2.2-2.56A26.47,26.47,0,0,1,63,149.67C62.16,148.91,61.38,148.14,60.67,147.35Z" fill="#008bfd"/><path d="M72.15,146.55a12,12,0,0,0-1.73-1.82,12.53,12.53,0,0,0-8,1.53c.76.84,1.51,1.63,2.24,2.36C69,146.19,72.15,146.55,72.15,146.55Z" fill="#008bfd"/><path d="M54.34,154.58a19.82,19.82,0,0,1,1.19-2.06,9.84,9.84,0,0,1-1.6-6.79,13.09,13.09,0,0,0-1.29,1.6C52.26,148.94,52.24,151.5,54.34,154.58Z" fill="#008bfd"/><path d="M59.9,157a21.6,21.6,0,0,1-2.27-2.14,14.25,14.25,0,0,0-1.14,1.95,23.54,23.54,0,0,0,2.09,1.91,19.12,19.12,0,0,0,12.56,4.38,9,9,0,0,0,1.54-1.94C71.45,161.4,66.19,162.09,59.9,157Z" fill="#008bfd"/><path d="M54.55,154.44a15.72,15.72,0,0,0,2,2.35,15.36,15.36,0,0,1,1.14-1.95,15.42,15.42,0,0,1-1.9-2.46A15.58,15.58,0,0,0,54.55,154.44Z" fill="#008bfd"/><path d="M63,149.67a97,97,0,0,0,11.15,8.82,9.82,9.82,0,0,0,.33-1.05,95.51,95.51,0,0,1-9.83-8.82Q63.82,149.07,63,149.67Z" fill="#008bfd"/><path d="M62.38,146.27q-1.65-1.77-3.36-3.8a10.05,10.05,0,0,0-1.59.66,26.3,26.3,0,0,0,3.24,4.22A17.22,17.22,0,0,1,62.38,146.27Z" fill="#008bfd"/><path d="M62.45,146.23a18.74,18.74,0,0,0-1.87,1.19c.72.78,1.45,1.59,2.25,2.35.57-.4,1.34-.88,1.87-1.18C64,147.86,63.21,147.07,62.45,146.23Z" fill="#008bfd"/><path d="M62.25,146.12a16.24,16.24,0,0,0-1.67,1.12c.72.79,1.74,1.81,2.54,2.57.57-.4,1.05-.8,1.58-1.11C64,148,63,147,62.25,146.12Z" fill="#008bfd"/><path d="M68.3,152.68a2.7,2.7,0,0,0-.48,3.7,2.56,2.56,0,0,0,3.63.51,2.72,2.72,0,0,0,.48-3.72A2.55,2.55,0,0,0,68.3,152.68Z" fill="#008bfd"/><path d="M63.13,158.8a2.52,2.52,0,0,0-.45,3.44,2.37,2.37,0,0,0,3.36.45,2.49,2.49,0,0,0,.44-3.43A2.36,2.36,0,0,0,63.13,158.8Z" fill="#008bfd"/><path d="M54,151.47a3.79,3.79,0,0,0-.68,5.21,3.58,3.58,0,0,0,5.1.7,3.8,3.8,0,0,0,.67-5.23A3.59,3.59,0,0,0,54,151.47Z" fill="#008bfd"/><path d="M70,94.28A11.81,11.81,0,0,1,53.19,92,12.56,12.56,0,0,1,55.43,74.7,11.82,11.82,0,0,1,72.27,77,12.54,12.54,0,0,1,70,94.28Zm3.66-18.41a13.57,13.57,0,0,0-19.36-2.63,14.43,14.43,0,0,0-2.55,19.87,13.62,13.62,0,0,0,11,5.55,13.45,13.45,0,0,0,8.39-2.92A14.44,14.44,0,0,0,73.69,75.87Z" fill="#008bfd"/><path d="M56.06,87.07a17,17,0,0,1-2-2.35,18.28,18.28,0,0,0-1.66,6.88c.11.16.11.29.23.44a12.55,12.55,0,0,0,2,2A14.13,14.13,0,0,1,56.06,87.07Z" fill="#008bfd"/><path d="M60.67,77.62a21,21,0,0,0-3.33,3,15.71,15.71,0,0,0-1.61,2.05,15.42,15.42,0,0,0,1.9,2.46,16.32,16.32,0,0,1,2.2-2.56A26.47,26.47,0,0,1,63,79.94C62.16,79.18,61.38,78.41,60.67,77.62Z" fill="#008bfd"/><path d="M72.15,76.83A12,12,0,0,0,70.42,75a12.53,12.53,0,0,0-8,1.53c.76.84,1.51,1.63,2.24,2.36C69,76.47,72.15,76.83,72.15,76.83Z" fill="#008bfd"/><path d="M54.34,84.86a19.82,19.82,0,0,1,1.19-2.06A9.84,9.84,0,0,1,53.93,76a13.09,13.09,0,0,0-1.29,1.6C52.26,79.22,52.24,81.78,54.34,84.86Z" fill="#008bfd"/><path d="M59.9,87.25a21.6,21.6,0,0,1-2.27-2.14,14.25,14.25,0,0,0-1.14,2A23.54,23.54,0,0,0,58.58,89a19.12,19.12,0,0,0,12.56,4.38,9,9,0,0,0,1.54-1.94C71.45,91.67,66.19,92.36,59.9,87.25Z" fill="#008bfd"/><path d="M54.55,84.71a15.72,15.72,0,0,0,2,2.35,15.36,15.36,0,0,1,1.14-2,15.42,15.42,0,0,1-1.9-2.46A15.58,15.58,0,0,0,54.55,84.71Z" fill="#008bfd"/><path d="M63,80a97,97,0,0,0,11.15,8.82,9.82,9.82,0,0,0,.33-1,95.51,95.51,0,0,1-9.83-8.82Q63.82,79.35,63,80Z" fill="#008bfd"/><path d="M62.38,76.54q-1.65-1.77-3.36-3.8a10.05,10.05,0,0,0-1.59.66,26.3,26.3,0,0,0,3.24,4.22A17.22,17.22,0,0,1,62.38,76.54Z" fill="#008bfd"/><path d="M62.45,76.5a18.74,18.74,0,0,0-1.87,1.19c.72.78,1.45,1.59,2.25,2.35.57-.4,1.34-.88,1.87-1.18C64,78.13,63.21,77.34,62.45,76.5Z" fill="#008bfd"/><path d="M62.25,76.4a16.24,16.24,0,0,0-1.67,1.12c.72.79,1.74,1.81,2.54,2.57.57-.4,1.05-.8,1.58-1.11C64,78.26,63,77.23,62.25,76.4Z" fill="#008bfd"/><path d="M68.3,83a2.7,2.7,0,0,0-.48,3.7,2.56,2.56,0,0,0,3.63.51,2.72,2.72,0,0,0,.48-3.72A2.55,2.55,0,0,0,68.3,83Z" fill="#008bfd"/><path d="M63.13,89.07a2.52,2.52,0,0,0-.45,3.44A2.37,2.37,0,0,0,66,93a2.49,2.49,0,0,0,.44-3.43A2.36,2.36,0,0,0,63.13,89.07Z" fill="#008bfd"/><path d="M54,81.74A3.79,3.79,0,0,0,53.31,87a3.58,3.58,0,0,0,5.1.7,3.8,3.8,0,0,0,.67-5.23A3.59,3.59,0,0,0,54,81.74Z" fill="#008bfd"/><g style="isolation:isolate"><path d="M48.21,251.54h-.9l-.75-2h-3l-.69,2H42l2.69-7h.85Zm-1.92-2.7-1.09-3a2.75,2.75,0,0,1-.11-.47h0a2.53,2.53,0,0,1-.11.47l-1.09,3Z" fill="#008bfd"/><path d="M50,250.82h0v3h-.8v-7.3h.8v.88h0a1.89,1.89,0,0,1,1.73-1,1.81,1.81,0,0,1,1.5.67,2.74,2.74,0,0,1,.55,1.8,3.17,3.17,0,0,1-.61,2,2,2,0,0,1-1.67.75A1.67,1.67,0,0,1,50,250.82Zm0-2v.69a1.49,1.49,0,0,0,.4,1.06,1.37,1.37,0,0,0,1,.43,1.33,1.33,0,0,0,1.14-.56,2.53,2.53,0,0,0,.42-1.55,2,2,0,0,0-.39-1.31,1.3,1.3,0,0,0-1-.47,1.42,1.42,0,0,0-1.13.49A1.79,1.79,0,0,0,49.94,248.81Z" fill="#008bfd"/><path d="M55.84,250.82h0v3H55v-7.3h.8v.88h0a1.89,1.89,0,0,1,1.72-1,1.82,1.82,0,0,1,1.51.67,2.8,2.8,0,0,1,.55,1.8,3.11,3.11,0,0,1-.62,2,2,2,0,0,1-1.67.75A1.67,1.67,0,0,1,55.84,250.82Zm0-2v.69a1.49,1.49,0,0,0,.4,1.06,1.37,1.37,0,0,0,1,.43,1.33,1.33,0,0,0,1.14-.56,2.53,2.53,0,0,0,.41-1.55,2,2,0,0,0-.38-1.31,1.3,1.3,0,0,0-1-.47,1.4,1.4,0,0,0-1.12.49A1.79,1.79,0,0,0,55.82,248.81Z" fill="#008bfd"/><path d="M72,244.54l-2,7h-1l-1.44-5.11a3.2,3.2,0,0,1-.11-.72h0a3.3,3.3,0,0,1-.13.71L66,251.54H65l-2-7h.9l1.49,5.37a3.29,3.29,0,0,1,.12.71h0a4.14,4.14,0,0,1,.16-.71l1.54-5.37H68L69.45,250a3,3,0,0,1,.12.66h0a4.11,4.11,0,0,1,.13-.68l1.43-5.39Z" fill="#008bfd"/><path d="M76.6,249.24H73.07a1.93,1.93,0,0,0,.45,1.29,1.53,1.53,0,0,0,1.18.46,2.49,2.49,0,0,0,1.56-.56v.75a2.9,2.9,0,0,1-1.75.48,2.12,2.12,0,0,1-1.66-.68,3.19,3.19,0,0,1,.05-3.82,2.12,2.12,0,0,1,1.65-.73,1.9,1.9,0,0,1,1.52.63,2.68,2.68,0,0,1,.53,1.76Zm-.82-.67a1.59,1.59,0,0,0-.33-1.08,1.14,1.14,0,0,0-.92-.39,1.3,1.3,0,0,0-1,.41,1.84,1.84,0,0,0-.49,1.06Z" fill="#008bfd"/><path d="M78.63,250.82h0v.72h-.8v-7.4h.8v3.28h0a1.9,1.9,0,0,1,1.73-1,1.83,1.83,0,0,1,1.51.67,2.8,2.8,0,0,1,.54,1.8,3.11,3.11,0,0,1-.61,2,2,2,0,0,1-1.67.75A1.65,1.65,0,0,1,78.63,250.82Zm0-2v.69a1.5,1.5,0,0,0,.41,1.06,1.37,1.37,0,0,0,1,.43,1.33,1.33,0,0,0,1.14-.56,2.53,2.53,0,0,0,.41-1.55,2.08,2.08,0,0,0-.38-1.31,1.3,1.3,0,0,0-1-.47,1.4,1.4,0,0,0-1.12.49A1.8,1.8,0,0,0,78.61,248.81Z" fill="#008bfd"/></g><path d="M305.43,284h-20.5a1.1,1.1,0,0,0-1.09,1.11v16.74a1.09,1.09,0,0,0,1.09,1.1h5.28a3.29,3.29,0,0,0,3.21,2.27,3.38,3.38,0,0,0,0-6.75,3.29,3.29,0,0,0-3.21,2.27H286v-12h18.31v12h-3.45a7.61,7.61,0,0,0-7.46-6.56,8.25,8.25,0,0,0-3.64.92l1,2a5.27,5.27,0,0,1,2.55-.67,5.46,5.46,0,0,1,0,10.92,5.28,5.28,0,0,1-2.55-.68l-1,2a7.4,7.4,0,0,0,3.64.92,7.61,7.61,0,0,0,7.46-6.56h4.55a1.09,1.09,0,0,0,1.09-1.1V285.08A1.14,1.14,0,0,0,305.43,284Z" fill="#008bfd"/><g style="isolation:isolate"><path d="M285.88,322.84H285l-.74-2h-3l-.7,2h-.91l2.68-7h.85Zm-1.92-2.7-1.1-3a4.26,4.26,0,0,1-.11-.47h0a1.92,1.92,0,0,1-.11.47l-1.09,3Z" fill="#008bfd"/><path d="M287.62,322.11h0v3h-.8v-7.3h.8v.87h0a1.9,1.9,0,0,1,1.73-1,1.82,1.82,0,0,1,1.51.67,2.8,2.8,0,0,1,.54,1.8,3.09,3.09,0,0,1-.61,2,2,2,0,0,1-1.67.75A1.67,1.67,0,0,1,287.62,322.11Zm0-2v.69a1.5,1.5,0,0,0,.41,1.06,1.43,1.43,0,0,0,2.16-.13,2.57,2.57,0,0,0,.41-1.55,2,2,0,0,0-.38-1.3,1.28,1.28,0,0,0-1.05-.48,1.4,1.4,0,0,0-1.12.49A1.75,1.75,0,0,0,287.6,320.1Z" fill="#008bfd"/><path d="M293.5,322.11h0v3h-.8v-7.3h.8v.87h0a1.9,1.9,0,0,1,1.73-1,1.83,1.83,0,0,1,1.51.67,2.8,2.8,0,0,1,.54,1.8,3.09,3.09,0,0,1-.61,2A2,2,0,0,1,295,323,1.67,1.67,0,0,1,293.5,322.11Zm0-2v.69a1.53,1.53,0,0,0,.4,1.06,1.37,1.37,0,0,0,1,.43,1.36,1.36,0,0,0,1.14-.56,2.57,2.57,0,0,0,.41-1.55,2,2,0,0,0-.39-1.3,1.25,1.25,0,0,0-1-.48,1.39,1.39,0,0,0-1.12.49A1.75,1.75,0,0,0,293.48,320.1Z" fill="#008bfd"/><path d="M302.12,322.11h0v3h-.8v-7.3h.8v.87h0a1.89,1.89,0,0,1,1.73-1,1.83,1.83,0,0,1,1.51.67,2.8,2.8,0,0,1,.54,1.8,3.09,3.09,0,0,1-.61,2,2,2,0,0,1-1.67.75A1.67,1.67,0,0,1,302.12,322.11Zm0-2v.69a1.49,1.49,0,0,0,.4,1.06,1.37,1.37,0,0,0,1,.43,1.36,1.36,0,0,0,1.14-.56,2.57,2.57,0,0,0,.41-1.55,2,2,0,0,0-.39-1.3,1.25,1.25,0,0,0-1-.48,1.42,1.42,0,0,0-1.13.49A1.79,1.79,0,0,0,302.1,320.1Z" fill="#008bfd"/><path d="M311.2,320.54h-3.53a1.82,1.82,0,0,0,.45,1.28,1.52,1.52,0,0,0,1.18.46,2.46,2.46,0,0,0,1.55-.56v.75a2.89,2.89,0,0,1-1.74.48,2.11,2.11,0,0,1-1.67-.68,2.79,2.79,0,0,1-.6-1.91,2.76,2.76,0,0,1,.66-1.91,2.12,2.12,0,0,1,1.64-.73,1.9,1.9,0,0,1,1.52.63,2.66,2.66,0,0,1,.54,1.77Zm-.82-.68a1.66,1.66,0,0,0-.34-1.08,1.12,1.12,0,0,0-.91-.39,1.32,1.32,0,0,0-1,.41,1.83,1.83,0,0,0-.48,1.06Z" fill="#008bfd"/><path d="M315,318.65a.93.93,0,0,0-.6-.17,1,1,0,0,0-.86.49,2.23,2.23,0,0,0-.34,1.32v2.55h-.8v-5h.8v1h0a1.74,1.74,0,0,1,.52-.83,1.22,1.22,0,0,1,.79-.29,1.16,1.16,0,0,1,.47.07Z" fill="#008bfd"/><path d="M286.37,334.84h-.8v-7.41h.8Z" fill="#008bfd"/><path d="M292,332.54h-3.53a1.82,1.82,0,0,0,.45,1.28,1.52,1.52,0,0,0,1.18.46,2.46,2.46,0,0,0,1.55-.56v.75a2.89,2.89,0,0,1-1.74.48,2.11,2.11,0,0,1-1.67-.68,2.79,2.79,0,0,1-.6-1.91,2.76,2.76,0,0,1,.66-1.91,2.12,2.12,0,0,1,1.64-.73,1.88,1.88,0,0,1,1.52.63,2.66,2.66,0,0,1,.54,1.77Zm-.82-.68a1.66,1.66,0,0,0-.34-1.08,1.12,1.12,0,0,0-.91-.39,1.32,1.32,0,0,0-1,.41,1.83,1.83,0,0,0-.48,1.06Z" fill="#008bfd"/><path d="M301.48,334.84h-.9l-.75-2h-3l-.7,2h-.92l2.69-7h.85Zm-1.91-2.7-1.1-3a2.75,2.75,0,0,1-.11-.47h0a2.53,2.53,0,0,1-.11.47l-1.09,3Z" fill="#008bfd"/><path d="M303.33,332.19v2.65h-.82v-7h1.93a2.56,2.56,0,0,1,1.74.55,2,2,0,0,1,.62,1.54,2.1,2.1,0,0,1-.69,1.63,2.59,2.59,0,0,1-1.85.64Zm0-3.61v2.87h.86a1.92,1.92,0,0,0,1.3-.39,1.38,1.38,0,0,0,.45-1.1c0-.92-.55-1.38-1.64-1.38Z" fill="#008bfd"/><path d="M308.94,334.84h-.82v-7h.82Z" fill="#008bfd"/></g><path d="M77.21,427.2H71.13c-.23,0-.38.14-.38.45v2.18a.36.36,0,0,0,.38.38h3.45v3.38c0,.22.15.37.45.37h2.18a.35.35,0,0,0,.37-.37v-6A.34.34,0,0,0,77.21,427.2ZM60,448.18H56.57V444.8c0-.22-.15-.37-.45-.37H54a.35.35,0,0,0-.38.37v6a.35.35,0,0,0,.38.37H60c.23,0,.38-.15.38-.46v-2.18A.36.36,0,0,0,60,448.18ZM73.6,444.5a.9.9,0,0,0-.45.08l-2.32-4.06a2.9,2.9,0,0,0,.9-2,2.79,2.79,0,0,0-3.9-2.56l-2.48-3.47a2,2,0,0,0,.53-1.5,2.33,2.33,0,1,0-2.33,2.32,2.38,2.38,0,0,0,.75-.14l2.48,3.54a2.82,2.82,0,0,0-.68,1.43l-7.2.6a1.78,1.78,0,0,0-1.65-1,1.88,1.88,0,0,0,0,3.76,1.92,1.92,0,0,0,1.87-1.59l7.06-.6a3.94,3.94,0,0,0,.67,1.22l-1.8,2.93h-.22a1.88,1.88,0,1,0,1.87,1.88,2.11,2.11,0,0,0-.52-1.35l1.72-2.86a4.59,4.59,0,0,0,1,.15,3.94,3.94,0,0,0,.82-.15L72,445.18a2.3,2.3,0,0,0-.68,1.57,2.18,2.18,0,1,0,2.25-2.25Z" fill="#007efd"/><g style="isolation:isolate"><path d="M47.52,465.35h-.91l-.74-2h-3l-.7,2h-.91l2.69-7h.84Zm-1.92-2.7-1.1-3a2.8,2.8,0,0,1-.1-.46h0a2.49,2.49,0,0,1-.12.46l-1.09,3Z" fill="#007efd"/><path d="M49.26,464.63h0v3h-.8v-7.3h.8v.88h0a1.89,1.89,0,0,1,1.73-1,1.82,1.82,0,0,1,1.51.67,2.8,2.8,0,0,1,.54,1.8,3.07,3.07,0,0,1-.61,2,2,2,0,0,1-1.67.76A1.67,1.67,0,0,1,49.26,464.63Zm0-2v.7a1.49,1.49,0,0,0,.41,1.05,1.43,1.43,0,0,0,2.16-.13,2.56,2.56,0,0,0,.41-1.54,2,2,0,0,0-.38-1.31,1.28,1.28,0,0,0-1.05-.48,1.43,1.43,0,0,0-1.12.49A1.8,1.8,0,0,0,49.24,462.61Z" fill="#007efd"/><path d="M55.14,464.63h0v3h-.8v-7.3h.8v.88h0a1.89,1.89,0,0,1,1.73-1,1.82,1.82,0,0,1,1.51.67,2.8,2.8,0,0,1,.54,1.8,3.07,3.07,0,0,1-.61,2,2,2,0,0,1-1.67.76A1.67,1.67,0,0,1,55.14,464.63Zm0-2v.7a1.49,1.49,0,0,0,.41,1.05,1.3,1.3,0,0,0,1,.43,1.33,1.33,0,0,0,1.14-.56,2.56,2.56,0,0,0,.41-1.54,2,2,0,0,0-.38-1.31,1.28,1.28,0,0,0-1-.48,1.43,1.43,0,0,0-1.12.49A1.75,1.75,0,0,0,55.12,462.61Z" fill="#007efd"/><path d="M62.64,465.17v-.86a2.35,2.35,0,0,0,1.44.48c.7,0,1-.23,1-.7a.59.59,0,0,0-.09-.34.94.94,0,0,0-.24-.25,2.42,2.42,0,0,0-.36-.19l-.45-.18a5.37,5.37,0,0,1-.58-.27,1.51,1.51,0,0,1-.42-.3,1.08,1.08,0,0,1-.26-.38,1.5,1.5,0,0,1-.08-.5,1.18,1.18,0,0,1,.16-.63,1.42,1.42,0,0,1,.43-.45,2.28,2.28,0,0,1,.61-.28,2.82,2.82,0,0,1,.71-.09,2.86,2.86,0,0,1,1.16.23v.81a2.18,2.18,0,0,0-1.27-.37,1.25,1.25,0,0,0-.4.06.89.89,0,0,0-.31.14.69.69,0,0,0-.2.22.57.57,0,0,0-.07.29.67.67,0,0,0,.07.33.75.75,0,0,0,.21.23,1.69,1.69,0,0,0,.33.19l.44.18a5.68,5.68,0,0,1,.6.26,2.52,2.52,0,0,1,.45.3,1.08,1.08,0,0,1,.28.39,1.18,1.18,0,0,1,.1.52,1.19,1.19,0,0,1-.16.64,1.38,1.38,0,0,1-.44.46,2,2,0,0,1-.63.27,3,3,0,0,1-.74.09A2.79,2.79,0,0,1,62.64,465.17Z" fill="#007efd"/><path d="M71.2,463.05H67.67a1.85,1.85,0,0,0,.45,1.29,1.56,1.56,0,0,0,1.18.45,2.39,2.39,0,0,0,1.55-.56V465a2.87,2.87,0,0,1-1.74.48,2.09,2.09,0,0,1-1.66-.69,3.18,3.18,0,0,1,0-3.81,2.13,2.13,0,0,1,1.65-.74,1.84,1.84,0,0,1,1.51.64,2.63,2.63,0,0,1,.54,1.76Zm-.82-.68a1.62,1.62,0,0,0-.33-1.08,1.14,1.14,0,0,0-.92-.39,1.28,1.28,0,0,0-1,.41,1.84,1.84,0,0,0-.49,1.06Z" fill="#007efd"/><path d="M76.56,465.35h-.8V462.5c0-1.06-.38-1.6-1.16-1.6a1.26,1.26,0,0,0-1,.46,1.64,1.64,0,0,0-.4,1.14v2.85h-.8v-5h.8v.83h0a1.82,1.82,0,0,1,1.64-.95,1.55,1.55,0,0,1,1.26.53,2.34,2.34,0,0,1,.43,1.53Z" fill="#007efd"/><path d="M81.56,460.58l-3,4.08h2.93v.69H77.42v-.25l3-4.07H77.7v-.68h3.86Z" fill="#007efd"/><path d="M86.17,465.35h-.8v-.78h0a1.82,1.82,0,0,1-2.71.5,1.36,1.36,0,0,1-.42-1.05c0-.93.55-1.48,1.65-1.63l1.5-.21c0-.85-.34-1.28-1-1.28a2.48,2.48,0,0,0-1.63.62v-.82a3.12,3.12,0,0,1,1.7-.47c1.17,0,1.76.62,1.76,1.87Zm-.8-2.53-1.2.16a2,2,0,0,0-.84.28.8.8,0,0,0-.29.7.78.78,0,0,0,.26.6,1.05,1.05,0,0,0,.7.23,1.27,1.27,0,0,0,1-.42,1.47,1.47,0,0,0,.39-1.05Z" fill="#007efd"/><path d="M48,476.63h0v.72h-.8V470h.8v3.28h0a1.89,1.89,0,0,1,1.73-1,1.84,1.84,0,0,1,1.51.67,2.8,2.8,0,0,1,.54,1.8,3.07,3.07,0,0,1-.61,2,2,2,0,0,1-1.67.76A1.65,1.65,0,0,1,48,476.63Zm0-2v.7a1.49,1.49,0,0,0,.41,1.05,1.3,1.3,0,0,0,1,.43,1.33,1.33,0,0,0,1.14-.56,2.56,2.56,0,0,0,.41-1.54,2,2,0,0,0-.38-1.31,1.28,1.28,0,0,0-1-.48,1.42,1.42,0,0,0-1.12.49A1.75,1.75,0,0,0,47.94,474.61Z" fill="#007efd"/><path d="M55.63,473.16A1,1,0,0,0,55,473a1,1,0,0,0-.85.48,2.22,2.22,0,0,0-.35,1.32v2.55H53v-5h.8v1h0a1.71,1.71,0,0,1,.52-.82,1.2,1.2,0,0,1,.79-.3,1.22,1.22,0,0,1,.48.07Z" fill="#007efd"/><path d="M58.59,477.47a2.31,2.31,0,0,1-1.77-.71,2.57,2.57,0,0,1-.66-1.85,2.7,2.7,0,0,1,.68-2,2.49,2.49,0,0,1,1.86-.71,2.25,2.25,0,0,1,1.75.69,2.73,2.73,0,0,1,.63,1.91,2.65,2.65,0,0,1-.68,1.91A2.33,2.33,0,0,1,58.59,477.47Zm.06-4.57a1.54,1.54,0,0,0-1.23.53,2.2,2.2,0,0,0-.44,1.45,2,2,0,0,0,.45,1.4,1.55,1.55,0,0,0,1.22.51,1.48,1.48,0,0,0,1.19-.5,2.18,2.18,0,0,0,.42-1.43,2.22,2.22,0,0,0-.42-1.45A1.46,1.46,0,0,0,58.65,472.9Z" fill="#007efd"/><path d="M68.66,472.35l-1.5,5h-.83l-1-3.58a2.1,2.1,0,0,1-.08-.46h0a3.2,3.2,0,0,1-.1.45L64,477.35h-.8l-1.52-5h.84l1,3.76a3.07,3.07,0,0,1,.07.45h0a1.93,1.93,0,0,1,.08-.46l1.16-3.75h.73l1,3.77a2.29,2.29,0,0,1,.08.45h0a1.65,1.65,0,0,1,.08-.45l1-3.77Z" fill="#007efd"/><path d="M69.28,477.17v-.86a2.4,2.4,0,0,0,1.44.48c.7,0,1.06-.23,1.06-.7a.59.59,0,0,0-.09-.34,1,1,0,0,0-.25-.25,2,2,0,0,0-.36-.19l-.45-.18c-.22-.09-.41-.18-.58-.27a1.51,1.51,0,0,1-.42-.3,1,1,0,0,1-.25-.38,1.28,1.28,0,0,1-.09-.5,1.18,1.18,0,0,1,.16-.63,1.42,1.42,0,0,1,.43-.45,2.28,2.28,0,0,1,.61-.28,2.82,2.82,0,0,1,.71-.09,2.91,2.91,0,0,1,1.17.23v.81a2.2,2.2,0,0,0-1.27-.37,1.31,1.31,0,0,0-.41.06,1,1,0,0,0-.31.14.69.69,0,0,0-.2.22.57.57,0,0,0-.07.29.67.67,0,0,0,.07.33.9.9,0,0,0,.21.23,1.69,1.69,0,0,0,.33.19l.45.18a5.48,5.48,0,0,1,.59.26,2,2,0,0,1,.45.3,1.24,1.24,0,0,1,.29.39,1.34,1.34,0,0,1,.1.52,1.2,1.2,0,0,1-.17.64,1.35,1.35,0,0,1-.43.46,2.22,2.22,0,0,1-.63.27,3.08,3.08,0,0,1-.75.09A2.82,2.82,0,0,1,69.28,477.17Z" fill="#007efd"/><path d="M77.84,475.05H74.31a2,2,0,0,0,.45,1.29,1.57,1.57,0,0,0,1.19.45,2.41,2.41,0,0,0,1.55-.56V477a2.9,2.9,0,0,1-1.75.48,2.09,2.09,0,0,1-1.66-.69,2.79,2.79,0,0,1-.61-1.91,2.74,2.74,0,0,1,.67-1.9,2.11,2.11,0,0,1,1.64-.74,1.87,1.87,0,0,1,1.52.64,2.62,2.62,0,0,1,.53,1.76Zm-.82-.68a1.62,1.62,0,0,0-.33-1.08,1.13,1.13,0,0,0-.92-.39,1.32,1.32,0,0,0-1,.41,1.91,1.91,0,0,0-.49,1.06Z" fill="#007efd"/><path d="M81.66,473.16a1,1,0,0,0-.6-.16,1,1,0,0,0-.86.48,2.23,2.23,0,0,0-.34,1.32v2.55h-.8v-5h.8v1h0a1.64,1.64,0,0,1,.52-.82,1.18,1.18,0,0,1,.78-.3,1.22,1.22,0,0,1,.48.07Z" fill="#007efd"/></g><path d="M71.17,279.66H54.32c-1.48,0-1.5.4-1.5,2.23v29.55c0,1.83,0,2.17,1.49,2.22H71.17c1.47-.05,1.49-.39,1.49-2.22V281.89C72.66,280.06,72.64,279.71,71.17,279.66Zm-10.76,1.15h4.67a.18.18,0,0,1,0,.36H60.41a.18.18,0,0,1,0-.36Zm.12,31.09H59.39c-.19,0-.34-.07-.34-.27s.15-.26.34-.26h1.14c.19,0,.35.07.35.26S60.72,311.9,60.53,311.9Zm3,.2H62c-.26,0-.47-.11-.47-.37s.21-.36.47-.36h1.55c.26,0,.47.1.47.37S63.78,312.1,63.52,312.1Zm2.59-.2H65c-.18,0-.34-.08-.34-.27s.16-.27.34-.27h1.14c.19,0,.34.08.34.27S66.3,311.9,66.11,311.9Zm5.12-3.45c0,1.56-.14,1.9-1.56,1.92H55.81c-1.41,0-1.56-.36-1.56-1.92V283.87c0-1.63.16-1.63,1.74-1.63h13.5c1.59,0,1.75,0,1.75,1.63Z" fill="#008bfd"/><path d="M70.26,284.87c0-1.57-.19-1.58-1.73-1.58H56.9c-1.54,0-1.69,0-1.69,1.58v22.54c0,1.57.16,1.85,1.69,1.85H68.53c1.54,0,1.73-.28,1.73-1.86Zm-8,16.65-4.77-2.83V293l4.77,2.82ZM58,292.25l4.76-2.81,4.78,2.83-4.75,2.81Zm10,6.44-4.77,2.83v-5.63L68,293.07Z" fill="#008bfd"/><g style="isolation:isolate"><g style="isolation:isolate"><path d="M51,327H50l-.74-2h-3l-.7,2h-.91l2.69-7h.85ZM49,324.32l-1.1-3a2.74,2.74,0,0,1-.1-.47h0a2.42,2.42,0,0,1-.12.47l-1.09,3Z" fill="#008bfd"/><path d="M52.69,326.29h0v3h-.8V322h.8v.88h0a1.89,1.89,0,0,1,1.73-1,1.82,1.82,0,0,1,1.51.67,2.8,2.8,0,0,1,.54,1.8,3.07,3.07,0,0,1-.61,2,2,2,0,0,1-1.67.75A1.68,1.68,0,0,1,52.69,326.29Zm0-2v.7a1.49,1.49,0,0,0,.41,1,1.33,1.33,0,0,0,1,.43,1.35,1.35,0,0,0,1.14-.56,2.49,2.49,0,0,0,.41-1.54,2,2,0,0,0-.38-1.31,1.28,1.28,0,0,0-1.05-.48,1.43,1.43,0,0,0-1.12.49A1.8,1.8,0,0,0,52.67,324.28Z" fill="#008bfd"/><path d="M58.57,326.29h0v3h-.8V322h.8v.88h0a1.89,1.89,0,0,1,1.73-1,1.82,1.82,0,0,1,1.51.67,2.8,2.8,0,0,1,.54,1.8,3.07,3.07,0,0,1-.61,2,2,2,0,0,1-1.67.75A1.67,1.67,0,0,1,58.57,326.29Zm0-2v.7a1.49,1.49,0,0,0,.41,1,1.32,1.32,0,0,0,1,.43,1.36,1.36,0,0,0,1.14-.56,2.56,2.56,0,0,0,.41-1.54,2,2,0,0,0-.38-1.31,1.28,1.28,0,0,0-1-.48,1.43,1.43,0,0,0-1.12.49A1.75,1.75,0,0,0,58.55,324.28Z" fill="#008bfd"/><path d="M67.19,326.29h0v3h-.8V322h.8v.88h0a1.88,1.88,0,0,1,1.73-1,1.83,1.83,0,0,1,1.51.67,2.8,2.8,0,0,1,.54,1.8,3.07,3.07,0,0,1-.61,2,2,2,0,0,1-1.67.75A1.67,1.67,0,0,1,67.19,326.29Zm0-2v.7a1.53,1.53,0,0,0,.4,1,1.34,1.34,0,0,0,1,.43,1.36,1.36,0,0,0,1.14-.56,2.56,2.56,0,0,0,.41-1.54,2,2,0,0,0-.39-1.31,1.25,1.25,0,0,0-1-.48,1.42,1.42,0,0,0-1.12.49A1.75,1.75,0,0,0,67.17,324.28Z" fill="#008bfd"/><path d="M76.27,324.72H72.74a1.87,1.87,0,0,0,.45,1.29,1.54,1.54,0,0,0,1.18.45,2.46,2.46,0,0,0,1.55-.56v.76a2.89,2.89,0,0,1-1.74.47,2.11,2.11,0,0,1-1.67-.68,2.79,2.79,0,0,1-.6-1.91,2.76,2.76,0,0,1,.66-1.91,2.15,2.15,0,0,1,1.64-.73,1.88,1.88,0,0,1,1.52.63,2.67,2.67,0,0,1,.54,1.77Zm-.82-.68a1.68,1.68,0,0,0-.34-1.08,1.12,1.12,0,0,0-.91-.39,1.28,1.28,0,0,0-1,.41,1.78,1.78,0,0,0-.49,1.06Z" fill="#008bfd"/><path d="M80.09,322.83a1,1,0,0,0-.61-.16,1,1,0,0,0-.86.48,2.23,2.23,0,0,0-.34,1.32V327h-.8v-5h.8v1h0a1.79,1.79,0,0,1,.52-.83,1.24,1.24,0,0,1,.79-.29,1.22,1.22,0,0,1,.48.07Z" fill="#008bfd"/><path d="M30.29,339h-.8v-.85h0a2,2,0,0,1-3.23.29,2.76,2.76,0,0,1-.56-1.83,3,3,0,0,1,.62-2A2.08,2.08,0,0,1,28,333.9a1.6,1.6,0,0,1,1.5.81h0v-3.1h.8Zm-.8-2.26V336a1.48,1.48,0,0,0-.4-1,1.36,1.36,0,0,0-1-.42,1.37,1.37,0,0,0-1.15.54,2.36,2.36,0,0,0-.42,1.49,2.1,2.1,0,0,0,.4,1.36,1.33,1.33,0,0,0,1.08.5,1.38,1.38,0,0,0,1.09-.48A1.81,1.81,0,0,0,29.49,336.76Z" fill="#008bfd"/><path d="M32.32,332.75a.53.53,0,0,1-.37-.15.53.53,0,0,1,0-.74.53.53,0,0,1,.37-.15.5.5,0,0,1,.37.15.47.47,0,0,1,.16.37.49.49,0,0,1-.16.37A.5.5,0,0,1,32.32,332.75Zm.39,6.27h-.8v-5h.8Z" fill="#008bfd"/><path d="M34,338.84V338a2.4,2.4,0,0,0,1.44.48c.7,0,1.05-.23,1.05-.7a.59.59,0,0,0-.09-.34.82.82,0,0,0-.24-.25,2,2,0,0,0-.36-.19l-.45-.18c-.22-.09-.41-.18-.58-.27a1.74,1.74,0,0,1-.42-.3,1.22,1.22,0,0,1-.26-.38,1.54,1.54,0,0,1-.08-.5,1.18,1.18,0,0,1,.16-.63,1.42,1.42,0,0,1,.43-.45,2,2,0,0,1,.61-.28,2.82,2.82,0,0,1,.71-.09,3.09,3.09,0,0,1,1.17.22v.82a2.23,2.23,0,0,0-1.27-.37,1.7,1.7,0,0,0-.41.05,1.28,1.28,0,0,0-.31.15.6.6,0,0,0-.2.22.57.57,0,0,0-.07.29.61.61,0,0,0,.07.32.79.79,0,0,0,.21.24,1.29,1.29,0,0,0,.33.18l.44.18c.23.09.42.18.6.27a2,2,0,0,1,.45.3,1.08,1.08,0,0,1,.28.39,1.18,1.18,0,0,1,.1.52,1.19,1.19,0,0,1-.16.64,1.29,1.29,0,0,1-.44.46,2,2,0,0,1-.63.27,3.31,3.31,0,0,1-2.08-.21Z" fill="#008bfd"/><path d="M39.4,338.29h0v3h-.8V334h.8v.88h0a1.88,1.88,0,0,1,1.72-1,1.82,1.82,0,0,1,1.51.67,2.8,2.8,0,0,1,.54,1.8,3.07,3.07,0,0,1-.61,2,2,2,0,0,1-1.67.75A1.67,1.67,0,0,1,39.4,338.29Zm0-2v.7a1.48,1.48,0,0,0,.4,1,1.43,1.43,0,0,0,2.16-.13,2.49,2.49,0,0,0,.41-1.54,2,2,0,0,0-.38-1.31,1.28,1.28,0,0,0-1-.48,1.43,1.43,0,0,0-1.12.49A1.79,1.79,0,0,0,39.38,336.28Z" fill="#008bfd"/><path d="M46.54,339.13a2.32,2.32,0,0,1-1.77-.7,2.57,2.57,0,0,1-.66-1.85,2.7,2.7,0,0,1,.69-2,2.49,2.49,0,0,1,1.86-.71,2.25,2.25,0,0,1,1.75.69A2.71,2.71,0,0,1,49,336.5a2.67,2.67,0,0,1-.67,1.91A2.38,2.38,0,0,1,46.54,339.13Zm.06-4.56a1.53,1.53,0,0,0-1.22.53,2.15,2.15,0,0,0-.45,1.45,2,2,0,0,0,.46,1.4,1.53,1.53,0,0,0,1.21.51,1.49,1.49,0,0,0,1.2-.5,2.23,2.23,0,0,0,.41-1.43,2.28,2.28,0,0,0-.41-1.45A1.47,1.47,0,0,0,46.6,334.57Z" fill="#008bfd"/><path d="M50,338.84V338a2.4,2.4,0,0,0,1.44.48c.7,0,1.06-.23,1.06-.7a.59.59,0,0,0-.09-.34.85.85,0,0,0-.25-.25,2,2,0,0,0-.36-.19l-.45-.18c-.22-.09-.41-.18-.58-.27a1.74,1.74,0,0,1-.42-.3,1,1,0,0,1-.25-.38,1.31,1.31,0,0,1-.09-.5,1.18,1.18,0,0,1,.16-.63,1.42,1.42,0,0,1,.43-.45,2,2,0,0,1,.61-.28,2.82,2.82,0,0,1,.71-.09,3.09,3.09,0,0,1,1.17.22v.82a2.2,2.2,0,0,0-1.27-.37,1.7,1.7,0,0,0-.41.05,1.28,1.28,0,0,0-.31.15.7.7,0,0,0-.2.22.57.57,0,0,0-.07.29.61.61,0,0,0,.07.32.79.79,0,0,0,.21.24,1.29,1.29,0,0,0,.33.18l.45.18c.22.09.42.18.59.27a2,2,0,0,1,.45.3,1.24,1.24,0,0,1,.29.39,1.34,1.34,0,0,1,.1.52,1.2,1.2,0,0,1-.17.64,1.35,1.35,0,0,1-.43.46,2.22,2.22,0,0,1-.63.27,3.08,3.08,0,0,1-.75.08A2.94,2.94,0,0,1,50,338.84Z" fill="#008bfd"/><path d="M55,332.75a.52.52,0,1,1,0-1,.51.51,0,0,1,.37.15.5.5,0,0,1,.15.37.51.51,0,0,1-.52.52Zm.39,6.27h-.8v-5h.8Z" fill="#008bfd"/><path d="M59.3,339a1.61,1.61,0,0,1-.75.15c-.87,0-1.31-.48-1.31-1.46v-3h-.86V334h.86V332.8l.8-.26V334H59.3v.68H58v2.82a1.23,1.23,0,0,0,.17.72.68.68,0,0,0,.57.21.79.79,0,0,0,.52-.17Z" fill="#008bfd"/><path d="M60.78,332.75a.52.52,0,1,1,0-1,.51.51,0,0,1,.37.15.5.5,0,0,1,.15.37.51.51,0,0,1-.52.52Zm.39,6.27h-.8v-5h.8Z" fill="#008bfd"/><path d="M66.72,334l-2,5h-.79l-1.89-5h.88l1.27,3.63a3.34,3.34,0,0,1,.17.7h0a3.23,3.23,0,0,1,.16-.68L65.88,334Z" fill="#008bfd"/><path d="M68,332.75a.51.51,0,0,1-.37-.15.53.53,0,0,1,0-.74.51.51,0,0,1,.37-.15.5.5,0,0,1,.37.15.47.47,0,0,1,.16.37.49.49,0,0,1-.16.37A.5.5,0,0,1,68,332.75Zm.39,6.27h-.8v-5h.8Z" fill="#008bfd"/><path d="M79.84,339H79v-2.87a2.19,2.19,0,0,0-.26-1.21,1,1,0,0,0-.86-.37,1.08,1.08,0,0,0-.87.47,1.82,1.82,0,0,0-.36,1.13V339h-.8v-3c0-1-.38-1.48-1.14-1.48a1.05,1.05,0,0,0-.87.45,1.79,1.79,0,0,0-.34,1.15V339h-.8v-5h.8v.79h0a1.69,1.69,0,0,1,1.55-.91,1.41,1.41,0,0,1,.9.29,1.43,1.43,0,0,1,.52.75,1.77,1.77,0,0,1,1.66-1q1.65,0,1.65,2Z" fill="#008bfd"/><path d="M83.44,339.13a2.31,2.31,0,0,1-1.77-.7,2.57,2.57,0,0,1-.66-1.85,2.7,2.7,0,0,1,.69-2,2.49,2.49,0,0,1,1.86-.71,2.25,2.25,0,0,1,1.75.69,2.76,2.76,0,0,1,.62,1.91,2.67,2.67,0,0,1-.67,1.91A2.38,2.38,0,0,1,83.44,339.13Zm.06-4.56a1.53,1.53,0,0,0-1.22.53,2.15,2.15,0,0,0-.45,1.45,2,2,0,0,0,.46,1.4,1.53,1.53,0,0,0,1.21.51,1.49,1.49,0,0,0,1.2-.5,2.23,2.23,0,0,0,.41-1.43,2.28,2.28,0,0,0-.41-1.45A1.47,1.47,0,0,0,83.5,334.57Z" fill="#008bfd"/><path d="M88,338.29h0V339h-.8v-7.41H88v3.29h0a1.89,1.89,0,0,1,1.73-1,1.83,1.83,0,0,1,1.51.67,2.8,2.8,0,0,1,.54,1.8,3.07,3.07,0,0,1-.61,2,2,2,0,0,1-1.67.75A1.65,1.65,0,0,1,88,338.29Zm0-2v.7a1.49,1.49,0,0,0,.41,1,1.33,1.33,0,0,0,1,.43,1.36,1.36,0,0,0,1.14-.56,2.56,2.56,0,0,0,.41-1.54,2,2,0,0,0-.38-1.31,1.28,1.28,0,0,0-1-.48,1.43,1.43,0,0,0-1.12.49A1.8,1.8,0,0,0,88,336.28Z" fill="#008bfd"/><path d="M93.5,332.75a.49.49,0,0,1-.36-.15.51.51,0,0,1,0-.74.49.49,0,0,1,.36-.15.54.54,0,0,1,.38.15.5.5,0,0,1,.15.37.51.51,0,0,1-.15.37A.54.54,0,0,1,93.5,332.75Zm.39,6.27h-.8v-5h.8Z" fill="#008bfd"/><path d="M96.31,339h-.8v-7.41h.8Z" fill="#008bfd"/><path d="M98.35,332.75a.52.52,0,1,1,0-1,.51.51,0,0,1,.37.15.5.5,0,0,1,.15.37.51.51,0,0,1-.52.52Zm.39,6.27h-.8v-5h.8Z" fill="#008bfd"/></g></g><path d="M275.36,292.72l8,4-8,4a9.08,9.08,0,0,0,0-8" fill="#505050"/><path d="M67.79,384.27H53.58V355.89H67.79v7.68h.76v-8.44H52.82V385H68.55v-2.32h-.76Z" fill="#0078d7"/><path d="M67,356.69H54.38v4.58H67Zm-9.58,1.91H64v.76H57.44ZM64,360.45H57.41v-.77H64Z" fill="#0078d7"/><path d="M54.34,362v3h8.6v-1.53H67V362Z" fill="#0078d7"/><rect x="54.34" y="365.86" width="8.6" height="2.68" fill="#0078d7"/><path d="M54.34,383.5H67v-.79H62.91V369.33h-8.6V383.5Zm1.53-2.74h2.29V382H55.87Z" fill="#0078d7"/><path d="M77.57,380.45H75.11v-1.88H72.6v1.88H70.15a1.32,1.32,0,0,0-1.31,1.14h10A1.28,1.28,0,0,0,77.57,380.45Z" fill="#0078d7"/><path d="M82.4,366.47H65.3a.64.64,0,0,0-.67.6V377.2a.64.64,0,0,0,.67.6H82.4a.64.64,0,0,0,.67-.6V367.07A.62.62,0,0,0,82.4,366.47Zm-1,9.84H66.32V368H81.38Z" fill="#0078d7"/><path d="M77.76,373.82v-3.44l-3.51-1.85-3.5,1.78v3.54l3.5,1.81Zm-4.4-2.3.89-.44.86.44-.86.48Zm0-1.14.86-.45.86.45-.86.47Zm1.91,4.52-1,.51v-.93l1-.5Zm0-1.18-1,.51v-.92l1-.51Zm0-1.11-1,.51v-.93l1-.51ZM74.48,371l.86-.45.89.45-.86.45Zm2,3.34-1,.51v-.92l1-.51Zm0-1.17-1,.5v-.92l1-.51Zm0-1.15-1,.51v-.89l1-.51Zm1,1.75-.86.45v-.93l.86-.44Zm0-1.15-.86.45v-.92l.86-.45Zm0-1.14-.86.44V371l.86-.45Zm-.19-1.05-.89.44-.89-.44.86-.45Zm-1.11-.58-.89.45-.86-.45.86-.44Zm-2-1.05.86.45-.86.44-.89-.44Zm-1.11.61.86.44-.86.45-.86-.45Zm-1.08.57.89.45-.89.44-.9-.44Zm-.26,4.27-.86-.45v-.92l.86.44Zm0-1.18-.86-.45v-.92l.86.45Zm0-1.15-.86-.44v-.89l.86.44ZM73,374.8l-1-.51v-.92l1,.51Zm0-1.18-1-.5v-.93l1,.51Zm0-1.14L72,372v-.89l1,.51Zm-.7-1.53.89-.45L74,371l-.89.48Zm1.88,4.46-1-.51V374l1,.51Zm0-1.15-1-.51v-.92l1,.51Zm0-1.14-1-.51v-.93l1,.51Z" fill="#0078d7"/><g style="isolation:isolate"><path d="M59.52,395.73h-.9l-.75-2h-3l-.7,2h-.92l2.69-7h.85ZM57.61,393l-1.1-3a3,3,0,0,1-.11-.47h0a2.74,2.74,0,0,1-.11.47l-1.09,3Z" fill="#0078d7"/><path d="M61.27,395h0v3h-.8v-7.3h.8v.88h0a1.9,1.9,0,0,1,1.73-1,1.84,1.84,0,0,1,1.5.67,2.74,2.74,0,0,1,.55,1.8,3.13,3.13,0,0,1-.61,2,2,2,0,0,1-1.67.76A1.67,1.67,0,0,1,61.27,395Zm0-2v.7a1.48,1.48,0,0,0,.4,1.05,1.44,1.44,0,0,0,2.16-.12,2.53,2.53,0,0,0,.42-1.55,2,2,0,0,0-.39-1.31,1.28,1.28,0,0,0-1-.47,1.44,1.44,0,0,0-1.13.48A1.81,1.81,0,0,0,61.25,393Z" fill="#0078d7"/><path d="M67.15,395h0v3h-.8v-7.3h.8v.88h0a1.9,1.9,0,0,1,1.73-1,1.84,1.84,0,0,1,1.5.67,2.74,2.74,0,0,1,.55,1.8,3.13,3.13,0,0,1-.61,2,2,2,0,0,1-1.67.76A1.67,1.67,0,0,1,67.15,395Zm0-2v.7a1.48,1.48,0,0,0,.4,1.05,1.44,1.44,0,0,0,2.16-.12,2.53,2.53,0,0,0,.42-1.55,2,2,0,0,0-.39-1.31,1.3,1.3,0,0,0-1-.47,1.42,1.42,0,0,0-1.12.48A1.81,1.81,0,0,0,67.13,393Z" fill="#0078d7"/><path d="M49.64,407.73h-.8v-.85h0a1.84,1.84,0,0,1-1.72,1,1.9,1.9,0,0,1-1.51-.67,2.8,2.8,0,0,1-.56-1.83,3,3,0,0,1,.62-2,2.08,2.08,0,0,1,1.67-.75,1.6,1.6,0,0,1,1.5.81h0v-3.09h.8Zm-.8-2.26v-.74a1.41,1.41,0,0,0-.4-1,1.36,1.36,0,0,0-1-.42,1.39,1.39,0,0,0-1.15.53,2.38,2.38,0,0,0-.42,1.49,2.08,2.08,0,0,0,.4,1.36,1.3,1.3,0,0,0,1.08.5,1.38,1.38,0,0,0,1.09-.48A1.79,1.79,0,0,0,48.84,405.47Z" fill="#0078d7"/><path d="M55.28,405.43H51.75a1.83,1.83,0,0,0,.45,1.29,1.54,1.54,0,0,0,1.18.45,2.45,2.45,0,0,0,1.55-.55v.75a2.89,2.89,0,0,1-1.74.48,2.14,2.14,0,0,1-1.67-.68,2.83,2.83,0,0,1-.6-1.92,2.73,2.73,0,0,1,.66-1.9,2.12,2.12,0,0,1,1.64-.74,1.86,1.86,0,0,1,1.52.64,2.63,2.63,0,0,1,.54,1.76Zm-.82-.68a1.62,1.62,0,0,0-.34-1.08,1.15,1.15,0,0,0-.91-.38,1.28,1.28,0,0,0-1,.4,1.81,1.81,0,0,0-.49,1.06Z" fill="#0078d7"/><path d="M56.19,407.55v-.86a2.35,2.35,0,0,0,1.44.48c.7,0,1-.23,1-.7a.62.62,0,0,0-.09-.34.91.91,0,0,0-.24-.24,1.77,1.77,0,0,0-.36-.2l-.45-.18a4,4,0,0,1-.58-.26,1.53,1.53,0,0,1-.42-.31,1,1,0,0,1-.26-.38,1.5,1.5,0,0,1-.08-.5,1.15,1.15,0,0,1,.16-.62,1.35,1.35,0,0,1,.43-.46,2,2,0,0,1,.61-.27,2.83,2.83,0,0,1,.71-.1,2.86,2.86,0,0,1,1.16.23v.81a2.25,2.25,0,0,0-1.27-.36,1.25,1.25,0,0,0-.4,0,.89.89,0,0,0-.31.14.69.69,0,0,0-.2.22A.59.59,0,0,0,57,404a.67.67,0,0,0,.07.33.75.75,0,0,0,.21.23,1.69,1.69,0,0,0,.33.19l.44.18a5.68,5.68,0,0,1,.6.26,2.52,2.52,0,0,1,.45.3,1.08,1.08,0,0,1,.28.39,1.21,1.21,0,0,1,.1.52,1.25,1.25,0,0,1-.16.65,1.45,1.45,0,0,1-.44.45,2,2,0,0,1-.63.27,3,3,0,0,1-.75.09A2.78,2.78,0,0,1,56.19,407.55Z" fill="#0078d7"/><path d="M64.88,407.73H63.76l-2.21-2.4h0v2.4h-.8v-7.4h.8V405h0l2.1-2.29H64.7l-2.32,2.41Z" fill="#0078d7"/><path d="M68,407.68a1.48,1.48,0,0,1-.74.16q-1.32,0-1.32-1.47v-3H65.1v-.68H66v-1.22l.8-.26v1.48H68v.68H66.76v2.82a1.19,1.19,0,0,0,.17.72.71.71,0,0,0,.57.21A.83.83,0,0,0,68,407Z" fill="#0078d7"/><path d="M71.18,407.85a2.34,2.34,0,0,1-1.77-.7,2.61,2.61,0,0,1-.66-1.86,2.7,2.7,0,0,1,.69-2,2.49,2.49,0,0,1,1.86-.71,2.22,2.22,0,0,1,1.74.69,2.73,2.73,0,0,1,.63,1.91,2.69,2.69,0,0,1-.67,1.92A2.38,2.38,0,0,1,71.18,407.85Zm.06-4.56a1.52,1.52,0,0,0-1.22.52,2.17,2.17,0,0,0-.45,1.45,2,2,0,0,0,.45,1.4,1.56,1.56,0,0,0,1.22.51,1.43,1.43,0,0,0,1.19-.5,2.16,2.16,0,0,0,.42-1.43,2.19,2.19,0,0,0-.42-1.44A1.43,1.43,0,0,0,71.24,403.29Z" fill="#0078d7"/><path d="M75.77,407h0v3H75v-7.3h.8v.88h0a1.91,1.91,0,0,1,1.73-1,1.85,1.85,0,0,1,1.51.67,2.8,2.8,0,0,1,.54,1.8,3.07,3.07,0,0,1-.61,2,2,2,0,0,1-1.67.76A1.67,1.67,0,0,1,75.77,407Zm0-2v.7a1.49,1.49,0,0,0,.41,1.05,1.3,1.3,0,0,0,1,.43,1.35,1.35,0,0,0,1.14-.55,2.6,2.6,0,0,0,.41-1.55,2.06,2.06,0,0,0-.38-1.31,1.3,1.3,0,0,0-1-.47,1.41,1.41,0,0,0-1.12.48A1.77,1.77,0,0,0,75.75,405Z" fill="#0078d7"/></g><path d="M7.85,152.05a4.49,4.49,0,0,0-3,5.66c.66,2.56,3,4.22,5.27,3.67a4.49,4.49,0,0,0,3-5.66C12.57,153.05,10.16,151.39,7.85,152.05Z" fill="#008bfd"/><path d="M12.78,162.07c-.43,0-.88.77-1.54,1.11s-1.31.88-3.17,0-2.1-1.67-3.64-1.67-4,2.78-4,6.88H16a12.24,12.24,0,0,0-1.11-4.22C13.77,162.07,13.23,162.07,12.78,162.07Z" fill="#008bfd"/><path d="M14.19,157.12H10.07a.71.71,0,0,0-.65.66v2.85a.73.73,0,0,0,.76.66h.76v5.15a1,1,0,0,0,1,1.09,1,1,0,0,0,1-1h.21v-.66c0-.22.33-.33.33-.33v-.33c-.33-.11-.54-.33-.54-.44v-.32l.21-.22a3.53,3.53,0,0,0,.33-.55,2.4,2.4,0,0,1-.33-.55c-.1-.11-.1-.33-.21-.44v-.22a2.52,2.52,0,0,1,.76-1.09h.54a.71.71,0,0,0,.65-.66v-3A.63.63,0,0,0,14.19,157.12Zm-2.39,9.54c0,.22,0,.33-.21.33s-.22-.22-.22-.33v-4.82c0-.22.11-.33.22-.33s.21.22.21.33Zm.33-7.78a.66.66,0,0,1,0-1.32.71.71,0,0,1,.65.66A.63.63,0,0,1,12.13,158.88Z" fill="#008bfd" stroke="gray" stroke-linecap="round" stroke-linejoin="round" stroke-width="0.75"/><path d="M11.57,167a.24.24,0,0,1-.22-.22v-5a.22.22,0,1,1,.44,0v5.1C11.79,167,11.68,167,11.57,167Z" fill="#fff"/><ellipse cx="12.14" cy="158.2" rx="0.66" ry="0.67" fill="#fff"/><path d="M275.36,292.71l8,4-8,4a9.06,9.06,0,0,0,0-8" fill="#505050"/><path d="M275.37,292.71l8,4-8,4a9,9,0,0,0,0-8" fill="#505050"/><path d="M275.37,292.71l8,4-8,4a9,9,0,0,0,0-8" fill="#505050"/><path d="M275.37,292.71l8,4-8,4a9,9,0,0,0,0-8" fill="#505050"/><path d="M413.15,284h-20.5a1.1,1.1,0,0,0-1.09,1.11v16.74a1.09,1.09,0,0,0,1.09,1.1h5.28a3.29,3.29,0,0,0,3.21,2.27,3.38,3.38,0,0,0,0-6.75,3.29,3.29,0,0,0-3.21,2.27h-4.19v-12h18.31v12H408.6a7.61,7.61,0,0,0-7.46-6.56,8.25,8.25,0,0,0-3.64.92l1,2a5.27,5.27,0,0,1,2.55-.67,5.46,5.46,0,0,1,0,10.92,5.28,5.28,0,0,1-2.55-.68l-1,2a7.4,7.4,0,0,0,3.64.92,7.61,7.61,0,0,0,7.46-6.56h4.55a1.09,1.09,0,0,0,1.09-1.1V285.08A1.14,1.14,0,0,0,413.15,284Z" fill="#008bfd"/><g style="isolation:isolate"><path d="M391.47,322.84h-.91l-.74-2h-3l-.7,2h-.91l2.68-7h.85Zm-1.92-2.7-1.1-3a2.75,2.75,0,0,1-.11-.47h0a2.53,2.53,0,0,1-.11.47l-1.09,3Z" fill="#008bfd"/><path d="M393.21,322.11h0v3h-.8v-7.3h.8v.87h0a1.89,1.89,0,0,1,1.73-1,1.83,1.83,0,0,1,1.51.67,2.8,2.8,0,0,1,.54,1.8,3.09,3.09,0,0,1-.61,2,2,2,0,0,1-1.67.75A1.67,1.67,0,0,1,393.21,322.11Zm0-2v.69a1.53,1.53,0,0,0,.4,1.06,1.37,1.37,0,0,0,1,.43,1.36,1.36,0,0,0,1.14-.56,2.57,2.57,0,0,0,.41-1.55,2,2,0,0,0-.39-1.3,1.25,1.25,0,0,0-1-.48,1.39,1.39,0,0,0-1.12.49A1.75,1.75,0,0,0,393.19,320.1Z" fill="#008bfd"/><path d="M399.09,322.11h0v3h-.8v-7.3h.8v.87h0a1.89,1.89,0,0,1,1.73-1,1.83,1.83,0,0,1,1.51.67,2.8,2.8,0,0,1,.54,1.8,3.09,3.09,0,0,1-.61,2,2,2,0,0,1-1.67.75A1.67,1.67,0,0,1,399.09,322.11Zm0-2v.69a1.49,1.49,0,0,0,.4,1.06,1.37,1.37,0,0,0,1,.43,1.36,1.36,0,0,0,1.14-.56,2.57,2.57,0,0,0,.41-1.55,2,2,0,0,0-.39-1.3,1.25,1.25,0,0,0-1-.48,1.39,1.39,0,0,0-1.12.49A1.75,1.75,0,0,0,399.07,320.1Z" fill="#008bfd"/><path d="M407.71,322.11h0v3h-.8v-7.3h.8v.87h0a1.89,1.89,0,0,1,1.73-1,1.84,1.84,0,0,1,1.51.67,2.8,2.8,0,0,1,.54,1.8,3.15,3.15,0,0,1-.61,2,2,2,0,0,1-1.67.75A1.67,1.67,0,0,1,407.71,322.11Zm0-2v.69a1.49,1.49,0,0,0,.4,1.06,1.37,1.37,0,0,0,1,.43,1.33,1.33,0,0,0,1.14-.56,2.51,2.51,0,0,0,.42-1.55,2,2,0,0,0-.39-1.3,1.26,1.26,0,0,0-1-.48,1.42,1.42,0,0,0-1.13.49A1.79,1.79,0,0,0,407.69,320.1Z" fill="#008bfd"/><path d="M416.79,320.54h-3.54a1.92,1.92,0,0,0,.45,1.28,1.54,1.54,0,0,0,1.19.46,2.46,2.46,0,0,0,1.55-.56v.75a2.89,2.89,0,0,1-1.74.48,2.09,2.09,0,0,1-1.67-.68,3.17,3.17,0,0,1,.06-3.82,2.12,2.12,0,0,1,1.64-.73,1.9,1.9,0,0,1,1.52.63,2.66,2.66,0,0,1,.54,1.77Zm-.83-.68a1.6,1.6,0,0,0-.33-1.08,1.13,1.13,0,0,0-.92-.39,1.32,1.32,0,0,0-1,.41,1.91,1.91,0,0,0-.49,1.06Z" fill="#008bfd"/><path d="M420.6,318.65a1,1,0,0,0-.6-.17,1,1,0,0,0-.86.49,2.23,2.23,0,0,0-.34,1.32v2.55H418v-5h.8v1h0a1.67,1.67,0,0,1,.52-.83,1.33,1.33,0,0,1,1.26-.22Z" fill="#008bfd"/><path d="M392,334.84h-.8v-7.41h.8Z" fill="#008bfd"/><path d="M397.6,332.54h-3.53a1.87,1.87,0,0,0,.44,1.28,1.54,1.54,0,0,0,1.19.46,2.46,2.46,0,0,0,1.55-.56v.75a2.89,2.89,0,0,1-1.74.48,2.09,2.09,0,0,1-1.67-.68,2.79,2.79,0,0,1-.6-1.91,2.76,2.76,0,0,1,.66-1.91,2.12,2.12,0,0,1,1.64-.73,1.9,1.9,0,0,1,1.52.63,2.66,2.66,0,0,1,.54,1.77Zm-.82-.68a1.66,1.66,0,0,0-.34-1.08,1.12,1.12,0,0,0-.91-.39,1.32,1.32,0,0,0-1,.41,1.83,1.83,0,0,0-.48,1.06Z" fill="#008bfd"/><path d="M407.07,334.84h-.9l-.75-2h-3l-.69,2h-.92l2.69-7h.85Zm-1.92-2.7-1.09-3a2,2,0,0,1-.11-.47h0a2.53,2.53,0,0,1-.11.47l-1.09,3Z" fill="#008bfd"/><path d="M408.92,332.19v2.65h-.82v-7H410a2.56,2.56,0,0,1,1.74.55,2,2,0,0,1,.62,1.54,2.1,2.1,0,0,1-.69,1.63,2.6,2.6,0,0,1-1.85.64Zm0-3.61v2.87h.86a1.92,1.92,0,0,0,1.3-.39,1.38,1.38,0,0,0,.45-1.1c0-.92-.55-1.38-1.64-1.38Z" fill="#008bfd"/><path d="M414.52,334.84h-.82v-7h.82Z" fill="#008bfd"/></g><path d="M383.08,292.71l8,4-8,4a9,9,0,0,0,0-8" fill="#505050"/><path d="M10.33,216.18a4.49,4.49,0,0,0-3,5.66c.66,2.56,3,4.22,5.27,3.67a4.49,4.49,0,0,0,3-5.66C15.05,217.18,12.64,215.52,10.33,216.18Z" fill="#008bfd"/><path d="M15.27,226.2c-.44,0-.88.77-1.54,1.11s-1.32.88-3.18,0-2.09-1.67-3.63-1.67-4.06,2.78-4.06,6.88H18.45a12.14,12.14,0,0,0-1.1-4.22C16.25,226.2,15.71,226.2,15.27,226.2Z" fill="#008bfd"/><path d="M16.67,221.25H12.55a.71.71,0,0,0-.65.66v2.85a.73.73,0,0,0,.76.66h.76v5.15a1,1,0,0,0,1,1.09,1,1,0,0,0,1-1h.21V230c0-.22.33-.33.33-.33v-.33c-.33-.11-.54-.33-.54-.44v-.32l.21-.22a3.53,3.53,0,0,0,.33-.55,2.4,2.4,0,0,1-.33-.55c-.1-.11-.1-.33-.21-.44v-.22a2.52,2.52,0,0,1,.76-1.09h.54a.71.71,0,0,0,.65-.66v-3A.63.63,0,0,0,16.67,221.25Zm-2.39,9.54c0,.22,0,.33-.21.33s-.22-.22-.22-.33V226c0-.22.11-.33.22-.33s.21.22.21.33Zm.33-7.78a.66.66,0,0,1,0-1.32.71.71,0,0,1,.65.66A.63.63,0,0,1,14.61,223Z" fill="#008bfd" stroke="gray" stroke-linecap="round" stroke-linejoin="round" stroke-width="0.75"/><path d="M14.05,231.09a.24.24,0,0,1-.22-.22v-5a.22.22,0,1,1,.44,0V231C14.27,231.09,14.16,231.09,14.05,231.09Z" fill="#fff"/><ellipse cx="14.62" cy="222.34" rx="0.66" ry="0.67" fill="#fff"/><path d="M7.85,76.58a4.49,4.49,0,0,0-3,5.66c.66,2.56,3,4.22,5.27,3.67a4.49,4.49,0,0,0,3-5.66C12.57,77.58,10.16,75.92,7.85,76.58Z" fill="#008bfd"/><path d="M12.78,86.6c-.43,0-.88.77-1.54,1.11s-1.31.88-3.17,0S6,86,4.43,86s-4,2.78-4,6.88H16a12.24,12.24,0,0,0-1.11-4.22C13.77,86.6,13.23,86.6,12.78,86.6Z" fill="#008bfd"/><path d="M14.19,81.65H10.07a.71.71,0,0,0-.65.66v2.85a.73.73,0,0,0,.76.66h.76V91a1,1,0,0,0,1,1.09,1,1,0,0,0,1-1h.21v-.66c0-.22.33-.33.33-.33v-.33c-.33-.11-.54-.33-.54-.44V89l.21-.22a3.53,3.53,0,0,0,.33-.55,2.4,2.4,0,0,1-.33-.55c-.1-.11-.1-.33-.21-.44V87a2.52,2.52,0,0,1,.76-1.09h.54a.71.71,0,0,0,.65-.66v-3A.63.63,0,0,0,14.19,81.65ZM11.8,91.19c0,.22,0,.33-.21.33s-.22-.22-.22-.33V86.37c0-.22.11-.33.22-.33s.21.22.21.33Zm.33-7.78a.66.66,0,0,1,0-1.32.71.71,0,0,1,.65.66A.63.63,0,0,1,12.13,83.41Z" fill="#008bfd" stroke="gray" stroke-linecap="round" stroke-linejoin="round" stroke-width="0.75"/><path d="M11.57,91.49a.24.24,0,0,1-.22-.22v-5a.22.22,0,1,1,.44,0v5.1C11.79,91.49,11.68,91.49,11.57,91.49Z" fill="#fff"/><ellipse cx="12.14" cy="82.73" rx="0.66" ry="0.67" fill="#fff"/><path d="M10.33,368.69a4.49,4.49,0,0,0-3,5.66c.66,2.56,3,4.22,5.27,3.67a4.49,4.49,0,0,0,3-5.66C15.05,369.69,12.64,368,10.33,368.69Z" fill="#008bfd"/><path d="M15.27,378.71c-.44,0-.88.77-1.54,1.11s-1.32.88-3.18,0-2.09-1.67-3.63-1.67S2.86,380.93,2.86,385H18.45a12.14,12.14,0,0,0-1.1-4.22C16.25,378.71,15.71,378.71,15.27,378.71Z" fill="#008bfd"/><path d="M16.67,373.76H12.55a.71.71,0,0,0-.65.66v2.85a.73.73,0,0,0,.76.66h.76v5.15a1,1,0,0,0,1,1.09,1,1,0,0,0,1-1h.21v-.66c0-.22.33-.33.33-.33v-.33c-.33-.11-.54-.33-.54-.44v-.32l.21-.22a3.53,3.53,0,0,0,.33-.55,2.4,2.4,0,0,1-.33-.55c-.1-.11-.1-.33-.21-.44v-.22a2.52,2.52,0,0,1,.76-1.09h.54a.71.71,0,0,0,.65-.66v-3A.63.63,0,0,0,16.67,373.76Zm-2.39,9.54c0,.22,0,.33-.21.33s-.22-.22-.22-.33v-4.82c0-.22.11-.33.22-.33s.21.22.21.33Zm.33-7.78a.66.66,0,0,1,0-1.32.71.71,0,0,1,.65.66A.63.63,0,0,1,14.61,375.52Z" fill="#008bfd" stroke="gray" stroke-linecap="round" stroke-linejoin="round" stroke-width="0.75"/><path d="M14.05,383.6a.24.24,0,0,1-.22-.22v-5a.22.22,0,1,1,.44,0v5.1C14.27,383.6,14.16,383.6,14.05,383.6Z" fill="#fff"/><ellipse cx="14.62" cy="374.84" rx="0.66" ry="0.67" fill="#fff"/><path d="M10.33,431.4a4.49,4.49,0,0,0-3,5.66c.66,2.56,3,4.22,5.27,3.67a4.49,4.49,0,0,0,3-5.66C15.05,432.4,12.64,430.74,10.33,431.4Z" fill="#008bfd"/><path d="M15.27,441.42c-.44,0-.88.77-1.54,1.11s-1.32.88-3.18,0-2.09-1.67-3.63-1.67-4.06,2.78-4.06,6.88H18.45a12.14,12.14,0,0,0-1.1-4.22C16.25,441.42,15.71,441.42,15.27,441.42Z" fill="#008bfd"/><path d="M16.67,436.47H12.55a.71.71,0,0,0-.65.66V440a.73.73,0,0,0,.76.66h.76v5.15a1,1,0,0,0,1,1.09,1,1,0,0,0,1-1h.21v-.66c0-.22.33-.33.33-.33v-.33c-.33-.11-.54-.33-.54-.44v-.32l.21-.22a3.53,3.53,0,0,0,.33-.55,2.4,2.4,0,0,1-.33-.55c-.1-.11-.1-.33-.21-.44v-.22a2.52,2.52,0,0,1,.76-1.09h.54a.71.71,0,0,0,.65-.66v-3A.63.63,0,0,0,16.67,436.47ZM14.28,446c0,.22,0,.33-.21.33s-.22-.22-.22-.33v-4.82c0-.22.11-.33.22-.33s.21.22.21.33Zm.33-7.78a.66.66,0,0,1,0-1.32.71.71,0,0,1,.65.66A.63.63,0,0,1,14.61,438.23Z" fill="#008bfd" stroke="gray" stroke-linecap="round" stroke-linejoin="round" stroke-width="0.75"/><path d="M14.05,446.31a.24.24,0,0,1-.22-.22v-5a.22.22,0,1,1,.44,0v5.1C14.27,446.31,14.16,446.31,14.05,446.31Z" fill="#fff"/><ellipse cx="14.62" cy="437.56" rx="0.66" ry="0.67" fill="#fff"/><g style="isolation:isolate"><path d="M42.45,42.13h-.9l-.75-2h-3l-.69,2h-.92l2.69-7h.85Zm-1.91-2.7-1.1-3a2,2,0,0,1-.11-.47h0a2.53,2.53,0,0,1-.11.47l-1.09,3Z" fill="#008bfd"/><path d="M44,41.41h0v3h-.8v-7.3h.8V38h0a1.89,1.89,0,0,1,1.73-1,1.81,1.81,0,0,1,1.5.67,2.74,2.74,0,0,1,.55,1.8,3.15,3.15,0,0,1-.61,2,2,2,0,0,1-1.67.75A1.67,1.67,0,0,1,44,41.41Zm0-2v.69a1.49,1.49,0,0,0,.4,1.06,1.37,1.37,0,0,0,1,.43A1.33,1.33,0,0,0,46.49,41a2.53,2.53,0,0,0,.42-1.55,2,2,0,0,0-.39-1.3,1.26,1.26,0,0,0-1-.48,1.42,1.42,0,0,0-1.13.49A1.79,1.79,0,0,0,43.93,39.4Z" fill="#008bfd"/><path d="M49.58,41.41h0v3h-.8v-7.3h.8V38h0a1.89,1.89,0,0,1,1.72-1,1.82,1.82,0,0,1,1.51.67,2.8,2.8,0,0,1,.55,1.8,3.15,3.15,0,0,1-.61,2,2,2,0,0,1-1.67.75A1.67,1.67,0,0,1,49.58,41.41Zm0-2v.69a1.49,1.49,0,0,0,.4,1.06,1.37,1.37,0,0,0,1,.43A1.33,1.33,0,0,0,52.12,41a2.53,2.53,0,0,0,.42-1.55,2,2,0,0,0-.39-1.3,1.28,1.28,0,0,0-1-.48,1.4,1.4,0,0,0-1.12.49A1.79,1.79,0,0,0,49.56,39.4Z" fill="#008bfd"/><path d="M55.19,42.13h-.81v-7.4h.81Z" fill="#008bfd"/><path d="M57,35.87a.51.51,0,0,1-.52-.52A.52.52,0,0,1,56.6,35a.53.53,0,0,1,.37-.14.55.55,0,0,1,.37.14.52.52,0,0,1,.15.38.49.49,0,0,1-.15.36A.52.52,0,0,1,57,35.87Zm.39,6.26h-.8v-5h.8Z" fill="#008bfd"/><path d="M62.14,41.91a2.63,2.63,0,0,1-1.37.34A2.29,2.29,0,0,1,59,41.56a2.57,2.57,0,0,1-.65-1.81,2.77,2.77,0,0,1,.7-2A2.5,2.5,0,0,1,61,37a2.72,2.72,0,0,1,1.17.24v.82A2,2,0,0,0,61,37.69a1.58,1.58,0,0,0-1.26.55,2.08,2.08,0,0,0-.49,1.44,2,2,0,0,0,.46,1.39,1.59,1.59,0,0,0,1.24.51,2,2,0,0,0,1.23-.44Z" fill="#008bfd"/><path d="M66.68,42.13h-.8v-.78h0a1.68,1.68,0,0,1-1.54.9,1.65,1.65,0,0,1-1.17-.39,1.39,1.39,0,0,1-.42-1c0-.94.55-1.48,1.65-1.63l1.5-.21c0-.85-.35-1.28-1-1.28a2.49,2.49,0,0,0-1.64.62v-.82a3.06,3.06,0,0,1,1.7-.47q1.77,0,1.77,1.86Zm-.8-2.52-1.21.16a2,2,0,0,0-.84.28.78.78,0,0,0-.28.7.76.76,0,0,0,.26.6,1,1,0,0,0,.69.23,1.29,1.29,0,0,0,1-.42,1.49,1.49,0,0,0,.39-1.06Z" fill="#008bfd"/><path d="M71.42,37.36l-3,4.09h2.93v.68h-4.1v-.24l3-4.07H67.56v-.69h3.86Z" fill="#008bfd"/><path d="M72.62,35.87a.51.51,0,0,1-.52-.52.52.52,0,0,1,.15-.38.53.53,0,0,1,.37-.14A.55.55,0,0,1,73,35a.52.52,0,0,1,.15.38.49.49,0,0,1-.15.36A.52.52,0,0,1,72.62,35.87ZM73,42.13h-.8v-5H73Z" fill="#008bfd"/><path d="M76.47,42.25a2.31,2.31,0,0,1-1.77-.7A2.61,2.61,0,0,1,74,39.69a2.68,2.68,0,0,1,.69-2A2.42,2.42,0,0,1,76.59,37a2.24,2.24,0,0,1,1.74.69A2.72,2.72,0,0,1,79,39.62a2.69,2.69,0,0,1-.68,1.91A2.36,2.36,0,0,1,76.47,42.25Zm.06-4.56a1.52,1.52,0,0,0-1.22.53,2.14,2.14,0,0,0-.45,1.44,2.08,2.08,0,0,0,.45,1.41,1.55,1.55,0,0,0,1.22.51,1.48,1.48,0,0,0,1.19-.5,2.68,2.68,0,0,0,0-2.88A1.46,1.46,0,0,0,76.53,37.69Z" fill="#008bfd"/><path d="M84.14,42.13h-.8V39.28c0-1.06-.39-1.59-1.16-1.59a1.27,1.27,0,0,0-1,.45,1.68,1.68,0,0,0-.39,1.14v2.85H80v-5h.8V38h0A1.8,1.8,0,0,1,82.45,37a1.5,1.5,0,0,1,1.25.53,2.35,2.35,0,0,1,.44,1.53Z" fill="#008bfd"/><path d="M89.42,39.84H85.89a1.87,1.87,0,0,0,.44,1.28,1.55,1.55,0,0,0,1.19.46A2.46,2.46,0,0,0,89.07,41v.75a2.89,2.89,0,0,1-1.74.48,2.13,2.13,0,0,1-1.67-.68,2.8,2.8,0,0,1-.6-1.92,2.75,2.75,0,0,1,.66-1.9A2.12,2.12,0,0,1,87.36,37a1.9,1.9,0,0,1,1.52.63,2.66,2.66,0,0,1,.54,1.77Zm-.82-.68a1.64,1.64,0,0,0-.34-1.08,1.12,1.12,0,0,0-.91-.39,1.32,1.32,0,0,0-1,.41,1.83,1.83,0,0,0-.48,1.06Z" fill="#008bfd"/><path d="M33.14,54.13h-.8v-.78h0a1.82,1.82,0,0,1-2.7.51,1.37,1.37,0,0,1-.43-1c0-.94.55-1.48,1.65-1.63l1.5-.21c0-.85-.34-1.28-1-1.28a2.48,2.48,0,0,0-1.63.62v-.82a3,3,0,0,1,1.7-.47c1.18,0,1.76.62,1.76,1.86Zm-.8-2.52-1.2.16a2,2,0,0,0-.84.28.79.79,0,0,0-.29.7.77.77,0,0,0,.27.6,1,1,0,0,0,.69.23,1.29,1.29,0,0,0,1-.42,1.53,1.53,0,0,0,.38-1.06Z" fill="#008bfd"/><path d="M37.71,53.41h0v3h-.8v-7.3h.8V50h0a1.9,1.9,0,0,1,1.73-1,1.82,1.82,0,0,1,1.51.67,2.8,2.8,0,0,1,.54,1.8,3.09,3.09,0,0,1-.61,2,2,2,0,0,1-1.67.75A1.67,1.67,0,0,1,37.71,53.41Zm0-2v.69a1.5,1.5,0,0,0,.41,1.06A1.43,1.43,0,0,0,40.26,53a2.6,2.6,0,0,0,.41-1.55,2,2,0,0,0-.38-1.3,1.28,1.28,0,0,0-1-.48,1.4,1.4,0,0,0-1.12.49A1.75,1.75,0,0,0,37.69,51.4Z" fill="#008bfd"/><path d="M46.1,54.13h-.8v-.78h0a1.68,1.68,0,0,1-1.54.9,1.65,1.65,0,0,1-1.17-.39,1.39,1.39,0,0,1-.42-1c0-.94.55-1.48,1.65-1.63L45.3,51c0-.85-.34-1.28-1-1.28a2.46,2.46,0,0,0-1.63.62v-.82a3,3,0,0,1,1.7-.47c1.17,0,1.76.62,1.76,1.86Zm-.8-2.52-1.21.16a2,2,0,0,0-.84.28.78.78,0,0,0-.28.7.79.79,0,0,0,.26.6,1.05,1.05,0,0,0,.7.23,1.29,1.29,0,0,0,1-.42,1.49,1.49,0,0,0,.39-1.06Z" fill="#008bfd"/><path d="M51.63,53.73q0,2.76-2.64,2.76a3.58,3.58,0,0,1-1.62-.35v-.8A3.33,3.33,0,0,0,49,55.8c1.23,0,1.85-.65,1.85-2V53.3h0a2,2,0,0,1-3.22.29A2.67,2.67,0,0,1,47,51.8a3.11,3.11,0,0,1,.61-2A2.06,2.06,0,0,1,49.31,49a1.64,1.64,0,0,1,1.5.81h0v-.7h.8Zm-.8-1.86v-.73a1.42,1.42,0,0,0-.41-1,1.3,1.3,0,0,0-1-.43,1.39,1.39,0,0,0-1.16.54,2.4,2.4,0,0,0-.42,1.51,2.08,2.08,0,0,0,.4,1.34,1.31,1.31,0,0,0,1.07.5,1.38,1.38,0,0,0,1.09-.48A1.76,1.76,0,0,0,50.83,51.87Z" fill="#008bfd"/><path d="M53.41,47.87a.51.51,0,0,1-.37-.15.5.5,0,0,1-.15-.37A.52.52,0,0,1,53,47a.56.56,0,0,1,.74,0,.53.53,0,0,1,.16.38.5.5,0,0,1-.16.36A.52.52,0,0,1,53.41,47.87Zm.39,6.26H53v-5h.8Z" fill="#008bfd"/><path d="M59.32,54.13h-.8V51.28c0-1.06-.39-1.59-1.16-1.59a1.29,1.29,0,0,0-1,.45A1.68,1.68,0,0,0,56,51.28v2.85h-.8v-5H56V50h0A1.8,1.8,0,0,1,57.63,49a1.52,1.52,0,0,1,1.26.53,2.34,2.34,0,0,1,.43,1.53Z" fill="#008bfd"/><path d="M64.16,54.13h-.8v-.78h0a1.68,1.68,0,0,1-1.54.9,1.65,1.65,0,0,1-1.17-.39,1.39,1.39,0,0,1-.42-1c0-.94.55-1.48,1.65-1.63l1.5-.21c0-.85-.35-1.28-1-1.28a2.46,2.46,0,0,0-1.63.62v-.82A3,3,0,0,1,62.4,49c1.17,0,1.76.62,1.76,1.86Zm-.8-2.52-1.21.16a2,2,0,0,0-.84.28.78.78,0,0,0-.28.7.79.79,0,0,0,.26.6,1,1,0,0,0,.7.23,1.29,1.29,0,0,0,1-.42,1.49,1.49,0,0,0,.39-1.06Z" fill="#008bfd"/><path d="M67.6,54v-.86a2.34,2.34,0,0,0,1.44.49c.71,0,1.06-.24,1.06-.7a.59.59,0,0,0-.09-.34.75.75,0,0,0-.25-.25,1.52,1.52,0,0,0-.36-.19L69,51.92a5.6,5.6,0,0,1-.59-.27,2,2,0,0,1-.42-.3A1.19,1.19,0,0,1,67.7,51a1.33,1.33,0,0,1-.09-.51,1.27,1.27,0,0,1,.16-.62,1.42,1.42,0,0,1,.43-.45,1.84,1.84,0,0,1,.62-.28,2.76,2.76,0,0,1,.71-.09,2.86,2.86,0,0,1,1.16.22v.81a2.27,2.27,0,0,0-1.27-.36,1.77,1.77,0,0,0-.41.05,1.28,1.28,0,0,0-.31.15.7.7,0,0,0-.2.22.68.68,0,0,0-.07.28.81.81,0,0,0,.07.33.79.79,0,0,0,.21.24,1.69,1.69,0,0,0,.33.18l.45.18c.22.09.42.17.59.26a1.7,1.7,0,0,1,.45.31,1.17,1.17,0,0,1,.29.38,1.22,1.22,0,0,1,.1.53,1.32,1.32,0,0,1-.16.64,1.48,1.48,0,0,1-.44.46,1.78,1.78,0,0,1-.63.26,3.08,3.08,0,0,1-.75.09A2.85,2.85,0,0,1,67.6,54Z" fill="#008bfd"/><path d="M72.31,47.87a.51.51,0,0,1-.37-.15.5.5,0,0,1-.15-.37.52.52,0,0,1,.15-.38.55.55,0,0,1,.37-.14.53.53,0,0,1,.37.14.49.49,0,0,1,.16.38.46.46,0,0,1-.16.36A.51.51,0,0,1,72.31,47.87Zm.39,6.26h-.8v-5h.8Z" fill="#008bfd"/><path d="M78.22,54.13h-.8V51.28c0-1.06-.39-1.59-1.16-1.59a1.25,1.25,0,0,0-1,.45,1.64,1.64,0,0,0-.4,1.14v2.85h-.8v-5h.8V50h0A1.81,1.81,0,0,1,76.53,49a1.52,1.52,0,0,1,1.26.53,2.34,2.34,0,0,1,.43,1.53Z" fill="#008bfd"/><path d="M83.75,53.73q0,2.76-2.64,2.76a3.58,3.58,0,0,1-1.62-.35v-.8a3.33,3.33,0,0,0,1.61.46c1.23,0,1.85-.65,1.85-2V53.3h0a2,2,0,0,1-3.22.29,2.67,2.67,0,0,1-.57-1.79,3.11,3.11,0,0,1,.61-2A2.06,2.06,0,0,1,81.43,49a1.64,1.64,0,0,1,1.5.81h0v-.7h.8ZM83,51.87v-.73a1.42,1.42,0,0,0-.41-1,1.29,1.29,0,0,0-1-.43,1.39,1.39,0,0,0-1.16.54A2.4,2.4,0,0,0,80,51.74a2.08,2.08,0,0,0,.4,1.34,1.32,1.32,0,0,0,1.07.5,1.38,1.38,0,0,0,1.09-.48A1.76,1.76,0,0,0,83,51.87Z" fill="#008bfd"/><path d="M87.21,54.25a2.31,2.31,0,0,1-1.77-.7,2.61,2.61,0,0,1-.66-1.86,2.68,2.68,0,0,1,.69-2A2.42,2.42,0,0,1,87.33,49a2.24,2.24,0,0,1,1.74.69,2.72,2.72,0,0,1,.63,1.91A2.69,2.69,0,0,1,89,53.53,2.36,2.36,0,0,1,87.21,54.25Zm.06-4.56a1.52,1.52,0,0,0-1.22.53,2.14,2.14,0,0,0-.45,1.44,2.08,2.08,0,0,0,.45,1.41,1.55,1.55,0,0,0,1.22.51,1.47,1.47,0,0,0,1.19-.5,2.68,2.68,0,0,0,0-2.88A1.45,1.45,0,0,0,87.27,49.69Z" fill="#008bfd"/><path d="M91.53,54.13h-.8v-7.4h.8Z" fill="#008bfd"/><path d="M96.48,54.13h-.8v-.78h0a1.68,1.68,0,0,1-1.54.9A1.65,1.65,0,0,1,93,53.86a1.39,1.39,0,0,1-.42-1c0-.94.55-1.48,1.65-1.63l1.5-.21c0-.85-.34-1.28-1-1.28a2.46,2.46,0,0,0-1.63.62v-.82a3,3,0,0,1,1.7-.47c1.17,0,1.76.62,1.76,1.86Zm-.8-2.52-1.21.16a2,2,0,0,0-.84.28.78.78,0,0,0-.28.7.79.79,0,0,0,.26.6,1.05,1.05,0,0,0,.7.23,1.29,1.29,0,0,0,1-.42,1.49,1.49,0,0,0,.39-1.06Z" fill="#008bfd"/></g><path d="M7.85,6.77a4.49,4.49,0,0,0-3,5.66c.66,2.56,3,4.22,5.27,3.67a4.49,4.49,0,0,0,3-5.66C12.57,7.77,10.16,6.11,7.85,6.77Z" fill="#008bfd"/><path d="M12.78,16.79c-.43,0-.88.77-1.54,1.11s-1.31.88-3.17,0S6,16.23,4.43,16.23s-4,2.78-4,6.88H16a12.24,12.24,0,0,0-1.11-4.22C13.77,16.79,13.23,16.79,12.78,16.79Z" fill="#008bfd"/><path d="M14.19,11.84H10.07a.71.71,0,0,0-.65.66v2.85a.73.73,0,0,0,.76.66h.76v5.15a1,1,0,0,0,1,1.09,1,1,0,0,0,1-1h.21v-.66c0-.22.33-.33.33-.33V20c-.33-.11-.54-.33-.54-.44v-.32L13.1,19a3.53,3.53,0,0,0,.33-.55,2.4,2.4,0,0,1-.33-.55c-.1-.11-.1-.33-.21-.44v-.22a2.52,2.52,0,0,1,.76-1.09h.54a.71.71,0,0,0,.65-.66v-3A.63.63,0,0,0,14.19,11.84ZM11.8,21.38c0,.22,0,.33-.21.33s-.22-.22-.22-.33V16.56c0-.22.11-.33.22-.33s.21.22.21.33Zm.33-7.78a.66.66,0,0,1,0-1.32.71.71,0,0,1,.65.66A.63.63,0,0,1,12.13,13.6Z" fill="#008bfd" stroke="gray" stroke-linecap="round" stroke-linejoin="round" stroke-width="0.75"/><path d="M11.57,21.68a.24.24,0,0,1-.22-.22v-5a.22.22,0,1,1,.44,0v5.1C11.79,21.68,11.68,21.68,11.57,21.68Z" fill="#fff"/><ellipse cx="12.14" cy="12.93" rx="0.66" ry="0.67" fill="#fff"/><g style="isolation:isolate"><path d="M48.8,111.94h-.91l-.74-2h-3l-.7,2h-.91l2.69-7h.85Zm-1.92-2.7-1.1-3a2.8,2.8,0,0,1-.1-.46h0a2.49,2.49,0,0,1-.12.46l-1.08,3Z" fill="#008bfd"/><path d="M50.54,111.22h0v3h-.8v-7.3h.8v.88h0a1.89,1.89,0,0,1,1.73-1,1.82,1.82,0,0,1,1.51.67,2.8,2.8,0,0,1,.54,1.8,3.07,3.07,0,0,1-.61,2,2,2,0,0,1-1.67.76A1.71,1.71,0,0,1,50.54,111.22Zm0-2v.7a1.49,1.49,0,0,0,.41,1,1.33,1.33,0,0,0,1,.43,1.31,1.31,0,0,0,1.14-.56,2.49,2.49,0,0,0,.41-1.54,2,2,0,0,0-.38-1.31,1.28,1.28,0,0,0-1-.48A1.43,1.43,0,0,0,51,108,1.8,1.8,0,0,0,50.52,109.2Z" fill="#008bfd"/><path d="M56.42,111.22h0v3h-.8v-7.3h.8v.88h0a1.89,1.89,0,0,1,1.73-1,1.82,1.82,0,0,1,1.51.67,2.8,2.8,0,0,1,.54,1.8,3.07,3.07,0,0,1-.61,2,2,2,0,0,1-1.67.76A1.69,1.69,0,0,1,56.42,111.22Zm0-2v.7a1.49,1.49,0,0,0,.41,1,1.43,1.43,0,0,0,2.16-.13,2.56,2.56,0,0,0,.41-1.54A2,2,0,0,0,59,108a1.28,1.28,0,0,0-1-.48,1.43,1.43,0,0,0-1.12.49A1.8,1.8,0,0,0,56.4,109.2Z" fill="#008bfd"/><path d="M72.63,104.94l-2,7h-1l-1.44-5.12a3.19,3.19,0,0,1-.11-.71h0a3.32,3.32,0,0,1-.13.7l-1.45,5.13h-1l-2.05-7h.9l1.49,5.37a3.94,3.94,0,0,1,.12.7h0a5,5,0,0,1,.15-.7l1.55-5.37h.79L70,110.35a4.48,4.48,0,0,1,.12.65h0a4,4,0,0,1,.13-.67l1.43-5.39Z" fill="#008bfd"/><path d="M77.19,109.64H73.66a1.87,1.87,0,0,0,.45,1.29,1.56,1.56,0,0,0,1.18.45,2.41,2.41,0,0,0,1.55-.56v.76a2.89,2.89,0,0,1-1.74.48,2.08,2.08,0,0,1-1.66-.69,3.18,3.18,0,0,1,0-3.81,2.12,2.12,0,0,1,1.64-.74,1.86,1.86,0,0,1,1.52.64,2.63,2.63,0,0,1,.54,1.76Zm-.82-.68a1.68,1.68,0,0,0-.33-1.08,1.14,1.14,0,0,0-.92-.39,1.28,1.28,0,0,0-1,.41,1.78,1.78,0,0,0-.49,1.06Z" fill="#008bfd"/><path d="M79.22,111.22h0v.72h-.8v-7.4h.8v3.28h0a1.89,1.89,0,0,1,1.73-1,1.84,1.84,0,0,1,1.51.67,2.8,2.8,0,0,1,.54,1.8,3.07,3.07,0,0,1-.61,2,2,2,0,0,1-1.67.76A1.67,1.67,0,0,1,79.22,111.22Zm0-2v.7a1.53,1.53,0,0,0,.4,1,1.44,1.44,0,0,0,2.17-.13,2.56,2.56,0,0,0,.41-1.54,2,2,0,0,0-.39-1.31,1.25,1.25,0,0,0-1-.48,1.42,1.42,0,0,0-1.12.49A1.75,1.75,0,0,0,79.2,109.2Z" fill="#008bfd"/></g><path d="M10.33,288.82a4.49,4.49,0,0,0-3,5.66c.66,2.56,3,4.22,5.27,3.67a4.49,4.49,0,0,0,3-5.66C15.05,289.82,12.64,288.16,10.33,288.82Z" fill="#008bfd"/><path d="M15.27,298.84c-.44,0-.88.77-1.54,1.11s-1.32.88-3.18,0-2.09-1.67-3.63-1.67-4.06,2.78-4.06,6.88H18.45a12.14,12.14,0,0,0-1.1-4.22C16.25,298.84,15.71,298.84,15.27,298.84Z" fill="#008bfd"/><path d="M16.67,293.89H12.55a.71.71,0,0,0-.65.66v2.85a.73.73,0,0,0,.76.66h.76v5.15a1,1,0,0,0,1,1.09,1,1,0,0,0,1-1h.21v-.66c0-.22.33-.33.33-.33V302c-.33-.11-.54-.33-.54-.44v-.32l.21-.22a3.53,3.53,0,0,0,.33-.55,2.4,2.4,0,0,1-.33-.55c-.1-.11-.1-.33-.21-.44v-.22a2.52,2.52,0,0,1,.76-1.09h.54a.71.71,0,0,0,.65-.66v-3A.63.63,0,0,0,16.67,293.89Zm-2.39,9.54c0,.22,0,.33-.21.33s-.22-.22-.22-.33v-4.82c0-.22.11-.33.22-.33s.21.22.21.33Zm.33-7.78a.66.66,0,0,1,0-1.32.71.71,0,0,1,.65.66A.63.63,0,0,1,14.61,295.65Z" fill="#008bfd" stroke="gray" stroke-linecap="round" stroke-linejoin="round" stroke-width="0.75"/><path d="M14.05,303.73a.24.24,0,0,1-.22-.22v-5a.22.22,0,1,1,.44,0v5.1C14.27,303.73,14.16,303.73,14.05,303.73Z" fill="#fff"/><ellipse cx="14.62" cy="294.98" rx="0.66" ry="0.67" fill="#fff"/><path d="M264.46,263.21l-15.91,11.42,6.08,18.48h19.66l6.08-18.48Z" fill="#fff" stroke="#000" stroke-linecap="round" stroke-linejoin="round" stroke-width="0.24"/><path d="M264.14,270.32a4.49,4.49,0,0,0-3,5.66c.66,2.56,3,4.22,5.27,3.67a4.49,4.49,0,0,0,3-5.66C268.86,271.32,266.45,269.66,264.14,270.32Z" fill="#008bfd"/><path d="M269.07,280.34c-.44,0-.88.77-1.54,1.11s-1.32.88-3.18,0-2.09-1.67-3.63-1.67-4.06,2.78-4.06,6.88h15.59a12.14,12.14,0,0,0-1.1-4.22C270.05,280.34,269.51,280.34,269.07,280.34Z" fill="#008bfd"/><path d="M270.48,275.4h-4.12a.71.71,0,0,0-.65.66v2.85a.73.73,0,0,0,.76.66h.76v5.15a1,1,0,0,0,1,1.09,1,1,0,0,0,1-1h.21v-.66c0-.22.33-.33.33-.33v-.33c-.33-.11-.54-.33-.54-.44v-.32l.21-.22a3.53,3.53,0,0,0,.33-.55,2.4,2.4,0,0,1-.33-.55c-.1-.11-.1-.33-.21-.44v-.22a2.52,2.52,0,0,1,.76-1.09h.54a.71.71,0,0,0,.65-.66v-3A.63.63,0,0,0,270.48,275.4Zm-2.39,9.54c0,.22,0,.33-.21.33s-.22-.22-.22-.33v-4.82c0-.22.11-.33.22-.33s.21.22.21.33Zm.33-7.78a.66.66,0,0,1,0-1.32.71.71,0,0,1,.65.66A.63.63,0,0,1,268.42,277.16Z" fill="#008bfd" stroke="gray" stroke-linecap="round" stroke-linejoin="round" stroke-width="0.75"/><path d="M267.86,285.23a.24.24,0,0,1-.22-.22v-5a.22.22,0,1,1,.44,0v5.1C268.08,285.23,268,285.23,267.86,285.23Z" fill="#fff"/><ellipse cx="268.43" cy="276.48" rx="0.66" ry="0.67" fill="#fff"/><line x1="276.38" y1="296.73" x2="73.36" y2="296.73" fill="none" stroke="#505050" stroke-miterlimit="10"/><line x1="386.63" y1="296.73" x2="307.18" y2="296.73" fill="none" stroke="#505050" stroke-miterlimit="10"/><path d="M77.1,154h75.16C167.5,154,179,164.68,179,183v73.78c0,18-1,40,37,40" fill="none" stroke="#505050" stroke-miterlimit="10"/><path d="M77.1,224.92h75.16c15.24,0,26.74,10.66,26.74,29" fill="none" stroke="#505050" stroke-miterlimit="10"/><path d="M77.1,439.45h75.16c15.24,0,26.74-10.66,26.74-29V336.69c0-18-1-39.95,37-39.95" fill="none" stroke="#505050" stroke-miterlimit="10"/><path d="M83.32,368.55h70.57c14.31,0,25.11-10.65,25.11-29" fill="none" stroke="#505050" stroke-miterlimit="10"/><g style="isolation:isolate"><path d="M42.45,181.8h-.9l-.75-2h-3l-.69,2h-.92l2.69-7h.85Zm-1.91-2.7-1.1-3a2.18,2.18,0,0,1-.11-.47h0a2.74,2.74,0,0,1-.11.47l-1.09,3Z" fill="#008bfd"/><path d="M44,181.08h0v3h-.8v-7.3h.8v.88h0a1.9,1.9,0,0,1,1.73-1,1.82,1.82,0,0,1,1.5.68,2.7,2.7,0,0,1,.55,1.79,3.13,3.13,0,0,1-.61,2,2,2,0,0,1-1.67.76A1.67,1.67,0,0,1,44,181.08Zm0-2v.7a1.48,1.48,0,0,0,.4,1.05,1.44,1.44,0,0,0,2.16-.12,2.53,2.53,0,0,0,.42-1.55,2,2,0,0,0-.39-1.31,1.28,1.28,0,0,0-1-.47,1.44,1.44,0,0,0-1.13.48A1.81,1.81,0,0,0,43.93,179.06Z" fill="#008bfd"/><path d="M49.58,181.08h0v3h-.8v-7.3h.8v.88h0a1.9,1.9,0,0,1,1.72-1,1.82,1.82,0,0,1,1.51.68,2.75,2.75,0,0,1,.55,1.79,3.13,3.13,0,0,1-.61,2,2,2,0,0,1-1.67.76A1.67,1.67,0,0,1,49.58,181.08Zm0-2v.7a1.48,1.48,0,0,0,.4,1.05,1.44,1.44,0,0,0,2.16-.12,2.53,2.53,0,0,0,.42-1.55,2,2,0,0,0-.39-1.31,1.3,1.3,0,0,0-1-.47,1.42,1.42,0,0,0-1.12.48A1.81,1.81,0,0,0,49.56,179.06Z" fill="#008bfd"/><path d="M55.19,181.8h-.81v-7.4h.81Z" fill="#008bfd"/><path d="M57,175.53a.53.53,0,0,1-.37-.14.52.52,0,0,1-.15-.38.51.51,0,0,1,.52-.52.51.51,0,0,1,.37.15.53.53,0,0,1,0,.74A.51.51,0,0,1,57,175.53Zm.39,6.27h-.8v-5h.8Z" fill="#008bfd"/><path d="M62.14,181.57a2.63,2.63,0,0,1-1.37.35,2.26,2.26,0,0,1-1.73-.7,2.53,2.53,0,0,1-.65-1.8,2.8,2.8,0,0,1,.7-2,2.5,2.5,0,0,1,1.89-.75,2.72,2.72,0,0,1,1.17.25v.82a2,2,0,0,0-1.19-.39,1.58,1.58,0,0,0-1.26.55,2,2,0,0,0-.49,1.44,2,2,0,0,0,.46,1.39,1.58,1.58,0,0,0,1.24.5,2,2,0,0,0,1.23-.43Z" fill="#008bfd"/><path d="M66.68,181.8h-.8V181h0a1.68,1.68,0,0,1-1.54.9,1.61,1.61,0,0,1-1.17-.4,1.36,1.36,0,0,1-.42-1.05c0-.93.55-1.47,1.65-1.63l1.5-.21c0-.85-.35-1.27-1-1.27a2.47,2.47,0,0,0-1.64.61v-.82a3.15,3.15,0,0,1,1.7-.47c1.18,0,1.77.63,1.77,1.87Zm-.8-2.53-1.21.17a2,2,0,0,0-.84.27.81.81,0,0,0-.28.7.73.73,0,0,0,.26.6,1,1,0,0,0,.69.23,1.28,1.28,0,0,0,1-.41,1.49,1.49,0,0,0,.39-1.06Z" fill="#008bfd"/><path d="M71.42,177l-3,4.09h2.93v.68h-4.1v-.25l3-4.07H67.56v-.68h3.86Z" fill="#008bfd"/><path d="M72.62,175.53a.53.53,0,0,1-.37-.14.52.52,0,0,1-.15-.38.51.51,0,0,1,.52-.52.51.51,0,0,1,.37.15.53.53,0,0,1,0,.74A.51.51,0,0,1,72.62,175.53ZM73,181.8h-.8v-5H73Z" fill="#008bfd"/><path d="M76.47,181.92a2.31,2.31,0,0,1-1.77-.7,2.61,2.61,0,0,1-.66-1.86,2.7,2.7,0,0,1,.69-2,2.46,2.46,0,0,1,1.86-.71,2.24,2.24,0,0,1,1.74.69,2.73,2.73,0,0,1,.63,1.91,2.7,2.7,0,0,1-.68,1.92A2.36,2.36,0,0,1,76.47,181.92Zm.06-4.56a1.51,1.51,0,0,0-1.22.52,2.17,2.17,0,0,0-.45,1.45,2,2,0,0,0,.45,1.4,1.55,1.55,0,0,0,1.22.51,1.45,1.45,0,0,0,1.19-.5,2.16,2.16,0,0,0,.42-1.43,2.19,2.19,0,0,0-.42-1.44A1.46,1.46,0,0,0,76.53,177.36Z" fill="#008bfd"/><path d="M84.14,181.8h-.8V179c0-1.06-.39-1.59-1.16-1.59a1.27,1.27,0,0,0-1,.45,1.68,1.68,0,0,0-.39,1.14v2.85H80v-5h.8v.83h0a1.81,1.81,0,0,1,1.64-.95,1.53,1.53,0,0,1,1.25.53,2.38,2.38,0,0,1,.44,1.53Z" fill="#008bfd"/><path d="M89.42,179.5H85.89a1.87,1.87,0,0,0,.44,1.29,1.58,1.58,0,0,0,1.19.45,2.45,2.45,0,0,0,1.55-.55v.75a2.89,2.89,0,0,1-1.74.48,2.13,2.13,0,0,1-1.67-.68,2.83,2.83,0,0,1-.6-1.92,2.73,2.73,0,0,1,.66-1.9,2.12,2.12,0,0,1,1.64-.74,1.9,1.9,0,0,1,1.52.64,2.63,2.63,0,0,1,.54,1.76Zm-.82-.68a1.68,1.68,0,0,0-.34-1.08,1.15,1.15,0,0,0-.91-.38,1.31,1.31,0,0,0-1,.4,1.86,1.86,0,0,0-.48,1.06Z" fill="#008bfd"/><path d="M33.14,193.8h-.8V193h0a1.66,1.66,0,0,1-1.53.9,1.61,1.61,0,0,1-1.17-.4,1.34,1.34,0,0,1-.43-1.05c0-.93.55-1.47,1.65-1.63l1.5-.21c0-.85-.34-1.27-1-1.27a2.47,2.47,0,0,0-1.63.61v-.82a3.12,3.12,0,0,1,1.7-.47c1.18,0,1.76.63,1.76,1.87Zm-.8-2.53-1.2.17a2,2,0,0,0-.84.27.81.81,0,0,0-.29.7.74.74,0,0,0,.27.6,1,1,0,0,0,.69.23,1.28,1.28,0,0,0,1-.41,1.53,1.53,0,0,0,.38-1.06Z" fill="#008bfd"/><path d="M37.71,193.08h0v3h-.8v-7.3h.8v.88h0a1.91,1.91,0,0,1,1.73-1,1.82,1.82,0,0,1,1.51.68,2.75,2.75,0,0,1,.54,1.79,3.07,3.07,0,0,1-.61,2,2,2,0,0,1-1.67.76A1.67,1.67,0,0,1,37.71,193.08Zm0-2v.7a1.49,1.49,0,0,0,.41,1.05,1.32,1.32,0,0,0,1,.43,1.35,1.35,0,0,0,1.14-.55,2.6,2.6,0,0,0,.41-1.55,2.06,2.06,0,0,0-.38-1.31,1.3,1.3,0,0,0-1-.47,1.42,1.42,0,0,0-1.12.48A1.77,1.77,0,0,0,37.69,191.06Z" fill="#008bfd"/><path d="M46.1,193.8h-.8V193h0a1.68,1.68,0,0,1-1.54.9,1.61,1.61,0,0,1-1.17-.4,1.36,1.36,0,0,1-.42-1.05c0-.93.55-1.47,1.65-1.63l1.5-.21c0-.85-.34-1.27-1-1.27a2.45,2.45,0,0,0-1.63.61v-.82a3.12,3.12,0,0,1,1.7-.47c1.17,0,1.76.63,1.76,1.87Zm-.8-2.53-1.21.17a2,2,0,0,0-.84.27.81.81,0,0,0-.28.7.76.76,0,0,0,.26.6,1,1,0,0,0,.7.23,1.28,1.28,0,0,0,1-.41,1.49,1.49,0,0,0,.39-1.06Z" fill="#008bfd"/><path d="M51.63,193.4c0,1.84-.88,2.75-2.64,2.75a3.45,3.45,0,0,1-1.62-.35V195a3.24,3.24,0,0,0,1.61.47c1.23,0,1.85-.65,1.85-2V193h0a2,2,0,0,1-3.22.29,2.65,2.65,0,0,1-.57-1.79,3.08,3.08,0,0,1,.61-2,2.06,2.06,0,0,1,1.68-.76,1.64,1.64,0,0,1,1.5.81h0v-.69h.8Zm-.8-1.86v-.74a1.45,1.45,0,0,0-.41-1,1.33,1.33,0,0,0-1-.42,1.39,1.39,0,0,0-1.16.54,2.4,2.4,0,0,0-.42,1.51,2,2,0,0,0,.4,1.33,1.28,1.28,0,0,0,1.07.5,1.37,1.37,0,0,0,1.09-.47A1.76,1.76,0,0,0,50.83,191.54Z" fill="#008bfd"/><path d="M53.41,187.53a.55.55,0,0,1-.37-.14.52.52,0,0,1-.15-.38.5.5,0,0,1,.15-.37.53.53,0,0,1,.74,0,.51.51,0,0,1,0,.74A.51.51,0,0,1,53.41,187.53Zm.39,6.27H53v-5h.8Z" fill="#008bfd"/><path d="M59.32,193.8h-.8V191c0-1.06-.39-1.59-1.16-1.59a1.29,1.29,0,0,0-1,.45A1.68,1.68,0,0,0,56,191v2.85h-.8v-5H56v.83h0a1.81,1.81,0,0,1,1.64-.95,1.55,1.55,0,0,1,1.26.53,2.38,2.38,0,0,1,.43,1.53Z" fill="#008bfd"/><path d="M64.16,193.8h-.8V193h0a1.68,1.68,0,0,1-1.54.9,1.61,1.61,0,0,1-1.17-.4,1.36,1.36,0,0,1-.42-1.05c0-.93.55-1.47,1.65-1.63l1.5-.21c0-.85-.35-1.27-1-1.27a2.45,2.45,0,0,0-1.63.61v-.82a3.1,3.1,0,0,1,1.7-.47c1.17,0,1.76.63,1.76,1.87Zm-.8-2.53-1.21.17a2,2,0,0,0-.84.27.81.81,0,0,0-.28.7.76.76,0,0,0,.26.6,1,1,0,0,0,.7.23,1.28,1.28,0,0,0,1-.41,1.49,1.49,0,0,0,.39-1.06Z" fill="#008bfd"/><path d="M67.6,193.62v-.86a2.4,2.4,0,0,0,1.44.48c.71,0,1.06-.23,1.06-.7a.62.62,0,0,0-.09-.34.82.82,0,0,0-.25-.24,1.54,1.54,0,0,0-.36-.2l-.44-.18a4.15,4.15,0,0,1-.59-.26A2,2,0,0,1,68,191a1.24,1.24,0,0,1-.25-.39,1.34,1.34,0,0,1,.07-1.12,1.45,1.45,0,0,1,.43-.46,2,2,0,0,1,.62-.27,2.77,2.77,0,0,1,.71-.1,2.86,2.86,0,0,1,1.16.23v.81a2.27,2.27,0,0,0-1.27-.36,1.36,1.36,0,0,0-.41,0,1,1,0,0,0-.31.14.83.83,0,0,0-.2.22.73.73,0,0,0-.07.29.81.81,0,0,0,.07.33.76.76,0,0,0,.21.23,1.69,1.69,0,0,0,.33.19l.45.18a4.72,4.72,0,0,1,.59.26,2,2,0,0,1,.45.3,1.11,1.11,0,0,1,.29.39,1.21,1.21,0,0,1,.1.52,1.33,1.33,0,0,1-.16.65,1.45,1.45,0,0,1-.44.45,2,2,0,0,1-.63.27,3.08,3.08,0,0,1-.75.09A2.85,2.85,0,0,1,67.6,193.62Z" fill="#008bfd"/><path d="M72.31,187.53a.55.55,0,0,1-.37-.14.52.52,0,0,1-.15-.38.5.5,0,0,1,.15-.37.51.51,0,0,1,.37-.15.5.5,0,0,1,.37.15.51.51,0,0,1,0,.74A.5.5,0,0,1,72.31,187.53Zm.39,6.27h-.8v-5h.8Z" fill="#008bfd"/><path d="M78.22,193.8h-.8V191c0-1.06-.39-1.59-1.16-1.59a1.25,1.25,0,0,0-1,.45,1.64,1.64,0,0,0-.4,1.14v2.85h-.8v-5h.8v.83h0a1.82,1.82,0,0,1,1.64-.95,1.55,1.55,0,0,1,1.26.53,2.38,2.38,0,0,1,.43,1.53Z" fill="#008bfd"/><path d="M83.75,193.4c0,1.84-.88,2.75-2.64,2.75a3.45,3.45,0,0,1-1.62-.35V195a3.24,3.24,0,0,0,1.61.47c1.23,0,1.85-.65,1.85-2V193h0a2,2,0,0,1-3.22.29,2.65,2.65,0,0,1-.57-1.79,3.08,3.08,0,0,1,.61-2,2.06,2.06,0,0,1,1.68-.76,1.64,1.64,0,0,1,1.5.81h0v-.69h.8Zm-.8-1.86v-.74a1.45,1.45,0,0,0-.41-1,1.31,1.31,0,0,0-1-.42,1.39,1.39,0,0,0-1.16.54,2.4,2.4,0,0,0-.42,1.51,2,2,0,0,0,.4,1.33,1.29,1.29,0,0,0,1.07.5,1.37,1.37,0,0,0,1.09-.47A1.76,1.76,0,0,0,83,191.54Z" fill="#008bfd"/><path d="M87.21,193.92a2.31,2.31,0,0,1-1.77-.7,2.61,2.61,0,0,1-.66-1.86,2.7,2.7,0,0,1,.69-2,2.46,2.46,0,0,1,1.86-.71,2.24,2.24,0,0,1,1.74.69,2.73,2.73,0,0,1,.63,1.91A2.7,2.7,0,0,1,89,193.2,2.36,2.36,0,0,1,87.21,193.92Zm.06-4.56a1.51,1.51,0,0,0-1.22.52,2.17,2.17,0,0,0-.45,1.45,2,2,0,0,0,.45,1.4,1.55,1.55,0,0,0,1.22.51,1.44,1.44,0,0,0,1.19-.5,2.16,2.16,0,0,0,.42-1.43,2.19,2.19,0,0,0-.42-1.44A1.45,1.45,0,0,0,87.27,189.36Z" fill="#008bfd"/><path d="M91.53,193.8h-.8v-7.4h.8Z" fill="#008bfd"/><path d="M96.48,193.8h-.8V193h0a1.68,1.68,0,0,1-1.54.9,1.61,1.61,0,0,1-1.17-.4,1.36,1.36,0,0,1-.42-1.05c0-.93.55-1.47,1.65-1.63l1.5-.21c0-.85-.34-1.27-1-1.27A2.45,2.45,0,0,0,93,190v-.82a3.12,3.12,0,0,1,1.7-.47c1.17,0,1.76.63,1.76,1.87Zm-.8-2.53-1.21.17a2,2,0,0,0-.84.27.81.81,0,0,0-.28.7.76.76,0,0,0,.26.6,1,1,0,0,0,.7.23,1.28,1.28,0,0,0,1-.41,1.49,1.49,0,0,0,.39-1.06Z" fill="#008bfd"/></g><path d="M70,233.73a11.81,11.81,0,0,1-16.84-2.29,12.56,12.56,0,0,1,2.24-17.29,11.82,11.82,0,0,1,16.84,2.3A12.54,12.54,0,0,1,70,233.73Zm3.66-18.41a13.57,13.57,0,0,0-19.36-2.63,14.43,14.43,0,0,0-2.55,19.87,13.62,13.62,0,0,0,11,5.55,13.45,13.45,0,0,0,8.39-2.92A14.44,14.44,0,0,0,73.69,215.32Z" fill="#008bfd"/><path d="M56.06,226.52a17,17,0,0,1-2-2.35,18.28,18.28,0,0,0-1.66,6.88c.11.16.11.29.23.44a12.55,12.55,0,0,0,2,2A14.13,14.13,0,0,1,56.06,226.52Z" fill="#008bfd"/><path d="M60.67,217.08a21,21,0,0,0-3.33,3,15.71,15.71,0,0,0-1.61,2.05,15.42,15.42,0,0,0,1.9,2.46,16.32,16.32,0,0,1,2.2-2.56A26.47,26.47,0,0,1,63,219.4C62.16,218.64,61.38,217.87,60.67,217.08Z" fill="#008bfd"/><path d="M72.15,216.28a12,12,0,0,0-1.73-1.82,12.53,12.53,0,0,0-8,1.53c.76.84,1.51,1.63,2.24,2.36C69,215.92,72.15,216.28,72.15,216.28Z" fill="#008bfd"/><path d="M54.34,224.31a19.82,19.82,0,0,1,1.19-2.06,9.84,9.84,0,0,1-1.6-6.79,13.09,13.09,0,0,0-1.29,1.6C52.26,218.67,52.24,221.23,54.34,224.31Z" fill="#008bfd"/><path d="M59.9,226.7a21.6,21.6,0,0,1-2.27-2.14,14.25,14.25,0,0,0-1.14,1.95,23.54,23.54,0,0,0,2.09,1.91,19.12,19.12,0,0,0,12.56,4.38,9,9,0,0,0,1.54-1.94C71.45,231.12,66.19,231.81,59.9,226.7Z" fill="#008bfd"/><path d="M54.55,224.16a15.72,15.72,0,0,0,2,2.35,15.36,15.36,0,0,1,1.14-1.95,15.42,15.42,0,0,1-1.9-2.46A15.58,15.58,0,0,0,54.55,224.16Z" fill="#008bfd"/><path d="M63,219.4a97,97,0,0,0,11.15,8.82,9.82,9.82,0,0,0,.33-1.05,95.51,95.51,0,0,1-9.83-8.82Q63.82,218.8,63,219.4Z" fill="#008bfd"/><path d="M62.38,216q-1.65-1.77-3.36-3.8a10.05,10.05,0,0,0-1.59.66,26.3,26.3,0,0,0,3.24,4.22A17.22,17.22,0,0,1,62.38,216Z" fill="#008bfd"/><path d="M62.45,216a18.74,18.74,0,0,0-1.87,1.19c.72.78,1.45,1.59,2.25,2.35.57-.4,1.34-.88,1.87-1.18C64,217.58,63.21,216.79,62.45,216Z" fill="#008bfd"/><path d="M62.25,215.85A16.24,16.24,0,0,0,60.58,217c.72.79,1.74,1.81,2.54,2.57.57-.4,1.05-.8,1.58-1.11C64,217.71,63,216.68,62.25,215.85Z" fill="#008bfd"/><path d="M68.3,222.4a2.7,2.7,0,0,0-.48,3.7,2.56,2.56,0,0,0,3.63.51,2.72,2.72,0,0,0,.48-3.72A2.55,2.55,0,0,0,68.3,222.4Z" fill="#008bfd"/><path d="M63.13,228.53a2.52,2.52,0,0,0-.45,3.44,2.37,2.37,0,0,0,3.36.45,2.49,2.49,0,0,0,.44-3.43A2.36,2.36,0,0,0,63.13,228.53Z" fill="#008bfd"/><path d="M54,221.2a3.79,3.79,0,0,0-.68,5.21,3.58,3.58,0,0,0,5.1.7,3.8,3.8,0,0,0,.67-5.23A3.59,3.59,0,0,0,54,221.2Z" fill="#008bfd"/></svg>