<svg xmlns="http://www.w3.org/2000/svg" viewBox="0 0 204.71 69.22"><defs><style>.cls-1,.cls-3{fill:#008bfd;}.cls-2{fill:#505050;}.cls-3{stroke:gray;stroke-linecap:round;stroke-linejoin:round;stroke-width:0.75px;}.cls-4{fill:#fff;}.cls-5{fill:#00b0f0;}</style></defs><title>OJ104546510</title><g id="shapes"><g id="group1071-4"><g id="group1072-5"><g id="shape1073-6"><path class="cls-1" d="M66,32.83a11.78,11.78,0,0,1-16.84-2.29,12.56,12.56,0,0,1,2.24-17.29,11.82,11.82,0,0,1,16.84,2.3A12.54,12.54,0,0,1,66,32.83Zm3.66-18.41a13.57,13.57,0,0,0-19.36-2.63,14.43,14.43,0,0,0-2.55,19.87A13.55,13.55,0,0,0,67.13,34.3,14.45,14.45,0,0,0,69.69,14.42Z"/></g></g><g id="group1074-8"><g id="group1075-9"><g id="group1076-10"><g id="shape1077-11"><path class="cls-1" d="M52.06,25.61a17,17,0,0,1-2-2.35,18.28,18.28,0,0,0-1.66,6.88c.11.16.11.29.23.45a13.4,13.4,0,0,0,2,2.05A14.14,14.14,0,0,1,52.06,25.61Z"/></g></g><g id="shape1078-13"><path class="cls-1" d="M56.67,16.17a21,21,0,0,0-3.33,3,15.71,15.71,0,0,0-1.61,2.05,15.93,15.93,0,0,0,1.9,2.47,15.93,15.93,0,0,1,2.2-2.57A26.31,26.31,0,0,1,59,18.5C58.16,17.73,57.38,17,56.67,16.17Z"/></g><g id="group1079-15"><g id="shape1080-16"><path class="cls-1" d="M68.14,15.37a12.47,12.47,0,0,0-1.73-1.82,12.55,12.55,0,0,0-8,1.54c.76.83,1.51,1.62,2.24,2.36C65,15,68.14,15.37,68.14,15.37Z"/></g></g><g id="group1081-18"><g id="shape1082-19"><path class="cls-1" d="M50.54,32.64a19.94,19.94,0,0,1,1.19-2.07,9.83,9.83,0,0,1-1.6-6.79,13.9,13.9,0,0,0-1.29,1.6C48.46,27,48.44,29.55,50.54,32.64Z"/></g></g><g id="group1083-21"><g id="shape1084-22"><path class="cls-1" d="M55.9,25.79a22.67,22.67,0,0,1-2.27-2.13,13.15,13.15,0,0,0-1.14,1.95,25.16,25.16,0,0,0,2.09,1.9A19.15,19.15,0,0,0,67.14,31.9,9.13,9.13,0,0,0,68.68,30C67.45,30.21,62.19,30.9,55.9,25.79Z"/></g></g><g id="group1085-24"><g id="shape1086-25"><path class="cls-1" d="M50.54,23.26a16.8,16.8,0,0,0,2,2.35,14.09,14.09,0,0,1,1.14-1.95,15.93,15.93,0,0,1-1.9-2.47A15.67,15.67,0,0,0,50.54,23.26Z"/></g></g><g id="group1087-27"><g id="shape1088-28"><path class="cls-1" d="M59,18.49a98.68,98.68,0,0,0,11.15,8.83,10.76,10.76,0,0,0,.33-1.06,95,95,0,0,1-9.83-8.81A17.67,17.67,0,0,0,59,18.49Z"/></g></g><g id="group1089-30"><g id="shape1090-31"><path class="cls-1" d="M58.38,15.08c-1.1-1.18-2.22-2.44-3.36-3.8a11.09,11.09,0,0,0-1.59.66,26.8,26.8,0,0,0,3.24,4.23A15.69,15.69,0,0,1,58.38,15.08Z"/></g></g><g id="shape1091-33"><path class="cls-1" d="M58.45,15a18.74,18.74,0,0,0-1.87,1.19c.72.79,1.45,1.59,2.25,2.36.57-.41,1.34-.89,1.87-1.19C60,16.67,59.21,15.88,58.45,15Z"/></g><g id="shape1092-35"><path class="cls-1" d="M58.25,14.94a14.89,14.89,0,0,0-1.67,1.13c.72.78,1.74,1.8,2.54,2.57a18.53,18.53,0,0,1,1.58-1.11C60,16.8,59,15.78,58.25,14.94Z"/></g></g><g id="group1093-37"><g id="shape1094-38"><path class="cls-1" d="M64.3,21.49a2.71,2.71,0,0,0-.48,3.71,2.55,2.55,0,0,0,3.63.5A2.72,2.72,0,0,0,67.93,22,2.55,2.55,0,0,0,64.3,21.49Z"/></g></g><g id="group1095-40"><g id="shape1096-41"><path class="cls-1" d="M49.34,28.11a2.51,2.51,0,0,0-.45,3.43,2.37,2.37,0,0,0,3.36.46,2.49,2.49,0,0,0,.44-3.43A2.35,2.35,0,0,0,49.34,28.11Z"/></g></g><g id="group1097-43"><g id="shape1098-44"><path class="cls-1" d="M50,20.3a3.79,3.79,0,0,0-.68,5.21,3.57,3.57,0,0,0,5.1.69A3.8,3.8,0,0,0,55.08,21,3.58,3.58,0,0,0,50,20.3Z"/></g></g></g></g><g id="shape1099-49"><path class="cls-1" d="M191.76,10.11h-20.5a1.1,1.1,0,0,0-1.09,1.11V28a1.09,1.09,0,0,0,1.09,1.1h5.28a3.29,3.29,0,0,0,3.21,2.27,3.37,3.37,0,0,0,0-6.74,3.29,3.29,0,0,0-3.21,2.27h-4.19v-12h18.31v12h-3.45a7.61,7.61,0,0,0-7.46-6.57,8.25,8.25,0,0,0-3.64.92l1,2a5.28,5.28,0,0,1,2.55-.68,5.46,5.46,0,0,1,0,10.92,5.28,5.28,0,0,1-2.55-.68l-1,2a7.51,7.51,0,0,0,3.64.92,7.61,7.61,0,0,0,7.46-6.57h4.55a1.09,1.09,0,0,0,1.09-1.1V11.22A1.14,1.14,0,0,0,191.76,10.11Z"/></g><g id="shape1100-52"><g id="lend5"><path class="cls-2" d="M161.69,18.87l8.05,4-8,4a9,9,0,0,0,0-8"/></g></g><g id="group1101-58"><g id="group1102-59"><g id="group1103-60"><g id="group1104-61"><g id="shape1105-62"><path class="cls-1" d="M7.85,15.21a4.49,4.49,0,0,0-3,5.66c.66,2.55,3,4.22,5.27,3.66a4.49,4.49,0,0,0,3-5.66C12.57,16.2,10.16,14.54,7.85,15.21Z"/></g></g><g id="group1106-64"><g id="shape1107-65"><path class="cls-1" d="M12.79,25.22c-.44,0-.88.78-1.54,1.11s-1.32.89-3.18,0S6,24.66,4.44,24.66.38,27.44.38,31.55H16a12.09,12.09,0,0,0-1.1-4.22C13.77,25.22,13.23,25.22,12.79,25.22Z"/></g></g></g></g><g id="group1108-67"><g id="shape1109-68"><path class="cls-3" d="M14.19,20.28H10.07a.71.71,0,0,0-.65.65v2.85a.73.73,0,0,0,.76.66h.76v5.15a1,1,0,0,0,1,1.1,1,1,0,0,0,1-1h.21V29c0-.22.33-.33.33-.33v-.33c-.33-.1-.54-.32-.54-.43v-.33l.21-.22a3.53,3.53,0,0,0,.33-.55,2.4,2.4,0,0,1-.33-.55c-.1-.11-.1-.33-.21-.44v-.21a2.51,2.51,0,0,1,.76-1.1h.54a.71.71,0,0,0,.65-.66v-3A.63.63,0,0,0,14.19,20.28ZM11.8,29.81c0,.22,0,.33-.21.33s-.22-.22-.22-.33V25c0-.22.11-.33.22-.33s.21.22.21.33ZM12.13,22a.66.66,0,0,1,0-1.32.71.71,0,0,1,.65.66A.63.63,0,0,1,12.13,22Z"/></g><g id="shape1110-70"><path class="cls-4" d="M11.57,30.12a.25.25,0,0,1-.22-.23v-5a.22.22,0,1,1,.44,0V30C11.79,30.12,11.68,30.12,11.57,30.12Z"/></g><g id="shape1111-72"><ellipse class="cls-4" cx="12.14" cy="21.35" rx="0.66" ry="0.67"/></g></g></g></g><g id="text"><path d="M170.08,48.63h-.91l-.74-2h-3l-.7,2h-.91l2.69-7h.85Zm-1.92-2.7-1.1-3a2.8,2.8,0,0,1-.1-.46h0a4,4,0,0,1-.11.46l-1.09,3Z"/><path d="M171.83,47.91h0v3H171v-7.3h.81v.88h0a1.87,1.87,0,0,1,1.72-1,1.82,1.82,0,0,1,1.51.67,2.8,2.8,0,0,1,.54,1.8,3.07,3.07,0,0,1-.61,2,2,2,0,0,1-1.67.76A1.67,1.67,0,0,1,171.83,47.91Zm0-2v.7a1.48,1.48,0,0,0,.4,1,1.33,1.33,0,0,0,1,.43,1.31,1.31,0,0,0,1.14-.56,2.49,2.49,0,0,0,.41-1.54,2,2,0,0,0-.38-1.31,1.28,1.28,0,0,0-1.05-.48,1.43,1.43,0,0,0-1.12.49A1.79,1.79,0,0,0,171.81,45.89Z"/><path d="M177.7,47.91h0v3h-.8v-7.3h.8v.88h0a1.89,1.89,0,0,1,1.73-1,1.82,1.82,0,0,1,1.51.67,2.8,2.8,0,0,1,.54,1.8,3.07,3.07,0,0,1-.61,2,2,2,0,0,1-1.67.76A1.68,1.68,0,0,1,177.7,47.91Zm0-2v.7a1.49,1.49,0,0,0,.41,1,1.43,1.43,0,0,0,2.16-.13,2.49,2.49,0,0,0,.41-1.54,2,2,0,0,0-.38-1.31,1.28,1.28,0,0,0-1.05-.48,1.43,1.43,0,0,0-1.12.49A1.8,1.8,0,0,0,177.68,45.89Z"/><path d="M186.32,47.91h0v3h-.8v-7.3h.8v.88h0a1.89,1.89,0,0,1,1.73-1,1.82,1.82,0,0,1,1.51.67,2.8,2.8,0,0,1,.54,1.8,3.07,3.07,0,0,1-.61,2,2,2,0,0,1-1.67.76A1.67,1.67,0,0,1,186.32,47.91Zm0-2v.7a1.49,1.49,0,0,0,.41,1,1.3,1.3,0,0,0,1,.43,1.33,1.33,0,0,0,1.14-.56,2.56,2.56,0,0,0,.41-1.54,2,2,0,0,0-.38-1.31,1.28,1.28,0,0,0-1.05-.48,1.42,1.42,0,0,0-1.12.49A1.75,1.75,0,0,0,186.3,45.89Z"/><path d="M195.4,46.33h-3.53a1.87,1.87,0,0,0,.45,1.29,1.54,1.54,0,0,0,1.18.45,2.41,2.41,0,0,0,1.55-.56v.76a2.89,2.89,0,0,1-1.74.48,2.11,2.11,0,0,1-1.67-.69,2.79,2.79,0,0,1-.6-1.91,2.73,2.73,0,0,1,.66-1.9,2.12,2.12,0,0,1,1.64-.74,1.86,1.86,0,0,1,1.52.64,2.63,2.63,0,0,1,.54,1.76Zm-.82-.68a1.62,1.62,0,0,0-.34-1.08,1.12,1.12,0,0,0-.91-.39,1.28,1.28,0,0,0-1,.41,1.78,1.78,0,0,0-.49,1.06Z"/><path d="M199.22,44.44a1,1,0,0,0-.61-.16,1,1,0,0,0-.86.48,2.3,2.3,0,0,0-.34,1.32v2.55h-.8v-5h.8v1h0a1.71,1.71,0,0,1,.52-.82,1.2,1.2,0,0,1,.79-.3,1.22,1.22,0,0,1,.48.07Z"/><path d="M170.57,60.63h-.8v-7.4h.8Z"/><path d="M176.21,58.33h-3.53a1.87,1.87,0,0,0,.45,1.29,1.56,1.56,0,0,0,1.18.45,2.41,2.41,0,0,0,1.55-.56v.76a2.89,2.89,0,0,1-1.74.48,2.08,2.08,0,0,1-1.66-.69,3.18,3.18,0,0,1,0-3.81,2.12,2.12,0,0,1,1.64-.74,1.86,1.86,0,0,1,1.52.64,2.63,2.63,0,0,1,.54,1.76Zm-.82-.68a1.62,1.62,0,0,0-.34-1.08,1.12,1.12,0,0,0-.91-.39,1.28,1.28,0,0,0-1,.41,1.78,1.78,0,0,0-.49,1.06Z"/><path d="M185.69,60.63h-.91l-.74-2h-3l-.7,2h-.91l2.68-7H183Zm-1.92-2.7-1.1-3a2.59,2.59,0,0,1-.11-.46h0a2.6,2.6,0,0,1-.11.46l-1.09,3Z"/><path d="M187.54,58v2.65h-.82v-7h1.92a2.55,2.55,0,0,1,1.74.54,2,2,0,0,1,.62,1.55,2.13,2.13,0,0,1-.69,1.63,2.61,2.61,0,0,1-1.85.63Zm0-3.61v2.87h.86a1.89,1.89,0,0,0,1.29-.39,1.36,1.36,0,0,0,.45-1.09c0-.93-.55-1.39-1.64-1.39Z"/><path d="M193.14,60.63h-.82v-7h.82Z"/><path d="M33.16,50.38h-.91l-.74-2h-3l-.7,2h-.91l2.68-7h.85Zm-1.92-2.7-1.1-3a4,4,0,0,1-.11-.46h0a2.49,2.49,0,0,1-.12.46l-1.09,3Z"/><path d="M34.9,49.66h0v3h-.8v-7.3h.8v.88h0a1.89,1.89,0,0,1,1.73-1,1.82,1.82,0,0,1,1.51.67,2.8,2.8,0,0,1,.54,1.8,3.07,3.07,0,0,1-.61,2,2,2,0,0,1-1.67.76A1.67,1.67,0,0,1,34.9,49.66Zm0-2v.7a1.49,1.49,0,0,0,.41,1,1.32,1.32,0,0,0,1,.43,1.33,1.33,0,0,0,1.14-.56,2.56,2.56,0,0,0,.41-1.54,2,2,0,0,0-.38-1.31,1.28,1.28,0,0,0-1-.48,1.43,1.43,0,0,0-1.12.49A1.75,1.75,0,0,0,34.88,47.64Z"/><path d="M40.78,49.66h0v3H40v-7.3h.8v.88h0a1.89,1.89,0,0,1,1.73-1,1.83,1.83,0,0,1,1.51.67,2.8,2.8,0,0,1,.54,1.8,3.07,3.07,0,0,1-.61,2,2,2,0,0,1-1.67.76A1.67,1.67,0,0,1,40.78,49.66Zm0-2v.7a1.49,1.49,0,0,0,.41,1,1.3,1.3,0,0,0,1,.43,1.33,1.33,0,0,0,1.14-.56,2.56,2.56,0,0,0,.41-1.54,2,2,0,0,0-.39-1.31,1.25,1.25,0,0,0-1-.48,1.42,1.42,0,0,0-1.12.49A1.75,1.75,0,0,0,40.76,47.64Z"/><path d="M46.64,50.38h-.8V43h.8Z"/><path d="M48.67,44.11a.49.49,0,0,1-.36-.15.51.51,0,0,1,0-.74.49.49,0,0,1,.36-.15.54.54,0,0,1,.38.15.5.5,0,0,1,.15.37.51.51,0,0,1-.15.37A.54.54,0,0,1,48.67,44.11Zm.39,6.27h-.8v-5h.8Z"/><path d="M54.09,50.15a2.6,2.6,0,0,1-1.36.35A2.28,2.28,0,0,1,51,49.8a2.51,2.51,0,0,1-.66-1.8,2.78,2.78,0,0,1,.71-2,2.47,2.47,0,0,1,1.89-.75,2.51,2.51,0,0,1,1.16.25v.82a2,2,0,0,0-1.19-.4,1.64,1.64,0,0,0-1.26.55,2.14,2.14,0,0,0-.49,1.45,2,2,0,0,0,.46,1.38,1.59,1.59,0,0,0,1.24.51,2,2,0,0,0,1.23-.43Z"/><path d="M58.88,50.38h-.8V49.6h0a1.82,1.82,0,0,1-2.71.5,1.36,1.36,0,0,1-.42-1.05c0-.93.55-1.48,1.65-1.63l1.5-.21c0-.85-.34-1.28-1-1.28a2.48,2.48,0,0,0-1.63.62v-.82a3.12,3.12,0,0,1,1.7-.47c1.17,0,1.76.62,1.76,1.87Zm-.8-2.53-1.2.16a2,2,0,0,0-.84.28.8.8,0,0,0-.29.7.78.78,0,0,0,.26.6,1.05,1.05,0,0,0,.7.23,1.27,1.27,0,0,0,1-.42,1.47,1.47,0,0,0,.39-1Z"/><path d="M63.88,45.61l-3,4.08h2.93v.69H59.74v-.25l3-4.07H60v-.68h3.86Z"/><path d="M65.32,44.11A.49.49,0,0,1,65,44a.51.51,0,0,1,0-.74.49.49,0,0,1,.36-.15.54.54,0,0,1,.38.15.5.5,0,0,1,.15.37.51.51,0,0,1-.15.37A.54.54,0,0,1,65.32,44.11Zm.39,6.27h-.8v-5h.8Z"/><path d="M69.42,50.5a2.31,2.31,0,0,1-1.77-.71A2.57,2.57,0,0,1,67,47.94a2.7,2.7,0,0,1,.69-2,2.49,2.49,0,0,1,1.86-.71,2.25,2.25,0,0,1,1.75.69,2.71,2.71,0,0,1,.62,1.91,2.65,2.65,0,0,1-.67,1.91A2.35,2.35,0,0,1,69.42,50.5Zm.06-4.57a1.53,1.53,0,0,0-1.22.53,2.15,2.15,0,0,0-.45,1.45,2,2,0,0,0,.46,1.4,1.53,1.53,0,0,0,1.21.51,1.49,1.49,0,0,0,1.2-.5,2.18,2.18,0,0,0,.41-1.43,2.22,2.22,0,0,0-.41-1.45A1.47,1.47,0,0,0,69.48,45.93Z"/><path d="M77.34,50.38h-.8V47.53c0-1.06-.38-1.6-1.16-1.6a1.26,1.26,0,0,0-1,.46,1.68,1.68,0,0,0-.4,1.14v2.85h-.8v-5H74v.83h0a1.82,1.82,0,0,1,1.64-1,1.55,1.55,0,0,1,1.26.53,2.34,2.34,0,0,1,.43,1.53Z"/><path d="M82.87,48.08H79.34a1.87,1.87,0,0,0,.45,1.29,1.56,1.56,0,0,0,1.18.45,2.39,2.39,0,0,0,1.55-.56V50a2.89,2.89,0,0,1-1.74.48,2.09,2.09,0,0,1-1.66-.69,3.18,3.18,0,0,1,0-3.81,2.13,2.13,0,0,1,1.65-.74,1.84,1.84,0,0,1,1.51.64,2.63,2.63,0,0,1,.54,1.76Zm-.82-.68a1.62,1.62,0,0,0-.33-1.08,1.14,1.14,0,0,0-.92-.39,1.28,1.28,0,0,0-1,.41,1.84,1.84,0,0,0-.49,1.06Z"/><path d="M90.4,50.38h-.8V49.6h0a1.68,1.68,0,0,1-1.54.9,1.66,1.66,0,0,1-1.17-.4,1.36,1.36,0,0,1-.42-1.05c0-.93.55-1.48,1.65-1.63l1.5-.21c0-.85-.34-1.28-1-1.28a2.46,2.46,0,0,0-1.63.62v-.82a3.12,3.12,0,0,1,1.7-.47c1.17,0,1.76.62,1.76,1.87Zm-.8-2.53L88.39,48a2.11,2.11,0,0,0-.84.28.82.82,0,0,0-.28.7.78.78,0,0,0,.26.6,1.05,1.05,0,0,0,.7.23,1.27,1.27,0,0,0,1-.42,1.47,1.47,0,0,0,.39-1Z"/><path d="M28.42,61.66h0v3h-.8v-7.3h.8v.88h0a1.88,1.88,0,0,1,1.73-1,1.84,1.84,0,0,1,1.51.67,2.8,2.8,0,0,1,.54,1.8,3.13,3.13,0,0,1-.61,2,2.06,2.06,0,0,1-1.67.76A1.67,1.67,0,0,1,28.42,61.66Zm0-2v.7a1.48,1.48,0,0,0,.4,1,1.33,1.33,0,0,0,1,.43A1.31,1.31,0,0,0,31,61.26a2.49,2.49,0,0,0,.42-1.54A2,2,0,0,0,31,58.41a1.26,1.26,0,0,0-1-.48,1.45,1.45,0,0,0-1.13.49A1.79,1.79,0,0,0,28.4,59.64Z"/><path d="M37.06,62.38h-.8V61.6h0a1.68,1.68,0,0,1-1.54.9,1.66,1.66,0,0,1-1.17-.4,1.36,1.36,0,0,1-.42-1.05c0-.93.55-1.48,1.65-1.63l1.5-.21c0-.85-.35-1.28-1-1.28a2.49,2.49,0,0,0-1.64.62v-.82a3.15,3.15,0,0,1,1.7-.47c1.18,0,1.77.62,1.77,1.87Zm-.8-2.53L35.05,60a2.11,2.11,0,0,0-.84.28.79.79,0,0,0-.28.7.75.75,0,0,0,.26.6,1,1,0,0,0,.69.23,1.29,1.29,0,0,0,1-.42,1.47,1.47,0,0,0,.39-1Z"/><path d="M42.83,62c0,1.83-.88,2.75-2.63,2.75a3.66,3.66,0,0,1-1.63-.35v-.8a3.38,3.38,0,0,0,1.62.47c1.23,0,1.84-.66,1.84-2v-.55h0a1.87,1.87,0,0,1-1.72,1,1.89,1.89,0,0,1-1.5-.67A2.67,2.67,0,0,1,38.22,60a3.11,3.11,0,0,1,.62-2,2,2,0,0,1,1.67-.75,1.62,1.62,0,0,1,1.5.81h0v-.69h.8ZM42,60.12v-.74a1.41,1.41,0,0,0-.4-1,1.34,1.34,0,0,0-1-.43,1.4,1.4,0,0,0-1.17.54A2.43,2.43,0,0,0,39,60a2.05,2.05,0,0,0,.41,1.33,1.29,1.29,0,0,0,1.06.5,1.4,1.4,0,0,0,1.1-.48A1.77,1.77,0,0,0,42,60.12Z"/><path d="M44.86,56.11A.49.49,0,0,1,44.5,56a.53.53,0,0,1,0-.74.49.49,0,0,1,.36-.15.54.54,0,0,1,.38.15.5.5,0,0,1,.15.37.51.51,0,0,1-.15.37A.54.54,0,0,1,44.86,56.11Zm.39,6.27h-.8v-5h.8Z"/><path d="M51,62.38h-.8V59.53c0-1.06-.39-1.6-1.17-1.6a1.26,1.26,0,0,0-1,.46,1.68,1.68,0,0,0-.39,1.14v2.85h-.8v-5h.8v.83h0a1.8,1.8,0,0,1,1.64-1,1.54,1.54,0,0,1,1.25.53A2.35,2.35,0,0,1,51,59.32Z"/><path d="M56.11,62.38h-.8V61.6h0a1.81,1.81,0,0,1-2.7.5,1.34,1.34,0,0,1-.43-1.05c0-.93.55-1.48,1.65-1.63l1.5-.21c0-.85-.34-1.28-1-1.28a2.48,2.48,0,0,0-1.63.62v-.82a3.12,3.12,0,0,1,1.7-.47c1.18,0,1.76.62,1.76,1.87Zm-.8-2.53-1.2.16a2.11,2.11,0,0,0-.84.28A.8.8,0,0,0,53,61a.76.76,0,0,0,.27.6,1,1,0,0,0,.69.23,1.26,1.26,0,0,0,1-.42,1.47,1.47,0,0,0,.39-1Z"/><path d="M60.06,62.2v-.86a2.4,2.4,0,0,0,1.44.48c.7,0,1-.23,1-.7a.59.59,0,0,0-.09-.34.94.94,0,0,0-.24-.25,2,2,0,0,0-.36-.19l-.45-.18c-.22-.09-.41-.18-.58-.27a1.51,1.51,0,0,1-.42-.3,1.22,1.22,0,0,1-.26-.38,1.5,1.5,0,0,1-.08-.5,1.18,1.18,0,0,1,.16-.63,1.42,1.42,0,0,1,.43-.45,2.28,2.28,0,0,1,.61-.28,2.82,2.82,0,0,1,.71-.09,2.91,2.91,0,0,1,1.17.23v.81a2.23,2.23,0,0,0-1.27-.37,1.31,1.31,0,0,0-.41.06,1,1,0,0,0-.31.14.69.69,0,0,0-.2.22.57.57,0,0,0-.07.29A.67.67,0,0,0,61,59a.9.9,0,0,0,.21.23,1.29,1.29,0,0,0,.33.18l.44.19a4.9,4.9,0,0,1,.6.26,2,2,0,0,1,.45.3,1.08,1.08,0,0,1,.28.39,1.18,1.18,0,0,1,.1.52,1.19,1.19,0,0,1-.16.64,1.29,1.29,0,0,1-.44.46,2,2,0,0,1-.63.27,2.94,2.94,0,0,1-.74.09A2.82,2.82,0,0,1,60.06,62.2Z"/><path d="M65,56.11a.52.52,0,1,1,0-1,.51.51,0,0,1,.37.15.5.5,0,0,1,.15.37.51.51,0,0,1-.52.52Zm.39,6.27h-.8v-5h.8Z"/><path d="M71.18,62.38h-.8V59.53c0-1.06-.39-1.6-1.17-1.6a1.26,1.26,0,0,0-1,.46,1.68,1.68,0,0,0-.39,1.14v2.85H67v-5h.8v.83h0a1.81,1.81,0,0,1,1.64-1,1.53,1.53,0,0,1,1.25.53,2.35,2.35,0,0,1,.44,1.53Z"/><path d="M77,62c0,1.83-.87,2.75-2.63,2.75a3.58,3.58,0,0,1-1.62-.35v-.8a3.35,3.35,0,0,0,1.61.47c1.23,0,1.84-.66,1.84-2v-.55h0a1.86,1.86,0,0,1-1.71,1,1.9,1.9,0,0,1-1.51-.67A2.67,2.67,0,0,1,72.34,60,3.11,3.11,0,0,1,73,58a2,2,0,0,1,1.67-.75,1.62,1.62,0,0,1,1.5.81h0v-.69H77Zm-.8-1.86v-.74a1.41,1.41,0,0,0-.4-1,1.34,1.34,0,0,0-1-.43,1.41,1.41,0,0,0-1.17.54A2.43,2.43,0,0,0,73.17,60a2,2,0,0,0,.4,1.33,1.3,1.3,0,0,0,1.06.5,1.4,1.4,0,0,0,1.1-.48A1.77,1.77,0,0,0,76.15,60.12Z"/><path d="M80.67,62.5a2.31,2.31,0,0,1-1.77-.71,2.53,2.53,0,0,1-.67-1.85,2.7,2.7,0,0,1,.69-2,2.49,2.49,0,0,1,1.86-.71,2.25,2.25,0,0,1,1.75.69,2.72,2.72,0,0,1,.63,1.91,2.65,2.65,0,0,1-.68,1.91A2.34,2.34,0,0,1,80.67,62.5Zm0-4.57a1.53,1.53,0,0,0-1.22.53,2.15,2.15,0,0,0-.45,1.45,2.05,2.05,0,0,0,.46,1.4,1.54,1.54,0,0,0,1.21.51,1.49,1.49,0,0,0,1.2-.5,2.18,2.18,0,0,0,.41-1.43,2.22,2.22,0,0,0-.41-1.45A1.47,1.47,0,0,0,80.72,57.93Z"/><path d="M85.24,62.38h-.81V55h.81Z"/><path d="M90.44,62.38h-.81V61.6h0a1.69,1.69,0,0,1-1.54.9,1.66,1.66,0,0,1-1.17-.4,1.36,1.36,0,0,1-.42-1.05c0-.93.55-1.48,1.65-1.63l1.49-.21c0-.85-.34-1.28-1-1.28a2.48,2.48,0,0,0-1.63.62v-.82a3.12,3.12,0,0,1,1.7-.47c1.18,0,1.77.62,1.77,1.87Zm-.81-2.53-1.2.16a2.11,2.11,0,0,0-.84.28.79.79,0,0,0-.28.7.75.75,0,0,0,.26.6,1,1,0,0,0,.69.23,1.29,1.29,0,0,0,1-.42,1.46,1.46,0,0,0,.38-1Z"/><path class="cls-5" d="M88,7.12H85.28V9.54h2.53v.74H85.28v3.1h-.82v-7H88Z"/><path class="cls-5" d="M90,13.38h-.8V6H90Z"/><path class="cls-5" d="M95.7,13.38h-.8v-.79h0a1.66,1.66,0,0,1-1.54.91c-1.19,0-1.79-.71-1.79-2.13v-3h.8v2.86c0,1.06.4,1.58,1.21,1.58a1.21,1.21,0,0,0,1-.43,1.66,1.66,0,0,0,.38-1.13V8.38h.8Z"/><path class="cls-5" d="M97,13.2v-.86a2.4,2.4,0,0,0,1.44.48c.71,0,1.06-.23,1.06-.7a.62.62,0,0,0-.09-.34,1,1,0,0,0-.25-.25,2,2,0,0,0-.36-.19l-.44-.18c-.22-.09-.42-.17-.59-.26a1.9,1.9,0,0,1-.42-.31,1.19,1.19,0,0,1-.25-.38,1.28,1.28,0,0,1-.09-.5,1.15,1.15,0,0,1,.17-.62,1.33,1.33,0,0,1,.42-.46,2,2,0,0,1,.62-.27,2.39,2.39,0,0,1,.71-.1,2.86,2.86,0,0,1,1.16.23V9.3a2.27,2.27,0,0,0-1.27-.36,1.25,1.25,0,0,0-.4.05.81.81,0,0,0-.31.14.59.59,0,0,0-.2.22.6.6,0,0,0-.08.29.67.67,0,0,0,.08.33.7.7,0,0,0,.2.23,1.69,1.69,0,0,0,.33.19l.45.18a4.72,4.72,0,0,1,.59.26,2,2,0,0,1,.45.3,1.11,1.11,0,0,1,.29.39,1.21,1.21,0,0,1,.1.52,1.36,1.36,0,0,1-.16.65,1.45,1.45,0,0,1-.44.45,2,2,0,0,1-.63.27,3.08,3.08,0,0,1-.75.09A2.85,2.85,0,0,1,97,13.2Z"/><path class="cls-5" d="M101.26,13.2v-.86a2.35,2.35,0,0,0,1.44.48c.7,0,1-.23,1-.7a.62.62,0,0,0-.09-.34,1.12,1.12,0,0,0-.24-.25,2.42,2.42,0,0,0-.36-.19l-.45-.18a5.47,5.47,0,0,1-.58-.26,1.53,1.53,0,0,1-.42-.31,1.08,1.08,0,0,1-.26-.38,1.5,1.5,0,0,1-.08-.5,1.15,1.15,0,0,1,.16-.62,1.35,1.35,0,0,1,.43-.46,2,2,0,0,1,.61-.27,2.44,2.44,0,0,1,.71-.1,2.86,2.86,0,0,1,1.16.23V9.3a2.25,2.25,0,0,0-1.27-.36,1.25,1.25,0,0,0-.4.05.89.89,0,0,0-.31.14.69.69,0,0,0-.2.22.59.59,0,0,0-.07.29.67.67,0,0,0,.07.33.75.75,0,0,0,.21.23,1.69,1.69,0,0,0,.33.19l.44.18a5.68,5.68,0,0,1,.6.26,2.52,2.52,0,0,1,.45.3,1.08,1.08,0,0,1,.28.39,1.21,1.21,0,0,1,.1.52,1.25,1.25,0,0,1-.16.65,1.45,1.45,0,0,1-.44.45,2,2,0,0,1-.63.27,3,3,0,0,1-.74.09A2.79,2.79,0,0,1,101.26,13.2Z"/><path class="cls-5" d="M107.89,13.5a2.34,2.34,0,0,1-1.77-.7,2.61,2.61,0,0,1-.66-1.86,2.7,2.7,0,0,1,.69-2A2.49,2.49,0,0,1,108,8.26a2.25,2.25,0,0,1,1.75.69,2.78,2.78,0,0,1,.62,1.91,2.69,2.69,0,0,1-.67,1.92A2.38,2.38,0,0,1,107.89,13.5ZM108,8.94a1.52,1.52,0,0,0-1.22.52,2.15,2.15,0,0,0-.45,1.45,2,2,0,0,0,.46,1.4,1.53,1.53,0,0,0,1.21.51,1.46,1.46,0,0,0,1.2-.5,2.23,2.23,0,0,0,.41-1.43,2.28,2.28,0,0,0-.41-1.45A1.49,1.49,0,0,0,108,8.94Z"/><path class="cls-5" d="M114.81,7.11a.49.49,0,0,1-.36-.15.46.46,0,0,1-.16-.37.47.47,0,0,1,.16-.37.49.49,0,0,1,.36-.15.54.54,0,0,1,.38.15.53.53,0,0,1,0,.74A.54.54,0,0,1,114.81,7.11Zm.39,6.27h-.8v-5h.8Z"/><path class="cls-5" d="M123.92,13.38h-.8V10.51a2.17,2.17,0,0,0-.25-1.2,1,1,0,0,0-.87-.37,1.06,1.06,0,0,0-.87.46,1.82,1.82,0,0,0-.36,1.13v2.85H120v-3q0-1.47-1.14-1.47a1,1,0,0,0-.86.44,1.81,1.81,0,0,0-.35,1.15v2.85h-.8v-5h.8v.79h0a1.73,1.73,0,0,1,1.56-.91,1.45,1.45,0,0,1,1.41,1,1.79,1.79,0,0,1,1.66-1q1.65,0,1.65,2Z"/><path class="cls-5" d="M126.26,12.66h0v3h-.8V8.38h.8v.88h0a1.88,1.88,0,0,1,1.73-1,1.84,1.84,0,0,1,1.5.67,2.74,2.74,0,0,1,.55,1.8,3.13,3.13,0,0,1-.61,2,2,2,0,0,1-1.67.76A1.67,1.67,0,0,1,126.26,12.66Zm0-2v.7a1.48,1.48,0,0,0,.4,1.05,1.44,1.44,0,0,0,2.16-.12,2.53,2.53,0,0,0,.42-1.55,2,2,0,0,0-.39-1.31,1.27,1.27,0,0,0-1-.47,1.44,1.44,0,0,0-1.13.48A1.81,1.81,0,0,0,126.24,10.64Z"/><path class="cls-5" d="M132.12,13.38h-.8V6h.8Z"/><path class="cls-5" d="M134.15,7.11a.5.5,0,0,1-.37-.15.48.48,0,0,1-.15-.37.51.51,0,0,1,.52-.52.51.51,0,0,1,.37.15.53.53,0,0,1,0,.74A.51.51,0,0,1,134.15,7.11Zm.39,6.27h-.8v-5h.8Z"/><path class="cls-5" d="M139.57,13.15a2.63,2.63,0,0,1-1.37.35,2.3,2.3,0,0,1-1.73-.7,2.53,2.53,0,0,1-.65-1.8,2.74,2.74,0,0,1,.71-2,2.47,2.47,0,0,1,1.89-.75,2.57,2.57,0,0,1,1.16.25v.82a2,2,0,0,0-1.19-.39,1.61,1.61,0,0,0-1.26.55,2,2,0,0,0-.49,1.44,2,2,0,0,0,.46,1.39,1.62,1.62,0,0,0,1.24.5,2,2,0,0,0,1.23-.43Z"/><path class="cls-5" d="M141.19,7.11a.51.51,0,0,1-.37-.15.48.48,0,0,1-.15-.37.5.5,0,0,1,.15-.37.53.53,0,0,1,.74,0,.51.51,0,0,1,0,.74A.51.51,0,0,1,141.19,7.11Zm.39,6.27h-.8v-5h.8Z"/><path class="cls-5" d="M145.52,13.33a1.61,1.61,0,0,1-.75.16c-.87,0-1.31-.49-1.31-1.47v-3h-.86V8.38h.86V7.16l.8-.26V8.38h1.26v.68h-1.26v2.82a1.19,1.19,0,0,0,.17.72.68.68,0,0,0,.57.21.85.85,0,0,0,.52-.16Z"/><path class="cls-5" d="M148.68,13.5a2.34,2.34,0,0,1-1.77-.7,2.61,2.61,0,0,1-.66-1.86,2.7,2.7,0,0,1,.69-2,2.46,2.46,0,0,1,1.86-.71,2.24,2.24,0,0,1,1.74.69,2.73,2.73,0,0,1,.63,1.91,2.7,2.7,0,0,1-.68,1.92A2.36,2.36,0,0,1,148.68,13.5Zm.06-4.56a1.51,1.51,0,0,0-1.22.52,2.15,2.15,0,0,0-.45,1.45,2,2,0,0,0,.45,1.4,1.55,1.55,0,0,0,1.22.51,1.45,1.45,0,0,0,1.19-.5,2.18,2.18,0,0,0,.42-1.43,2.22,2.22,0,0,0-.42-1.45A1.48,1.48,0,0,0,148.74,8.94Z"/><rect class="cls-2" x="72.98" y="21.99" width="90.64" height="1.75" rx="0.76"/></g></svg>