<svg xmlns="http://www.w3.org/2000/svg" width="204.71" height="64.78" viewBox="0 0 204.71 64.78"><title>OJ104440671</title><path d="M66,40.4a11.81,11.81,0,0,1-16.84-2.29,12.56,12.56,0,0,1,2.24-17.29,11.82,11.82,0,0,1,16.84,2.3A12.54,12.54,0,0,1,66,40.4ZM69.69,22a13.57,13.57,0,0,0-19.36-2.63,14.43,14.43,0,0,0-2.55,19.87,13.62,13.62,0,0,0,11,5.55,13.45,13.45,0,0,0,8.39-2.92A14.44,14.44,0,0,0,69.69,22Z" fill="#008bfd" fill-rule="evenodd"/><path d="M52.06,33.18a17,17,0,0,1-2-2.35,18.28,18.28,0,0,0-1.66,6.88c.11.16.11.29.23.44a12.55,12.55,0,0,0,2,2.05A14.13,14.13,0,0,1,52.06,33.18Z" fill="#008bfd" fill-rule="evenodd"/><path d="M56.67,23.74a21,21,0,0,0-3.33,3,15.71,15.71,0,0,0-1.61,2.05,15.42,15.42,0,0,0,1.9,2.46,16.32,16.32,0,0,1,2.2-2.56A26.47,26.47,0,0,1,59,26.06C58.16,25.3,57.38,24.53,56.67,23.74Z" fill="#008bfd" fill-rule="evenodd"/><path d="M68.14,22.94a12,12,0,0,0-1.73-1.82,12.53,12.53,0,0,0-8,1.53c.76.84,1.51,1.63,2.24,2.36C65,22.58,68.14,22.94,68.14,22.94Z" fill="#008bfd" fill-rule="evenodd"/><path d="M50.54,31A19.82,19.82,0,0,1,51.73,29a9.84,9.84,0,0,1-1.6-6.79,13.09,13.09,0,0,0-1.29,1.6C48.46,25.37,48.44,27.93,50.54,31Z" fill="#008bfd" fill-rule="evenodd"/><path d="M55.9,33.36a21.6,21.6,0,0,1-2.27-2.14,14.25,14.25,0,0,0-1.14,2,23.54,23.54,0,0,0,2.09,1.91,19.12,19.12,0,0,0,12.56,4.38,9,9,0,0,0,1.54-1.94C67.45,37.78,62.19,38.47,55.9,33.36Z" fill="#008bfd" fill-rule="evenodd"/><path d="M50.54,30.82a15.72,15.72,0,0,0,2,2.35,15.36,15.36,0,0,1,1.14-2,15.42,15.42,0,0,1-1.9-2.46A15.58,15.58,0,0,0,50.54,30.82Z" fill="#008bfd" fill-rule="evenodd"/><path d="M59,26.06a97,97,0,0,0,11.15,8.82,9.82,9.82,0,0,0,.33-1.05A95.51,95.51,0,0,1,60.61,25Q59.82,25.46,59,26.06Z" fill="#008bfd" fill-rule="evenodd"/><path d="M58.38,22.65q-1.65-1.77-3.36-3.8a10.05,10.05,0,0,0-1.59.66,26.3,26.3,0,0,0,3.24,4.22A17.22,17.22,0,0,1,58.38,22.65Z" fill="#008bfd" fill-rule="evenodd"/><path d="M58.45,22.61a18.74,18.74,0,0,0-1.87,1.19c.72.78,1.45,1.59,2.25,2.35.57-.4,1.34-.88,1.87-1.18C60,24.24,59.21,23.45,58.45,22.61Z" fill="#008bfd" fill-rule="evenodd"/><path d="M58.25,22.51a16.24,16.24,0,0,0-1.67,1.12c.72.79,1.74,1.81,2.54,2.57.57-.4,1.05-.8,1.58-1.11C60,24.37,59,23.34,58.25,22.51Z" fill="#008bfd" fill-rule="evenodd"/><path d="M64.3,29.06a2.7,2.7,0,0,0-.48,3.7,2.56,2.56,0,0,0,3.63.51,2.72,2.72,0,0,0,.48-3.72A2.55,2.55,0,0,0,64.3,29.06Z" fill="#008bfd" fill-rule="evenodd"/><path d="M49.34,35.67a2.52,2.52,0,0,0-.45,3.44,2.37,2.37,0,0,0,3.36.45,2.49,2.49,0,0,0,.44-3.43A2.36,2.36,0,0,0,49.34,35.67Z" fill="#008bfd" fill-rule="evenodd"/><path d="M50,27.86a3.79,3.79,0,0,0-.68,5.21,3.58,3.58,0,0,0,5.1.7,3.8,3.8,0,0,0,.67-5.23A3.59,3.59,0,0,0,50,27.86Z" fill="#008bfd" fill-rule="evenodd"/><path d="M178.76,17.85h-20.5A1.1,1.1,0,0,0,157.17,19V35.7a1.09,1.09,0,0,0,1.09,1.1h5.28a3.29,3.29,0,0,0,3.21,2.27,3.37,3.37,0,0,0,0-6.74,3.29,3.29,0,0,0-3.21,2.26h-4.19v-12h18.31v12h-3.45A7.61,7.61,0,0,0,166.75,28a8.25,8.25,0,0,0-3.64.92l1,2a5.39,5.39,0,0,1,2.55-.67,5.46,5.46,0,0,1,0,10.92,5.28,5.28,0,0,1-2.55-.68l-1,2a7.4,7.4,0,0,0,3.64.92,7.61,7.61,0,0,0,7.46-6.56h4.55a1.09,1.09,0,0,0,1.09-1.1V19A1.14,1.14,0,0,0,178.76,17.85Z" fill="#008bfd" fill-rule="evenodd"/><path d="M147.7,26.59l8,4-8,4a9,9,0,0,0,0-8" fill="#505050" fill-rule="evenodd"/><path d="M7.85,22.77a4.5,4.5,0,0,0-3,5.67c.66,2.55,3,4.21,5.27,3.66a4.49,4.49,0,0,0,3-5.66C12.57,23.77,10.16,22.11,7.85,22.77Z" fill="#008bfd" fill-rule="evenodd"/><path d="M12.79,32.79c-.44,0-.88.77-1.54,1.11s-1.32.88-3.18,0S6,32.23,4.44,32.23.38,35,.38,39.11H16a12.05,12.05,0,0,0-1.1-4.21C13.77,32.79,13.23,32.79,12.79,32.79Z" fill="#008bfd" fill-rule="evenodd"/><path d="M14.19,27.84H10.07a.71.71,0,0,0-.65.66v2.85a.73.73,0,0,0,.76.66h.76v5.15a1,1,0,0,0,1,1.09,1,1,0,0,0,1-1h.21v-.66c0-.22.33-.33.33-.33V36c-.33-.11-.54-.33-.54-.44v-.32L13.1,35a3.53,3.53,0,0,0,.33-.55,2.4,2.4,0,0,1-.33-.55c-.1-.11-.1-.33-.21-.44v-.22a2.52,2.52,0,0,1,.76-1.09h.54a.71.71,0,0,0,.65-.66v-3A.63.63,0,0,0,14.19,27.84ZM11.8,37.38c0,.22,0,.33-.21.33s-.22-.22-.22-.33V32.56c0-.22.11-.33.22-.33s.21.22.21.33Zm.33-7.78a.66.66,0,0,1,0-1.32.71.71,0,0,1,.65.66A.63.63,0,0,1,12.13,29.6Z" fill="#008bfd" stroke="gray" stroke-linecap="round" stroke-linejoin="round" stroke-width="0.75" fill-rule="evenodd"/><path d="M11.57,37.68a.24.24,0,0,1-.22-.22v-5a.22.22,0,1,1,.44,0v5.1C11.79,37.68,11.68,37.68,11.57,37.68Z" fill="#fff" fill-rule="evenodd"/><ellipse cx="12.14" cy="28.92" rx="0.66" ry="0.67" fill="#fff"/><path d="M153,29.74H73.74a.76.76,0,0,0-.76.76v.22a.76.76,0,0,0,.76.77H153Z" fill="#505050"/><rect x="65.1" y="0.38" width="114.21" height="20" fill="none"/><path d="M44.21,57.79H43.3l-.74-2h-3l-.7,2H38l2.68-7h.85Zm-1.92-2.7-1.1-3a4.26,4.26,0,0,1-.11-.47h0a2.53,2.53,0,0,1-.11.47l-1.09,3Z"/><path d="M46,57.06h0v3h-.8v-7.3h.8v.88h0a1.89,1.89,0,0,1,1.73-1,1.82,1.82,0,0,1,1.51.67,2.8,2.8,0,0,1,.54,1.8,3.07,3.07,0,0,1-.61,2,2,2,0,0,1-1.67.75A1.67,1.67,0,0,1,46,57.06Zm0-2v.7a1.49,1.49,0,0,0,.41,1,1.43,1.43,0,0,0,2.16-.13,2.56,2.56,0,0,0,.41-1.54,2,2,0,0,0-.38-1.31,1.28,1.28,0,0,0-1.05-.48,1.39,1.39,0,0,0-1.12.49A1.75,1.75,0,0,0,45.93,55.05Z"/><path d="M51.83,57.06h0v3H51v-7.3h.8v.88h0a1.88,1.88,0,0,1,1.73-1,1.83,1.83,0,0,1,1.51.67,2.8,2.8,0,0,1,.54,1.8,3.07,3.07,0,0,1-.61,2,2,2,0,0,1-1.67.75A1.67,1.67,0,0,1,51.83,57.06Zm0-2v.7a1.53,1.53,0,0,0,.4,1,1.37,1.37,0,0,0,1,.43,1.36,1.36,0,0,0,1.14-.56,2.56,2.56,0,0,0,.41-1.54,2,2,0,0,0-.39-1.31,1.25,1.25,0,0,0-1-.48,1.39,1.39,0,0,0-1.12.49A1.75,1.75,0,0,0,51.81,55.05Z"/><path d="M68,50.78l-2,7h-1l-1.44-5.12a3.9,3.9,0,0,1-.12-.71h0a4.11,4.11,0,0,1-.13.7L62,57.79H61l-2-7h.9l1.49,5.38a3.78,3.78,0,0,1,.12.7h0a5,5,0,0,1,.15-.7l1.55-5.38H64l1.49,5.41a4.92,4.92,0,0,1,.12.66h0a3.4,3.4,0,0,1,.13-.68l1.43-5.39Z"/><path d="M72.6,55.49H69.07a1.87,1.87,0,0,0,.45,1.29,1.54,1.54,0,0,0,1.18.45,2.46,2.46,0,0,0,1.55-.56v.75a2.89,2.89,0,0,1-1.74.48,2.11,2.11,0,0,1-1.67-.68,2.79,2.79,0,0,1-.6-1.91,2.76,2.76,0,0,1,.66-1.91,2.12,2.12,0,0,1,1.64-.73,1.88,1.88,0,0,1,1.52.63,2.66,2.66,0,0,1,.54,1.77Zm-.82-.68a1.68,1.68,0,0,0-.34-1.08,1.12,1.12,0,0,0-.91-.39,1.28,1.28,0,0,0-1,.41,1.78,1.78,0,0,0-.49,1.06Z"/><path d="M74.63,57.06h0v.73h-.8V50.38h.8v3.29h0a1.88,1.88,0,0,1,1.73-1,1.81,1.81,0,0,1,1.5.67,2.74,2.74,0,0,1,.55,1.8,3.07,3.07,0,0,1-.61,2,2,2,0,0,1-1.67.75A1.65,1.65,0,0,1,74.63,57.06Zm0-2v.7a1.48,1.48,0,0,0,.4,1,1.37,1.37,0,0,0,1,.43,1.36,1.36,0,0,0,1.14-.56,2.56,2.56,0,0,0,.41-1.54,2,2,0,0,0-.39-1.31,1.25,1.25,0,0,0-1-.48,1.42,1.42,0,0,0-1.13.49A1.79,1.79,0,0,0,74.61,55.05Z"/><path d="M143.16,56.37h-.91l-.74-2h-3l-.7,2h-.91l2.69-7h.84Zm-1.92-2.7-1.1-3a3.27,3.27,0,0,1-.1-.47h0a2.63,2.63,0,0,1-.12.47l-1.09,3Z"/><path d="M144.9,55.65h0v3h-.8v-7.3h.8v.88h0a1.89,1.89,0,0,1,1.73-1,1.85,1.85,0,0,1,1.51.67,2.8,2.8,0,0,1,.54,1.8,3.07,3.07,0,0,1-.61,2,2,2,0,0,1-1.67.76A1.67,1.67,0,0,1,144.9,55.65Zm0-2v.7a1.49,1.49,0,0,0,.41,1.05,1.33,1.33,0,0,0,1,.43,1.35,1.35,0,0,0,1.14-.55,2.62,2.62,0,0,0,.41-1.55,2,2,0,0,0-.38-1.31,1.27,1.27,0,0,0-1-.47,1.42,1.42,0,0,0-1.12.48A1.82,1.82,0,0,0,144.88,53.63Z"/><path d="M150.78,55.65h0v3H150v-7.3h.8v.88h0a1.89,1.89,0,0,1,1.73-1,1.85,1.85,0,0,1,1.51.67,2.8,2.8,0,0,1,.54,1.8,3.07,3.07,0,0,1-.61,2,2,2,0,0,1-1.67.76A1.67,1.67,0,0,1,150.78,55.65Zm0-2v.7a1.49,1.49,0,0,0,.41,1.05,1.32,1.32,0,0,0,1,.43,1.35,1.35,0,0,0,1.14-.55,2.62,2.62,0,0,0,.41-1.55,2,2,0,0,0-.38-1.31,1.27,1.27,0,0,0-1.05-.47,1.41,1.41,0,0,0-1.12.48A1.77,1.77,0,0,0,150.76,53.63Z"/><path d="M159.4,55.65h0v3h-.8v-7.3h.8v.88h0a1.88,1.88,0,0,1,1.73-1,1.86,1.86,0,0,1,1.51.67,2.8,2.8,0,0,1,.54,1.8,3.07,3.07,0,0,1-.61,2,2,2,0,0,1-1.67.76A1.67,1.67,0,0,1,159.4,55.65Zm0-2v.7a1.53,1.53,0,0,0,.4,1.05,1.45,1.45,0,0,0,2.17-.12,2.62,2.62,0,0,0,.41-1.55A2,2,0,0,0,162,52.4a1.24,1.24,0,0,0-1-.47,1.41,1.41,0,0,0-1.12.48A1.77,1.77,0,0,0,159.38,53.63Z"/><path d="M168.48,54.07H165a1.83,1.83,0,0,0,.45,1.29,1.54,1.54,0,0,0,1.18.45,2.45,2.45,0,0,0,1.55-.55V56a2.89,2.89,0,0,1-1.74.48,2.11,2.11,0,0,1-1.67-.69,2.79,2.79,0,0,1-.6-1.91,2.73,2.73,0,0,1,.66-1.9,2.12,2.12,0,0,1,1.64-.74,1.86,1.86,0,0,1,1.52.64,2.63,2.63,0,0,1,.54,1.76Zm-.82-.68a1.68,1.68,0,0,0-.34-1.08,1.12,1.12,0,0,0-.91-.38,1.28,1.28,0,0,0-1,.4,1.78,1.78,0,0,0-.49,1.06Z"/><path d="M172.3,52.18a1,1,0,0,0-.61-.16,1,1,0,0,0-.86.48,2.23,2.23,0,0,0-.34,1.32v2.55h-.8v-5h.8v1h0a1.71,1.71,0,0,1,.52-.82,1.2,1.2,0,0,1,.79-.3,1.22,1.22,0,0,1,.48.07Z"/><path d="M176.71,56.37h-.81V49h.81Z"/><path d="M182.34,54.07h-3.53a1.93,1.93,0,0,0,.45,1.29,1.57,1.57,0,0,0,1.19.45,2.45,2.45,0,0,0,1.55-.55V56a2.9,2.9,0,0,1-1.75.48,2.09,2.09,0,0,1-1.66-.69,2.79,2.79,0,0,1-.61-1.91,2.74,2.74,0,0,1,.67-1.9,2.11,2.11,0,0,1,1.64-.74,1.87,1.87,0,0,1,1.52.64,2.62,2.62,0,0,1,.53,1.76Zm-.82-.68a1.62,1.62,0,0,0-.33-1.08,1.12,1.12,0,0,0-.92-.38,1.31,1.31,0,0,0-1,.4,1.91,1.91,0,0,0-.49,1.06Z"/><path d="M191.82,56.37h-.91l-.74-2h-3l-.7,2h-.91l2.69-7h.85Zm-1.92-2.7-1.1-3a3.27,3.27,0,0,1-.1-.47h0a2.74,2.74,0,0,1-.11.47l-1.09,3Z"/><path d="M193.67,53.72v2.65h-.82v-7h1.93a2.55,2.55,0,0,1,1.74.54,2,2,0,0,1,.61,1.55,2.11,2.11,0,0,1-.68,1.63,2.64,2.64,0,0,1-1.85.63Zm0-3.61V53h.86a1.92,1.92,0,0,0,1.3-.39,1.36,1.36,0,0,0,.45-1.09c0-.93-.55-1.39-1.65-1.39Z"/><path d="M199.27,56.37h-.82v-7h.82Z"/><path d="M40.44,7.11H37.71V9.53h2.53v.74H37.71v3.1h-.82v-7h3.55Z" fill="#00b0f0"/><path d="M42.46,13.37h-.8V6h.8Z" fill="#00b0f0"/><path d="M48.13,13.37h-.8v-.79h0a1.65,1.65,0,0,1-1.55.91c-1.19,0-1.78-.71-1.78-2.13v-3h.79v2.86c0,1.06.41,1.58,1.21,1.58a1.24,1.24,0,0,0,1-.43,1.66,1.66,0,0,0,.38-1.13V8.37h.8Z" fill="#00b0f0"/><path d="M49.44,13.19v-.86a2.4,2.4,0,0,0,1.44.48c.7,0,1-.23,1-.7a.62.62,0,0,0-.09-.34.91.91,0,0,0-.24-.24,1.54,1.54,0,0,0-.36-.2l-.45-.18a4.55,4.55,0,0,1-.58-.26,1.53,1.53,0,0,1-.42-.31,1.12,1.12,0,0,1-.26-.38,1.5,1.5,0,0,1-.08-.5,1.15,1.15,0,0,1,.16-.62A1.45,1.45,0,0,1,50,8.62a2,2,0,0,1,.61-.27,2.83,2.83,0,0,1,.71-.1,2.91,2.91,0,0,1,1.17.23v.81a2.3,2.3,0,0,0-1.27-.36,1.32,1.32,0,0,0-.41.05,1,1,0,0,0-.31.14.69.69,0,0,0-.2.22.59.59,0,0,0-.07.29.67.67,0,0,0,.07.33.76.76,0,0,0,.21.23,1.69,1.69,0,0,0,.33.19l.44.18a4.9,4.9,0,0,1,.6.26,2,2,0,0,1,.45.3,1.08,1.08,0,0,1,.28.39,1.21,1.21,0,0,1,.1.52,1.23,1.23,0,0,1-.16.65,1.35,1.35,0,0,1-.44.45,2,2,0,0,1-.63.27,2.94,2.94,0,0,1-.74.09A2.82,2.82,0,0,1,49.44,13.19Z" fill="#00b0f0"/><path d="M53.68,13.19v-.86a2.4,2.4,0,0,0,1.44.48c.71,0,1.06-.23,1.06-.7a.62.62,0,0,0-.09-.34.82.82,0,0,0-.25-.24,1.54,1.54,0,0,0-.36-.2L55,11.15a4.15,4.15,0,0,1-.59-.26,1.53,1.53,0,0,1-.42-.31,1,1,0,0,1-.25-.38,1.28,1.28,0,0,1-.09-.5,1.24,1.24,0,0,1,.16-.62,1.45,1.45,0,0,1,.43-.46,2,2,0,0,1,.62-.27,2.77,2.77,0,0,1,.71-.1,2.86,2.86,0,0,1,1.16.23v.81a2.27,2.27,0,0,0-1.27-.36,1.32,1.32,0,0,0-.41.05,1,1,0,0,0-.31.14.83.83,0,0,0-.2.22.73.73,0,0,0-.07.29.81.81,0,0,0,.07.33.76.76,0,0,0,.21.23,1.69,1.69,0,0,0,.33.19l.45.18a4.72,4.72,0,0,1,.59.26,2,2,0,0,1,.45.3,1.11,1.11,0,0,1,.29.39A1.38,1.38,0,0,1,57,12a1.23,1.23,0,0,1-.17.65,1.32,1.32,0,0,1-.43.45,2,2,0,0,1-.63.27,3.08,3.08,0,0,1-.75.09A2.85,2.85,0,0,1,53.68,13.19Z" fill="#00b0f0"/><path d="M60.32,13.49a2.34,2.34,0,0,1-1.77-.7,2.61,2.61,0,0,1-.66-1.86,2.7,2.7,0,0,1,.69-2,2.46,2.46,0,0,1,1.86-.71,2.24,2.24,0,0,1,1.74.69,2.73,2.73,0,0,1,.63,1.91,2.7,2.7,0,0,1-.68,1.92A2.36,2.36,0,0,1,60.32,13.49Zm.06-4.56a1.51,1.51,0,0,0-1.22.52,2.17,2.17,0,0,0-.45,1.45,2,2,0,0,0,.45,1.4,1.55,1.55,0,0,0,1.22.51,1.45,1.45,0,0,0,1.19-.5A2.16,2.16,0,0,0,62,10.88a2.19,2.19,0,0,0-.42-1.44A1.46,1.46,0,0,0,60.38,8.93Z" fill="#00b0f0"/><path d="M71.09,13.37h-.8v-.85h0a1.83,1.83,0,0,1-1.71,1,1.9,1.9,0,0,1-1.51-.67A2.74,2.74,0,0,1,66.49,11a3,3,0,0,1,.62-2,2.06,2.06,0,0,1,1.67-.75,1.59,1.59,0,0,1,1.49.81h0V6h.8Zm-.8-2.26v-.74a1.41,1.41,0,0,0-.4-1,1.32,1.32,0,0,0-1-.42,1.39,1.39,0,0,0-1.15.53A2.38,2.38,0,0,0,67.31,11a2.08,2.08,0,0,0,.4,1.36,1.3,1.3,0,0,0,1.08.5,1.38,1.38,0,0,0,1.09-.48A1.78,1.78,0,0,0,70.29,11.11Z" fill="#00b0f0"/><path d="M76.73,11.07H73.2a1.93,1.93,0,0,0,.45,1.29,1.56,1.56,0,0,0,1.18.45,2.46,2.46,0,0,0,1.56-.55V13a2.9,2.9,0,0,1-1.75.48A2.12,2.12,0,0,1,73,12.81a2.83,2.83,0,0,1-.61-1.92A2.69,2.69,0,0,1,73,9a2.11,2.11,0,0,1,1.64-.74,1.9,1.9,0,0,1,1.52.64,2.62,2.62,0,0,1,.53,1.76Zm-.82-.68a1.62,1.62,0,0,0-.33-1.08,1.17,1.17,0,0,0-.92-.38,1.31,1.31,0,0,0-1,.4,1.94,1.94,0,0,0-.49,1.06Z" fill="#00b0f0"/><path d="M78.75,13.37H78V6h.8Z" fill="#00b0f0"/><path d="M86.51,13.14a2.6,2.6,0,0,1-1.36.35,2.25,2.25,0,0,1-1.73-.7,2.5,2.5,0,0,1-.66-1.8,2.8,2.8,0,0,1,.71-2,2.47,2.47,0,0,1,1.89-.75,2.51,2.51,0,0,1,1.16.25v.82a2,2,0,0,0-1.19-.39,1.57,1.57,0,0,0-1.25.55,2.05,2.05,0,0,0-.5,1.44,2,2,0,0,0,.47,1.39,1.56,1.56,0,0,0,1.23.5,2,2,0,0,0,1.23-.43Z" fill="#00b0f0"/><path d="M89.82,13.49a2.34,2.34,0,0,1-1.77-.7,2.57,2.57,0,0,1-.67-1.86,2.7,2.7,0,0,1,.69-2,2.49,2.49,0,0,1,1.86-.71,2.25,2.25,0,0,1,1.75.69,2.73,2.73,0,0,1,.63,1.91,2.7,2.7,0,0,1-.68,1.92A2.37,2.37,0,0,1,89.82,13.49Zm.05-4.56a1.52,1.52,0,0,0-1.22.52,2.17,2.17,0,0,0-.45,1.45,2.05,2.05,0,0,0,.46,1.4,1.54,1.54,0,0,0,1.21.51,1.46,1.46,0,0,0,1.2-.5,2.16,2.16,0,0,0,.42-1.43,2.19,2.19,0,0,0-.42-1.44A1.47,1.47,0,0,0,89.87,8.93Z" fill="#00b0f0"/><path d="M97.85,13.37h-.8v-.85h0a1.84,1.84,0,0,1-1.72,1,1.88,1.88,0,0,1-1.5-.67A2.75,2.75,0,0,1,93.24,11a3,3,0,0,1,.63-2,2.06,2.06,0,0,1,1.66-.75,1.6,1.6,0,0,1,1.5.81h0V6h.8Zm-.8-2.26v-.74a1.41,1.41,0,0,0-.4-1,1.34,1.34,0,0,0-1-.42,1.41,1.41,0,0,0-1.16.53A2.38,2.38,0,0,0,94.06,11a2.08,2.08,0,0,0,.41,1.36,1.3,1.3,0,0,0,1.08.5,1.36,1.36,0,0,0,1.08-.48A1.79,1.79,0,0,0,97.05,11.11Z" fill="#00b0f0"/><path d="M99.88,7.1a.5.5,0,0,1-.51-.52.5.5,0,0,1,.15-.37.49.49,0,0,1,.36-.15.52.52,0,0,1,.38.15.53.53,0,0,1,0,.74A.52.52,0,0,1,99.88,7.1Zm.39,6.27h-.8v-5h.8Z" fill="#00b0f0"/><path d="M105.3,13.14a2.6,2.6,0,0,1-1.36.35,2.25,2.25,0,0,1-1.73-.7,2.5,2.5,0,0,1-.66-1.8,2.8,2.8,0,0,1,.71-2,2.47,2.47,0,0,1,1.89-.75,2.51,2.51,0,0,1,1.16.25v.82a2,2,0,0,0-1.19-.39,1.57,1.57,0,0,0-1.25.55,2.05,2.05,0,0,0-.5,1.44,2,2,0,0,0,.47,1.39,1.56,1.56,0,0,0,1.23.5,2,2,0,0,0,1.23-.43Z" fill="#00b0f0"/><path d="M110.53,11.07H107a1.93,1.93,0,0,0,.45,1.29,1.56,1.56,0,0,0,1.18.45,2.48,2.48,0,0,0,1.56-.55V13a2.9,2.9,0,0,1-1.75.48,2.12,2.12,0,0,1-1.66-.68,2.83,2.83,0,0,1-.61-1.92,2.73,2.73,0,0,1,.66-1.9,2.14,2.14,0,0,1,1.65-.74,1.9,1.9,0,0,1,1.52.64,2.68,2.68,0,0,1,.53,1.76Zm-.82-.68a1.62,1.62,0,0,0-.33-1.08,1.17,1.17,0,0,0-.92-.38,1.28,1.28,0,0,0-1,.4,1.87,1.87,0,0,0-.49,1.06Z" fill="#00b0f0"/><path d="M118.75,13.37H118v-.85h0a1.84,1.84,0,0,1-1.72,1,1.87,1.87,0,0,1-1.5-.67,2.75,2.75,0,0,1-.57-1.83,3,3,0,0,1,.63-2,2,2,0,0,1,1.66-.75,1.6,1.6,0,0,1,1.5.81h0V6h.8Zm-.8-2.26v-.74a1.41,1.41,0,0,0-.4-1,1.36,1.36,0,0,0-1-.42,1.41,1.41,0,0,0-1.15.53A2.38,2.38,0,0,0,115,11a2.08,2.08,0,0,0,.41,1.36,1.28,1.28,0,0,0,1.08.5,1.37,1.37,0,0,0,1.08-.48A1.79,1.79,0,0,0,118,11.11Z" fill="#00b0f0"/><path d="M120.78,7.1a.51.51,0,0,1-.52-.52.51.51,0,0,1,.16-.37.49.49,0,0,1,.36-.15.54.54,0,0,1,.38.15.53.53,0,0,1,0,.74A.54.54,0,0,1,120.78,7.1Zm.39,6.27h-.8v-5h.8Z" fill="#00b0f0"/><path d="M129.11,13.37h-.8v-.78h0a1.68,1.68,0,0,1-1.54.9,1.65,1.65,0,0,1-1.17-.4,1.36,1.36,0,0,1-.42-1.05c0-.93.55-1.47,1.65-1.63l1.5-.21c0-.85-.34-1.27-1-1.27a2.47,2.47,0,0,0-1.63.61V8.72a3.12,3.12,0,0,1,1.7-.47c1.17,0,1.76.63,1.76,1.87Zm-.8-2.53-1.2.17a1.88,1.88,0,0,0-.84.27.81.81,0,0,0-.29.7.76.76,0,0,0,.26.6,1,1,0,0,0,.7.23,1.28,1.28,0,0,0,1-.41,1.49,1.49,0,0,0,.39-1.06Z" fill="#00b0f0"/><path d="M134.66,13.37h-.8v-.79h0a1.63,1.63,0,0,1-1.54.91c-1.19,0-1.79-.71-1.79-2.13v-3h.8v2.86c0,1.06.4,1.58,1.21,1.58a1.24,1.24,0,0,0,1-.43,1.65,1.65,0,0,0,.37-1.13V8.37h.8Z" fill="#00b0f0"/><path d="M138.6,13.32a1.49,1.49,0,0,1-.75.16c-.87,0-1.31-.49-1.31-1.47v-3h-.86V8.37h.86V7.15l.8-.26V8.37h1.26v.68h-1.26v2.82a1.19,1.19,0,0,0,.17.72.7.7,0,0,0,.57.21.85.85,0,0,0,.52-.16Z" fill="#00b0f0"/><path d="M141.76,13.49a2.34,2.34,0,0,1-1.77-.7,2.61,2.61,0,0,1-.66-1.86A2.7,2.7,0,0,1,140,9a2.46,2.46,0,0,1,1.86-.71,2.24,2.24,0,0,1,1.74.69,2.73,2.73,0,0,1,.63,1.91,2.7,2.7,0,0,1-.68,1.92A2.36,2.36,0,0,1,141.76,13.49Zm.06-4.56a1.51,1.51,0,0,0-1.22.52,2.17,2.17,0,0,0-.45,1.45,2,2,0,0,0,.45,1.4,1.55,1.55,0,0,0,1.22.51,1.45,1.45,0,0,0,1.19-.5,2.16,2.16,0,0,0,.42-1.43A2.19,2.19,0,0,0,143,9.44,1.46,1.46,0,0,0,141.82,8.93Z" fill="#00b0f0"/><path d="M148.14,9.18a1,1,0,0,0-.61-.16,1,1,0,0,0-.86.48,2.27,2.27,0,0,0-.34,1.32v2.55h-.8v-5h.8v1h0a1.76,1.76,0,0,1,.52-.82,1.2,1.2,0,0,1,.79-.3,1.43,1.43,0,0,1,.48.07Z" fill="#00b0f0"/><path d="M149.42,7.1a.53.53,0,0,1-.37-.14.52.52,0,0,1-.15-.38.51.51,0,0,1,.52-.52.51.51,0,0,1,.37.15.53.53,0,0,1,0,.74A.51.51,0,0,1,149.42,7.1Zm.39,6.27H149v-5h.81Z" fill="#00b0f0"/><path d="M154.91,8.6l-3,4.09h2.93v.68h-4.1v-.25l3-4.07h-2.68V8.37h3.85Z" fill="#00b0f0"/><path d="M159.43,8.6l-3,4.09h2.93v.68H155.3v-.25l3-4.07h-2.68V8.37h3.85Z" fill="#00b0f0"/><path d="M164.05,13.37h-.8v-.78h0a1.68,1.68,0,0,1-1.54.9,1.61,1.61,0,0,1-1.17-.4A1.36,1.36,0,0,1,160.1,12c0-.93.55-1.47,1.65-1.63l1.5-.21c0-.85-.35-1.27-1-1.27a2.45,2.45,0,0,0-1.63.61V8.72a3.1,3.1,0,0,1,1.7-.47c1.17,0,1.76.63,1.76,1.87Zm-.8-2.53L162,11a2,2,0,0,0-.84.27.81.81,0,0,0-.28.7.76.76,0,0,0,.26.6,1,1,0,0,0,.7.23,1.31,1.31,0,0,0,1-.41,1.49,1.49,0,0,0,.39-1.06Z" fill="#00b0f0"/><path d="M169,8.6l-3,4.09H169v.68h-4.1v-.25l3-4.07h-2.68V8.37H169Z" fill="#00b0f0"/><path d="M170.49,7.1a.55.55,0,0,1-.37-.14.52.52,0,0,1-.15-.38.5.5,0,0,1,.15-.37.51.51,0,0,1,.37-.15.5.5,0,0,1,.37.15.51.51,0,0,1,0,.74A.5.5,0,0,1,170.49,7.1Zm.39,6.27h-.8v-5h.8Z" fill="#00b0f0"/><path d="M174.59,13.49a2.34,2.34,0,0,1-1.77-.7,2.61,2.61,0,0,1-.66-1.86,2.7,2.7,0,0,1,.69-2,2.49,2.49,0,0,1,1.86-.71,2.22,2.22,0,0,1,1.74.69,2.73,2.73,0,0,1,.63,1.91,2.69,2.69,0,0,1-.67,1.92A2.39,2.39,0,0,1,174.59,13.49Zm.06-4.56a1.51,1.51,0,0,0-1.22.52A2.17,2.17,0,0,0,173,10.9a2,2,0,0,0,.45,1.4,1.56,1.56,0,0,0,1.22.51,1.43,1.43,0,0,0,1.19-.5,2.16,2.16,0,0,0,.42-1.43,2.19,2.19,0,0,0-.42-1.44A1.43,1.43,0,0,0,174.65,8.93Z" fill="#00b0f0"/><path d="M182.51,13.37h-.8V10.52c0-1.06-.39-1.59-1.16-1.59a1.29,1.29,0,0,0-1,.45,1.68,1.68,0,0,0-.39,1.14v2.85h-.8v-5h.8V9.2h0a1.82,1.82,0,0,1,1.64-.95,1.55,1.55,0,0,1,1.26.53,2.38,2.38,0,0,1,.43,1.53Z" fill="#00b0f0"/><path d="M188,11.07h-3.53a1.83,1.83,0,0,0,.45,1.29,1.54,1.54,0,0,0,1.18.45,2.45,2.45,0,0,0,1.55-.55V13a2.89,2.89,0,0,1-1.74.48,2.14,2.14,0,0,1-1.67-.68,2.83,2.83,0,0,1-.6-1.92,2.73,2.73,0,0,1,.66-1.9A2.12,2.12,0,0,1,186,8.25a1.89,1.89,0,0,1,1.52.64,2.63,2.63,0,0,1,.54,1.76Zm-.82-.68a1.68,1.68,0,0,0-.34-1.08,1.15,1.15,0,0,0-.91-.38,1.28,1.28,0,0,0-1,.4,1.81,1.81,0,0,0-.49,1.06Z" fill="#00b0f0"/></svg>