<?xml version="1.0" encoding="utf-8"?>
<!-- Generator: Adobe Illustrator 23.0.1, SVG Export Plug-In . SVG Version: 6.00 Build 0)  -->
<svg version="1.1" xmlns="http://www.w3.org/2000/svg" xmlns:xlink="http://www.w3.org/1999/xlink" x="0px" y="0px"
	 viewBox="0 0 247.3 64.5" style="enable-background:new 0 0 247.3 64.5;" xml:space="preserve">
<style type="text/css">
	.st0{fill-rule:evenodd;clip-rule:evenodd;fill:#008BFD;}
	.st1{enable-background:new    ;}
	.st2{font-family:'Calibri';}
	.st3{font-size:10px;}
	
		.st4{fill-rule:evenodd;clip-rule:evenodd;fill:#008BFD;stroke:#808080;stroke-width:0.75;stroke-linecap:round;stroke-linejoin:round;stroke-miterlimit:3;}
	.st5{fill-rule:evenodd;clip-rule:evenodd;fill:#FFFFFF;}
	.st6{fill:#505050;}
	.st7{fill:none;}
	.st8{fill:#00B0F0;}
	.st9{fill-rule:evenodd;clip-rule:evenodd;fill:#505050;}
</style>
<g id="shapes" xmlns:ev="http://www.w3.org/2001/xml-events" xmlns:v="http://schemas.microsoft.com/visio/2003/SVGExtensions/">
	<g id="group1550-2_1_">
		<g id="shape1551-3_1_">
			<path class="st0" d="M66,40.1c-2.2,1.7-4.8,2.5-7.3,2.5c-3.6,0-7.2-1.7-9.5-4.8c-4-5.4-3-13.1,2.2-17.3c2.2-1.7,4.8-2.5,7.3-2.5
				c3.6,0,7.2,1.7,9.5,4.8C72.3,28.3,71.3,36,66,40.1z M69.7,21.7c-2.7-3.6-6.8-5.5-11-5.5c-2.9,0-5.9,1-8.4,2.9
				c-6,4.8-7.2,13.7-2.5,19.9c2.7,3.6,6.8,5.5,11,5.5c2.9,0,5.9-0.9,8.4-2.9C73.2,36.8,74.3,27.9,69.7,21.7z"/>
		</g>
	</g>
	<g id="group1552-5_1_" transform="translate(4.95554,-4.39536)">
		<g id="group1553-6_1_" transform="translate(0.341805,-0.176482)">
			<g id="group1554-7_1_" transform="translate(0.437248,3.2685E-13)">
				<g id="shape1555-8_1_">
					<path class="st0" d="M46.8,37.5c-0.8-0.8-1.4-1.6-2-2.3c-1.2,2.4-1.6,4.9-1.7,6.9c0.1,0.2,0.1,0.3,0.2,0.4c0.6,0.8,1.3,1.5,2,2
						C45.3,42.9,45.4,40.2,46.8,37.5z"/>
				</g>
			</g>
			<g id="shape1556-10_1_" transform="translate(3.29213,-8.97695)">
				<path class="st0" d="M48.1,37c-1.1,0.8-2.2,1.8-3.3,3c-0.6,0.7-1.2,1.4-1.6,2.1c0.5,0.8,1.1,1.6,1.9,2.5
					c0.6-0.9,1.3-1.7,2.2-2.6c1.1-1.1,2.2-1.9,3.1-2.6C49.6,38.6,48.8,37.8,48.1,37z"/>
			</g>
			<g id="group1557-12_1_" transform="translate(9.93516,-15.1958)">
				<g id="shape1558-13_1_">
					<path class="st0" d="M52.9,42.4c-0.5-0.7-1.1-1.3-1.7-1.8c-1.9-0.3-4.7-0.3-8,1.5c0.8,0.8,1.5,1.6,2.2,2.4
						C49.8,42.1,52.9,42.4,52.9,42.4z"/>
				</g>
			</g>
			<g id="group1559-15_1_" transform="translate(1.10162E-13,-9.38012)">
				<g id="shape1560-16_1_">
					<path class="st0" d="M45.2,44.5c0.3-0.7,0.7-1.4,1.2-2.1c-1.9-3.1-1.8-5.6-1.6-6.8c-0.5,0.5-0.9,1-1.3,1.6
						C43.2,38.9,43.1,41.4,45.2,44.5z"/>
				</g>
			</g>
			<g id="group1561-18_1_" transform="translate(4.05148,-0.740211)">
				<g id="shape1562-19_1_">
					<path class="st0" d="M46.6,38.4c-0.9-0.7-1.6-1.4-2.3-2.1c-0.5,0.7-0.8,1.3-1.1,2c0.6,0.6,1.3,1.3,2.1,1.9
						c4.9,4,9.8,4.4,12.6,4.4c0.2,0,1-1.2,1.5-1.9C58.1,42.8,52.8,43.5,46.6,38.4z"/>
				</g>
			</g>
			<g id="group1563-21_1_" transform="translate(2.10339,-7.03041)">
				<g id="shape1564-22_1_">
					<path class="st0" d="M43.1,42.2c0.5,0.8,1.2,1.5,2,2.3c0.3-0.6,0.7-1.3,1.1-1.9c-0.8-0.8-1.4-1.7-1.9-2.5
						C43.9,40.8,43.5,41.5,43.1,42.2z"/>
				</g>
			</g>
			<g id="group1565-24_1_" transform="translate(10.5195,-5.3233)">
				<g id="shape1566-25_1_">
					<path class="st0" d="M43.1,35.7c4.5,4.3,9.8,7.9,11.1,8.8c0.1-0.3,0.2-0.7,0.3-1c-1.5-1.1-5.3-4.2-9.8-8.8
						C44.3,34.9,43.7,35.3,43.1,35.7z"/>
				</g>
			</g>
			<g id="group1567-27_1_" transform="translate(4.98729,-16.4714)">
				<g id="shape1568-28_1_">
					<path class="st0" d="M48.1,43.4c-1.1-1.2-2.2-2.4-3.4-3.8c-0.5,0.2-1.1,0.4-1.6,0.7c0.8,1.4,2,2.8,3.2,4.2
						C47,44.1,47.5,43.7,48.1,43.4z"/>
				</g>
			</g>
			<g id="shape1569-30_1_" transform="translate(8.13763,-14.0503)">
				<path class="st0" d="M45,41c-0.6,0.3-1.3,0.8-1.9,1.2c0.7,0.8,1.5,1.6,2.3,2.3c0.6-0.4,1.3-0.9,1.9-1.2
					C46.5,42.6,45.8,41.8,45,41z"/>
			</g>
			<g id="shape1570-32_1_" transform="translate(8.1369,-14.0039)">
				<path class="st0" d="M44.8,40.8c-0.6,0.3-1.1,0.7-1.7,1.1c0.7,0.8,1.7,1.8,2.5,2.6c0.6-0.4,1-0.8,1.6-1.1
					C46.5,42.7,45.6,41.7,44.8,40.8z"/>
			</g>
		</g>
		<g id="group1571-34_1_" transform="translate(14.8617,-6.23662)">
			<g id="shape1572-35_1_">
				<path class="st0" d="M44.5,39.4c-1.1,0.9-1.3,2.6-0.5,3.7c0.9,1.2,2.5,1.4,3.6,0.5c1.1-0.9,1.3-2.5,0.5-3.7
					C47.2,38.8,45.6,38.5,44.5,39.4z"/>
			</g>
		</g>
		<g id="group1573-37_1_" transform="translate(9.65099,-2.13163E-13)">
			<g id="shape1574-38_1_">
				<path class="st0" d="M44.4,39.8c-1,0.8-1.2,2.4-0.5,3.4c0.8,1.1,2.3,1.3,3.4,0.5c1-0.8,1.2-2.4,0.4-3.4
					C46.9,39.2,45.4,39,44.4,39.8z"/>
			</g>
		</g>
		<g id="group1575-40_1_" transform="translate(0,-5.36433)">
			<g id="shape1576-41_1_">
				<path class="st0" d="M45,37.4c-1.6,1.3-1.9,3.6-0.7,5.2c1.2,1.6,3.5,1.9,5.1,0.7c1.6-1.3,1.9-3.6,0.7-5.2
					C48.9,36.4,46.6,36.1,45,37.4z"/>
			</g>
		</g>
	</g>
	<g id="shape1549-43_1_">
		<text transform="matrix(1 0 0 1 39.891 57.5264)" class="st1 st2 st3">App Web<v:paragraph  v:horizAlign="1"></v:paragraph><v:tabList></v:tabList></text>
	</g>
	<path class="st0" d="M236.4,17.6h-20.5c-0.6,0-1.1,0.5-1.1,1.1v16.7c0,0.6,0.5,1.1,1.1,1.1h5.3c0.4,1.4,1.7,2.3,3.2,2.3
		c1.8,0,3.3-1.5,3.3-3.4s-1.5-3.4-3.3-3.4c-1.5,0-2.8,0.9-3.2,2.3H217v-12h18.3v12h-3.5c-0.5-3.7-3.7-6.6-7.5-6.6
		c-1.3,0-2.6,0.4-3.6,0.9l1,2c0.7-0.4,1.7-0.7,2.6-0.7c2.9,0,5.4,2.4,5.4,5.5c0,3-2.4,5.5-5.4,5.5c-0.9,0-1.8-0.3-2.6-0.7l-1,2
		c1.1,0.6,2.4,0.9,3.6,0.9c3.8,0,7-2.9,7.5-6.6h4.6c0.6,0,1.1-0.5,1.1-1.1V18.7C237.5,18.1,237,17.6,236.4,17.6z"/>
	<g id="group1580-58_1_" transform="translate(0.375,-25.6729)">
		<g id="group1581-59_1_">
			<g id="group1582-60_1_">
				<g id="group1583-61_1_" transform="translate(3.8518,-6.4617)">
					<g id="shape1584-62_1_">
						<path class="st0" d="M3.6,54.6c-2.3,0.6-3.6,3.1-3,5.7c0.7,2.6,3,4.2,5.3,3.7c2.3-0.6,3.6-3.1,3-5.7C8.3,55.6,5.9,54,3.6,54.6
							z"/>
					</g>
				</g>
				<g id="group1585-64_1_">
					<g id="shape1586-65_1_">
						<path class="st0" d="M12.4,58.2c-0.4,0-0.9,0.8-1.5,1.1c-0.7,0.3-1.3,0.9-3.2,0c-1.9-0.9-2.1-1.7-3.6-1.7
							c-1.5,0-4.1,2.8-4.1,6.9h15.6c0,0-0.2-2.8-1.1-4.2C13.4,58.2,12.9,58.2,12.4,58.2z"/>
					</g>
				</g>
			</g>
		</g>
		<g id="group1587-67_1_" transform="translate(9.0485,-0.85947)">
			<g id="shape1588-68_1_">
				<path class="st4" d="M4.8,54.1H0.7c-0.3,0-0.6,0.3-0.6,0.7v2.8c0,0.3,0.3,0.7,0.8,0.7h0.8v5.2c0,0.6,0.4,1.1,1,1.1s1-0.4,1-1
					c0.1,0,0.2,0,0.2,0s0-0.5,0-0.7c0-0.2,0.3-0.3,0.3-0.3v-0.3c-0.3-0.1-0.5-0.3-0.5-0.4v-0.3c0.1-0.1,0.2-0.2,0.2-0.2
					C3.8,61.1,4,60.7,4,60.7s-0.3-0.4-0.3-0.5c-0.1-0.1-0.1-0.3-0.2-0.4v-0.2c0.1-0.5,0.8-1.1,0.8-1.1h0.5c0.3,0,0.7-0.3,0.7-0.7v-3
					C5.4,54.4,5.2,54.1,4.8,54.1z M2.4,63.7c0,0.2,0,0.3-0.2,0.3C2,64,2,63.8,2,63.7v-4.8c0-0.2,0.1-0.3,0.2-0.3
					c0.2,0,0.2,0.2,0.2,0.3V63.7z M2.7,55.9c-0.3,0-0.7-0.3-0.7-0.7c0-0.3,0.3-0.7,0.7-0.7c0.3,0,0.6,0.3,0.6,0.7
					C3.4,55.5,3.1,55.9,2.7,55.9z"/>
			</g>
			<g id="shape1589-70_1_" transform="translate(1.92482,-0.570755)">
				<path class="st5" d="M0.2,64.5c-0.1,0-0.2-0.1-0.2-0.2v-5c0-0.1,0.1-0.2,0.2-0.2s0.2,0.1,0.2,0.2v5.1
					C0.4,64.5,0.3,64.5,0.2,64.5z"/>
			</g>
			<g id="shape1590-72_1_" transform="translate(2.05993,-8.66317)">
				<ellipse class="st5" cx="0.7" cy="63.9" rx="0.7" ry="0.7"/>
			</g>
		</g>
	</g>
	<g>
		<path class="st6" d="M207.7,30.7c0-2-0.8-3.1-1.4-4.3c2.8,1.5,5.5,2.9,8.2,4.3c-2.7,1.4-5.4,2.8-8.2,4.3
			C206.8,33.6,207.6,32.5,207.7,30.7z"/>
	</g>
</g>
<g id="txt" xmlns:ev="http://www.w3.org/2001/xml-events" xmlns:v="http://schemas.microsoft.com/visio/2003/SVGExtensions/">
	<g id="shape1578-49_2_" transform="translate(214.796,-21.421)">
		<text transform="matrix(1 0 0 1 -30.5162 77.53)" class="st1 st2 st3">App per le API<v:paragraph  v:horizAlign="1"></v:paragraph><v:tabList></v:tabList></text>
	</g>
	<rect x="137.4" y="1.9" class="st7" width="73.6" height="21.6"/>
	<text transform="matrix(1 0 0 1 144.2575 8.6768)"><tspan x="0" y="0" class="st8 st2 st3">Autorizzazione</tspan><tspan x="0.3" y="12" class="st8 st2 st3">flusso di codici</tspan></text>
</g>
<g id="source" xmlns:ev="http://www.w3.org/2001/xml-events" xmlns:v="http://schemas.microsoft.com/visio/2003/SVGExtensions/">
	<g id="Arrow">
		<g id="shape1579-52_2_" transform="translate(73.5133,-41.2635)">
			<g transform="scale(-2.68,-2.68) ">
				<g id="lend5_2_">
					<path class="st9" d="M132.8,68l8,4l-8,4C134.1,73.5,134.1,70.5,132.8,68"/>
				</g>
			</g>
		</g>
		<path class="st6" d="M207.6,31.5c-6.8,0-12.9,0-19.3,0c-6.5,0-13.4,0-19.9,0c-6.4,0-11.3,0-19.1,0c-6.5,0-13.1,0-19.6,0
			c-6.4,0-12.5,0-18.9,0c-6.5,0-13.4,0-19.9,0c-6.2,0-8.8,0-15.6,0c-0.2,0-1.5-0.2-1.5-0.8c0-0.6,1.4-0.8,1.7-0.8
			c3,0,86.7,0,132.2,0"/>
	</g>
</g>
</svg>
