<svg id="svg198" xmlns="http://www.w3.org/2000/svg" viewBox="0 0 204.71 64.78">
  <defs>
    <style>
      .cls-1, .cls-6 {
        fill: #008bfd;
      }

      .cls-2 {
        isolation: isolate;
      }

      .cls-3, .cls-8 {
        fill: none;
      }

      .cls-4 {
        fill: #00b0f0;
      }

      .cls-5 {
        fill: #505050;
      }

      .cls-6 {
        stroke: gray;
        stroke-linecap: round;
        stroke-linejoin: round;
        stroke-width: 0.75px;
      }

      .cls-7 {
        fill: #fff;
      }

      .cls-8 {
        stroke: #505050;
        stroke-miterlimit: 10;
      }
    </style>
  </defs>
  <title>OJ104440671</title>
  <g id="group1113-2">
    <g id="shape1114-3">
      <path id="path21" class="cls-1" d="M66,40.4a11.81,11.81,0,0,1-16.84-2.29,12.56,12.56,0,0,1,2.24-17.29,11.82,11.82,0,0,1,16.84,2.3A12.54,12.54,0,0,1,66,40.4ZM69.69,22a13.57,13.57,0,0,0-19.36-2.63,14.43,14.43,0,0,0-2.55,19.87,13.62,13.62,0,0,0,11,5.55,13.45,13.45,0,0,0,8.39-2.92A14.44,14.44,0,0,0,69.69,22Z"/>
    </g>
  </g>
  <g id="group1115-5">
    <g id="group1116-6">
      <g id="group1117-7">
        <g id="shape1118-8">
          <path id="path33" class="cls-1" d="M52.06,33.18a17,17,0,0,1-2-2.35,18.28,18.28,0,0,0-1.66,6.88c.11.16.11.29.23.44a12.55,12.55,0,0,0,2,2.05A14.13,14.13,0,0,1,52.06,33.18Z"/>
        </g>
      </g>
      <g id="shape1119-10">
        <path id="path39" class="cls-1" d="M56.67,23.74a21,21,0,0,0-3.33,3,15.71,15.71,0,0,0-1.61,2.05,15.42,15.42,0,0,0,1.9,2.46,16.32,16.32,0,0,1,2.2-2.56A26.47,26.47,0,0,1,59,26.06C58.16,25.3,57.38,24.53,56.67,23.74Z"/>
      </g>
      <g id="group1120-12">
        <g id="shape1121-13">
          <path id="path46" class="cls-1" d="M68.14,22.94a12,12,0,0,0-1.73-1.82,12.53,12.53,0,0,0-8,1.53c.76.84,1.51,1.63,2.24,2.36C65,22.58,68.14,22.94,68.14,22.94Z"/>
        </g>
      </g>
      <g id="group1122-15">
        <g id="shape1123-16">
          <path id="path54" class="cls-1" d="M50.34,31a19.82,19.82,0,0,1,1.19-2.06,9.84,9.84,0,0,1-1.6-6.79,13.09,13.09,0,0,0-1.29,1.6C48.26,25.33,48.24,27.89,50.34,31Z"/>
        </g>
      </g>
      <g id="group1124-18">
        <g id="shape1125-19">
          <path id="path62" class="cls-1" d="M55.9,33.36a21.6,21.6,0,0,1-2.27-2.14,14.25,14.25,0,0,0-1.14,2,23.54,23.54,0,0,0,2.09,1.91,19.12,19.12,0,0,0,12.56,4.38,9,9,0,0,0,1.54-1.94C67.45,37.78,62.19,38.47,55.9,33.36Z"/>
        </g>
      </g>
      <g id="group1126-21">
        <g id="shape1127-22">
          <path id="path70" class="cls-1" d="M50.54,30.82a15.72,15.72,0,0,0,2,2.35,15.36,15.36,0,0,1,1.14-2,15.42,15.42,0,0,1-1.9-2.46A15.58,15.58,0,0,0,50.54,30.82Z"/>
        </g>
      </g>
      <g id="group1128-24">
        <g id="shape1129-25">
          <path id="path78" class="cls-1" d="M59,26.06a97,97,0,0,0,11.15,8.82,9.82,9.82,0,0,0,.33-1.05A95.51,95.51,0,0,1,60.61,25Q59.82,25.46,59,26.06Z"/>
        </g>
      </g>
      <g id="group1130-27">
        <g id="shape1131-28">
          <path id="path86" class="cls-1" d="M58.38,22.65q-1.65-1.77-3.36-3.8a10.05,10.05,0,0,0-1.59.66,26.3,26.3,0,0,0,3.24,4.22A17.22,17.22,0,0,1,58.38,22.65Z"/>
        </g>
      </g>
      <g id="shape1132-30">
        <path id="path92" class="cls-1" d="M58.45,22.61a18.74,18.74,0,0,0-1.87,1.19c.72.78,1.45,1.59,2.25,2.35.57-.4,1.34-.88,1.87-1.18C60,24.24,59.21,23.45,58.45,22.61Z"/>
      </g>
      <g id="shape1133-32">
        <path id="path97" class="cls-1" d="M58.25,22.51a16.24,16.24,0,0,0-1.67,1.12c.72.79,1.74,1.81,2.54,2.57.57-.4,1.05-.8,1.58-1.11C60,24.37,59,23.34,58.25,22.51Z"/>
      </g>
    </g>
    <g id="group1134-34">
      <g id="shape1135-35">
        <path id="path105" class="cls-1" d="M64.3,29.06a2.7,2.7,0,0,0-.48,3.7,2.56,2.56,0,0,0,3.63.51,2.72,2.72,0,0,0,.48-3.72A2.55,2.55,0,0,0,64.3,29.06Z"/>
      </g>
    </g>
    <g id="group1136-37">
      <g id="shape1137-38">
        <path id="path113" class="cls-1" d="M59.13,35.19a2.52,2.52,0,0,0-.45,3.44,2.37,2.37,0,0,0,3.36.45,2.49,2.49,0,0,0,.44-3.43A2.36,2.36,0,0,0,59.13,35.19Z"/>
      </g>
    </g>
    <g id="group1138-40">
      <g id="shape1139-41">
        <path id="path121" class="cls-1" d="M50,27.86a3.79,3.79,0,0,0-.68,5.21,3.58,3.58,0,0,0,5.1.7,3.8,3.8,0,0,0,.67-5.23A3.59,3.59,0,0,0,50,27.86Z"/>
      </g>
    </g>
  </g>
  <g id="shape1112-43">
    <g id="text126" class="cls-2">
      <path class="cls-1" d="M44.47,57.79h-.91l-.74-2h-3l-.7,2h-.91l2.69-7h.84Zm-1.92-2.7-1.1-3a2.74,2.74,0,0,1-.1-.47h0a2.42,2.42,0,0,1-.12.47l-1.09,3Z"/>
      <path class="cls-1" d="M46.21,57.06h0v3h-.8v-7.3h.8v.88h0a1.89,1.89,0,0,1,1.73-1,1.82,1.82,0,0,1,1.51.67,2.8,2.8,0,0,1,.54,1.8,3.07,3.07,0,0,1-.61,2,2,2,0,0,1-1.67.75A1.67,1.67,0,0,1,46.21,57.06Zm0-2v.7a1.49,1.49,0,0,0,.41,1,1.33,1.33,0,0,0,1,.43,1.36,1.36,0,0,0,1.14-.56,2.56,2.56,0,0,0,.41-1.54,2,2,0,0,0-.38-1.31,1.28,1.28,0,0,0-1-.48,1.43,1.43,0,0,0-1.12.49A1.8,1.8,0,0,0,46.19,55.05Z"/>
      <path class="cls-1" d="M52.09,57.06h0v3h-.8v-7.3h.8v.88h0a1.89,1.89,0,0,1,1.73-1,1.82,1.82,0,0,1,1.51.67,2.8,2.8,0,0,1,.54,1.8,3.07,3.07,0,0,1-.61,2,2,2,0,0,1-1.67.75A1.67,1.67,0,0,1,52.09,57.06Zm0-2v.7a1.49,1.49,0,0,0,.41,1,1.3,1.3,0,0,0,1,.43,1.36,1.36,0,0,0,1.14-.56,2.56,2.56,0,0,0,.41-1.54,2,2,0,0,0-.38-1.31,1.28,1.28,0,0,0-1.05-.48,1.43,1.43,0,0,0-1.12.49A1.75,1.75,0,0,0,52.07,55.05Z"/>
      <path class="cls-1" d="M68.3,50.78l-2,7h-1l-1.44-5.12a3.19,3.19,0,0,1-.11-.71h0a4.11,4.11,0,0,1-.13.7l-1.45,5.13h-1l-2-7h.9l1.49,5.38a3.78,3.78,0,0,1,.12.7h0a5,5,0,0,1,.15-.7l1.55-5.38h.79l1.48,5.41a4.92,4.92,0,0,1,.12.66h0a3.2,3.2,0,0,1,.13-.67l1.43-5.4Z"/>
      <path class="cls-1" d="M72.86,55.49H69.33a1.87,1.87,0,0,0,.45,1.29,1.54,1.54,0,0,0,1.18.45,2.46,2.46,0,0,0,1.55-.56v.76a3,3,0,0,1-1.74.47,2.11,2.11,0,0,1-1.67-.68,2.79,2.79,0,0,1-.6-1.91,2.76,2.76,0,0,1,.66-1.91,2.12,2.12,0,0,1,1.64-.73,1.88,1.88,0,0,1,1.52.63,2.67,2.67,0,0,1,.54,1.77ZM72,54.81a1.62,1.62,0,0,0-.34-1.08,1.12,1.12,0,0,0-.91-.39,1.28,1.28,0,0,0-1,.41,1.78,1.78,0,0,0-.49,1.06Z"/>
      <path class="cls-1" d="M74.89,57.06h0v.73h-.8V50.38h.8v3.29h0a1.88,1.88,0,0,1,1.73-1,1.84,1.84,0,0,1,1.51.67,2.8,2.8,0,0,1,.54,1.8,3.07,3.07,0,0,1-.61,2,2,2,0,0,1-1.67.75A1.65,1.65,0,0,1,74.89,57.06Zm0-2v.7a1.48,1.48,0,0,0,.4,1,1.34,1.34,0,0,0,1,.43,1.36,1.36,0,0,0,1.14-.56,2.56,2.56,0,0,0,.41-1.54,2,2,0,0,0-.39-1.31,1.25,1.25,0,0,0-1-.48,1.42,1.42,0,0,0-1.12.49A1.75,1.75,0,0,0,74.87,55.05Z"/>
    </g>
  </g>
  <rect id="rect134" class="cls-3" x="65.1" y="0.37" width="114.21" height="20"/>
  <g id="text136" class="cls-2">
    <path class="cls-4" d="M42.36,7.11H39.62V9.53h2.53v.74H39.62v3.1H38.8v-7h3.56Z"/>
    <path class="cls-4" d="M44.38,13.37h-.8V6h.8Z"/>
    <path class="cls-4" d="M50,13.37h-.8v-.79h0a1.64,1.64,0,0,1-1.54.91c-1.19,0-1.79-.71-1.79-2.13v-3h.8v2.86c0,1.06.4,1.58,1.21,1.58a1.21,1.21,0,0,0,1-.43,1.66,1.66,0,0,0,.38-1.13V8.37H50Z"/>
    <path class="cls-4" d="M51.35,13.19v-.86a2.4,2.4,0,0,0,1.44.48c.71,0,1.06-.23,1.06-.7a.62.62,0,0,0-.09-.34,1,1,0,0,0-.25-.25,2,2,0,0,0-.36-.19l-.44-.18a4.72,4.72,0,0,1-.59-.26,1.9,1.9,0,0,1-.42-.31,1.09,1.09,0,0,1-.25-.38,1.28,1.28,0,0,1-.09-.5,1.15,1.15,0,0,1,.17-.62A1.35,1.35,0,0,1,52,8.62a1.89,1.89,0,0,1,.61-.27,2.39,2.39,0,0,1,.71-.1,2.86,2.86,0,0,1,1.16.23v.81a2.27,2.27,0,0,0-1.27-.36,1.25,1.25,0,0,0-.4.05.81.81,0,0,0-.31.14.58.58,0,0,0-.28.51.81.81,0,0,0,.07.33.76.76,0,0,0,.21.23,1.69,1.69,0,0,0,.33.19l.45.18a4.72,4.72,0,0,1,.59.26,2,2,0,0,1,.45.3,1.11,1.11,0,0,1,.29.39,1.21,1.21,0,0,1,.1.52,1.25,1.25,0,0,1-.16.65,1.45,1.45,0,0,1-.44.45,2,2,0,0,1-.63.27,3.08,3.08,0,0,1-.75.09A2.85,2.85,0,0,1,51.35,13.19Z"/>
    <path class="cls-4" d="M55.6,13.19v-.86a2.35,2.35,0,0,0,1.44.48c.7,0,1.05-.23,1.05-.7a.62.62,0,0,0-.09-.34,1.12,1.12,0,0,0-.24-.25,2,2,0,0,0-.36-.19L57,11.15a4,4,0,0,1-.58-.26,1.53,1.53,0,0,1-.42-.31,1,1,0,0,1-.26-.38,1.5,1.5,0,0,1-.08-.5,1.15,1.15,0,0,1,.16-.62,1.45,1.45,0,0,1,.43-.46,2,2,0,0,1,.61-.27,2.44,2.44,0,0,1,.71-.1,2.86,2.86,0,0,1,1.16.23v.81a2.25,2.25,0,0,0-1.27-.36A1.25,1.25,0,0,0,57,9a1,1,0,0,0-.31.14.69.69,0,0,0-.2.22.59.59,0,0,0-.07.29.67.67,0,0,0,.07.33.65.65,0,0,0,.21.23,1.69,1.69,0,0,0,.33.19l.44.18a5.68,5.68,0,0,1,.6.26,2.52,2.52,0,0,1,.45.3,1.08,1.08,0,0,1,.28.39,1.21,1.21,0,0,1,.1.52,1.25,1.25,0,0,1-.16.65,1.45,1.45,0,0,1-.44.45,2,2,0,0,1-.63.27,3,3,0,0,1-.74.09A2.79,2.79,0,0,1,55.6,13.19Z"/>
    <path class="cls-4" d="M62.23,13.49a2.34,2.34,0,0,1-1.77-.7,2.61,2.61,0,0,1-.66-1.86,2.7,2.7,0,0,1,.69-2,2.49,2.49,0,0,1,1.86-.71,2.25,2.25,0,0,1,1.75.69,2.78,2.78,0,0,1,.62,1.91,2.69,2.69,0,0,1-.67,1.92A2.38,2.38,0,0,1,62.23,13.49Zm.06-4.56a1.52,1.52,0,0,0-1.22.52,2.15,2.15,0,0,0-.45,1.45,2,2,0,0,0,.46,1.4,1.53,1.53,0,0,0,1.21.51,1.46,1.46,0,0,0,1.2-.5,2.21,2.21,0,0,0,.41-1.43,2.25,2.25,0,0,0-.41-1.44A1.47,1.47,0,0,0,62.29,8.93Z"/>
    <path class="cls-4" d="M73,13.37h-.8v-.85h0a1.84,1.84,0,0,1-1.72,1A1.9,1.9,0,0,1,69,12.82,2.8,2.8,0,0,1,68.4,11,3,3,0,0,1,69,9a2,2,0,0,1,1.66-.75,1.6,1.6,0,0,1,1.5.81h0V6H73Zm-.8-2.26v-.74a1.41,1.41,0,0,0-.4-1,1.36,1.36,0,0,0-1-.42,1.39,1.39,0,0,0-1.15.53A2.38,2.38,0,0,0,69.22,11a2.1,2.1,0,0,0,.4,1.36,1.31,1.31,0,0,0,1.09.5,1.37,1.37,0,0,0,1.08-.48A1.79,1.79,0,0,0,72.21,11.11Z"/>
    <path class="cls-4" d="M78.65,11.07H75.12a1.83,1.83,0,0,0,.45,1.29,1.54,1.54,0,0,0,1.18.45,2.45,2.45,0,0,0,1.55-.55V13a2.89,2.89,0,0,1-1.74.48,2.14,2.14,0,0,1-1.67-.68,2.83,2.83,0,0,1-.6-1.92A2.73,2.73,0,0,1,75,9a2.12,2.12,0,0,1,1.64-.74,1.89,1.89,0,0,1,1.52.64,2.63,2.63,0,0,1,.54,1.76Zm-.82-.68a1.62,1.62,0,0,0-.34-1.08,1.15,1.15,0,0,0-.91-.38,1.28,1.28,0,0,0-1,.4,1.81,1.81,0,0,0-.49,1.06Z"/>
    <path class="cls-4" d="M80.66,13.37h-.8V6h.8Z"/>
    <path class="cls-4" d="M88.43,13.14a2.63,2.63,0,0,1-1.37.35,2.22,2.22,0,0,1-1.72-.7,2.5,2.5,0,0,1-.66-1.8,2.78,2.78,0,0,1,.71-2,2.47,2.47,0,0,1,1.89-.75,2.54,2.54,0,0,1,1.16.25v.82a2,2,0,0,0-1.19-.39A1.61,1.61,0,0,0,86,9.48a2,2,0,0,0-.49,1.44A2,2,0,0,0,86,12.31a1.58,1.58,0,0,0,1.24.5,2,2,0,0,0,1.23-.43Z"/>
    <path class="cls-4" d="M91.73,13.49a2.34,2.34,0,0,1-1.77-.7,2.61,2.61,0,0,1-.66-1.86A2.7,2.7,0,0,1,90,9a2.49,2.49,0,0,1,1.86-.71,2.24,2.24,0,0,1,1.74.69,2.73,2.73,0,0,1,.63,1.91,2.65,2.65,0,0,1-.68,1.92A2.36,2.36,0,0,1,91.73,13.49Zm.06-4.56a1.51,1.51,0,0,0-1.22.52,2.15,2.15,0,0,0-.45,1.45,2,2,0,0,0,.45,1.4,1.56,1.56,0,0,0,1.22.51,1.44,1.44,0,0,0,1.19-.5,2.16,2.16,0,0,0,.42-1.43A2.19,2.19,0,0,0,93,9.44,1.45,1.45,0,0,0,91.79,8.93Z"/>
    <path class="cls-4" d="M99.77,13.37H99v-.85h0a1.85,1.85,0,0,1-1.72,1,1.9,1.9,0,0,1-1.51-.67A2.8,2.8,0,0,1,95.16,11a3,3,0,0,1,.62-2,2.06,2.06,0,0,1,1.67-.75,1.62,1.62,0,0,1,1.5.81h0V6h.8ZM99,11.11v-.74a1.45,1.45,0,0,0-.4-1,1.36,1.36,0,0,0-1-.42,1.39,1.39,0,0,0-1.15.53A2.38,2.38,0,0,0,96,11a2.1,2.1,0,0,0,.4,1.36,1.3,1.3,0,0,0,1.08.5,1.38,1.38,0,0,0,1.09-.48A1.79,1.79,0,0,0,99,11.11Z"/>
    <path class="cls-4" d="M101.8,7.1a.51.51,0,0,1-.37-.15.48.48,0,0,1-.15-.37.5.5,0,0,1,.15-.37.51.51,0,0,1,.37-.15.5.5,0,0,1,.37.15.51.51,0,0,1,0,.74A.5.5,0,0,1,101.8,7.1Zm.39,6.27h-.8v-5h.8Z"/>
    <path class="cls-4" d="M107.22,13.14a2.63,2.63,0,0,1-1.37.35,2.22,2.22,0,0,1-1.72-.7,2.5,2.5,0,0,1-.66-1.8,2.74,2.74,0,0,1,.71-2,2.47,2.47,0,0,1,1.89-.75,2.54,2.54,0,0,1,1.16.25v.82A2,2,0,0,0,106,8.93a1.61,1.61,0,0,0-1.26.55,2,2,0,0,0-.49,1.44,2,2,0,0,0,.46,1.39,1.58,1.58,0,0,0,1.24.5,2,2,0,0,0,1.23-.43Z"/>
    <path class="cls-4" d="M112.45,11.07h-3.53a1.83,1.83,0,0,0,.45,1.29,1.54,1.54,0,0,0,1.18.45,2.45,2.45,0,0,0,1.55-.55V13a2.89,2.89,0,0,1-1.74.48,2.14,2.14,0,0,1-1.67-.68,2.83,2.83,0,0,1-.6-1.92,2.73,2.73,0,0,1,.66-1.9,2.12,2.12,0,0,1,1.64-.74,1.89,1.89,0,0,1,1.52.64,2.63,2.63,0,0,1,.54,1.76Zm-.82-.68a1.68,1.68,0,0,0-.34-1.08,1.15,1.15,0,0,0-.91-.38,1.28,1.28,0,0,0-1,.4,1.81,1.81,0,0,0-.49,1.06Z"/>
    <path class="cls-4" d="M120.67,13.37h-.8v-.85h0a1.86,1.86,0,0,1-1.72,1,1.9,1.9,0,0,1-1.51-.67,2.74,2.74,0,0,1-.56-1.83,3,3,0,0,1,.62-2,2.06,2.06,0,0,1,1.67-.75,1.62,1.62,0,0,1,1.5.81h0V6h.8Zm-.8-2.26v-.74a1.42,1.42,0,0,0-.41-1,1.32,1.32,0,0,0-1-.42,1.39,1.39,0,0,0-1.15.53,2.38,2.38,0,0,0-.42,1.49,2.1,2.1,0,0,0,.4,1.36,1.3,1.3,0,0,0,1.08.5,1.38,1.38,0,0,0,1.09-.48A1.79,1.79,0,0,0,119.87,11.11Z"/>
    <path class="cls-4" d="M122.7,7.1a.5.5,0,0,1-.37-.15.48.48,0,0,1-.15-.37.51.51,0,0,1,.52-.52.51.51,0,0,1,.37.15.53.53,0,0,1,0,.74A.51.51,0,0,1,122.7,7.1Zm.39,6.27h-.8v-5h.8Z"/>
    <path class="cls-4" d="M131,13.37h-.8v-.78h0a1.68,1.68,0,0,1-1.54.9,1.61,1.61,0,0,1-1.17-.4,1.36,1.36,0,0,1-.42-1.05c0-.93.55-1.47,1.65-1.63l1.5-.21c0-.85-.35-1.27-1-1.27a2.43,2.43,0,0,0-1.63.61V8.72a3.09,3.09,0,0,1,1.69-.47c1.18,0,1.77.63,1.77,1.87Zm-.8-2.53L129,11a2,2,0,0,0-.84.27.79.79,0,0,0-.28.7.73.73,0,0,0,.26.6,1,1,0,0,0,.69.23,1.32,1.32,0,0,0,1-.41,1.49,1.49,0,0,0,.39-1.06Z"/>
    <path class="cls-4" d="M136.58,13.37h-.8v-.79h0a1.64,1.64,0,0,1-1.54.91c-1.2,0-1.79-.71-1.79-2.13v-3h.79v2.86c0,1.06.41,1.58,1.22,1.58a1.21,1.21,0,0,0,1-.43,1.66,1.66,0,0,0,.38-1.13V8.37h.8Z"/>
    <path class="cls-4" d="M140.51,13.32a1.43,1.43,0,0,1-.74.16q-1.32,0-1.32-1.47v-3h-.86V8.37h.86V7.15l.8-.26V8.37h1.26v.68h-1.26v2.82a1.11,1.11,0,0,0,.18.72.68.68,0,0,0,.56.21.83.83,0,0,0,.52-.16Z"/>
    <path class="cls-4" d="M143.67,13.49a2.36,2.36,0,0,1-1.77-.7,2.61,2.61,0,0,1-.66-1.86,2.7,2.7,0,0,1,.69-2,2.49,2.49,0,0,1,1.86-.71,2.25,2.25,0,0,1,1.75.69,2.73,2.73,0,0,1,.62,1.91,2.69,2.69,0,0,1-.67,1.92A2.38,2.38,0,0,1,143.67,13.49Zm.06-4.56a1.52,1.52,0,0,0-1.22.52,2.15,2.15,0,0,0-.45,1.45,2,2,0,0,0,.46,1.4,1.53,1.53,0,0,0,1.21.51,1.46,1.46,0,0,0,1.2-.5,2.16,2.16,0,0,0,.41-1.43,2.19,2.19,0,0,0-.41-1.44A1.47,1.47,0,0,0,143.73,8.93Z"/>
    <path class="cls-4" d="M150.05,9.18a1,1,0,0,0-.6-.16,1,1,0,0,0-.86.48,2.27,2.27,0,0,0-.35,1.32v2.55h-.8v-5h.8v1h0a1.72,1.72,0,0,1,.53-.82,1.16,1.16,0,0,1,.78-.3,1.43,1.43,0,0,1,.48.07Z"/>
    <path class="cls-4" d="M151.33,7.1A.53.53,0,0,1,151,7a.48.48,0,0,1-.15-.37.5.5,0,0,1,.15-.37.53.53,0,0,1,.37-.15.5.5,0,0,1,.37.15.51.51,0,0,1,0,.74A.5.5,0,0,1,151.33,7.1Zm.39,6.27h-.8v-5h.8Z"/>
    <path class="cls-4" d="M156.83,8.6l-3,4.09h2.93v.68h-4.11v-.25l3-4.07H153V8.37h3.86Z"/>
    <path class="cls-4" d="M161.35,8.6l-3,4.09h2.93v.68h-4.11v-.25l3-4.07h-2.68V8.37h3.86Z"/>
    <path class="cls-4" d="M166,13.37h-.8v-.78h0a1.66,1.66,0,0,1-1.53.9,1.61,1.61,0,0,1-1.17-.4A1.34,1.34,0,0,1,162,12c0-.93.55-1.47,1.65-1.63l1.5-.21c0-.85-.34-1.27-1-1.27a2.47,2.47,0,0,0-1.63.61V8.72a3.12,3.12,0,0,1,1.7-.47c1.18,0,1.76.63,1.76,1.87Zm-.8-2.53L164,11a2,2,0,0,0-.84.27.8.8,0,0,0-.29.7.74.74,0,0,0,.27.6,1,1,0,0,0,.69.23,1.32,1.32,0,0,0,1-.41,1.53,1.53,0,0,0,.38-1.06Z"/>
    <path class="cls-4" d="M171,8.6l-3,4.09h2.93v.68h-4.11v-.25l3-4.07H167.1V8.37H171Z"/>
    <path class="cls-4" d="M172.4,7.1A.49.49,0,0,1,172,7a.48.48,0,0,1-.15-.37.5.5,0,0,1,.15-.37.49.49,0,0,1,.36-.15.52.52,0,0,1,.38.15.53.53,0,0,1,0,.74A.52.52,0,0,1,172.4,7.1Zm.39,6.27H172v-5h.8Z"/>
    <path class="cls-4" d="M176.51,13.49a2.34,2.34,0,0,1-1.77-.7,2.57,2.57,0,0,1-.67-1.86,2.7,2.7,0,0,1,.69-2,2.49,2.49,0,0,1,1.86-.71,2.25,2.25,0,0,1,1.75.69,2.73,2.73,0,0,1,.63,1.91,2.7,2.7,0,0,1-.68,1.92A2.37,2.37,0,0,1,176.51,13.49Zm.05-4.56a1.52,1.52,0,0,0-1.22.52,2.15,2.15,0,0,0-.45,1.45,2.05,2.05,0,0,0,.46,1.4,1.54,1.54,0,0,0,1.21.51,1.46,1.46,0,0,0,1.2-.5,2.16,2.16,0,0,0,.42-1.43,2.19,2.19,0,0,0-.42-1.44A1.47,1.47,0,0,0,176.56,8.93Z"/>
    <path class="cls-4" d="M184.43,13.37h-.8V10.52q0-1.59-1.17-1.59a1.25,1.25,0,0,0-1,.45,1.68,1.68,0,0,0-.39,1.14v2.85h-.8v-5h.8V9.2h0a1.8,1.8,0,0,1,1.64-.95,1.54,1.54,0,0,1,1.25.53,2.38,2.38,0,0,1,.44,1.53Z"/>
    <path class="cls-4" d="M190,11.07h-3.53a1.93,1.93,0,0,0,.45,1.29,1.56,1.56,0,0,0,1.18.45,2.48,2.48,0,0,0,1.56-.55V13a2.9,2.9,0,0,1-1.75.48,2.12,2.12,0,0,1-1.66-.68,2.78,2.78,0,0,1-.61-1.92,2.73,2.73,0,0,1,.66-1.9,2.14,2.14,0,0,1,1.65-.74,1.9,1.9,0,0,1,1.52.64,2.68,2.68,0,0,1,.53,1.76Zm-.82-.68a1.62,1.62,0,0,0-.33-1.08,1.17,1.17,0,0,0-.92-.38,1.29,1.29,0,0,0-1,.4,1.94,1.94,0,0,0-.49,1.06Z"/>
  </g>
  <path id="path143" class="cls-1" d="M182.16,17.85h-20.5A1.1,1.1,0,0,0,160.57,19V35.7a1.09,1.09,0,0,0,1.09,1.1h5.28a3.29,3.29,0,0,0,3.21,2.27,3.37,3.37,0,0,0,0-6.74,3.29,3.29,0,0,0-3.21,2.26h-4.19v-12h18.31v12h-3.45A7.61,7.61,0,0,0,170.15,28a8.25,8.25,0,0,0-3.64.92l1,2a5.39,5.39,0,0,1,2.55-.67,5.46,5.46,0,0,1,0,10.92,5.28,5.28,0,0,1-2.55-.68l-1,2a7.4,7.4,0,0,0,3.64.92,7.61,7.61,0,0,0,7.46-6.56h4.55a1.09,1.09,0,0,0,1.09-1.1V19A1.14,1.14,0,0,0,182.16,17.85Z"/>
  <g id="text145" class="cls-2">
    <path class="cls-1" d="M147.61,56.37h-.91l-.74-2h-3l-.7,2h-.91l2.68-7h.85Zm-1.92-2.7-1.1-3a3,3,0,0,1-.11-.47h0a3,3,0,0,1-.11.47l-1.09,3Z"/>
    <path class="cls-1" d="M149.2,55.65h0v3h-.8v-7.3h.8v.88h0a1.88,1.88,0,0,1,1.73-1,1.86,1.86,0,0,1,1.51.67,2.8,2.8,0,0,1,.54,1.8,3.07,3.07,0,0,1-.61,2,2.06,2.06,0,0,1-1.67.76A1.67,1.67,0,0,1,149.2,55.65Zm0-2v.7a1.48,1.48,0,0,0,.4,1.05,1.45,1.45,0,0,0,2.17-.12,2.62,2.62,0,0,0,.41-1.55,2,2,0,0,0-.39-1.31,1.24,1.24,0,0,0-1-.47,1.44,1.44,0,0,0-1.13.48A1.79,1.79,0,0,0,149.18,53.63Z"/>
    <path class="cls-1" d="M154.93,55.65h0v3h-.8v-7.3h.8v.88h0a2,2,0,0,1,3.24-.33,2.8,2.8,0,0,1,.54,1.8,3.13,3.13,0,0,1-.61,2,2.06,2.06,0,0,1-1.67.76A1.67,1.67,0,0,1,154.93,55.65Zm0-2v.7a1.48,1.48,0,0,0,.4,1.05,1.44,1.44,0,0,0,2.16-.12,2.55,2.55,0,0,0,.42-1.55,2,2,0,0,0-.39-1.31,1.26,1.26,0,0,0-1-.47,1.44,1.44,0,0,0-1.13.48A1.79,1.79,0,0,0,154.91,53.63Z"/>
    <path class="cls-1" d="M163.25,55.65h0v3h-.8v-7.3h.8v.88h0a1.88,1.88,0,0,1,1.72-1,1.85,1.85,0,0,1,1.51.67,2.8,2.8,0,0,1,.55,1.8,3.13,3.13,0,0,1-.61,2,2.06,2.06,0,0,1-1.67.76A1.67,1.67,0,0,1,163.25,55.65Zm0-2v.7a1.48,1.48,0,0,0,.4,1.05,1.44,1.44,0,0,0,2.16-.12,2.55,2.55,0,0,0,.42-1.55,2,2,0,0,0-.39-1.31,1.27,1.27,0,0,0-1-.47,1.42,1.42,0,0,0-1.12.48A1.79,1.79,0,0,0,163.23,53.63Z"/>
    <path class="cls-1" d="M172.17,54.07h-3.53a1.93,1.93,0,0,0,.45,1.29,1.56,1.56,0,0,0,1.18.45,2.48,2.48,0,0,0,1.56-.55V56a2.9,2.9,0,0,1-1.75.48,2.09,2.09,0,0,1-1.66-.69,3.18,3.18,0,0,1,.05-3.81,2.14,2.14,0,0,1,1.65-.74,1.87,1.87,0,0,1,1.52.64,2.68,2.68,0,0,1,.53,1.76Zm-.82-.68a1.62,1.62,0,0,0-.33-1.08,1.14,1.14,0,0,0-.92-.38,1.29,1.29,0,0,0-1,.4,1.84,1.84,0,0,0-.49,1.06Z"/>
    <path class="cls-1" d="M175.84,52.18a1,1,0,0,0-.6-.16,1,1,0,0,0-.86.48,2.23,2.23,0,0,0-.34,1.32v2.55h-.81v-5H174v1h0a1.72,1.72,0,0,1,.53-.82,1.16,1.16,0,0,1,.78-.3,1.22,1.22,0,0,1,.48.07Z"/>
    <path class="cls-1" d="M180,56.37h-.8V49h.8Z"/>
    <path class="cls-1" d="M185.44,54.07h-3.53a1.83,1.83,0,0,0,.45,1.29,1.56,1.56,0,0,0,1.18.45,2.45,2.45,0,0,0,1.55-.55V56a2.89,2.89,0,0,1-1.74.48,2.08,2.08,0,0,1-1.66-.69,3.18,3.18,0,0,1,.05-3.81,2.12,2.12,0,0,1,1.64-.74,1.86,1.86,0,0,1,1.52.64,2.63,2.63,0,0,1,.54,1.76Zm-.82-.68a1.62,1.62,0,0,0-.33-1.08,1.14,1.14,0,0,0-.92-.38,1.28,1.28,0,0,0-1,.4,1.78,1.78,0,0,0-.49,1.06Z"/>
    <path class="cls-1" d="M194.62,56.37h-.91l-.74-2h-3l-.7,2h-.91l2.68-7h.85Zm-1.92-2.7-1.1-3a3,3,0,0,1-.11-.47h0a3,3,0,0,1-.11.47l-1.09,3Z"/>
    <path class="cls-1" d="M196.32,53.72v2.65h-.82v-7h1.92a2.55,2.55,0,0,1,1.74.54,2,2,0,0,1,.62,1.55,2.13,2.13,0,0,1-.69,1.63,2.61,2.61,0,0,1-1.85.63Zm0-3.61V53h.86a1.89,1.89,0,0,0,1.29-.39,1.36,1.36,0,0,0,.45-1.09c0-.93-.54-1.39-1.64-1.39Z"/>
    <path class="cls-1" d="M201.77,56.37H201v-7h.82Z"/>
  </g>
  <g id="shape1142-51">
    <g id="use7">
      <g id="lend5">
        <path id="path4" class="cls-5" d="M151.7,26.59l8,4-8,4a9,9,0,0,0,0-8"/>
      </g>
    </g>
  </g>
  <g id="group1143-57">
    <g id="group1144-58">
      <g id="group1145-59">
        <g id="group1146-60">
          <g id="shape1147-61">
            <path id="path163" class="cls-1" d="M7.85,22.77a4.5,4.5,0,0,0-3,5.67c.66,2.55,3,4.21,5.27,3.66a4.49,4.49,0,0,0,3-5.66C12.57,23.77,10.16,22.11,7.85,22.77Z"/>
          </g>
        </g>
        <g id="group1148-63">
          <g id="shape1149-64">
            <path id="path171" class="cls-1" d="M12.79,32.79c-.44,0-.88.77-1.54,1.11s-1.32.88-3.18,0S6,32.23,4.44,32.23.38,35,.38,39.11H16a12.05,12.05,0,0,0-1.1-4.21C13.77,32.79,13.23,32.79,12.79,32.79Z"/>
          </g>
        </g>
      </g>
    </g>
    <g id="group1150-66">
      <g id="shape1151-67">
        <path id="path181" class="cls-6" d="M14.19,27.84H10.07a.71.71,0,0,0-.65.66v2.85a.73.73,0,0,0,.76.66h.76v5.15a1,1,0,0,0,1,1.09,1,1,0,0,0,1-1h.21v-.66c0-.22.33-.33.33-.33V36c-.33-.11-.54-.33-.54-.44v-.32L13.1,35a3.53,3.53,0,0,0,.33-.55,2.4,2.4,0,0,1-.33-.55c-.1-.11-.1-.33-.21-.44v-.22a2.52,2.52,0,0,1,.76-1.09h.54a.71.71,0,0,0,.65-.66v-3A.63.63,0,0,0,14.19,27.84ZM11.8,37.38c0,.22,0,.33-.21.33s-.22-.22-.22-.33V32.56c0-.22.11-.33.22-.33s.21.22.21.33Zm.33-7.78a.66.66,0,0,1,0-1.32.71.71,0,0,1,.65.66A.63.63,0,0,1,12.13,29.6Z"/>
      </g>
      <g id="shape1152-69">
        <path id="path186" class="cls-7" d="M11.57,37.68a.24.24,0,0,1-.22-.22v-5a.22.22,0,1,1,.44,0v5.1C11.79,37.68,11.68,37.68,11.57,37.68Z"/>
      </g>
      <g id="shape1153-71">
        <ellipse id="ellipse191" class="cls-7" cx="12.14" cy="28.92" rx="0.66" ry="0.67"/>
      </g>
    </g>
  </g>
  <line class="cls-8" x1="155.72" y1="30.61" x2="72.52" y2="30.61"/>
</svg>
