<svg id="svg95" xmlns="http://www.w3.org/2000/svg" viewBox="0 0 205.55 55.68">
  <defs>
    <style>
      .cls-1, .cls-4 {
        fill: #fff;
      }

      .cls-1 {
        stroke: #000;
        stroke-width: 0.24px;
      }

      .cls-1, .cls-3 {
        stroke-linecap: round;
        stroke-linejoin: round;
      }

      .cls-2, .cls-3 {
        fill: #008bfd;
      }

      .cls-3 {
        stroke: gray;
        stroke-width: 0.75px;
      }

      .cls-5 {
        isolation: isolate;
      }

      .cls-6 {
        fill: #00b0f0;
      }

      .cls-7 {
        fill: #505050;
      }

      .cls-8 {
        fill: none;
        stroke: #505050;
        stroke-miterlimit: 10;
      }
    </style>
  </defs>
  <title>OJ104546506</title>
  <g id="shape1000-1">
    <path id="path15" class="cls-1" d="M16,9.82.12,21.25,6.2,39.73H25.86l6.08-18.48Z"/>
  </g>
  <g id="group1216-3">
    <g id="group1217-4">
      <g id="group1218-5">
        <g id="group1219-6">
          <g id="shape1220-7">
            <path id="path28" class="cls-2" d="M15.7,16.94a4.49,4.49,0,0,0-3,5.66c.66,2.55,3,4.22,5.27,3.67a4.5,4.5,0,0,0,3-5.67C20.42,17.94,18,16.27,15.7,16.94Z"/>
          </g>
        </g>
        <g id="group1221-9">
          <g id="shape1222-10">
            <path id="path36" class="cls-2" d="M20.64,27c-.44,0-.88.78-1.54,1.11s-1.32.89-3.18,0-2.09-1.66-3.63-1.66-4.06,2.77-4.06,6.88H23.82a12.09,12.09,0,0,0-1.1-4.22C21.62,27,21.08,27,20.64,27Z"/>
          </g>
        </g>
      </g>
    </g>
    <g id="group1223-12">
      <g id="shape1224-13">
        <path id="path46" class="cls-3" d="M22.05,22H17.93a.71.71,0,0,0-.65.66v2.85a.72.72,0,0,0,.76.65h.76v5.15a1,1,0,0,0,1,1.1,1,1,0,0,0,1-1H21v-.65c0-.22.33-.33.33-.33v-.33c-.33-.11-.54-.33-.54-.44v-.33l.21-.22a3.55,3.55,0,0,0,.33-.54A2.4,2.4,0,0,1,21,28c-.1-.11-.1-.33-.21-.44v-.22a2.51,2.51,0,0,1,.76-1.1h.54a.7.7,0,0,0,.65-.65v-3A.63.63,0,0,0,22.05,22Zm-2.39,9.53c0,.22,0,.33-.21.33s-.22-.22-.22-.33V26.72c0-.22.11-.33.22-.33s.21.22.21.33ZM20,23.76a.69.69,0,0,1-.65-.65.7.7,0,0,1,.65-.66.71.71,0,0,1,.65.66A.62.62,0,0,1,20,23.76Z"/>
      </g>
      <g id="shape1225-15">
        <path id="path51" class="cls-4" d="M19.43,31.85a.24.24,0,0,1-.22-.22v-5a.22.22,0,0,1,.44,0v5.11C19.65,31.85,19.54,31.85,19.43,31.85Z"/>
      </g>
      <g id="shape1226-17">
        <ellipse id="ellipse56" class="cls-4" cx="20" cy="23.09" rx="0.66" ry="0.67"/>
      </g>
    </g>
  </g>
  <path id="path65" class="cls-2" d="M185.6,8.81H165.1A1.09,1.09,0,0,0,164,9.91V26.65a1.1,1.1,0,0,0,1.09,1.11h5.28A3.29,3.29,0,0,0,173.59,30a3.38,3.38,0,0,0,0-6.75,3.29,3.29,0,0,0-3.21,2.27h-4.19v-12H184.5v12h-3.45A7.61,7.61,0,0,0,173.59,19a8.25,8.25,0,0,0-3.64.92l1,2a5.27,5.27,0,0,1,2.55-.67,5.46,5.46,0,0,1,0,10.91,5.27,5.27,0,0,1-2.55-.67l-1,2a7.51,7.51,0,0,0,3.64.92,7.61,7.61,0,0,0,7.46-6.56h4.55a1.1,1.1,0,0,0,1.09-1.11V9.91A1.14,1.14,0,0,0,185.6,8.81Z"/>
  <g id="text67" class="cls-5">
    <path class="cls-2" d="M153.8,47.32H153l-.67-1.77h-2.67L149,47.32h-.82L150.61,41h.76Zm-1.73-2.43-1-2.69c0-.09-.06-.23-.1-.42h0a3.3,3.3,0,0,1-.1.42l-1,2.69Z"/>
    <path class="cls-2" d="M155.19,46.66h0v2.73h-.72V42.82h.72v.79h0a1.69,1.69,0,0,1,1.55-.9,1.66,1.66,0,0,1,1.36.6,2.56,2.56,0,0,1,.49,1.62,2.81,2.81,0,0,1-.55,1.81,1.84,1.84,0,0,1-1.5.68A1.48,1.48,0,0,1,155.19,46.66Zm0-1.81v.63a1.36,1.36,0,0,0,.36,1,1.23,1.23,0,0,0,.92.38,1.2,1.2,0,0,0,1-.5,2.32,2.32,0,0,0,.37-1.39,1.84,1.84,0,0,0-.35-1.18,1.15,1.15,0,0,0-.94-.42,1.28,1.28,0,0,0-1,.43A1.63,1.63,0,0,0,155.17,44.85Z"/>
    <path class="cls-2" d="M160.3,46.66h0v2.73h-.72V42.82h.72v.79h0a1.69,1.69,0,0,1,1.55-.9,1.65,1.65,0,0,1,1.36.6,2.5,2.5,0,0,1,.49,1.62,2.75,2.75,0,0,1-.55,1.81,1.84,1.84,0,0,1-1.5.68A1.48,1.48,0,0,1,160.3,46.66Zm0-1.81v.63a1.36,1.36,0,0,0,.36,1,1.23,1.23,0,0,0,.92.38,1.2,1.2,0,0,0,1-.5,2.25,2.25,0,0,0,.37-1.39,1.84,1.84,0,0,0-.35-1.18,1.15,1.15,0,0,0-.94-.42,1.28,1.28,0,0,0-1,.43A1.63,1.63,0,0,0,160.28,44.85Z"/>
    <path class="cls-2" d="M167.69,46.66h0v2.73H167V42.82h.72v.79h0a1.72,1.72,0,0,1,1.56-.9,1.66,1.66,0,0,1,1.36.6,2.56,2.56,0,0,1,.48,1.62,2.75,2.75,0,0,1-.55,1.81,1.82,1.82,0,0,1-1.5.68A1.51,1.51,0,0,1,167.69,46.66Zm0-1.81v.63a1.36,1.36,0,0,0,.36,1,1.23,1.23,0,0,0,.92.38,1.2,1.2,0,0,0,1-.5,2.32,2.32,0,0,0,.37-1.39,1.84,1.84,0,0,0-.35-1.18,1.16,1.16,0,0,0-.94-.42,1.27,1.27,0,0,0-1,.43A1.59,1.59,0,0,0,167.68,44.85Z"/>
    <path class="cls-2" d="M175.68,45.24h-3.17a1.64,1.64,0,0,0,.4,1.16,1.36,1.36,0,0,0,1.06.41,2.17,2.17,0,0,0,1.4-.5V47a2.59,2.59,0,0,1-1.57.43,1.92,1.92,0,0,1-1.5-.61,2.54,2.54,0,0,1-.54-1.73,2.48,2.48,0,0,1,.59-1.71,1.92,1.92,0,0,1,1.48-.66,1.7,1.7,0,0,1,1.37.57,2.4,2.4,0,0,1,.48,1.59Zm-.74-.61a1.46,1.46,0,0,0-.3-1,1,1,0,0,0-.82-.34,1.19,1.19,0,0,0-.87.36,1.72,1.72,0,0,0-.44,1Z"/>
    <path class="cls-2" d="M178.94,43.54a1,1,0,0,0-.55-.14.93.93,0,0,0-.77.43,2.07,2.07,0,0,0-.31,1.19v2.3h-.72v-4.5h.72v.92h0a1.6,1.6,0,0,1,.47-.74,1.06,1.06,0,0,1,.71-.26,1.19,1.19,0,0,1,.43.06Z"/>
    <path class="cls-2" d="M182.55,47.32h-.72V40.65h.72Z"/>
    <path class="cls-2" d="M187.44,45.24h-3.17a1.64,1.64,0,0,0,.4,1.16,1.36,1.36,0,0,0,1.06.41,2.17,2.17,0,0,0,1.4-.5V47a2.59,2.59,0,0,1-1.57.43,1.92,1.92,0,0,1-1.5-.61,2.54,2.54,0,0,1-.54-1.73,2.48,2.48,0,0,1,.59-1.71,1.92,1.92,0,0,1,1.48-.66,1.7,1.7,0,0,1,1.37.57,2.4,2.4,0,0,1,.48,1.59Zm-.73-.61a1.52,1.52,0,0,0-.31-1,1,1,0,0,0-.82-.34,1.19,1.19,0,0,0-.87.36,1.72,1.72,0,0,0-.44,1Z"/>
    <path class="cls-2" d="M195.61,47.32h-.81l-.67-1.77h-2.67l-.63,1.77H190L192.42,41h.77Zm-1.72-2.43-1-2.69a2.61,2.61,0,0,1-.1-.42h0a2.17,2.17,0,0,1-.1.42l-1,2.69Z"/>
    <path class="cls-2" d="M197.1,44.93v2.39h-.74V41h1.73a2.28,2.28,0,0,1,1.57.5,1.74,1.74,0,0,1,.55,1.38,1.91,1.91,0,0,1-.61,1.47,2.38,2.38,0,0,1-1.67.57Zm0-3.25v2.59h.77a1.76,1.76,0,0,0,1.17-.35,1.25,1.25,0,0,0,.4-1c0-.83-.49-1.25-1.48-1.25Z"/>
    <path class="cls-2" d="M202,47.32h-.74V41H202Z"/>
  </g>
  <g id="text76" class="cls-5">
    <path class="cls-6" d="M82.33,7.57H79.87V9.75h2.28v.66H79.87V13.2h-.74V6.9h3.2Z"/>
    <path class="cls-6" d="M84.15,13.2h-.72V6.54h.72Z"/>
    <path class="cls-6" d="M89.25,13.2h-.72v-.71h0a1.47,1.47,0,0,1-1.39.82c-1.07,0-1.61-.64-1.61-1.92V8.7h.72v2.58c0,1,.36,1.42,1.09,1.42a1.11,1.11,0,0,0,.87-.39,1.47,1.47,0,0,0,.34-1V8.7h.72Z"/>
    <path class="cls-6" d="M90.43,13v-.77a2.14,2.14,0,0,0,1.3.43c.63,0,1-.21,1-.63a.62.62,0,0,0-.08-.31,1.14,1.14,0,0,0-.22-.22,2,2,0,0,0-.33-.17l-.4-.16a5.46,5.46,0,0,1-.53-.24,1.54,1.54,0,0,1-.37-.27,1.12,1.12,0,0,1-.23-.35,1.25,1.25,0,0,1-.08-.45,1,1,0,0,1,.15-.56A1.24,1.24,0,0,1,91,8.93a2,2,0,0,1,.55-.25,2.74,2.74,0,0,1,.64-.08,2.69,2.69,0,0,1,1,.2v.73a2,2,0,0,0-1.14-.33,1.38,1.38,0,0,0-.37.05.8.8,0,0,0-.28.13.86.86,0,0,0-.18.2.55.55,0,0,0-.06.26.65.65,0,0,0,.06.29.76.76,0,0,0,.19.21,1.39,1.39,0,0,0,.3.17l.4.16a5.46,5.46,0,0,1,.53.24,1.82,1.82,0,0,1,.41.27,1.1,1.1,0,0,1,.26.35,1.13,1.13,0,0,1,.09.47,1.09,1.09,0,0,1-.15.58,1.38,1.38,0,0,1-.39.41,1.81,1.81,0,0,1-.57.24,3,3,0,0,1-.67.08A2.54,2.54,0,0,1,90.43,13Z"/>
    <path class="cls-6" d="M94.25,13v-.77a2.14,2.14,0,0,0,1.3.43c.63,0,1-.21,1-.63a.62.62,0,0,0-.08-.31,1.14,1.14,0,0,0-.22-.22,2.55,2.55,0,0,0-.33-.17l-.4-.16a5.46,5.46,0,0,1-.53-.24,1.54,1.54,0,0,1-.37-.27,1,1,0,0,1-.23-.35,1.25,1.25,0,0,1-.08-.45,1.13,1.13,0,0,1,.14-.56,1.38,1.38,0,0,1,.39-.41,2,2,0,0,1,.55-.25A2.74,2.74,0,0,1,96,8.6a2.69,2.69,0,0,1,1,.2v.73a2,2,0,0,0-1.14-.33,1.38,1.38,0,0,0-.37.05.8.8,0,0,0-.28.13.57.57,0,0,0-.18.2.55.55,0,0,0-.06.26.65.65,0,0,0,.06.29.63.63,0,0,0,.19.21,1.39,1.39,0,0,0,.3.17l.4.16a5.46,5.46,0,0,1,.53.24,1.82,1.82,0,0,1,.41.27,1.07,1.07,0,0,1,.25.35,1.13,1.13,0,0,1,.09.47,1.09,1.09,0,0,1-.14.58,1.3,1.3,0,0,1-.4.41,1.67,1.67,0,0,1-.56.24,3,3,0,0,1-.67.08A2.54,2.54,0,0,1,94.25,13Z"/>
    <path class="cls-6" d="M100.22,13.31a2.09,2.09,0,0,1-1.59-.63A2.33,2.33,0,0,1,98,11a2.47,2.47,0,0,1,.62-1.78,2.27,2.27,0,0,1,1.68-.63,2,2,0,0,1,1.57.62,2.43,2.43,0,0,1,.56,1.72,2.44,2.44,0,0,1-.6,1.72A2.15,2.15,0,0,1,100.22,13.31Zm.06-4.11a1.35,1.35,0,0,0-1.1.48,1.93,1.93,0,0,0-.41,1.3,1.85,1.85,0,0,0,.41,1.26,1.38,1.38,0,0,0,1.1.46,1.32,1.32,0,0,0,1.07-.45,2,2,0,0,0,.38-1.29,2,2,0,0,0-.38-1.3A1.33,1.33,0,0,0,100.28,9.2Z"/>
    <path class="cls-6" d="M108.72,13.31a2.8,2.8,0,0,1-2.15-.88,3.28,3.28,0,0,1-.81-2.3,3.46,3.46,0,0,1,.83-2.43,2.86,2.86,0,0,1,2.23-.9,2.75,2.75,0,0,1,2.11.87,3.31,3.31,0,0,1,.79,2.3,3.51,3.51,0,0,1-.81,2.44A2.83,2.83,0,0,1,108.72,13.31Zm0-5.85a2,2,0,0,0-1.61.72,2.73,2.73,0,0,0-.62,1.88,2.83,2.83,0,0,0,.6,1.88,2,2,0,0,0,1.58.71,2.07,2.07,0,0,0,1.63-.68,2.76,2.76,0,0,0,.6-1.9,2.84,2.84,0,0,0-.58-1.92A2,2,0,0,0,108.77,7.46Z"/>
    <path class="cls-6" d="M116.6,13.2h-.72V10.64q0-1.44-1-1.44a1.14,1.14,0,0,0-.89.41,1.53,1.53,0,0,0-.35,1V13.2h-.72V8.7h.72v.75h0a1.63,1.63,0,0,1,1.48-.85,1.4,1.4,0,0,1,1.13.47,2.14,2.14,0,0,1,.39,1.38Z"/>
    <path class="cls-6" d="M120.26,11h-2.4v-.57h2.4Z"/>
    <path class="cls-6" d="M121.66,13.2V6.9h1.79a2,2,0,0,1,1.3.4,1.33,1.33,0,0,1,.47,1,1.47,1.47,0,0,1-.29.93,1.52,1.52,0,0,1-.8.57h0a1.59,1.59,0,0,1,1,.49,1.45,1.45,0,0,1,.39,1.05A1.66,1.66,0,0,1,125,12.7a2.15,2.15,0,0,1-1.47.5Zm.73-5.63v2h.76a1.4,1.4,0,0,0,.95-.29,1,1,0,0,0,.35-.82c0-.61-.4-.92-1.21-.92Zm0,2.7v2.27h1a1.49,1.49,0,0,0,1-.31,1.07,1.07,0,0,0,.36-.85c0-.74-.51-1.11-1.52-1.11Z"/>
    <path class="cls-6" d="M130.33,11.13h-3.17a1.66,1.66,0,0,0,.4,1.16,1.37,1.37,0,0,0,1.07.41,2.16,2.16,0,0,0,1.39-.5v.68a2.59,2.59,0,0,1-1.57.43A1.91,1.91,0,0,1,127,12.7a2.5,2.5,0,0,1-.55-1.73,2.44,2.44,0,0,1,.6-1.71,1.9,1.9,0,0,1,1.47-.66,1.7,1.7,0,0,1,1.37.57,2.4,2.4,0,0,1,.48,1.59Zm-.73-.61a1.5,1.5,0,0,0-.31-1,1,1,0,0,0-.82-.35,1.16,1.16,0,0,0-.86.37,1.59,1.59,0,0,0-.44.95Z"/>
    <path class="cls-6" d="M135.16,13.2h-.72V10.61q0-1.41-1.05-1.41a1.13,1.13,0,0,0-.88.41,1.51,1.51,0,0,0-.36,1V13.2h-.73V6.54h.73V9.45h0a1.64,1.64,0,0,1,1.48-.85c1,0,1.52.61,1.52,1.83Z"/>
    <path class="cls-6" d="M139.74,13.2H139v-.7h0a1.64,1.64,0,0,1-2.44.45,1.23,1.23,0,0,1-.38-.94c0-.84.5-1.33,1.49-1.47l1.35-.19c0-.76-.31-1.15-.93-1.15a2.23,2.23,0,0,0-1.47.56V9a2.84,2.84,0,0,1,1.53-.42q1.59,0,1.59,1.68ZM139,10.93l-1.09.15a1.79,1.79,0,0,0-.75.24.73.73,0,0,0-.26.64.68.68,0,0,0,.24.53.88.88,0,0,0,.62.21,1.16,1.16,0,0,0,.89-.37,1.36,1.36,0,0,0,.35-.95Z"/>
    <path class="cls-6" d="M141.82,13.2h-.72V6.54h.72Z"/>
    <path class="cls-6" d="M145.5,7.17a1,1,0,0,0-.48-.11c-.5,0-.75.31-.75,1V8.7h1v.62h-1V13.2h-.72V9.32h-.77V8.7h.77V8A1.5,1.5,0,0,1,144,6.86a1.36,1.36,0,0,1,1-.42,1.45,1.45,0,0,1,.52.08Z"/>
    <path class="cls-6" d="M148.4,11H146v-.57h2.4Z"/>
    <path class="cls-6" d="M152.33,13.31a2.81,2.81,0,0,1-2.15-.88,3.27,3.27,0,0,1-.8-2.3,3.45,3.45,0,0,1,.82-2.43,2.87,2.87,0,0,1,2.23-.9,2.73,2.73,0,0,1,2.11.87,3.31,3.31,0,0,1,.79,2.3,3.51,3.51,0,0,1-.81,2.44A2.83,2.83,0,0,1,152.33,13.31Zm0-5.85a2,2,0,0,0-1.61.72,2.78,2.78,0,0,0-.62,1.88,2.83,2.83,0,0,0,.6,1.88,2,2,0,0,0,1.58.71A2.05,2.05,0,0,0,154,12a2.76,2.76,0,0,0,.6-1.9A2.84,2.84,0,0,0,154,8.15,2,2,0,0,0,152.38,7.46Z"/>
    <path class="cls-6" d="M158.7,7.17a1,1,0,0,0-.48-.11c-.5,0-.75.31-.75,1V8.7h1.05v.62h-1.05V13.2h-.72V9.32H156V8.7h.77V8a1.5,1.5,0,0,1,.41-1.11,1.36,1.36,0,0,1,1-.42,1.45,1.45,0,0,1,.52.08Z"/>
  </g>
  <path id="path83" class="cls-2" d="M73.23,9.3H52.73a1.09,1.09,0,0,0-1.09,1.1V27.14a1.1,1.1,0,0,0,1.09,1.11H58a3.29,3.29,0,0,0,3.21,2.27,3.38,3.38,0,0,0,0-6.75A3.29,3.29,0,0,0,58,26H53.82v-12H72.13V26H68.68a7.61,7.61,0,0,0-7.46-6.56,8.25,8.25,0,0,0-3.64.92l1,2a5.27,5.27,0,0,1,2.55-.67,5.46,5.46,0,0,1,0,10.91,5.27,5.27,0,0,1-2.55-.67l-1,2a7.51,7.51,0,0,0,3.64.92,7.61,7.61,0,0,0,7.46-6.56h4.55a1.1,1.1,0,0,0,1.09-1.11V10.4A1.14,1.14,0,0,0,73.23,9.3Z"/>
  <g id="text85" class="cls-5">
    <path class="cls-2" d="M40.16,47.81h-.81L38.68,46H36l-.63,1.77h-.82L37,41.5h.77Zm-1.72-2.43-1-2.69a1.84,1.84,0,0,1-.1-.42h0a2.17,2.17,0,0,1-.1.42l-1,2.69Z"/>
    <path class="cls-2" d="M41.73,47.16h0v2.72H41V43.31h.72v.79h0a1.71,1.71,0,0,1,1.56-.9,1.64,1.64,0,0,1,1.36.61,2.51,2.51,0,0,1,.48,1.61,2.75,2.75,0,0,1-.55,1.81,1.79,1.79,0,0,1-1.5.68A1.52,1.52,0,0,1,41.73,47.16Zm0-1.82V46a1.32,1.32,0,0,0,.37,1,1.2,1.2,0,0,0,.92.39,1.19,1.19,0,0,0,1-.51,2.25,2.25,0,0,0,.37-1.39,1.84,1.84,0,0,0-.34-1.18,1.16,1.16,0,0,0-.94-.42,1.27,1.27,0,0,0-1,.43A1.61,1.61,0,0,0,41.71,45.34Z"/>
    <path class="cls-2" d="M47,47.16h0v2.72h-.72V43.31H47v.79h0a1.72,1.72,0,0,1,1.56-.9,1.64,1.64,0,0,1,1.36.61,2.51,2.51,0,0,1,.48,1.61,2.75,2.75,0,0,1-.55,1.81,1.79,1.79,0,0,1-1.5.68A1.52,1.52,0,0,1,47,47.16Zm0-1.82V46a1.36,1.36,0,0,0,.37,1,1.2,1.2,0,0,0,.92.39,1.19,1.19,0,0,0,1-.51,2.25,2.25,0,0,0,.38-1.39,1.84,1.84,0,0,0-.35-1.18,1.16,1.16,0,0,0-.94-.42,1.27,1.27,0,0,0-1,.43A1.61,1.61,0,0,0,47,45.34Z"/>
    <path class="cls-2" d="M54.78,47.16h0v2.72H54V43.31h.72v.79h0a1.69,1.69,0,0,1,1.55-.9,1.63,1.63,0,0,1,1.36.61,2.46,2.46,0,0,1,.49,1.61,2.75,2.75,0,0,1-.55,1.81,1.82,1.82,0,0,1-1.5.68A1.51,1.51,0,0,1,54.78,47.16Zm0-1.82V46a1.36,1.36,0,0,0,.36,1,1.29,1.29,0,0,0,2-.12,2.25,2.25,0,0,0,.37-1.39,1.79,1.79,0,0,0-.35-1.18,1.15,1.15,0,0,0-.94-.42,1.29,1.29,0,0,0-1,.43A1.65,1.65,0,0,0,54.76,45.34Z"/>
    <path class="cls-2" d="M63,45.74H59.77a1.68,1.68,0,0,0,.41,1.16,1.39,1.39,0,0,0,1.06.41,2.2,2.2,0,0,0,1.4-.51v.68a2.61,2.61,0,0,1-1.57.43,1.89,1.89,0,0,1-1.5-.61A2.53,2.53,0,0,1,59,45.57a2.44,2.44,0,0,1,.6-1.71,1.92,1.92,0,0,1,1.48-.66,1.68,1.68,0,0,1,1.36.57A2.35,2.35,0,0,1,63,45.36Zm-.74-.61a1.47,1.47,0,0,0-.3-1,1,1,0,0,0-.83-.34,1.18,1.18,0,0,0-.86.36,1.68,1.68,0,0,0-.44,1Z"/>
    <path class="cls-2" d="M66.38,44a.83.83,0,0,0-.54-.15.92.92,0,0,0-.77.44,2,2,0,0,0-.31,1.18v2.3H64v-4.5h.72v.92h0a1.6,1.6,0,0,1,.47-.74,1.08,1.08,0,0,1,.7-.26,1.16,1.16,0,0,1,.43.06Z"/>
    <path class="cls-2" d="M70.35,47.81h-.72V41.14h.72Z"/>
    <path class="cls-2" d="M75.43,45.74H72.25a1.68,1.68,0,0,0,.41,1.16,1.39,1.39,0,0,0,1.06.41,2.2,2.2,0,0,0,1.4-.51v.68a2.61,2.61,0,0,1-1.57.43,1.89,1.89,0,0,1-1.5-.61,2.53,2.53,0,0,1-.55-1.73,2.44,2.44,0,0,1,.6-1.71,1.92,1.92,0,0,1,1.48-.66,1.71,1.71,0,0,1,1.37.57,2.4,2.4,0,0,1,.48,1.59Zm-.74-.61a1.47,1.47,0,0,0-.3-1,1,1,0,0,0-.82-.34,1.19,1.19,0,0,0-.87.36,1.68,1.68,0,0,0-.44,1Z"/>
    <path class="cls-2" d="M84,47.81h-.82L82.47,46H79.8l-.63,1.77h-.82l2.42-6.31h.76Zm-1.73-2.43-1-2.69a2.85,2.85,0,0,1-.09-.42h0a2.17,2.17,0,0,1-.1.42l-1,2.69Z"/>
    <path class="cls-2" d="M85.62,45.42v2.39h-.73V41.5h1.73a2.27,2.27,0,0,1,1.56.5,1.75,1.75,0,0,1,.56,1.39,1.91,1.91,0,0,1-.62,1.46,2.37,2.37,0,0,1-1.67.57Zm0-3.25v2.59h.78a1.71,1.71,0,0,0,1.16-.35,1.25,1.25,0,0,0,.41-1c0-.83-.5-1.25-1.48-1.25Z"/>
    <path class="cls-2" d="M90.66,47.81h-.73V41.5h.73Z"/>
  </g>
  <g id="shape1230-28">
    <g id="use7">
      <g id="lend5">
        <path id="path4" class="cls-7" d="M155.51,17.59l8.07,4-8,4a9.08,9.08,0,0,0,0-8"/>
      </g>
    </g>
  </g>
  <line class="cls-8" x1="74.32" y1="21.56" x2="159.55" y2="21.56"/>
</svg>
