<svg xmlns="http://www.w3.org/2000/svg" viewBox="0 0 205.55 55.68"><defs><style>.cls-1,.cls-4{fill:#fff;}.cls-1{stroke:#000;stroke-width:0.24px;}.cls-1,.cls-3{stroke-linecap:round;stroke-linejoin:round;}.cls-2,.cls-3{fill:#008bfd;}.cls-3{stroke:gray;stroke-width:0.75px;}.cls-5{fill:#505050;}.cls-6{fill:#00b0f0;}</style></defs><title>OJ104546506</title><g id="shapes"><g id="shape1000-1"><path class="cls-1" d="M16,9.82.12,21.25,6.2,39.73H25.86l6.08-18.48Z"/></g><g id="group1216-3"><g id="group1217-4"><g id="group1218-5"><g id="group1219-6"><g id="shape1220-7"><path class="cls-2" d="M15.7,16.94a4.49,4.49,0,0,0-3,5.66c.66,2.55,3,4.22,5.27,3.67a4.5,4.5,0,0,0,3-5.67C20.42,17.94,18,16.27,15.7,16.94Z"/></g></g><g id="group1221-9"><g id="shape1222-10"><path class="cls-2" d="M20.64,27c-.44,0-.88.78-1.54,1.11s-1.32.89-3.18,0-2.09-1.66-3.63-1.66-4.06,2.77-4.06,6.88H23.82a12.09,12.09,0,0,0-1.1-4.22C21.62,27,21.08,27,20.64,27Z"/></g></g></g></g><g id="group1223-12"><g id="shape1224-13"><path class="cls-3" d="M22.05,22H17.93a.71.71,0,0,0-.65.66v2.85a.72.72,0,0,0,.76.65h.76v5.15a1,1,0,0,0,1,1.1,1,1,0,0,0,1-1H21v-.65c0-.22.33-.33.33-.33v-.33c-.33-.11-.54-.33-.54-.44v-.33l.21-.22a3.55,3.55,0,0,0,.33-.54A2.4,2.4,0,0,1,21,28c-.1-.11-.1-.33-.21-.44v-.22a2.51,2.51,0,0,1,.76-1.1h.54a.7.7,0,0,0,.65-.65v-3A.63.63,0,0,0,22.05,22Zm-2.39,9.53c0,.22,0,.33-.21.33s-.22-.22-.22-.33V26.72c0-.22.11-.33.22-.33s.21.22.21.33ZM20,23.76a.69.69,0,0,1-.65-.65.7.7,0,0,1,.65-.66.71.71,0,0,1,.65.66A.62.62,0,0,1,20,23.76Z"/></g><g id="shape1225-15"><path class="cls-4" d="M19.43,31.85a.24.24,0,0,1-.22-.22v-5a.22.22,0,0,1,.44,0v5.11C19.65,31.85,19.54,31.85,19.43,31.85Z"/></g><g id="shape1226-17"><ellipse class="cls-4" cx="20" cy="23.09" rx="0.66" ry="0.67"/></g></g></g><g id="shape1229-25"><path class="cls-2" d="M77.23,9.3H56.73a1.09,1.09,0,0,0-1.09,1.1V27.14a1.1,1.1,0,0,0,1.09,1.11H62a3.29,3.29,0,0,0,3.21,2.27,3.38,3.38,0,0,0,0-6.75A3.29,3.29,0,0,0,62,26H57.82v-12H76.13V26H72.68a7.61,7.61,0,0,0-7.46-6.56,8.25,8.25,0,0,0-3.64.92l1,2a5.27,5.27,0,0,1,2.55-.67,5.46,5.46,0,0,1,0,10.91,5.27,5.27,0,0,1-2.55-.67l-1,2a7.51,7.51,0,0,0,3.64.92,7.61,7.61,0,0,0,7.46-6.56h4.55a1.1,1.1,0,0,0,1.09-1.11V10.4A1.14,1.14,0,0,0,77.23,9.3Z"/></g><g id="shape1227-19"><path class="cls-2" d="M192.6,8.81H172.1A1.09,1.09,0,0,0,171,9.91V26.65a1.1,1.1,0,0,0,1.09,1.11h5.28A3.29,3.29,0,0,0,180.59,30a3.38,3.38,0,0,0,0-6.75,3.29,3.29,0,0,0-3.21,2.27h-4.19v-12H191.5v12h-3.45A7.61,7.61,0,0,0,180.59,19a8.25,8.25,0,0,0-3.64.92l1,2a5.27,5.27,0,0,1,2.55-.67,5.46,5.46,0,0,1,0,10.91,5.27,5.27,0,0,1-2.55-.67l-1,2a7.51,7.51,0,0,0,3.64.92,7.61,7.61,0,0,0,7.46-6.56h4.55a1.1,1.1,0,0,0,1.09-1.11V9.91A1.14,1.14,0,0,0,192.6,8.81Z"/></g><g id="shape1230-28"><g id="lend5"><path class="cls-5" d="M162.52,17.59l8.06,4-7.94,4a9,9,0,0,0-.06-8"/></g></g></g><g id="text"><path d="M170.92,42.32H170l-.74-2h-3l-.69,2h-.92l2.69-7h.85ZM169,39.62l-1.09-3a2,2,0,0,1-.11-.47h0a2.53,2.53,0,0,1-.11.47l-1.09,3Z"/><path d="M172.67,41.59h0v3h-.8v-7.3h.8v.87h0a1.89,1.89,0,0,1,1.72-1,1.82,1.82,0,0,1,1.51.67,2.8,2.8,0,0,1,.55,1.8,3.07,3.07,0,0,1-.62,2,2,2,0,0,1-1.66.75A1.67,1.67,0,0,1,172.67,41.59Zm0-2v.69a1.49,1.49,0,0,0,.4,1.06,1.43,1.43,0,0,0,2.16-.13,2.51,2.51,0,0,0,.42-1.55,2,2,0,0,0-.39-1.3,1.28,1.28,0,0,0-1.05-.48,1.4,1.4,0,0,0-1.12.49A1.79,1.79,0,0,0,172.65,39.58Z"/><path d="M178.54,41.59h0v3h-.81v-7.3h.81v.87h0a1.9,1.9,0,0,1,1.73-1,1.82,1.82,0,0,1,1.51.67,2.8,2.8,0,0,1,.54,1.8,3.07,3.07,0,0,1-.61,2,2,2,0,0,1-1.67.75A1.69,1.69,0,0,1,178.54,41.59Zm0-2v.69a1.49,1.49,0,0,0,.4,1.06,1.43,1.43,0,0,0,2.16-.13,2.51,2.51,0,0,0,.41-1.55,2,2,0,0,0-.38-1.3,1.28,1.28,0,0,0-1.05-.48,1.4,1.4,0,0,0-1.12.49A1.79,1.79,0,0,0,178.53,39.58Z"/><path d="M187.16,41.59h0v3h-.8v-7.3h.8v.87h0a1.9,1.9,0,0,1,1.73-1,1.82,1.82,0,0,1,1.51.67,2.8,2.8,0,0,1,.54,1.8,3.07,3.07,0,0,1-.61,2,2,2,0,0,1-1.67.75A1.67,1.67,0,0,1,187.16,41.59Zm0-2v.69a1.5,1.5,0,0,0,.41,1.06,1.32,1.32,0,0,0,1,.43,1.36,1.36,0,0,0,1.14-.56,2.57,2.57,0,0,0,.41-1.55,2,2,0,0,0-.38-1.3,1.28,1.28,0,0,0-1.05-.48,1.4,1.4,0,0,0-1.12.49A1.8,1.8,0,0,0,187.14,39.58Z"/><path d="M196.24,40h-3.53a1.82,1.82,0,0,0,.45,1.28,1.53,1.53,0,0,0,1.18.46,2.46,2.46,0,0,0,1.55-.56V42a2.89,2.89,0,0,1-1.74.48,2.07,2.07,0,0,1-1.66-.68,3.19,3.19,0,0,1,0-3.82,2.12,2.12,0,0,1,1.64-.73,1.88,1.88,0,0,1,1.52.63,2.66,2.66,0,0,1,.54,1.77Zm-.82-.68a1.62,1.62,0,0,0-.34-1.08,1.11,1.11,0,0,0-.91-.39,1.28,1.28,0,0,0-1,.41,1.78,1.78,0,0,0-.49,1.06Z"/><path d="M200.06,38.13a1,1,0,0,0-.61-.16,1,1,0,0,0-.85.48,2.22,2.22,0,0,0-.35,1.32v2.55h-.8v-5h.8v1h0a1.74,1.74,0,0,1,.52-.83,1.24,1.24,0,0,1,.79-.29,1.22,1.22,0,0,1,.48.07Z"/><path d="M171.41,53.32h-.8V45.91h.8Z"/><path d="M177.05,51h-3.53A1.82,1.82,0,0,0,174,52.3a1.53,1.53,0,0,0,1.18.46,2.46,2.46,0,0,0,1.55-.56V53a2.89,2.89,0,0,1-1.74.48,2.07,2.07,0,0,1-1.66-.68,3.19,3.19,0,0,1,0-3.82A2.12,2.12,0,0,1,175,48.2a1.86,1.86,0,0,1,1.51.63,2.66,2.66,0,0,1,.54,1.77Zm-.82-.68a1.62,1.62,0,0,0-.33-1.08,1.14,1.14,0,0,0-.92-.39,1.28,1.28,0,0,0-1,.41,1.78,1.78,0,0,0-.49,1.06Z"/><path d="M186.53,53.32h-.91l-.74-2h-3l-.7,2h-.91l2.68-7h.85Zm-1.92-2.7-1.1-3a2.75,2.75,0,0,1-.11-.47h0a2.53,2.53,0,0,1-.11.47l-1.09,3Z"/><path d="M188.38,50.67v2.65h-.82v-7h1.92a2.56,2.56,0,0,1,1.74.55,2,2,0,0,1,.62,1.54,2.1,2.1,0,0,1-.69,1.63,2.57,2.57,0,0,1-1.85.64Zm0-3.61v2.87h.86a1.89,1.89,0,0,0,1.29-.39,1.37,1.37,0,0,0,.45-1.1c0-.92-.55-1.38-1.64-1.38Z"/><path d="M194,53.32h-.82v-7H194Z"/><path d="M54.18,42.4h-.91l-.74-2h-3l-.7,2H48l2.68-7h.85Zm-1.92-2.7-1.1-3a4.26,4.26,0,0,1-.11-.47h0a2.53,2.53,0,0,1-.11.47l-1.09,3Z"/><path d="M55.92,41.68h0v3h-.8V37.4h.8v.88h0a1.9,1.9,0,0,1,1.73-1,1.82,1.82,0,0,1,1.51.67,2.8,2.8,0,0,1,.54,1.8,3.11,3.11,0,0,1-.61,2,2,2,0,0,1-1.67.75A1.67,1.67,0,0,1,55.92,41.68Zm0-2v.7a1.5,1.5,0,0,0,.41,1.06,1.43,1.43,0,0,0,2.16-.13,2.6,2.6,0,0,0,.41-1.55,2.08,2.08,0,0,0-.38-1.31,1.3,1.3,0,0,0-1-.47,1.4,1.4,0,0,0-1.12.49A1.74,1.74,0,0,0,55.9,39.66Z"/><path d="M61.8,41.68h0v3H61V37.4h.8v.88h0a1.9,1.9,0,0,1,1.73-1A1.83,1.83,0,0,1,65,38a2.8,2.8,0,0,1,.54,1.8,3.11,3.11,0,0,1-.61,2,2,2,0,0,1-1.67.75A1.67,1.67,0,0,1,61.8,41.68Zm0-2v.7a1.53,1.53,0,0,0,.4,1.06,1.37,1.37,0,0,0,1,.43,1.36,1.36,0,0,0,1.14-.56,2.6,2.6,0,0,0,.41-1.55,2,2,0,0,0-.39-1.31,1.27,1.27,0,0,0-1-.47,1.39,1.39,0,0,0-1.12.49A1.74,1.74,0,0,0,61.78,39.66Z"/><path d="M70.42,41.68h0v3h-.8V37.4h.8v.88h0a1.89,1.89,0,0,1,1.73-1,1.83,1.83,0,0,1,1.51.67,2.8,2.8,0,0,1,.54,1.8,3.11,3.11,0,0,1-.61,2,2,2,0,0,1-1.67.75A1.67,1.67,0,0,1,70.42,41.68Zm0-2v.7a1.49,1.49,0,0,0,.4,1.06,1.37,1.37,0,0,0,1,.43A1.36,1.36,0,0,0,73,41.29a2.6,2.6,0,0,0,.41-1.55A2,2,0,0,0,73,38.43,1.27,1.27,0,0,0,72,38a1.42,1.42,0,0,0-1.13.49A1.78,1.78,0,0,0,70.4,39.66Z"/><path d="M79.5,40.1H76a1.83,1.83,0,0,0,.45,1.29,1.52,1.52,0,0,0,1.18.46,2.46,2.46,0,0,0,1.55-.56V42a2.89,2.89,0,0,1-1.74.48,2.14,2.14,0,0,1-1.67-.68,2.8,2.8,0,0,1-.6-1.92A2.75,2.75,0,0,1,75.8,38a2.12,2.12,0,0,1,1.64-.73,1.88,1.88,0,0,1,1.52.63,2.63,2.63,0,0,1,.54,1.76Zm-.82-.67a1.64,1.64,0,0,0-.34-1.08,1.12,1.12,0,0,0-.91-.39,1.32,1.32,0,0,0-1,.41A1.83,1.83,0,0,0,76,39.43Z"/><path d="M83.31,38.21a1.07,1.07,0,0,0-1.46.33,2.21,2.21,0,0,0-.34,1.31V42.4h-.8v-5h.8v1h0a1.76,1.76,0,0,1,.52-.82,1.17,1.17,0,0,1,.79-.29,1.45,1.45,0,0,1,.47.06Z"/><path d="M56,53.4h-.8V46H56Z"/><path d="M61.68,51.1H58.15a1.83,1.83,0,0,0,.45,1.29,1.52,1.52,0,0,0,1.18.46,2.46,2.46,0,0,0,1.55-.56V53a2.89,2.89,0,0,1-1.74.48,2.14,2.14,0,0,1-1.67-.68,2.8,2.8,0,0,1-.6-1.92A2.75,2.75,0,0,1,58,49a2.12,2.12,0,0,1,1.64-.73,1.88,1.88,0,0,1,1.52.63,2.63,2.63,0,0,1,.54,1.76Zm-.82-.67a1.64,1.64,0,0,0-.34-1.08,1.12,1.12,0,0,0-.91-.39,1.32,1.32,0,0,0-1,.41,1.83,1.83,0,0,0-.48,1.06Z"/><path d="M71.15,53.4h-.9l-.75-2h-3l-.7,2h-.92l2.69-7h.85Zm-1.91-2.7-1.1-3a2,2,0,0,1-.11-.47h0a2.53,2.53,0,0,1-.11.47l-1.09,3Z"/><path d="M73,50.76V53.4h-.82v-7h1.93a2.51,2.51,0,0,1,1.74.55,2,2,0,0,1,.62,1.54,2.1,2.1,0,0,1-.69,1.63,2.59,2.59,0,0,1-1.85.64Zm0-3.62V50h.86a1.92,1.92,0,0,0,1.3-.38,1.38,1.38,0,0,0,.45-1.1c0-.92-.55-1.39-1.64-1.39Z"/><path d="M78.61,53.4h-.82v-7h.82Z"/><path class="cls-6" d="M84.42,7.12H81.68V9.54h2.53v.73H81.68v3.11h-.82v-7h3.56Z"/><path class="cls-6" d="M86.14,13.38h-.8V6h.8Z"/><path class="cls-6" d="M91.5,13.38h-.8v-.8h0a1.63,1.63,0,0,1-1.54.91c-1.19,0-1.79-.71-1.79-2.13v-3h.8v2.86c0,1,.4,1.58,1.21,1.58a1.27,1.27,0,0,0,1-.43,1.67,1.67,0,0,0,.37-1.13V8.38h.8Z"/><path class="cls-6" d="M92.52,13.19v-.85a2.35,2.35,0,0,0,1.44.48c.7,0,1.05-.24,1.05-.7a.59.59,0,0,0-.09-.34.82.82,0,0,0-.24-.25,1.52,1.52,0,0,0-.36-.19l-.45-.18a5.37,5.37,0,0,1-.58-.27,1.74,1.74,0,0,1-.42-.3,1.08,1.08,0,0,1-.26-.38,1.56,1.56,0,0,1-.08-.51,1.17,1.17,0,0,1,.16-.62,1.42,1.42,0,0,1,.43-.45,1.79,1.79,0,0,1,.61-.28,3,3,0,0,1,1.87.13v.81a2.25,2.25,0,0,0-1.27-.36,1.62,1.62,0,0,0-.4.05,1.28,1.28,0,0,0-.31.15.6.6,0,0,0-.2.22.55.55,0,0,0-.07.28.65.65,0,0,0,.07.33.79.79,0,0,0,.21.24,1.69,1.69,0,0,0,.33.18l.44.18c.22.09.42.17.6.26a2.11,2.11,0,0,1,.45.31,1.14,1.14,0,0,1,.28.38,1.25,1.25,0,0,1,.1.53,1.22,1.22,0,0,1-.16.64,1.38,1.38,0,0,1-.44.46,1.78,1.78,0,0,1-.63.26,2.94,2.94,0,0,1-.74.09A2.82,2.82,0,0,1,92.52,13.19Z"/><path class="cls-6" d="M96.46,13.19v-.85a2.4,2.4,0,0,0,1.44.48c.7,0,1.06-.24,1.06-.7a.59.59,0,0,0-.09-.34.85.85,0,0,0-.25-.25,1.52,1.52,0,0,0-.36-.19l-.45-.18c-.22-.09-.41-.18-.58-.27a1.74,1.74,0,0,1-.42-.3,1,1,0,0,1-.25-.38,1.33,1.33,0,0,1-.09-.51,1.17,1.17,0,0,1,.16-.62,1.42,1.42,0,0,1,.43-.45,1.79,1.79,0,0,1,.61-.28,2.82,2.82,0,0,1,.71-.09,2.87,2.87,0,0,1,1.17.22v.81a2.27,2.27,0,0,0-1.27-.36,1.7,1.7,0,0,0-.41.05,1.28,1.28,0,0,0-.31.15.7.7,0,0,0-.2.22.55.55,0,0,0-.07.28.65.65,0,0,0,.07.33.79.79,0,0,0,.21.24,1.69,1.69,0,0,0,.33.18l.45.18c.22.09.42.17.59.26a1.7,1.7,0,0,1,.45.31,1.33,1.33,0,0,1,.29.38,1.43,1.43,0,0,1,.1.53,1.22,1.22,0,0,1-.17.64,1.45,1.45,0,0,1-.43.46,2,2,0,0,1-.63.26,3.08,3.08,0,0,1-.75.09A2.82,2.82,0,0,1,96.46,13.19Z"/><path class="cls-6" d="M102.8,13.49a2.31,2.31,0,0,1-1.77-.7,2.6,2.6,0,0,1-.66-1.86,2.67,2.67,0,0,1,.68-2,2.45,2.45,0,0,1,1.86-.71,2.25,2.25,0,0,1,1.75.69,2.72,2.72,0,0,1,.63,1.91,2.69,2.69,0,0,1-.68,1.91A2.36,2.36,0,0,1,102.8,13.49Zm.06-4.56a1.54,1.54,0,0,0-1.23.53,2.19,2.19,0,0,0-.44,1.44,2.08,2.08,0,0,0,.45,1.41,1.55,1.55,0,0,0,1.22.51,1.48,1.48,0,0,0,1.19-.5,2.21,2.21,0,0,0,.42-1.44,2.21,2.21,0,0,0-.42-1.44A1.46,1.46,0,0,0,102.86,8.93Z"/><path class="cls-6" d="M111.64,13.49a3.06,3.06,0,0,1-2.39-1,3.61,3.61,0,0,1-.9-2.55,3.86,3.86,0,0,1,.92-2.7,3.17,3.17,0,0,1,2.48-1,3,3,0,0,1,2.34,1A3.68,3.68,0,0,1,115,9.79a3.91,3.91,0,0,1-.91,2.71A3.15,3.15,0,0,1,111.64,13.49Zm0-6.49a2.26,2.26,0,0,0-1.79.79,3.08,3.08,0,0,0-.69,2.09,3.16,3.16,0,0,0,.67,2.09,2.23,2.23,0,0,0,1.76.79,2.3,2.3,0,0,0,1.81-.76,3.08,3.08,0,0,0,.67-2.1,3.18,3.18,0,0,0-.65-2.14A2.2,2.2,0,0,0,111.69,7Z"/><path class="cls-6" d="M120.1,13.38h-.81V10.52c0-1.06-.38-1.59-1.16-1.59a1.25,1.25,0,0,0-1,.45,1.68,1.68,0,0,0-.39,1.14v2.86H116v-5h.8v.83h0a1.78,1.78,0,0,1,1.64-1,1.51,1.51,0,0,1,1.25.53,2.35,2.35,0,0,1,.44,1.53Z"/><path class="cls-6" d="M123.86,10.9H121.2v-.63h2.66Z"/><path class="cls-6" d="M125.11,13.38v-7h2a2.14,2.14,0,0,1,1.44.45A1.41,1.41,0,0,1,129.08,8a1.68,1.68,0,0,1-.33,1,1.7,1.7,0,0,1-.89.62v0a1.83,1.83,0,0,1,1.14.54,1.65,1.65,0,0,1,.42,1.17,1.83,1.83,0,0,1-.64,1.46,2.41,2.41,0,0,1-1.63.56Zm.82-6.26V9.38h.84a1.58,1.58,0,0,0,1.06-.33,1.11,1.11,0,0,0,.39-.91q0-1-1.35-1Zm0,3v2.52H127a1.68,1.68,0,0,0,1.13-.34,1.19,1.19,0,0,0,.39-.94c0-.82-.56-1.24-1.69-1.24Z"/><path class="cls-6" d="M134.45,11.08h-3.53a1.92,1.92,0,0,0,.45,1.28,1.53,1.53,0,0,0,1.18.46,2.47,2.47,0,0,0,1.56-.56V13a2.9,2.9,0,0,1-1.75.48,2.09,2.09,0,0,1-1.66-.68,2.8,2.8,0,0,1-.61-1.92,2.71,2.71,0,0,1,.67-1.9,2.1,2.1,0,0,1,1.64-.73,1.9,1.9,0,0,1,1.52.63,2.65,2.65,0,0,1,.53,1.77Zm-.82-.68a1.59,1.59,0,0,0-.33-1.08,1.14,1.14,0,0,0-.92-.39,1.32,1.32,0,0,0-1,.41,1.91,1.91,0,0,0-.49,1.06Z"/><path class="cls-6" d="M139.52,13.38h-.81V10.49c0-1-.38-1.56-1.16-1.56a1.25,1.25,0,0,0-1,.45,1.67,1.67,0,0,0-.4,1.16v2.84h-.8V6h.8V9.21h0a1.8,1.8,0,0,1,1.64-1c1.12,0,1.69.68,1.69,2Z"/><path class="cls-6" d="M144.3,13.38h-.8v-.79h0a1.67,1.67,0,0,1-1.53.9,1.65,1.65,0,0,1-1.17-.39,1.37,1.37,0,0,1-.43-1c0-.94.55-1.48,1.65-1.63l1.5-.21c0-.85-.34-1.28-1-1.28a2.48,2.48,0,0,0-1.63.62V8.73a3,3,0,0,1,1.7-.47c1.18,0,1.76.62,1.76,1.86Zm-.8-2.53-1.2.16a2,2,0,0,0-.84.28.9.9,0,0,0,0,1.3,1.05,1.05,0,0,0,.7.23,1.26,1.26,0,0,0,1-.42,1.49,1.49,0,0,0,.39-1.06Z"/><path class="cls-6" d="M146.31,13.38h-.8V6h.8Z"/><path class="cls-6" d="M150.1,6.68a1,1,0,0,0-.53-.14c-.56,0-.84.36-.84,1.06v.78h1.17v.68h-1.17v4.32h-.79V9.06h-.86V8.38h.86V7.56a1.7,1.7,0,0,1,.45-1.24A1.77,1.77,0,0,1,150.1,6Z"/><path class="cls-6" d="M153,10.9h-2.66v-.63H153Z"/><path class="cls-6" d="M157.09,13.49a3,3,0,0,1-2.38-1,3.61,3.61,0,0,1-.9-2.55,3.9,3.9,0,0,1,.91-2.7,3.2,3.2,0,0,1,2.49-1,3,3,0,0,1,2.34,1,3.67,3.67,0,0,1,.88,2.56,3.86,3.86,0,0,1-.91,2.71A3.12,3.12,0,0,1,157.09,13.49ZM157.15,7a2.26,2.26,0,0,0-1.79.79,3.08,3.08,0,0,0-.69,2.09,3.1,3.1,0,0,0,.67,2.09,2.21,2.21,0,0,0,1.75.79,2.31,2.31,0,0,0,1.82-.76,3.07,3.07,0,0,0,.66-2.1,3.18,3.18,0,0,0-.64-2.14A2.2,2.2,0,0,0,157.15,7Z"/><path class="cls-6" d="M163.87,6.68a1,1,0,0,0-.53-.14c-.56,0-.84.36-.84,1.06v.78h1.17v.68H162.5v4.32h-.79V9.06h-.86V8.38h.86V7.56a1.7,1.7,0,0,1,.45-1.24A1.77,1.77,0,0,1,163.87,6Z"/><rect class="cls-5" x="78.32" y="20.68" width="85.23" height="1.75"/></g></svg>