<?xml version="1.0" encoding="utf-8"?>
<!-- Generator: Adobe Illustrator 22.1.0, SVG Export Plug-In . SVG Version: 6.00 Build 0)  -->
<svg version="1.1" id="Layer_1" xmlns="http://www.w3.org/2000/svg" xmlns:xlink="http://www.w3.org/1999/xlink" x="0px" y="0px"
	 viewBox="0 0 104 41" style="enable-background:new 0 0 104 41;" xml:space="preserve">
<style type="text/css">
	.st0{enable-background:new    ;}
	.st1{fill:#FFFFFF;}
</style>
<image style="overflow:visible;enable-background:new    ;" width="104" height="41" id="Target" xlink:href="C0F11179.jpg"  transform="matrix(1 0 0 1 0 1.682073e-05)">
</image>
<g id="Accedi" class="st0">
	<path class="st1" d="M54.5,25.3h-1.8l-0.9-2.6h-4l-0.9,2.6h-1.8l3.8-10.1h1.9L54.5,25.3z M51.3,21.4l-1.4-4c0-0.1-0.1-0.3-0.1-0.6
		h0c0,0.3-0.1,0.5-0.1,0.6l-1.4,4H51.3z"/>
	<path class="st1" d="M60.9,25c-0.6,0.3-1.3,0.5-2,0.5c-1.1,0-1.9-0.3-2.6-1s-1-1.5-1-2.6c0-1.2,0.4-2.1,1.1-2.9s1.6-1.1,2.8-1.1
		c0.7,0,1.2,0.1,1.7,0.3v1.5c-0.5-0.4-1-0.6-1.6-0.6c-0.7,0-1.3,0.2-1.7,0.7c-0.4,0.5-0.7,1.1-0.7,1.8c0,0.7,0.2,1.3,0.6,1.8
		c0.4,0.4,1,0.6,1.7,0.6c0.6,0,1.1-0.2,1.7-0.6V25z"/>
	<path class="st1" d="M67.7,25c-0.6,0.3-1.3,0.5-2,0.5c-1.1,0-1.9-0.3-2.6-1s-1-1.5-1-2.6c0-1.2,0.4-2.1,1.1-2.9
		c0.7-0.7,1.6-1.1,2.8-1.1c0.7,0,1.2,0.1,1.7,0.3v1.5c-0.5-0.4-1-0.6-1.6-0.6c-0.7,0-1.3,0.2-1.7,0.7c-0.4,0.5-0.7,1.1-0.7,1.8
		c0,0.7,0.2,1.3,0.6,1.8c0.4,0.4,1,0.6,1.7,0.6c0.6,0,1.1-0.2,1.7-0.6V25z"/>
	<path class="st1" d="M75.4,22.2h-4.9c0,0.7,0.2,1.2,0.6,1.5c0.4,0.4,0.9,0.5,1.6,0.5c0.8,0,1.5-0.2,2.1-0.7v1.3
		c-0.7,0.4-1.5,0.6-2.6,0.6c-1.1,0-1.9-0.3-2.5-1c-0.6-0.7-0.9-1.6-0.9-2.8c0-1.1,0.3-2,1-2.7c0.7-0.7,1.5-1.1,2.5-1.1
		s1.7,0.3,2.3,0.9s0.8,1.5,0.8,2.6V22.2z M73.8,21c0-0.6-0.1-1-0.4-1.4c-0.3-0.3-0.6-0.5-1.1-0.5c-0.5,0-0.9,0.2-1.2,0.5
		c-0.3,0.3-0.5,0.8-0.6,1.3H73.8z"/>
	<path class="st1" d="M83.5,25.3h-1.6v-1.2h0c-0.5,0.9-1.3,1.4-2.4,1.4c-0.9,0-1.6-0.3-2.1-1c-0.5-0.6-0.8-1.5-0.8-2.6
		c0-1.2,0.3-2.1,0.9-2.9c0.6-0.7,1.4-1.1,2.4-1.1c1,0,1.7,0.4,2.1,1.2h0v-4.5h1.6V25.3z M81.9,22v-0.9c0-0.5-0.2-0.9-0.5-1.3
		c-0.3-0.4-0.8-0.5-1.3-0.5c-0.6,0-1.1,0.2-1.4,0.7c-0.3,0.5-0.5,1.1-0.5,1.9c0,0.7,0.2,1.3,0.5,1.7c0.3,0.4,0.8,0.6,1.4,0.6
		c0.6,0,1-0.2,1.4-0.6C81.7,23.2,81.9,22.7,81.9,22z"/>
	<path class="st1" d="M86.4,16.6c-0.3,0-0.5-0.1-0.7-0.3c-0.2-0.2-0.3-0.4-0.3-0.7c0-0.3,0.1-0.5,0.3-0.7c0.2-0.2,0.4-0.3,0.7-0.3
		c0.3,0,0.5,0.1,0.7,0.3c0.2,0.2,0.3,0.4,0.3,0.7c0,0.3-0.1,0.5-0.3,0.7C86.9,16.5,86.7,16.6,86.4,16.6z M87.2,25.3h-1.6v-7.2h1.6
		V25.3z"/>
</g>
</svg>
