<?xml version="1.0" encoding="utf-8"?>
<!-- Generator: Adobe Illustrator 22.1.0, SVG Export Plug-In . SVG Version: 6.00 Build 0)  -->
<svg version="1.1" id="Layer_1" xmlns="http://www.w3.org/2000/svg" xmlns:xlink="http://www.w3.org/1999/xlink" x="0px" y="0px"
	 viewBox="0 0 104 41" style="enable-background:new 0 0 104 41;" xml:space="preserve">
<style type="text/css">
	.st0{enable-background:new    ;}
	.st1{fill:#5E5E5E;}
</style>
<image style="overflow:visible;enable-background:new    ;" width="104" height="41" id="Target" xlink:href="D1B2A0F1.jpg"  transform="matrix(1 0 0 1 0 1.682073e-05)">
</image>
<g id="Accedi" class="st0">
	<path class="st1" d="M54.6,25.4h-1.9l-0.9-2.6h-4L47,25.4h-1.8l3.8-10.2h1.9L54.6,25.4z M51.4,21.5L50,17.4c0-0.1-0.1-0.3-0.1-0.6
		h0c0,0.3-0.1,0.5-0.1,0.6l-1.4,4.1H51.4z"/>
	<path class="st1" d="M61,25.1c-0.6,0.3-1.3,0.5-2.1,0.5c-1.1,0-1.9-0.3-2.6-1c-0.7-0.7-1-1.5-1-2.6c0-1.2,0.4-2.2,1.1-2.9
		c0.7-0.7,1.7-1.1,2.9-1.1c0.7,0,1.2,0.1,1.8,0.3v1.5c-0.5-0.4-1-0.6-1.6-0.6c-0.7,0-1.3,0.2-1.7,0.7c-0.4,0.5-0.7,1.1-0.7,1.8
		c0,0.8,0.2,1.3,0.6,1.8c0.4,0.4,1,0.7,1.7,0.7c0.6,0,1.1-0.2,1.7-0.6V25.1z"/>
	<path class="st1" d="M67.9,25.1c-0.6,0.3-1.3,0.5-2.1,0.5c-1.1,0-2-0.3-2.6-1c-0.7-0.7-1-1.5-1-2.6c0-1.2,0.4-2.2,1.1-2.9
		c0.7-0.7,1.7-1.1,2.9-1.1c0.7,0,1.2,0.1,1.8,0.3v1.5c-0.5-0.4-1-0.6-1.6-0.6c-0.7,0-1.3,0.2-1.7,0.7c-0.4,0.5-0.7,1.1-0.7,1.8
		c0,0.8,0.2,1.3,0.6,1.8c0.4,0.4,1,0.7,1.7,0.7c0.6,0,1.2-0.2,1.7-0.6V25.1z"/>
	<path class="st1" d="M75.7,22.2h-5c0,0.7,0.2,1.2,0.6,1.6c0.4,0.4,0.9,0.5,1.6,0.5c0.8,0,1.5-0.2,2.1-0.7V25
		c-0.7,0.4-1.5,0.6-2.6,0.6c-1.1,0-1.9-0.3-2.5-1C69.3,24,69,23,69,21.8c0-1.1,0.3-2.1,1-2.8c0.7-0.7,1.5-1.1,2.5-1.1s1.8,0.3,2.3,1
		c0.5,0.6,0.8,1.5,0.8,2.7V22.2z M74.1,21.1c0-0.6-0.1-1.1-0.4-1.4c-0.3-0.3-0.7-0.5-1.1-0.5c-0.5,0-0.9,0.2-1.2,0.5
		c-0.3,0.3-0.5,0.8-0.6,1.4H74.1z"/>
	<path class="st1" d="M83.8,25.4h-1.6v-1.2h0c-0.5,0.9-1.3,1.4-2.4,1.4c-0.9,0-1.6-0.3-2.1-1C77,24,76.8,23.1,76.8,22
		c0-1.2,0.3-2.2,0.9-2.9C78.2,18.4,79,18,80,18c1,0,1.7,0.4,2.1,1.2h0v-4.5h1.6V25.4z M82.2,22.1v-1c0-0.5-0.2-1-0.5-1.3
		c-0.3-0.4-0.8-0.5-1.3-0.5c-0.6,0-1.1,0.2-1.5,0.7c-0.4,0.5-0.5,1.1-0.5,1.9c0,0.7,0.2,1.3,0.5,1.8c0.3,0.4,0.8,0.6,1.4,0.6
		c0.6,0,1-0.2,1.4-0.6C82,23.3,82.2,22.7,82.2,22.1z"/>
	<path class="st1" d="M86.8,16.6c-0.3,0-0.5-0.1-0.7-0.3c-0.2-0.2-0.3-0.4-0.3-0.7c0-0.3,0.1-0.5,0.3-0.7c0.2-0.2,0.4-0.3,0.7-0.3
		c0.3,0,0.5,0.1,0.7,0.3c0.2,0.2,0.3,0.4,0.3,0.7c0,0.3-0.1,0.5-0.3,0.7C87.3,16.5,87.1,16.6,86.8,16.6z M87.6,25.4H86v-7.3h1.6
		V25.4z"/>
</g>
</svg>
