<?xml version="1.0" encoding="utf-8"?>
<!-- Generator: Adobe Illustrator 22.1.0, SVG Export Plug-In . SVG Version: 6.00 Build 0)  -->
<svg version="1.1" id="Layer_1" xmlns="http://www.w3.org/2000/svg" xmlns:xlink="http://www.w3.org/1999/xlink" x="0px" y="0px"
	 viewBox="0 0 215 41" style="enable-background:new 0 0 215 41;" xml:space="preserve">
<style type="text/css">
	.st0{enable-background:new    ;}
	.st1{fill:#5E5E5E;}
</style>
<image style="overflow:visible;enable-background:new    ;" width="215" height="41" id="Target" xlink:href="DA8E7B96.jpg"  transform="matrix(1 0 0 1 0 1.682073e-05)">
</image>
<g id="Accedi_con_Microsoft" class="st0">
	<path class="st1" d="M55.2,25.7h-1.9l-0.9-2.7h-4.1l-0.9,2.7h-1.9l3.9-10.4h1.9L55.2,25.7z M51.9,21.6l-1.4-4.2
		c0-0.1-0.1-0.4-0.1-0.7h0c0,0.3-0.1,0.5-0.1,0.7l-1.4,4.2H51.9z"/>
	<path class="st1" d="M61.8,25.4c-0.6,0.3-1.3,0.5-2.1,0.5c-1.1,0-2-0.3-2.7-1c-0.7-0.7-1-1.6-1-2.7c0-1.2,0.4-2.2,1.1-3
		c0.7-0.7,1.7-1.1,2.9-1.1c0.7,0,1.3,0.1,1.8,0.4V20c-0.5-0.4-1.1-0.6-1.7-0.6c-0.7,0-1.3,0.2-1.8,0.7c-0.5,0.5-0.7,1.1-0.7,1.9
		c0,0.8,0.2,1.4,0.6,1.8c0.4,0.4,1,0.7,1.7,0.7c0.6,0,1.2-0.2,1.7-0.6V25.4z"/>
	<path class="st1" d="M68.8,25.4c-0.6,0.3-1.3,0.5-2.1,0.5c-1.1,0-2-0.3-2.7-1c-0.7-0.7-1-1.6-1-2.7c0-1.2,0.4-2.2,1.1-3
		c0.7-0.7,1.7-1.1,2.9-1.1c0.7,0,1.3,0.1,1.8,0.4V20c-0.5-0.4-1.1-0.6-1.7-0.6c-0.7,0-1.3,0.2-1.8,0.7c-0.5,0.5-0.7,1.1-0.7,1.9
		c0,0.8,0.2,1.4,0.6,1.8c0.4,0.4,1,0.7,1.7,0.7c0.6,0,1.2-0.2,1.7-0.6V25.4z"/>
	<path class="st1" d="M76.7,22.4h-5.1c0,0.7,0.2,1.2,0.6,1.6c0.4,0.4,1,0.6,1.7,0.6c0.8,0,1.5-0.2,2.2-0.7v1.4
		c-0.7,0.4-1.6,0.6-2.7,0.6c-1.1,0-2-0.3-2.6-1C70.3,24.2,70,23.2,70,22c0-1.2,0.3-2.1,1-2.8s1.5-1.1,2.6-1.1s1.8,0.3,2.4,1
		c0.6,0.7,0.8,1.6,0.8,2.7V22.4z M75.1,21.3c0-0.6-0.1-1.1-0.4-1.4c-0.3-0.3-0.7-0.5-1.2-0.5c-0.5,0-0.9,0.2-1.2,0.5
		c-0.3,0.4-0.5,0.8-0.6,1.4H75.1z"/>
	<path class="st1" d="M85.1,25.7h-1.7v-1.3h0c-0.5,1-1.4,1.4-2.5,1.4c-0.9,0-1.7-0.3-2.2-1c-0.6-0.7-0.8-1.6-0.8-2.7
		c0-1.2,0.3-2.2,0.9-3c0.6-0.7,1.4-1.1,2.4-1.1c1,0,1.7,0.4,2.2,1.2h0v-4.6h1.7V25.7z M83.5,22.3v-1c0-0.5-0.2-1-0.5-1.3
		c-0.3-0.4-0.8-0.6-1.3-0.6c-0.6,0-1.1,0.2-1.5,0.7c-0.4,0.5-0.5,1.1-0.5,2c0,0.8,0.2,1.4,0.5,1.8c0.3,0.4,0.8,0.7,1.4,0.7
		c0.6,0,1-0.2,1.4-0.6C83.3,23.5,83.5,23,83.5,22.3z"/>
	<path class="st1" d="M88.2,16.7c-0.3,0-0.5-0.1-0.7-0.3c-0.2-0.2-0.3-0.4-0.3-0.7s0.1-0.5,0.3-0.7c0.2-0.2,0.4-0.3,0.7-0.3
		c0.3,0,0.5,0.1,0.7,0.3c0.2,0.2,0.3,0.4,0.3,0.7c0,0.3-0.1,0.5-0.3,0.7C88.7,16.6,88.5,16.7,88.2,16.7z M89,25.7h-1.7v-7.5H89V25.7
		z"/>
	<path class="st1" d="M100.7,25.4c-0.6,0.3-1.3,0.5-2.1,0.5c-1.1,0-2-0.3-2.7-1c-0.7-0.7-1-1.6-1-2.7c0-1.2,0.4-2.2,1.1-3
		c0.7-0.7,1.7-1.1,2.9-1.1c0.7,0,1.3,0.1,1.8,0.4V20c-0.5-0.4-1.1-0.6-1.7-0.6c-0.7,0-1.3,0.2-1.8,0.7c-0.5,0.5-0.7,1.1-0.7,1.9
		c0,0.8,0.2,1.4,0.6,1.8c0.4,0.4,1,0.7,1.7,0.7c0.6,0,1.2-0.2,1.7-0.6V25.4z"/>
	<path class="st1" d="M105.6,25.9c-1.1,0-2.1-0.3-2.8-1c-0.7-0.7-1-1.6-1-2.8c0-1.3,0.4-2.2,1.1-2.9c0.7-0.7,1.7-1.1,2.9-1.1
		c1.2,0,2.1,0.3,2.7,1c0.6,0.7,1,1.6,1,2.8c0,1.2-0.4,2.1-1.1,2.9C107.8,25.5,106.8,25.9,105.6,25.9z M105.7,19.4
		c-0.7,0-1.2,0.2-1.6,0.7c-0.4,0.5-0.6,1.1-0.6,1.9c0,0.8,0.2,1.4,0.6,1.8s0.9,0.7,1.6,0.7c0.7,0,1.2-0.2,1.5-0.7
		c0.4-0.4,0.5-1.1,0.5-1.9c0-0.8-0.2-1.5-0.5-1.9C106.9,19.7,106.4,19.4,105.7,19.4z"/>
	<path class="st1" d="M117.9,25.7h-1.7v-4.2c0-1.4-0.5-2.1-1.5-2.1c-0.5,0-0.9,0.2-1.3,0.6c-0.3,0.4-0.5,0.9-0.5,1.5v4.2h-1.7v-7.5
		h1.7v1.2h0c0.6-0.9,1.4-1.4,2.4-1.4c0.8,0,1.4,0.3,1.9,0.8c0.4,0.5,0.6,1.3,0.6,2.3V25.7z"/>
	<path class="st1" d="M135.4,25.7h-1.7V19c0-0.6,0-1.2,0.1-2h0c-0.1,0.5-0.2,0.8-0.3,1l-3.1,7.8h-1.2l-3.1-7.7
		c-0.1-0.2-0.2-0.6-0.3-1h0c0,0.4,0.1,1.1,0.1,2v6.7h-1.6V15.3h2.4l2.7,6.9c0.2,0.5,0.3,0.9,0.4,1.2h0c0.2-0.5,0.3-1,0.4-1.2
		l2.8-6.9h2.4V25.7z"/>
	<path class="st1" d="M138.6,16.7c-0.3,0-0.5-0.1-0.7-0.3c-0.2-0.2-0.3-0.4-0.3-0.7s0.1-0.5,0.3-0.7c0.2-0.2,0.4-0.3,0.7-0.3
		c0.3,0,0.5,0.1,0.7,0.3c0.2,0.2,0.3,0.4,0.3,0.7c0,0.3-0.1,0.5-0.3,0.7C139.2,16.6,138.9,16.7,138.6,16.7z M139.5,25.7h-1.7v-7.5
		h1.7V25.7z"/>
	<path class="st1" d="M147,25.4c-0.6,0.3-1.3,0.5-2.1,0.5c-1.1,0-2-0.3-2.7-1s-1-1.6-1-2.7c0-1.2,0.4-2.2,1.1-3
		c0.7-0.7,1.7-1.1,2.9-1.1c0.7,0,1.3,0.1,1.8,0.4V20c-0.5-0.4-1.1-0.6-1.7-0.6c-0.7,0-1.3,0.2-1.8,0.7c-0.5,0.5-0.7,1.1-0.7,1.9
		c0,0.8,0.2,1.4,0.6,1.8c0.4,0.4,1,0.7,1.7,0.7c0.6,0,1.2-0.2,1.7-0.6V25.4z"/>
	<path class="st1" d="M153,19.9c-0.2-0.2-0.5-0.2-0.9-0.2c-0.5,0-0.9,0.2-1.3,0.7c-0.3,0.5-0.5,1.1-0.5,1.8v3.6h-1.7v-7.5h1.7v1.5h0
		c0.2-0.5,0.4-0.9,0.8-1.2c0.3-0.3,0.7-0.4,1.1-0.4c0.3,0,0.5,0,0.7,0.1V19.9z"/>
	<path class="st1" d="M157.4,25.9c-1.1,0-2.1-0.3-2.8-1c-0.7-0.7-1-1.6-1-2.8c0-1.3,0.4-2.2,1.1-2.9c0.7-0.7,1.7-1.1,2.9-1.1
		c1.2,0,2.1,0.3,2.7,1c0.7,0.7,1,1.6,1,2.8c0,1.2-0.4,2.1-1.1,2.9S158.6,25.9,157.4,25.9z M157.5,19.4c-0.7,0-1.2,0.2-1.6,0.7
		c-0.4,0.5-0.6,1.1-0.6,1.9c0,0.8,0.2,1.4,0.6,1.8c0.4,0.4,0.9,0.7,1.6,0.7c0.7,0,1.2-0.2,1.5-0.7c0.4-0.4,0.5-1.1,0.5-1.9
		c0-0.8-0.2-1.5-0.5-1.9C158.6,19.7,158.1,19.4,157.5,19.4z"/>
	<path class="st1" d="M162.5,25.5v-1.6c0.6,0.5,1.3,0.7,2.1,0.7c1,0,1.5-0.3,1.5-0.9c0-0.2,0-0.3-0.1-0.4c-0.1-0.1-0.2-0.2-0.4-0.3
		c-0.1-0.1-0.3-0.2-0.5-0.2s-0.4-0.2-0.7-0.2c-0.3-0.1-0.6-0.3-0.8-0.4c-0.2-0.1-0.4-0.3-0.6-0.5c-0.2-0.2-0.3-0.4-0.4-0.6
		c-0.1-0.2-0.1-0.5-0.1-0.8c0-0.4,0.1-0.7,0.3-0.9c0.2-0.3,0.4-0.5,0.7-0.7s0.6-0.3,1-0.4c0.4-0.1,0.7-0.1,1.1-0.1
		c0.7,0,1.3,0.1,1.8,0.3v1.5c-0.5-0.4-1.1-0.5-1.8-0.5c-0.2,0-0.4,0-0.6,0.1c-0.2,0-0.3,0.1-0.4,0.2s-0.2,0.2-0.3,0.3
		c-0.1,0.1-0.1,0.2-0.1,0.4c0,0.2,0,0.3,0.1,0.4c0.1,0.1,0.2,0.2,0.3,0.3c0.1,0.1,0.3,0.2,0.5,0.2c0.2,0.1,0.4,0.1,0.6,0.2
		c0.3,0.1,0.6,0.3,0.9,0.4c0.3,0.1,0.5,0.3,0.7,0.5c0.2,0.2,0.3,0.4,0.4,0.6c0.1,0.2,0.1,0.5,0.1,0.8c0,0.4-0.1,0.7-0.3,1
		s-0.4,0.5-0.7,0.7s-0.6,0.3-1,0.4s-0.8,0.1-1.2,0.1C163.8,25.9,163.1,25.8,162.5,25.5z"/>
	<path class="st1" d="M172.7,25.9c-1.1,0-2.1-0.3-2.8-1c-0.7-0.7-1-1.6-1-2.8c0-1.3,0.4-2.2,1.1-2.9c0.7-0.7,1.7-1.1,2.9-1.1
		c1.2,0,2.1,0.3,2.7,1s1,1.6,1,2.8c0,1.2-0.4,2.1-1.1,2.9C174.8,25.5,173.9,25.9,172.7,25.9z M172.8,19.4c-0.7,0-1.2,0.2-1.6,0.7
		c-0.4,0.5-0.6,1.1-0.6,1.9c0,0.8,0.2,1.4,0.6,1.8s0.9,0.7,1.6,0.7c0.7,0,1.2-0.2,1.5-0.7c0.4-0.4,0.5-1.1,0.5-1.9
		c0-0.8-0.2-1.5-0.5-1.9C174,19.7,173.4,19.4,172.8,19.4z"/>
	<path class="st1" d="M182.3,16.1c-0.2-0.1-0.5-0.2-0.8-0.2c-0.8,0-1.2,0.5-1.2,1.4v1h1.7v1.3h-1.7v6.1h-1.7v-6.1h-1.3v-1.3h1.3
		v-1.2c0-0.8,0.3-1.4,0.8-1.9c0.5-0.5,1.2-0.7,1.9-0.7c0.4,0,0.7,0,1,0.1V16.1z"/>
	<path class="st1" d="M187.4,25.6c-0.3,0.2-0.8,0.2-1.3,0.2c-1.4,0-2.2-0.7-2.2-2.1v-4.2h-1.2v-1.3h1.2v-1.7l1.7-0.5v2.2h1.8v1.3
		h-1.8v3.7c0,0.4,0.1,0.8,0.2,0.9c0.2,0.2,0.4,0.3,0.8,0.3c0.3,0,0.5-0.1,0.7-0.2V25.6z"/>
</g>
</svg>
