<svg id="Layer_1" data-name="Layer 1" xmlns="http://www.w3.org/2000/svg" xmlns:xlink="http://www.w3.org/1999/xlink" viewBox="0 0 325.49 212.9"><defs><style>.cls-1,.cls-10{fill:#fff;}.cls-2{fill:#0072c6;opacity:0.12;}.cls-2,.cls-6{isolation:isolate;}.cls-3{fill:url(#linear-gradient);}.cls-4{fill:#b4ec36;}.cls-5{fill:#5ea0ef;}.cls-6{opacity:0.9;fill:url(#linear-gradient-2);}.cls-7{fill:url(#linear-gradient-3);}.cls-8{fill:#0078d4;}.cls-10,.cls-8,.cls-9{fill-rule:evenodd;}.cls-9{fill:url(#linear-gradient-4);}.cls-11{fill:none;stroke:#3c3c41;stroke-miterlimit:10;}.cls-12{fill:url(#linear-gradient-5);}.cls-13{fill:#50e6ff;}.cls-14{fill:#c3f1ff;}.cls-15{fill:#9cebff;}.cls-16{fill:url(#linear-gradient-6);}.cls-17{fill:url(#linear-gradient-7);}.cls-18{fill:url(#linear-gradient-8);}.cls-19{fill:url(#linear-gradient-9);}.cls-20{fill:url(#linear-gradient-10);}.cls-21{fill:url(#linear-gradient-11);}.cls-22{fill:#e3e3e3;}.cls-23{fill:#1e1e1e;}</style><linearGradient id="linear-gradient" x1="126.49" y1="963.39" x2="126.49" y2="926.29" gradientTransform="translate(0 -837.21)" gradientUnits="userSpaceOnUse"><stop offset="0" stop-color="#5e9624"/><stop offset="0.02" stop-color="#5f9724"/><stop offset="1" stop-color="#76bc2d"/></linearGradient><linearGradient id="linear-gradient-2" x1="26.52" y1="92.8" x2="26.52" y2="120.83" gradientTransform="matrix(1, 0, 0, -1, 0, 213)" gradientUnits="userSpaceOnUse"><stop offset="0" stop-color="#d2ebff"/><stop offset="1" stop-color="#f0fffd"/></linearGradient><linearGradient id="linear-gradient-3" x1="26.13" y1="931.16" x2="26.13" y2="955.35" gradientTransform="translate(0 -837.21)" gradientUnits="userSpaceOnUse"><stop offset="0.09" stop-color="#6cc6b9"/><stop offset="0.46" stop-color="#6ac4b7"/><stop offset="0.64" stop-color="#62bdb0"/><stop offset="0.77" stop-color="#56b1a4"/><stop offset="0.88" stop-color="#439f93"/><stop offset="0.98" stop-color="#2c897d"/><stop offset="1" stop-color="#258277"/></linearGradient><linearGradient id="linear-gradient-4" x1="26.13" y1="86.52" x2="26.13" y2="89.34" gradientTransform="matrix(1, 0, 0, -1, 0, 213)" gradientUnits="userSpaceOnUse"><stop offset="0" stop-color="#0078d4"/><stop offset="0.17" stop-color="#1c84dc"/><stop offset="0.38" stop-color="#3990e4"/><stop offset="0.59" stop-color="#4d99ea"/><stop offset="0.8" stop-color="#5a9eee"/><stop offset="1" stop-color="#5ea0ef"/></linearGradient><linearGradient id="linear-gradient-5" x1="249.56" y1="898.87" x2="249.56" y2="880.1" gradientTransform="translate(0 -837.21)" gradientUnits="userSpaceOnUse"><stop offset="0" stop-color="#0078d4"/><stop offset="0.82" stop-color="#5ea0ef"/></linearGradient><linearGradient id="linear-gradient-6" x1="249.56" y1="906.1" x2="249.56" y2="898.87" gradientTransform="translate(0 -837.21)" gradientUnits="userSpaceOnUse"><stop offset="0.15" stop-color="#ccc"/><stop offset="1" stop-color="#707070"/></linearGradient><linearGradient id="linear-gradient-7" x1="249.56" y1="952.87" x2="249.56" y2="934.1" xlink:href="#linear-gradient-5"/><linearGradient id="linear-gradient-8" x1="249.56" y1="960.1" x2="249.56" y2="952.87" xlink:href="#linear-gradient-6"/><linearGradient id="linear-gradient-9" x1="249.56" y1="1011.37" x2="249.56" y2="992.6" xlink:href="#linear-gradient-5"/><linearGradient id="linear-gradient-10" x1="249.56" y1="1018.6" x2="249.56" y2="1011.37" xlink:href="#linear-gradient-6"/><linearGradient id="linear-gradient-11" x1="220.69" y1="862.31" x2="220.69" y2="832.51" gradientTransform="translate(0 -837.21)" gradientUnits="userSpaceOnUse"><stop offset="0" stop-color="#0078d4"/><stop offset="0.16" stop-color="#1380da"/><stop offset="0.53" stop-color="#3c91e5"/><stop offset="0.82" stop-color="#559cec"/><stop offset="1" stop-color="#5ea0ef"/></linearGradient></defs><g id="Shapes"><rect class="cls-1" width="325.49" height="212.9"/><path class="cls-1" d="M325.49,187.9h-105V12.9h86.4a18.59,18.59,0,0,1,18.6,18.59Z"/><path class="cls-2" d="M325.49,187.9h-105V12.9h86.4a18.59,18.59,0,0,1,18.6,18.59Z"/><path class="cls-3" d="M110.81,106.13l14.91-14.91a1.07,1.07,0,0,1,1.51,0l0,0,14.91,14.91a1.06,1.06,0,0,1,0,1.51l0,0-14.93,14.93a1.06,1.06,0,0,1-1.49,0l-14.93-14.93a1.07,1.07,0,0,1,0-1.51Z"/><path class="cls-4" d="M130.4,98l-3.77-3.75a.23.23,0,0,0-.29,0L122.58,98a.17.17,0,0,0,0,.25.18.18,0,0,0,.19.07h2.2a.2.2,0,0,1,.2.19h0v3.56a.19.19,0,0,0,.19.19h2.35a.19.19,0,0,0,.2-.19h0V98.52a.19.19,0,0,1,.19-.19h2.21a.18.18,0,0,0,.21-.13.18.18,0,0,0-.07-.19Z"/><path class="cls-4" d="M117.6,102.65l-3.73,3.78a.2.2,0,0,0,0,.27l3.73,3.75a.2.2,0,0,0,.34-.14v-2.19a.18.18,0,0,1,.19-.19h3.56a.18.18,0,0,0,.18-.18s0,0,0,0v-2.35a.16.16,0,0,0-.06-.24l-.06,0h-3.55a.18.18,0,0,1-.2-.16v-2.17a.22.22,0,0,0-.12-.27.21.21,0,0,0-.27.13Z"/><path class="cls-4" d="M135.52,110.45l3.78-3.77a.19.19,0,0,0,0-.26l-3.78-3.77a.2.2,0,0,0-.28,0,.19.19,0,0,0,0,.12V105a.18.18,0,0,1-.18.18h-3.57a.18.18,0,0,0-.18.18v2.36a.18.18,0,0,0,.16.2H135a.19.19,0,0,1,.2.19v2.21a.2.2,0,0,0,.21.17A.22.22,0,0,0,135.52,110.45Z"/><path class="cls-1" d="M131.45,106.9a5,5,0,1,0-6.3,4.74v1.69a3,3,0,1,0,2.79,0v-1.78A4.93,4.93,0,0,0,131.45,106.9Z"/><circle id="e99c3387-15c3-4f28-bd4b-cb209b430e06" class="cls-5" cx="126.5" cy="106.88" r="2.88"/><rect class="cls-6" x="4.02" y="92.17" width="45.01" height="28.04"/><path class="cls-7" d="M13.86,96.72H38.42a.75.75,0,0,1,.78.71v17.06a.75.75,0,0,1-.78.71H13.86a.76.76,0,0,1-.79-.71v-17a.76.76,0,0,1,.79-.74Z"/><path id="bd0aa3dd-0b00-4321-a08d-35d4016600a8" class="cls-1" d="M23.92,98.91H35.65a.23.23,0,0,1,.23.21v6.48a.23.23,0,0,1-.23.22H23.92a.23.23,0,0,1-.23-.22V99.11A.23.23,0,0,1,23.92,98.91Z"/><rect id="bda038fc-05f8-4c73-8191-dcc998cc8c65" class="cls-1" x="16.31" y="98.89" width="4.94" height="13.93" rx="0.22"/><path id="f698805f-4654-42cb-b2bf-38f0a925cdbf" class="cls-1" d="M31.06,107.78h4.55a.21.21,0,0,1,.21.22v4.62a.21.21,0,0,1-.21.2H31.06a.22.22,0,0,1-.22-.2V108a.22.22,0,0,1,.22-.22Z"/><path id="f83fd769-9efd-4d02-bd0d-a012d7e875a2" class="cls-1" d="M23.85,107.78h4.42a.22.22,0,0,1,.22.22h0v4.62a.2.2,0,0,1-.2.2H23.92a.21.21,0,0,1-.21-.21V108A.21.21,0,0,1,23.85,107.78Z"/><path class="cls-8" d="M4.59,93.8a1,1,0,0,1,1-1H46.68a1,1,0,0,1,1,1h0v24.3a1,1,0,0,1-1,1H5.59a1,1,0,0,1-1-1h0ZM2.32,92.63v26.59a2.15,2.15,0,0,0,2.15,2.15H47.8A2.15,2.15,0,0,0,50,119.22h0V92.63a2.15,2.15,0,0,0-2.15-2.15H4.47a2.15,2.15,0,0,0-2.15,2.15Z"/><path class="cls-9" d="M.57,123.66H51.7a.57.57,0,0,1,.57.57h0v1.68a.58.58,0,0,1-.57.57H.57a.58.58,0,0,1-.57-.57H0v-1.68a.56.56,0,0,1,.57-.57Z"/><path class="cls-10" d="M20.3,124.66H32a.16.16,0,0,1,.16.17h0v.48a.17.17,0,0,1-.16.17H20.3a.17.17,0,0,1-.16-.17h0v-.48a.16.16,0,0,1,.16-.17Z"/><line class="cls-11" x1="115.49" y1="94.07" x2="58.17" y2="94.07"/><line class="cls-11" x1="105.49" y1="105.98" x2="58.17" y2="105.98"/><line class="cls-11" x1="230.49" y1="105.98" x2="147.17" y2="105.98"/><line class="cls-11" x1="115.49" y1="117.9" x2="58.17" y2="117.9"/><rect class="cls-12" x="235.49" y="42.9" width="28.14" height="18.76" rx="0.94"/><polygon class="cls-13" points="254.25 49.54 254.25 55 249.56 57.75 249.56 52.28 254.25 49.54"/><polygon class="cls-14" points="254.25 49.54 249.56 52.29 244.87 49.54 249.56 46.8 254.25 49.54"/><polygon class="cls-15" points="249.56 52.29 249.56 57.75 244.87 55 244.87 49.54 249.56 52.29"/><polygon class="cls-14" points="244.87 55 249.56 52.28 249.56 57.75 244.87 55"/><polygon class="cls-15" points="254.25 55 249.56 52.28 249.56 57.75 254.25 55"/><path class="cls-16" d="M255.2,67.33c-2.78-.43-2.89-2.44-2.89-5.67h-5.52c0,3.23-.09,5.24-2.88,5.67a1.58,1.58,0,0,0-1.39,1.57h14.07A1.56,1.56,0,0,0,255.2,67.33Z"/><rect class="cls-17" x="235.49" y="96.9" width="28.14" height="18.76" rx="0.94"/><polygon class="cls-13" points="254.25 103.54 254.25 109 249.56 111.75 249.56 106.28 254.25 103.54"/><polygon class="cls-14" points="254.25 103.54 249.56 106.29 244.87 103.54 249.56 100.81 254.25 103.54"/><polygon class="cls-15" points="249.56 106.29 249.56 111.75 244.87 109 244.87 103.54 249.56 106.29"/><polygon class="cls-14" points="244.87 109 249.56 106.28 249.56 111.75 244.87 109"/><polygon class="cls-15" points="254.25 109 249.56 106.28 249.56 111.75 254.25 109"/><path class="cls-18" d="M255.2,121.33c-2.78-.43-2.89-2.44-2.89-5.67h-5.52c0,3.23-.09,5.24-2.88,5.67a1.58,1.58,0,0,0-1.39,1.57h14.07A1.56,1.56,0,0,0,255.2,121.33Z"/><rect class="cls-19" x="235.49" y="155.4" width="28.14" height="18.76" rx="0.94"/><polygon class="cls-13" points="254.25 162.04 254.25 167.5 249.56 170.25 249.56 164.78 254.25 162.04"/><polygon class="cls-14" points="254.25 162.04 249.56 164.79 244.87 162.04 249.56 159.31 254.25 162.04"/><polygon class="cls-15" points="249.56 164.79 249.56 170.25 244.87 167.5 244.87 162.04 249.56 164.79"/><polygon class="cls-14" points="244.87 167.5 249.56 164.78 249.56 170.25 244.87 167.5"/><polygon class="cls-15" points="254.25 167.5 249.56 164.78 249.56 170.25 254.25 167.5"/><path class="cls-20" d="M255.2,179.83c-2.78-.43-2.89-2.44-2.89-5.67h-5.52c0,3.23-.09,5.24-2.88,5.67a1.58,1.58,0,0,0-1.39,1.57h14.07A1.56,1.56,0,0,0,255.2,179.83Z"/><path class="cls-21" d="M235.69,15a6.84,6.84,0,0,0-5.85-6.66A8.56,8.56,0,0,0,221.09,0a8.76,8.76,0,0,0-8.33,5.79,8.12,8.12,0,0,0-7.07,8,8.24,8.24,0,0,0,8.45,8h14.79A6.89,6.89,0,0,0,235.69,15Z"/><circle class="cls-22" cx="214.43" cy="13.5" r="1.18"/><path class="cls-1" d="M218.59,14V13h-.13l-1-.33-.26-.65.51-1.1-.66-.67h-.14l-.95.5-.65-.26-.41-1.15h-.95v.13l-.34,1-.7.26-1.08-.51-.67.66V11l.49,1-.27.65-1.17.41v1h.14l1,.33.27.65-.52,1.1.67.67h.13l1-.49.65.27.42,1.15h1v-.13l.33-1,.65-.27,1.1.52.67-.67v-.13l-.48-1,.26-.65Zm-4.16,1.39a1.82,1.82,0,1,1,1.83-1.8,1.81,1.81,0,0,1-1.83,1.8Z"/><circle class="cls-22" cx="222.36" cy="8.4" r="1.4"/><path class="cls-1" d="M227.36,8.94V7.8h-.15L226,7.42l-.29-.85.62-1.33-.8-.8h-.15L224.21,5l-.77-.32-.5-1.38h-1.18v.17l-.4,1.21-.78.32-1.3-.62-.8.8.08.15L219,6.59l-.27.83-1.4.45V9.09h.17l1.21.4.29.75-.62,1.33.83.85.17-.08,1.13-.59.79.32.5,1.38H223v-.16l.4-1.22.78-.32,1.32.62.8-.8-.08-.15-.49-1.2.32-.78Zm-5,1.66a2.2,2.2,0,1,1,2.2-2.2h0a2.18,2.18,0,0,1-2.17,2.2Z"/><path class="cls-11" d="M230.49,52.9H210.83A8.31,8.31,0,0,0,205.71,55L169,91.94a8.24,8.24,0,0,1-5.11,2.13H138.17"/><path class="cls-11" d="M138.17,117.9h25.71a7.47,7.47,0,0,1,5,2.26l37,42.65a7.49,7.49,0,0,0,5,2.26h19.66"/><path class="cls-23" d="M93.44,152.59a1.45,1.45,0,0,1-1-.43,1.36,1.36,0,0,1-.44-1,1.5,1.5,0,0,1,1.49-1.48,1.36,1.36,0,0,1,1,.44,1.4,1.4,0,0,1,.43,1,1.46,1.46,0,0,1-1.45,1.47Z"/><path class="cls-23" d="M93.44,165.79a1.45,1.45,0,0,1-1-.43,1.36,1.36,0,0,1-.44-1,1.5,1.5,0,0,1,1.49-1.48,1.38,1.38,0,0,1,1,.43,1.44,1.44,0,0,1,.43,1,1.46,1.46,0,0,1-1.45,1.47Z"/><path class="cls-23" d="M93.44,179a1.45,1.45,0,0,1-1-.43,1.36,1.36,0,0,1-.44-1A1.5,1.5,0,0,1,93.44,176a1.38,1.38,0,0,1,1,.43,1.44,1.44,0,0,1,.43,1.05A1.46,1.46,0,0,1,93.45,179Z"/><path class="cls-23" d="M93.44,192.19a1.45,1.45,0,0,1-1-.43,1.36,1.36,0,0,1-.44-1,1.5,1.5,0,0,1,1.49-1.48,1.38,1.38,0,0,1,1,.43,1.44,1.44,0,0,1,.43,1.05,1.46,1.46,0,0,1-1.45,1.47Z"/><path class="cls-23" d="M93.44,205.39a1.45,1.45,0,0,1-1-.43,1.36,1.36,0,0,1-.44-1,1.5,1.5,0,0,1,1.49-1.48,1.38,1.38,0,0,1,1,.43,1.44,1.44,0,0,1,.43,1,1.46,1.46,0,0,1-1.45,1.47Z"/></g><path class="cls-23" d="M98.27,141.78h-1V138H92.94v3.83H92v-8.4h1v3.68h4.35v-3.68h1Z"/><path class="cls-23" d="M104.64,141.78h-1v-.94h0a2.2,2.2,0,0,1-3.25.61,1.65,1.65,0,0,1-.51-1.26c0-1.13.66-1.78,2-2l1.8-.25q0-1.53-1.23-1.53a2.91,2.91,0,0,0-2,.74v-1a3.76,3.76,0,0,1,2-.56c1.41,0,2.11.74,2.11,2.24Zm-1-3-1.44.2a2.53,2.53,0,0,0-1,.33,1,1,0,0,0-.34.85.89.89,0,0,0,.31.71,1.2,1.2,0,0,0,.84.28,1.56,1.56,0,0,0,1.18-.5,1.79,1.79,0,0,0,.46-1.27Z"/><path class="cls-23" d="M106.09,141.56v-1a2.82,2.82,0,0,0,1.73.58c.84,0,1.27-.28,1.27-.84a.76.76,0,0,0-.11-.41,1.22,1.22,0,0,0-.3-.3,2.44,2.44,0,0,0-.43-.23l-.54-.21c-.26-.11-.49-.21-.7-.32a2.47,2.47,0,0,1-.5-.36,1.35,1.35,0,0,1-.3-.46,1.66,1.66,0,0,1-.11-.61,1.39,1.39,0,0,1,.2-.74,1.78,1.78,0,0,1,.51-.55,2.26,2.26,0,0,1,.74-.33,3.56,3.56,0,0,1,2.24.16v1a2.68,2.68,0,0,0-1.52-.43,1.88,1.88,0,0,0-.49.06,1.4,1.4,0,0,0-.37.17.88.88,0,0,0-.24.27.77.77,0,0,0-.08.34.87.87,0,0,0,.08.39.83.83,0,0,0,.25.28,1.68,1.68,0,0,0,.4.23l.53.21c.27.11.51.21.72.32a2.82,2.82,0,0,1,.54.36,1.41,1.41,0,0,1,.34.47,1.46,1.46,0,0,1,.12.62,1.51,1.51,0,0,1-.2.78,1.58,1.58,0,0,1-.52.54,2.26,2.26,0,0,1-.76.32,3.68,3.68,0,0,1-.89.11A3.39,3.39,0,0,1,106.09,141.56Z"/><path class="cls-23" d="M114.33,141.72a1.82,1.82,0,0,1-.9.19c-1.05,0-1.57-.59-1.57-1.76V136.6h-1v-.82h1v-1.47l1-.31v1.78h1.51v.82h-1.51V140a1.45,1.45,0,0,0,.2.86.84.84,0,0,0,.68.26,1.05,1.05,0,0,0,.63-.2Z"/><path class="cls-23" d="M124,144.54h-1v-3.79h0a2.15,2.15,0,0,1-2.05,1.17,2.26,2.26,0,0,1-1.82-.81,3.28,3.28,0,0,1-.68-2.19,3.6,3.6,0,0,1,.75-2.39,2.51,2.51,0,0,1,2-.89,1.89,1.89,0,0,1,1.78,1h0v-.83h1Zm-1-5.46v-.87a1.74,1.74,0,0,0-.48-1.25,1.76,1.76,0,0,0-2.6.13,2.85,2.85,0,0,0-.51,1.81,2.49,2.49,0,0,0,.49,1.62,1.52,1.52,0,0,0,1.25.59,1.67,1.67,0,0,0,1.35-.58A2.15,2.15,0,0,0,123.06,139.08Z"/><path class="cls-23" d="M130.82,141.78h-1v-.95h0a2,2,0,0,1-1.85,1.09c-1.43,0-2.14-.85-2.14-2.55v-3.59h1v3.43c0,1.27.49,1.9,1.46,1.9a1.45,1.45,0,0,0,1.15-.52,1.94,1.94,0,0,0,.46-1.35v-3.46h1Z"/><path class="cls-23" d="M133.25,134.26a.6.6,0,0,1-.44-.18.61.61,0,0,1-.18-.45.61.61,0,0,1,.62-.62.63.63,0,0,1,.45.18.6.6,0,0,1,.18.44.59.59,0,0,1-.18.44A.6.6,0,0,1,133.25,134.26Zm.47,7.52h-1v-6h1Z"/><path class="cls-23" d="M140.64,141.78h-1v-3.42c0-1.28-.46-1.91-1.39-1.91a1.5,1.5,0,0,0-1.19.54,2,2,0,0,0-.48,1.37v3.42h-1v-6h1v1h0a2.16,2.16,0,0,1,2-1.14,1.84,1.84,0,0,1,1.5.63,2.84,2.84,0,0,1,.52,1.84Z"/><path class="cls-23" d="M145.24,141.72a1.82,1.82,0,0,1-.9.19c-1.05,0-1.57-.59-1.57-1.76V136.6h-1v-.82h1v-1.47l1-.31v1.78h1.51v.82h-1.51V140a1.38,1.38,0,0,0,.2.86.83.83,0,0,0,.68.26,1.05,1.05,0,0,0,.63-.2Z"/><path class="cls-23" d="M151.37,141.78h-1v-.95h0a2,2,0,0,1-1.85,1.09c-1.43,0-2.15-.85-2.15-2.55v-3.59h1v3.43c0,1.27.48,1.9,1.45,1.9a1.47,1.47,0,0,0,1.16-.52,2,2,0,0,0,.45-1.35v-3.46h1Z"/><path class="cls-23" d="M154.3,140.91h0v3.63h-1v-8.76h1v1.05h0a2.27,2.27,0,0,1,2.07-1.19,2.21,2.21,0,0,1,1.81.8,3.37,3.37,0,0,1,.65,2.16,3.69,3.69,0,0,1-.73,2.41,2.43,2.43,0,0,1-2,.91A2,2,0,0,1,154.3,140.91Zm0-2.42v.84a1.73,1.73,0,0,0,.49,1.26,1.71,1.71,0,0,0,2.59-.15,3,3,0,0,0,.5-1.85,2.39,2.39,0,0,0-.47-1.57,1.51,1.51,0,0,0-1.25-.57,1.7,1.7,0,0,0-1.35.58A2.15,2.15,0,0,0,154.27,138.49Z"/><path class="cls-23" d="M161.33,141.78h-1V132.9h1Z"/><path class="cls-23" d="M165.78,141.92a2.77,2.77,0,0,1-2.12-.84,3.11,3.11,0,0,1-.8-2.23,3.23,3.23,0,0,1,.83-2.36,3,3,0,0,1,2.23-.85,2.71,2.71,0,0,1,2.1.82,3.32,3.32,0,0,1,.75,2.3,3.25,3.25,0,0,1-.81,2.3A2.87,2.87,0,0,1,165.78,141.92Zm.07-5.47a1.81,1.81,0,0,0-1.46.63,2.58,2.58,0,0,0-.54,1.73,2.47,2.47,0,0,0,.54,1.69,1.86,1.86,0,0,0,1.46.61,1.75,1.75,0,0,0,1.43-.6,3.17,3.17,0,0,0,0-3.45A1.73,1.73,0,0,0,165.85,136.45Z"/><path class="cls-23" d="M104.59,155h-1v-8.4h1Z"/><path class="cls-23" d="M107.79,151.8V155h-1v-8.4h2.31a3,3,0,0,1,2.09.65,2.37,2.37,0,0,1,.74,1.85,2.54,2.54,0,0,1-.82,2,3.14,3.14,0,0,1-2.23.76Zm0-4.33v3.44h1a2.28,2.28,0,0,0,1.55-.46,1.65,1.65,0,0,0,.54-1.32c0-1.11-.66-1.66-2-1.66Z"/><path class="cls-23" d="M121.8,155h-1v-1h0a2.42,2.42,0,0,1-3.87.35,3.3,3.3,0,0,1-.68-2.19,3.62,3.62,0,0,1,.75-2.39,2.5,2.5,0,0,1,2-.89,1.93,1.93,0,0,1,1.8,1h0V146.1h1Zm-1-2.71v-.89a1.73,1.73,0,0,0-.48-1.23,1.6,1.6,0,0,0-1.22-.5,1.65,1.65,0,0,0-1.38.64,2.79,2.79,0,0,0-.51,1.78,2.56,2.56,0,0,0,.49,1.64,1.57,1.57,0,0,0,1.3.6,1.63,1.63,0,0,0,1.3-.58A2.17,2.17,0,0,0,120.84,152.27Z"/><path class="cls-23" d="M124.24,147.46a.6.6,0,0,1-.44-.18.61.61,0,0,1-.18-.45.57.57,0,0,1,.18-.44.6.6,0,0,1,.44-.18.64.64,0,0,1,.45.18.57.57,0,0,1,.18.44.59.59,0,0,1-.18.44A.65.65,0,0,1,124.24,147.46Zm.47,7.52h-1v-6h1Z"/><path class="cls-23" d="M132.45,155.12a2.79,2.79,0,0,1-2.13-.84,3.12,3.12,0,0,1-.79-2.23,3.23,3.23,0,0,1,.83-2.36,3,3,0,0,1,2.23-.85,2.68,2.68,0,0,1,2.09.82,3.26,3.26,0,0,1,.76,2.3,3.17,3.17,0,0,1-.82,2.29A2.82,2.82,0,0,1,132.45,155.12Zm.07-5.47a1.84,1.84,0,0,0-1.47.63,2.58,2.58,0,0,0-.54,1.73,2.49,2.49,0,0,0,.55,1.69,1.85,1.85,0,0,0,1.46.61,1.75,1.75,0,0,0,1.43-.6,3.23,3.23,0,0,0,0-3.45A1.73,1.73,0,0,0,132.52,149.65Z"/><path class="cls-23" d="M140.1,150a1.18,1.18,0,0,0-.73-.19,1.2,1.2,0,0,0-1,.58,2.62,2.62,0,0,0-.42,1.58V155h-1v-6h1v1.23h0a2,2,0,0,1,.62-1,1.43,1.43,0,0,1,.95-.36,1.41,1.41,0,0,1,.57.09Z"/><path class="cls-23" d="M141.64,147.46a.63.63,0,0,1-.63-.63.55.55,0,0,1,.19-.44.59.59,0,0,1,.44-.18.6.6,0,0,1,.44.18.55.55,0,0,1,.19.44.56.56,0,0,1-.19.44A.61.61,0,0,1,141.64,147.46Zm.46,7.52h-1v-6h1Z"/><path class="cls-23" d="M149.17,154.5q0,3.3-3.16,3.3a4.28,4.28,0,0,1-1.95-.42v-1A4.06,4.06,0,0,0,146,157c1.48,0,2.22-.78,2.22-2.35V154h0a2.43,2.43,0,0,1-3.87.35,3.22,3.22,0,0,1-.68-2.15,3.73,3.73,0,0,1,.73-2.43,2.48,2.48,0,0,1,2-.9,2,2,0,0,1,1.8,1h0V149h1Zm-1-2.23v-.89a1.71,1.71,0,0,0-.48-1.22,1.62,1.62,0,0,0-1.21-.51,1.66,1.66,0,0,0-1.39.64,2.9,2.9,0,0,0-.51,1.82,2.43,2.43,0,0,0,.49,1.6,1.56,1.56,0,0,0,1.28.6,1.67,1.67,0,0,0,1.31-.57A2.16,2.16,0,0,0,148.21,152.27Z"/><path class="cls-23" d="M151.61,147.46a.6.6,0,0,1-.44-.18.61.61,0,0,1-.18-.45.57.57,0,0,1,.18-.44.6.6,0,0,1,.44-.18.64.64,0,0,1,.45.18.57.57,0,0,1,.18.44.59.59,0,0,1-.18.44A.65.65,0,0,1,151.61,147.46Zm.47,7.52h-1v-6h1Z"/><path class="cls-23" d="M159,155h-1v-3.42c0-1.28-.46-1.91-1.39-1.91a1.54,1.54,0,0,0-1.2.54,2,2,0,0,0-.47,1.37V155h-1v-6h1v1h0a2.17,2.17,0,0,1,2-1.13,1.84,1.84,0,0,1,1.5.63,2.84,2.84,0,0,1,.52,1.84Z"/><path class="cls-23" d="M165.63,152.22H161.4a2.21,2.21,0,0,0,.54,1.55,1.85,1.85,0,0,0,1.42.54,2.93,2.93,0,0,0,1.86-.67v.9a3.45,3.45,0,0,1-2.09.58,2.52,2.52,0,0,1-2-.82,3.36,3.36,0,0,1-.73-2.3,3.29,3.29,0,0,1,.8-2.28,2.53,2.53,0,0,1,2-.88,2.25,2.25,0,0,1,1.82.76,3.17,3.17,0,0,1,.64,2.11Zm-1-.82a2,2,0,0,0-.4-1.29,1.36,1.36,0,0,0-1.1-.46,1.55,1.55,0,0,0-1.15.48,2.19,2.19,0,0,0-.59,1.27Z"/><path class="cls-23" d="M104.59,165v3.18h-1v-8.4h2.31a3.11,3.11,0,0,1,2.09.65,2.37,2.37,0,0,1,.74,1.86,2.55,2.55,0,0,1-.83,2,3.13,3.13,0,0,1-2.22.76Zm0-4.33v3.44h1a2.32,2.32,0,0,0,1.56-.46,1.65,1.65,0,0,0,.54-1.32c0-1.11-.66-1.66-2-1.66Z"/><path class="cls-23" d="M112.26,168.32a2.79,2.79,0,0,1-2.12-.84,3.11,3.11,0,0,1-.8-2.23,3.25,3.25,0,0,1,.83-2.36,3,3,0,0,1,2.23-.85,2.66,2.66,0,0,1,2.1.83,3.77,3.77,0,0,1-.06,4.59A2.87,2.87,0,0,1,112.26,168.32Zm.07-5.47a1.83,1.83,0,0,0-1.46.63,2.58,2.58,0,0,0-.54,1.73,2.47,2.47,0,0,0,.54,1.69,1.86,1.86,0,0,0,1.46.61,1.79,1.79,0,0,0,1.44-.6,3.23,3.23,0,0,0,0-3.45A1.76,1.76,0,0,0,112.33,162.85Z"/><path class="cls-23" d="M119.91,163.15a1.14,1.14,0,0,0-.72-.19,1.23,1.23,0,0,0-1,.58,2.64,2.64,0,0,0-.41,1.58v3.06h-1v-6h1v1.24h0a2.12,2.12,0,0,1,.63-1,1.54,1.54,0,0,1,1.51-.27Z"/><path class="cls-23" d="M123.74,168.12a1.8,1.8,0,0,1-.9.19c-1,0-1.57-.59-1.57-1.76V163h-1v-.82h1v-1.47l1-.31v1.78h1.51V163h-1.51v3.38a1.45,1.45,0,0,0,.2.86.84.84,0,0,0,.68.26,1,1,0,0,0,.63-.2Z"/><path class="cls-23" d="M129.32,168.18h-1v-.94h0a2,2,0,0,1-1.84,1.08,2,2,0,0,1-1.4-.47,1.65,1.65,0,0,1-.51-1.26c0-1.13.66-1.78,2-2l1.8-.25c0-1-.41-1.53-1.24-1.53a2.94,2.94,0,0,0-2,.74v-1a3.76,3.76,0,0,1,2-.56c1.41,0,2.12.75,2.12,2.24Zm-1-3-1.45.2a2.65,2.65,0,0,0-1,.33,1,1,0,0,0-.34.85.9.9,0,0,0,.32.71,1.18,1.18,0,0,0,.83.28,1.55,1.55,0,0,0,1.18-.5,1.8,1.8,0,0,0,.47-1.27Z"/><path class="cls-23" d="M139.54,168.18h-1v-1h0a2.21,2.21,0,0,1-2.06,1.16,2.24,2.24,0,0,1-1.81-.81,3.28,3.28,0,0,1-.67-2.19,3.57,3.57,0,0,1,.75-2.38,2.46,2.46,0,0,1,2-.9,1.91,1.91,0,0,1,1.8,1h0V159.3h1Zm-1-2.71v-.89a1.73,1.73,0,0,0-.48-1.23,1.64,1.64,0,0,0-1.22-.5,1.67,1.67,0,0,0-1.39.64,2.87,2.87,0,0,0-.5,1.78,2.56,2.56,0,0,0,.48,1.64,1.6,1.6,0,0,0,1.3.6,1.65,1.65,0,0,0,1.31-.58A2.17,2.17,0,0,0,138.58,165.47Z"/><path class="cls-23" d="M142,160.66a.59.59,0,0,1-.44-.18.58.58,0,0,1-.19-.44.63.63,0,0,1,.63-.63.6.6,0,0,1,.44.18.58.58,0,0,1,.19.45.56.56,0,0,1-.19.43A.58.58,0,0,1,142,160.66Zm.46,7.52h-1v-6h1Z"/><path class="cls-23" d="M150.18,168.32a2.79,2.79,0,0,1-2.12-.84,3.1,3.1,0,0,1-.79-2.23,3.24,3.24,0,0,1,.82-2.36,3,3,0,0,1,2.23-.85,2.66,2.66,0,0,1,2.1.83,3.77,3.77,0,0,1-.06,4.59A2.87,2.87,0,0,1,150.18,168.32Zm.07-5.47a1.83,1.83,0,0,0-1.46.63,2.58,2.58,0,0,0-.54,1.73,2.42,2.42,0,0,0,.55,1.69,1.84,1.84,0,0,0,1.45.61,1.77,1.77,0,0,0,1.44-.6,3.23,3.23,0,0,0,0-3.45A1.75,1.75,0,0,0,150.25,162.85Z"/><path class="cls-23" d="M157.84,163.15a1.18,1.18,0,0,0-.73-.19,1.23,1.23,0,0,0-1,.58,2.72,2.72,0,0,0-.41,1.58v3.06h-1v-6h1v1.24h0a2.12,2.12,0,0,1,.63-1,1.4,1.4,0,0,1,.94-.36,1.5,1.5,0,0,1,.58.09Z"/><path class="cls-23" d="M159.37,160.66a.61.61,0,0,1-.62-.62.61.61,0,0,1,.18-.45.6.6,0,0,1,.44-.18.62.62,0,0,1,.63.63.63.63,0,0,1-.63.62Zm.47,7.52h-1v-6h1Z"/><path class="cls-23" d="M166.91,167.7q0,3.3-3.17,3.3a4.23,4.23,0,0,1-1.94-.42v-1a3.92,3.92,0,0,0,1.93.56c1.48,0,2.22-.78,2.22-2.35v-.66h0a2.42,2.42,0,0,1-3.86.35,3.17,3.17,0,0,1-.68-2.15,3.73,3.73,0,0,1,.73-2.43,2.46,2.46,0,0,1,2-.9,2,2,0,0,1,1.8,1h0v-.83h1Zm-1-2.23v-.89a1.73,1.73,0,0,0-.49-1.22,1.58,1.58,0,0,0-1.2-.51,1.66,1.66,0,0,0-1.4.65,2.91,2.91,0,0,0-.5,1.81,2.48,2.48,0,0,0,.48,1.6,1.57,1.57,0,0,0,1.28.6,1.69,1.69,0,0,0,1.32-.57A2.16,2.16,0,0,0,166,165.47Z"/><path class="cls-23" d="M169.34,160.66a.62.62,0,0,1-.44-.18.6.6,0,0,1-.18-.44.61.61,0,0,1,.18-.45.62.62,0,0,1,.44-.18.61.61,0,0,1,.45.18.58.58,0,0,1,.19.45.56.56,0,0,1-.19.43A.58.58,0,0,1,169.34,160.66Zm.47,7.52h-1v-6h1Z"/><path class="cls-23" d="M176.74,168.18h-1v-3.42c0-1.28-.47-1.91-1.4-1.91a1.5,1.5,0,0,0-1.19.54,2,2,0,0,0-.47,1.37v3.42h-1v-6h1v1h0a2.17,2.17,0,0,1,2-1.14,1.85,1.85,0,0,1,1.51.63,2.9,2.9,0,0,1,.52,1.84Z"/><path class="cls-23" d="M183.37,165.42h-4.24a2.3,2.3,0,0,0,.54,1.55,1.88,1.88,0,0,0,1.42.54,2.94,2.94,0,0,0,1.87-.67v.91a3.53,3.53,0,0,1-2.1.57,2.51,2.51,0,0,1-2-.82,3.83,3.83,0,0,1,.06-4.58,2.54,2.54,0,0,1,2-.88,2.26,2.26,0,0,1,1.83.76,3.18,3.18,0,0,1,.64,2.12Zm-1-.81a2,2,0,0,0-.4-1.3,1.37,1.37,0,0,0-1.1-.46,1.57,1.57,0,0,0-1.16.48,2.24,2.24,0,0,0-.58,1.28Z"/><path class="cls-23" d="M104.59,181.38h-1V173h1Z"/><path class="cls-23" d="M107.79,178.21v3.17h-1V173h2.31a3,3,0,0,1,2.09.66,2.35,2.35,0,0,1,.74,1.85,2.54,2.54,0,0,1-.82,2,3.14,3.14,0,0,1-2.23.76Zm0-4.34v3.45h1a2.28,2.28,0,0,0,1.55-.47,1.64,1.64,0,0,0,.54-1.31c0-1.11-.66-1.67-2-1.67Z"/><path class="cls-23" d="M121.8,181.38h-1v-1h0a2.42,2.42,0,0,1-3.87.35,3.32,3.32,0,0,1-.68-2.19,3.6,3.6,0,0,1,.75-2.39,2.48,2.48,0,0,1,2-.9,1.94,1.94,0,0,1,1.8,1h0V172.5h1Zm-1-2.71v-.88a1.7,1.7,0,0,0-.48-1.23,1.61,1.61,0,0,0-1.22-.51,1.66,1.66,0,0,0-1.38.65,2.79,2.79,0,0,0-.51,1.78,2.56,2.56,0,0,0,.49,1.64,1.57,1.57,0,0,0,1.3.6,1.66,1.66,0,0,0,1.3-.58A2.2,2.2,0,0,0,120.84,178.67Z"/><path class="cls-23" d="M124.24,173.86a.64.64,0,0,1-.44-.17.65.65,0,0,1,0-.9.6.6,0,0,1,.44-.18.64.64,0,0,1,.45.18.61.61,0,0,1,.18.45.6.6,0,0,1-.18.44A.64.64,0,0,1,124.24,173.86Zm.47,7.52h-1v-6h1Z"/><path class="cls-23" d="M135.06,181.38h-1v-1h0a2.42,2.42,0,0,1-3.87.35,3.32,3.32,0,0,1-.68-2.19,3.6,3.6,0,0,1,.75-2.39,2.48,2.48,0,0,1,2-.9,1.94,1.94,0,0,1,1.8,1h0V172.5h1Zm-1-2.71v-.88a1.7,1.7,0,0,0-.48-1.23,1.61,1.61,0,0,0-1.22-.51,1.64,1.64,0,0,0-1.38.65,2.79,2.79,0,0,0-.51,1.78,2.56,2.56,0,0,0,.49,1.64,1.57,1.57,0,0,0,1.3.6,1.66,1.66,0,0,0,1.3-.58A2.2,2.2,0,0,0,134.1,178.67Z"/><path class="cls-23" d="M141.83,178.63h-4.24a2.27,2.27,0,0,0,.54,1.54,1.85,1.85,0,0,0,1.42.55,3,3,0,0,0,1.86-.67v.9a3.48,3.48,0,0,1-2.09.58,2.56,2.56,0,0,1-2-.82,3.37,3.37,0,0,1-.72-2.3,3.25,3.25,0,0,1,.79-2.28,2.55,2.55,0,0,1,2-.89,2.24,2.24,0,0,1,1.82.77,3.15,3.15,0,0,1,.65,2.11Zm-1-.82a1.88,1.88,0,0,0-.4-1.29,1.36,1.36,0,0,0-1.1-.47,1.54,1.54,0,0,0-1.15.49,2.22,2.22,0,0,0-.59,1.27Z"/><path class="cls-23" d="M142.92,181.17v-1a2.88,2.88,0,0,0,1.73.58c.84,0,1.26-.28,1.26-.85a.65.65,0,0,0-.11-.4,1,1,0,0,0-.29-.3,2.18,2.18,0,0,0-.43-.23l-.54-.22c-.26-.1-.5-.21-.7-.31a2,2,0,0,1-.5-.37,1.29,1.29,0,0,1-.31-.46,1.57,1.57,0,0,1-.1-.6,1.44,1.44,0,0,1,.19-.75,1.58,1.58,0,0,1,.52-.54,2.21,2.21,0,0,1,.73-.33,3.08,3.08,0,0,1,.86-.12,3.41,3.41,0,0,1,1.39.27v1a2.71,2.71,0,0,0-1.52-.44,1.88,1.88,0,0,0-.49.06,1.28,1.28,0,0,0-.37.18.85.85,0,0,0-.24.26.7.7,0,0,0-.09.35.8.8,0,0,0,.09.39.94.94,0,0,0,.25.28,1.67,1.67,0,0,0,.4.22l.53.22c.27.1.5.21.72.31a2.16,2.16,0,0,1,.53.37,1.41,1.41,0,0,1,.35.46,1.54,1.54,0,0,1,.12.63,1.47,1.47,0,0,1-.2.77,1.7,1.7,0,0,1-.52.55,2.49,2.49,0,0,1-.76.32,3.7,3.7,0,0,1-.9.11A3.37,3.37,0,0,1,142.92,181.17Z"/><path class="cls-23" d="M151.16,181.33a2,2,0,0,1-.9.18c-1,0-1.58-.58-1.58-1.75v-3.55h-1v-.83h1v-1.46l1-.31v1.77h1.51v.83h-1.51v3.38a1.38,1.38,0,0,0,.2.86.83.83,0,0,0,.68.26,1.05,1.05,0,0,0,.63-.2Z"/><path class="cls-23" d="M152.93,173.86a.64.64,0,0,1-.44-.17.65.65,0,0,1,0-.9.6.6,0,0,1,.44-.18.62.62,0,0,1,.63.63.6.6,0,0,1-.18.44A.61.61,0,0,1,152.93,173.86Zm.47,7.52h-1v-6h1Z"/><path class="cls-23" d="M160.33,181.38h-1V178c0-1.27-.47-1.91-1.4-1.91a1.5,1.5,0,0,0-1.19.54,2,2,0,0,0-.47,1.37v3.42h-1v-6h1v1h0a2.16,2.16,0,0,1,2-1.14,1.86,1.86,0,0,1,1.51.64,2.88,2.88,0,0,1,.52,1.84Z"/><path class="cls-23" d="M166.43,181.38h-1v-.93h0a2,2,0,0,1-1.85,1.08,2,2,0,0,1-1.4-.48,1.65,1.65,0,0,1-.51-1.26c0-1.12.66-1.77,2-2l1.8-.25c0-1-.41-1.53-1.24-1.53a3,3,0,0,0-1.95.74v-1a3.68,3.68,0,0,1,2-.57c1.41,0,2.11.75,2.11,2.24Zm-1-3-1.45.2a2.25,2.25,0,0,0-1,.33,1,1,0,0,0-.34.84.92.92,0,0,0,.31.72,1.24,1.24,0,0,0,.83.28,1.55,1.55,0,0,0,1.18-.5,1.77,1.77,0,0,0,.47-1.27Z"/><path class="cls-23" d="M172.43,175.66l-3.55,4.9h3.51v.82h-4.93v-.29l3.55-4.88H167.8v-.83h4.63Z"/><path class="cls-23" d="M174.16,173.86a.64.64,0,0,1-.44-.17.65.65,0,0,1,0-.9.6.6,0,0,1,.44-.18.62.62,0,0,1,.63.63.6.6,0,0,1-.18.44A.61.61,0,0,1,174.16,173.86Zm.47,7.52h-1v-6h1Z"/><path class="cls-23" d="M179.08,181.53a2.76,2.76,0,0,1-2.12-.85,3.1,3.1,0,0,1-.8-2.22,3.27,3.27,0,0,1,.83-2.37,3,3,0,0,1,2.23-.85,2.7,2.7,0,0,1,2.1.83,3.27,3.27,0,0,1,.75,2.29,3.23,3.23,0,0,1-.81,2.3A2.84,2.84,0,0,1,179.08,181.53Zm.07-5.48a1.83,1.83,0,0,0-1.46.63,2.59,2.59,0,0,0-.54,1.74,2.46,2.46,0,0,0,.54,1.68,1.87,1.87,0,0,0,1.46.62,1.73,1.73,0,0,0,1.43-.61,2.57,2.57,0,0,0,.51-1.71,2.65,2.65,0,0,0-.51-1.74A1.76,1.76,0,0,0,179.15,176.05Z"/><path class="cls-23" d="M188.59,181.38h-1V178c0-1.27-.47-1.91-1.4-1.91a1.5,1.5,0,0,0-1.19.54,2,2,0,0,0-.47,1.37v3.42h-1v-6h1v1h0a2.16,2.16,0,0,1,2-1.14,1.84,1.84,0,0,1,1.5.64,2.82,2.82,0,0,1,.53,1.84Z"/><path class="cls-23" d="M195.22,178.63H191a2.27,2.27,0,0,0,.54,1.54,1.85,1.85,0,0,0,1.42.55,3,3,0,0,0,1.86-.67v.9a3.48,3.48,0,0,1-2.09.58,2.56,2.56,0,0,1-2-.82,3.37,3.37,0,0,1-.72-2.3,3.25,3.25,0,0,1,.79-2.28,2.55,2.55,0,0,1,2-.89,2.24,2.24,0,0,1,1.82.77,3.15,3.15,0,0,1,.65,2.11Zm-1-.82a1.88,1.88,0,0,0-.4-1.29,1.36,1.36,0,0,0-1.1-.47,1.54,1.54,0,0,0-1.15.49,2.22,2.22,0,0,0-.59,1.27Z"/><path class="cls-23" d="M104.59,191.4v3.18h-1v-8.4h2.31a3.11,3.11,0,0,1,2.09.65,2.37,2.37,0,0,1,.74,1.85,2.55,2.55,0,0,1-.83,2,3.13,3.13,0,0,1-2.22.76Zm0-4.33v3.44h1a2.32,2.32,0,0,0,1.56-.46,1.65,1.65,0,0,0,.54-1.32c0-1.11-.66-1.66-2-1.66Z"/><path class="cls-23" d="M112.26,194.72a2.79,2.79,0,0,1-2.12-.84,3.11,3.11,0,0,1-.8-2.23,3.23,3.23,0,0,1,.83-2.36,3,3,0,0,1,2.23-.85,2.69,2.69,0,0,1,2.1.82,3.32,3.32,0,0,1,.75,2.3,3.25,3.25,0,0,1-.81,2.3A2.87,2.87,0,0,1,112.26,194.72Zm.07-5.47a1.83,1.83,0,0,0-1.46.63,2.58,2.58,0,0,0-.54,1.73,2.47,2.47,0,0,0,.54,1.69,1.86,1.86,0,0,0,1.46.61,1.79,1.79,0,0,0,1.44-.6,3.23,3.23,0,0,0,0-3.45A1.76,1.76,0,0,0,112.33,189.25Z"/><path class="cls-23" d="M119.91,189.55a1.14,1.14,0,0,0-.72-.19,1.23,1.23,0,0,0-1,.58,2.64,2.64,0,0,0-.41,1.58v3.06h-1v-6h1v1.24h0a2.07,2.07,0,0,1,.63-1,1.54,1.54,0,0,1,1.51-.27Z"/><path class="cls-23" d="M123.74,194.52a1.8,1.8,0,0,1-.9.19c-1,0-1.57-.59-1.57-1.76V189.4h-1v-.82h1v-1.47l1-.31v1.78h1.51v.82h-1.51v3.38a1.45,1.45,0,0,0,.2.86.84.84,0,0,0,.68.26,1,1,0,0,0,.63-.2Z"/><path class="cls-23" d="M129.32,194.58h-1v-.94h0a2,2,0,0,1-1.84,1.08,2,2,0,0,1-1.4-.47,1.65,1.65,0,0,1-.51-1.26c0-1.13.66-1.78,2-2l1.8-.25c0-1-.41-1.53-1.24-1.53a2.94,2.94,0,0,0-2,.74v-1a3.76,3.76,0,0,1,2-.56c1.41,0,2.12.74,2.12,2.24Zm-1-3-1.45.2a2.65,2.65,0,0,0-1,.33,1,1,0,0,0-.34.85.9.9,0,0,0,.32.71,1.18,1.18,0,0,0,.83.28,1.55,1.55,0,0,0,1.18-.5,1.8,1.8,0,0,0,.47-1.27Z"/><path class="cls-23" d="M139.54,194.58h-1v-1h0a2.21,2.21,0,0,1-2.06,1.16,2.24,2.24,0,0,1-1.81-.81,3.28,3.28,0,0,1-.67-2.19,3.62,3.62,0,0,1,.75-2.39,2.48,2.48,0,0,1,2-.89,1.91,1.91,0,0,1,1.8,1h0V185.7h1Zm-1-2.71V191a1.73,1.73,0,0,0-.48-1.23,1.64,1.64,0,0,0-1.22-.5,1.67,1.67,0,0,0-1.39.64,2.87,2.87,0,0,0-.5,1.78,2.56,2.56,0,0,0,.48,1.64,1.6,1.6,0,0,0,1.3.6,1.65,1.65,0,0,0,1.31-.58A2.17,2.17,0,0,0,138.58,191.87Z"/><path class="cls-23" d="M142,187.06a.63.63,0,0,1-.63-.63.56.56,0,0,1,.19-.44.59.59,0,0,1,.44-.18.6.6,0,0,1,.44.18.6.6,0,0,1,0,.88A.58.58,0,0,1,142,187.06Zm.46,7.52h-1v-6h1Z"/><path class="cls-23" d="M152.8,194.58h-1v-1h0a2.21,2.21,0,0,1-2.06,1.16,2.24,2.24,0,0,1-1.81-.81,3.28,3.28,0,0,1-.67-2.19,3.62,3.62,0,0,1,.75-2.39,2.48,2.48,0,0,1,2-.89,1.91,1.91,0,0,1,1.8,1h0V185.7h1Zm-1-2.71V191a1.73,1.73,0,0,0-.48-1.23,1.64,1.64,0,0,0-1.22-.5,1.67,1.67,0,0,0-1.39.64,2.87,2.87,0,0,0-.5,1.78,2.56,2.56,0,0,0,.48,1.64,1.6,1.6,0,0,0,1.3.6,1.65,1.65,0,0,0,1.31-.58A2.17,2.17,0,0,0,151.84,191.87Z"/><path class="cls-23" d="M159.56,191.82h-4.23a2.21,2.21,0,0,0,.54,1.55,1.85,1.85,0,0,0,1.42.54,2.93,2.93,0,0,0,1.86-.67v.91a3.52,3.52,0,0,1-2.09.57,2.52,2.52,0,0,1-2-.82,3.81,3.81,0,0,1,.07-4.58,2.53,2.53,0,0,1,2-.88,2.25,2.25,0,0,1,1.82.76,3.18,3.18,0,0,1,.64,2.12Zm-1-.82a2,2,0,0,0-.4-1.29,1.36,1.36,0,0,0-1.1-.46,1.55,1.55,0,0,0-1.15.48,2.19,2.19,0,0,0-.59,1.27Z"/><path class="cls-23" d="M160.65,194.36v-1a2.84,2.84,0,0,0,1.73.58c.85,0,1.27-.28,1.27-.84a.76.76,0,0,0-.11-.41,1.17,1.17,0,0,0-.29-.3,3,3,0,0,0-.44-.23l-.53-.21a6.76,6.76,0,0,1-.7-.32,2.55,2.55,0,0,1-.51-.36,1.52,1.52,0,0,1-.3-.46,1.66,1.66,0,0,1-.1-.61,1.38,1.38,0,0,1,.19-.74,1.7,1.7,0,0,1,.52-.55,2.21,2.21,0,0,1,.73-.33,3.59,3.59,0,0,1,2.25.16v1a2.71,2.71,0,0,0-1.53-.43,1.75,1.75,0,0,0-.48.06,1.15,1.15,0,0,0-.37.17.68.68,0,0,0-.24.27.67.67,0,0,0-.09.34.75.75,0,0,0,.09.39.8.8,0,0,0,.24.28,1.91,1.91,0,0,0,.4.23l.54.21c.26.11.5.21.71.32a2.82,2.82,0,0,1,.54.36,1.41,1.41,0,0,1,.34.47,1.46,1.46,0,0,1,.12.62,1.5,1.5,0,0,1-.19.78,1.61,1.61,0,0,1-.53.54,2.3,2.3,0,0,1-.75.32,3.82,3.82,0,0,1-.9.11A3.41,3.41,0,0,1,160.65,194.36Z"/><path class="cls-23" d="M168.89,194.52a1.76,1.76,0,0,1-.89.19c-1.05,0-1.58-.59-1.58-1.76V189.4h-1v-.82h1v-1.47l1-.31v1.78h1.51v.82h-1.51v3.38a1.37,1.37,0,0,0,.21.86.81.81,0,0,0,.68.26,1,1,0,0,0,.62-.2Z"/><path class="cls-23" d="M170.67,187.06a.6.6,0,0,1-.44-.18.61.61,0,0,1-.18-.45.59.59,0,0,1,.18-.44.6.6,0,0,1,.44-.18.64.64,0,0,1,.45.18.63.63,0,0,1,0,.88A.61.61,0,0,1,170.67,187.06Zm.47,7.52h-1v-6h1Z"/><path class="cls-23" d="M178.06,194.58h-1v-3.42c0-1.28-.46-1.91-1.39-1.91a1.54,1.54,0,0,0-1.2.54,2,2,0,0,0-.47,1.37v3.42h-1v-6h1v1h0a2.16,2.16,0,0,1,2-1.14,1.84,1.84,0,0,1,1.5.63,2.84,2.84,0,0,1,.52,1.84Z"/><path class="cls-23" d="M184.17,194.58h-1v-.94h0a2.2,2.2,0,0,1-3.25.61,1.68,1.68,0,0,1-.5-1.26c0-1.13.66-1.78,2-2l1.8-.25c0-1-.42-1.53-1.24-1.53a2.94,2.94,0,0,0-2,.74v-1a3.76,3.76,0,0,1,2-.56c1.41,0,2.12.74,2.12,2.24Zm-1-3-1.45.2a2.59,2.59,0,0,0-1,.33,1,1,0,0,0-.34.85.9.9,0,0,0,.32.71,1.16,1.16,0,0,0,.83.28,1.55,1.55,0,0,0,1.18-.5,1.8,1.8,0,0,0,.47-1.27Z"/><path class="cls-23" d="M190.16,188.85l-3.55,4.91h3.52v.82H185.2v-.3l3.55-4.88h-3.22v-.82h4.63Z"/><path class="cls-23" d="M191.9,187.06a.59.59,0,0,1-.44-.18.61.61,0,0,1-.18-.45.61.61,0,0,1,.62-.62.6.6,0,0,1,.44.18.6.6,0,0,1,0,.88A.58.58,0,0,1,191.9,187.06Zm.47,7.52h-1v-6h1Z"/><path class="cls-23" d="M196.82,194.72a2.79,2.79,0,0,1-2.13-.84,3.15,3.15,0,0,1-.79-2.23,3.23,3.23,0,0,1,.83-2.36,3,3,0,0,1,2.23-.85,2.68,2.68,0,0,1,2.09.82,3.76,3.76,0,0,1-.05,4.6A2.88,2.88,0,0,1,196.82,194.72Zm.07-5.47a1.84,1.84,0,0,0-1.47.63,2.58,2.58,0,0,0-.54,1.73,2.47,2.47,0,0,0,.55,1.69,1.85,1.85,0,0,0,1.46.61,1.75,1.75,0,0,0,1.43-.6,3.23,3.23,0,0,0,0-3.45A1.73,1.73,0,0,0,196.89,189.25Z"/><path class="cls-23" d="M206.32,194.58h-1v-3.42c0-1.28-.46-1.91-1.39-1.91a1.54,1.54,0,0,0-1.2.54,2,2,0,0,0-.47,1.37v3.42h-1v-6h1v1h0a2.16,2.16,0,0,1,2-1.14,1.85,1.85,0,0,1,1.51.63,2.84,2.84,0,0,1,.52,1.84Z"/><path class="cls-23" d="M213,191.82h-4.24a2.21,2.21,0,0,0,.54,1.55,1.85,1.85,0,0,0,1.42.54,2.93,2.93,0,0,0,1.86-.67v.91a3.52,3.52,0,0,1-2.09.57,2.52,2.52,0,0,1-2-.82,3.81,3.81,0,0,1,.07-4.58,2.53,2.53,0,0,1,2-.88,2.25,2.25,0,0,1,1.82.76,3.18,3.18,0,0,1,.65,2.12Zm-1-.82a2,2,0,0,0-.4-1.29,1.36,1.36,0,0,0-1.1-.46,1.55,1.55,0,0,0-1.15.48,2.19,2.19,0,0,0-.59,1.27Z"/><path class="cls-23" d="M104.59,204.6v3.18h-1v-8.4h2.31A3.11,3.11,0,0,1,108,200a2.37,2.37,0,0,1,.74,1.85,2.55,2.55,0,0,1-.83,2,3.13,3.13,0,0,1-2.22.76Zm0-4.33v3.44h1a2.32,2.32,0,0,0,1.56-.46,1.65,1.65,0,0,0,.54-1.32c0-1.11-.66-1.66-2-1.66Z"/><path class="cls-23" d="M113.33,202.75a1.18,1.18,0,0,0-.73-.19,1.23,1.23,0,0,0-1,.58,2.72,2.72,0,0,0-.41,1.58v3.06h-1v-6h1V203h0a2.07,2.07,0,0,1,.63-1,1.42,1.42,0,0,1,.94-.36,1.46,1.46,0,0,1,.58.09Z"/><path class="cls-23" d="M116.88,207.92a2.76,2.76,0,0,1-2.12-.84,3.11,3.11,0,0,1-.8-2.23,3.23,3.23,0,0,1,.83-2.36,3,3,0,0,1,2.23-.85,2.68,2.68,0,0,1,2.09.82,3.76,3.76,0,0,1,0,4.6A2.87,2.87,0,0,1,116.88,207.92Zm.07-5.47a1.84,1.84,0,0,0-1.47.63,2.63,2.63,0,0,0-.53,1.73,2.47,2.47,0,0,0,.54,1.69,1.85,1.85,0,0,0,1.46.61,1.75,1.75,0,0,0,1.43-.6,3.23,3.23,0,0,0,0-3.45A1.73,1.73,0,0,0,117,202.45Z"/><path class="cls-23" d="M124.19,207.72a1.82,1.82,0,0,1-.9.19c-1.05,0-1.58-.59-1.58-1.76V202.6h-1v-.82h1v-1.47l1-.31v1.78h1.52v.82h-1.52V206a1.37,1.37,0,0,0,.21.86.83.83,0,0,0,.68.26,1.05,1.05,0,0,0,.63-.2Z"/><path class="cls-23" d="M128,207.92a2.79,2.79,0,0,1-2.13-.84,3.1,3.1,0,0,1-.79-2.23,3.19,3.19,0,0,1,.83-2.36,3,3,0,0,1,2.23-.85,2.68,2.68,0,0,1,2.09.82,3.32,3.32,0,0,1,.76,2.3,3.25,3.25,0,0,1-.82,2.3A2.85,2.85,0,0,1,128,207.92Zm.07-5.47a1.84,1.84,0,0,0-1.47.63,2.58,2.58,0,0,0-.54,1.73,2.47,2.47,0,0,0,.55,1.69,1.85,1.85,0,0,0,1.46.61,1.75,1.75,0,0,0,1.43-.6,3.23,3.23,0,0,0,0-3.45A1.73,1.73,0,0,0,128.05,202.45Z"/><path class="cls-23" d="M136.59,207.5a3.1,3.1,0,0,1-1.64.42,2.69,2.69,0,0,1-2.07-.84,3,3,0,0,1-.79-2.16,3.3,3.3,0,0,1,.85-2.38,3,3,0,0,1,2.27-.9,3.23,3.23,0,0,1,1.39.29v1a2.38,2.38,0,0,0-1.43-.47,2,2,0,0,0-1.51.66,2.5,2.5,0,0,0-.59,1.73,2.36,2.36,0,0,0,.56,1.66,1.89,1.89,0,0,0,1.48.61,2.39,2.39,0,0,0,1.48-.52Z"/><path class="cls-23" d="M140.55,207.92a2.77,2.77,0,0,1-2.12-.84,3.11,3.11,0,0,1-.8-2.23,3.23,3.23,0,0,1,.83-2.36,3,3,0,0,1,2.23-.85,2.71,2.71,0,0,1,2.1.82,3.32,3.32,0,0,1,.75,2.3,3.25,3.25,0,0,1-.81,2.3A2.87,2.87,0,0,1,140.55,207.92Zm.07-5.47a1.81,1.81,0,0,0-1.46.63,2.58,2.58,0,0,0-.54,1.73,2.47,2.47,0,0,0,.54,1.69,1.86,1.86,0,0,0,1.46.61,1.75,1.75,0,0,0,1.43-.6,3.17,3.17,0,0,0,0-3.45A1.73,1.73,0,0,0,140.62,202.45Z"/><path class="cls-23" d="M146,207.78h-1V198.9h1Z"/><path class="cls-23" d="M148.94,207.78h-1V198.9h1Z"/><path class="cls-23" d="M153.4,207.92a2.79,2.79,0,0,1-2.13-.84,3.1,3.1,0,0,1-.79-2.23,3.23,3.23,0,0,1,.82-2.36,3,3,0,0,1,2.24-.85,2.68,2.68,0,0,1,2.09.82,3.32,3.32,0,0,1,.75,2.3,3.25,3.25,0,0,1-.81,2.3A2.85,2.85,0,0,1,153.4,207.92Zm.07-5.47a1.84,1.84,0,0,0-1.47.63,2.58,2.58,0,0,0-.54,1.73,2.42,2.42,0,0,0,.55,1.69,1.85,1.85,0,0,0,1.46.61,1.77,1.77,0,0,0,1.43-.6,3.23,3.23,0,0,0,0-3.45A1.74,1.74,0,0,0,153.47,202.45Z"/><path class="cls-23" d="M237.57,38.4h-1V30h1Z"/><path class="cls-23" d="M240.77,35.22V38.4h-1V30h2.31a3,3,0,0,1,2.09.66,2.35,2.35,0,0,1,.74,1.85,2.54,2.54,0,0,1-.82,2,3.14,3.14,0,0,1-2.23.76Zm0-4.34v3.45h1a2.28,2.28,0,0,0,1.55-.47,1.64,1.64,0,0,0,.54-1.31c0-1.11-.66-1.67-2-1.67Z"/><path class="cls-23" d="M250.64,37.53h0v3.63h-1V32.4h1v1.05h0a2.29,2.29,0,0,1,2.08-1.2,2.19,2.19,0,0,1,1.81.81,3.37,3.37,0,0,1,.65,2.16,3.71,3.71,0,0,1-.73,2.41,2.46,2.46,0,0,1-2,.91A2,2,0,0,1,250.64,37.53Zm0-2.42V36a1.8,1.8,0,0,0,.48,1.26,1.65,1.65,0,0,0,1.23.52,1.63,1.63,0,0,0,1.37-.67,3.07,3.07,0,0,0,.5-1.86,2.41,2.41,0,0,0-.47-1.57,1.52,1.52,0,0,0-1.25-.57,1.71,1.71,0,0,0-1.35.59A2.13,2.13,0,0,0,250.62,35.11Z"/><path class="cls-23" d="M259.84,33.37a1.14,1.14,0,0,0-.72-.2,1.24,1.24,0,0,0-1,.58,2.68,2.68,0,0,0-.41,1.59V38.4h-1v-6h1v1.23h0a2.09,2.09,0,0,1,.63-1,1.44,1.44,0,0,1,.94-.35,1.65,1.65,0,0,1,.57.08Z"/><path class="cls-23" d="M261.38,30.87a.64.64,0,0,1-.44-.17.65.65,0,0,1,0-.9.6.6,0,0,1,.44-.18.64.64,0,0,1,.45.18.61.61,0,0,1,.18.45.6.6,0,0,1-.18.44A.64.64,0,0,1,261.38,30.87Zm.47,7.53h-1v-6h1Z"/><path class="cls-23" d="M268.51,32.4l-2.39,6h-.94l-2.28-6H264l1.52,4.35a4.45,4.45,0,0,1,.21.84h0a4.38,4.38,0,0,1,.19-.81l1.6-4.38Z"/><path class="cls-23" d="M273.84,38.4h-1v-.94h0A2,2,0,0,1,271,38.54a2,2,0,0,1-1.41-.48,1.61,1.61,0,0,1-.5-1.26c0-1.12.66-1.77,2-2l1.8-.25c0-1-.42-1.53-1.24-1.53a3,3,0,0,0-2,.74v-1a3.68,3.68,0,0,1,2-.57c1.41,0,2.12.75,2.12,2.24Zm-1-3-1.45.2a2.3,2.3,0,0,0-1,.33,1,1,0,0,0-.34.84.92.92,0,0,0,.31.72,1.25,1.25,0,0,0,.84.28,1.55,1.55,0,0,0,1.18-.5,1.81,1.81,0,0,0,.47-1.27Z"/><path class="cls-23" d="M278.43,38.34a2,2,0,0,1-.9.18c-1,0-1.57-.58-1.57-1.75V33.22h-1V32.4h1V30.93l1-.31V32.4h1.51v.82h-1.51V36.6a1.45,1.45,0,0,0,.2.86.84.84,0,0,0,.68.26,1.05,1.05,0,0,0,.63-.2Z"/><path class="cls-23" d="M282.22,38.54a2.77,2.77,0,0,1-2.12-.84,3.14,3.14,0,0,1-.8-2.23,3.27,3.27,0,0,1,.83-2.37,3,3,0,0,1,2.23-.85,2.71,2.71,0,0,1,2.1.83,3.29,3.29,0,0,1,.75,2.29,3.21,3.21,0,0,1-.81,2.3A2.84,2.84,0,0,1,282.22,38.54Zm.07-5.48a1.81,1.81,0,0,0-1.46.63,2.59,2.59,0,0,0-.54,1.74,2.46,2.46,0,0,0,.54,1.68,1.87,1.87,0,0,0,1.46.62,1.73,1.73,0,0,0,1.43-.61,2.57,2.57,0,0,0,.5-1.71,2.65,2.65,0,0,0-.5-1.74A1.76,1.76,0,0,0,282.29,33.06Z"/><path class="cls-23" d="M287.62,37.06l-.93,2.88H286l.69-2.88Z"/><path class="cls-23" d="M293.62,37.53h0v3.63h-1V32.4h1v1.05h0a2.26,2.26,0,0,1,2.07-1.2,2.19,2.19,0,0,1,1.81.81,3.31,3.31,0,0,1,.65,2.16,3.71,3.71,0,0,1-.73,2.41,2.46,2.46,0,0,1-2,.91A2,2,0,0,1,293.62,37.53Zm0-2.42V36a1.77,1.77,0,0,0,.49,1.26,1.71,1.71,0,0,0,2.59-.15,3.07,3.07,0,0,0,.5-1.86,2.47,2.47,0,0,0-.46-1.57,1.54,1.54,0,0,0-1.26-.57,1.71,1.71,0,0,0-1.35.59A2.13,2.13,0,0,0,293.59,35.11Z"/><path class="cls-23" d="M302.2,38.54a2.79,2.79,0,0,1-2.13-.84,3.14,3.14,0,0,1-.79-2.23,3.27,3.27,0,0,1,.82-2.37,3,3,0,0,1,2.24-.85,2.69,2.69,0,0,1,2.09.83,3.29,3.29,0,0,1,.75,2.29,3.21,3.21,0,0,1-.81,2.3A2.82,2.82,0,0,1,302.2,38.54Zm.07-5.48a1.84,1.84,0,0,0-1.47.63,2.59,2.59,0,0,0-.54,1.74,2.41,2.41,0,0,0,.55,1.68,1.85,1.85,0,0,0,1.46.62,1.74,1.74,0,0,0,1.43-.61,2.62,2.62,0,0,0,.5-1.71,2.71,2.71,0,0,0-.5-1.74A1.77,1.77,0,0,0,302.27,33.06Z"/><path class="cls-23" d="M309.85,33.37a1.18,1.18,0,0,0-.73-.2,1.25,1.25,0,0,0-1,.58,2.75,2.75,0,0,0-.41,1.59V38.4h-1v-6h1v1.23h0a2.17,2.17,0,0,1,.63-1,1.46,1.46,0,0,1,.94-.35,1.75,1.75,0,0,1,.58.08Z"/><path class="cls-23" d="M313.67,38.34a1.87,1.87,0,0,1-.89.18c-1,0-1.58-.58-1.58-1.75V33.22h-1V32.4h1V30.93l1-.31V32.4h1.51v.82h-1.51V36.6a1.37,1.37,0,0,0,.21.86.81.81,0,0,0,.68.26,1,1,0,0,0,.62-.2Z"/><path class="cls-23" d="M319.25,38.4h-1v-.94h0a2,2,0,0,1-1.85,1.08,2,2,0,0,1-1.4-.48,1.62,1.62,0,0,1-.51-1.26c0-1.12.66-1.77,2-2l1.8-.25c0-1-.41-1.53-1.24-1.53a3,3,0,0,0-1.95.74v-1a3.68,3.68,0,0,1,2-.57c1.41,0,2.11.75,2.11,2.24Zm-1-3-1.45.2a2.25,2.25,0,0,0-1,.33,1,1,0,0,0-.34.84.92.92,0,0,0,.31.72,1.24,1.24,0,0,0,.83.28,1.58,1.58,0,0,0,1.19-.5,1.8,1.8,0,0,0,.46-1.27Z"/><path class="cls-23" d="M275.32,49.63,272.21,58h-1.08l-3.05-8.4h1.09l2.33,6.66a4.63,4.63,0,0,1,.17.75h0a3.43,3.43,0,0,1,.2-.76l2.37-6.65Z"/><path class="cls-23" d="M285.09,58h-1V52.4c0-.45,0-1,.08-1.64h0a4.6,4.6,0,0,1-.25.82L281.05,58h-.48l-2.86-6.41a4.31,4.31,0,0,1-.26-.86h0c0,.34.05.89.05,1.65V58h-1v-8.4h1.3l2.58,5.86a7.5,7.5,0,0,1,.38,1h0c.17-.46.3-.81.4-1l2.63-5.84h1.23Z"/><path class="cls-23" d="M237.57,92.4h-1V84h1Z"/><path class="cls-23" d="M240.77,89.22V92.4h-1V84h2.31a3,3,0,0,1,2.09.66,2.35,2.35,0,0,1,.74,1.85,2.54,2.54,0,0,1-.82,2,3.14,3.14,0,0,1-2.23.76Zm0-4.34v3.45h1a2.28,2.28,0,0,0,1.55-.47,1.64,1.64,0,0,0,.54-1.31c0-1.11-.66-1.67-2-1.67Z"/><path class="cls-23" d="M250.64,91.53h0v3.63h-1V86.4h1v1h0a2.28,2.28,0,0,1,2.08-1.19,2.18,2.18,0,0,1,1.81.8,3.37,3.37,0,0,1,.65,2.16,3.71,3.71,0,0,1-.73,2.41,2.46,2.46,0,0,1-2,.91A2,2,0,0,1,250.64,91.53Zm0-2.42V90a1.8,1.8,0,0,0,.48,1.26,1.73,1.73,0,0,0,2.6-.15,3.07,3.07,0,0,0,.5-1.86,2.41,2.41,0,0,0-.47-1.57,1.52,1.52,0,0,0-1.25-.57,1.71,1.71,0,0,0-1.35.59A2.13,2.13,0,0,0,250.62,89.11Z"/><path class="cls-23" d="M259.84,87.37a1.14,1.14,0,0,0-.72-.19,1.21,1.21,0,0,0-1,.58,2.62,2.62,0,0,0-.41,1.58V92.4h-1v-6h1v1.23h0a2,2,0,0,1,.63-1,1.4,1.4,0,0,1,.94-.36,1.65,1.65,0,0,1,.57.08Z"/><path class="cls-23" d="M261.38,84.87a.64.64,0,0,1-.44-.17.65.65,0,0,1,0-.9.6.6,0,0,1,.44-.18.64.64,0,0,1,.45.18.61.61,0,0,1,.18.45.6.6,0,0,1-.18.44A.64.64,0,0,1,261.38,84.87Zm.47,7.53h-1v-6h1Z"/><path class="cls-23" d="M268.51,86.4l-2.39,6h-.94l-2.28-6H264l1.52,4.36a4.2,4.2,0,0,1,.21.83h0a4.38,4.38,0,0,1,.19-.81l1.6-4.38Z"/><path class="cls-23" d="M273.84,92.4h-1v-.94h0A2,2,0,0,1,271,92.54a2,2,0,0,1-1.41-.48,1.61,1.61,0,0,1-.5-1.26q0-1.68,2-2l1.8-.26c0-1-.42-1.53-1.24-1.53a3,3,0,0,0-2,.74v-1a3.68,3.68,0,0,1,2-.56c1.41,0,2.12.74,2.12,2.23Zm-1-3-1.45.2a2.3,2.3,0,0,0-1,.33,1,1,0,0,0-.34.84.92.92,0,0,0,.31.72,1.2,1.2,0,0,0,.84.28,1.55,1.55,0,0,0,1.18-.5,1.81,1.81,0,0,0,.47-1.27Z"/><path class="cls-23" d="M278.43,92.34a2,2,0,0,1-.9.18c-1,0-1.57-.58-1.57-1.75V87.22h-1V86.4h1V84.93l1-.31V86.4h1.51v.82h-1.51V90.6a1.45,1.45,0,0,0,.2.86.84.84,0,0,0,.68.26,1.05,1.05,0,0,0,.63-.2Z"/><path class="cls-23" d="M282.22,92.54a2.77,2.77,0,0,1-2.12-.84,3.12,3.12,0,0,1-.8-2.23,3.27,3.27,0,0,1,.83-2.37,3,3,0,0,1,2.23-.84,2.71,2.71,0,0,1,2.1.82,3.29,3.29,0,0,1,.75,2.29,3.21,3.21,0,0,1-.81,2.3A2.84,2.84,0,0,1,282.22,92.54Zm.07-5.48a1.81,1.81,0,0,0-1.46.63,2.59,2.59,0,0,0-.54,1.74,2.46,2.46,0,0,0,.54,1.68,1.87,1.87,0,0,0,1.46.62,1.73,1.73,0,0,0,1.43-.61,2.57,2.57,0,0,0,.5-1.71,2.65,2.65,0,0,0-.5-1.74A1.76,1.76,0,0,0,282.29,87.06Z"/><path class="cls-23" d="M287.62,91.06l-.93,2.88H286l.69-2.88Z"/><path class="cls-23" d="M293.62,91.53h0v3.63h-1V86.4h1v1h0a2.25,2.25,0,0,1,2.07-1.19,2.18,2.18,0,0,1,1.81.8,3.31,3.31,0,0,1,.65,2.16,3.71,3.71,0,0,1-.73,2.41,2.46,2.46,0,0,1-2,.91A2,2,0,0,1,293.62,91.53Zm0-2.42V90a1.77,1.77,0,0,0,.49,1.26,1.71,1.71,0,0,0,2.59-.15,3.07,3.07,0,0,0,.5-1.86,2.47,2.47,0,0,0-.46-1.57,1.54,1.54,0,0,0-1.26-.57,1.71,1.71,0,0,0-1.35.59A2.13,2.13,0,0,0,293.59,89.11Z"/><path class="cls-23" d="M302.2,92.54a2.79,2.79,0,0,1-2.13-.84,3.12,3.12,0,0,1-.79-2.23,3.27,3.27,0,0,1,.82-2.37,3,3,0,0,1,2.24-.84,2.68,2.68,0,0,1,2.09.82,3.29,3.29,0,0,1,.75,2.29,3.21,3.21,0,0,1-.81,2.3A2.82,2.82,0,0,1,302.2,92.54Zm.07-5.48a1.84,1.84,0,0,0-1.47.63,2.59,2.59,0,0,0-.54,1.74,2.41,2.41,0,0,0,.55,1.68,1.85,1.85,0,0,0,1.46.62,1.74,1.74,0,0,0,1.43-.61,2.62,2.62,0,0,0,.5-1.71,2.71,2.71,0,0,0-.5-1.74A1.77,1.77,0,0,0,302.27,87.06Z"/><path class="cls-23" d="M309.85,87.37a1.18,1.18,0,0,0-.73-.19,1.23,1.23,0,0,0-1,.58,2.7,2.7,0,0,0-.41,1.58V92.4h-1v-6h1v1.23h0a2.09,2.09,0,0,1,.63-1,1.42,1.42,0,0,1,.94-.36,1.75,1.75,0,0,1,.58.08Z"/><path class="cls-23" d="M313.67,92.34a1.87,1.87,0,0,1-.89.18c-1,0-1.58-.58-1.58-1.75V87.22h-1V86.4h1V84.93l1-.31V86.4h1.51v.82h-1.51V90.6a1.37,1.37,0,0,0,.21.86.81.81,0,0,0,.68.26,1,1,0,0,0,.62-.2Z"/><path class="cls-23" d="M319.25,92.4h-1v-.94h0a2,2,0,0,1-1.85,1.08,2,2,0,0,1-1.4-.48,1.62,1.62,0,0,1-.51-1.26q0-1.68,2-2l1.8-.26c0-1-.41-1.53-1.24-1.53a3,3,0,0,0-1.95.74v-1a3.68,3.68,0,0,1,2-.56c1.41,0,2.11.74,2.11,2.23Zm-1-3-1.45.2a2.25,2.25,0,0,0-1,.33,1,1,0,0,0-.34.84.92.92,0,0,0,.31.72,1.19,1.19,0,0,0,.83.28,1.58,1.58,0,0,0,1.19-.5,1.8,1.8,0,0,0,.46-1.27Z"/><path class="cls-23" d="M275.32,103.63l-3.11,8.4h-1.08l-3.05-8.4h1.09l2.33,6.66a4.63,4.63,0,0,1,.17.75h0a3.43,3.43,0,0,1,.2-.76l2.37-6.65Z"/><path class="cls-23" d="M285.09,112h-1V106.4c0-.45,0-1,.08-1.64h0a4.6,4.6,0,0,1-.25.82L281.05,112h-.48l-2.86-6.41a4.31,4.31,0,0,1-.26-.86h0c0,.34.05.89.05,1.65V112h-1v-8.4h1.3l2.58,5.86a7.5,7.5,0,0,1,.38,1h0c.17-.46.3-.81.4-1l2.63-5.84h1.23Z"/><path class="cls-23" d="M237.57,150.9h-1v-8.41h1Z"/><path class="cls-23" d="M240.77,147.72v3.18h-1v-8.41h2.31a3,3,0,0,1,2.09.66,2.37,2.37,0,0,1,.74,1.85,2.54,2.54,0,0,1-.82,2,3.14,3.14,0,0,1-2.23.76Zm0-4.34v3.45h1a2.28,2.28,0,0,0,1.55-.47,1.63,1.63,0,0,0,.54-1.31c0-1.11-.66-1.67-2-1.67Z"/><path class="cls-23" d="M250.64,150h0v3.63h-1V144.9h1v1h0a2.28,2.28,0,0,1,2.08-1.19,2.18,2.18,0,0,1,1.81.8,3.37,3.37,0,0,1,.65,2.16,3.71,3.71,0,0,1-.73,2.41,2.44,2.44,0,0,1-2,.91A2,2,0,0,1,250.64,150Zm0-2.42v.84a1.8,1.8,0,0,0,.48,1.26,1.73,1.73,0,0,0,2.6-.15,3,3,0,0,0,.5-1.86,2.43,2.43,0,0,0-.47-1.57,1.52,1.52,0,0,0-1.25-.57,1.71,1.71,0,0,0-1.35.59A2.13,2.13,0,0,0,250.62,147.61Z"/><path class="cls-23" d="M259.84,145.87a1.14,1.14,0,0,0-.72-.19,1.21,1.21,0,0,0-1,.58,2.62,2.62,0,0,0-.41,1.58v3.06h-1v-6h1v1.23h0a2,2,0,0,1,.63-1,1.4,1.4,0,0,1,.94-.36,1.65,1.65,0,0,1,.57.08Z"/><path class="cls-23" d="M261.38,143.37a.64.64,0,0,1-.44-.17.65.65,0,0,1,0-.9.6.6,0,0,1,.44-.17.63.63,0,0,1,.45.17.61.61,0,0,1,.18.45.6.6,0,0,1-.18.44A.64.64,0,0,1,261.38,143.37Zm.47,7.53h-1v-6h1Z"/><path class="cls-23" d="M268.51,144.9l-2.39,6h-.94l-2.28-6H264l1.52,4.36a4.38,4.38,0,0,1,.21.83h0a4.38,4.38,0,0,1,.19-.81l1.6-4.38Z"/><path class="cls-23" d="M273.84,150.9h-1V150h0A2,2,0,0,1,271,151a2,2,0,0,1-1.41-.48,1.61,1.61,0,0,1-.5-1.26q0-1.68,2-2l1.8-.26c0-1-.42-1.53-1.24-1.53a3,3,0,0,0-2,.74v-1a3.68,3.68,0,0,1,2-.56c1.41,0,2.12.74,2.12,2.23Zm-1-3-1.45.2a2.3,2.3,0,0,0-1,.33,1,1,0,0,0-.34.84.91.91,0,0,0,.31.72,1.2,1.2,0,0,0,.84.28,1.55,1.55,0,0,0,1.18-.5,1.81,1.81,0,0,0,.47-1.27Z"/><path class="cls-23" d="M278.43,150.84a1.94,1.94,0,0,1-.9.19c-1,0-1.57-.59-1.57-1.76v-3.55h-1v-.82h1v-1.47l1-.31v1.78h1.51v.82h-1.51v3.38a1.45,1.45,0,0,0,.2.86.84.84,0,0,0,.68.26,1.05,1.05,0,0,0,.63-.2Z"/><path class="cls-23" d="M282.22,151a2.77,2.77,0,0,1-2.12-.84,3.12,3.12,0,0,1-.8-2.23,3.23,3.23,0,0,1,.83-2.36,3,3,0,0,1,2.23-.85,2.71,2.71,0,0,1,2.1.82,3.29,3.29,0,0,1,.75,2.29,3.21,3.21,0,0,1-.81,2.3A2.84,2.84,0,0,1,282.22,151Zm.07-5.48a1.81,1.81,0,0,0-1.46.63,2.59,2.59,0,0,0-.54,1.74,2.46,2.46,0,0,0,.54,1.68,1.87,1.87,0,0,0,1.46.62,1.75,1.75,0,0,0,1.43-.6,2.61,2.61,0,0,0,.5-1.72,2.65,2.65,0,0,0-.5-1.74A1.76,1.76,0,0,0,282.29,145.56Z"/><path class="cls-23" d="M287.62,149.56l-.93,2.88H286l.69-2.88Z"/><path class="cls-23" d="M293.62,150h0v3.63h-1V144.9h1v1h0a2.25,2.25,0,0,1,2.07-1.19,2.18,2.18,0,0,1,1.81.8,3.31,3.31,0,0,1,.65,2.16,3.71,3.71,0,0,1-.73,2.41,2.43,2.43,0,0,1-2,.91A2,2,0,0,1,293.62,150Zm0-2.42v.84a1.77,1.77,0,0,0,.49,1.26,1.71,1.71,0,0,0,2.59-.15,3,3,0,0,0,.5-1.86,2.49,2.49,0,0,0-.46-1.57,1.54,1.54,0,0,0-1.26-.57,1.71,1.71,0,0,0-1.35.59A2.13,2.13,0,0,0,293.59,147.61Z"/><path class="cls-23" d="M302.2,151a2.79,2.79,0,0,1-2.13-.84,3.12,3.12,0,0,1-.79-2.23,3.23,3.23,0,0,1,.82-2.36,3,3,0,0,1,2.24-.85,2.68,2.68,0,0,1,2.09.82,3.29,3.29,0,0,1,.75,2.29,3.21,3.21,0,0,1-.81,2.3A2.82,2.82,0,0,1,302.2,151Zm.07-5.48a1.84,1.84,0,0,0-1.47.63,2.59,2.59,0,0,0-.54,1.74,2.41,2.41,0,0,0,.55,1.68,1.85,1.85,0,0,0,1.46.62,1.77,1.77,0,0,0,1.43-.6,2.67,2.67,0,0,0,.5-1.72,2.71,2.71,0,0,0-.5-1.74A1.77,1.77,0,0,0,302.27,145.56Z"/><path class="cls-23" d="M309.85,145.87a1.18,1.18,0,0,0-.73-.19,1.23,1.23,0,0,0-1,.58,2.7,2.7,0,0,0-.41,1.58v3.06h-1v-6h1v1.23h0a2.09,2.09,0,0,1,.63-1,1.42,1.42,0,0,1,.94-.36,1.75,1.75,0,0,1,.58.08Z"/><path class="cls-23" d="M313.67,150.84a1.87,1.87,0,0,1-.89.19c-1,0-1.58-.59-1.58-1.76v-3.55h-1v-.82h1v-1.47l1-.31v1.78h1.51v.82h-1.51v3.38a1.37,1.37,0,0,0,.21.86.81.81,0,0,0,.68.26,1,1,0,0,0,.62-.2Z"/><path class="cls-23" d="M319.25,150.9h-1V150h0a2,2,0,0,1-1.85,1.08,2,2,0,0,1-1.4-.48,1.62,1.62,0,0,1-.51-1.26q0-1.68,2-2l1.8-.26c0-1-.41-1.53-1.24-1.53a3,3,0,0,0-1.95.74v-1a3.68,3.68,0,0,1,2-.56c1.41,0,2.11.74,2.11,2.23Zm-1-3-1.45.2a2.25,2.25,0,0,0-1,.33,1,1,0,0,0-.34.84.91.91,0,0,0,.31.72,1.19,1.19,0,0,0,.83.28,1.58,1.58,0,0,0,1.19-.5,1.8,1.8,0,0,0,.46-1.27Z"/><path class="cls-23" d="M275.32,162.13l-3.11,8.41h-1.08l-3.05-8.41h1.09l2.33,6.66a4.63,4.63,0,0,1,.17.75h0a3.43,3.43,0,0,1,.2-.76l2.37-6.65Z"/><path class="cls-23" d="M285.09,170.54h-1V164.9c0-.45,0-1,.08-1.64h0a4.6,4.6,0,0,1-.25.82l-2.87,6.46h-.48l-2.86-6.41a4.69,4.69,0,0,1-.26-.87h0c0,.34.05.89.05,1.65v5.63h-1v-8.41h1.3l2.58,5.86a7.5,7.5,0,0,1,.38,1h0c.17-.46.3-.8.4-1l2.63-5.84h1.23Z"/></svg>