<?xml version="1.0" encoding="utf-8"?>
<!-- Generator: Adobe Illustrator 23.0.0, SVG Export Plug-In . SVG Version: 6.00 Build 0)  -->
<svg version="1.1" xmlns="http://www.w3.org/2000/svg" xmlns:xlink="http://www.w3.org/1999/xlink" x="0px" y="0px"
	 viewBox="0 0 492.7 180" style="enable-background:new 0 0 492.7 180;" xml:space="preserve">
<style type="text/css">
	.st0{fill:#505050;}
	.st1{fill:#FFFFFF;}
	.st2{display:none;}
	.st3{display:inline;}
	.st4{fill:#EBEBEB;}
	.st5{fill:#0072C6;}
	.st6{fill:#FFB900;}
	.st7{fill:none;stroke:#000000;stroke-miterlimit:10;}
	.st8{fill:#1E1E1E;}
	.st9{fill:#EBEBEB;stroke:#000000;stroke-width:0.75;stroke-miterlimit:10;}
	.st10{fill:none;}
	.st11{stroke:#000000;stroke-width:5.000000e-02;stroke-miterlimit:10;}
	.st12{fill:#1E1E1E;stroke:#1E1E1E;stroke-width:6.000000e-02;stroke-miterlimit:10;}
	.st13{fill:#FFFFFF;stroke:#FFFFFF;stroke-width:5.000000e-02;stroke-miterlimit:10;}
</style>
<symbol  id="New_Symbol_41" viewBox="-10 -10 20 20">
	<circle class="st0" cx="0" cy="0" r="10"/>
	<path class="st1" d="M1.2-4.2v8.6h-1.4v-6.9C-0.4-2.3-0.7-2.1-1-2c-0.3,0.1-0.7,0.2-1,0.3v-1.2l0.6-0.2l0.6-0.3l0.6-0.3
		C0.1-3.9,0.4-4,0.6-4.2H1.2z"/>
</symbol>
<symbol  id="New_Symbol_42" viewBox="-10 -10 20 20">
	<circle class="st0" cx="0" cy="0" r="10"/>
	<path class="st1" d="M2.5,4.4h-5.3V3.8c0-0.3,0-0.5,0.1-0.8c0.1-0.2,0.2-0.4,0.3-0.7c0.1-0.2,0.3-0.4,0.4-0.6
		c0.2-0.2,0.4-0.4,0.5-0.5l0.6-0.5c0.2-0.1,0.4-0.3,0.6-0.5S0.1,0,0.3-0.2c0.1-0.1,0.3-0.3,0.4-0.4C0.8-0.8,0.9-1,0.9-1.1
		C1-1.3,1-1.5,1-1.7c0-0.2,0-0.4-0.1-0.6C0.8-2.4,0.7-2.6,0.6-2.7C0.5-2.8,0.3-2.9,0.2-2.9C0-3-0.2-3-0.4-3c-0.4,0-0.7,0.1-1.1,0.2
		c-0.4,0.2-0.7,0.4-1,0.7v-1.3c0.2-0.1,0.3-0.2,0.5-0.3c0.2-0.1,0.4-0.2,0.6-0.2C-1.2-4-1-4-0.8-4.1c0.2,0,0.4,0,0.7,0
		c0.3,0,0.7,0,1,0.1c0.3,0.1,0.6,0.2,0.8,0.4C1.9-3.3,2.1-3,2.2-2.8c0.1,0.3,0.2,0.7,0.2,1c0,0.3,0,0.6-0.1,0.9
		C2.2-0.6,2-0.3,1.9-0.1C1.7,0.2,1.5,0.4,1.3,0.6C1.1,0.8,0.9,1,0.6,1.2l-0.7,0.5c-0.2,0.2-0.4,0.4-0.6,0.5C-0.8,2.4-1,2.6-1.1,2.8
		c-0.1,0.1-0.2,0.3-0.2,0.5l0,0h3.8V4.4z"/>
</symbol>
<symbol  id="New_Symbol_43" viewBox="-10 -10 20 20">
	<circle class="st0" cx="0" cy="0" r="10"/>
	<path class="st1" d="M-2.6,4.1V2.8c0.5,0.4,1.2,0.7,1.8,0.6c0.5,0,0.9-0.1,1.3-0.4c0.3-0.2,0.5-0.6,0.5-1c0-0.9-0.7-1.4-2.2-1.4
		h-0.7v-1.1h0.6c1.3,0,1.9-0.4,1.9-1.4S0.3-3-0.7-3c-0.6,0-1.1,0.2-1.6,0.6v-1.2C-1.7-4-1-4.1-0.3-4.1c0.6,0,1.3,0.2,1.8,0.6
		c0.4,0.3,0.7,0.9,0.7,1.4c0.1,1-0.7,1.9-1.7,2.1l0,0c0.5,0,1,0.3,1.4,0.6C2.3,1,2.5,1.5,2.5,2.1c0,0.7-0.3,1.4-0.9,1.8
		C1,4.4,0.2,4.6-0.6,4.6C-1.3,4.6-2,4.5-2.6,4.1z"/>
</symbol>
<symbol  id="New_Symbol_44" viewBox="-10 -10 20 20">
	<circle class="st0" cx="0" cy="0" r="10"/>
	<path class="st1" d="M2-4v5.4h1.3v1.1H2v1.9H0.6V2.6h-3.8V1.4c0.3-0.4,0.7-0.8,1-1.3c0.4-0.4,0.7-0.9,1-1.4s0.6-0.9,0.9-1.4
		S0.4-3.5,0.6-4L2-4z M0.7,1.4v-3.5c-0.4,0.7-0.8,1.4-1.3,2C-1,0.5-1.4,1-1.8,1.4L0.7,1.4z"/>
</symbol>
<symbol  id="New_Symbol_45" viewBox="-10 -10 20 20">
	<circle class="st0" cx="0" cy="0" r="10"/>
	<path class="st1" d="M-2.4,4.2V2.9c0.5,0.3,1.1,0.5,1.7,0.6c0.5,0,1-0.1,1.4-0.4C1,2.8,1.2,2.3,1.1,1.9C1.2,1.5,1,1,0.6,0.8
		c-0.5-0.3-1-0.4-1.5-0.4c-0.2,0-0.7,0-1.4,0.1L-2-4h4.1v1.2h-3L-1-0.7c0.3,0,0.5,0,0.7,0C0.5-0.8,1.2-0.5,1.8,0
		c0.5,0.5,0.7,1.2,0.7,1.9c0,0.8-0.3,1.5-0.8,2C1,4.4,0.2,4.6-0.6,4.6C-1.2,4.6-1.9,4.5-2.4,4.2z"/>
</symbol>
<g id="src" class="st2">
	<title>aspnetwebapp-intro</title>
	<g id="Shapes" class="st3">
		<rect class="st1" width="492.7" height="180"/>
		<rect x="0.5" class="st4" width="105" height="155"/>
		<rect x="370.2" y="60" class="st5" width="105" height="95"/>
		<rect x="370.2" y="0.1" class="st6" width="105" height="55"/>
		<g>
			<line class="st7" x1="105.5" y1="15" x2="364.7" y2="15"/>
			<polygon points="363.6,18.7 370.1,15 363.6,11.3 			"/>
		</g>
		<g>
			<line class="st7" x1="110.9" y1="44.9" x2="370.1" y2="44.9"/>
			<polygon points="112,48.6 105.5,44.9 112,41.1 			"/>
		</g>
		<g>
			<line class="st7" x1="105.5" y1="85.1" x2="364.7" y2="85.1"/>
			<polygon points="363.6,88.8 370.1,85.1 363.6,81.4 			"/>
		</g>
		<g>
			<line class="st7" x1="110.9" y1="135.1" x2="370.1" y2="135.1"/>
			<polygon points="112,138.8 105.5,135.1 112,131.4 			"/>
		</g>
		<g>
			<path class="st7" d="M51,155v7.5c0,4.1,4.5,7.5,10,7.5l419.1,0.8c5.5,0,10-4.5,10-10V31.5c-0.1-1.5-1.3-2.6-2.8-2.5h-6.6"/>
			<polygon points="481.8,25.3 475.3,29 481.8,32.7 			"/>
		</g>
		
			<use xlink:href="#New_Symbol_45"  width="20" height="20" x="-10" y="-10" transform="matrix(1 0 0 1 169.06 170)" style="overflow:visible;"/>
		
			<use xlink:href="#New_Symbol_44"  width="20" height="20" x="-10" y="-10" transform="matrix(1 0 0 1 169.06 135.1)" style="overflow:visible;"/>
		
			<use xlink:href="#New_Symbol_43"  width="20" height="20" x="-10" y="-10" transform="matrix(1 0 0 1 169.06 85.1)" style="overflow:visible;"/>
		<path d="M80.8,38.3C74.1,29.7,63.9,24.6,53,24.6c-7.7,0-15.2,2.6-21.3,7.2c-15.3,11.7-18.2,33.7-6.5,49
			c6.6,8.6,16.9,13.7,27.7,13.7c7.7,0,15.2-2.5,21.3-7.2c15.3-11.7,18.3-33.5,6.6-48.8C80.8,38.4,80.8,38.4,80.8,38.3z M82.4,67.5
			c-1.2-0.9-3-2.3-5.3-4.1c0.8-2.1,0.5-4.5-0.8-6.4c-2.1-2.6-5.7-3.2-8.6-1.5c-3-2.8-6.4-5.9-10-9.5c10.7-5.9,18.6-5.2,19-5.1
			c0.1,0.1,0.2,0.3,0.3,0.4C82.9,48.7,84.8,58.4,82.4,67.5z M63.2,75.7c-0.2-0.9-0.6-1.7-1.1-2.4c-1.9-2.5-5.4-3.1-8-1.4
			c-2.9-1.6-5.6-3.4-8.1-5.4c-0.3-0.2-0.5-0.4-0.7-0.6c1.2-3,0.7-6.4-1.3-9c0-0.1-0.1-0.1-0.2-0.2c0.6-0.6,1.2-1.3,1.9-1.9
			c2.5-2.4,5.1-4.6,8-6.5l0,0h0.1l-0.1,0.1c3.8,3.5,7.8,6.8,11.6,9.8c-1,2.2-0.8,4.7,0.6,6.7c2.2,2.9,6.3,3.4,9.2,1.3
			c0.1-0.1,0.3-0.2,0.4-0.4c2.7,1.9,4.9,3.4,6.1,4.2c-0.9,2.4-2,4.6-3.4,6.7C76.2,77.2,70.7,77.9,63.2,75.7z M72.6,36.4
			c-7-1-14.1,0.4-20.3,3.8c-2.7-2.9-5.7-6.2-8.6-9.5c3-1,6.2-1.5,9.3-1.5C60.2,29.2,67.1,31.7,72.6,36.4z M34.5,35.5
			c1.6-1.2,3.3-2.3,5.1-3.1c2.4,3.7,5.1,7.2,8.2,10.4c-3.1,2.1-5.9,4.6-8.4,7.3c-1,1.1-1.9,2.2-2.8,3.3c-1.5,0-3,0.3-4.3,1
			c-2.4-4-3.5-8.6-3.3-13.3C30.6,38.9,32.4,37.1,34.5,35.5z M25.4,46.8c-0.1,4,1,8,3,11.4c-1.7,3.2-1.4,7.1,0.8,10l0,0
			c-0.7,2.8-1.1,5.7-1.4,8.6C21.8,67.9,20.8,56.5,25.4,46.8z M53,90.1c-7.1,0-14.1-2.5-19.5-7.1c0-3.8,0.5-7.6,1.5-11.3
			c2.4,0.4,4.9-0.1,6.9-1.5l0.8,0.6c2.7,2.1,5.6,4,8.7,5.5c-0.2,1.6,0.2,3.2,1.2,4.5c2,2.7,5.8,3.2,8.5,1.2c0.6-0.5,1.1-1,1.5-1.7
			c3.9,0.8,7.8,1.2,11.7,1.2c-0.9,0.8-1.8,1.6-2.7,2.3C66.2,87.9,59.7,90.1,53,90.1z"/>
		
			<use xlink:href="#New_Symbol_41"  width="20" height="20" x="-10" y="-10" transform="matrix(1 0 0 1 169.06 15)" style="overflow:visible;"/>
		
			<use xlink:href="#New_Symbol_42"  width="20" height="20" x="-10" y="-10" transform="matrix(1 0 0 1 169.06 44.88)" style="overflow:visible;"/>
	</g>
	<g id="Text" class="st3">
		<g>
			<path class="st8" d="M191.1,10.1h-1V6.6c0-1.3-0.5-1.9-1.4-1.9c-0.5,0-0.9,0.2-1.2,0.5c-0.3,0.4-0.5,0.9-0.5,1.4v3.4h-1V1.2h1
				v3.9l0,0c0.4-0.7,1.2-1.2,2-1.1c1.4,0,2,0.8,2,2.4L191.1,10.1z"/>
			<path class="st8" d="M195.6,10c-0.3,0.1-0.6,0.2-0.9,0.2c-1.1,0-1.6-0.6-1.6-1.8V4.9h-1V4.1h1V2.6l1-0.3v1.8h1.5v0.8h-1.5v3.4
				c0,0.3,0,0.6,0.2,0.9c0.2,0.2,0.4,0.3,0.7,0.3c0.2,0,0.4-0.1,0.6-0.2V10z"/>
			<path class="st8" d="M200,10c-0.3,0.1-0.6,0.2-0.9,0.2c-1.1,0-1.6-0.6-1.6-1.8V4.9h-1V4.1h1V2.6l1-0.3v1.8h1.5v0.8h-1.5v3.4
				c0,0.3,0,0.6,0.2,0.9c0.2,0.2,0.4,0.3,0.7,0.3c0.2,0,0.4-0.1,0.6-0.2L200,10z"/>
			<path class="st8" d="M202.1,9.2L202.1,9.2v3.6h-1V4.1h1v1.1l0,0c0.4-0.7,1.2-1.2,2.1-1.2c0.7,0,1.4,0.3,1.8,0.8
				c0.5,0.6,0.7,1.4,0.6,2.2c0,0.9-0.2,1.7-0.7,2.4c-0.5,0.6-1.2,0.9-2,0.9C203.2,10.3,202.5,9.9,202.1,9.2z M202.1,6.8v0.8
				c0,0.5,0.2,0.9,0.5,1.3c0.3,0.3,0.8,0.5,1.2,0.5c0.5,0,1.1-0.2,1.4-0.7c0.4-0.6,0.5-1.2,0.5-1.9c0-0.6-0.1-1.1-0.5-1.6
				c-0.3-0.4-0.8-0.6-1.2-0.6c-0.5,0-1,0.2-1.3,0.6C202.3,5.8,202.1,6.3,202.1,6.8L202.1,6.8z"/>
			<path class="st8" d="M207.8,9.9v-1c0.5,0.4,1.1,0.6,1.7,0.6c0.8,0,1.3-0.3,1.3-0.8c0-0.1,0-0.3-0.1-0.4c-0.1-0.1-0.2-0.2-0.3-0.3
				c-0.1-0.1-0.3-0.2-0.4-0.2l-0.5-0.2c-0.2-0.1-0.5-0.2-0.7-0.3c-0.2-0.1-0.4-0.2-0.5-0.4c-0.1-0.1-0.2-0.3-0.3-0.5
				c-0.1-0.2-0.1-0.4-0.1-0.6c0-0.3,0.1-0.5,0.2-0.7c0.1-0.2,0.3-0.4,0.5-0.6c0.2-0.1,0.5-0.3,0.7-0.3c0.7-0.2,1.5-0.1,2.2,0.2v1
				c-0.4-0.3-1-0.5-1.5-0.5c-0.2,0-0.3,0-0.5,0.1c-0.1,0-0.3,0.1-0.4,0.2c-0.1,0.1-0.2,0.2-0.2,0.3c-0.1,0.1-0.1,0.2-0.1,0.3
				c0,0.1,0,0.3,0.1,0.4c0.1,0.1,0.2,0.2,0.3,0.3c0.1,0.1,0.3,0.2,0.4,0.2l0.5,0.2c0.2,0.1,0.5,0.2,0.7,0.3c0.2,0.1,0.4,0.2,0.5,0.4
				c0.1,0.1,0.3,0.3,0.3,0.5c0.1,0.2,0.1,0.4,0.1,0.6c0,0.3-0.1,0.5-0.2,0.8c-0.1,0.2-0.3,0.4-0.5,0.5c-0.2,0.2-0.5,0.3-0.8,0.3
				c-0.3,0.1-0.6,0.1-0.9,0.1C208.9,10.3,208.3,10.1,207.8,9.9z"/>
			<path class="st8" d="M213.4,5.3c-0.2,0-0.3-0.1-0.5-0.2c-0.1-0.1-0.2-0.3-0.2-0.5c0-0.2,0.1-0.3,0.2-0.5c0.1-0.1,0.3-0.2,0.5-0.2
				c0.2,0,0.3,0.1,0.5,0.2c0.1,0.1,0.2,0.3,0.2,0.5C214.1,5,213.8,5.3,213.4,5.3z M213.4,10.3c-0.2,0-0.3-0.1-0.4-0.3
				c-0.1-0.1-0.2-0.3-0.2-0.5c0-0.2,0.1-0.3,0.2-0.5c0.1-0.1,0.3-0.2,0.5-0.2c0.4,0,0.7,0.3,0.7,0.7c0,0.2-0.1,0.3-0.2,0.5
				C213.8,10.1,213.6,10.2,213.4,10.3L213.4,10.3z"/>
			<path class="st8" d="M219.5,1.7l-4,9.8h-0.9l4-9.8L219.5,1.7z"/>
			<path class="st8" d="M223.2,1.7l-4,9.8h-0.9l4-9.8L223.2,1.7z"/>
			<path class="st8" d="M228.9,4.1l-2.8,7c-0.5,1.2-1.2,1.9-2.1,1.9c-0.2,0-0.4,0-0.6-0.1V12c0.2,0.1,0.4,0.1,0.6,0.1
				c0.5,0,0.9-0.4,1.1-0.9l0.5-1.1l-2.4-6h1.1l1.6,4.6c0,0.1,0.1,0.2,0.1,0.5l0,0c0-0.1,0-0.3,0.1-0.4l1.7-4.6L228.9,4.1z"/>
			<path class="st8" d="M232.3,10.2c-0.8,0-1.6-0.3-2.1-0.8c-0.5-0.6-0.8-1.4-0.8-2.2c-0.1-0.9,0.2-1.7,0.8-2.4
				c0.6-0.6,1.4-0.9,2.2-0.8c0.8,0,1.5,0.3,2.1,0.8c0.5,0.6,0.8,1.5,0.8,2.3c0,0.8-0.3,1.7-0.8,2.3C233.9,10,233.1,10.3,232.3,10.2z
				 M232.4,4.8c-0.6,0-1.1,0.2-1.5,0.6c-0.4,0.5-0.6,1.1-0.5,1.7c0,0.6,0.2,1.2,0.6,1.7c0.4,0.4,0.9,0.6,1.5,0.6
				c0.5,0,1.1-0.2,1.4-0.6c0.4-0.5,0.5-1.1,0.5-1.7c0-0.6-0.1-1.2-0.5-1.7C233.4,5,232.9,4.7,232.4,4.8L232.4,4.8z"/>
			<path class="st8" d="M241.6,10.1h-1v-1l0,0c-0.4,0.7-1.1,1.1-1.9,1.1c-1.4,0-2.1-0.9-2.1-2.6V4.1h1v3.4c0,1.3,0.5,1.9,1.4,1.9
				c0.4,0,0.9-0.2,1.2-0.5c0.3-0.4,0.5-0.9,0.4-1.3V4.1h1L241.6,10.1z"/>
			<path class="st8" d="M246.6,5.1c-0.2-0.1-0.5-0.2-0.7-0.2c-0.4,0-0.8,0.2-1,0.6c-0.3,0.5-0.5,1-0.4,1.5v3.1h-1v-6h1v1.2l0,0
				c0.1-0.4,0.3-0.7,0.6-1c0.3-0.2,0.6-0.3,1-0.3c0.2,0,0.4,0,0.6,0.1L246.6,5.1z"/>
			<path class="st8" d="M247.5,9.9v-1c0.5,0.4,1.1,0.6,1.7,0.6c0.8,0,1.3-0.3,1.3-0.8c0-0.1,0-0.3-0.1-0.4c-0.1-0.1-0.2-0.2-0.3-0.3
				c-0.1-0.1-0.3-0.2-0.4-0.2l-0.5-0.2c-0.2-0.1-0.5-0.2-0.7-0.3c-0.2-0.1-0.4-0.2-0.5-0.4c-0.1-0.1-0.2-0.3-0.3-0.5
				c-0.1-0.2-0.1-0.4-0.1-0.6c0-0.3,0.1-0.5,0.2-0.7c0.1-0.2,0.3-0.4,0.5-0.6c0.2-0.1,0.5-0.3,0.7-0.3c0.3-0.1,0.6-0.1,0.9-0.1
				c0.5,0,1,0.1,1.4,0.3v1c-0.5-0.3-1-0.4-1.5-0.4c-0.2,0-0.3,0-0.5,0.1c-0.1,0-0.3,0.1-0.4,0.2c-0.1,0.1-0.2,0.2-0.2,0.3
				c-0.1,0.1-0.1,0.2-0.1,0.3c0,0.1,0,0.3,0.1,0.4c0.1,0.1,0.1,0.2,0.3,0.3c0.1,0.1,0.3,0.2,0.4,0.2l0.5,0.2
				c0.2,0.1,0.5,0.2,0.7,0.3c0.2,0.1,0.4,0.2,0.5,0.4c0.1,0.1,0.3,0.3,0.4,0.5c0.1,0.2,0.1,0.4,0.1,0.6c0,0.3-0.1,0.5-0.2,0.8
				c-0.1,0.2-0.3,0.4-0.5,0.5c-0.2,0.2-0.5,0.3-0.8,0.3c-0.3,0.1-0.6,0.1-0.9,0.1C248.5,10.3,248,10.2,247.5,9.9z"/>
			<path class="st8" d="M253.3,2.6c-0.2,0-0.3-0.1-0.4-0.2c-0.1-0.1-0.2-0.3-0.2-0.4c0-0.2,0.1-0.3,0.2-0.5c0.1-0.1,0.3-0.2,0.4-0.2
				c0.2,0,0.3,0.1,0.4,0.2c0.1,0.1,0.2,0.3,0.2,0.5c0,0.2-0.1,0.3-0.2,0.4C253.6,2.5,253.5,2.6,253.3,2.6z M253.8,10.1h-1v-6h1V10.1
				z"/>
			<path class="st8" d="M258.4,10c-0.3,0.1-0.6,0.2-0.9,0.2c-1,0-1.6-0.6-1.6-1.8V4.9h-1V4.1h1V2.6l1-0.3v1.8h1.5v0.8H257v3.4
				c0,0.3,0,0.6,0.2,0.9c0.2,0.2,0.4,0.3,0.7,0.3c0.2,0,0.4-0.1,0.6-0.2L258.4,10z"/>
			<path class="st8" d="M264.4,7.3h-4.2c0,0.6,0.2,1.1,0.5,1.6c0.4,0.4,0.9,0.6,1.4,0.5c0.7,0,1.3-0.2,1.8-0.7v0.9
				c-0.6,0.4-1.4,0.6-2.1,0.6c-0.8,0-1.5-0.3-2-0.8c-0.5-0.7-0.8-1.5-0.7-2.3c0-0.8,0.3-1.7,0.8-2.3c0.5-0.6,1.2-0.9,2-0.8
				c0.7,0,1.4,0.2,1.8,0.8c0.5,0.6,0.7,1.4,0.6,2.1L264.4,7.3z M263.4,6.5c0-0.5-0.1-0.9-0.4-1.3c-0.3-0.3-0.7-0.5-1.1-0.5
				c-0.4,0-0.9,0.2-1.1,0.5c-0.3,0.3-0.5,0.8-0.6,1.3H263.4z"/>
			<path class="st8" d="M266.1,10.2c-0.2,0-0.3-0.1-0.5-0.2c-0.1-0.1-0.2-0.3-0.2-0.5c0-0.2,0.1-0.3,0.2-0.5c0.2-0.3,0.6-0.3,0.9,0
				c0,0,0,0,0,0c0.1,0.1,0.2,0.3,0.2,0.5c0,0.2-0.1,0.3-0.2,0.5C266.5,10.2,266.3,10.2,266.1,10.2z"/>
			<path class="st8" d="M272.4,9.8c-0.5,0.3-1.1,0.4-1.6,0.4c-0.8,0-1.5-0.3-2.1-0.8c-0.5-0.6-0.8-1.4-0.8-2.2
				c0-0.9,0.3-1.7,0.9-2.4c0.6-0.6,1.4-0.9,2.3-0.9c0.5,0,1,0.1,1.4,0.3v1C272,5,271.5,4.8,271,4.8c-0.6,0-1.1,0.2-1.5,0.7
				c-0.4,0.5-0.6,1.1-0.6,1.7c0,0.6,0.2,1.2,0.5,1.7c0.4,0.4,0.9,0.6,1.5,0.6c0.5,0,1.1-0.2,1.5-0.5L272.4,9.8z"/>
			<path class="st8" d="M276.2,10.2c-0.8,0-1.6-0.3-2.2-0.8c-0.5-0.6-0.8-1.4-0.8-2.2c0-0.9,0.2-1.7,0.8-2.4
				c0.6-0.6,1.4-0.9,2.3-0.8c0.8,0,1.5,0.3,2.1,0.8c0.5,0.6,0.8,1.5,0.8,2.3c0,0.8-0.3,1.7-0.8,2.3C277.8,10,277,10.3,276.2,10.2z
				 M276.2,4.8c-0.6,0-1.1,0.2-1.5,0.6c-0.4,0.5-0.6,1.1-0.5,1.7c0,0.6,0.2,1.2,0.5,1.7c0.4,0.4,0.9,0.6,1.5,0.6
				c0.5,0,1.1-0.2,1.4-0.6c0.4-0.5,0.5-1.1,0.5-1.7c0-0.6-0.1-1.2-0.5-1.7C277.3,5,276.8,4.7,276.2,4.8L276.2,4.8z"/>
			<path class="st8" d="M289.2,10.1h-1V6.7c0-0.5-0.1-1-0.3-1.4c-0.2-0.3-0.6-0.5-1-0.4c-0.4,0-0.8,0.2-1,0.6
				c-0.3,0.4-0.4,0.9-0.4,1.3v3.4h-1V6.5c0-1.2-0.5-1.8-1.4-1.8c-0.4,0-0.8,0.2-1,0.5c-0.3,0.4-0.4,0.9-0.4,1.4v3.4h-1v-6h1v1l0,0
				c0.4-0.7,1.1-1.1,1.9-1.1c0.4,0,0.8,0.1,1.1,0.3c0.3,0.2,0.5,0.5,0.6,0.9c0.4-0.8,1.1-1.3,2-1.2c1.3,0,2,0.8,2,2.4L289.2,10.1z"
				/>
		</g>
		<g>
			<path class="st8" d="M192.3,39.7h-1.2l-1.4-2.4c-0.1-0.2-0.2-0.4-0.4-0.6c-0.1-0.1-0.2-0.3-0.4-0.4c-0.1-0.1-0.3-0.2-0.4-0.2
				c-0.2,0-0.3-0.1-0.5-0.1h-0.8v3.6h-1v-8.4h2.5c0.3,0,0.7,0,1,0.1c0.3,0.1,0.6,0.2,0.8,0.4c0.2,0.2,0.4,0.4,0.5,0.7
				c0.2,0.6,0.3,1.2,0.1,1.8c-0.1,0.2-0.2,0.5-0.4,0.7c-0.2,0.2-0.4,0.4-0.6,0.5c-0.2,0.1-0.5,0.2-0.8,0.3l0,0
				c0.1,0.1,0.3,0.1,0.4,0.2c0.1,0.1,0.2,0.2,0.3,0.3c0.1,0.1,0.2,0.2,0.3,0.4l0.3,0.5L192.3,39.7z M187.3,32.2v3h1.3
				c0.2,0,0.5,0,0.7-0.1c0.2-0.1,0.4-0.2,0.6-0.3c0.2-0.1,0.3-0.3,0.4-0.5c0.1-0.2,0.1-0.4,0.1-0.7c0-0.4-0.1-0.8-0.4-1.1
				c-0.4-0.3-0.8-0.4-1.3-0.4L187.3,32.2z"/>
			<path class="st8" d="M198,37h-4.2c0,0.6,0.2,1.1,0.5,1.5c0.4,0.4,0.9,0.6,1.4,0.5c0.7,0,1.3-0.2,1.9-0.7v0.9
				c-0.6,0.4-1.3,0.6-2.1,0.6c-0.8,0-1.5-0.3-2-0.8c-0.5-0.7-0.8-1.5-0.7-2.3c0-0.8,0.2-1.6,0.8-2.3c0.5-0.6,1.2-0.9,2-0.9
				c0.7,0,1.4,0.2,1.8,0.8c0.5,0.6,0.7,1.4,0.6,2.1L198,37z M197,36.2c0-0.5-0.1-0.9-0.4-1.3c-0.3-0.3-0.7-0.5-1.1-0.5
				c-0.4,0-0.9,0.2-1.2,0.5c-0.3,0.4-0.5,0.8-0.6,1.3H197z"/>
			<path class="st8" d="M204.6,39.7h-1v-1l0,0c-0.4,0.8-1.2,1.2-2.1,1.2c-0.7,0-1.4-0.3-1.8-0.8c-0.5-0.6-0.7-1.4-0.7-2.2
				c0-0.9,0.2-1.7,0.8-2.4c0.5-0.6,1.2-0.9,2-0.9c0.7,0,1.4,0.3,1.8,1l0,0v-3.8h1L204.6,39.7z M203.6,37v-0.9c0-0.5-0.2-0.9-0.5-1.2
				c-0.3-0.3-0.8-0.5-1.2-0.5c-0.5,0-1.1,0.2-1.4,0.6c-0.4,0.5-0.5,1.1-0.5,1.8c0,0.6,0.1,1.2,0.5,1.6c0.3,0.4,0.8,0.6,1.3,0.6
				c0.5,0,1-0.2,1.3-0.6C203.5,38.1,203.7,37.5,203.6,37L203.6,37z"/>
			<path class="st8" d="M206.9,32.2c-0.2,0-0.3-0.1-0.4-0.2c-0.1-0.1-0.2-0.3-0.2-0.5c0-0.2,0.1-0.3,0.2-0.4
				c0.1-0.1,0.3-0.2,0.4-0.2c0.2,0,0.3,0.1,0.4,0.2c0.1,0.1,0.2,0.3,0.2,0.4c0,0.2-0.1,0.3-0.2,0.4
				C207.2,32.1,207.1,32.2,206.9,32.2z M207.4,39.7h-1v-6h1V39.7z"/>
			<path class="st8" d="M212.3,34.7c-0.2-0.1-0.5-0.2-0.7-0.2c-0.4,0-0.8,0.2-1,0.6c-0.3,0.5-0.5,1-0.4,1.6v3.1h-1v-6h1V35l0,0
				c0.1-0.4,0.3-0.7,0.6-1c0.3-0.2,0.6-0.4,0.9-0.4c0.2,0,0.4,0,0.6,0.1L212.3,34.7z"/>
			<path class="st8" d="M218.2,37H214c0,0.6,0.2,1.1,0.5,1.5c0.4,0.4,0.9,0.6,1.4,0.5c0.7,0,1.3-0.2,1.9-0.7v0.9
				c-0.6,0.4-1.3,0.6-2.1,0.6c-0.8,0-1.5-0.3-2-0.8c-0.5-0.7-0.8-1.5-0.7-2.3c0-0.8,0.2-1.6,0.8-2.3c0.5-0.6,1.2-0.9,2-0.9
				c0.7,0,1.4,0.2,1.8,0.8c0.5,0.6,0.7,1.4,0.6,2.1L218.2,37z M217.2,36.2c0-0.5-0.1-0.9-0.4-1.3c-0.3-0.3-0.7-0.5-1.1-0.5
				c-0.4,0-0.9,0.2-1.2,0.5c-0.3,0.3-0.5,0.8-0.6,1.3H217.2z"/>
			<path class="st8" d="M223.8,39.5c-0.5,0.3-1.1,0.4-1.6,0.4c-0.8,0-1.5-0.3-2.1-0.8c-0.5-0.6-0.8-1.4-0.8-2.2
				c0-0.9,0.3-1.7,0.9-2.4c0.6-0.6,1.4-0.9,2.3-0.9c0.5,0,1,0.1,1.4,0.3v1c-0.4-0.3-0.9-0.5-1.4-0.5c-0.6,0-1.1,0.2-1.5,0.7
				c-0.4,0.5-0.6,1.1-0.6,1.7c0,0.6,0.2,1.2,0.6,1.7c0.4,0.4,0.9,0.6,1.5,0.6c0.5,0,1.1-0.2,1.5-0.5V39.5z"/>
			<path class="st8" d="M228.2,39.7c-0.3,0.1-0.6,0.2-0.9,0.2c-1.1,0-1.6-0.6-1.6-1.8v-3.5h-1v-0.8h1v-1.5l1-0.3v1.8h1.5v0.8h-1.5
				v3.4c0,0.3,0,0.6,0.2,0.9c0.2,0.2,0.4,0.3,0.7,0.3c0.2,0,0.4-0.1,0.6-0.2L228.2,39.7z"/>
		</g>
		<g>
			<path class="st1" d="M405.7,96.3h-1.9v-5c0-0.5,0-1.1,0.1-1.8l0,0c-0.1,0.4-0.2,0.8-0.3,1.1l-2,5.7h-1.5l-2-5.7
				c0-0.2-0.1-0.6-0.3-1.2h0c0,0.8,0.1,1.6,0.1,2.2v4.7h-1.7v-8.4h2.8l1.7,5c0.1,0.4,0.2,0.8,0.3,1.2l0,0c0.1-0.4,0.2-0.8,0.3-1.2
				l1.7-5h2.7L405.7,96.3z"/>
			<path class="st1" d="M408.3,89.3c-0.3,0-0.6-0.1-0.8-0.3c-0.2-0.2-0.3-0.4-0.3-0.7c0-0.3,0.1-0.5,0.3-0.7
				c0.2-0.2,0.5-0.3,0.8-0.3c0.3,0,0.6,0.1,0.8,0.3c0.2,0.2,0.3,0.4,0.3,0.7c0,0.3-0.1,0.5-0.3,0.7
				C408.9,89.2,408.6,89.3,408.3,89.3z M409.2,96.3h-1.9v-6h1.9V96.3z"/>
			<path class="st1" d="M415.3,96.1c-0.6,0.3-1.2,0.4-1.8,0.4c-0.8,0-1.6-0.3-2.2-0.8c-0.6-0.6-0.9-1.4-0.9-2.2
				c-0.1-0.9,0.3-1.8,0.9-2.4c0.7-0.6,1.6-0.9,2.5-0.9c0.5,0,1.1,0.1,1.5,0.3V92c-0.4-0.3-0.8-0.4-1.3-0.4c-1,0.1-1.8,0.9-1.7,1.9
				c0,0.4,0.2,0.8,0.4,1.1c0.3,0.3,0.8,0.5,1.2,0.5c0.5,0,1-0.2,1.4-0.4L415.3,96.1z"/>
			<path class="st1" d="M420.5,92c-0.2-0.1-0.5-0.2-0.8-0.2c-0.4,0-0.7,0.1-1,0.4c-0.2,0.4-0.4,0.8-0.3,1.2v2.9h-1.8v-6h1.9v1.1l0,0
				c0.2-0.7,0.8-1.2,1.6-1.2c0.2,0,0.3,0,0.5,0.1L420.5,92z"/>
			<path class="st1" d="M424.3,96.4c-0.9,0-1.7-0.3-2.4-0.8c-1.1-1.3-1.1-3.3,0-4.6c0.7-0.6,1.5-0.9,2.4-0.8
				c0.9-0.1,1.7,0.3,2.3,0.8c0.6,0.6,0.9,1.4,0.9,2.2c0,0.9-0.3,1.7-0.9,2.4C426.1,96.2,425.2,96.5,424.3,96.4z M424.3,91.6
				c-0.4,0-0.8,0.2-1,0.4c-0.3,0.4-0.4,0.8-0.4,1.3c0,1.2,0.5,1.7,1.4,1.7s1.3-0.6,1.3-1.8S425.3,91.6,424.3,91.6L424.3,91.6z"/>
			<path class="st1" d="M428.5,96.1v-1.5c0.3,0.2,0.6,0.3,0.9,0.4c0.3,0.1,0.6,0.1,0.9,0.1c0.3,0,0.5-0.1,0.8-0.2
				c0.2-0.1,0.3-0.2,0.3-0.4c0-0.1,0-0.2-0.1-0.3c-0.1-0.1-0.2-0.2-0.3-0.2c-0.1-0.1-0.3-0.1-0.4-0.2l-0.5-0.2
				c-0.2-0.1-0.4-0.2-0.6-0.3c-0.2-0.1-0.3-0.2-0.5-0.4c-0.1-0.1-0.2-0.3-0.3-0.5c-0.1-0.2-0.1-0.4-0.1-0.6c0-0.3,0.1-0.6,0.2-0.9
				c0.1-0.2,0.3-0.4,0.6-0.6c0.3-0.2,0.5-0.3,0.8-0.3c0.3-0.1,0.7-0.1,1-0.1c0.3,0,0.5,0,0.8,0.1c0.3,0,0.5,0.1,0.8,0.2v1.5
				c-0.2-0.1-0.5-0.2-0.8-0.3c-0.3-0.1-0.5-0.1-0.8-0.1c-0.2,0-0.4,0-0.6,0.1c-0.1,0-0.1,0.1-0.2,0.2c0,0.1-0.1,0.1-0.1,0.2
				c0,0.1,0,0.2,0.1,0.3c0.1,0.1,0.2,0.1,0.3,0.2c0.1,0.1,0.2,0.1,0.4,0.2l0.4,0.1c0.2,0.1,0.5,0.2,0.7,0.3c0.2,0.1,0.4,0.2,0.5,0.4
				c0.1,0.1,0.3,0.3,0.3,0.5c0.1,0.2,0.1,0.4,0.1,0.7c0,0.3-0.1,0.6-0.2,0.9c-0.2,0.2-0.4,0.5-0.6,0.6c-0.3,0.2-0.6,0.3-0.9,0.3
				c-0.3,0.1-0.7,0.1-1,0.1C429.7,96.4,429.1,96.3,428.5,96.1z"/>
			<path class="st1" d="M437,96.4c-0.9,0-1.7-0.3-2.4-0.8c-1.2-1.3-1.2-3.3,0-4.6c0.7-0.6,1.5-0.9,2.4-0.8c0.9,0,1.7,0.3,2.4,0.8
				c0.6,0.6,0.9,1.4,0.9,2.2c0,0.9-0.3,1.7-0.9,2.4C438.7,96.2,437.9,96.5,437,96.4z M437,91.6c-0.4,0-0.8,0.2-1,0.4
				c-0.3,0.4-0.4,0.8-0.4,1.3c0,1.2,0.5,1.7,1.4,1.7s1.3-0.6,1.3-1.8S438,91.6,437,91.6L437,91.6z"/>
			<path class="st1" d="M445.4,88.8c-0.2-0.1-0.4-0.1-0.7-0.2c-0.6,0-0.9,0.3-0.9,1v0.6h1.4v1.4h-1.4v4.6h-1.9v-4.7h-1v-1.4h1v-0.7
				c0-0.6,0.2-1.2,0.7-1.7c0.5-0.4,1.2-0.7,1.8-0.6c0.3,0,0.6,0,0.9,0.1V88.8z"/>
			<path class="st1" d="M449.9,96.2c-0.4,0.2-0.8,0.2-1.2,0.2c-1.3,0-2-0.7-2-2v-2.8h-1v-1.4h1V89l1.9-0.5v1.8h1.3v1.4h-1.3v2.4
				c0,0.6,0.2,0.9,0.7,0.9c0.2,0,0.4-0.1,0.6-0.2L449.9,96.2z"/>
			<path class="st1" d="M402.3,103.7c-0.3,0-0.6-0.1-0.8-0.3c-0.2-0.2-0.3-0.4-0.3-0.7c0-0.3,0.1-0.5,0.3-0.7c0.5-0.3,1.1-0.3,1.5,0
				c0.2,0.2,0.3,0.4,0.3,0.7c0,0.3-0.1,0.5-0.3,0.7C402.9,103.6,402.6,103.7,402.3,103.7z M403.3,110.7h-1.9v-6h1.9V110.7z"/>
			<path class="st1" d="M410.7,110.7h-1.9v-0.8l0,0c-0.4,0.6-1.1,1-1.9,1c-0.7,0-1.4-0.3-1.8-0.8c-0.5-0.6-0.7-1.4-0.7-2.2
				c0-0.9,0.2-1.7,0.8-2.4c0.5-0.6,1.2-0.9,2-0.9c0.7-0.1,1.3,0.3,1.6,0.8l0,0v-3.6h1.9L410.7,110.7z M408.9,107.8v-0.4
				c0-0.4-0.1-0.7-0.3-1c-0.4-0.5-1.2-0.5-1.7-0.1c-0.1,0.1-0.1,0.1-0.2,0.2c-0.3,0.4-0.4,0.9-0.4,1.3c0,0.4,0.1,0.9,0.3,1.2
				c0.4,0.5,1.2,0.6,1.7,0.2c0.1-0.1,0.1-0.1,0.2-0.2C408.8,108.6,408.9,108.2,408.9,107.8z"/>
			<path class="st1" d="M417.6,108.2h-3.9c0.1,0.9,0.6,1.3,1.6,1.3c0.6,0,1.2-0.1,1.7-0.5v1.3c-0.7,0.3-1.4,0.5-2.2,0.4
				c-1.5,0.2-2.9-1-3.1-2.5c0-0.2,0-0.4,0-0.5c0-0.9,0.3-1.7,0.9-2.4c0.6-0.6,1.3-0.9,2.1-0.9c0.7,0,1.5,0.2,2,0.8
				c0.5,0.6,0.8,1.3,0.7,2.1L417.6,108.2z M415.9,107.1c0-0.9-0.4-1.3-1-1.3c-0.3,0-0.6,0.1-0.8,0.4c-0.2,0.3-0.4,0.6-0.4,0.9H415.9
				z"/>
			<path class="st1" d="M424.6,110.7h-1.8v-3.3c0-0.9-0.3-1.4-1-1.4c-0.3,0-0.6,0.1-0.8,0.4c-0.2,0.3-0.3,0.6-0.3,0.9v3.4h-1.9v-6
				h1.9v0.9l0,0c0.4-0.7,1.1-1.1,1.9-1.1c1.3,0,2,0.8,2,2.5L424.6,110.7z"/>
			<path class="st1" d="M429.6,110.6c-0.4,0.2-0.8,0.2-1.2,0.2c-1.3,0-2-0.7-2-2v-2.7h-1v-1.4h1v-1.3l1.9-0.5v1.8h1.3v1.4h-1.3v2.4
				c0,0.6,0.2,0.9,0.7,0.9c0.2,0,0.4-0.1,0.6-0.2L429.6,110.6z"/>
			<path class="st1" d="M431.7,103.7c-0.3,0-0.6-0.1-0.8-0.3c-0.2-0.2-0.3-0.4-0.3-0.7c0-0.3,0.1-0.5,0.3-0.7
				c0.2-0.2,0.5-0.3,0.8-0.3c0.3,0,0.6,0.1,0.8,0.3c0.2,0.2,0.3,0.4,0.3,0.7c0,0.3-0.1,0.5-0.3,0.7
				C432.2,103.6,432,103.7,431.7,103.7z M432.6,110.7h-1.9v-6h1.9V110.7z"/>
			<path class="st1" d="M437.7,110.6c-0.4,0.2-0.8,0.2-1.2,0.2c-1.3,0-2-0.7-2-2v-2.7h-1v-1.4h1v-1.3l1.9-0.5v1.8h1.3v1.4h-1.3v2.4
				c0,0.6,0.2,0.9,0.7,0.9c0.2,0,0.4-0.1,0.6-0.2L437.7,110.6z"/>
			<path class="st1" d="M444.8,104.7l-2.4,6.5c-0.6,1.6-1.5,2.3-2.6,2.3c-0.4,0-0.8,0-1.1-0.2v-1.5c0.2,0.1,0.5,0.2,0.8,0.2
				c0.4,0,0.9-0.3,1-0.7l0.3-0.7l-2.4-6h2l1.1,3.7c0.1,0.3,0.1,0.5,0.2,0.8l0,0c0-0.3,0.1-0.5,0.2-0.8l1.1-3.7L444.8,104.7z"/>
			<path class="st1" d="M400.4,124.4L400.4,124.4v3.5h-1.9v-8.8h1.9v0.9l0,0c0.7-1.1,2.2-1.4,3.3-0.6c0.2,0.1,0.3,0.2,0.5,0.4
				c0.4,0.6,0.7,1.4,0.6,2.2c0,0.9-0.2,1.7-0.7,2.4c-0.5,0.6-1.2,0.9-2,0.9C401.4,125.3,400.8,124.9,400.4,124.4z M400.4,121.9v0.5
				c0,0.4,0.1,0.7,0.3,1c0.2,0.3,0.5,0.4,0.9,0.4c0.4,0,0.8-0.2,1-0.5c0.3-0.4,0.4-0.9,0.4-1.4c0-1.1-0.4-1.6-1.2-1.6
				c-0.4,0-0.7,0.2-0.9,0.4C400.5,121.1,400.3,121.5,400.4,121.9L400.4,121.9z"/>
			<path class="st1" d="M407.9,125.1H406v-8.9h1.9L407.9,125.1z"/>
			<path class="st1" d="M414.4,125.1h-1.8v-0.9l0,0c-0.4,0.6-1.1,1-1.8,1c-0.5,0-1-0.2-1.4-0.5c-0.3-0.3-0.5-0.8-0.5-1.3
				c0-1.2,0.7-1.8,2.1-2l1.6-0.2c0-0.7-0.4-1-1.1-1c-0.7,0-1.4,0.2-2,0.6v-1.4c0.3-0.2,0.7-0.3,1-0.3c0.4-0.1,0.8-0.2,1.2-0.2
				c1.2-0.2,2.4,0.7,2.6,1.9c0,0.2,0,0.4,0,0.6L414.4,125.1z M412.7,122.6v-0.4l-1.1,0.1c-0.6,0.1-0.9,0.4-0.9,0.8
				c0,0.2,0.1,0.4,0.2,0.5c0.2,0.1,0.4,0.2,0.6,0.2c0.3,0,0.6-0.1,0.9-0.4C412.6,123.3,412.7,123,412.7,122.6z"/>
			<path class="st1" d="M419.5,125c-0.4,0.2-0.8,0.2-1.2,0.2c-1.3,0-2-0.7-2-2v-2.7h-1v-1.4h1v-1.3l1.9-0.5v1.8h1.4v1.4h-1.3v2.4
				c0,0.6,0.3,0.9,0.7,0.9c0.2,0,0.4-0.1,0.6-0.2L419.5,125z"/>
			<path class="st1" d="M424.6,117.6c-0.2-0.1-0.5-0.1-0.7-0.2c-0.6,0-0.9,0.3-0.9,1v0.6h1.4v1.4H423v4.6h-1.8v-4.6h-1v-1.4h1v-0.7
				c0-0.6,0.2-1.2,0.7-1.7c0.5-0.4,1.2-0.7,1.8-0.6c0.3,0,0.6,0,0.9,0.1L424.6,117.6z"/>
			<path class="st1" d="M428.1,125.2c-0.9,0-1.7-0.3-2.4-0.8c-1.2-1.3-1.2-3.3,0-4.6c0.7-0.6,1.5-0.9,2.4-0.8c0.9,0,1.7,0.3,2.4,0.8
				c0.6,0.6,0.9,1.4,0.9,2.2c0,0.9-0.3,1.7-0.9,2.4C429.9,125,429,125.3,428.1,125.2z M428.2,120.4c-0.4,0-0.8,0.2-1,0.4
				c-0.3,0.4-0.4,0.8-0.4,1.3c0,1.2,0.5,1.7,1.4,1.7s1.3-0.6,1.3-1.8S429.1,120.3,428.2,120.4z"/>
			<path class="st1" d="M436.5,120.8c-0.2-0.1-0.5-0.2-0.8-0.2c-0.4,0-0.7,0.1-1,0.4c-0.2,0.4-0.4,0.8-0.3,1.2v2.9h-1.9v-6h1.9v1.1
				l0,0c0.2-0.7,0.8-1.2,1.6-1.2c0.2,0,0.3,0,0.5,0.1L436.5,120.8z"/>
			<path class="st1" d="M446.9,125.1h-1.8v-3.4c0-0.9-0.3-1.3-1-1.3c-0.3,0-0.6,0.1-0.8,0.4c-0.2,0.3-0.3,0.6-0.3,1v3.4h-1.9v-3.5
				c0-0.8-0.3-1.3-0.9-1.3c-0.3,0-0.6,0.1-0.8,0.4c-0.2,0.3-0.3,0.6-0.3,1v3.3h-1.9v-6h1.9v0.9l0,0c0.2-0.3,0.5-0.6,0.8-0.8
				c0.3-0.2,0.7-0.3,1.1-0.3c0.8-0.1,1.5,0.4,1.7,1.1c0.4-0.7,1.2-1.1,2-1.1c1.3,0,2,0.8,2,2.4L446.9,125.1z"/>
		</g>
		<g>
			<path d="M407.3,23.9h-2.1l-0.6-1.9h-3l-0.6,1.9h-2l3.1-8.4h2.2L407.3,23.9z M404.2,20.6l-0.9-2.8c-0.1-0.2-0.1-0.5-0.1-0.8l0,0
				c0,0.2-0.1,0.5-0.1,0.7l-1,2.9H404.2z"/>
			<path d="M408,23.6v-1.9c0.3,0.3,0.7,0.5,1.1,0.6c0.4,0.1,0.8,0.2,1.2,0.2c0.2,0,0.4,0,0.6-0.1c0.2,0,0.3-0.1,0.4-0.2
				c0.1-0.1,0.2-0.2,0.3-0.3c0.1-0.1,0.1-0.2,0.1-0.3c0-0.2,0-0.3-0.1-0.4c-0.1-0.1-0.2-0.3-0.4-0.4c-0.2-0.1-0.4-0.2-0.6-0.3
				l-0.7-0.3c-0.6-0.2-1.1-0.6-1.5-1c-0.3-0.4-0.5-0.9-0.5-1.4c0-0.4,0.1-0.8,0.3-1.1c0.2-0.3,0.4-0.6,0.7-0.8
				c0.3-0.2,0.7-0.4,1.1-0.4c0.4-0.1,0.8-0.2,1.3-0.1c0.4,0,0.8,0,1.2,0.1c0.3,0.1,0.6,0.1,0.9,0.3v1.7c-0.1-0.1-0.3-0.2-0.5-0.3
				c-0.2-0.1-0.3-0.1-0.5-0.2c-0.2-0.1-0.4-0.1-0.5-0.1c-0.2,0-0.3,0-0.5,0c-0.2,0-0.4,0-0.6,0.1c-0.2,0-0.3,0.1-0.4,0.2
				c-0.1,0.1-0.2,0.2-0.3,0.3c-0.1,0.1-0.1,0.2-0.1,0.4c0,0.1,0,0.3,0.1,0.4c0.1,0.1,0.2,0.2,0.3,0.3c0.2,0.1,0.3,0.2,0.5,0.3
				l0.7,0.3c0.3,0.1,0.6,0.3,0.9,0.4c0.3,0.1,0.5,0.3,0.7,0.5c0.2,0.2,0.3,0.4,0.4,0.7c0.1,0.3,0.2,0.6,0.1,0.9
				c0,0.4-0.1,0.8-0.3,1.2c-0.2,0.3-0.4,0.6-0.7,0.8c-0.3,0.2-0.7,0.4-1.1,0.4c-0.4,0.1-0.9,0.1-1.3,0.1c-0.4,0-0.9,0-1.3-0.1
				C408.7,23.9,408.3,23.8,408,23.6z"/>
			<path d="M417,21v2.9h-1.9v-8.4h3c2.1,0,3.2,0.9,3.2,2.7c0,0.8-0.3,1.5-0.9,2c-0.7,0.5-1.6,0.8-2.4,0.8L417,21z M417,17v2.6h0.7
				c1,0,1.5-0.4,1.5-1.3s-0.5-1.3-1.5-1.3H417z"/>
			<path d="M421.9,24.1c-0.3,0-0.6-0.1-0.8-0.3c-0.2-0.2-0.3-0.4-0.3-0.7c0-0.3,0.1-0.5,0.3-0.7c0.2-0.2,0.5-0.3,0.8-0.3
				c0.3,0,0.6,0.1,0.8,0.3c0.2,0.2,0.3,0.4,0.3,0.7c0,0.3-0.1,0.5-0.3,0.7C422.5,24,422.2,24.1,421.9,24.1z"/>
			<path d="M432.1,23.9h-1.9l-3.5-5.3c-0.2-0.2-0.3-0.5-0.4-0.7l0,0c0,0.3,0,0.8,0,1.4v4.6h-1.8v-8.4h2l3.3,5.1
				c0.1,0.2,0.3,0.5,0.4,0.7l0,0c0-0.4-0.1-0.8,0-1.2v-4.6h1.8L432.1,23.9z"/>
			<path d="M439,23.9h-5v-8.4h4.8v1.5h-3v1.9h2.8v1.5h-2.8v1.9h3.1V23.9z"/>
			<path d="M446.3,17.1h-2.4v6.9H442v-6.9h-2.4v-1.5h6.7V17.1z"/>
			<path d="M408.4,29.9l-2.2,8.4h-2.1l-1.4-5.4c-0.1-0.3-0.1-0.6-0.1-1l0,0c0,0.3-0.1,0.6-0.2,1l-1.4,5.4h-2.2l-2.2-8.4h2.1l1.2,5.6
				c0.1,0.3,0.1,0.7,0.1,1l0,0c0-0.3,0.1-0.7,0.2-1l1.5-5.6h2l1.4,5.6c0.1,0.3,0.1,0.6,0.1,0.9l0,0c0-0.3,0.1-0.6,0.1-0.9l1.2-5.6
				L408.4,29.9z"/>
			<path d="M414.4,35.8h-3.9c0.1,0.9,0.6,1.3,1.6,1.3c0.6,0,1.2-0.1,1.7-0.5V38c-0.7,0.3-1.4,0.5-2.2,0.4c-0.8,0.1-1.7-0.2-2.3-0.8
				c-0.6-0.6-0.8-1.4-0.8-2.3c0-0.9,0.3-1.7,0.9-2.4c0.6-0.6,1.3-0.9,2.1-0.9c0.7,0,1.5,0.2,2,0.8c0.5,0.6,0.8,1.3,0.7,2.1
				L414.4,35.8z M412.7,34.7c0-0.9-0.4-1.3-1-1.3c-0.3,0-0.6,0.1-0.8,0.4c-0.2,0.3-0.4,0.6-0.4,0.9L412.7,34.7z"/>
			<path d="M417.4,37.6L417.4,37.6v0.7h-1.9v-8.9h1.9v3.8l0,0c0.4-0.7,1.2-1,2-1c0.7,0,1.4,0.3,1.8,0.8c0.5,0.6,0.7,1.4,0.6,2.2
				c0,0.9-0.2,1.7-0.7,2.4c-0.5,0.6-1.2,0.9-2,0.9C418.4,38.5,417.8,38.2,417.4,37.6z M417.4,35.1v0.6c0,0.4,0.1,0.7,0.3,1
				c0.2,0.2,0.5,0.4,0.9,0.4c0.4,0,0.8-0.2,1-0.5c0.3-0.4,0.4-0.9,0.4-1.4c0-0.4-0.1-0.8-0.3-1.2c-0.2-0.3-0.6-0.4-0.9-0.4
				c-0.4,0-0.7,0.1-0.9,0.4C417.5,34.3,417.4,34.7,417.4,35.1z"/>
			<path d="M433.9,38.3h-2.1l-0.6-1.9h-3l-0.6,1.9h-2l3.1-8.4h2.2L433.9,38.3z M430.8,35l-0.9-2.8c-0.1-0.2-0.1-0.5-0.1-0.8l0,0
				c0,0.2-0.1,0.5-0.1,0.7l-1,2.9H430.8z"/>
			<path d="M436.6,37.6L436.6,37.6v3.5h-1.9v-8.8h1.9v0.9l0,0c0.7-1.1,2.2-1.4,3.3-0.6c0.2,0.1,0.3,0.2,0.5,0.4
				c0.5,0.6,0.7,1.4,0.6,2.2c0,0.9-0.2,1.7-0.8,2.4c-0.5,0.6-1.2,0.9-2,0.9C437.6,38.5,437,38.2,436.6,37.6z M436.6,35.2v0.5
				c0,0.4,0.1,0.7,0.3,1c0.2,0.3,0.5,0.4,0.9,0.4c0.4,0,0.8-0.2,1-0.5c0.3-0.4,0.4-0.9,0.4-1.4c0-1-0.4-1.6-1.2-1.6
				c-0.4,0-0.7,0.1-0.9,0.4C436.7,34.3,436.6,34.7,436.6,35.2z"/>
			<path d="M444.1,37.6L444.1,37.6v3.5h-1.9v-8.8h1.9v0.9l0,0c0.7-1.1,2.2-1.4,3.3-0.6c0.2,0.1,0.3,0.2,0.5,0.4
				c0.5,0.6,0.7,1.4,0.6,2.2c0,0.9-0.2,1.7-0.7,2.4c-0.5,0.6-1.2,0.9-2,0.9C445.1,38.5,444.4,38.2,444.1,37.6z M444,35.2v0.5
				c0,0.4,0.1,0.7,0.3,1c0.2,0.3,0.5,0.4,0.9,0.4c0.4,0,0.8-0.2,1-0.5c0.3-0.4,0.4-0.9,0.4-1.4c0-1-0.4-1.6-1.2-1.6
				c-0.4,0-0.7,0.1-0.9,0.4C444.1,34.3,444,34.7,444,35.2z"/>
		</g>
		<g>
			<path class="st8" d="M185.8,63.9v3.2h-1v-8.4h2.3c0.8-0.1,1.5,0.2,2.1,0.7c0.5,0.5,0.8,1.2,0.7,1.8c0,0.7-0.3,1.5-0.8,2
				c-0.6,0.5-1.4,0.8-2.2,0.8H185.8z M185.8,59.6V63h1c0.6,0,1.1-0.1,1.6-0.5c0.4-0.3,0.6-0.8,0.5-1.3c0-1.1-0.6-1.7-2-1.7
				L185.8,59.6z"/>
			<path class="st8" d="M194.4,62.1c-0.2-0.1-0.5-0.2-0.7-0.2c-0.4,0-0.8,0.2-1,0.6c-0.3,0.5-0.5,1-0.4,1.6v3.1h-1v-6h1v1.2l0,0
				c0.1-0.4,0.3-0.7,0.6-1c0.3-0.2,0.6-0.4,0.9-0.3c0.2,0,0.4,0,0.6,0.1L194.4,62.1z"/>
			<path class="st8" d="M197.9,67.2c-0.8,0-1.6-0.3-2.1-0.8c-0.5-0.6-0.8-1.4-0.8-2.2c-0.1-0.9,0.2-1.7,0.8-2.4
				c0.6-0.6,1.4-0.9,2.2-0.8c0.8,0,1.6,0.3,2.1,0.8c1,1.4,1,3.2-0.1,4.6C199.5,67,198.8,67.3,197.9,67.2z M198,61.8
				c-0.6,0-1.1,0.2-1.5,0.6c-0.4,0.5-0.6,1.1-0.5,1.7c0,0.6,0.2,1.2,0.6,1.7c0.4,0.4,0.9,0.6,1.4,0.6c0.5,0,1.1-0.2,1.4-0.6
				c0.4-0.5,0.5-1.1,0.5-1.7c0-0.6-0.1-1.2-0.5-1.7C199.1,62,198.6,61.7,198,61.8L198,61.8z"/>
			<path class="st8" d="M210.9,67.1h-1v-3.4c0-0.5-0.1-1-0.3-1.5c-0.2-0.3-0.6-0.5-1-0.4c-0.4,0-0.8,0.2-1,0.6
				c-0.3,0.4-0.4,0.9-0.4,1.3v3.4h-1v-3.6c0-1.2-0.4-1.8-1.4-1.8c-0.4,0-0.8,0.2-1.1,0.5c-0.3,0.4-0.4,0.9-0.4,1.4v3.4h-1v-6h1v1
				l0,0c0.4-0.7,1.1-1.1,1.9-1c0.8,0,1.5,0.5,1.7,1.2c0.4-0.8,1.2-1.2,2-1.2c1.3,0,2,0.8,2,2.4L210.9,67.1z"/>
			<path class="st8" d="M213.7,66.2L213.7,66.2v3.6h-1v-8.8h1v1.1l0,0c0.4-0.8,1.2-1.2,2.1-1.2c0.7,0,1.4,0.3,1.8,0.8
				c0.5,0.6,0.7,1.4,0.6,2.2c0,0.9-0.2,1.7-0.7,2.4c-0.5,0.6-1.2,0.9-2,0.9C214.7,67.3,214,66.9,213.7,66.2z M213.7,63.8v0.8
				c0,0.5,0.2,0.9,0.5,1.3c0.7,0.7,1.8,0.7,2.4,0c0.1-0.1,0.1-0.1,0.2-0.2c0.4-0.6,0.5-1.2,0.5-1.9c0-0.6-0.1-1.1-0.5-1.6
				c-0.3-0.4-0.8-0.6-1.3-0.6c-0.5,0-1,0.2-1.4,0.6C213.8,62.8,213.6,63.3,213.7,63.8L213.7,63.8z"/>
			<path class="st8" d="M222.4,67c-0.3,0.1-0.6,0.2-0.9,0.2c-1.1,0-1.6-0.6-1.6-1.8v-3.5h-1v-0.8h1v-1.5l1-0.3v1.8h1.5v0.8H221v3.4
				c0,0.3,0,0.6,0.2,0.9c0.2,0.2,0.4,0.3,0.7,0.3c0.2,0,0.4-0.1,0.6-0.2L222.4,67z"/>
			<path class="st8" d="M188.8,79.8c-0.5,0.3-1.1,0.4-1.6,0.4c-0.8,0-1.5-0.3-2.1-0.8c-0.5-0.6-0.8-1.4-0.8-2.2
				c0-0.9,0.3-1.7,0.9-2.4c0.6-0.6,1.4-0.9,2.3-0.9c0.5,0,1,0.1,1.4,0.3v1c-0.4-0.3-0.9-0.5-1.4-0.5c-0.6,0-1.1,0.2-1.5,0.7
				c-0.4,0.5-0.6,1.1-0.6,1.7c0,0.6,0.2,1.2,0.6,1.7c0.4,0.4,0.9,0.6,1.5,0.6c0.5,0,1.1-0.2,1.5-0.5L188.8,79.8z"/>
			<path class="st8" d="M193.2,75.1c-0.2-0.1-0.5-0.2-0.7-0.2c-0.4,0-0.8,0.2-1,0.6c-0.3,0.5-0.5,1-0.5,1.5v3.1h-1v-6h1v1.2l0,0
				c0.1-0.4,0.3-0.7,0.6-1c0.3-0.2,0.6-0.4,0.9-0.3c0.2,0,0.4,0,0.6,0.1L193.2,75.1z"/>
			<path class="st8" d="M199.1,77.3h-4.2c0,0.6,0.2,1.1,0.5,1.6c0.4,0.4,0.9,0.6,1.4,0.5c0.7,0,1.3-0.2,1.9-0.7v0.9
				c-0.6,0.4-1.4,0.6-2.1,0.6c-0.8,0-1.5-0.3-2-0.8c-0.5-0.7-0.8-1.5-0.7-2.3c0-0.8,0.2-1.6,0.8-2.3c0.5-0.6,1.2-0.9,2-0.9
				c0.7,0,1.4,0.2,1.8,0.8c0.5,0.6,0.7,1.4,0.6,2.1L199.1,77.3z M198.1,76.5c0-0.5-0.1-0.9-0.4-1.3c-0.3-0.3-0.7-0.5-1.1-0.5
				c-0.4,0-0.9,0.2-1.1,0.5c-0.3,0.3-0.5,0.8-0.6,1.3L198.1,76.5z"/>
			<path class="st8" d="M205.7,80.1h-1v-1l0,0c-0.4,0.8-1.2,1.2-2.1,1.2c-0.7,0-1.4-0.3-1.8-0.8c-0.5-0.6-0.7-1.4-0.7-2.2
				c0-0.9,0.2-1.7,0.8-2.4c0.5-0.6,1.2-0.9,2-0.9c0.7,0,1.4,0.3,1.8,1l0,0v-3.8h1L205.7,80.1z M204.7,77.4v-0.9
				c0-0.5-0.2-0.9-0.5-1.2c-0.3-0.3-0.8-0.5-1.2-0.5c-0.5,0-1.1,0.2-1.4,0.6c-0.4,0.5-0.5,1.1-0.5,1.8c0,0.6,0.1,1.2,0.5,1.6
				c0.3,0.4,0.8,0.6,1.3,0.6c0.5,0,1-0.2,1.3-0.6C204.6,78.4,204.8,77.9,204.7,77.4L204.7,77.4z"/>
			<path class="st8" d="M212.4,77.3h-4.2c0,0.6,0.2,1.1,0.5,1.6c0.4,0.4,0.9,0.6,1.4,0.5c0.7,0,1.3-0.2,1.9-0.7v0.9
				c-0.6,0.4-1.4,0.6-2.1,0.6c-0.8,0-1.5-0.3-2-0.8c-0.5-0.7-0.8-1.5-0.7-2.3c0-0.8,0.2-1.6,0.8-2.3c0.5-0.6,1.2-0.9,2-0.9
				c0.7,0,1.4,0.2,1.8,0.8c0.5,0.6,0.7,1.4,0.6,2.1L212.4,77.3z M211.4,76.5c0-0.5-0.1-0.9-0.4-1.3c-0.3-0.3-0.7-0.5-1.1-0.5
				c-0.4,0-0.9,0.2-1.1,0.5c-0.3,0.3-0.5,0.8-0.6,1.3L211.4,76.5z"/>
			<path class="st8" d="M218.9,80.1h-1v-3.4c0-1.3-0.5-1.9-1.4-1.9c-0.5,0-0.9,0.2-1.2,0.5c-0.3,0.4-0.5,0.9-0.5,1.4v3.4h-1v-6h1v1
				l0,0c0.4-0.7,1.2-1.2,2-1.1c0.6,0,1.1,0.2,1.5,0.6c0.4,0.5,0.6,1.2,0.5,1.8L218.9,80.1z"/>
			<path class="st8" d="M223.4,80c-0.3,0.1-0.6,0.2-0.9,0.2c-1.1,0-1.6-0.6-1.6-1.8v-3.5h-1v-0.8h1v-1.5l1-0.3v1.8h1.5v0.8h-1.5v3.4
				c0,0.3,0,0.6,0.2,0.9c0.2,0.2,0.4,0.3,0.7,0.3c0.2,0,0.4-0.1,0.6-0.2L223.4,80z"/>
			<path class="st8" d="M225.1,72.6c-0.2,0-0.3-0.1-0.4-0.2c-0.1-0.1-0.2-0.3-0.2-0.4c0-0.2,0.1-0.3,0.2-0.4
				c0.1-0.1,0.3-0.2,0.4-0.2c0.2,0,0.3,0.1,0.4,0.2c0.1,0.1,0.2,0.3,0.2,0.4c0,0.2-0.1,0.3-0.2,0.4
				C225.4,72.5,225.2,72.6,225.1,72.6z M225.5,80.1h-1v-6h1V80.1z"/>
			<path class="st8" d="M231.6,80.1h-1v-0.9l0,0c-0.4,0.7-1.1,1.1-1.8,1.1c-0.5,0-1-0.1-1.4-0.5c-0.3-0.3-0.5-0.8-0.5-1.3
				c0-1.1,0.7-1.8,2-2l1.8-0.3c0-1-0.4-1.5-1.2-1.5c-0.7,0-1.4,0.3-2,0.7v-1c0.6-0.4,1.3-0.6,2-0.6c1.4,0,2.1,0.8,2.1,2.2
				L231.6,80.1z M230.6,77.1l-1.4,0.2c-0.4,0-0.7,0.1-1,0.3c-0.2,0.2-0.4,0.5-0.3,0.8c0,0.3,0.1,0.5,0.3,0.7
				c0.2,0.2,0.5,0.3,0.8,0.3c0.4,0,0.9-0.2,1.2-0.5c0.3-0.3,0.5-0.8,0.5-1.3L230.6,77.1z"/>
			<path class="st8" d="M234.4,80.1h-1v-8.9h1V80.1z"/>
			<path class="st8" d="M235.9,79.9v-1c0.5,0.4,1.1,0.6,1.7,0.6c0.8,0,1.3-0.3,1.3-0.8c0-0.1,0-0.3-0.1-0.4
				c-0.1-0.1-0.2-0.2-0.3-0.3c-0.1-0.1-0.3-0.2-0.4-0.2l-0.5-0.2c-0.2-0.1-0.5-0.2-0.7-0.3c-0.2-0.1-0.4-0.2-0.5-0.4
				c-0.1-0.1-0.2-0.3-0.3-0.5c-0.1-0.2-0.1-0.4-0.1-0.6c0-0.3,0.1-0.5,0.2-0.7c0.1-0.2,0.3-0.4,0.5-0.6c0.2-0.1,0.5-0.3,0.7-0.3
				c0.3-0.1,0.6-0.1,0.9-0.1c0.5,0,1,0.1,1.4,0.3v1c-0.5-0.3-1-0.4-1.5-0.4c-0.2,0-0.3,0-0.5,0.1c-0.1,0-0.3,0.1-0.4,0.2
				c-0.1,0.1-0.2,0.2-0.2,0.3c-0.1,0.1-0.1,0.2-0.1,0.3c0,0.1,0,0.3,0.1,0.4c0.1,0.1,0.2,0.2,0.3,0.3c0.1,0.1,0.3,0.2,0.4,0.2
				l0.5,0.2c0.2,0.1,0.5,0.2,0.7,0.3c0.2,0.1,0.4,0.2,0.5,0.4c0.1,0.1,0.3,0.3,0.4,0.5c0.1,0.2,0.1,0.4,0.1,0.6
				c0,0.3-0.1,0.5-0.2,0.8c-0.1,0.2-0.3,0.4-0.5,0.5c-0.2,0.2-0.5,0.3-0.8,0.3c-0.3,0.1-0.6,0.1-0.9,0.1
				C236.9,80.3,236.4,80.2,235.9,79.9z"/>
		</g>
		<g>
			<polygon class="st9" points="192.7,105.2 185.2,110.6 188.1,119.4 197.4,119.4 200.3,110.6 			"/>
			<g>
				<path class="st8" d="M211.6,116.3h-1.1l-0.9-2.3H206l-0.8,2.3h-1.1l3.2-8.4h1L211.6,116.3z M209.3,113.1l-1.3-3.6
					c-0.1-0.2-0.1-0.4-0.1-0.6l0,0c0,0.2-0.1,0.4-0.1,0.6l-1.3,3.6H209.3z"/>
				<path class="st8" d="M216.6,116.1c-0.5,0.3-1.1,0.4-1.6,0.4c-0.8,0-1.5-0.3-2.1-0.8c-0.5-0.6-0.8-1.4-0.8-2.2
					c0-0.9,0.3-1.7,0.9-2.4c0.6-0.6,1.4-0.9,2.3-0.9c0.5,0,1,0.1,1.4,0.3v1c-0.4-0.3-0.9-0.5-1.4-0.5c-0.6,0-1.1,0.2-1.5,0.7
					c-0.4,0.5-0.6,1.1-0.6,1.7c0,0.6,0.2,1.2,0.6,1.7c0.4,0.4,0.9,0.6,1.5,0.6c0.5,0,1.1-0.2,1.5-0.5L216.6,116.1z"/>
				<path class="st8" d="M222,116.1c-0.5,0.3-1.1,0.4-1.6,0.4c-0.8,0-1.5-0.3-2.1-0.8c-0.5-0.6-0.8-1.4-0.8-2.2
					c0-0.9,0.3-1.7,0.9-2.4c0.6-0.6,1.4-0.9,2.3-0.9c0.5,0,1,0.1,1.4,0.3v1c-0.4-0.3-0.9-0.5-1.4-0.5c-0.6,0-1.1,0.2-1.5,0.7
					c-0.4,0.5-0.6,1.1-0.6,1.7c0,0.6,0.2,1.2,0.6,1.7c0.4,0.4,0.9,0.6,1.5,0.6c0.5,0,1.1-0.2,1.5-0.5L222,116.1z"/>
				<path class="st8" d="M228.2,113.6h-4.2c0,0.6,0.2,1.1,0.5,1.6c0.4,0.4,0.9,0.6,1.4,0.5c0.7,0,1.3-0.2,1.9-0.7v0.9
					c-0.6,0.4-1.4,0.6-2.1,0.6c-0.8,0-1.5-0.3-2-0.8c-0.5-0.7-0.8-1.5-0.7-2.3c0-0.8,0.2-1.6,0.8-2.3c0.5-0.6,1.2-0.9,2-0.9
					c0.7,0,1.4,0.2,1.8,0.8c0.5,0.6,0.7,1.4,0.6,2.1L228.2,113.6z M227.2,112.8c0-0.5-0.1-0.9-0.4-1.3c-0.3-0.3-0.7-0.5-1.1-0.5
					c-0.4,0-0.9,0.2-1.1,0.5c-0.3,0.3-0.5,0.8-0.6,1.3L227.2,112.8z"/>
				<path class="st8" d="M229.3,116.1v-1c0.5,0.4,1.1,0.6,1.7,0.6c0.8,0,1.3-0.3,1.3-0.8c0-0.1,0-0.3-0.1-0.4
					c-0.1-0.1-0.2-0.2-0.3-0.3c-0.1-0.1-0.3-0.2-0.4-0.2l-0.5-0.2c-0.2-0.1-0.5-0.2-0.7-0.3c-0.2-0.1-0.4-0.2-0.5-0.4
					c-0.1-0.1-0.2-0.3-0.3-0.5c-0.1-0.2-0.1-0.4-0.1-0.6c0-0.3,0.1-0.5,0.2-0.7c0.1-0.2,0.3-0.4,0.5-0.6c0.2-0.1,0.5-0.3,0.7-0.3
					c0.3-0.1,0.6-0.1,0.9-0.1c0.5,0,1,0.1,1.4,0.3v1c-0.5-0.3-1-0.4-1.5-0.4c-0.2,0-0.3,0-0.5,0.1c-0.1,0-0.3,0.1-0.4,0.2
					c-0.1,0.1-0.2,0.2-0.2,0.3c-0.1,0.1-0.1,0.2-0.1,0.3c0,0.1,0,0.3,0.1,0.4c0.1,0.1,0.2,0.2,0.3,0.3c0.1,0.1,0.3,0.2,0.4,0.2
					l0.5,0.2c0.2,0.1,0.5,0.2,0.7,0.3c0.2,0.1,0.4,0.2,0.5,0.4c0.1,0.1,0.3,0.3,0.3,0.5c0.1,0.2,0.1,0.4,0.1,0.6
					c0,0.3-0.1,0.5-0.2,0.8c-0.1,0.2-0.3,0.4-0.5,0.5c-0.2,0.2-0.5,0.3-0.8,0.3c-0.3,0.1-0.6,0.1-0.9,0.1
					C230.3,116.5,229.7,116.4,229.3,116.1z"/>
				<path class="st8" d="M234.3,116.1v-1c0.5,0.4,1.1,0.6,1.7,0.6c0.9,0,1.3-0.3,1.3-0.8c0-0.1,0-0.3-0.1-0.4
					c-0.1-0.1-0.2-0.2-0.3-0.3c-0.1-0.1-0.3-0.2-0.4-0.2l-0.5-0.2c-0.2-0.1-0.5-0.2-0.7-0.3c-0.2-0.1-0.4-0.2-0.5-0.4
					c-0.1-0.1-0.2-0.3-0.3-0.5c-0.1-0.2-0.1-0.4-0.1-0.6c0-0.3,0.1-0.5,0.2-0.7c0.1-0.2,0.3-0.4,0.5-0.6c0.2-0.1,0.5-0.3,0.7-0.3
					c0.7-0.2,1.5-0.1,2.3,0.2v1c-0.5-0.3-1-0.4-1.5-0.4c-0.2,0-0.3,0-0.5,0.1c-0.1,0-0.3,0.1-0.4,0.2c-0.1,0.1-0.2,0.2-0.2,0.3
					c-0.1,0.1-0.1,0.2-0.1,0.3c0,0.1,0,0.3,0.1,0.4c0.1,0.1,0.1,0.2,0.2,0.3c0.1,0.1,0.3,0.2,0.4,0.2l0.5,0.2
					c0.2,0.1,0.5,0.2,0.7,0.3c0.2,0.1,0.4,0.2,0.5,0.4c0.1,0.1,0.3,0.3,0.3,0.5c0.1,0.2,0.1,0.4,0.1,0.6c0,0.3-0.1,0.5-0.2,0.8
					c-0.1,0.2-0.3,0.4-0.5,0.5c-0.2,0.2-0.5,0.3-0.8,0.3c-0.3,0.1-0.6,0.1-0.9,0.1C235.4,116.5,234.8,116.4,234.3,116.1z"/>
				<path class="st8" d="M245.9,116.3c-0.3,0.1-0.6,0.2-0.9,0.2c-1.1,0-1.6-0.6-1.6-1.8v-3.6h-1v-0.8h1v-1.5l1-0.3v1.8h1.5v0.8h-1.5
					v3.4c0,0.3,0,0.6,0.2,0.9c0.2,0.2,0.4,0.3,0.7,0.3c0.2,0,0.4-0.1,0.6-0.2L245.9,116.3z"/>
				<path class="st8" d="M249.5,116.5c-0.8,0-1.6-0.3-2.1-0.8c-0.5-0.6-0.8-1.4-0.8-2.2c0-0.9,0.2-1.7,0.8-2.4
					c0.6-0.6,1.4-0.9,2.2-0.8c0.8,0,1.5,0.3,2.1,0.8c1,1.4,1,3.3-0.1,4.6C251.1,116.2,250.3,116.5,249.5,116.5z M249.6,111
					c-0.6,0-1.1,0.2-1.5,0.6c-0.4,0.5-0.6,1.1-0.5,1.7c0,0.6,0.2,1.2,0.6,1.7c0.4,0.4,0.9,0.6,1.5,0.6c0.5,0,1.1-0.2,1.4-0.6
					c0.7-1.1,0.7-2.4,0-3.4C250.7,111.2,250.1,111,249.6,111L249.6,111z"/>
				<path class="st8" d="M259,116.3h-1.4l-2.6-2.9l0,0v2.9h-1v-8.9h1v5.6l0,0l2.5-2.8h1.3l-2.8,2.9L259,116.3z"/>
				<path class="st8" d="M264.5,113.6h-4.2c0,0.6,0.2,1.1,0.5,1.6c0.4,0.4,0.9,0.6,1.4,0.5c0.7,0,1.3-0.2,1.9-0.7v0.9
					c-0.6,0.4-1.4,0.6-2.1,0.6c-0.8,0-1.5-0.3-2-0.8c-0.5-0.6-0.8-1.5-0.7-2.3c0-0.8,0.3-1.6,0.8-2.3c0.5-0.6,1.2-0.9,2-0.9
					c0.7,0,1.4,0.2,1.8,0.8c0.5,0.6,0.7,1.4,0.6,2.1L264.5,113.6z M263.5,112.8c0-0.5-0.1-0.9-0.4-1.3c-0.3-0.3-0.7-0.5-1.1-0.4
					c-0.4,0-0.9,0.2-1.1,0.5c-0.3,0.3-0.5,0.8-0.6,1.3L263.5,112.8z"/>
				<path class="st8" d="M270.9,116.3h-1v-3.4c0-1.3-0.5-1.9-1.4-1.9c-0.5,0-0.9,0.2-1.2,0.5c-0.3,0.4-0.5,0.9-0.5,1.4v3.4h-1v-6h1
					v1l0,0c0.4-0.7,1.2-1.2,2-1.1c0.6,0,1.1,0.2,1.5,0.6c0.4,0.5,0.6,1.2,0.5,1.8L270.9,116.3z"/>
			</g>
			<g>
				<path class="st8" d="M210.8,126.5h-2.4v2.4h-0.8v-2.4h-2.4v-0.8h2.4v-2.4h0.8v2.4h2.4V126.5z"/>
				<path class="st8" d="M219.5,124.6c-0.2-0.1-0.5-0.2-0.7-0.2c-0.4,0-0.8,0.2-1,0.6c-0.3,0.5-0.4,1-0.4,1.6v3.1h-1v-6h1v1.2l0,0
					c0.1-0.4,0.3-0.7,0.6-1c0.4-0.3,1-0.4,1.5-0.3V124.6z"/>
				<path class="st8" d="M225.4,126.8h-4.2c0,0.6,0.2,1.1,0.5,1.5c0.4,0.4,0.9,0.6,1.4,0.5c0.7,0,1.3-0.2,1.9-0.7v0.9
					c-0.6,0.4-1.4,0.6-2.1,0.6c-0.8,0-1.5-0.3-2-0.8c-0.5-0.7-0.8-1.5-0.7-2.3c0-0.8,0.2-1.7,0.8-2.3c0.5-0.6,1.2-0.9,2-0.9
					c0.7,0,1.4,0.2,1.8,0.8c0.5,0.6,0.7,1.4,0.6,2.1L225.4,126.8z M224.4,126c0-0.5-0.1-0.9-0.4-1.3c-0.3-0.3-0.7-0.5-1.1-0.5
					c-0.4,0-0.9,0.2-1.2,0.5c-0.3,0.3-0.5,0.8-0.6,1.3L224.4,126z"/>
				<path class="st8" d="M232.1,129.6h-1v-1l0,0c-0.4,0.8-1.2,1.2-2.1,1.2c-0.7,0-1.4-0.3-1.8-0.8c-0.5-0.6-0.7-1.4-0.7-2.2
					c0-0.9,0.2-1.7,0.8-2.4c0.5-0.6,1.2-0.9,2-0.9c0.7,0,1.4,0.3,1.8,1l0,0v-3.7h1L232.1,129.6z M231.1,126.9V126
					c0-0.5-0.2-0.9-0.5-1.2c-0.3-0.3-0.8-0.5-1.2-0.5c-0.5,0-1.1,0.2-1.4,0.6c-0.4,0.5-0.5,1.2-0.5,1.8c0,0.6,0.1,1.2,0.5,1.6
					c0.6,0.7,1.7,0.8,2.4,0.2c0.1,0,0.1-0.1,0.2-0.2C230.9,127.9,231.1,127.4,231.1,126.9L231.1,126.9z"/>
				<path class="st8" d="M234.4,122.1c-0.2,0-0.3-0.1-0.4-0.2c-0.1-0.1-0.2-0.3-0.2-0.4c0-0.2,0.1-0.3,0.2-0.4
					c0.1-0.1,0.3-0.2,0.4-0.2c0.3,0,0.6,0.3,0.6,0.6c0,0,0,0,0,0c0,0.2-0.1,0.3-0.2,0.4C234.7,122,234.5,122.1,234.4,122.1z
					 M234.8,129.6h-1v-6h1V129.6z"/>
				<path class="st8" d="M239.8,124.6c-0.2-0.1-0.5-0.2-0.7-0.2c-0.4,0-0.8,0.2-1,0.6c-0.3,0.5-0.4,1-0.4,1.6v3.1h-1v-6h1v1.2l0,0
					c0.1-0.4,0.3-0.7,0.6-1c0.3-0.2,0.6-0.4,0.9-0.3c0.2,0,0.4,0,0.6,0.1V124.6z"/>
				<path class="st8" d="M245.7,126.8h-4.2c0,0.6,0.2,1.1,0.5,1.5c0.4,0.4,0.9,0.6,1.4,0.5c0.7,0,1.3-0.2,1.9-0.7v0.9
					c-0.6,0.4-1.4,0.6-2.1,0.6c-0.8,0-1.5-0.3-2-0.8c-0.5-0.7-0.8-1.5-0.7-2.3c0-0.8,0.2-1.7,0.8-2.3c0.5-0.6,1.2-0.9,2-0.9
					c0.7,0,1.4,0.2,1.8,0.8c0.5,0.6,0.7,1.4,0.6,2.1L245.7,126.8z M244.7,126c0-0.5-0.1-0.9-0.4-1.3c-0.3-0.3-0.7-0.5-1.1-0.5
					c-0.4,0-0.9,0.2-1.1,0.5c-0.3,0.3-0.5,0.8-0.6,1.3L244.7,126z"/>
				<path class="st8" d="M251.3,129.3c-0.5,0.3-1.1,0.4-1.6,0.4c-0.8,0-1.5-0.3-2.1-0.8c-0.5-0.6-0.8-1.4-0.8-2.2
					c0-0.9,0.3-1.7,0.9-2.4c0.6-0.6,1.4-0.9,2.3-0.9c0.5,0,1,0.1,1.4,0.3v1c-0.4-0.3-0.9-0.5-1.4-0.5c-0.6,0-1.1,0.2-1.5,0.7
					c-0.4,0.5-0.6,1.1-0.6,1.7c0,0.6,0.2,1.2,0.6,1.7c0.4,0.4,0.9,0.6,1.5,0.6c0.5,0,1.1-0.2,1.5-0.5V129.3z"/>
				<path class="st8" d="M255.7,129.6c-0.3,0.1-0.6,0.2-0.9,0.2c-1.1,0-1.6-0.6-1.6-1.8v-3.6h-1v-0.8h1v-1.5l1-0.3v1.8h1.5v0.8h-1.5
					v3.4c0,0.3,0,0.6,0.2,0.9c0.2,0.2,0.4,0.3,0.7,0.3c0.2,0,0.4-0.1,0.6-0.2L255.7,129.6z"/>
				<path class="st8" d="M266.5,126.2c0,2.4-1.1,3.5-3.2,3.5c-2,0-3-1.1-3-3.4v-5.1h1v5.1c0,1.7,0.7,2.6,2.2,2.6s2.1-0.8,2.1-2.5
					v-5.2h1L266.5,126.2z"/>
				<path class="st8" d="M274.6,129.6h-1.2l-1.4-2.3c-0.1-0.2-0.2-0.4-0.4-0.6c-0.1-0.1-0.2-0.3-0.4-0.4c-0.1-0.1-0.3-0.2-0.4-0.2
					c-0.2,0-0.3-0.1-0.5-0.1h-0.8v3.6h-1v-8.4h2.5c0.3,0,0.7,0,1,0.1c0.3,0.1,0.6,0.2,0.8,0.4c0.2,0.2,0.4,0.4,0.5,0.7
					c0.2,0.6,0.3,1.2,0.1,1.8c-0.1,0.2-0.2,0.5-0.4,0.7c-0.2,0.2-0.4,0.4-0.6,0.5c-0.2,0.1-0.5,0.2-0.8,0.3l0,0
					c0.1,0.1,0.3,0.1,0.4,0.2c0.1,0.1,0.2,0.2,0.3,0.3c0.1,0.1,0.2,0.2,0.3,0.4c0.1,0.1,0.2,0.3,0.3,0.5L274.6,129.6z M269.6,122.1
					v3.1h1.3c0.2,0,0.5,0,0.7-0.1c0.2-0.1,0.4-0.2,0.5-0.3c0.2-0.1,0.3-0.3,0.4-0.5c0.1-0.2,0.1-0.4,0.1-0.7c0-0.4-0.1-0.7-0.4-1
					c-0.4-0.3-0.8-0.4-1.3-0.4L269.6,122.1z"/>
				<path class="st8" d="M280,129.6h-4.4v-8.4h1v7.5h3.4L280,129.6z"/>
			</g>
		</g>
		<g>
			<path class="st8" d="M52.1,106.3l-2.2,8.4h-2.1l-1.4-5.4c-0.1-0.3-0.1-0.6-0.1-0.9l0,0c0,0.3-0.1,0.6-0.2,0.9l-1.4,5.4h-2.2
				l-2.2-8.4h2.1l1.2,5.6c0.1,0.3,0.1,0.7,0.1,1l0,0c0-0.3,0.1-0.7,0.2-1l1.5-5.6h2l1.4,5.6c0.1,0.3,0.1,0.6,0.1,0.9l0,0
				c0-0.3,0.1-0.6,0.1-0.9l1.2-5.6L52.1,106.3z"/>
			<path class="st8" d="M58,112.3h-3.9c0.1,0.9,0.6,1.3,1.7,1.3c0.6,0,1.2-0.2,1.7-0.5v1.3c-0.7,0.3-1.4,0.5-2.2,0.4
				c-1.5,0.2-2.9-1-3.1-2.5c0-0.2,0-0.3,0-0.5c0-0.9,0.3-1.7,0.9-2.4c0.6-0.6,1.3-0.9,2.1-0.9c0.7,0,1.5,0.2,2,0.8
				c0.5,0.6,0.8,1.3,0.7,2.1L58,112.3z M56.3,111.1c0-0.9-0.3-1.3-1-1.3c-0.3,0-0.6,0.1-0.8,0.4c-0.2,0.3-0.4,0.6-0.4,0.9H56.3z"/>
			<path class="st8" d="M61.1,114L61.1,114v0.7h-1.9v-8.9h1.9v3.8l0,0c0.4-0.7,1.2-1,2-1c0.7,0,1.4,0.3,1.8,0.8
				c0.4,0.6,0.7,1.4,0.6,2.2c0,0.9-0.2,1.7-0.7,2.4c-0.5,0.6-1.2,1-2,0.9C62.1,114.9,61.4,114.6,61.1,114z M61,111.5v0.6
				c0,0.4,0.1,0.7,0.3,1c0.2,0.2,0.5,0.4,0.9,0.4c0.4,0,0.8-0.2,1-0.5c0.3-0.4,0.4-0.9,0.3-1.4c0-0.4-0.1-0.8-0.3-1.2
				c-0.2-0.3-0.6-0.4-0.9-0.4c-0.4,0-0.7,0.1-0.9,0.4C61.2,110.7,61,111.1,61,111.5L61,111.5z"/>
			<path class="st8" d="M32.8,128.4L32.8,128.4v0.7h-1.9v-8.9h1.8v3.7l0,0c0.4-0.7,1.2-1.1,2-1.1c0.7,0,1.3,0.3,1.8,0.8
				c0.4,0.6,0.7,1.4,0.6,2.2c0,0.9-0.2,1.7-0.7,2.4c-0.5,0.6-1.2,1-2,0.9C33.8,129.3,33.2,129,32.8,128.4z M32.7,125.9v0.6
				c0,0.4,0.1,0.7,0.3,1c0.2,0.2,0.5,0.4,0.8,0.4c0.4,0,0.8-0.2,1-0.5c0.3-0.4,0.4-0.9,0.3-1.4c0-0.4-0.1-0.8-0.3-1.2
				c-0.2-0.3-0.6-0.4-0.9-0.4c-0.4,0-0.7,0.1-0.9,0.4C32.9,125.1,32.7,125.5,32.7,125.9z"/>
			<path class="st8" d="M42.3,124.8c-0.2-0.1-0.5-0.2-0.8-0.2c-0.4,0-0.7,0.1-0.9,0.4c-0.2,0.4-0.4,0.8-0.3,1.2v2.9h-1.9v-6h1.9v1.1
				l0,0c0.2-0.7,0.8-1.3,1.6-1.3c0.2,0,0.3,0,0.5,0.1V124.8z"/>
			<path class="st8" d="M46.1,129.3c-0.9,0-1.7-0.3-2.4-0.8c-1.2-1.3-1.2-3.3,0-4.6c0.7-0.6,1.5-0.9,2.4-0.8c0.9,0,1.7,0.3,2.3,0.8
				c0.6,0.6,0.9,1.4,0.8,2.2c0,0.9-0.3,1.7-0.9,2.4C47.8,129,47,129.3,46.1,129.3z M46.1,124.4c-0.4,0-0.8,0.2-1,0.5
				c-0.3,0.4-0.4,0.8-0.4,1.3c0,1.2,0.5,1.7,1.4,1.7s1.3-0.6,1.3-1.8S47,124.4,46.1,124.4L46.1,124.4z"/>
			<path class="st8" d="M59.1,123.1l-1.7,6h-2l-0.9-3.5c-0.1-0.3-0.1-0.5-0.1-0.8l0,0c0,0.2-0.1,0.5-0.1,0.7l-1,3.5h-1.9l-1.7-6h1.9
				l0.8,3.9c0,0.2,0.1,0.4,0.1,0.7l0,0c0-0.2,0-0.5,0.1-0.7l1-3.9h1.8l0.9,3.9c0,0.2,0.1,0.5,0.1,0.7l0,0c0-0.2,0-0.5,0.1-0.7
				l0.8-3.9L59.1,123.1z"/>
			<path class="st8" d="M59.6,129v-1.5c0.3,0.2,0.6,0.3,0.9,0.4c0.3,0.1,0.6,0.1,0.8,0.1c0.3,0,0.5,0,0.8-0.1
				c0.2-0.1,0.3-0.2,0.3-0.4c0-0.1,0-0.2-0.1-0.3c-0.1-0.1-0.2-0.2-0.3-0.2c-0.1-0.1-0.3-0.1-0.4-0.2l-0.5-0.2
				c-0.2-0.1-0.4-0.2-0.6-0.3c-0.2-0.1-0.3-0.2-0.5-0.4c-0.1-0.1-0.2-0.3-0.3-0.5c-0.1-0.2-0.1-0.4-0.1-0.6c0-0.3,0.1-0.6,0.2-0.9
				c0.1-0.2,0.4-0.4,0.6-0.6c0.3-0.2,0.5-0.3,0.8-0.3c0.3-0.1,0.7-0.1,1-0.1c0.3,0,0.5,0,0.8,0.1c0.3,0,0.5,0.1,0.8,0.2v1.4
				c-0.2-0.1-0.5-0.2-0.8-0.3c-0.3-0.1-0.5-0.1-0.8-0.1c-0.1,0-0.2,0-0.3,0c-0.1,0-0.2,0-0.3,0.1c-0.1,0-0.1,0.1-0.2,0.2
				c0,0.1-0.1,0.1-0.1,0.2c0,0.1,0,0.2,0.1,0.3c0.1,0.1,0.2,0.2,0.3,0.2c0.1,0.1,0.2,0.1,0.4,0.2l0.4,0.1c0.2,0.1,0.4,0.2,0.7,0.3
				c0.2,0.1,0.4,0.2,0.5,0.3c0.1,0.1,0.3,0.3,0.3,0.5c0.1,0.2,0.1,0.4,0.1,0.7c0,0.3-0.1,0.6-0.2,0.9c-0.2,0.3-0.4,0.5-0.6,0.6
				c-0.3,0.2-0.6,0.3-0.9,0.3c-0.3,0.1-0.7,0.1-1,0.1C60.9,129.3,60.2,129.2,59.6,129z"/>
			<path class="st8" d="M70.7,126.7h-3.9c0.1,0.9,0.6,1.3,1.6,1.3c0.6,0,1.2-0.2,1.8-0.5v1.3c-0.7,0.3-1.4,0.5-2.2,0.4
				c-1.5,0.1-2.9-1-3.1-2.5c0-0.2,0-0.3,0-0.5c0-0.9,0.3-1.7,0.9-2.4c0.6-0.6,1.3-0.9,2.2-0.9c0.7,0,1.5,0.2,2,0.8
				c0.5,0.6,0.8,1.3,0.7,2.1V126.7z M69,125.5c0-0.9-0.3-1.3-1.1-1.3c-0.3,0-0.6,0.1-0.8,0.4c-0.2,0.3-0.4,0.6-0.4,0.9H69z"/>
			<path class="st8" d="M75.8,124.8c-0.2-0.1-0.5-0.2-0.8-0.2c-0.4,0-0.8,0.1-1,0.4c-0.2,0.4-0.4,0.8-0.3,1.2v2.9h-1.8v-6h1.8v1.1
				l0,0c0.2-0.8,0.8-1.3,1.6-1.3c0.2,0,0.3,0,0.5,0.1V124.8z"/>
		</g>
		<g>
			<polygon class="st9" points="191.7,150.9 184.2,156.3 187.1,165.1 196.4,165.1 199.3,156.3 			"/>
			<g>
				<path class="st8" d="M211.6,162.4h-1.1l-0.9-2.4h-3.6l-0.8,2.4h-1.1l3.2-8.4h1L211.6,162.4z M209.3,159.2l-1.3-3.6
					c-0.1-0.2-0.1-0.4-0.1-0.6l0,0c0,0.2-0.1,0.4-0.1,0.6l-1.3,3.6L209.3,159.2z"/>
				<path class="st8" d="M216.7,162.1c-0.5,0.3-1.1,0.4-1.6,0.4c-0.8,0-1.5-0.3-2.1-0.8c-0.5-0.6-0.8-1.4-0.8-2.2
					c0-0.9,0.3-1.7,0.9-2.4c0.6-0.6,1.4-0.9,2.3-0.9c0.5,0,1,0.1,1.4,0.3v1c-0.4-0.3-0.9-0.5-1.4-0.5c-0.6,0-1.1,0.2-1.5,0.6
					c-0.4,0.5-0.6,1.1-0.6,1.7c0,0.6,0.2,1.2,0.6,1.7c0.4,0.4,0.9,0.6,1.5,0.6c0.5,0,1.1-0.2,1.5-0.5L216.7,162.1z"/>
				<path class="st8" d="M222.1,162.1c-0.5,0.3-1.1,0.4-1.6,0.4c-0.8,0-1.5-0.3-2.1-0.8c-0.5-0.6-0.8-1.4-0.8-2.2
					c0-0.9,0.3-1.7,0.9-2.4c0.6-0.6,1.4-0.9,2.3-0.9c0.5,0,1,0.1,1.4,0.3v1c-0.4-0.3-0.9-0.5-1.4-0.5c-0.6,0-1.1,0.2-1.5,0.6
					c-0.4,0.5-0.6,1.1-0.6,1.7c0,0.6,0.2,1.2,0.6,1.7c0.4,0.4,0.9,0.6,1.5,0.6c0.5,0,1.1-0.2,1.5-0.5L222.1,162.1z"/>
				<path class="st8" d="M228.2,159.7H224c0,0.6,0.2,1.1,0.5,1.5c0.4,0.4,0.9,0.6,1.4,0.6c0.7,0,1.3-0.2,1.9-0.7v0.9
					c-0.6,0.4-1.4,0.6-2.1,0.6c-0.8,0-1.5-0.3-2-0.8c-1-1.4-1-3.2,0.1-4.6c0.5-0.6,1.2-0.9,2-0.9c0.7,0,1.4,0.2,1.8,0.8
					c0.5,0.6,0.7,1.4,0.6,2.1L228.2,159.7z M227.2,158.8c0-0.5-0.1-0.9-0.4-1.3c-0.3-0.3-0.7-0.5-1.1-0.5c-0.4,0-0.9,0.2-1.2,0.5
					c-0.3,0.4-0.5,0.8-0.6,1.3H227.2z"/>
				<path class="st8" d="M229.3,162.2v-1c0.5,0.4,1.1,0.6,1.7,0.6c0.8,0,1.3-0.3,1.3-0.8c0-0.1,0-0.3-0.1-0.4
					c-0.1-0.1-0.2-0.2-0.3-0.3c-0.1-0.1-0.3-0.2-0.4-0.2l-0.5-0.2c-0.2-0.1-0.5-0.2-0.7-0.3c-0.2-0.1-0.4-0.2-0.5-0.4
					c-0.1-0.1-0.2-0.3-0.3-0.5c-0.1-0.2-0.1-0.4-0.1-0.6c0-0.3,0.1-0.5,0.2-0.8c0.1-0.2,0.3-0.4,0.5-0.5c0.2-0.2,0.5-0.3,0.7-0.3
					c0.3-0.1,0.6-0.1,0.9-0.1c0.5,0,1,0.1,1.4,0.3v1c-0.5-0.3-1-0.4-1.5-0.4c-0.2,0-0.3,0-0.5,0.1c-0.1,0-0.3,0.1-0.4,0.2
					c-0.1,0.1-0.2,0.2-0.2,0.3c-0.1,0.1-0.1,0.2-0.1,0.3c0,0.1,0,0.3,0.1,0.4c0.1,0.1,0.1,0.2,0.3,0.3c0.1,0.1,0.3,0.2,0.4,0.2
					l0.5,0.2c0.2,0.1,0.5,0.2,0.7,0.3c0.2,0.1,0.4,0.2,0.5,0.4c0.1,0.1,0.3,0.3,0.3,0.5c0.1,0.2,0.1,0.4,0.1,0.6
					c0,0.3-0.1,0.5-0.2,0.8c-0.1,0.2-0.3,0.4-0.5,0.5c-0.2,0.1-0.5,0.3-0.8,0.3c-0.3,0.1-0.6,0.1-0.9,0.1
					C230.3,162.6,229.8,162.5,229.3,162.2z"/>
				<path class="st8" d="M234.4,162.2v-1c0.5,0.4,1.1,0.6,1.7,0.6c0.8,0,1.3-0.3,1.3-0.8c0-0.1,0-0.3-0.1-0.4
					c-0.1-0.1-0.2-0.2-0.3-0.3c-0.1-0.1-0.3-0.2-0.4-0.2l-0.5-0.2c-0.3-0.1-0.5-0.2-0.7-0.3c-0.2-0.1-0.4-0.2-0.5-0.4
					c-0.1-0.1-0.2-0.3-0.3-0.5c-0.1-0.2-0.1-0.4-0.1-0.6c0-0.3,0.1-0.5,0.2-0.8c0.1-0.2,0.3-0.4,0.5-0.5c0.2-0.2,0.5-0.3,0.7-0.3
					c0.3-0.1,0.6-0.1,0.9-0.1c0.5,0,1,0.1,1.4,0.3v1c-0.5-0.3-1-0.4-1.5-0.4c-0.2,0-0.3,0-0.5,0.1c-0.1,0-0.3,0.1-0.4,0.2
					c-0.1,0.1-0.2,0.2-0.2,0.3c-0.1,0.1-0.1,0.2-0.1,0.3c0,0.1,0,0.3,0.1,0.4c0.1,0.1,0.1,0.2,0.3,0.3c0.1,0.1,0.3,0.2,0.4,0.2
					l0.5,0.2c0.2,0.1,0.5,0.2,0.7,0.3c0.2,0.1,0.4,0.2,0.5,0.4c0.1,0.1,0.3,0.3,0.4,0.5c0.1,0.2,0.1,0.4,0.1,0.6
					c0,0.3-0.1,0.5-0.2,0.8c-0.1,0.2-0.3,0.4-0.5,0.5c-0.2,0.1-0.5,0.3-0.8,0.3c-0.3,0.1-0.6,0.1-0.9,0.1
					C235.4,162.6,234.9,162.5,234.4,162.2z"/>
				<path class="st8" d="M245.9,162.4c-0.3,0.1-0.6,0.2-0.9,0.2c-1.1,0-1.6-0.6-1.6-1.8v-3.6h-1v-0.8h1V155l1-0.3v1.8h1.5v0.8h-1.6
					v3.4c0,0.3,0,0.6,0.2,0.9c0.2,0.2,0.4,0.3,0.7,0.3c0.2,0,0.4-0.1,0.6-0.2L245.9,162.4z"/>
				<path class="st8" d="M249.6,162.6c-0.8,0-1.6-0.3-2.1-0.8c-0.5-0.6-0.8-1.4-0.8-2.2c-0.1-0.9,0.2-1.7,0.8-2.4
					c0.6-0.6,1.4-0.9,2.2-0.9c0.8,0,1.6,0.3,2.1,0.8c0.5,0.6,0.8,1.5,0.8,2.3c0,0.8-0.2,1.7-0.8,2.3
					C251.2,162.3,250.4,162.6,249.6,162.6z M249.6,157.1c-0.6,0-1.1,0.2-1.5,0.6c-0.4,0.5-0.6,1.1-0.5,1.7c0,0.6,0.2,1.2,0.5,1.7
					c0.4,0.4,0.9,0.6,1.5,0.6c0.5,0,1.1-0.2,1.4-0.6c0.4-0.5,0.5-1.1,0.5-1.7c0-0.6-0.1-1.2-0.5-1.7
					C250.7,157.3,250.2,157.1,249.6,157.1L249.6,157.1z"/>
				<path class="st8" d="M259,162.4h-1.4l-2.6-2.9l0,0v2.9h-1v-8.9h1v5.6l0,0l2.5-2.8h1.3l-2.8,2.9L259,162.4z"/>
				<path class="st8" d="M264.5,159.7h-4.2c0,0.6,0.2,1.1,0.5,1.5c0.4,0.4,0.9,0.6,1.4,0.6c0.7,0,1.3-0.2,1.9-0.7v0.9
					c-0.6,0.4-1.3,0.6-2.1,0.6c-0.8,0-1.5-0.3-2-0.8c-0.5-0.7-0.8-1.5-0.7-2.3c0-0.8,0.2-1.6,0.8-2.3c0.5-0.6,1.2-0.9,2-0.9
					c0.7,0,1.4,0.2,1.8,0.8c0.5,0.6,0.7,1.4,0.6,2.1L264.5,159.7z M263.5,158.8c0-0.5-0.1-0.9-0.4-1.3c-0.3-0.3-0.7-0.5-1.1-0.5
					c-0.4,0-0.9,0.2-1.2,0.5c-0.3,0.3-0.5,0.8-0.6,1.3H263.5z"/>
				<path class="st8" d="M271,162.4h-1V159c0-1.3-0.5-1.9-1.4-1.9c-0.5,0-0.9,0.2-1.2,0.5c-0.3,0.4-0.5,0.9-0.4,1.4v3.4h-1v-6h1v1
					l0,0c0.4-0.7,1.2-1.2,2-1.1c0.6,0,1.1,0.2,1.5,0.6c0.4,0.5,0.6,1.2,0.5,1.8L271,162.4z"/>
			</g>
		</g>
	</g>
</g>
<g id="bg">
	<g id="Shapes_1_">
		<rect class="st1" width="492.7" height="180"/>
		<rect x="0.5" class="st4" width="105" height="155"/>
		<rect x="370.2" y="60" class="st5" width="105" height="95"/>
		<rect x="370.2" y="0.1" class="st6" width="105" height="55"/>
		<g>
			<line class="st7" x1="105.5" y1="15" x2="364.7" y2="15"/>
			<polygon points="363.6,18.7 370.1,15 363.6,11.3 			"/>
		</g>
		<g>
			<line class="st7" x1="110.9" y1="44.9" x2="370.1" y2="44.9"/>
			<polygon points="112,48.6 105.5,44.9 112,41.1 			"/>
		</g>
		<g>
			<line class="st7" x1="105.5" y1="85.1" x2="364.7" y2="85.1"/>
			<polygon points="363.6,88.8 370.1,85.1 363.6,81.4 			"/>
		</g>
		<g>
			<line class="st7" x1="110.9" y1="135.1" x2="370.1" y2="135.1"/>
			<polygon points="112,138.8 105.5,135.1 112,131.4 			"/>
		</g>
		<g>
			<path class="st7" d="M51,155v7.5c0,4.1,4.5,7.5,10,7.5l419.1,0.8c5.5,0,10-4.5,10-10V31.5c-0.1-1.5-1.3-2.6-2.8-2.5h-6.6"/>
			<polygon points="481.8,25.3 475.3,29 481.8,32.7 			"/>
		</g>
		
			<use xlink:href="#New_Symbol_45"  width="20" height="20" x="-10" y="-10" transform="matrix(1 0 0 1 169.06 170)" style="overflow:visible;"/>
		
			<use xlink:href="#New_Symbol_44"  width="20" height="20" x="-10" y="-10" transform="matrix(1 0 0 1 169.06 135.1)" style="overflow:visible;"/>
		
			<use xlink:href="#New_Symbol_43"  width="20" height="20" x="-10" y="-10" transform="matrix(1 0 0 1 169.06 85.1)" style="overflow:visible;"/>
		<path d="M80.8,38.3C74.1,29.7,63.9,24.6,53,24.6c-7.7,0-15.2,2.6-21.3,7.2c-15.3,11.7-18.2,33.7-6.5,49
			c6.6,8.6,16.9,13.7,27.7,13.7c7.7,0,15.2-2.5,21.3-7.2c15.3-11.7,18.3-33.5,6.6-48.8C80.8,38.4,80.8,38.4,80.8,38.3z M82.4,67.5
			c-1.2-0.9-3-2.3-5.3-4.1c0.8-2.1,0.5-4.5-0.8-6.4c-2.1-2.6-5.7-3.2-8.6-1.5c-3-2.8-6.4-5.9-10-9.5c10.7-5.9,18.6-5.2,19-5.1
			c0.1,0.1,0.2,0.3,0.3,0.4C82.9,48.7,84.8,58.4,82.4,67.5z M63.2,75.7c-0.2-0.9-0.6-1.7-1.1-2.4c-1.9-2.5-5.4-3.1-8-1.4
			c-2.9-1.6-5.6-3.4-8.1-5.4c-0.3-0.2-0.5-0.4-0.7-0.6c1.2-3,0.7-6.4-1.3-9c0-0.1-0.1-0.1-0.2-0.2c0.6-0.6,1.2-1.3,1.9-1.9
			c2.5-2.4,5.1-4.6,8-6.5l0,0h0.1l-0.1,0.1c3.8,3.5,7.8,6.8,11.6,9.8c-1,2.2-0.8,4.7,0.6,6.7c2.2,2.9,6.3,3.4,9.2,1.3
			c0.1-0.1,0.3-0.2,0.4-0.4c2.7,1.9,4.9,3.4,6.1,4.2c-0.9,2.4-2,4.6-3.4,6.7C76.2,77.2,70.7,77.9,63.2,75.7z M72.6,36.4
			c-7-1-14.1,0.4-20.3,3.8c-2.7-2.9-5.7-6.2-8.6-9.5c3-1,6.2-1.5,9.3-1.5C60.2,29.2,67.1,31.7,72.6,36.4z M34.5,35.5
			c1.6-1.2,3.3-2.3,5.1-3.1c2.4,3.7,5.1,7.2,8.2,10.4c-3.1,2.1-5.9,4.6-8.4,7.3c-1,1.1-1.9,2.2-2.8,3.3c-1.5,0-3,0.3-4.3,1
			c-2.4-4-3.5-8.6-3.3-13.3C30.6,38.9,32.4,37.1,34.5,35.5z M25.4,46.8c-0.1,4,1,8,3,11.4c-1.7,3.2-1.4,7.1,0.8,10l0,0
			c-0.7,2.8-1.1,5.7-1.4,8.6C21.8,67.9,20.8,56.5,25.4,46.8z M53,90.1c-7.1,0-14.1-2.5-19.5-7.1c0-3.8,0.5-7.6,1.5-11.3
			c2.4,0.4,4.9-0.1,6.9-1.5l0.8,0.6c2.7,2.1,5.6,4,8.7,5.5c-0.2,1.6,0.2,3.2,1.2,4.5c2,2.7,5.8,3.2,8.5,1.2c0.6-0.5,1.1-1,1.5-1.7
			c3.9,0.8,7.8,1.2,11.7,1.2c-0.9,0.8-1.8,1.6-2.7,2.3C66.2,87.9,59.7,90.1,53,90.1z"/>
		
			<use xlink:href="#New_Symbol_41"  width="20" height="20" x="-10" y="-10" transform="matrix(1 0 0 1 169.06 15)" style="overflow:visible;"/>
		
			<use xlink:href="#New_Symbol_42"  width="20" height="20" x="-10" y="-10" transform="matrix(1 0 0 1 169.06 44.88)" style="overflow:visible;"/>
	</g>
	<g id="Text_1_">
		<g>
			<polygon class="st9" points="192.7,105.2 185.2,110.6 188.1,119.4 197.4,119.4 200.3,110.6 			"/>
		</g>
		<g>
			<polygon class="st9" points="191.7,150.9 184.2,156.3 187.1,165.1 196.4,165.1 199.3,156.3 			"/>
		</g>
	</g>
</g>
<g id="txt">
	<g>
		<rect x="21.1" y="105.8" class="st10" width="64.5" height="30.5"/>
		<path class="st11" d="M52.5,106.3l-2.2,8.4h-2.1l-1.4-5.4c-0.1-0.3-0.1-0.6-0.1-0.9h0c0,0.4-0.1,0.7-0.2,0.9l-1.4,5.4h-2.2
			l-2.2-8.4h2.1l1.2,5.6c0.1,0.2,0.1,0.6,0.1,1h0c0-0.3,0.1-0.6,0.2-1l1.5-5.6h2l1.4,5.6c0.1,0.2,0.1,0.5,0.1,0.9h0
			c0-0.3,0.1-0.6,0.1-0.9l1.2-5.6H52.5z"/>
		<path class="st11" d="M58.4,112.2h-3.9c0.1,0.9,0.6,1.3,1.6,1.3c0.7,0,1.2-0.2,1.7-0.5v1.3c-0.6,0.3-1.3,0.4-2.2,0.4
			c-1,0-1.7-0.3-2.3-0.8s-0.8-1.3-0.8-2.2c0-1,0.3-1.8,0.9-2.4s1.3-0.9,2.1-0.9c0.9,0,1.6,0.3,2,0.8s0.7,1.2,0.7,2.1V112.2z
			 M56.7,111.1c0-0.9-0.3-1.3-1-1.3c-0.3,0-0.6,0.1-0.8,0.4s-0.3,0.6-0.4,0.9H56.7z"/>
		<path class="st11" d="M61.4,114L61.4,114l0,0.7h-1.9v-8.9h1.9v3.8h0c0.5-0.7,1.1-1,2-1c0.8,0,1.4,0.3,1.8,0.8s0.6,1.3,0.6,2.2
			c0,1-0.2,1.8-0.7,2.4s-1.1,0.9-2,0.9C62.4,114.8,61.8,114.5,61.4,114z M61.4,111.5v0.6c0,0.4,0.1,0.7,0.3,1s0.5,0.4,0.9,0.4
			c0.4,0,0.7-0.2,1-0.5s0.3-0.8,0.3-1.4c0-0.5-0.1-0.9-0.3-1.2S63,110,62.7,110c-0.4,0-0.7,0.1-0.9,0.4S61.4,111,61.4,111.5z"/>
		<path class="st11" d="M33.2,128.4L33.2,128.4l0,0.7h-1.9v-8.9h1.9v3.8h0c0.5-0.7,1.1-1,2-1c0.8,0,1.4,0.3,1.8,0.8s0.6,1.3,0.6,2.2
			c0,1-0.2,1.8-0.7,2.4s-1.1,0.9-2,0.9C34.2,129.2,33.6,128.9,33.2,128.4z M33.2,125.9v0.6c0,0.4,0.1,0.7,0.3,1s0.5,0.4,0.9,0.4
			c0.4,0,0.7-0.2,1-0.5s0.3-0.8,0.3-1.4c0-0.5-0.1-0.9-0.3-1.2s-0.5-0.4-0.9-0.4c-0.4,0-0.7,0.1-0.9,0.4S33.2,125.4,33.2,125.9z"/>
		<path class="st11" d="M42.7,124.8c-0.2-0.1-0.5-0.2-0.8-0.2c-0.4,0-0.7,0.1-0.9,0.4s-0.3,0.7-0.3,1.2v2.9h-1.9v-6h1.9v1.1h0
			c0.3-0.8,0.8-1.2,1.6-1.2c0.2,0,0.3,0,0.5,0.1V124.8z"/>
		<path class="st11" d="M46.4,129.2c-1,0-1.8-0.3-2.4-0.8s-0.9-1.3-0.9-2.3c0-1,0.3-1.8,0.9-2.3s1.4-0.8,2.4-0.8
			c1,0,1.8,0.3,2.3,0.8s0.8,1.3,0.8,2.2c0,1-0.3,1.8-0.9,2.4S47.4,129.2,46.4,129.2z M46.4,124.4c-0.4,0-0.8,0.2-1,0.5
			s-0.4,0.7-0.4,1.3c0,1.2,0.5,1.7,1.4,1.7c0.9,0,1.3-0.6,1.3-1.8C47.8,124.9,47.3,124.4,46.4,124.4z"/>
		<path class="st11" d="M59.5,123.1l-1.7,6h-1.9l-0.9-3.5c-0.1-0.2-0.1-0.5-0.1-0.8h0c0,0.3-0.1,0.6-0.1,0.7l-0.9,3.5h-1.9l-1.7-6
			H52l0.8,3.9c0,0.2,0.1,0.4,0.1,0.7h0c0-0.3,0.1-0.5,0.1-0.7l1-3.9h1.8l0.9,3.9c0,0.1,0.1,0.3,0.1,0.7h0c0-0.2,0.1-0.5,0.1-0.7
			l0.8-3.9H59.5z"/>
		<path class="st11" d="M60,128.9v-1.5c0.3,0.2,0.6,0.3,0.9,0.4s0.6,0.1,0.9,0.1c0.3,0,0.6,0,0.8-0.1s0.3-0.2,0.3-0.4
			c0-0.1,0-0.2-0.1-0.3s-0.2-0.1-0.3-0.2s-0.3-0.1-0.4-0.2s-0.3-0.1-0.5-0.2c-0.2-0.1-0.4-0.2-0.6-0.3s-0.3-0.2-0.5-0.4
			s-0.2-0.3-0.3-0.5s-0.1-0.4-0.1-0.6c0-0.3,0.1-0.6,0.2-0.9s0.3-0.4,0.6-0.6s0.5-0.3,0.8-0.3s0.6-0.1,1-0.1c0.3,0,0.5,0,0.8,0.1
			s0.5,0.1,0.8,0.2v1.4c-0.2-0.1-0.5-0.2-0.8-0.3s-0.5-0.1-0.8-0.1c-0.1,0-0.2,0-0.3,0s-0.2,0.1-0.3,0.1s-0.1,0.1-0.2,0.2
			s-0.1,0.1-0.1,0.2c0,0.1,0,0.2,0.1,0.3s0.2,0.1,0.3,0.2s0.2,0.1,0.4,0.2s0.3,0.1,0.4,0.1c0.2,0.1,0.5,0.2,0.7,0.3s0.4,0.2,0.5,0.4
			s0.3,0.3,0.3,0.5s0.1,0.4,0.1,0.7c0,0.4-0.1,0.7-0.2,0.9s-0.4,0.5-0.6,0.6s-0.6,0.3-0.9,0.3s-0.7,0.1-1,0.1
			C61.2,129.2,60.6,129.1,60,128.9z"/>
		<path class="st11" d="M71.1,126.6h-3.9c0.1,0.9,0.6,1.3,1.6,1.3c0.7,0,1.2-0.2,1.7-0.5v1.3c-0.6,0.3-1.3,0.4-2.2,0.4
			c-1,0-1.7-0.3-2.3-0.8s-0.8-1.3-0.8-2.2c0-1,0.3-1.8,0.9-2.4s1.3-0.9,2.1-0.9c0.9,0,1.6,0.3,2,0.8s0.7,1.2,0.7,2.1V126.6z
			 M69.4,125.5c0-0.9-0.3-1.3-1-1.3c-0.3,0-0.6,0.1-0.8,0.4s-0.3,0.6-0.4,0.9H69.4z"/>
		<path class="st11" d="M76.1,124.8c-0.2-0.1-0.5-0.2-0.8-0.2c-0.4,0-0.7,0.1-0.9,0.4s-0.3,0.7-0.3,1.2v2.9h-1.9v-6H74v1.1h0
			c0.3-0.8,0.8-1.2,1.6-1.2c0.2,0,0.3,0,0.5,0.1V124.8z"/>
	</g>
	<g>
		<g>
			<path class="st12" d="M190.6,66.9c-0.6,0.3-1.4,0.5-2.3,0.5c-1.2,0-2.2-0.4-2.9-1.2s-1.1-1.8-1.1-3c0-1.3,0.4-2.4,1.2-3.3
				s1.8-1.2,3.1-1.2c0.8,0,1.5,0.1,2,0.3v1c-0.6-0.3-1.3-0.5-2-0.5c-1,0-1.7,0.3-2.3,1s-0.9,1.5-0.9,2.6c0,1,0.3,1.8,0.8,2.4
				s1.3,0.9,2.2,0.9c0.8,0,1.6-0.2,2.2-0.6V66.9z"/>
			<path class="st12" d="M195.3,62.2c-0.2-0.1-0.4-0.2-0.7-0.2c-0.4,0-0.8,0.2-1,0.6s-0.4,0.9-0.4,1.6v3.1h-1v-6h1v1.2h0
				c0.1-0.4,0.3-0.8,0.6-1s0.6-0.4,0.9-0.4c0.3,0,0.4,0,0.6,0.1V62.2z"/>
			<path class="st12" d="M201.1,64.5h-4.2c0,0.7,0.2,1.2,0.5,1.5s0.8,0.5,1.4,0.5c0.7,0,1.3-0.2,1.9-0.7v0.9
				c-0.5,0.4-1.2,0.6-2.1,0.6c-0.8,0-1.5-0.3-2-0.8s-0.7-1.3-0.7-2.3c0-0.9,0.3-1.7,0.8-2.3s1.2-0.9,2-0.9s1.4,0.3,1.8,0.8
				s0.6,1.2,0.6,2.1V64.5z M200.1,63.6c0-0.6-0.1-1-0.4-1.3s-0.6-0.5-1.1-0.5c-0.5,0-0.8,0.2-1.2,0.5s-0.5,0.7-0.6,1.3H200.1z"/>
			<path class="st12" d="M207.6,67.2h-1v-1h0c-0.4,0.8-1.1,1.2-2.1,1.2c-0.8,0-1.4-0.3-1.8-0.8s-0.7-1.3-0.7-2.2
				c0-1,0.3-1.8,0.8-2.4s1.2-0.9,2-0.9c0.8,0,1.4,0.3,1.8,1h0v-3.7h1V67.2z M206.6,64.5v-0.9c0-0.5-0.2-0.9-0.5-1.2
				s-0.7-0.5-1.2-0.5c-0.6,0-1,0.2-1.4,0.6s-0.5,1-0.5,1.8c0,0.7,0.2,1.2,0.5,1.6s0.8,0.6,1.3,0.6c0.5,0,1-0.2,1.3-0.6
				S206.6,65.1,206.6,64.5z"/>
			<path class="st12" d="M214.3,64.5H210c0,0.7,0.2,1.2,0.5,1.5s0.8,0.5,1.4,0.5c0.7,0,1.3-0.2,1.9-0.7v0.9
				c-0.5,0.4-1.2,0.6-2.1,0.6c-0.8,0-1.5-0.3-2-0.8s-0.7-1.3-0.7-2.3c0-0.9,0.3-1.7,0.8-2.3s1.2-0.9,2-0.9s1.4,0.3,1.8,0.8
				s0.6,1.2,0.6,2.1V64.5z M213.3,63.6c0-0.6-0.1-1-0.4-1.3s-0.6-0.5-1.1-0.5c-0.5,0-0.8,0.2-1.2,0.5s-0.5,0.7-0.6,1.3H213.3z"/>
			<path class="st12" d="M220.6,67.2h-1v-3.4c0-1.3-0.5-1.9-1.4-1.9c-0.5,0-0.9,0.2-1.2,0.5s-0.5,0.8-0.5,1.4v3.4h-1v-6h1v1h0
				c0.5-0.8,1.1-1.1,2-1.1c0.7,0,1.2,0.2,1.5,0.6s0.5,1,0.5,1.8V67.2z"/>
			<path class="st12" d="M226.6,61.5l-3.6,4.9h3.5v0.8h-4.9v-0.3l3.6-4.9h-3.2v-0.8h4.6V61.5z"/>
			<path class="st12" d="M228.2,59.7c-0.2,0-0.3-0.1-0.4-0.2s-0.2-0.3-0.2-0.4s0.1-0.3,0.2-0.4s0.3-0.2,0.4-0.2
				c0.2,0,0.3,0.1,0.4,0.2s0.2,0.3,0.2,0.4c0,0.2-0.1,0.3-0.2,0.4S228.4,59.7,228.2,59.7z M228.7,67.2h-1v-6h1V67.2z"/>
			<path class="st12" d="M234.9,67.2h-1v-0.9h0c-0.4,0.7-1,1.1-1.8,1.1c-0.6,0-1.1-0.2-1.4-0.5s-0.5-0.7-0.5-1.3c0-1.1,0.7-1.8,2-2
				l1.8-0.3c0-1-0.4-1.5-1.2-1.5c-0.7,0-1.4,0.2-2,0.7v-1c0.6-0.4,1.3-0.6,2-0.6c1.4,0,2.1,0.7,2.1,2.2V67.2z M233.9,64.2l-1.4,0.2
				c-0.4,0.1-0.8,0.2-1,0.3s-0.3,0.4-0.3,0.8c0,0.3,0.1,0.5,0.3,0.7s0.5,0.3,0.8,0.3c0.5,0,0.9-0.2,1.2-0.5s0.5-0.8,0.5-1.3V64.2z"
				/>
			<path class="st12" d="M237.6,67.2h-1v-8.9h1V67.2z"/>
			<path class="st12" d="M239.9,59.7c-0.2,0-0.3-0.1-0.4-0.2s-0.2-0.3-0.2-0.4s0.1-0.3,0.2-0.4s0.3-0.2,0.4-0.2
				c0.2,0,0.3,0.1,0.4,0.2s0.2,0.3,0.2,0.4c0,0.2-0.1,0.3-0.2,0.4S240.1,59.7,239.9,59.7z M240.4,67.2h-1v-6h1V67.2z"/>
			<path class="st12" d="M185.8,79.3L185.8,79.3l0,3.6h-1v-8.8h1v1.1h0c0.5-0.8,1.2-1.2,2.1-1.2c0.8,0,1.4,0.3,1.8,0.8
				s0.7,1.3,0.7,2.2c0,1-0.2,1.8-0.7,2.4s-1.2,0.9-2,0.9C186.8,80.4,186.2,80,185.8,79.3z M185.8,76.9v0.8c0,0.5,0.2,0.9,0.5,1.3
				s0.7,0.5,1.2,0.5c0.6,0,1-0.2,1.4-0.7s0.5-1.1,0.5-1.9c0-0.7-0.2-1.2-0.5-1.6s-0.7-0.6-1.3-0.6c-0.6,0-1,0.2-1.3,0.6
				S185.8,76.3,185.8,76.9z"/>
			<path class="st12" d="M194.9,75.2c-0.2-0.1-0.4-0.2-0.7-0.2c-0.4,0-0.8,0.2-1,0.6s-0.4,0.9-0.4,1.6v3.1h-1v-6h1v1.2h0
				c0.1-0.4,0.3-0.8,0.6-1s0.6-0.4,0.9-0.4c0.3,0,0.4,0,0.6,0.1V75.2z"/>
			<path class="st12" d="M198.4,80.4c-0.9,0-1.6-0.3-2.1-0.8s-0.8-1.3-0.8-2.2c0-1,0.3-1.8,0.8-2.4s1.3-0.8,2.2-0.8
				c0.9,0,1.6,0.3,2.1,0.8s0.8,1.3,0.8,2.3c0,1-0.3,1.7-0.8,2.3S199.3,80.4,198.4,80.4z M198.5,74.9c-0.6,0-1.1,0.2-1.5,0.6
				s-0.5,1-0.5,1.7c0,0.7,0.2,1.3,0.5,1.7s0.8,0.6,1.5,0.6c0.6,0,1.1-0.2,1.4-0.6s0.5-1,0.5-1.7c0-0.8-0.2-1.3-0.5-1.7
				S199.1,74.9,198.5,74.9z"/>
			<path class="st12" d="M211.4,80.2h-1v-3.4c0-0.7-0.1-1.1-0.3-1.4s-0.5-0.4-1-0.4c-0.4,0-0.8,0.2-1,0.6s-0.4,0.8-0.4,1.3v3.4h-1
				v-3.6c0-1.2-0.5-1.8-1.4-1.8c-0.4,0-0.8,0.2-1,0.5s-0.4,0.8-0.4,1.4v3.4h-1v-6h1v0.9h0c0.4-0.7,1-1.1,1.9-1.1
				c0.4,0,0.8,0.1,1.1,0.3s0.5,0.5,0.6,0.9c0.4-0.8,1.1-1.2,2-1.2c1.3,0,2,0.8,2,2.4V80.2z"/>
			<path class="st12" d="M214.1,79.3L214.1,79.3l0,3.6h-1v-8.8h1v1.1h0c0.5-0.8,1.2-1.2,2.1-1.2c0.8,0,1.4,0.3,1.8,0.8
				s0.7,1.3,0.7,2.2c0,1-0.2,1.8-0.7,2.4s-1.2,0.9-2,0.9C215.1,80.4,214.5,80,214.1,79.3z M214.1,76.9v0.8c0,0.5,0.2,0.9,0.5,1.3
				s0.7,0.5,1.2,0.5c0.6,0,1-0.2,1.4-0.7s0.5-1.1,0.5-1.9c0-0.7-0.2-1.2-0.5-1.6s-0.7-0.6-1.3-0.6c-0.6,0-1,0.2-1.3,0.6
				S214.1,76.3,214.1,76.9z"/>
			<path class="st12" d="M222.9,80.2c-0.2,0.1-0.5,0.2-0.9,0.2c-1.1,0-1.6-0.6-1.6-1.8V75h-1v-0.8h1v-1.5l1-0.3v1.8h1.5V75h-1.5v3.4
				c0,0.4,0.1,0.7,0.2,0.9s0.4,0.3,0.7,0.3c0.2,0,0.5-0.1,0.6-0.2V80.2z"/>
		</g>
	</g>
	<g>
		<g>
			<path class="st12" d="M210.1,107.1h-2.4v7.5h-1v-7.5h-2.4v-0.9h5.8V107.1z"/>
			<path class="st12" d="M212.6,114.8c-0.9,0-1.6-0.3-2.1-0.8s-0.8-1.3-0.8-2.2c0-1,0.3-1.8,0.8-2.4s1.3-0.8,2.2-0.8
				c0.9,0,1.6,0.3,2.1,0.8s0.8,1.3,0.8,2.3c0,1-0.3,1.7-0.8,2.3S213.5,114.8,212.6,114.8z M212.7,109.3c-0.6,0-1.1,0.2-1.5,0.6
				s-0.5,1-0.5,1.7c0,0.7,0.2,1.3,0.5,1.7s0.8,0.6,1.5,0.6c0.6,0,1.1-0.2,1.4-0.6s0.5-1,0.5-1.7c0-0.8-0.2-1.3-0.5-1.7
				S213.3,109.3,212.7,109.3z"/>
			<path class="st12" d="M222.1,114.6h-1.3l-2.6-2.9h0v2.9h-1v-8.9h1v5.6h0l2.5-2.7h1.3l-2.8,2.9L222.1,114.6z"/>
			<path class="st12" d="M227.9,111.9h-4.2c0,0.7,0.2,1.2,0.5,1.5s0.8,0.5,1.4,0.5c0.7,0,1.3-0.2,1.9-0.7v0.9
				c-0.5,0.4-1.2,0.6-2.1,0.6c-0.8,0-1.5-0.3-2-0.8s-0.7-1.3-0.7-2.3c0-0.9,0.3-1.7,0.8-2.3s1.2-0.9,2-0.9s1.4,0.3,1.8,0.8
				s0.6,1.2,0.6,2.1V111.9z M226.9,111c0-0.6-0.1-1-0.4-1.3s-0.6-0.5-1.1-0.5c-0.5,0-0.8,0.2-1.2,0.5s-0.5,0.7-0.6,1.3H226.9z"/>
			<path class="st12" d="M234.3,114.6h-1v-3.4c0-1.3-0.5-1.9-1.4-1.9c-0.5,0-0.9,0.2-1.2,0.5s-0.5,0.8-0.5,1.4v3.4h-1v-6h1v1h0
				c0.5-0.8,1.1-1.1,2-1.1c0.7,0,1.2,0.2,1.5,0.6s0.5,1,0.5,1.8V114.6z"/>
			<path class="st12" d="M244.5,114.6h-1v-1h0c-0.4,0.8-1.1,1.2-2.1,1.2c-0.8,0-1.4-0.3-1.8-0.8s-0.7-1.3-0.7-2.2
				c0-1,0.3-1.8,0.8-2.4s1.2-0.9,2-0.9c0.8,0,1.4,0.3,1.8,1h0v-3.7h1V114.6z M243.5,111.9V111c0-0.5-0.2-0.9-0.5-1.2
				s-0.7-0.5-1.2-0.5c-0.6,0-1,0.2-1.4,0.6s-0.5,1-0.5,1.8c0,0.7,0.2,1.2,0.5,1.6s0.8,0.6,1.3,0.6c0.5,0,1-0.2,1.3-0.6
				S243.5,112.5,243.5,111.9z"/>
			<path class="st12" d="M246.9,107.1c-0.2,0-0.3-0.1-0.4-0.2s-0.2-0.3-0.2-0.4s0.1-0.3,0.2-0.4s0.3-0.2,0.4-0.2
				c0.2,0,0.3,0.1,0.4,0.2s0.2,0.3,0.2,0.4c0,0.2-0.1,0.3-0.2,0.4S247,107.1,246.9,107.1z M247.3,114.6h-1v-6h1V114.6z"/>
			<path class="st12" d="M256.8,114.6h-1v-0.9h0c-0.4,0.7-1,1.1-1.8,1.1c-0.6,0-1.1-0.2-1.4-0.5s-0.5-0.7-0.5-1.3c0-1.1,0.7-1.8,2-2
				l1.8-0.3c0-1-0.4-1.5-1.2-1.5c-0.7,0-1.4,0.2-2,0.7v-1c0.6-0.4,1.3-0.6,2-0.6c1.4,0,2.1,0.7,2.1,2.2V114.6z M255.9,111.6
				l-1.4,0.2c-0.4,0.1-0.8,0.2-1,0.3s-0.3,0.4-0.3,0.8c0,0.3,0.1,0.5,0.3,0.7s0.5,0.3,0.8,0.3c0.5,0,0.9-0.2,1.2-0.5
				s0.5-0.8,0.5-1.3V111.6z"/>
			<path class="st12" d="M262.7,114.3c-0.5,0.3-1,0.4-1.6,0.4c-0.9,0-1.5-0.3-2.1-0.8s-0.8-1.3-0.8-2.2c0-1,0.3-1.8,0.8-2.4
				s1.3-0.9,2.3-0.9c0.5,0,1,0.1,1.4,0.3v1c-0.4-0.3-0.9-0.5-1.4-0.5c-0.6,0-1.1,0.2-1.5,0.7s-0.6,1-0.6,1.7c0,0.7,0.2,1.3,0.6,1.7
				s0.9,0.6,1.5,0.6c0.5,0,1-0.2,1.5-0.5V114.3z"/>
			<path class="st12" d="M268.2,114.3c-0.5,0.3-1,0.4-1.6,0.4c-0.9,0-1.5-0.3-2.1-0.8s-0.8-1.3-0.8-2.2c0-1,0.3-1.8,0.8-2.4
				s1.3-0.9,2.3-0.9c0.5,0,1,0.1,1.4,0.3v1c-0.4-0.3-0.9-0.5-1.4-0.5c-0.6,0-1.1,0.2-1.5,0.7s-0.6,1-0.6,1.7c0,0.7,0.2,1.3,0.6,1.7
				s0.9,0.6,1.5,0.6c0.5,0,1-0.2,1.5-0.5V114.3z"/>
			<path class="st12" d="M274.5,111.9h-4.2c0,0.7,0.2,1.2,0.5,1.5s0.8,0.5,1.4,0.5c0.7,0,1.3-0.2,1.9-0.7v0.9
				c-0.5,0.4-1.2,0.6-2.1,0.6c-0.8,0-1.5-0.3-2-0.8s-0.7-1.3-0.7-2.3c0-0.9,0.3-1.7,0.8-2.3s1.2-0.9,2-0.9s1.4,0.3,1.8,0.8
				s0.6,1.2,0.6,2.1V111.9z M273.5,111c0-0.6-0.1-1-0.4-1.3s-0.6-0.5-1.1-0.5c-0.5,0-0.8,0.2-1.2,0.5s-0.5,0.7-0.6,1.3H273.5z"/>
			<path class="st12" d="M275.5,114.4v-1c0.5,0.4,1.1,0.6,1.7,0.6c0.8,0,1.3-0.3,1.3-0.8c0-0.2,0-0.3-0.1-0.4s-0.2-0.2-0.3-0.3
				s-0.3-0.2-0.4-0.2s-0.3-0.1-0.5-0.2c-0.3-0.1-0.5-0.2-0.7-0.3s-0.4-0.2-0.5-0.4s-0.2-0.3-0.3-0.5s-0.1-0.4-0.1-0.6
				c0-0.3,0.1-0.5,0.2-0.7s0.3-0.4,0.5-0.5s0.5-0.3,0.7-0.3s0.6-0.1,0.9-0.1c0.5,0,1,0.1,1.4,0.3v1c-0.4-0.3-0.9-0.4-1.5-0.4
				c-0.2,0-0.3,0-0.5,0.1s-0.3,0.1-0.4,0.2s-0.2,0.2-0.2,0.3s-0.1,0.2-0.1,0.3c0,0.2,0,0.3,0.1,0.4s0.1,0.2,0.2,0.3s0.2,0.2,0.4,0.2
				s0.3,0.1,0.5,0.2c0.3,0.1,0.5,0.2,0.7,0.3s0.4,0.2,0.5,0.4s0.3,0.3,0.3,0.5s0.1,0.4,0.1,0.6c0,0.3-0.1,0.6-0.2,0.8
				s-0.3,0.4-0.5,0.5s-0.5,0.3-0.8,0.3s-0.6,0.1-0.9,0.1C276.5,114.8,276,114.6,275.5,114.4z"/>
			<path class="st12" d="M280.6,114.4v-1c0.5,0.4,1.1,0.6,1.7,0.6c0.8,0,1.3-0.3,1.3-0.8c0-0.2,0-0.3-0.1-0.4s-0.2-0.2-0.3-0.3
				s-0.3-0.2-0.4-0.2s-0.3-0.1-0.5-0.2c-0.3-0.1-0.5-0.2-0.7-0.3s-0.4-0.2-0.5-0.4s-0.2-0.3-0.3-0.5s-0.1-0.4-0.1-0.6
				c0-0.3,0.1-0.5,0.2-0.7s0.3-0.4,0.5-0.5s0.5-0.3,0.7-0.3s0.6-0.1,0.9-0.1c0.5,0,1,0.1,1.4,0.3v1c-0.4-0.3-0.9-0.4-1.5-0.4
				c-0.2,0-0.3,0-0.5,0.1s-0.3,0.1-0.4,0.2s-0.2,0.2-0.2,0.3s-0.1,0.2-0.1,0.3c0,0.2,0,0.3,0.1,0.4s0.1,0.2,0.2,0.3s0.2,0.2,0.4,0.2
				s0.3,0.1,0.5,0.2c0.3,0.1,0.5,0.2,0.7,0.3s0.4,0.2,0.5,0.4s0.3,0.3,0.3,0.5s0.1,0.4,0.1,0.6c0,0.3-0.1,0.6-0.2,0.8
				s-0.3,0.4-0.5,0.5s-0.5,0.3-0.8,0.3s-0.6,0.1-0.9,0.1C281.6,114.8,281.1,114.6,280.6,114.4z"/>
			<path class="st12" d="M288.5,114.8c-0.9,0-1.6-0.3-2.1-0.8s-0.8-1.3-0.8-2.2c0-1,0.3-1.8,0.8-2.4s1.3-0.8,2.2-0.8
				c0.9,0,1.6,0.3,2.1,0.8s0.8,1.3,0.8,2.3c0,1-0.3,1.7-0.8,2.3S289.5,114.8,288.5,114.8z M288.6,109.3c-0.6,0-1.1,0.2-1.5,0.6
				s-0.5,1-0.5,1.7c0,0.7,0.2,1.3,0.5,1.7s0.8,0.6,1.5,0.6c0.6,0,1.1-0.2,1.4-0.6s0.5-1,0.5-1.7c0-0.8-0.2-1.3-0.5-1.7
				S289.2,109.3,288.6,109.3z"/>
			<path class="st12" d="M302.2,111.5h-2.4v2.4h-0.8v-2.4h-2.4v-0.8h2.4v-2.4h0.8v2.4h2.4V111.5z"/>
			<path class="st12" d="M314,111.2c0,2.4-1.1,3.5-3.2,3.5c-2,0-3.1-1.1-3.1-3.4v-5.1h1v5.1c0,1.7,0.7,2.6,2.2,2.6
				c1.4,0,2.1-0.8,2.1-2.5v-5.2h1V111.2z"/>
			<path class="st12" d="M322.1,114.6H321l-1.4-2.4c-0.1-0.2-0.3-0.4-0.4-0.6s-0.2-0.3-0.4-0.4s-0.3-0.2-0.4-0.2s-0.3-0.1-0.5-0.1
				h-0.8v3.6h-1v-8.4h2.5c0.4,0,0.7,0,1,0.1s0.6,0.2,0.8,0.4s0.4,0.4,0.5,0.7s0.2,0.6,0.2,1c0,0.3,0,0.6-0.1,0.8s-0.2,0.5-0.4,0.7
				s-0.4,0.4-0.6,0.5s-0.5,0.2-0.8,0.3v0c0.1,0.1,0.3,0.1,0.4,0.2s0.2,0.2,0.3,0.3s0.2,0.2,0.3,0.4s0.2,0.3,0.3,0.5L322.1,114.6z
				 M317.1,107.1v3h1.3c0.2,0,0.5,0,0.7-0.1s0.4-0.2,0.5-0.3s0.3-0.3,0.4-0.5s0.1-0.4,0.1-0.7c0-0.4-0.1-0.8-0.4-1.1
				s-0.7-0.4-1.3-0.4H317.1z"/>
			<path class="st12" d="M327.6,114.6h-4.4v-8.4h1v7.5h3.4V114.6z"/>
			<path class="st12" d="M210.1,127.6h-1v-1h0c-0.4,0.8-1.1,1.2-2.1,1.2c-0.8,0-1.4-0.3-1.8-0.8s-0.7-1.3-0.7-2.2
				c0-1,0.3-1.8,0.8-2.4s1.2-0.9,2-0.9c0.8,0,1.4,0.3,1.8,1h0v-3.7h1V127.6z M209.2,124.9V124c0-0.5-0.2-0.9-0.5-1.2
				s-0.7-0.5-1.2-0.5c-0.6,0-1,0.2-1.4,0.6s-0.5,1-0.5,1.8c0,0.7,0.2,1.2,0.5,1.6s0.8,0.6,1.3,0.6c0.5,0,1-0.2,1.3-0.6
				S209.2,125.5,209.2,124.9z"/>
			<path class="st12" d="M212.6,120.1c-0.2,0-0.3-0.1-0.4-0.2s-0.2-0.3-0.2-0.4s0.1-0.3,0.2-0.4s0.3-0.2,0.4-0.2
				c0.2,0,0.3,0.1,0.4,0.2s0.2,0.3,0.2,0.4c0,0.2-0.1,0.3-0.2,0.4S212.7,120.1,212.6,120.1z M213,127.6h-1v-6h1V127.6z"/>
			<path class="st12" d="M221.3,122.6c-0.2-0.1-0.4-0.2-0.7-0.2c-0.4,0-0.8,0.2-1,0.6s-0.4,0.9-0.4,1.6v3.1h-1v-6h1v1.2h0
				c0.1-0.4,0.3-0.8,0.6-1s0.6-0.4,0.9-0.4c0.3,0,0.4,0,0.6,0.1V122.6z"/>
			<path class="st12" d="M227.2,124.9h-4.2c0,0.7,0.2,1.2,0.5,1.5s0.8,0.5,1.4,0.5c0.7,0,1.3-0.2,1.9-0.7v0.9
				c-0.5,0.4-1.2,0.6-2.1,0.6c-0.8,0-1.5-0.3-2-0.8s-0.7-1.3-0.7-2.3c0-0.9,0.3-1.7,0.8-2.3s1.2-0.9,2-0.9s1.4,0.3,1.8,0.8
				s0.6,1.2,0.6,2.1V124.9z M226.2,124c0-0.6-0.1-1-0.4-1.3s-0.6-0.5-1.1-0.5c-0.5,0-0.8,0.2-1.2,0.5s-0.5,0.7-0.6,1.3H226.2z"/>
			<path class="st12" d="M229.1,120.1c-0.2,0-0.3-0.1-0.4-0.2s-0.2-0.3-0.2-0.4s0.1-0.3,0.2-0.4s0.3-0.2,0.4-0.2
				c0.2,0,0.3,0.1,0.4,0.2s0.2,0.3,0.2,0.4c0,0.2-0.1,0.3-0.2,0.4S229.3,120.1,229.1,120.1z M229.6,127.6h-1v-6h1V127.6z"/>
			<path class="st12" d="M236.5,127.6h-1v-3.4c0-1.3-0.5-1.9-1.4-1.9c-0.5,0-0.9,0.2-1.2,0.5s-0.5,0.8-0.5,1.4v3.4h-1v-6h1v1h0
				c0.5-0.8,1.1-1.1,2-1.1c0.7,0,1.2,0.2,1.5,0.6s0.5,1,0.5,1.8V127.6z"/>
			<path class="st12" d="M243.4,127.6h-1v-1h0c-0.4,0.8-1.1,1.2-2.1,1.2c-0.8,0-1.4-0.3-1.8-0.8s-0.7-1.3-0.7-2.2
				c0-1,0.3-1.8,0.8-2.4s1.2-0.9,2-0.9c0.8,0,1.4,0.3,1.8,1h0v-3.7h1V127.6z M242.4,124.9V124c0-0.5-0.2-0.9-0.5-1.2
				s-0.7-0.5-1.2-0.5c-0.6,0-1,0.2-1.4,0.6s-0.5,1-0.5,1.8c0,0.7,0.2,1.2,0.5,1.6s0.8,0.6,1.3,0.6c0.5,0,1-0.2,1.3-0.6
				S242.4,125.5,242.4,124.9z"/>
			<path class="st12" d="M245.8,120.1c-0.2,0-0.3-0.1-0.4-0.2s-0.2-0.3-0.2-0.4s0.1-0.3,0.2-0.4s0.3-0.2,0.4-0.2
				c0.2,0,0.3,0.1,0.4,0.2s0.2,0.3,0.2,0.4c0,0.2-0.1,0.3-0.2,0.4S246,120.1,245.8,120.1z M246.3,127.6h-1v-6h1V127.6z"/>
			<path class="st12" d="M251.3,122.6c-0.2-0.1-0.4-0.2-0.7-0.2c-0.4,0-0.8,0.2-1,0.6s-0.4,0.9-0.4,1.6v3.1h-1v-6h1v1.2h0
				c0.1-0.4,0.3-0.8,0.6-1s0.6-0.4,0.9-0.4c0.3,0,0.4,0,0.6,0.1V122.6z"/>
			<path class="st12" d="M252.8,120.1c-0.2,0-0.3-0.1-0.4-0.2s-0.2-0.3-0.2-0.4s0.1-0.3,0.2-0.4s0.3-0.2,0.4-0.2
				c0.2,0,0.3,0.1,0.4,0.2s0.2,0.3,0.2,0.4c0,0.2-0.1,0.3-0.2,0.4S253,120.1,252.8,120.1z M253.3,127.6h-1v-6h1V127.6z"/>
			<path class="st12" d="M259.4,121.9l-3.6,4.9h3.5v0.8h-4.9v-0.3l3.6-4.9h-3.2v-0.8h4.6V121.9z"/>
			<path class="st12" d="M264.8,121.9l-3.6,4.9h3.5v0.8h-4.9v-0.3l3.6-4.9h-3.2v-0.8h4.6V121.9z"/>
			<path class="st12" d="M270.3,127.6h-1v-0.9h0c-0.4,0.7-1,1.1-1.8,1.1c-0.6,0-1.1-0.2-1.4-0.5s-0.5-0.7-0.5-1.3c0-1.1,0.7-1.8,2-2
				l1.8-0.3c0-1-0.4-1.5-1.2-1.5c-0.7,0-1.4,0.2-2,0.7v-1c0.6-0.4,1.3-0.6,2-0.6c1.4,0,2.1,0.7,2.1,2.2V127.6z M269.3,124.6
				l-1.4,0.2c-0.4,0.1-0.8,0.2-1,0.3s-0.3,0.4-0.3,0.8c0,0.3,0.1,0.5,0.3,0.7s0.5,0.3,0.8,0.3c0.5,0,0.9-0.2,1.2-0.5
				s0.5-0.8,0.5-1.3V124.6z"/>
			<path class="st12" d="M280.6,127.6h-1v-3.4c0-0.7-0.1-1.1-0.3-1.4s-0.5-0.4-1-0.4c-0.4,0-0.8,0.2-1,0.6s-0.4,0.8-0.4,1.3v3.4h-1
				V124c0-1.2-0.5-1.8-1.4-1.8c-0.4,0-0.8,0.2-1,0.5s-0.4,0.8-0.4,1.4v3.4h-1v-6h1v0.9h0c0.4-0.7,1-1.1,1.9-1.1
				c0.4,0,0.8,0.1,1.1,0.3s0.5,0.5,0.6,0.9c0.4-0.8,1.1-1.2,2-1.2c1.3,0,2,0.8,2,2.4V127.6z"/>
			<path class="st12" d="M287.2,124.9H283c0,0.7,0.2,1.2,0.5,1.5s0.8,0.5,1.4,0.5c0.7,0,1.3-0.2,1.9-0.7v0.9
				c-0.5,0.4-1.2,0.6-2.1,0.6c-0.8,0-1.5-0.3-2-0.8s-0.7-1.3-0.7-2.3c0-0.9,0.3-1.7,0.8-2.3s1.2-0.9,2-0.9s1.4,0.3,1.8,0.8
				s0.6,1.2,0.6,2.1V124.9z M286.2,124c0-0.6-0.1-1-0.4-1.3s-0.6-0.5-1.1-0.5c-0.5,0-0.8,0.2-1.2,0.5s-0.5,0.7-0.6,1.3H286.2z"/>
			<path class="st12" d="M293.6,127.6h-1v-3.4c0-1.3-0.5-1.9-1.4-1.9c-0.5,0-0.9,0.2-1.2,0.5s-0.5,0.8-0.5,1.4v3.4h-1v-6h1v1h0
				c0.5-0.8,1.1-1.1,2-1.1c0.7,0,1.2,0.2,1.5,0.6s0.5,1,0.5,1.8V127.6z"/>
			<path class="st12" d="M298.2,127.6c-0.2,0.1-0.5,0.2-0.9,0.2c-1.1,0-1.6-0.6-1.6-1.8v-3.6h-1v-0.8h1v-1.5l1-0.3v1.8h1.5v0.8h-1.5
				v3.4c0,0.4,0.1,0.7,0.2,0.9s0.4,0.3,0.7,0.3c0.2,0,0.5-0.1,0.6-0.2V127.6z"/>
			<path class="st12" d="M302,127.8c-0.9,0-1.6-0.3-2.1-0.8s-0.8-1.3-0.8-2.2c0-1,0.3-1.8,0.8-2.4s1.3-0.8,2.2-0.8
				c0.9,0,1.6,0.3,2.1,0.8s0.8,1.3,0.8,2.3c0,1-0.3,1.7-0.8,2.3S302.9,127.8,302,127.8z M302,122.3c-0.6,0-1.1,0.2-1.5,0.6
				s-0.5,1-0.5,1.7c0,0.7,0.2,1.3,0.5,1.7s0.8,0.6,1.5,0.6c0.6,0,1.1-0.2,1.4-0.6s0.5-1,0.5-1.7c0-0.8-0.2-1.3-0.5-1.7
				S302.7,122.3,302,122.3z"/>
		</g>
	</g>
	<g>
		<rect x="390.1" y="87" class="st10" width="64.5" height="60.7"/>
		<path class="st13" d="M394.8,92.9v2.9h-1.9v-8.4h3c2.1,0,3.2,0.9,3.2,2.7c0,0.8-0.3,1.5-0.9,2s-1.4,0.8-2.4,0.8H394.8z
			 M394.8,88.9v2.6h0.7c1,0,1.5-0.4,1.5-1.3c0-0.9-0.5-1.3-1.5-1.3H394.8z"/>
		<path class="st13" d="M401.1,88.9c-0.3,0-0.6-0.1-0.8-0.3s-0.3-0.4-0.3-0.7c0-0.3,0.1-0.5,0.3-0.7s0.5-0.3,0.8-0.3
			c0.3,0,0.6,0.1,0.8,0.3s0.3,0.4,0.3,0.7c0,0.3-0.1,0.5-0.3,0.7S401.4,88.9,401.1,88.9z M402,95.8h-1.9v-6h1.9V95.8z"/>
		<path class="st13" d="M408.5,95.8h-1.8V95h0c-0.4,0.7-1,1-1.8,1c-0.6,0-1-0.2-1.4-0.5s-0.5-0.8-0.5-1.3c0-1.2,0.7-1.8,2.1-2
			l1.6-0.2c0-0.7-0.4-1-1.1-1c-0.7,0-1.4,0.2-2,0.6v-1.4c0.3-0.1,0.6-0.3,1.1-0.4s0.9-0.2,1.2-0.2c1.7,0,2.6,0.9,2.6,2.6V95.8z
			 M406.8,93.4V93l-1.1,0.1c-0.6,0.1-0.9,0.3-0.9,0.8c0,0.2,0.1,0.4,0.2,0.5s0.3,0.2,0.6,0.2c0.3,0,0.6-0.1,0.8-0.4
			S406.8,93.8,406.8,93.4z"/>
		<path class="st13" d="M413.6,95.8c-0.3,0.1-0.7,0.2-1.2,0.2c-1.3,0-2-0.7-2-2v-2.7h-1v-1.4h1v-1.3l1.8-0.5v1.8h1.3v1.4h-1.3v2.4
			c0,0.6,0.2,0.9,0.7,0.9c0.2,0,0.4-0.1,0.6-0.2V95.8z"/>
		<path class="st13" d="M418.3,95.8c-0.3,0.1-0.7,0.2-1.2,0.2c-1.3,0-2-0.7-2-2v-2.7h-1v-1.4h1v-1.3l1.8-0.5v1.8h1.3v1.4h-1.3v2.4
			c0,0.6,0.2,0.9,0.7,0.9c0.2,0,0.4-0.1,0.6-0.2V95.8z"/>
		<path class="st13" d="M424.3,95.8h-1.8V95h0c-0.4,0.7-1,1-1.8,1c-0.6,0-1-0.2-1.4-0.5s-0.5-0.8-0.5-1.3c0-1.2,0.7-1.8,2.1-2
			l1.6-0.2c0-0.7-0.4-1-1.1-1c-0.7,0-1.4,0.2-2,0.6v-1.4c0.3-0.1,0.6-0.3,1.1-0.4s0.9-0.2,1.2-0.2c1.7,0,2.6,0.9,2.6,2.6V95.8z
			 M422.6,93.4V93l-1.1,0.1c-0.6,0.1-0.9,0.3-0.9,0.8c0,0.2,0.1,0.4,0.2,0.5s0.3,0.2,0.6,0.2c0.3,0,0.6-0.1,0.8-0.4
			S422.6,93.8,422.6,93.4z"/>
		<path class="st13" d="M429.7,88.4c-0.2-0.1-0.5-0.1-0.7-0.1c-0.6,0-0.9,0.3-0.9,1v0.6h1.4v1.4h-1.4v4.6h-1.8v-4.6h-1v-1.4h1v-0.7
			c0-0.7,0.2-1.2,0.7-1.7s1.1-0.6,1.8-0.6c0.4,0,0.7,0,0.9,0.1V88.4z"/>
		<path class="st13" d="M433.3,96c-1,0-1.8-0.3-2.4-0.8s-0.9-1.3-0.9-2.3c0-1,0.3-1.8,0.9-2.3s1.4-0.8,2.4-0.8c1,0,1.8,0.3,2.3,0.8
			s0.8,1.3,0.8,2.2c0,1-0.3,1.8-0.9,2.4S434.3,96,433.3,96z M433.3,91.1c-0.4,0-0.8,0.2-1,0.5s-0.4,0.7-0.4,1.3
			c0,1.2,0.5,1.7,1.4,1.7c0.9,0,1.3-0.6,1.3-1.8C434.6,91.7,434.2,91.1,433.3,91.1z"/>
		<path class="st13" d="M441.6,91.5c-0.2-0.1-0.5-0.2-0.8-0.2c-0.4,0-0.7,0.1-0.9,0.4s-0.3,0.7-0.3,1.2v2.9h-1.9v-6h1.9v1.1h0
			c0.3-0.8,0.8-1.2,1.6-1.2c0.2,0,0.3,0,0.5,0.1V91.5z"/>
		<path class="st13" d="M452.1,95.8h-1.8v-3.4c0-0.9-0.3-1.3-1-1.3c-0.3,0-0.6,0.1-0.7,0.4s-0.3,0.6-0.3,1v3.4h-1.9v-3.5
			c0-0.8-0.3-1.3-0.9-1.3c-0.3,0-0.6,0.1-0.8,0.4s-0.3,0.6-0.3,1v3.3h-1.9v-6h1.9v0.9h0c0.2-0.3,0.5-0.6,0.8-0.8s0.7-0.3,1.1-0.3
			c0.8,0,1.4,0.4,1.7,1.1c0.5-0.7,1.1-1.1,2-1.1c1.3,0,2,0.8,2,2.4V95.8z"/>
		<path class="st13" d="M395.9,110.8h-1.8V110h0c-0.4,0.7-1,1-1.8,1c-0.6,0-1-0.2-1.4-0.5s-0.5-0.8-0.5-1.3c0-1.2,0.7-1.8,2.1-2
			l1.6-0.2c0-0.7-0.4-1-1.1-1c-0.7,0-1.4,0.2-2,0.6v-1.4c0.3-0.1,0.6-0.3,1.1-0.4s0.9-0.2,1.2-0.2c1.7,0,2.6,0.9,2.6,2.6V110.8z
			 M394.2,108.4V108l-1.1,0.1c-0.6,0.1-0.9,0.3-0.9,0.8c0,0.2,0.1,0.4,0.2,0.5s0.3,0.2,0.6,0.2c0.3,0,0.6-0.1,0.8-0.4
			S394.2,108.8,394.2,108.4z"/>
		<path class="st13" d="M410.4,110.8h-1.9v-5c0-0.5,0-1.1,0.1-1.8h0c-0.1,0.5-0.2,0.9-0.3,1.1l-2,5.7h-1.5l-2-5.7
			c-0.1-0.2-0.1-0.5-0.3-1.2h-0.1c0.1,0.8,0.1,1.6,0.1,2.2v4.6h-1.7v-8.4h2.8l1.7,5c0.1,0.4,0.2,0.8,0.3,1.2h0
			c0.1-0.5,0.2-0.9,0.3-1.2l1.7-5h2.7V110.8z"/>
		<path class="st13" d="M413.1,103.9c-0.3,0-0.6-0.1-0.8-0.3s-0.3-0.4-0.3-0.7c0-0.3,0.1-0.5,0.3-0.7s0.5-0.3,0.8-0.3
			c0.3,0,0.6,0.1,0.8,0.3s0.3,0.4,0.3,0.7c0,0.3-0.1,0.5-0.3,0.7S413.4,103.9,413.1,103.9z M414,110.8h-1.9v-6h1.9V110.8z"/>
		<path class="st13" d="M420.1,110.6c-0.4,0.2-1,0.4-1.8,0.4c-0.9,0-1.7-0.3-2.2-0.8s-0.9-1.3-0.9-2.2c0-1,0.3-1.8,0.9-2.4
			s1.4-0.9,2.5-0.9c0.7,0,1.2,0.1,1.5,0.3v1.6c-0.4-0.3-0.8-0.4-1.3-0.4c-0.5,0-1,0.2-1.3,0.5s-0.5,0.7-0.5,1.3
			c0,0.5,0.1,0.9,0.4,1.3s0.7,0.5,1.2,0.5c0.5,0,0.9-0.1,1.4-0.4V110.6z"/>
		<path class="st13" d="M425.2,106.5c-0.2-0.1-0.5-0.2-0.8-0.2c-0.4,0-0.7,0.1-0.9,0.4s-0.3,0.7-0.3,1.2v2.9h-1.9v-6h1.9v1.1h0
			c0.3-0.8,0.8-1.2,1.6-1.2c0.2,0,0.3,0,0.5,0.1V106.5z"/>
		<path class="st13" d="M428.9,111c-1,0-1.8-0.3-2.4-0.8s-0.9-1.3-0.9-2.3c0-1,0.3-1.8,0.9-2.3s1.4-0.8,2.4-0.8c1,0,1.8,0.3,2.3,0.8
			s0.8,1.3,0.8,2.2c0,1-0.3,1.8-0.9,2.4S429.9,111,428.9,111z M429,106.1c-0.4,0-0.8,0.2-1,0.5s-0.4,0.7-0.4,1.3
			c0,1.2,0.5,1.7,1.4,1.7c0.9,0,1.3-0.6,1.3-1.8C430.3,106.7,429.8,106.1,429,106.1z"/>
		<path class="st13" d="M433,110.7v-1.5c0.3,0.2,0.6,0.3,0.9,0.4s0.6,0.1,0.9,0.1c0.3,0,0.6,0,0.8-0.1s0.3-0.2,0.3-0.4
			c0-0.1,0-0.2-0.1-0.3s-0.2-0.1-0.3-0.2s-0.3-0.1-0.4-0.2s-0.3-0.1-0.5-0.2c-0.2-0.1-0.4-0.2-0.6-0.3s-0.3-0.2-0.5-0.4
			s-0.2-0.3-0.3-0.5s-0.1-0.4-0.1-0.6c0-0.3,0.1-0.6,0.2-0.9s0.3-0.4,0.6-0.6s0.5-0.3,0.8-0.3s0.6-0.1,1-0.1c0.3,0,0.5,0,0.8,0.1
			s0.5,0.1,0.8,0.2v1.4c-0.2-0.1-0.5-0.2-0.8-0.3s-0.5-0.1-0.8-0.1c-0.1,0-0.2,0-0.3,0s-0.2,0.1-0.3,0.1s-0.1,0.1-0.2,0.2
			s-0.1,0.1-0.1,0.2c0,0.1,0,0.2,0.1,0.3s0.2,0.1,0.3,0.2s0.2,0.1,0.4,0.2s0.3,0.1,0.4,0.1c0.2,0.1,0.5,0.2,0.7,0.3s0.4,0.2,0.5,0.4
			s0.3,0.3,0.3,0.5s0.1,0.4,0.1,0.7c0,0.4-0.1,0.7-0.2,0.9s-0.4,0.5-0.6,0.6s-0.6,0.3-0.9,0.3s-0.7,0.1-1,0.1
			C434.2,111,433.6,110.9,433,110.7z"/>
		<path class="st13" d="M441.5,111c-1,0-1.8-0.3-2.4-0.8s-0.9-1.3-0.9-2.3c0-1,0.3-1.8,0.9-2.3s1.4-0.8,2.4-0.8c1,0,1.8,0.3,2.3,0.8
			s0.8,1.3,0.8,2.2c0,1-0.3,1.8-0.9,2.4S442.5,111,441.5,111z M441.6,106.1c-0.4,0-0.8,0.2-1,0.5s-0.4,0.7-0.4,1.3
			c0,1.2,0.5,1.7,1.4,1.7c0.9,0,1.3-0.6,1.3-1.8C442.9,106.7,442.5,106.1,441.6,106.1z"/>
		<path class="st13" d="M449.7,103.4c-0.2-0.1-0.5-0.1-0.7-0.1c-0.6,0-0.9,0.3-0.9,1v0.6h1.4v1.4h-1.4v4.6h-1.8v-4.6h-1v-1.4h1v-0.7
			c0-0.7,0.2-1.2,0.7-1.7s1.1-0.6,1.8-0.6c0.4,0,0.7,0,0.9,0.1V103.4z"/>
		<path class="st13" d="M454.3,110.8c-0.3,0.1-0.7,0.2-1.2,0.2c-1.3,0-2-0.7-2-2v-2.7h-1v-1.4h1v-1.3l1.8-0.5v1.8h1.3v1.4h-1.3v2.4
			c0,0.6,0.2,0.9,0.7,0.9c0.2,0,0.4-0.1,0.6-0.2V110.8z"/>
		<path class="st13" d="M403.1,125.8h-1.9v-8.4h1.9V125.8z"/>
		<path class="st13" d="M410.7,125.8h-1.9V125h0c-0.4,0.6-1,1-1.9,1c-0.8,0-1.4-0.3-1.8-0.8s-0.7-1.3-0.7-2.2c0-1,0.3-1.8,0.8-2.4
			s1.2-0.9,2-0.9c0.8,0,1.3,0.3,1.6,0.8h0V117h1.9V125.8z M408.9,122.9v-0.5c0-0.4-0.1-0.7-0.3-1s-0.5-0.4-0.9-0.4
			c-0.4,0-0.7,0.2-1,0.5s-0.3,0.8-0.3,1.3c0,0.5,0.1,0.9,0.3,1.2s0.5,0.4,0.9,0.4c0.4,0,0.7-0.2,0.9-0.5S408.9,123.4,408.9,122.9z"
			/>
		<path class="st13" d="M417.7,123.4h-3.9c0.1,0.9,0.6,1.3,1.6,1.3c0.7,0,1.2-0.2,1.7-0.5v1.3c-0.6,0.3-1.3,0.4-2.2,0.4
			c-1,0-1.7-0.3-2.3-0.8s-0.8-1.3-0.8-2.2c0-1,0.3-1.8,0.9-2.4s1.3-0.9,2.1-0.9c0.9,0,1.6,0.3,2,0.8s0.7,1.2,0.7,2.1V123.4z
			 M416,122.2c0-0.9-0.3-1.3-1-1.3c-0.3,0-0.6,0.1-0.8,0.4s-0.3,0.6-0.4,0.9H416z"/>
		<path class="st13" d="M424.6,125.8h-1.8v-3.3c0-0.9-0.3-1.4-1-1.4c-0.3,0-0.6,0.1-0.8,0.4s-0.3,0.6-0.3,0.9v3.4h-1.9v-6h1.9v0.9h0
			c0.4-0.7,1.1-1.1,1.9-1.1c1.3,0,2,0.8,2,2.5V125.8z"/>
		<path class="st13" d="M429.7,125.8c-0.3,0.1-0.7,0.2-1.2,0.2c-1.3,0-2-0.7-2-2v-2.7h-1v-1.4h1v-1.3l1.8-0.5v1.8h1.3v1.4h-1.3v2.4
			c0,0.6,0.2,0.9,0.7,0.9c0.2,0,0.4-0.1,0.6-0.2V125.8z"/>
		<path class="st13" d="M431.6,118.9c-0.3,0-0.6-0.1-0.8-0.3s-0.3-0.4-0.3-0.7c0-0.3,0.1-0.5,0.3-0.7s0.5-0.3,0.8-0.3
			c0.3,0,0.6,0.1,0.8,0.3s0.3,0.4,0.3,0.7c0,0.3-0.1,0.5-0.3,0.7S432,118.9,431.6,118.9z M432.6,125.8h-1.9v-6h1.9V125.8z"/>
		<path class="st13" d="M437.7,125.8c-0.3,0.1-0.7,0.2-1.2,0.2c-1.3,0-2-0.7-2-2v-2.7h-1v-1.4h1v-1.3l1.8-0.5v1.8h1.3v1.4h-1.3v2.4
			c0,0.6,0.2,0.9,0.7,0.9c0.2,0,0.4-0.1,0.6-0.2V125.8z"/>
		<path class="st13" d="M444.5,119.8l-2.4,6.5c-0.6,1.6-1.5,2.3-2.6,2.3c-0.4,0-0.8-0.1-1.1-0.2V127c0.2,0.1,0.5,0.2,0.8,0.2
			c0.5,0,0.8-0.2,1-0.7l0.3-0.7l-2.4-6h2.1l1.1,3.7c0.1,0.2,0.1,0.5,0.2,0.8h0c0-0.2,0.1-0.5,0.2-0.8l1.1-3.7H444.5z"/>
	</g>
	<g>
		<g>
			<path class="st11" d="M404.6,23.6h-2.1l-0.6-1.9h-3l-0.6,1.9h-2.1l3.1-8.4h2.2L404.6,23.6z M401.5,20.2l-0.9-2.8
				c-0.1-0.2-0.1-0.5-0.1-0.8h0c0,0.2-0.1,0.5-0.1,0.7l-0.9,2.8H401.5z"/>
			<path class="st11" d="M407.3,22.9L407.3,22.9l0,3.5h-1.9v-8.8h1.9v0.9h0c0.5-0.7,1.1-1,1.9-1c0.8,0,1.4,0.3,1.8,0.8
				s0.6,1.3,0.6,2.2c0,1-0.2,1.8-0.7,2.4s-1.2,0.9-2,0.9C408.2,23.7,407.7,23.4,407.3,22.9z M407.3,20.4v0.5c0,0.4,0.1,0.8,0.3,1
				s0.5,0.4,0.9,0.4c0.4,0,0.7-0.2,1-0.5s0.3-0.8,0.3-1.4c0-1.1-0.4-1.6-1.2-1.6c-0.4,0-0.7,0.1-0.9,0.4S407.3,19.9,407.3,20.4z"/>
			<path class="st11" d="M414.8,22.9L414.8,22.9l0,3.5h-1.9v-8.8h1.9v0.9h0c0.5-0.7,1.1-1,1.9-1c0.8,0,1.4,0.3,1.8,0.8
				s0.6,1.3,0.6,2.2c0,1-0.2,1.8-0.7,2.4s-1.2,0.9-2,0.9C415.7,23.7,415.1,23.4,414.8,22.9z M414.7,20.4v0.5c0,0.4,0.1,0.8,0.3,1
				s0.5,0.4,0.9,0.4c0.4,0,0.7-0.2,1-0.5s0.3-0.8,0.3-1.4c0-1.1-0.4-1.6-1.2-1.6c-0.4,0-0.7,0.1-0.9,0.4S414.7,19.9,414.7,20.4z"/>
			<path class="st11" d="M434.8,15.2l-2.2,8.4h-2.1l-1.4-5.4c-0.1-0.3-0.1-0.6-0.1-0.9h0c0,0.4-0.1,0.7-0.2,0.9l-1.4,5.4h-2.2
				l-2.2-8.4h2.1l1.2,5.6c0.1,0.2,0.1,0.6,0.1,1h0c0-0.3,0.1-0.6,0.2-1l1.5-5.6h2l1.4,5.6c0.1,0.2,0.1,0.5,0.1,0.9h0
				c0-0.3,0.1-0.6,0.1-0.9l1.2-5.6H434.8z"/>
			<path class="st11" d="M440.8,21.1h-3.9c0.1,0.9,0.6,1.3,1.6,1.3c0.7,0,1.2-0.2,1.7-0.5v1.3c-0.6,0.3-1.3,0.4-2.2,0.4
				c-1,0-1.7-0.3-2.3-0.8s-0.8-1.3-0.8-2.2c0-1,0.3-1.8,0.9-2.4s1.3-0.9,2.1-0.9c0.9,0,1.6,0.3,2,0.8s0.7,1.2,0.7,2.1V21.1z
				 M439,19.9c0-0.9-0.3-1.3-1-1.3c-0.3,0-0.6,0.1-0.8,0.4s-0.3,0.6-0.4,0.9H439z"/>
			<path class="st11" d="M443.7,22.9L443.7,22.9l0,0.7h-1.9v-8.9h1.9v3.8h0c0.5-0.7,1.1-1,2-1c0.8,0,1.4,0.3,1.8,0.8
				s0.6,1.3,0.6,2.2c0,1-0.2,1.8-0.7,2.4s-1.1,0.9-2,0.9C444.7,23.7,444.1,23.4,443.7,22.9z M443.7,20.3v0.6c0,0.4,0.1,0.7,0.3,1
				s0.5,0.4,0.9,0.4c0.4,0,0.7-0.2,1-0.5s0.3-0.8,0.3-1.4c0-0.5-0.1-0.9-0.3-1.2s-0.5-0.4-0.9-0.4c-0.4,0-0.7,0.1-0.9,0.4
				S443.7,19.9,443.7,20.3z"/>
			<path class="st11" d="M407.2,38h-2.1l-0.6-1.9h-3L401,38h-2.1l3.1-8.4h2.2L407.2,38z M404.1,34.6l-0.9-2.8
				c-0.1-0.2-0.1-0.5-0.1-0.8h0c0,0.2-0.1,0.5-0.1,0.7l-0.9,2.8H404.1z"/>
			<path class="st11" d="M407.9,37.6v-1.9c0.3,0.3,0.7,0.5,1.1,0.6s0.8,0.2,1.2,0.2c0.2,0,0.4,0,0.6-0.1s0.3-0.1,0.4-0.2
				s0.2-0.2,0.3-0.3s0.1-0.2,0.1-0.3c0-0.2,0-0.3-0.1-0.4s-0.2-0.2-0.4-0.4s-0.4-0.2-0.6-0.3s-0.5-0.2-0.7-0.3
				c-0.7-0.3-1.1-0.6-1.5-1s-0.5-0.9-0.5-1.4c0-0.4,0.1-0.8,0.3-1.1s0.4-0.6,0.7-0.8s0.7-0.4,1.1-0.4s0.8-0.1,1.3-0.1
				c0.4,0,0.8,0,1.2,0.1s0.6,0.1,0.9,0.2v1.8c-0.1-0.1-0.3-0.2-0.5-0.3s-0.3-0.1-0.5-0.2s-0.4-0.1-0.5-0.1s-0.3,0-0.5,0
				c-0.2,0-0.4,0-0.6,0.1s-0.3,0.1-0.4,0.2s-0.2,0.2-0.3,0.3s-0.1,0.2-0.1,0.3c0,0.1,0,0.3,0.1,0.4s0.2,0.2,0.3,0.3s0.3,0.2,0.5,0.3
				s0.4,0.2,0.7,0.3c0.3,0.1,0.6,0.3,0.9,0.4s0.5,0.3,0.7,0.5s0.3,0.4,0.4,0.7s0.2,0.6,0.2,0.9c0,0.5-0.1,0.9-0.3,1.2
				s-0.4,0.6-0.7,0.8s-0.7,0.3-1.1,0.4s-0.8,0.1-1.3,0.1c-0.5,0-0.9,0-1.3-0.1S408.2,37.8,407.9,37.6z"/>
			<path class="st11" d="M416.9,35.1V38H415v-8.4h3c2.1,0,3.2,0.9,3.2,2.7c0,0.8-0.3,1.5-0.9,2s-1.4,0.8-2.4,0.8H416.9z M416.9,31
				v2.6h0.7c1,0,1.5-0.4,1.5-1.3c0-0.9-0.5-1.3-1.5-1.3H416.9z"/>
			<path class="st11" d="M421.2,38.1c-0.3,0-0.6-0.1-0.8-0.3s-0.3-0.4-0.3-0.7c0-0.3,0.1-0.5,0.3-0.7s0.5-0.3,0.8-0.3
				c0.3,0,0.6,0.1,0.8,0.3s0.3,0.4,0.3,0.7c0,0.3-0.1,0.5-0.3,0.7S421.5,38.1,421.2,38.1z"/>
			<path class="st11" d="M431.4,38h-1.9l-3.5-5.3c-0.2-0.3-0.3-0.5-0.4-0.7h0c0,0.3,0,0.8,0,1.4V38h-1.8v-8.4h2l3.3,5.1
				c0.2,0.2,0.3,0.5,0.4,0.7h0c0-0.2,0-0.6,0-1.2v-4.6h1.8V38z"/>
			<path class="st11" d="M438.3,38h-5v-8.4h4.8v1.5h-3V33h2.7v1.5h-2.7v1.9h3.1V38z"/>
			<path class="st11" d="M445.7,31.1h-2.4V38h-1.9v-6.9H439v-1.5h6.7V31.1z"/>
		</g>
	</g>
	<g>
		<path class="st12" d="M191.4,10.4h-1V7c0-1.3-0.5-1.9-1.4-1.9c-0.5,0-0.9,0.2-1.2,0.5s-0.5,0.8-0.5,1.4v3.4h-1V1.5h1v3.9h0
			c0.5-0.8,1.1-1.1,2-1.1c1.4,0,2,0.8,2,2.4V10.4z"/>
		<path class="st12" d="M195.9,10.4c-0.2,0.1-0.5,0.2-0.9,0.2c-1.1,0-1.6-0.6-1.6-1.8V5.2h-1V4.4h1V2.9l1-0.3v1.8h1.5v0.8h-1.5v3.4
			c0,0.4,0.1,0.7,0.2,0.9s0.4,0.3,0.7,0.3c0.2,0,0.5-0.1,0.6-0.2V10.4z"/>
		<path class="st12" d="M199.9,10.4c-0.2,0.1-0.5,0.2-0.9,0.2c-1.1,0-1.6-0.6-1.6-1.8V5.2h-1V4.4h1V2.9l1-0.3v1.8h1.5v0.8h-1.5v3.4
			c0,0.4,0.1,0.7,0.2,0.9s0.4,0.3,0.7,0.3c0.2,0,0.5-0.1,0.6-0.2V10.4z"/>
		<path class="st12" d="M202,9.5L202,9.5l0,3.6h-1V4.4h1v1.1h0c0.5-0.8,1.2-1.2,2.1-1.2c0.8,0,1.4,0.3,1.8,0.8s0.7,1.3,0.7,2.2
			c0,1-0.2,1.8-0.7,2.4s-1.2,0.9-2,0.9C203.1,10.6,202.5,10.2,202,9.5z M202,7.1V8c0,0.5,0.2,0.9,0.5,1.3s0.7,0.5,1.2,0.5
			c0.6,0,1-0.2,1.4-0.7s0.5-1.1,0.5-1.9c0-0.7-0.2-1.2-0.5-1.6s-0.7-0.6-1.3-0.6c-0.6,0-1,0.2-1.3,0.6S202,6.5,202,7.1z"/>
		<path class="st12" d="M207.7,10.2v-1c0.5,0.4,1.1,0.6,1.7,0.6c0.8,0,1.3-0.3,1.3-0.8c0-0.2,0-0.3-0.1-0.4s-0.2-0.2-0.3-0.3
			S210,8,209.8,8s-0.3-0.1-0.5-0.2c-0.3-0.1-0.5-0.2-0.7-0.3s-0.4-0.2-0.5-0.4s-0.2-0.3-0.3-0.5s-0.1-0.4-0.1-0.6
			c0-0.3,0.1-0.5,0.2-0.7s0.3-0.4,0.5-0.5s0.5-0.3,0.7-0.3s0.6-0.1,0.9-0.1c0.5,0,1,0.1,1.4,0.3v1c-0.4-0.3-0.9-0.4-1.5-0.4
			c-0.2,0-0.3,0-0.5,0.1s-0.3,0.1-0.4,0.2s-0.2,0.2-0.2,0.3s-0.1,0.2-0.1,0.3c0,0.2,0,0.3,0.1,0.4s0.1,0.2,0.2,0.3s0.2,0.2,0.4,0.2
			s0.3,0.1,0.5,0.2c0.3,0.1,0.5,0.2,0.7,0.3s0.4,0.2,0.5,0.4s0.3,0.3,0.3,0.5s0.1,0.4,0.1,0.6c0,0.3-0.1,0.6-0.2,0.8
			s-0.3,0.4-0.5,0.5s-0.5,0.3-0.8,0.3s-0.6,0.1-0.9,0.1C208.7,10.6,208.1,10.4,207.7,10.2z"/>
		<path class="st12" d="M213.4,5.6c-0.2,0-0.3-0.1-0.5-0.2s-0.2-0.3-0.2-0.5s0.1-0.3,0.2-0.5s0.3-0.2,0.5-0.2c0.2,0,0.3,0.1,0.5,0.2
			s0.2,0.3,0.2,0.5s-0.1,0.3-0.2,0.5S213.6,5.6,213.4,5.6z M213.4,10.5c-0.2,0-0.3-0.1-0.5-0.2s-0.2-0.3-0.2-0.5s0.1-0.3,0.2-0.5
			s0.3-0.2,0.5-0.2c0.2,0,0.3,0.1,0.5,0.2s0.2,0.3,0.2,0.5s-0.1,0.3-0.2,0.5S213.6,10.5,213.4,10.5z"/>
		<path class="st12" d="M219.3,2l-4,9.8h-0.9l4-9.8H219.3z"/>
		<path class="st12" d="M223.9,2l-4,9.8H219l4-9.8H223.9z"/>
		<path class="st12" d="M229.5,4.4l-2.8,7c-0.5,1.2-1.2,1.9-2.1,1.9c-0.3,0-0.5,0-0.6-0.1v-0.9c0.2,0.1,0.4,0.1,0.6,0.1
			c0.5,0,0.8-0.3,1.1-0.9l0.5-1.1l-2.3-6h1.1l1.6,4.6c0,0.1,0.1,0.2,0.1,0.5h0c0-0.1,0.1-0.2,0.1-0.4l1.7-4.6H229.5z"/>
		<path class="st12" d="M233,10.6c-0.9,0-1.6-0.3-2.1-0.8s-0.8-1.3-0.8-2.2c0-1,0.3-1.8,0.8-2.4s1.3-0.8,2.2-0.8
			c0.9,0,1.6,0.3,2.1,0.8s0.8,1.3,0.8,2.3c0,1-0.3,1.7-0.8,2.3S233.9,10.6,233,10.6z M233,5.1c-0.6,0-1.1,0.2-1.5,0.6
			s-0.5,1-0.5,1.7c0,0.7,0.2,1.3,0.5,1.7s0.8,0.6,1.5,0.6c0.6,0,1.1-0.2,1.4-0.6s0.5-1,0.5-1.7c0-0.8-0.2-1.3-0.5-1.7
			S233.7,5.1,233,5.1z"/>
		<path class="st12" d="M242.3,10.4h-1V9.5h0c-0.4,0.7-1,1.1-1.9,1.1c-1.4,0-2.1-0.9-2.1-2.6V4.4h1v3.4c0,1.3,0.5,1.9,1.5,1.9
			c0.5,0,0.9-0.2,1.2-0.5s0.5-0.8,0.5-1.4V4.4h1V10.4z"/>
		<path class="st12" d="M247.2,5.4c-0.2-0.1-0.4-0.2-0.7-0.2c-0.4,0-0.8,0.2-1,0.6s-0.4,0.9-0.4,1.6v3.1h-1v-6h1v1.2h0
			c0.1-0.4,0.3-0.8,0.6-1c0.3-0.2,0.6-0.4,0.9-0.4c0.3,0,0.4,0,0.6,0.1V5.4z"/>
		<path class="st12" d="M247.8,10.2v-1c0.5,0.4,1.1,0.6,1.7,0.6c0.8,0,1.3-0.3,1.3-0.8c0-0.2,0-0.3-0.1-0.4s-0.2-0.2-0.3-0.3
			S250.2,8,250,8s-0.3-0.1-0.5-0.2c-0.3-0.1-0.5-0.2-0.7-0.3s-0.4-0.2-0.5-0.4S248,6.8,248,6.6s-0.1-0.4-0.1-0.6
			c0-0.3,0.1-0.5,0.2-0.7s0.3-0.4,0.5-0.5s0.5-0.3,0.7-0.3s0.6-0.1,0.9-0.1c0.5,0,1,0.1,1.4,0.3v1c-0.4-0.3-0.9-0.4-1.5-0.4
			c-0.2,0-0.3,0-0.5,0.1s-0.3,0.1-0.4,0.2s-0.2,0.2-0.2,0.3s-0.1,0.2-0.1,0.3c0,0.2,0,0.3,0.1,0.4s0.1,0.2,0.2,0.3s0.2,0.2,0.4,0.2
			s0.3,0.1,0.5,0.2c0.3,0.1,0.5,0.2,0.7,0.3s0.4,0.2,0.5,0.4s0.3,0.3,0.3,0.5s0.1,0.4,0.1,0.6c0,0.3-0.1,0.6-0.2,0.8
			s-0.3,0.4-0.5,0.5s-0.5,0.3-0.8,0.3s-0.6,0.1-0.9,0.1C248.8,10.6,248.3,10.4,247.8,10.2z"/>
		<path class="st12" d="M253.7,2.9c-0.2,0-0.3-0.1-0.4-0.2s-0.2-0.3-0.2-0.4s0.1-0.3,0.2-0.4s0.3-0.2,0.4-0.2c0.2,0,0.3,0.1,0.4,0.2
			s0.2,0.3,0.2,0.4c0,0.2-0.1,0.3-0.2,0.4S253.9,2.9,253.7,2.9z M254.2,10.4h-1v-6h1V10.4z"/>
		<path class="st12" d="M258.8,10.4c-0.2,0.1-0.5,0.2-0.9,0.2c-1.1,0-1.6-0.6-1.6-1.8V5.2h-1V4.4h1V2.9l1-0.3v1.8h1.5v0.8h-1.5v3.4
			c0,0.4,0.1,0.7,0.2,0.9s0.4,0.3,0.7,0.3c0.2,0,0.5-0.1,0.6-0.2V10.4z"/>
		<path class="st12" d="M264.8,7.6h-4.2c0,0.7,0.2,1.2,0.5,1.5s0.8,0.5,1.4,0.5c0.7,0,1.3-0.2,1.9-0.7V10c-0.5,0.4-1.2,0.6-2.1,0.6
			c-0.8,0-1.5-0.3-2-0.8s-0.7-1.3-0.7-2.3c0-0.9,0.3-1.7,0.8-2.3s1.2-0.9,2-0.9s1.4,0.3,1.8,0.8s0.6,1.2,0.6,2.1V7.6z M263.9,6.8
			c0-0.6-0.1-1-0.4-1.3s-0.6-0.5-1.1-0.5c-0.5,0-0.8,0.2-1.2,0.5s-0.5,0.7-0.6,1.3H263.9z"/>
		<path class="st12" d="M266.5,10.5c-0.2,0-0.3-0.1-0.5-0.2s-0.2-0.3-0.2-0.5s0.1-0.3,0.2-0.5s0.3-0.2,0.5-0.2
			c0.2,0,0.3,0.1,0.5,0.2s0.2,0.3,0.2,0.5s-0.1,0.3-0.2,0.5S266.7,10.5,266.5,10.5z"/>
		<path class="st12" d="M272.8,10.1c-0.5,0.3-1,0.4-1.6,0.4c-0.9,0-1.5-0.3-2.1-0.8s-0.8-1.3-0.8-2.2c0-1,0.3-1.8,0.8-2.4
			s1.3-0.9,2.3-0.9c0.5,0,1,0.1,1.4,0.3v1c-0.4-0.3-0.9-0.5-1.4-0.5c-0.6,0-1.1,0.2-1.5,0.7s-0.6,1-0.6,1.7c0,0.7,0.2,1.3,0.6,1.7
			s0.9,0.6,1.5,0.6c0.5,0,1-0.2,1.5-0.5V10.1z"/>
		<path class="st12" d="M276.7,10.6c-0.9,0-1.6-0.3-2.1-0.8s-0.8-1.3-0.8-2.2c0-1,0.3-1.8,0.8-2.4s1.3-0.8,2.2-0.8
			c0.9,0,1.6,0.3,2.1,0.8s0.8,1.3,0.8,2.3c0,1-0.3,1.7-0.8,2.3S277.6,10.6,276.7,10.6z M276.8,5.1c-0.6,0-1.1,0.2-1.5,0.6
			s-0.5,1-0.5,1.7c0,0.7,0.2,1.3,0.5,1.7s0.8,0.6,1.5,0.6c0.6,0,1.1-0.2,1.4-0.6s0.5-1,0.5-1.7c0-0.8-0.2-1.3-0.5-1.7
			S277.4,5.1,276.8,5.1z"/>
		<path class="st12" d="M289.7,10.4h-1V7c0-0.7-0.1-1.1-0.3-1.4s-0.5-0.4-1-0.4c-0.4,0-0.8,0.2-1,0.6s-0.4,0.8-0.4,1.3v3.4h-1V6.8
			c0-1.2-0.5-1.8-1.4-1.8c-0.4,0-0.8,0.2-1,0.5s-0.4,0.8-0.4,1.4v3.4h-1v-6h1v0.9h0c0.4-0.7,1-1.1,1.9-1.1c0.4,0,0.8,0.1,1.1,0.3
			s0.5,0.5,0.6,0.9c0.4-0.8,1.1-1.2,2-1.2c1.3,0,2,0.8,2,2.4V10.4z"/>
	</g>
	<g>
		<path class="st12" d="M192.6,39.2h-1.2l-1.4-2.4c-0.1-0.2-0.3-0.4-0.4-0.6s-0.2-0.3-0.4-0.4s-0.3-0.2-0.4-0.2s-0.3-0.1-0.5-0.1
			h-0.8v3.6h-1v-8.4h2.5c0.4,0,0.7,0,1,0.1s0.6,0.2,0.8,0.4s0.4,0.4,0.5,0.7s0.2,0.6,0.2,1c0,0.3,0,0.6-0.1,0.8s-0.2,0.5-0.4,0.7
			s-0.4,0.4-0.6,0.5s-0.5,0.2-0.8,0.3v0c0.1,0.1,0.3,0.1,0.4,0.2s0.2,0.2,0.3,0.3s0.2,0.2,0.3,0.4s0.2,0.3,0.3,0.5L192.6,39.2z
			 M187.6,31.7v3h1.3c0.2,0,0.5,0,0.7-0.1s0.4-0.2,0.5-0.3s0.3-0.3,0.4-0.5s0.1-0.4,0.1-0.7c0-0.4-0.1-0.8-0.4-1.1s-0.7-0.4-1.3-0.4
			H187.6z"/>
		<path class="st12" d="M198.1,36.5h-4.2c0,0.7,0.2,1.2,0.5,1.5s0.8,0.5,1.4,0.5c0.7,0,1.3-0.2,1.9-0.7v0.9
			c-0.5,0.4-1.2,0.6-2.1,0.6c-0.8,0-1.5-0.3-2-0.8s-0.7-1.3-0.7-2.3c0-0.9,0.3-1.7,0.8-2.3s1.2-0.9,2-0.9s1.4,0.3,1.8,0.8
			s0.6,1.2,0.6,2.1V36.5z M197.1,35.6c0-0.6-0.1-1-0.4-1.3s-0.6-0.5-1.1-0.5c-0.5,0-0.8,0.2-1.2,0.5s-0.5,0.7-0.6,1.3H197.1z"/>
		<path class="st12" d="M200.1,31.7c-0.2,0-0.3-0.1-0.4-0.2s-0.2-0.3-0.2-0.4s0.1-0.3,0.2-0.4s0.3-0.2,0.4-0.2
			c0.2,0,0.3,0.1,0.4,0.2s0.2,0.3,0.2,0.4c0,0.2-0.1,0.3-0.2,0.4S200.3,31.7,200.1,31.7z M200.5,39.2h-1v-6h1V39.2z"/>
		<path class="st12" d="M207.5,39.2h-1v-3.4c0-1.3-0.5-1.9-1.4-1.9c-0.5,0-0.9,0.2-1.2,0.5s-0.5,0.8-0.5,1.4v3.4h-1v-6h1v1h0
			c0.5-0.8,1.1-1.1,2-1.1c0.7,0,1.2,0.2,1.5,0.6s0.5,1,0.5,1.8V39.2z"/>
		<path class="st12" d="M214.4,39.2h-1v-1h0c-0.4,0.8-1.1,1.2-2.1,1.2c-0.8,0-1.4-0.3-1.8-0.8s-0.7-1.3-0.7-2.2c0-1,0.3-1.8,0.8-2.4
			s1.2-0.9,2-0.9c0.8,0,1.4,0.3,1.8,1h0v-3.7h1V39.2z M213.4,36.5v-0.9c0-0.5-0.2-0.9-0.5-1.2s-0.7-0.5-1.2-0.5
			c-0.6,0-1,0.2-1.4,0.6s-0.5,1-0.5,1.8c0,0.7,0.2,1.2,0.5,1.6s0.8,0.6,1.3,0.6c0.5,0,1-0.2,1.3-0.6S213.4,37.1,213.4,36.5z"/>
		<path class="st12" d="M216.8,31.7c-0.2,0-0.3-0.1-0.4-0.2s-0.2-0.3-0.2-0.4s0.1-0.3,0.2-0.4s0.3-0.2,0.4-0.2
			c0.2,0,0.3,0.1,0.4,0.2s0.2,0.3,0.2,0.4c0,0.2-0.1,0.3-0.2,0.4S217,31.7,216.8,31.7z M217.3,39.2h-1v-6h1V39.2z"/>
		<path class="st12" d="M222.4,34.2c-0.2-0.1-0.4-0.2-0.7-0.2c-0.4,0-0.8,0.2-1,0.6s-0.4,0.9-0.4,1.6v3.1h-1v-6h1v1.2h0
			c0.1-0.4,0.3-0.8,0.6-1s0.6-0.4,0.9-0.4c0.3,0,0.4,0,0.6,0.1V34.2z"/>
		<path class="st12" d="M223.9,31.7c-0.2,0-0.3-0.1-0.4-0.2s-0.2-0.3-0.2-0.4s0.1-0.3,0.2-0.4s0.3-0.2,0.4-0.2
			c0.2,0,0.3,0.1,0.4,0.2s0.2,0.3,0.2,0.4c0,0.2-0.1,0.3-0.2,0.4S224.1,31.7,223.9,31.7z M224.4,39.2h-1v-6h1V39.2z"/>
		<path class="st12" d="M230.5,33.5l-3.6,4.9h3.5v0.8h-4.9v-0.3l3.6-4.9h-3.2v-0.8h4.6V33.5z"/>
		<path class="st12" d="M235.9,33.5l-3.6,4.9h3.5v0.8H231v-0.3l3.6-4.9h-3.2v-0.8h4.6V33.5z"/>
		<path class="st12" d="M241.5,39.2h-1v-0.9h0c-0.4,0.7-1,1.1-1.8,1.1c-0.6,0-1.1-0.2-1.4-0.5s-0.5-0.7-0.5-1.3c0-1.1,0.7-1.8,2-2
			l1.8-0.3c0-1-0.4-1.5-1.2-1.5c-0.7,0-1.4,0.2-2,0.7v-1c0.6-0.4,1.3-0.6,2-0.6c1.4,0,2.1,0.7,2.1,2.2V39.2z M240.5,36.2l-1.4,0.2
			c-0.4,0.1-0.8,0.2-1,0.3s-0.3,0.4-0.3,0.8c0,0.3,0.1,0.5,0.3,0.7s0.5,0.3,0.8,0.3c0.5,0,0.9-0.2,1.2-0.5s0.5-0.8,0.5-1.3V36.2z"/>
	</g>
	<g>
		<path class="st12" d="M210.2,154.9h-2.4v7.5h-1v-7.5h-2.4V154h5.8V154.9z"/>
		<path class="st12" d="M212.6,162.6c-0.9,0-1.6-0.3-2.1-0.8s-0.8-1.3-0.8-2.2c0-1,0.3-1.8,0.8-2.4s1.3-0.8,2.2-0.8
			c0.9,0,1.6,0.3,2.1,0.8s0.8,1.3,0.8,2.3c0,1-0.3,1.7-0.8,2.3S213.6,162.6,212.6,162.6z M212.7,157.1c-0.6,0-1.1,0.2-1.5,0.6
			s-0.5,1-0.5,1.7c0,0.7,0.2,1.3,0.5,1.7s0.8,0.6,1.5,0.6c0.6,0,1.1-0.2,1.4-0.6s0.5-1,0.5-1.7c0-0.8-0.2-1.3-0.5-1.7
			S213.3,157.1,212.7,157.1z"/>
		<path class="st12" d="M222.1,162.4h-1.3l-2.6-2.9h0v2.9h-1v-8.9h1v5.6h0l2.5-2.7h1.3l-2.8,2.9L222.1,162.4z"/>
		<path class="st12" d="M227.8,159.7h-4.2c0,0.7,0.2,1.2,0.5,1.5s0.8,0.5,1.4,0.5c0.7,0,1.3-0.2,1.9-0.7v0.9
			c-0.5,0.4-1.2,0.6-2.1,0.6c-0.8,0-1.5-0.3-2-0.8s-0.7-1.3-0.7-2.3c0-0.9,0.3-1.7,0.8-2.3s1.2-0.9,2-0.9s1.4,0.3,1.8,0.8
			s0.6,1.2,0.6,2.1V159.7z M226.8,158.9c0-0.6-0.1-1-0.4-1.3s-0.6-0.5-1.1-0.5c-0.5,0-0.8,0.2-1.2,0.5s-0.5,0.7-0.6,1.3H226.8z"/>
		<path class="st12" d="M234.2,162.4h-1V159c0-1.3-0.5-1.9-1.4-1.9c-0.5,0-0.9,0.2-1.2,0.5s-0.5,0.8-0.5,1.4v3.4h-1v-6h1v1h0
			c0.5-0.8,1.1-1.1,2-1.1c0.7,0,1.2,0.2,1.5,0.6s0.5,1,0.5,1.8V162.4z"/>
		<path class="st12" d="M244.2,162.4h-1v-1h0c-0.4,0.8-1.1,1.2-2.1,1.2c-0.8,0-1.4-0.3-1.8-0.8s-0.7-1.3-0.7-2.2
			c0-1,0.3-1.8,0.8-2.4s1.2-0.9,2-0.9c0.8,0,1.4,0.3,1.8,1h0v-3.7h1V162.4z M243.3,159.7v-0.9c0-0.5-0.2-0.9-0.5-1.2
			s-0.7-0.5-1.2-0.5c-0.6,0-1,0.2-1.4,0.6s-0.5,1-0.5,1.8c0,0.7,0.2,1.2,0.5,1.6s0.8,0.6,1.3,0.6c0.5,0,1-0.2,1.3-0.6
			S243.3,160.3,243.3,159.7z"/>
		<path class="st12" d="M246.6,154.9c-0.2,0-0.3-0.1-0.4-0.2s-0.2-0.3-0.2-0.4s0.1-0.3,0.2-0.4s0.3-0.2,0.4-0.2
			c0.2,0,0.3,0.1,0.4,0.2s0.2,0.3,0.2,0.4c0,0.2-0.1,0.3-0.2,0.4S246.8,154.9,246.6,154.9z M247.1,162.4h-1v-6h1V162.4z"/>
		<path class="st12" d="M256.5,162.4h-1v-0.9h0c-0.4,0.7-1,1.1-1.8,1.1c-0.6,0-1.1-0.2-1.4-0.5s-0.5-0.7-0.5-1.3c0-1.1,0.7-1.8,2-2
			l1.8-0.3c0-1-0.4-1.5-1.2-1.5c-0.7,0-1.4,0.2-2,0.7v-1c0.6-0.4,1.3-0.6,2-0.6c1.4,0,2.1,0.7,2.1,2.2V162.4z M255.5,159.4l-1.4,0.2
			c-0.4,0.1-0.8,0.2-1,0.3s-0.3,0.4-0.3,0.8c0,0.3,0.1,0.5,0.3,0.7s0.5,0.3,0.8,0.3c0.5,0,0.9-0.2,1.2-0.5s0.5-0.8,0.5-1.3V159.4z"
			/>
		<path class="st12" d="M262.3,162.2c-0.5,0.3-1,0.4-1.6,0.4c-0.9,0-1.5-0.3-2.1-0.8s-0.8-1.3-0.8-2.2c0-1,0.3-1.8,0.8-2.4
			s1.3-0.9,2.3-0.9c0.5,0,1,0.1,1.4,0.3v1c-0.4-0.3-0.9-0.5-1.4-0.5c-0.6,0-1.1,0.2-1.5,0.7s-0.6,1-0.6,1.7c0,0.7,0.2,1.3,0.6,1.7
			s0.9,0.6,1.5,0.6c0.5,0,1-0.2,1.5-0.5V162.2z"/>
		<path class="st12" d="M267.8,162.2c-0.5,0.3-1,0.4-1.6,0.4c-0.9,0-1.5-0.3-2.1-0.8s-0.8-1.3-0.8-2.2c0-1,0.3-1.8,0.8-2.4
			s1.3-0.9,2.3-0.9c0.5,0,1,0.1,1.4,0.3v1c-0.4-0.3-0.9-0.5-1.4-0.5c-0.6,0-1.1,0.2-1.5,0.7s-0.6,1-0.6,1.7c0,0.7,0.2,1.3,0.6,1.7
			s0.9,0.6,1.5,0.6c0.5,0,1-0.2,1.5-0.5V162.2z"/>
		<path class="st12" d="M274,159.7h-4.2c0,0.7,0.2,1.2,0.5,1.5s0.8,0.5,1.4,0.5c0.7,0,1.3-0.2,1.9-0.7v0.9c-0.5,0.4-1.2,0.6-2.1,0.6
			c-0.8,0-1.5-0.3-2-0.8s-0.7-1.3-0.7-2.3c0-0.9,0.3-1.7,0.8-2.3s1.2-0.9,2-0.9s1.4,0.3,1.8,0.8s0.6,1.2,0.6,2.1V159.7z M273,158.9
			c0-0.6-0.1-1-0.4-1.3s-0.6-0.5-1.1-0.5c-0.5,0-0.8,0.2-1.2,0.5s-0.5,0.7-0.6,1.3H273z"/>
		<path class="st12" d="M275,162.2v-1c0.5,0.4,1.1,0.6,1.7,0.6c0.8,0,1.3-0.3,1.3-0.8c0-0.2,0-0.3-0.1-0.4s-0.2-0.2-0.3-0.3
			s-0.3-0.2-0.4-0.2s-0.3-0.1-0.5-0.2c-0.3-0.1-0.5-0.2-0.7-0.3s-0.4-0.2-0.5-0.4s-0.2-0.3-0.3-0.5s-0.1-0.4-0.1-0.6
			c0-0.3,0.1-0.5,0.2-0.7s0.3-0.4,0.5-0.5s0.5-0.3,0.7-0.3s0.6-0.1,0.9-0.1c0.5,0,1,0.1,1.4,0.3v1c-0.4-0.3-0.9-0.4-1.5-0.4
			c-0.2,0-0.3,0-0.5,0.1s-0.3,0.1-0.4,0.2s-0.2,0.2-0.2,0.3s-0.1,0.2-0.1,0.3c0,0.2,0,0.3,0.1,0.4s0.1,0.2,0.2,0.3s0.2,0.2,0.4,0.2
			s0.3,0.1,0.5,0.2c0.3,0.1,0.5,0.2,0.7,0.3s0.4,0.2,0.5,0.4s0.3,0.3,0.3,0.5s0.1,0.4,0.1,0.6c0,0.3-0.1,0.6-0.2,0.8
			s-0.3,0.4-0.5,0.5s-0.5,0.3-0.8,0.3s-0.6,0.1-0.9,0.1C276,162.6,275.4,162.5,275,162.2z"/>
		<path class="st12" d="M280,162.2v-1c0.5,0.4,1.1,0.6,1.7,0.6c0.8,0,1.3-0.3,1.3-0.8c0-0.2,0-0.3-0.1-0.4s-0.2-0.2-0.3-0.3
			s-0.3-0.2-0.4-0.2s-0.3-0.1-0.5-0.2c-0.3-0.1-0.5-0.2-0.7-0.3s-0.4-0.2-0.5-0.4s-0.2-0.3-0.3-0.5s-0.1-0.4-0.1-0.6
			c0-0.3,0.1-0.5,0.2-0.7s0.3-0.4,0.5-0.5s0.5-0.3,0.7-0.3s0.6-0.1,0.9-0.1c0.5,0,1,0.1,1.4,0.3v1c-0.4-0.3-0.9-0.4-1.5-0.4
			c-0.2,0-0.3,0-0.5,0.1s-0.3,0.1-0.4,0.2s-0.2,0.2-0.2,0.3s-0.1,0.2-0.1,0.3c0,0.2,0,0.3,0.1,0.4s0.1,0.2,0.2,0.3s0.2,0.2,0.4,0.2
			s0.3,0.1,0.5,0.2c0.3,0.1,0.5,0.2,0.7,0.3s0.4,0.2,0.5,0.4s0.3,0.3,0.3,0.5s0.1,0.4,0.1,0.6c0,0.3-0.1,0.6-0.2,0.8
			s-0.3,0.4-0.5,0.5s-0.5,0.3-0.8,0.3s-0.6,0.1-0.9,0.1C281,162.6,280.5,162.5,280,162.2z"/>
		<path class="st12" d="M287.9,162.6c-0.9,0-1.6-0.3-2.1-0.8s-0.8-1.3-0.8-2.2c0-1,0.3-1.8,0.8-2.4s1.3-0.8,2.2-0.8
			c0.9,0,1.6,0.3,2.1,0.8s0.8,1.3,0.8,2.3c0,1-0.3,1.7-0.8,2.3S288.8,162.6,287.9,162.6z M288,157.1c-0.6,0-1.1,0.2-1.5,0.6
			s-0.5,1-0.5,1.7c0,0.7,0.2,1.3,0.5,1.7s0.8,0.6,1.5,0.6c0.6,0,1.1-0.2,1.4-0.6s0.5-1,0.5-1.7c0-0.8-0.2-1.3-0.5-1.7
			S288.6,157.1,288,157.1z"/>
	</g>
	<g>
	</g>
	<g>
	</g>
	<g>
	</g>
	<g>
	</g>
	<g>
	</g>
	<g>
	</g>
	<g>
	</g>
	<g>
	</g>
	<g>
	</g>
	<g>
	</g>
	<g>
	</g>
	<g>
	</g>
	<g>
	</g>
	<g>
	</g>
	<g>
	</g>
</g>
</svg>
