<svg xmlns="http://www.w3.org/2000/svg" xmlns:xlink="http://www.w3.org/1999/xlink" viewBox="0 0 248.89 263.87"><defs><style>.cls-1,.cls-10{fill:none;}.cls-13,.cls-2,.cls-9{fill:#fff;}.cls-3{fill:#0072c6;}.cls-4{clip-path:url(#clip-path);}.cls-5{fill:#e5e5e5;}.cls-6{fill:#3c3c41;}.cls-11,.cls-7{fill:#ebebeb;}.cls-8{fill:#75757a;}.cls-9{opacity:0.2;isolation:isolate;}.cls-10,.cls-11{stroke:#000;}.cls-10,.cls-11,.cls-12,.cls-13{stroke-miterlimit:10;}.cls-11{stroke-width:0.75px;}.cls-12{fill:#1e1e1e;stroke:#1e1e1e;stroke-width:0.06px;}.cls-13{stroke:#fff;stroke-width:0.05px;}</style><clipPath id="clip-path" transform="translate(-4.98)"><rect class="cls-1" x="62" y="176.54" width="54" height="54"/></clipPath></defs><title>OJ104327268</title><g id="bg"><g id="Shapes"><rect class="cls-2" x="3.78" width="244.97" height="263.87"/><rect class="cls-3" x="74.08" width="104.66" height="90"/><path d="M62.25,100.35h-.53V83.18a1.64,1.64,0,0,1,1.64-1.64h9.7v.53h-9.7a1.1,1.1,0,0,0-1.1,1.1h0v17.18Z" transform="translate(-4.98)"/><path d="M90.29,100.35h-.53V83.18a1.1,1.1,0,0,0-1.1-1.1H73.06v-.53h15.6a1.64,1.64,0,0,1,1.64,1.64Z" transform="translate(-4.98)"/><polygon points="67.2 98.75 59.03 98.75 59.03 83.73 66.38 83.73 66.38 84.26 59.56 84.26 59.56 98.22 67.2 98.22 67.2 98.75"/><polygon points="83.01 98.75 77.78 98.75 77.78 98.22 82.48 98.22 82.48 84.26 75.8 84.26 75.8 83.73 83.01 83.73 83.01 98.75"/><path d="M94.36,103.17h-8v-.53h8a1.1,1.1,0,0,0,1.1-1.1v-.92H86.34v-.53H96v1.45A1.63,1.63,0,0,1,94.36,103.17Z" transform="translate(-4.98)"/><path d="M72,103.17H57.64A1.64,1.64,0,0,1,56,101.53v-1.45H72.18v.53H56.53v.92a1.1,1.1,0,0,0,1.1,1.1H72Z" transform="translate(-4.98)"/><rect x="76.16" y="83.73" width="5.54" height="0.53"/><rect x="60.34" y="83.73" width="15.46" height="0.53"/><path d="M79.55,102.58H79V97.51a1.5,1.5,0,0,0-3,0h0v5.07h-.53V97.51a2,2,0,0,1,4.06,0Z" transform="translate(-4.98)"/><path d="M83.08,102.58h-.53V98.93a1.5,1.5,0,0,0-3,0h0v3.65H79V98.93a2,2,0,0,1,4.06,0Z" transform="translate(-4.98)"/><path d="M86.61,112.82h-.53V100.34a1.5,1.5,0,0,0-3,0h0v2.24h-.53v-2.24a2,2,0,0,1,4.06,0Z" transform="translate(-4.98)"/><path d="M86.61,114.31l-14.52,0-.23-.08,0,0-6.45-6.45A2.65,2.65,0,0,1,69.12,104l2.8,2.66V91A2,2,0,0,1,76,91v9.66h-.53V91a1.5,1.5,0,0,0-3,0h0v16.86l-3.7-3.52a2.12,2.12,0,1,0-3.11,2.89l.11.11,6.41,6.41.08,0H86.09v-7.1h.53Z" transform="translate(-4.98)"/><g class="cls-4"><path class="cls-2" d="M111.89,182.44H66.12a3.25,3.25,0,0,0-3.27,3.21v28.16A3.25,3.25,0,0,0,66.12,217h45.77a3.26,3.26,0,0,0,3.27-3.21V185.65A3.27,3.27,0,0,0,111.89,182.44Z" transform="translate(-4.98)"/></g><g class="cls-4"><path class="cls-5" d="M115.16,185.4v8.86H62.84V185.4a2.94,2.94,0,0,1,2.9-3h46.51A2.93,2.93,0,0,1,115.16,185.4Z" transform="translate(-4.98)"/></g><g class="cls-4"><path class="cls-6" d="M111.9,181.6H66.1a4.12,4.12,0,0,0-4.1,4.06v28.18a4.11,4.11,0,0,0,4.1,4h22L87.78,223H78l-2.53,1.69h27L100,223H90.2l-.32-5.06h22a4.12,4.12,0,0,0,4.1-4.06V185.65A4.08,4.08,0,0,0,111.9,181.6Zm2.41,32.21a2.43,2.43,0,0,1-2.42,2.38H66.1a2.42,2.42,0,0,1-2.41-2.37V185.67a2.42,2.42,0,0,1,2.42-2.38h45.8a2.42,2.42,0,0,1,2.41,2.37v28.15Z" transform="translate(-4.98)"/></g><ellipse class="cls-7" cx="57.21" cy="217.85" rx="18.5" ry="18.46"/><path class="cls-6" d="M62.19,237.3a19.46,19.46,0,1,1,19.5-19.46A19.5,19.5,0,0,1,62.19,237.3Zm0-36.91a17.46,17.46,0,1,0,17.5,17.46A17.5,17.5,0,0,0,62.19,200.39Z" transform="translate(-4.98)"/><path class="cls-8" d="M67.19,208.93a5,5,0,0,1-10.06,0,5.08,5.08,0,0,1,5-5,5,5,0,0,1,5,5" transform="translate(-4.98)"/><polygon class="cls-8" points="60.84 215.73 57.18 220.87 53.53 215.73 48.21 215.73 48.21 228.41 66.21 228.41 66.21 215.73 60.84 215.73"/><path class="cls-9" d="M57.19,208.93a5.06,5.06,0,0,0,4.91,5l1.26-9.89a2.94,2.94,0,0,0-1.2-.17,5,5,0,0,0-5,5" transform="translate(-4.98)"/><polygon class="cls-9" points="53.53 215.73 48.21 215.73 48.21 228.41 55.3 228.41 56.38 219.67 53.53 215.73"/><line class="cls-10" x1="71.02" y1="181.54" x2="71.02" y2="119.92"/><polygon points="74.76 121.01 71.02 114.53 67.28 121.01 74.76 121.01"/><line class="cls-10" x1="103.35" y1="176.16" x2="103.35" y2="90"/><polygon points="107.09 175.06 103.35 181.54 99.61 175.06 107.09 175.06"/><rect class="cls-2" x="188.5" y="190.37" width="58.04" height="31.27"/><path class="cls-3" d="M253.87,183.25a1,1,0,0,0-1.05-1.05H192.18a1,1,0,0,0-1.05,1.05v37.89a1,1,0,0,0,1.05,1.05h60.64a1,1,0,0,0,1.05-1.05Zm-54.11,6h-3.14v-3.14h3.14Zm6.27,0h-3.14v-3.14H206Zm6.27,0h-3.14v-3.14h3.14Zm-18.82,2.36h58v28.24h-58V191.61Z" transform="translate(-4.98)"/><path d="M198.51,208.7a14.93,14.93,0,0,0-11.91-5.87,15.19,15.19,0,0,0-9.13,3.09,15,15,0,0,0,9.14,26.91,15.19,15.19,0,0,0,9.13-3.09A15,15,0,0,0,198.51,208.7Zm.7,12.52c-.53-.4-1.3-1-2.27-1.77a2.93,2.93,0,0,0-.33-2.74,2.84,2.84,0,0,0-3.66-.65c-1.31-1.18-2.76-2.53-4.28-4.06,4.54-2.49,7.88-2.23,8.17-2.2l.15.18A12.93,12.93,0,0,1,199.21,221.22ZM191,224.76a2.71,2.71,0,0,0-.46-1,2.53,2.53,0,0,0-3.44-.6,25.14,25.14,0,0,1-3.5-2.32l-.31-.26a3.94,3.94,0,0,0-.56-3.85l-.07-.08q.39-.42.81-.81a24.72,24.72,0,0,1,3.41-2.77h0l0,0-.05,0c1.64,1.51,3.37,2.94,5,4.21a2.8,2.8,0,0,0,.24,2.86,2.86,2.86,0,0,0,4,.55l.17-.17c1.17.83,2.1,1.46,2.63,1.82a12.87,12.87,0,0,1-1.46,2.86A13.87,13.87,0,0,1,191,224.76Zm4-16.87a14.19,14.19,0,0,0-8.71,1.61c-1.18-1.25-2.43-2.65-3.69-4.07a13,13,0,0,1,4-.63A12.86,12.86,0,0,1,195,207.89Zm-16.34-.39a13.11,13.11,0,0,1,2.18-1.35,26.76,26.76,0,0,0,3.54,4.45,21.87,21.87,0,0,0-3.61,3.14c-.42.47-.84.95-1.21,1.42a3.76,3.76,0,0,0-1.85.46,10.41,10.41,0,0,1-1.41-5.76A12.86,12.86,0,0,1,178.65,207.5Zm-3.89,4.84a9.5,9.5,0,0,0,1.29,4.95,4,4,0,0,0,.37,4.26h0a24.44,24.44,0,0,0-.59,3.69A13,13,0,0,1,174.76,212.34Zm19.77,15.89a13,13,0,0,1-16.32-.36,18,18,0,0,1,.66-4.85,4,4,0,0,0,2.93-.65l.34.26a21.33,21.33,0,0,0,3.72,2.37,2.56,2.56,0,0,0,.51,1.93,2.63,2.63,0,0,0,3.66.47,2.74,2.74,0,0,0,.62-.7,23.54,23.54,0,0,0,5,.53A12.3,12.3,0,0,1,194.53,228.23Z" transform="translate(-4.98)"/><line class="cls-10" x1="111.02" y1="191.54" x2="180.64" y2="191.54"/><polygon points="179.54 195.28 186.02 191.54 179.54 187.8 179.54 195.28"/><polygon class="cls-11" points="103.09 146.29 94.53 152.5 97.8 162.54 108.38 162.54 111.65 152.5 103.09 146.29"/><polygon class="cls-11" points="136.18 181.65 127.62 187.86 130.89 197.9 141.47 197.9 144.73 187.86 136.18 181.65"/></g></g><g id="txt"><path class="cls-12" d="M6,86.89v3.17H5v-8.4H7.32a3,3,0,0,1,2.08.66,2.31,2.31,0,0,1,.75,1.85,2.55,2.55,0,0,1-.83,2,3.18,3.18,0,0,1-2.22.76Zm0-4.34V86H7a2.33,2.33,0,0,0,1.56-.47,1.63,1.63,0,0,0,.53-1.31c0-1.11-.65-1.67-2-1.67Z" transform="translate(-4.98)"/><path class="cls-12" d="M15.41,90.06h-1v-.93h0a2,2,0,0,1-1.85,1.07,2,2,0,0,1-1.4-.47,1.65,1.65,0,0,1-.51-1.26c0-1.12.66-1.77,2-2l1.8-.25c0-1-.41-1.53-1.24-1.53a3,3,0,0,0-2,.74v-1a3.76,3.76,0,0,1,2-.56c1.41,0,2.11.75,2.11,2.24Zm-1-3-1.45.2a2.25,2.25,0,0,0-1,.33,1,1,0,0,0-.34.84.92.92,0,0,0,.31.72,1.24,1.24,0,0,0,.83.28A1.56,1.56,0,0,0,14,88.89a1.76,1.76,0,0,0,.46-1.26Z" transform="translate(-4.98)"/><path class="cls-12" d="M22.27,89.58q0,3.32-3.16,3.31a4.31,4.31,0,0,1-1.95-.42v-1a4,4,0,0,0,1.94.57c1.47,0,2.21-.79,2.21-2.36v-.65h0a2.44,2.44,0,0,1-3.87.34,3.21,3.21,0,0,1-.68-2.14,3.78,3.78,0,0,1,.74-2.44,2.46,2.46,0,0,1,2-.9,2,2,0,0,1,1.8,1h0v-.84h1Zm-1-2.23v-.88a1.73,1.73,0,0,0-.48-1.23,1.62,1.62,0,0,0-1.21-.51,1.66,1.66,0,0,0-1.39.65,2.85,2.85,0,0,0-.51,1.81,2.48,2.48,0,0,0,.49,1.6,1.57,1.57,0,0,0,1.28.61,1.66,1.66,0,0,0,1.31-.58A2.12,2.12,0,0,0,21.31,87.35Z" transform="translate(-4.98)"/><path class="cls-12" d="M24.64,82.54a.6.6,0,0,1-.44-.18.57.57,0,0,1-.18-.44.61.61,0,0,1,.18-.45.6.6,0,0,1,.44-.18.64.64,0,0,1,.45.18.61.61,0,0,1,.18.45.6.6,0,0,1-.18.44A.64.64,0,0,1,24.64,82.54Zm.47,7.52h-1v-6h1Z" transform="translate(-4.98)"/><path class="cls-12" d="M32,90.06H31V86.64c0-1.27-.47-1.91-1.4-1.91a1.52,1.52,0,0,0-1.19.54,2,2,0,0,0-.47,1.37v3.42H27v-6h1v1h0a2.17,2.17,0,0,1,2-1.14,1.83,1.83,0,0,1,1.51.64A2.8,2.8,0,0,1,32,86.4Z" transform="translate(-4.98)"/><path class="cls-12" d="M38,90.06H37v-.93h0a2,2,0,0,1-1.85,1.07,2,2,0,0,1-1.4-.47,1.65,1.65,0,0,1-.51-1.26c0-1.12.66-1.77,2-2l1.8-.25q0-1.53-1.23-1.53a3,3,0,0,0-2,.74v-1a3.76,3.76,0,0,1,2-.56c1.41,0,2.11.75,2.11,2.24Zm-1-3-1.45.2a2.25,2.25,0,0,0-1,.33,1,1,0,0,0-.34.84.92.92,0,0,0,.31.72,1.25,1.25,0,0,0,.84.28,1.54,1.54,0,0,0,1.18-.51A1.76,1.76,0,0,0,37,87.63Z" transform="translate(-4.98)"/><path class="cls-12" d="M48.07,90.06h-1V89h0A2.2,2.2,0,0,1,45,90.2a2.24,2.24,0,0,1-1.81-.8,3.32,3.32,0,0,1-.67-2.2,3.59,3.59,0,0,1,.75-2.38,2.46,2.46,0,0,1,2-.9,1.92,1.92,0,0,1,1.8,1h0V81.18h1Zm-1-2.71v-.88a1.74,1.74,0,0,0-.48-1.24,1.64,1.64,0,0,0-1.22-.5,1.68,1.68,0,0,0-1.39.65,2.85,2.85,0,0,0-.5,1.78A2.53,2.53,0,0,0,44,88.79a1.61,1.61,0,0,0,1.3.61,1.65,1.65,0,0,0,1.31-.59A2.16,2.16,0,0,0,47.11,87.35Z" transform="translate(-4.98)"/><path class="cls-12" d="M50.43,82.54a.6.6,0,0,1-.44-.18.57.57,0,0,1-.18-.44.61.61,0,0,1,.18-.45.6.6,0,0,1,.44-.18.61.61,0,0,1,.45.18.62.62,0,0,1,0,.89A.61.61,0,0,1,50.43,82.54Zm.47,7.52h-1v-6h1Z" transform="translate(-4.98)"/><path class="cls-12" d="M16.89,104.56h-1v-.93h0a2,2,0,0,1-1.85,1.07,2,2,0,0,1-1.4-.47,1.65,1.65,0,0,1-.51-1.26c0-1.12.66-1.77,2-2l1.8-.25q0-1.53-1.23-1.53a3,3,0,0,0-2,.74V99a3.76,3.76,0,0,1,2-.56c1.41,0,2.11.75,2.11,2.24Zm-1-3-1.45.2a2.25,2.25,0,0,0-1,.33,1,1,0,0,0-.34.84.92.92,0,0,0,.31.72,1.25,1.25,0,0,0,.84.28,1.54,1.54,0,0,0,1.18-.51,1.76,1.76,0,0,0,.46-1.26Z" transform="translate(-4.98)"/><path class="cls-12" d="M22.72,104.29a3.19,3.19,0,0,1-1.64.41,2.7,2.7,0,0,1-2.07-.83,3,3,0,0,1-.79-2.17,3.32,3.32,0,0,1,.85-2.38,3,3,0,0,1,2.27-.9,3.06,3.06,0,0,1,1.39.3v1a2.45,2.45,0,0,0-1.43-.47,2,2,0,0,0-1.51.66,2.51,2.51,0,0,0-.58,1.73,2.4,2.4,0,0,0,.55,1.67,1.92,1.92,0,0,0,1.48.61,2.4,2.4,0,0,0,1.48-.53Z" transform="translate(-4.98)"/><path class="cls-12" d="M28.19,104.29a3.19,3.19,0,0,1-1.64.41,2.71,2.71,0,0,1-2.07-.83,3,3,0,0,1-.79-2.17,3.36,3.36,0,0,1,.85-2.38,3,3,0,0,1,2.27-.9,3.06,3.06,0,0,1,1.39.3v1a2.45,2.45,0,0,0-1.43-.47,1.91,1.91,0,0,0-1.5.66,2.47,2.47,0,0,0-.59,1.73,2.4,2.4,0,0,0,.55,1.67,1.93,1.93,0,0,0,1.49.61,2.39,2.39,0,0,0,1.47-.53Z" transform="translate(-4.98)"/><path class="cls-12" d="M34.4,101.8H30.16a2.19,2.19,0,0,0,.54,1.55,1.86,1.86,0,0,0,1.42.55,3,3,0,0,0,1.86-.67v.9a3.52,3.52,0,0,1-2.09.57,2.54,2.54,0,0,1-2-.81,3.39,3.39,0,0,1-.73-2.3A3.29,3.29,0,0,1,30,99.3a2.56,2.56,0,0,1,2-.88,2.28,2.28,0,0,1,1.82.76,3.2,3.2,0,0,1,.65,2.12Zm-1-.81a2,2,0,0,0-.4-1.3,1.39,1.39,0,0,0-1.1-.46,1.52,1.52,0,0,0-1.15.49,2.22,2.22,0,0,0-.59,1.27Z" transform="translate(-4.98)"/><path class="cls-12" d="M35.41,104.35v-1a2.85,2.85,0,0,0,1.73.59c.85,0,1.27-.29,1.27-.85a.78.78,0,0,0-.11-.41,1,1,0,0,0-.29-.29,2.27,2.27,0,0,0-.44-.23L37,101.9a5.16,5.16,0,0,1-.7-.32,2,2,0,0,1-.51-.36,1.41,1.41,0,0,1-.3-.46,1.57,1.57,0,0,1-.11-.6,1.45,1.45,0,0,1,.2-.75,1.78,1.78,0,0,1,.51-.55,2.77,2.77,0,0,1,.74-.33,3.41,3.41,0,0,1,.85-.11,3.46,3.46,0,0,1,1.4.27v1a2.82,2.82,0,0,0-1.53-.43,1.75,1.75,0,0,0-.48.06,1.11,1.11,0,0,0-.38.18.85.85,0,0,0-.24.26.81.81,0,0,0-.08.34,1,1,0,0,0,.08.4.94.94,0,0,0,.25.28,2.48,2.48,0,0,0,.4.22l.53.22a6.21,6.21,0,0,1,.72.31,2.82,2.82,0,0,1,.54.36,1.41,1.41,0,0,1,.34.47,1.54,1.54,0,0,1,.12.63,1.49,1.49,0,0,1-.19.77,1.85,1.85,0,0,1-.53.55,2.54,2.54,0,0,1-.75.32,3.82,3.82,0,0,1-.9.1A3.54,3.54,0,0,1,35.41,104.35Z" transform="translate(-4.98)"/><path class="cls-12" d="M40.43,104.35v-1a2.85,2.85,0,0,0,1.73.59c.85,0,1.27-.29,1.27-.85a.78.78,0,0,0-.11-.41,1,1,0,0,0-.29-.29,2.27,2.27,0,0,0-.44-.23l-.53-.22a5.16,5.16,0,0,1-.7-.32,2,2,0,0,1-.51-.36,1.41,1.41,0,0,1-.3-.46,1.57,1.57,0,0,1-.11-.6,1.45,1.45,0,0,1,.2-.75,1.78,1.78,0,0,1,.51-.55,2.77,2.77,0,0,1,.74-.33,3.41,3.41,0,0,1,.85-.11,3.46,3.46,0,0,1,1.4.27v1a2.82,2.82,0,0,0-1.53-.43,1.75,1.75,0,0,0-.48.06,1.11,1.11,0,0,0-.38.18.85.85,0,0,0-.24.26.81.81,0,0,0-.08.34,1,1,0,0,0,.08.4.94.94,0,0,0,.25.28,2.48,2.48,0,0,0,.4.22l.53.22a6.21,6.21,0,0,1,.72.31,2.82,2.82,0,0,1,.54.36,1.41,1.41,0,0,1,.34.47,1.54,1.54,0,0,1,.12.63,1.49,1.49,0,0,1-.19.77,1.85,1.85,0,0,1-.53.55,2.54,2.54,0,0,1-.75.32,3.82,3.82,0,0,1-.9.1A3.54,3.54,0,0,1,40.43,104.35Z" transform="translate(-4.98)"/><path class="cls-12" d="M48.32,104.7a2.79,2.79,0,0,1-2.12-.84,3.1,3.1,0,0,1-.79-2.23,3.26,3.26,0,0,1,.82-2.36,3,3,0,0,1,2.23-.85,2.7,2.7,0,0,1,2.1.83,3.27,3.27,0,0,1,.75,2.29,3.23,3.23,0,0,1-.81,2.3A2.83,2.83,0,0,1,48.32,104.7Zm.07-5.47a1.83,1.83,0,0,0-1.46.63,2.59,2.59,0,0,0-.54,1.74,2.41,2.41,0,0,0,.55,1.68,1.83,1.83,0,0,0,1.45.62,1.78,1.78,0,0,0,1.44-.61,2.63,2.63,0,0,0,.5-1.72,2.68,2.68,0,0,0-.5-1.73A1.75,1.75,0,0,0,48.39,99.23Z" transform="translate(-4.98)"/><path class="cls-12" d="M69.17,244.8v-8.4h2.39a2.65,2.65,0,0,1,1.73.53,1.72,1.72,0,0,1,.64,1.39,2,2,0,0,1-1.45,2v0a2.08,2.08,0,0,1,1.35.64,2,2,0,0,1,.51,1.41,2.16,2.16,0,0,1-.77,1.74,2.84,2.84,0,0,1-1.95.67Zm1-7.51V240h1a1.89,1.89,0,0,0,1.27-.39,1.34,1.34,0,0,0,.47-1.09c0-.82-.54-1.23-1.61-1.23Zm0,3.6v3h1.33a2,2,0,0,0,1.35-.41,1.42,1.42,0,0,0,.47-1.12c0-1-.67-1.49-2-1.49Z" transform="translate(-4.98)"/><path class="cls-12" d="M79,239.78a1.18,1.18,0,0,0-.73-.2,1.25,1.25,0,0,0-1,.58,2.74,2.74,0,0,0-.41,1.58v3.06h-1v-6h1V240h0a2.17,2.17,0,0,1,.63-1,1.46,1.46,0,0,1,.94-.35,1.49,1.49,0,0,1,.58.08Z" transform="translate(-4.98)"/><path class="cls-12" d="M82.46,244.94a2.79,2.79,0,0,1-2.13-.84,3.1,3.1,0,0,1-.79-2.23,3.26,3.26,0,0,1,.82-2.36,3,3,0,0,1,2.24-.85,2.69,2.69,0,0,1,2.09.83,3.27,3.27,0,0,1,.75,2.29,3.23,3.23,0,0,1-.81,2.3A2.81,2.81,0,0,1,82.46,244.94Zm.07-5.47a1.84,1.84,0,0,0-1.47.63,2.59,2.59,0,0,0-.54,1.74,2.41,2.41,0,0,0,.55,1.68,1.85,1.85,0,0,0,1.46.61,1.75,1.75,0,0,0,1.43-.6,2.63,2.63,0,0,0,.5-1.72,2.68,2.68,0,0,0-.5-1.73A1.73,1.73,0,0,0,82.53,239.47Z" transform="translate(-4.98)"/><path class="cls-12" d="M94.47,238.8l-1.8,6h-1l-1.23-4.29a3,3,0,0,1-.1-.56h0a2.64,2.64,0,0,1-.12.55l-1.35,4.3h-1l-1.81-6h1l1.25,4.51a3.12,3.12,0,0,1,.08.54h0a2.38,2.38,0,0,1,.1-.55l1.38-4.5h.88l1.24,4.53a3,3,0,0,1,.09.54h0a2.4,2.4,0,0,1,.1-.54l1.22-4.53Z" transform="translate(-4.98)"/><path class="cls-12" d="M95.14,244.59v-1a2.84,2.84,0,0,0,1.73.58c.85,0,1.27-.28,1.27-.84a.78.78,0,0,0-.11-.41,1,1,0,0,0-.29-.29,1.83,1.83,0,0,0-.44-.23l-.53-.22a5.16,5.16,0,0,1-.7-.32,2.21,2.21,0,0,1-.51-.36,1.41,1.41,0,0,1-.3-.46,1.57,1.57,0,0,1-.1-.6,1.44,1.44,0,0,1,.19-.75,1.7,1.7,0,0,1,.52-.55,2.71,2.71,0,0,1,.73-.33,3.59,3.59,0,0,1,2.25.16v1a2.79,2.79,0,0,0-1.53-.43,1.75,1.75,0,0,0-.48.06,1,1,0,0,0-.37.18.66.66,0,0,0-.24.26.69.69,0,0,0-.09.34.82.82,0,0,0,.09.4.9.9,0,0,0,.24.28,2.48,2.48,0,0,0,.4.22l.54.22a6.85,6.85,0,0,1,.71.31,2.82,2.82,0,0,1,.54.36,1.41,1.41,0,0,1,.34.47,1.54,1.54,0,0,1,.12.63,1.49,1.49,0,0,1-.19.77,1.74,1.74,0,0,1-.53.55,2.54,2.54,0,0,1-.75.32,3.82,3.82,0,0,1-.9.1A3.54,3.54,0,0,1,95.14,244.59Z" transform="translate(-4.98)"/><path class="cls-12" d="M105.35,242h-4.24a2.28,2.28,0,0,0,.54,1.55,1.88,1.88,0,0,0,1.42.54,2.94,2.94,0,0,0,1.86-.66v.9a3.47,3.47,0,0,1-2.09.57,2.56,2.56,0,0,1-2-.81,3.39,3.39,0,0,1-.72-2.3,3.29,3.29,0,0,1,.79-2.29,2.58,2.58,0,0,1,2-.88,2.29,2.29,0,0,1,1.83.76,3.19,3.19,0,0,1,.64,2.12Zm-1-.81a2,2,0,0,0-.41-1.3,1.38,1.38,0,0,0-1.09-.46,1.54,1.54,0,0,0-1.16.49,2.21,2.21,0,0,0-.58,1.27Z" transform="translate(-4.98)"/><path class="cls-12" d="M109.86,239.78a1.18,1.18,0,0,0-.73-.2,1.25,1.25,0,0,0-1,.58,2.74,2.74,0,0,0-.41,1.58v3.06h-1v-6h1V240h0a2.08,2.08,0,0,1,.62-1,1.47,1.47,0,0,1,1-.35,1.44,1.44,0,0,1,.57.08Z" transform="translate(-4.98)"/><path class="cls-12" d="M67.36,259.3h-1v-1h0a2.21,2.21,0,0,1-2.06,1.16,2.25,2.25,0,0,1-1.81-.8,3.33,3.33,0,0,1-.68-2.2,3.59,3.59,0,0,1,.75-2.38,2.48,2.48,0,0,1,2-.9,2,2,0,0,1,1.8,1h0v-3.71h1Zm-1-2.71v-.88a1.74,1.74,0,0,0-.48-1.24,1.62,1.62,0,0,0-1.22-.5,1.67,1.67,0,0,0-1.38.65,2.77,2.77,0,0,0-.5,1.78A2.53,2.53,0,0,0,63.3,258a1.59,1.59,0,0,0,1.3.6,1.63,1.63,0,0,0,1.3-.58A2.11,2.11,0,0,0,66.4,256.59Z" transform="translate(-4.98)"/><path class="cls-12" d="M74.06,256.54H69.82a2.28,2.28,0,0,0,.54,1.55,1.88,1.88,0,0,0,1.42.54,2.94,2.94,0,0,0,1.86-.66v.9a3.47,3.47,0,0,1-2.09.57,2.56,2.56,0,0,1-2-.81,3.39,3.39,0,0,1-.72-2.3,3.29,3.29,0,0,1,.79-2.29,2.58,2.58,0,0,1,2-.88,2.29,2.29,0,0,1,1.83.76,3.25,3.25,0,0,1,.64,2.12Zm-1-.81a2,2,0,0,0-.41-1.3,1.38,1.38,0,0,0-1.09-.46,1.54,1.54,0,0,0-1.16.49,2.22,2.22,0,0,0-.59,1.27Z" transform="translate(-4.98)"/><path class="cls-12" d="M76.4,259.3h-1v-8.88h1Z" transform="translate(-4.98)"/><path class="cls-12" d="M79.24,259.3h-1v-8.88h1Z" transform="translate(-4.98)"/><path class="cls-12" d="M81.94,250.9v2.62h-.85V250.9Z" transform="translate(-4.98)"/><path class="cls-12" d="M88.65,259.3h-1v-.95h0a2,2,0,0,1-1.85,1.09c-1.43,0-2.14-.85-2.14-2.55V253.3h1v3.44c0,1.26.49,1.89,1.46,1.89a1.47,1.47,0,0,0,1.15-.51,2,2,0,0,0,.46-1.36V253.3h1Z" transform="translate(-4.98)"/><path class="cls-12" d="M93.3,259.24a1.82,1.82,0,0,1-.9.19c-1.05,0-1.57-.58-1.57-1.76v-3.55h-1v-.82h1v-1.46l1-.31v1.77H93.3v.82H91.79v3.38a1.49,1.49,0,0,0,.2.87.83.83,0,0,0,.68.25,1,1,0,0,0,.63-.2Z" transform="translate(-4.98)"/><path class="cls-12" d="M99.33,256.54H95.1a2.19,2.19,0,0,0,.54,1.55,1.85,1.85,0,0,0,1.41.54,3,3,0,0,0,1.87-.66v.9a3.53,3.53,0,0,1-2.1.57,2.53,2.53,0,0,1-2-.81,3.34,3.34,0,0,1-.73-2.3,3.29,3.29,0,0,1,.79-2.29,2.58,2.58,0,0,1,2-.88,2.28,2.28,0,0,1,1.82.76,3.19,3.19,0,0,1,.64,2.12Zm-1-.81a2,2,0,0,0-.4-1.3,1.4,1.4,0,0,0-1.1-.46,1.56,1.56,0,0,0-1.16.49,2.21,2.21,0,0,0-.58,1.27Z" transform="translate(-4.98)"/><path class="cls-12" d="M105.69,259.3h-1v-3.42c0-1.27-.46-1.91-1.39-1.91a1.5,1.5,0,0,0-1.19.54,2,2,0,0,0-.48,1.37v3.42h-1v-6h1v1h0a2.16,2.16,0,0,1,2-1.14,1.82,1.82,0,0,1,1.5.64,2.79,2.79,0,0,1,.52,1.83Z" transform="translate(-4.98)"/><path class="cls-12" d="M110.22,259.24a1.82,1.82,0,0,1-.9.19c-1,0-1.58-.58-1.58-1.76v-3.55h-1v-.82h1v-1.46l1-.31v1.77h1.52v.82H108.7v3.38a1.41,1.41,0,0,0,.21.87.82.82,0,0,0,.68.25,1,1,0,0,0,.63-.2Z" transform="translate(-4.98)"/><path class="cls-12" d="M116.25,256.54H112a2.28,2.28,0,0,0,.54,1.55,1.88,1.88,0,0,0,1.42.54,2.94,2.94,0,0,0,1.86-.66v.9a3.47,3.47,0,0,1-2.09.57,2.56,2.56,0,0,1-2-.81,3.39,3.39,0,0,1-.72-2.3,3.29,3.29,0,0,1,.79-2.29,2.58,2.58,0,0,1,2-.88,2.27,2.27,0,0,1,1.82.76,3.2,3.2,0,0,1,.65,2.12Zm-1-.81a1.91,1.91,0,0,0-.4-1.3,1.39,1.39,0,0,0-1.1-.46,1.54,1.54,0,0,0-1.15.49,2.22,2.22,0,0,0-.59,1.27Z" transform="translate(-4.98)"/><path class="cls-12" d="M195,244.41H194l-.89-2.35H189.5l-.84,2.35h-1.1l3.23-8.4h1Zm-2.3-3.24-1.32-3.58a3.14,3.14,0,0,1-.13-.56h0a3,3,0,0,1-.14.56l-1.3,3.58Z" transform="translate(-4.98)"/><path class="cls-12" d="M196.83,243.55h0v3.62h-1v-8.76h1v1.06h0a2.28,2.28,0,0,1,2.08-1.2,2.2,2.2,0,0,1,1.81.81,3.35,3.35,0,0,1,.65,2.16,3.73,3.73,0,0,1-.74,2.41,2.42,2.42,0,0,1-2,.9A2,2,0,0,1,196.83,243.55Zm0-2.42V242a1.81,1.81,0,0,0,.48,1.27,1.73,1.73,0,0,0,2.6-.15,3.09,3.09,0,0,0,.49-1.86,2.41,2.41,0,0,0-.46-1.57,1.53,1.53,0,0,0-1.25-.57,1.73,1.73,0,0,0-1.35.58A2.16,2.16,0,0,0,196.81,241.13Z" transform="translate(-4.98)"/><path class="cls-12" d="M203.59,243.55h0v3.62h-1v-8.76h1v1.06h0a2.26,2.26,0,0,1,2.07-1.2,2.19,2.19,0,0,1,1.81.81,3.35,3.35,0,0,1,.65,2.16,3.72,3.72,0,0,1-.73,2.41,2.46,2.46,0,0,1-2,.9A2,2,0,0,1,203.59,243.55Zm0-2.42V242a1.77,1.77,0,0,0,.49,1.27,1.71,1.71,0,0,0,2.59-.15,3.09,3.09,0,0,0,.5-1.86,2.41,2.41,0,0,0-.47-1.57,1.51,1.51,0,0,0-1.25-.57,1.73,1.73,0,0,0-1.35.58A2.16,2.16,0,0,0,203.56,241.13Z" transform="translate(-4.98)"/><path class="cls-12" d="M210.32,244.41h-1v-8.88h1Z" transform="translate(-4.98)"/><path class="cls-12" d="M212.46,236.89a.59.59,0,0,1-.44-.18.55.55,0,0,1-.19-.44.63.63,0,0,1,.63-.63.6.6,0,0,1,.44.18.58.58,0,0,1,.19.45.58.58,0,0,1-.19.44A.6.6,0,0,1,212.46,236.89Zm.46,7.52h-1v-6h1Z" transform="translate(-4.98)"/><path class="cls-12" d="M218.66,244.14a3.1,3.1,0,0,1-1.64.41,2.68,2.68,0,0,1-2.07-.83,3,3,0,0,1-.79-2.17,3.32,3.32,0,0,1,.85-2.38,3,3,0,0,1,2.27-.9,3.09,3.09,0,0,1,1.39.3v1a2.45,2.45,0,0,0-1.43-.47,2,2,0,0,0-1.51.66,2.52,2.52,0,0,0-.59,1.73,2.41,2.41,0,0,0,.56,1.67,1.92,1.92,0,0,0,1.48.61,2.4,2.4,0,0,0,1.48-.53Z" transform="translate(-4.98)"/><path class="cls-12" d="M224.11,244.41h-1v-.93h0a2,2,0,0,1-1.84,1.07,2,2,0,0,1-1.41-.47,1.68,1.68,0,0,1-.5-1.26c0-1.12.66-1.77,2-2l1.8-.25c0-1-.42-1.53-1.24-1.53a3,3,0,0,0-2,.74v-1a3.76,3.76,0,0,1,2-.56c1.41,0,2.12.75,2.12,2.24Zm-1-3-1.45.2a2.3,2.3,0,0,0-1,.33,1,1,0,0,0-.34.84.93.93,0,0,0,.32.72,1.21,1.21,0,0,0,.83.28,1.52,1.52,0,0,0,1.18-.51,1.77,1.77,0,0,0,.47-1.26Z" transform="translate(-4.98)"/><path class="cls-12" d="M229.8,238.69l-3.55,4.9h3.52v.82h-4.93v-.3l3.55-4.88h-3.22v-.82h4.63Z" transform="translate(-4.98)"/><path class="cls-12" d="M231.24,236.89a.59.59,0,0,1-.44-.18.55.55,0,0,1-.19-.44.63.63,0,0,1,.63-.63.6.6,0,0,1,.44.18.58.58,0,0,1,.19.45.58.58,0,0,1-.19.44A.6.6,0,0,1,231.24,236.89Zm.46,7.52h-1v-6h1Z" transform="translate(-4.98)"/><path class="cls-12" d="M235.86,244.55a2.79,2.79,0,0,1-2.13-.84,3.1,3.1,0,0,1-.79-2.23,3.22,3.22,0,0,1,.83-2.36,3,3,0,0,1,2.23-.85,2.69,2.69,0,0,1,2.09.83,3.28,3.28,0,0,1,.76,2.29,3.19,3.19,0,0,1-.82,2.3A2.81,2.81,0,0,1,235.86,244.55Zm.07-5.47a1.84,1.84,0,0,0-1.47.63,2.59,2.59,0,0,0-.54,1.74,2.46,2.46,0,0,0,.55,1.68,1.85,1.85,0,0,0,1.46.62,1.76,1.76,0,0,0,1.43-.61,2.63,2.63,0,0,0,.5-1.72,2.68,2.68,0,0,0-.5-1.73A1.73,1.73,0,0,0,235.93,239.08Z" transform="translate(-4.98)"/><path class="cls-12" d="M245.06,244.41h-1V241c0-1.27-.46-1.91-1.39-1.91a1.54,1.54,0,0,0-1.2.54A2,2,0,0,0,241,241v3.42h-1v-6h1v1h0a2.15,2.15,0,0,1,2-1.14,1.83,1.83,0,0,1,1.51.64,2.8,2.8,0,0,1,.52,1.84Z" transform="translate(-4.98)"/><path class="cls-12" d="M251.39,241.65h-4.23a2.19,2.19,0,0,0,.54,1.55,1.86,1.86,0,0,0,1.42.55,3,3,0,0,0,1.86-.67v.9a3.52,3.52,0,0,1-2.09.57,2.54,2.54,0,0,1-2-.81,3.34,3.34,0,0,1-.73-2.3,3.29,3.29,0,0,1,.8-2.29,2.56,2.56,0,0,1,2-.88,2.28,2.28,0,0,1,1.82.76,3.19,3.19,0,0,1,.64,2.12Zm-1-.81a2,2,0,0,0-.4-1.3,1.39,1.39,0,0,0-1.1-.46,1.52,1.52,0,0,0-1.15.49,2.16,2.16,0,0,0-.59,1.27Z" transform="translate(-4.98)"/><path class="cls-12" d="M219,250.51l-2.37,8.4h-1.16l-1.72-6.14a3.68,3.68,0,0,1-.14-.85h0a5.67,5.67,0,0,1-.15.84l-1.75,6.15h-1.14l-2.46-8.4h1.09l1.78,6.45a3.88,3.88,0,0,1,.14.84h0a5,5,0,0,1,.18-.84l1.86-6.45h.94l1.79,6.49a5.13,5.13,0,0,1,.14.79h0a5.15,5.15,0,0,1,.16-.81l1.72-6.47Z" transform="translate(-4.98)"/><path class="cls-12" d="M224.15,256.15h-4.23a2.19,2.19,0,0,0,.54,1.55,1.86,1.86,0,0,0,1.42.55,3,3,0,0,0,1.86-.67v.9a3.52,3.52,0,0,1-2.09.57,2.54,2.54,0,0,1-2-.81,3.34,3.34,0,0,1-.73-2.3,3.29,3.29,0,0,1,.8-2.29,2.56,2.56,0,0,1,2-.88,2.28,2.28,0,0,1,1.82.76,3.19,3.19,0,0,1,.64,2.12Zm-1-.81a2,2,0,0,0-.4-1.3,1.4,1.4,0,0,0-1.1-.46,1.52,1.52,0,0,0-1.15.49,2.16,2.16,0,0,0-.59,1.27Z" transform="translate(-4.98)"/><path class="cls-12" d="M226.29,258.05h0v.86h-1V250h1V254h0a2.28,2.28,0,0,1,2.08-1.2,2.17,2.17,0,0,1,1.8.81,3.3,3.3,0,0,1,.66,2.16,3.73,3.73,0,0,1-.74,2.41,2.42,2.42,0,0,1-2,.9A2,2,0,0,1,226.29,258.05Zm0-2.42v.83a1.81,1.81,0,0,0,.48,1.27,1.73,1.73,0,0,0,2.6-.15,3.09,3.09,0,0,0,.49-1.86,2.41,2.41,0,0,0-.46-1.57,1.53,1.53,0,0,0-1.25-.57,1.73,1.73,0,0,0-1.35.58A2.16,2.16,0,0,0,226.27,255.63Z" transform="translate(-4.98)"/><path class="cls-13" d="M100.13,29.9v2.89H98.24v-8.4h3c2.12,0,3.18.89,3.18,2.68a2.61,2.61,0,0,1-.91,2.05,3.63,3.63,0,0,1-2.44.78Zm0-4.06v2.62h.74c1,0,1.51-.44,1.51-1.32s-.5-1.3-1.51-1.3Z" transform="translate(-4.98)"/><path class="cls-13" d="M106.36,25.84a1.07,1.07,0,0,1-.76-.27.92.92,0,0,1-.3-.69.88.88,0,0,1,.3-.68,1.26,1.26,0,0,1,1.53,0,.93.93,0,0,1,0,1.37A1.08,1.08,0,0,1,106.36,25.84Zm.92,7h-1.85v-6h1.85Z" transform="translate(-4.98)"/><path class="cls-13" d="M113.83,32.79h-1.75v-.86h0a2,2,0,0,1-1.78,1,1.88,1.88,0,0,1-1.38-.5,1.79,1.79,0,0,1-.5-1.32q0-1.74,2.07-2l1.63-.22c0-.66-.36-1-1.07-1a3.7,3.7,0,0,0-2,.63V27.15A4.67,4.67,0,0,1,110,26.8a5.63,5.63,0,0,1,1.22-.15,2.27,2.27,0,0,1,2.57,2.56Zm-1.74-2.43V30l-1.09.14c-.6.08-.9.35-.9.82a.66.66,0,0,0,.21.51.84.84,0,0,0,.6.21,1.1,1.1,0,0,0,.85-.36A1.31,1.31,0,0,0,112.09,30.36Z" transform="translate(-4.98)"/><path class="cls-13" d="M118.92,32.72a2.67,2.67,0,0,1-1.24.22c-1.3,0-2-.68-2-2V28.16h-1V26.79h1V25.5l1.84-.53v1.82h1.35v1.37h-1.35v2.42c0,.63.25.94.75.94a1.31,1.31,0,0,0,.6-.17Z" transform="translate(-4.98)"/><path class="cls-13" d="M123.59,32.72a2.67,2.67,0,0,1-1.24.22c-1.3,0-1.95-.68-1.95-2V28.16h-1V26.79h1V25.5l1.84-.53v1.82h1.35v1.37h-1.35v2.42c0,.63.25.94.75.94a1.31,1.31,0,0,0,.6-.17Z" transform="translate(-4.98)"/><path class="cls-13" d="M129.62,32.79h-1.75v-.86h0a2,2,0,0,1-1.79,1,1.86,1.86,0,0,1-1.37-.5,1.75,1.75,0,0,1-.5-1.32q0-1.74,2.07-2l1.62-.22c0-.66-.35-1-1.06-1a3.65,3.65,0,0,0-2,.63V27.15a4.67,4.67,0,0,1,1.06-.35,5.56,5.56,0,0,1,1.22-.15,2.26,2.26,0,0,1,2.56,2.56Zm-1.74-2.43V30l-1.09.14c-.6.08-.9.35-.9.82a.67.67,0,0,0,.22.51.84.84,0,0,0,.6.21,1.11,1.11,0,0,0,.85-.36A1.35,1.35,0,0,0,127.88,30.36Z" transform="translate(-4.98)"/><path class="cls-13" d="M135,25.33a1.73,1.73,0,0,0-.68-.14c-.6,0-.89.32-.89,1v.64h1.37v1.37h-1.37v4.63h-1.85V28.16h-1V26.79h1v-.74a2.13,2.13,0,0,1,.67-1.65,2.53,2.53,0,0,1,1.82-.63,3.09,3.09,0,0,1,.93.12Z" transform="translate(-4.98)"/><path class="cls-13" d="M138.55,32.94a3.23,3.23,0,0,1-2.36-.84,3.05,3.05,0,0,1-.86-2.28,3.05,3.05,0,0,1,.89-2.33,3.38,3.38,0,0,1,2.41-.84,3.16,3.16,0,0,1,2.34.84,3,3,0,0,1,.85,2.22,3.18,3.18,0,0,1-.87,2.36A3.27,3.27,0,0,1,138.55,32.94Zm0-4.88a1.2,1.2,0,0,0-1,.46,1.92,1.92,0,0,0-.37,1.27c0,1.16.47,1.73,1.4,1.73s1.33-.59,1.33-1.77S139.49,28.06,138.59,28.06Z" transform="translate(-4.98)"/><path class="cls-13" d="M146.94,28.46a1.61,1.61,0,0,0-.78-.18,1.12,1.12,0,0,0-.94.44,1.93,1.93,0,0,0-.34,1.21v2.86H143v-6h1.86v1.12h0a1.59,1.59,0,0,1,1.58-1.22,1.14,1.14,0,0,1,.46.07Z" transform="translate(-4.98)"/><path class="cls-13" d="M157.36,32.79h-1.84V29.37c0-.87-.32-1.31-1-1.31a.9.9,0,0,0-.75.4,1.61,1.61,0,0,0-.29,1v3.35h-1.85V29.34c0-.85-.31-1.28-.94-1.28a.91.91,0,0,0-.76.38,1.65,1.65,0,0,0-.28,1v3.33h-1.86v-6h1.86v.94h0a2.17,2.17,0,0,1,.81-.78,2.2,2.2,0,0,1,1.13-.3,1.72,1.72,0,0,1,1.74,1.12,2.22,2.22,0,0,1,2-1.12c1.3,0,2,.8,2,2.41Z" transform="translate(-4.98)"/><path class="cls-13" d="M163.82,32.79h-1.75v-.86h0a2,2,0,0,1-1.78,1,1.88,1.88,0,0,1-1.38-.5,1.79,1.79,0,0,1-.5-1.32q0-1.74,2.07-2l1.63-.22c0-.66-.36-1-1.07-1a3.7,3.7,0,0,0-2,.63V27.15A4.67,4.67,0,0,1,160,26.8a5.7,5.7,0,0,1,1.22-.15,2.27,2.27,0,0,1,2.57,2.56Zm-1.74-2.43V30l-1.09.14c-.6.08-.9.35-.9.82a.64.64,0,0,0,.22.51.8.8,0,0,0,.59.21,1.1,1.1,0,0,0,.85-.36A1.31,1.31,0,0,0,162.08,30.36Z" transform="translate(-4.98)"/><path class="cls-13" d="M114.1,47.29h-1.87v-5c0-.55,0-1.15.07-1.8h0a7.75,7.75,0,0,1-.26,1.11l-2,5.71h-1.54l-2-5.65c0-.15-.14-.54-.26-1.17h-.06c.06.82.08,1.55.08,2.18v4.64h-1.7v-8.4h2.77l1.71,5a6.58,6.58,0,0,1,.3,1.2h0a10.27,10.27,0,0,1,.33-1.21l1.72-5h2.7Z" transform="translate(-4.98)"/><path class="cls-13" d="M116.77,40.34a1.1,1.1,0,0,1-.77-.27.92.92,0,0,1-.3-.69.88.88,0,0,1,.3-.68,1.14,1.14,0,0,1,.77-.26,1.16,1.16,0,0,1,.77.26,1,1,0,0,1,0,1.37A1.11,1.11,0,0,1,116.77,40.34Zm.91,6.95h-1.85v-6h1.85Z" transform="translate(-4.98)"/><path class="cls-13" d="M123.79,47.08a3.72,3.72,0,0,1-1.81.36,3,3,0,0,1-2.24-.84,2.9,2.9,0,0,1-.86-2.16A3.19,3.19,0,0,1,119.8,42a3.38,3.38,0,0,1,2.45-.88,3.14,3.14,0,0,1,1.54.28V43a2.13,2.13,0,0,0-1.3-.44,1.71,1.71,0,0,0-1.26.47,1.75,1.75,0,0,0-.47,1.29,1.71,1.71,0,0,0,.45,1.25,1.62,1.62,0,0,0,1.22.45,2.47,2.47,0,0,0,1.36-.43Z" transform="translate(-4.98)"/><path class="cls-13" d="M128.91,43a1.61,1.61,0,0,0-.78-.18,1.14,1.14,0,0,0-.94.44,1.93,1.93,0,0,0-.34,1.21v2.86H125v-6h1.85v1.12h0a1.6,1.6,0,0,1,1.59-1.22,1.12,1.12,0,0,1,.45.07Z" transform="translate(-4.98)"/><path class="cls-13" d="M132.59,47.44a3.23,3.23,0,0,1-2.36-.84,3.47,3.47,0,0,1,0-4.61,3.37,3.37,0,0,1,2.41-.84A3.18,3.18,0,0,1,135,42a3,3,0,0,1,.85,2.22,3.18,3.18,0,0,1-.87,2.36A3.27,3.27,0,0,1,132.59,47.44Zm0-4.88a1.24,1.24,0,0,0-1,.46,2,2,0,0,0-.36,1.27c0,1.16.46,1.73,1.39,1.73s1.33-.59,1.33-1.77S133.53,42.56,132.63,42.56Z" transform="translate(-4.98)"/><path class="cls-13" d="M136.67,47.13v-1.5a3.33,3.33,0,0,0,.91.41,3,3,0,0,0,.86.14,1.84,1.84,0,0,0,.78-.14.42.42,0,0,0,.28-.41.37.37,0,0,0-.13-.29,1.16,1.16,0,0,0-.33-.2,3.72,3.72,0,0,0-.44-.16l-.47-.16a6.21,6.21,0,0,1-.63-.29,1.62,1.62,0,0,1-.45-.36,1.25,1.25,0,0,1-.28-.47,1.79,1.79,0,0,1-.1-.64,1.61,1.61,0,0,1,.22-.87,1.88,1.88,0,0,1,.59-.6,3,3,0,0,1,.83-.34,4.59,4.59,0,0,1,1-.1,5.52,5.52,0,0,1,.81.06,5.3,5.3,0,0,1,.81.18v1.43a2.76,2.76,0,0,0-.75-.31,3.11,3.11,0,0,0-.79-.1,1.87,1.87,0,0,0-.34,0,1.23,1.23,0,0,0-.29.09.6.6,0,0,0-.19.16.34.34,0,0,0-.07.22.41.41,0,0,0,.11.28.79.79,0,0,0,.27.2,2.72,2.72,0,0,0,.38.16l.41.13a6.16,6.16,0,0,1,.67.28,2.55,2.55,0,0,1,.51.36,1.42,1.42,0,0,1,.33.48,1.69,1.69,0,0,1,.12.66,1.67,1.67,0,0,1-.24.91,1.9,1.9,0,0,1-.61.62,3,3,0,0,1-.89.34,5,5,0,0,1-1,.11A5.17,5.17,0,0,1,136.67,47.13Z" transform="translate(-4.98)"/><path class="cls-13" d="M145.2,47.44a3.24,3.24,0,0,1-2.36-.84,3.05,3.05,0,0,1-.86-2.28,3,3,0,0,1,.9-2.33,3.34,3.34,0,0,1,2.4-.84,3.2,3.2,0,0,1,2.35.84,3,3,0,0,1,.85,2.22,3.18,3.18,0,0,1-.88,2.36A3.24,3.24,0,0,1,145.2,47.44Zm.05-4.88a1.21,1.21,0,0,0-1,.46,2,2,0,0,0-.36,1.27c0,1.16.46,1.73,1.39,1.73s1.33-.59,1.33-1.77S146.14,42.56,145.25,42.56Z" transform="translate(-4.98)"/><path class="cls-13" d="M153.41,39.83a1.77,1.77,0,0,0-.69-.14c-.59,0-.89.32-.89,1v.64h1.38v1.37h-1.38v4.63H150V42.66h-1V41.29h1v-.74a2.13,2.13,0,0,1,.67-1.65,2.52,2.52,0,0,1,1.81-.63,3.11,3.11,0,0,1,.94.12Z" transform="translate(-4.98)"/><path class="cls-13" d="M158,47.22a2.64,2.64,0,0,1-1.24.22c-1.3,0-2-.68-2-2V42.66h-1V41.29h1V40l1.84-.53v1.82H158v1.37H156.6v2.42c0,.63.25.94.75.94a1.31,1.31,0,0,0,.6-.17Z" transform="translate(-4.98)"/><path class="cls-13" d="M111.65,61.79h-1.89v-8.4h1.89Z" transform="translate(-4.98)"/><path class="cls-13" d="M119.25,61.79H117.4V61h0a2.06,2.06,0,0,1-1.85,1,2.32,2.32,0,0,1-1.82-.79,3.33,3.33,0,0,1-.68-2.22,3.62,3.62,0,0,1,.75-2.39,2.51,2.51,0,0,1,2-.89,1.66,1.66,0,0,1,1.61.83h0V52.91h1.85Zm-1.82-2.91v-.46a1.4,1.4,0,0,0-.34-1,1.19,1.19,0,0,0-1.84.1,2.24,2.24,0,0,0-.35,1.33,1.94,1.94,0,0,0,.33,1.21,1.19,1.19,0,0,0,1.85,0A1.91,1.91,0,0,0,117.43,58.88Z" transform="translate(-4.98)"/><path class="cls-13" d="M126.2,59.32h-3.92c.07.87.61,1.31,1.65,1.31a3.24,3.24,0,0,0,1.74-.47v1.33a4.56,4.56,0,0,1-2.16.45,2.79,2.79,0,0,1-3.06-3,3.2,3.2,0,0,1,.87-2.37,2.87,2.87,0,0,1,2.13-.87,2.63,2.63,0,0,1,2,.78,3,3,0,0,1,.72,2.11Zm-1.72-1.14c0-.86-.35-1.29-1-1.29a1,1,0,0,0-.77.37,1.72,1.72,0,0,0-.4.92Z" transform="translate(-4.98)"/><path class="cls-13" d="M133.09,61.79h-1.84V58.46c0-.93-.33-1.4-1-1.4a1,1,0,0,0-.79.37,1.4,1.4,0,0,0-.31.94v3.42H127.3v-6h1.85v1h0a2.12,2.12,0,0,1,1.93-1.09c1.33,0,2,.82,2,2.47Z" transform="translate(-4.98)"/><path class="cls-13" d="M138.18,61.72a2.62,2.62,0,0,1-1.23.22,1.76,1.76,0,0,1-2-2V57.16h-1V55.79h1V54.5l1.85-.53v1.82h1.34v1.37h-1.34v2.42c0,.63.24.94.74.94a1.24,1.24,0,0,0,.6-.17Z" transform="translate(-4.98)"/><path class="cls-13" d="M140.17,54.84a1.1,1.1,0,0,1-.77-.27.92.92,0,0,1-.3-.69.88.88,0,0,1,.3-.68,1.14,1.14,0,0,1,.77-.26,1.16,1.16,0,0,1,.77.26,1,1,0,0,1,0,1.37A1.11,1.11,0,0,1,140.17,54.84Zm.91,6.95h-1.85v-6h1.85Z" transform="translate(-4.98)"/><path class="cls-13" d="M146.26,61.72a2.62,2.62,0,0,1-1.23.22,1.76,1.76,0,0,1-2-2V57.16h-1V55.79h1V54.5l1.85-.53v1.82h1.34v1.37h-1.34v2.42c0,.63.25.94.74.94a1.24,1.24,0,0,0,.6-.17Z" transform="translate(-4.98)"/><path class="cls-13" d="M153,55.79l-2.44,6.48c-.58,1.56-1.47,2.34-2.65,2.34a3.44,3.44,0,0,1-1.1-.15V63a1.48,1.48,0,0,0,.8.22,1,1,0,0,0,1-.67l.31-.75-2.44-6h2.06l1.11,3.65a4.1,4.1,0,0,1,.17.81h0a5.38,5.38,0,0,1,.2-.79l1.13-3.67Z" transform="translate(-4.98)"/></g></svg>